%TF.GenerationSoftware,KiCad,Pcbnew,(6.0.4)*%
%TF.CreationDate,2023-07-24T12:51:12-04:00*%
%TF.ProjectId,BREAD_Slice,42524541-445f-4536-9c69-63652e6b6963,rev?*%
%TF.SameCoordinates,Original*%
%TF.FileFunction,Copper,L1,Top*%
%TF.FilePolarity,Positive*%
%FSLAX46Y46*%
G04 Gerber Fmt 4.6, Leading zero omitted, Abs format (unit mm)*
G04 Created by KiCad (PCBNEW (6.0.4)) date 2023-07-24 12:51:12*
%MOMM*%
%LPD*%
G01*
G04 APERTURE LIST*
%TA.AperFunction,ComponentPad*%
%ADD10C,5.600000*%
%TD*%
%TA.AperFunction,ComponentPad*%
%ADD11R,1.600000X1.600000*%
%TD*%
%TA.AperFunction,ComponentPad*%
%ADD12O,1.600000X1.600000*%
%TD*%
%TA.AperFunction,ComponentPad*%
%ADD13R,1.700000X1.700000*%
%TD*%
%TA.AperFunction,ComponentPad*%
%ADD14O,1.700000X1.700000*%
%TD*%
%TA.AperFunction,ComponentPad*%
%ADD15C,3.000000*%
%TD*%
%TA.AperFunction,ComponentPad*%
%ADD16C,1.440000*%
%TD*%
%TA.AperFunction,ComponentPad*%
%ADD17O,1.800000X2.800000*%
%TD*%
%TA.AperFunction,ViaPad*%
%ADD18C,1.500000*%
%TD*%
%TA.AperFunction,Conductor*%
%ADD19C,0.500000*%
%TD*%
G04 APERTURE END LIST*
D10*
%TO.P,H1,1*%
%TO.N,N/C*%
X127600000Y-44800000D03*
%TD*%
%TO.P,H2,1*%
%TO.N,N/C*%
X187600000Y-44800000D03*
%TD*%
%TO.P,H3,1*%
%TO.N,N/C*%
X127600000Y-134800000D03*
%TD*%
%TO.P,H4,1*%
%TO.N,N/C*%
X187600000Y-134800000D03*
%TD*%
D11*
%TO.P,A1,1*%
%TO.N,Net-(A1-Pad1)*%
X135000000Y-100000000D03*
D12*
%TO.P,A1,2*%
%TO.N,Net-(A1-Pad2)*%
X135000000Y-102540000D03*
%TO.P,A1,3*%
%TO.N,Net-(A1-Pad3)*%
X135000000Y-105080000D03*
%TO.P,A1,4*%
%TO.N,GND*%
X135000000Y-107620000D03*
%TO.P,A1,5*%
%TO.N,/E_STOP*%
X135000000Y-110160000D03*
%TO.P,A1,6*%
%TO.N,/INT*%
X135000000Y-112700000D03*
%TO.P,A1,7*%
%TO.N,/SYNC*%
X135000000Y-115240000D03*
%TO.P,A1,8*%
%TO.N,Net-(A1-Pad8)*%
X135000000Y-117780000D03*
%TO.P,A1,9*%
%TO.N,Net-(A1-Pad9)*%
X135000000Y-120320000D03*
%TO.P,A1,10*%
%TO.N,Net-(A1-Pad10)*%
X135000000Y-122860000D03*
%TO.P,A1,11*%
%TO.N,Net-(A1-Pad11)*%
X135000000Y-125400000D03*
%TO.P,A1,12*%
%TO.N,Net-(A1-Pad12)*%
X135000000Y-127940000D03*
%TO.P,A1,13*%
%TO.N,Net-(A1-Pad13)*%
X135000000Y-130480000D03*
%TO.P,A1,14*%
%TO.N,/SIG_SEL*%
X135000000Y-133020000D03*
%TO.P,A1,15*%
%TO.N,Net-(A1-Pad15)*%
X135000000Y-135560000D03*
%TO.P,A1,16*%
%TO.N,Net-(A1-Pad16)*%
X150240000Y-135560000D03*
%TO.P,A1,17*%
%TO.N,Net-(A1-Pad17)*%
X150240000Y-133020000D03*
%TO.P,A1,18*%
%TO.N,Net-(A1-Pad18)*%
X150240000Y-130480000D03*
%TO.P,A1,19*%
%TO.N,/AUX_SW*%
X150240000Y-127940000D03*
%TO.P,A1,20*%
%TO.N,/LOW*%
X150240000Y-125400000D03*
%TO.P,A1,21*%
%TO.N,/LOW_MID*%
X150240000Y-122860000D03*
%TO.P,A1,22*%
%TO.N,/MID*%
X150240000Y-120320000D03*
%TO.P,A1,23*%
%TO.N,/I2C_DAT*%
X150240000Y-117780000D03*
%TO.P,A1,24*%
%TO.N,/I2C_CLK*%
X150240000Y-115240000D03*
%TO.P,A1,25*%
%TO.N,/HIGH_MID*%
X150240000Y-112700000D03*
%TO.P,A1,26*%
%TO.N,/HIGH*%
X150240000Y-110160000D03*
%TO.P,A1,27*%
%TO.N,+5V*%
X150240000Y-107620000D03*
%TO.P,A1,28*%
%TO.N,Net-(A1-Pad28)*%
X150240000Y-105080000D03*
%TO.P,A1,29*%
%TO.N,GND*%
X150240000Y-102540000D03*
%TO.P,A1,30*%
%TO.N,+12V*%
X150240000Y-100000000D03*
%TD*%
D13*
%TO.P,J1,1*%
%TO.N,GND*%
X129600000Y-78800000D03*
D14*
%TO.P,J1,2*%
%TO.N,+12V*%
X129600000Y-81340000D03*
%TO.P,J1,3*%
%TO.N,/I2C_CLK*%
X129600000Y-83880000D03*
%TO.P,J1,4*%
%TO.N,/I2C_DAT*%
X129600000Y-86420000D03*
%TO.P,J1,5*%
%TO.N,GND*%
X129600000Y-88960000D03*
%TO.P,J1,6*%
%TO.N,/E_STOP*%
X129600000Y-91500000D03*
%TO.P,J1,7*%
%TO.N,/INT*%
X129600000Y-94040000D03*
%TO.P,J1,8*%
%TO.N,/SYNC*%
X129600000Y-96580000D03*
%TO.P,J1,9*%
%TO.N,+12V*%
X129600000Y-99120000D03*
%TO.P,J1,10*%
%TO.N,GND*%
X129600000Y-101660000D03*
%TD*%
D15*
%TO.P,J3,R*%
%TO.N,Net-(J3-PadR)*%
X177972000Y-61187000D03*
%TO.P,J3,RN*%
%TO.N,N/C*%
X177972000Y-77417000D03*
%TO.P,J3,S*%
%TO.N,GND*%
X184322000Y-61187000D03*
%TO.P,J3,SN*%
%TO.N,N/C*%
X184322000Y-77417000D03*
%TO.P,J3,T*%
%TO.N,Net-(J3-PadT)*%
X171622000Y-61187000D03*
%TO.P,J3,TN*%
%TO.N,N/C*%
X171622000Y-77417000D03*
%TD*%
D16*
%TO.P,RV1,1*%
%TO.N,+5V*%
X135554000Y-50392000D03*
%TO.P,RV1,2*%
%TO.N,Net-(RV1-Pad2)*%
X133014000Y-47852000D03*
%TO.P,RV1,3*%
%TO.N,GND*%
X135554000Y-45312000D03*
%TD*%
%TO.P,RV2,1*%
%TO.N,GND*%
X135554000Y-58139000D03*
%TO.P,RV2,2*%
%TO.N,Net-(R6-Pad1)*%
X133014000Y-55599000D03*
%TO.P,RV2,3*%
%TO.N,/AUX_SW*%
X135554000Y-53059000D03*
%TD*%
%TO.P,RV3,1*%
%TO.N,+5V*%
X135554000Y-65886000D03*
%TO.P,RV3,2*%
%TO.N,Net-(RV3-Pad2)*%
X133014000Y-63346000D03*
%TO.P,RV3,3*%
%TO.N,GND*%
X135554000Y-60806000D03*
%TD*%
%TO.P,RV4,1*%
%TO.N,GND*%
X135554000Y-73633000D03*
%TO.P,RV4,2*%
%TO.N,Net-(R12-Pad1)*%
X133014000Y-71093000D03*
%TO.P,RV4,3*%
%TO.N,/AUX_SW*%
X135554000Y-68553000D03*
%TD*%
D17*
%TO.P,J2,R*%
%TO.N,Net-(J2-PadR)*%
X177184000Y-54932000D03*
%TO.P,J2,S*%
%TO.N,GND*%
X185084000Y-52932000D03*
%TO.P,J2,T*%
%TO.N,Net-(J2-PadT)*%
X182684000Y-54932000D03*
%TD*%
D11*
%TO.P,U1,1*%
%TO.N,Net-(R1-Pad1)*%
X151810000Y-47090000D03*
D12*
%TO.P,U1,2*%
%TO.N,Net-(R1-Pad2)*%
X151810000Y-49630000D03*
%TO.P,U1,3*%
%TO.N,Net-(RV1-Pad2)*%
X151810000Y-52170000D03*
%TO.P,U1,4*%
%TO.N,+5V*%
X151810000Y-54710000D03*
%TO.P,U1,5*%
%TO.N,Net-(R3-Pad2)*%
X151810000Y-57250000D03*
%TO.P,U1,6*%
%TO.N,Net-(R2-Pad1)*%
X151810000Y-59790000D03*
%TO.P,U1,7*%
%TO.N,Net-(R5-Pad1)*%
X151810000Y-62330000D03*
%TO.P,U1,8*%
%TO.N,/AUX_SW*%
X144190000Y-62330000D03*
%TO.P,U1,9*%
%TO.N,Net-(R6-Pad2)*%
X144190000Y-59790000D03*
%TO.P,U1,10*%
%TO.N,Net-(R5-Pad1)*%
X144190000Y-57250000D03*
%TO.P,U1,11*%
%TO.N,GND*%
X144190000Y-54710000D03*
%TO.P,U1,12*%
%TO.N,N/C*%
X144190000Y-52170000D03*
%TO.P,U1,13*%
X144190000Y-49630000D03*
%TO.P,U1,14*%
X144190000Y-47090000D03*
%TD*%
D11*
%TO.P,U2,1*%
%TO.N,Net-(R7-Pad1)*%
X151810000Y-71220000D03*
D12*
%TO.P,U2,2*%
%TO.N,Net-(R7-Pad2)*%
X151810000Y-73760000D03*
%TO.P,U2,3*%
%TO.N,Net-(RV3-Pad2)*%
X151810000Y-76300000D03*
%TO.P,U2,4*%
%TO.N,+5V*%
X151810000Y-78840000D03*
%TO.P,U2,5*%
%TO.N,Net-(R10-Pad1)*%
X151810000Y-81380000D03*
%TO.P,U2,6*%
%TO.N,Net-(R11-Pad2)*%
X151810000Y-83920000D03*
%TO.P,U2,7*%
%TO.N,Net-(R11-Pad1)*%
X151810000Y-86460000D03*
%TO.P,U2,8*%
%TO.N,/AUX_SW*%
X144190000Y-86460000D03*
%TO.P,U2,9*%
%TO.N,Net-(R12-Pad2)*%
X144190000Y-83920000D03*
%TO.P,U2,10*%
%TO.N,Net-(R11-Pad1)*%
X144190000Y-81380000D03*
%TO.P,U2,11*%
%TO.N,GND*%
X144190000Y-78840000D03*
%TO.P,U2,12*%
%TO.N,N/C*%
X144190000Y-76300000D03*
%TO.P,U2,13*%
X144190000Y-73760000D03*
%TO.P,U2,14*%
X144190000Y-71220000D03*
%TD*%
D18*
%TO.N,GND*%
X132500000Y-92600000D03*
X139808500Y-69696000D03*
X140761000Y-91984500D03*
%TO.N,+5V*%
X130347000Y-65886000D03*
X141650000Y-50392000D03*
X138602000Y-66013000D03*
X155874000Y-79221000D03*
X157906000Y-79221000D03*
X139237000Y-50392000D03*
X157398000Y-107669000D03*
X156509000Y-54964000D03*
%TO.N,Net-(RV1-Pad2)*%
X139237000Y-47852000D03*
X156509000Y-52170000D03*
%TO.N,/AUX_SW*%
X141650000Y-53186000D03*
X182544000Y-82269000D03*
X139110000Y-53059000D03*
X149270000Y-68045000D03*
%TO.N,Net-(RV3-Pad2)*%
X155874000Y-76554000D03*
X138602000Y-63346000D03*
%TD*%
D19*
%TO.N,GND*%
X133115500Y-91984500D02*
X140761000Y-91984500D01*
X132500000Y-92600000D02*
X133115500Y-91984500D01*
%TO.N,+5V*%
X157906000Y-79221000D02*
X157906000Y-107161000D01*
X141523000Y-66013000D02*
X149079500Y-73569500D01*
X141650000Y-50392000D02*
X142158000Y-50900000D01*
X142158000Y-50900000D02*
X152445000Y-50900000D01*
X149079500Y-73569500D02*
X149079500Y-76490500D01*
X139237000Y-50392000D02*
X141650000Y-50392000D01*
X152445000Y-50900000D02*
X152762500Y-51217500D01*
X157906000Y-107161000D02*
X157398000Y-107669000D01*
X149079500Y-76490500D02*
X151810000Y-79221000D01*
X140000998Y-50392000D02*
X130347000Y-60045998D01*
X152762500Y-51217500D02*
X156509000Y-54964000D01*
X141650000Y-50392000D02*
X140000998Y-50392000D01*
X151810000Y-79221000D02*
X155874000Y-79221000D01*
X130347000Y-60045998D02*
X130347000Y-65886000D01*
X138602000Y-66013000D02*
X141523000Y-66013000D01*
%TO.N,Net-(RV1-Pad2)*%
X152889500Y-48550500D02*
X156509000Y-52170000D01*
X152699000Y-48360000D02*
X152889500Y-48550500D01*
X139237000Y-47852000D02*
X139745000Y-48360000D01*
X139745000Y-48360000D02*
X152699000Y-48360000D01*
%TO.N,/AUX_SW*%
X144790001Y-58539999D02*
X149270000Y-63019998D01*
X149270000Y-63219000D02*
X149270000Y-68045000D01*
X149397000Y-62203000D02*
X169463000Y-82269000D01*
X141650000Y-53186000D02*
X141904000Y-53440000D01*
X144770002Y-53440000D02*
X149397000Y-58066998D01*
X139110000Y-54710000D02*
X142939999Y-58539999D01*
X142939999Y-58539999D02*
X144790001Y-58539999D01*
X141904000Y-53440000D02*
X144770002Y-53440000D01*
X149397000Y-58066998D02*
X149397000Y-62203000D01*
X170733000Y-82269000D02*
X182544000Y-82269000D01*
X169463000Y-82269000D02*
X170733000Y-82269000D01*
X149270000Y-63019998D02*
X149270000Y-63219000D01*
X139110000Y-53059000D02*
X139110000Y-54710000D01*
%TO.N,Net-(RV3-Pad2)*%
X153080000Y-68680000D02*
X150540000Y-68680000D01*
X138602000Y-63346000D02*
X141396000Y-63346000D01*
X149270000Y-69950000D02*
X148000000Y-69950000D01*
X150540000Y-68680000D02*
X149270000Y-69950000D01*
X155874000Y-71474000D02*
X153080000Y-68680000D01*
X138602000Y-63346000D02*
X140126000Y-63346000D01*
X155874000Y-76554000D02*
X155874000Y-71474000D01*
X148000000Y-69950000D02*
X141396000Y-63346000D01*
%TD*%
M02*
