M48
; DRILL file {KiCad (6.0.4)} date Mon Jul 24 12:51:15 2023
; FORMAT={-:-/ absolute / inch / decimal}
; #@! TF.CreationDate,2023-07-24T12:51:15-04:00
; #@! TF.GenerationSoftware,Kicad,Pcbnew,(6.0.4)
; #@! TF.FileFunction,Plated,1,2,PTH
FMAT,2
INCH
; #@! TA.AperFunction,Plated,PTH,ComponentDrill
T1C0.0315
; #@! TA.AperFunction,Plated,PTH,ViaDrill
T2C0.0394
; #@! TA.AperFunction,Plated,PTH,ComponentDrill
T3C0.0394
; #@! TA.AperFunction,Plated,PTH,ComponentDrill
T4C0.0551
; #@! TA.AperFunction,Plated,PTH,ComponentDrill
T5C0.1260
%
G90
G05
T1
X5.2368Y-1.8839
X5.2368Y-2.1889
X5.2368Y-2.4939
X5.2368Y-2.7989
X5.3368Y-1.7839
X5.3368Y-1.9839
X5.3368Y-2.0889
X5.3368Y-2.2889
X5.3368Y-2.3939
X5.3368Y-2.5939
X5.3368Y-2.6989
X5.3368Y-2.8989
X5.6768Y-1.8539
X5.6768Y-1.9539
X5.6768Y-2.0539
X5.6768Y-2.1539
X5.6768Y-2.2539
X5.6768Y-2.3539
X5.6768Y-2.4539
X5.6768Y-2.8039
X5.6768Y-2.9039
X5.6768Y-3.0039
X5.6768Y-3.1039
X5.6768Y-3.2039
X5.6768Y-3.3039
X5.6768Y-3.4039
X5.9768Y-1.8539
X5.9768Y-1.9539
X5.9768Y-2.0539
X5.9768Y-2.1539
X5.9768Y-2.2539
X5.9768Y-2.3539
X5.9768Y-2.4539
X5.9768Y-2.8039
X5.9768Y-2.9039
X5.9768Y-3.0039
X5.9768Y-3.1039
X5.9768Y-3.2039
X5.9768Y-3.3039
X5.9768Y-3.4039
T2
X5.1318Y-2.5939
X5.2165Y-3.6457
X5.4568Y-2.4939
X5.4568Y-2.5989
X5.4768Y-2.0889
X5.4818Y-1.8839
X5.4818Y-1.9839
X5.5043Y-2.7439
X5.5418Y-3.6214
X5.5768Y-1.9839
X5.5768Y-2.0939
X5.8768Y-2.6789
X6.1368Y-3.0139
X6.1368Y-3.1189
X6.1618Y-2.0539
X6.1618Y-2.1639
X6.1968Y-4.2389
X6.2168Y-3.1189
X7.1868Y-3.2389
T3
X5.1024Y-3.1024
X5.1024Y-3.2024
X5.1024Y-3.3024
X5.1024Y-3.4024
X5.1024Y-3.5024
X5.1024Y-3.6024
X5.1024Y-3.7024
X5.1024Y-3.8024
X5.1024Y-3.9024
X5.1024Y-4.0024
X5.315Y-3.937
X5.315Y-4.037
X5.315Y-4.137
X5.315Y-4.237
X5.315Y-4.337
X5.315Y-4.437
X5.315Y-4.537
X5.315Y-4.637
X5.315Y-4.737
X5.315Y-4.837
X5.315Y-4.937
X5.315Y-5.037
X5.315Y-5.137
X5.315Y-5.237
X5.315Y-5.337
X5.915Y-3.937
X5.915Y-4.037
X5.915Y-4.137
X5.915Y-4.237
X5.915Y-4.337
X5.915Y-4.437
X5.915Y-4.537
X5.915Y-4.637
X5.915Y-4.737
X5.915Y-4.837
X5.915Y-4.937
X5.915Y-5.037
X5.915Y-5.137
X5.915Y-5.237
X5.915Y-5.337
T4
X6.7568Y-2.4089
X6.7568Y-3.0479
X7.0068Y-2.4089
X7.0068Y-3.0479
X7.2568Y-2.4089
X7.2568Y-3.0479
T5
X5.0236Y-1.7638
X5.0236Y-5.3071
X7.3858Y-1.7638
X7.3858Y-5.3071
T3
G00X6.9757Y-2.143
M15
G01X6.9757Y-2.1824
M16
G05
G00X7.1923Y-2.143
M15
G01X7.1923Y-2.1824
M16
G05
G00X7.2868Y-2.0643
M15
G01X7.2868Y-2.1036
M16
G05
T0
M30
