%TF.GenerationSoftware,KiCad,Pcbnew,8.0.1*%
%TF.CreationDate,2024-04-21T18:12:41-04:00*%
%TF.ProjectId,BREAD_Slice,42524541-445f-4536-9c69-63652e6b6963,rev?*%
%TF.SameCoordinates,Original*%
%TF.FileFunction,Copper,L2,Bot*%
%TF.FilePolarity,Positive*%
%FSLAX46Y46*%
G04 Gerber Fmt 4.6, Leading zero omitted, Abs format (unit mm)*
G04 Created by KiCad (PCBNEW 8.0.1) date 2024-04-21 18:12:41*
%MOMM*%
%LPD*%
G01*
G04 APERTURE LIST*
G04 Aperture macros list*
%AMRoundRect*
0 Rectangle with rounded corners*
0 $1 Rounding radius*
0 $2 $3 $4 $5 $6 $7 $8 $9 X,Y pos of 4 corners*
0 Add a 4 corners polygon primitive as box body*
4,1,4,$2,$3,$4,$5,$6,$7,$8,$9,$2,$3,0*
0 Add four circle primitives for the rounded corners*
1,1,$1+$1,$2,$3*
1,1,$1+$1,$4,$5*
1,1,$1+$1,$6,$7*
1,1,$1+$1,$8,$9*
0 Add four rect primitives between the rounded corners*
20,1,$1+$1,$2,$3,$4,$5,0*
20,1,$1+$1,$4,$5,$6,$7,0*
20,1,$1+$1,$6,$7,$8,$9,0*
20,1,$1+$1,$8,$9,$2,$3,0*%
G04 Aperture macros list end*
%TA.AperFunction,ComponentPad*%
%ADD10C,5.600000*%
%TD*%
%TA.AperFunction,ComponentPad*%
%ADD11R,1.600000X1.600000*%
%TD*%
%TA.AperFunction,ComponentPad*%
%ADD12O,1.600000X1.600000*%
%TD*%
%TA.AperFunction,ComponentPad*%
%ADD13R,1.700000X1.700000*%
%TD*%
%TA.AperFunction,ComponentPad*%
%ADD14O,1.700000X1.700000*%
%TD*%
%TA.AperFunction,ComponentPad*%
%ADD15R,1.900000X2.000000*%
%TD*%
%TA.AperFunction,ComponentPad*%
%ADD16C,1.900000*%
%TD*%
%TA.AperFunction,ComponentPad*%
%ADD17R,1.800000X1.800000*%
%TD*%
%TA.AperFunction,ComponentPad*%
%ADD18O,1.800000X1.800000*%
%TD*%
%TA.AperFunction,ComponentPad*%
%ADD19R,2.100000X2.100000*%
%TD*%
%TA.AperFunction,ComponentPad*%
%ADD20C,2.100000*%
%TD*%
%TA.AperFunction,ComponentPad*%
%ADD21C,2.400000*%
%TD*%
%TA.AperFunction,ComponentPad*%
%ADD22C,1.440000*%
%TD*%
%TA.AperFunction,ComponentPad*%
%ADD23C,2.000000*%
%TD*%
%TA.AperFunction,ComponentPad*%
%ADD24C,3.000000*%
%TD*%
%TA.AperFunction,ComponentPad*%
%ADD25R,1.800000X1.275000*%
%TD*%
%TA.AperFunction,ComponentPad*%
%ADD26O,1.800000X1.275000*%
%TD*%
%TA.AperFunction,SMDPad,CuDef*%
%ADD27R,2.350000X2.770000*%
%TD*%
%TA.AperFunction,SMDPad,CuDef*%
%ADD28R,2.770000X2.350000*%
%TD*%
%TA.AperFunction,SMDPad,CuDef*%
%ADD29R,1.700000X2.000000*%
%TD*%
%TA.AperFunction,SMDPad,CuDef*%
%ADD30R,2.000000X1.700000*%
%TD*%
%TA.AperFunction,SMDPad,CuDef*%
%ADD31RoundRect,0.062500X0.062500X-0.350000X0.062500X0.350000X-0.062500X0.350000X-0.062500X-0.350000X0*%
%TD*%
%TA.AperFunction,SMDPad,CuDef*%
%ADD32RoundRect,0.062500X0.350000X-0.062500X0.350000X0.062500X-0.350000X0.062500X-0.350000X-0.062500X0*%
%TD*%
%TA.AperFunction,SMDPad,CuDef*%
%ADD33R,2.500000X2.500000*%
%TD*%
%TA.AperFunction,ViaPad*%
%ADD34C,0.800000*%
%TD*%
%TA.AperFunction,Conductor*%
%ADD35C,0.500000*%
%TD*%
%TA.AperFunction,Conductor*%
%ADD36C,0.250000*%
%TD*%
%TA.AperFunction,Conductor*%
%ADD37C,1.500000*%
%TD*%
G04 APERTURE END LIST*
D10*
%TO.P,H1,1*%
%TO.N,N/C*%
X127600000Y-44800000D03*
%TD*%
%TO.P,H2,1*%
%TO.N,N/C*%
X187600000Y-44800000D03*
%TD*%
%TO.P,H3,1*%
%TO.N,N/C*%
X127600000Y-134800000D03*
%TD*%
%TO.P,H4,1*%
%TO.N,N/C*%
X187600000Y-134800000D03*
%TD*%
D11*
%TO.P,A1,1*%
%TO.N,Net-(A1-Pad1)*%
X135000000Y-100000000D03*
D12*
%TO.P,A1,2*%
%TO.N,Net-(A1-Pad2)*%
X135000000Y-102540000D03*
%TO.P,A1,3*%
%TO.N,Net-(A1-Pad3)*%
X135000000Y-105080000D03*
%TO.P,A1,4*%
%TO.N,GND*%
X135000000Y-107620000D03*
%TO.P,A1,5*%
%TO.N,/E_STOP*%
X135000000Y-110160000D03*
%TO.P,A1,6*%
%TO.N,/INT*%
X135000000Y-112700000D03*
%TO.P,A1,7*%
%TO.N,/SYNC*%
X135000000Y-115240000D03*
%TO.P,A1,8*%
%TO.N,/CHG*%
X135000000Y-117780000D03*
%TO.P,A1,9*%
%TO.N,/DONE*%
X135000000Y-120320000D03*
%TO.P,A1,10*%
%TO.N,/PG*%
X135000000Y-122860000D03*
%TO.P,A1,11*%
%TO.N,Net-(A1-Pad11)*%
X135000000Y-125400000D03*
%TO.P,A1,12*%
%TO.N,Net-(A1-Pad12)*%
X135000000Y-127940000D03*
%TO.P,A1,13*%
%TO.N,Net-(A1-Pad13)*%
X135000000Y-130480000D03*
%TO.P,A1,14*%
%TO.N,Net-(A1-Pad14)*%
X135000000Y-133020000D03*
%TO.P,A1,15*%
%TO.N,Net-(A1-Pad15)*%
X135000000Y-135560000D03*
%TO.P,A1,16*%
%TO.N,Net-(A1-Pad16)*%
X150240000Y-135560000D03*
%TO.P,A1,17*%
%TO.N,Net-(A1-Pad17)*%
X150240000Y-133020000D03*
%TO.P,A1,18*%
%TO.N,Net-(A1-Pad18)*%
X150240000Y-130480000D03*
%TO.P,A1,19*%
%TO.N,Net-(A1-Pad19)*%
X150240000Y-127940000D03*
%TO.P,A1,20*%
%TO.N,Net-(A1-Pad20)*%
X150240000Y-125400000D03*
%TO.P,A1,21*%
%TO.N,Net-(A1-Pad21)*%
X150240000Y-122860000D03*
%TO.P,A1,22*%
%TO.N,Net-(A1-Pad22)*%
X150240000Y-120320000D03*
%TO.P,A1,23*%
%TO.N,/I2C_DAT*%
X150240000Y-117780000D03*
%TO.P,A1,24*%
%TO.N,/I2C_CLK*%
X150240000Y-115240000D03*
%TO.P,A1,25*%
%TO.N,Net-(A1-Pad25)*%
X150240000Y-112700000D03*
%TO.P,A1,26*%
%TO.N,Net-(A1-Pad26)*%
X150240000Y-110160000D03*
%TO.P,A1,27*%
%TO.N,+5V*%
X150240000Y-107620000D03*
%TO.P,A1,28*%
%TO.N,Net-(A1-Pad28)*%
X150240000Y-105080000D03*
%TO.P,A1,29*%
%TO.N,GND*%
X150240000Y-102540000D03*
%TO.P,A1,30*%
%TO.N,/PWR*%
X150240000Y-100000000D03*
%TD*%
D13*
%TO.P,J1,1*%
%TO.N,GND*%
X129600000Y-78800000D03*
D14*
%TO.P,J1,2*%
%TO.N,/PWR*%
X129600000Y-81340000D03*
%TO.P,J1,3*%
%TO.N,/I2C_CLK*%
X129600000Y-83880000D03*
%TO.P,J1,4*%
%TO.N,/I2C_DAT*%
X129600000Y-86420000D03*
%TO.P,J1,5*%
%TO.N,GND*%
X129600000Y-88960000D03*
%TO.P,J1,6*%
%TO.N,/E_STOP*%
X129600000Y-91500000D03*
%TO.P,J1,7*%
%TO.N,/INT*%
X129600000Y-94040000D03*
%TO.P,J1,8*%
%TO.N,/SYNC*%
X129600000Y-96580000D03*
%TO.P,J1,9*%
%TO.N,/PWR*%
X129600000Y-99120000D03*
%TO.P,J1,10*%
%TO.N,GND*%
X129600000Y-101660000D03*
%TD*%
D15*
%TO.P,D1,1*%
%TO.N,/CHG*%
X138094000Y-77316000D03*
D16*
%TO.P,D1,2*%
%TO.N,Net-(D1-Pad2)*%
X140634000Y-77316000D03*
%TD*%
D15*
%TO.P,D2,1*%
%TO.N,/DONE*%
X146603000Y-77316000D03*
D16*
%TO.P,D2,2*%
%TO.N,Net-(D2-Pad2)*%
X149143000Y-77316000D03*
%TD*%
D15*
%TO.P,D3,1*%
%TO.N,/PG*%
X154858000Y-77189000D03*
D16*
%TO.P,D3,2*%
%TO.N,Net-(D3-Pad2)*%
X157398000Y-77189000D03*
%TD*%
D17*
%TO.P,D4,1*%
%TO.N,Net-(D4-Pad1)*%
X154858000Y-50773000D03*
D18*
%TO.P,D4,2*%
%TO.N,GND*%
X154858000Y-43153000D03*
%TD*%
D19*
%TO.P,J2,1*%
%TO.N,Net-(C4-Pad1)*%
X186354000Y-50773000D03*
D20*
%TO.P,J2,2*%
%TO.N,GND*%
X186354000Y-53313000D03*
%TD*%
D19*
%TO.P,J3,1*%
%TO.N,Net-(C6-Pad1)*%
X185719000Y-95985000D03*
D20*
%TO.P,J3,2*%
%TO.N,GND*%
X185719000Y-98525000D03*
%TD*%
D21*
%TO.P,L1,1*%
%TO.N,VCC*%
X164764000Y-59917000D03*
%TO.P,L1,2*%
%TO.N,Net-(D4-Pad1)*%
X164764000Y-49917000D03*
%TD*%
D22*
%TO.P,RV1,1*%
%TO.N,VCC*%
X186925500Y-78014500D03*
%TO.P,RV1,2*%
%TO.N,Net-(RV1-Pad2)*%
X186925500Y-75474500D03*
%TO.P,RV1,3*%
%TO.N,GND*%
X186925500Y-72934500D03*
%TD*%
D23*
%TO.P,TH1,1*%
%TO.N,GND*%
X186735000Y-118591000D03*
%TO.P,TH1,2*%
%TO.N,Net-(R6-Pad2)*%
X186735000Y-109591000D03*
%TD*%
D24*
%TO.P,TP2,1*%
%TO.N,Net-(RV1-Pad2)*%
X186735000Y-85253500D03*
%TD*%
%TO.P,TP1,1*%
%TO.N,GND*%
X186735000Y-64489000D03*
%TD*%
D25*
%TO.P,U1,1*%
%TO.N,Net-(C4-Pad1)*%
X174670000Y-50011000D03*
D26*
%TO.P,U1,2*%
%TO.N,Net-(D4-Pad1)*%
X174670000Y-51711000D03*
%TO.P,U1,3*%
%TO.N,GND*%
X174670000Y-53411000D03*
%TO.P,U1,4*%
%TO.N,Net-(R4-Pad1)*%
X174670000Y-55111000D03*
%TO.P,U1,5*%
%TO.N,GND*%
X174670000Y-56811000D03*
%TD*%
D27*
%TO.P,C2,1*%
%TO.N,+5V*%
X154096000Y-107639000D03*
%TO.P,C2,2*%
%TO.N,GND*%
X154096000Y-112779000D03*
%TD*%
%TO.P,C1,1*%
%TO.N,/PWR*%
X153842000Y-99825000D03*
%TO.P,C1,2*%
%TO.N,GND*%
X153842000Y-94685000D03*
%TD*%
D28*
%TO.P,C3,1*%
%TO.N,VCC*%
X160476000Y-59790000D03*
%TO.P,C3,2*%
%TO.N,GND*%
X155336000Y-59790000D03*
%TD*%
D27*
%TO.P,C4,1*%
%TO.N,Net-(C4-Pad1)*%
X179623000Y-49981000D03*
%TO.P,C4,2*%
%TO.N,GND*%
X179623000Y-55121000D03*
%TD*%
%TO.P,C5,1*%
%TO.N,/PWR*%
X171114000Y-105543500D03*
%TO.P,C5,2*%
%TO.N,GND*%
X171114000Y-110683500D03*
%TD*%
%TO.P,C6,1*%
%TO.N,Net-(C6-Pad1)*%
X182290000Y-94939000D03*
%TO.P,C6,2*%
%TO.N,GND*%
X182290000Y-100079000D03*
%TD*%
D29*
%TO.P,R1,1*%
%TO.N,Net-(D1-Pad2)*%
X140634000Y-70299000D03*
%TO.P,R1,2*%
%TO.N,VCC*%
X140634000Y-66299000D03*
%TD*%
%TO.P,R2,1*%
%TO.N,Net-(D2-Pad2)*%
X149270000Y-70299000D03*
%TO.P,R2,2*%
%TO.N,VCC*%
X149270000Y-66299000D03*
%TD*%
%TO.P,R3,1*%
%TO.N,Net-(D3-Pad2)*%
X157271000Y-70299000D03*
%TO.P,R3,2*%
%TO.N,VCC*%
X157271000Y-66299000D03*
%TD*%
D30*
%TO.P,R4,1*%
%TO.N,Net-(R4-Pad1)*%
X156033000Y-55345000D03*
%TO.P,R4,2*%
%TO.N,VCC*%
X160033000Y-55345000D03*
%TD*%
%TO.P,R5,1*%
%TO.N,GND*%
X148413000Y-55345000D03*
%TO.P,R5,2*%
%TO.N,Net-(R4-Pad1)*%
X152413000Y-55345000D03*
%TD*%
D29*
%TO.P,R6,1*%
%TO.N,GND*%
X166478500Y-118051000D03*
%TO.P,R6,2*%
%TO.N,Net-(R6-Pad2)*%
X166478500Y-114051000D03*
%TD*%
%TO.P,R7,1*%
%TO.N,Net-(R7-Pad1)*%
X173273000Y-95572000D03*
%TO.P,R7,2*%
%TO.N,GND*%
X173273000Y-91572000D03*
%TD*%
D30*
%TO.P,R8,1*%
%TO.N,Net-(R8-Pad1)*%
X168288000Y-94270500D03*
%TO.P,R8,2*%
%TO.N,GND*%
X164288000Y-94270500D03*
%TD*%
D29*
%TO.P,R9,1*%
%TO.N,Net-(R9-Pad1)*%
X166542000Y-106113500D03*
%TO.P,R9,2*%
%TO.N,Net-(R6-Pad2)*%
X166542000Y-110113500D03*
%TD*%
D31*
%TO.P,U2,1*%
%TO.N,/PWR*%
X169447000Y-102177000D03*
%TO.P,U2,2*%
%TO.N,Net-(RV1-Pad2)*%
X168947000Y-102177000D03*
%TO.P,U2,3*%
%TO.N,VCC*%
X168447000Y-102177000D03*
%TO.P,U2,4*%
X167947000Y-102177000D03*
%TO.P,U2,5*%
%TO.N,Net-(R9-Pad1)*%
X167447000Y-102177000D03*
D32*
%TO.P,U2,6*%
%TO.N,/PG*%
X166509500Y-101239500D03*
%TO.P,U2,7*%
%TO.N,/DONE*%
X166509500Y-100739500D03*
%TO.P,U2,8*%
%TO.N,/CHG*%
X166509500Y-100239500D03*
%TO.P,U2,9*%
%TO.N,VCC*%
X166509500Y-99739500D03*
%TO.P,U2,10*%
%TO.N,GND*%
X166509500Y-99239500D03*
D31*
%TO.P,U2,11*%
X167447000Y-98302000D03*
%TO.P,U2,12*%
%TO.N,Net-(R8-Pad1)*%
X167947000Y-98302000D03*
%TO.P,U2,13*%
%TO.N,Net-(R7-Pad1)*%
X168447000Y-98302000D03*
%TO.P,U2,14*%
%TO.N,Net-(C6-Pad1)*%
X168947000Y-98302000D03*
%TO.P,U2,15*%
X169447000Y-98302000D03*
D32*
%TO.P,U2,16*%
X170384500Y-99239500D03*
%TO.P,U2,17*%
%TO.N,VCC*%
X170384500Y-99739500D03*
%TO.P,U2,18*%
X170384500Y-100239500D03*
%TO.P,U2,19*%
X170384500Y-100739500D03*
%TO.P,U2,20*%
%TO.N,/PWR*%
X170384500Y-101239500D03*
D33*
%TO.P,U2,21*%
%TO.N,GND*%
X168447000Y-100239500D03*
%TD*%
D34*
%TO.N,GND*%
X129585000Y-71093000D03*
X150667000Y-61060000D03*
X133268000Y-92429000D03*
X162224000Y-64616000D03*
%TO.N,/CHG*%
X157334500Y-85126500D03*
X129458000Y-117765500D03*
%TO.N,/DONE*%
X129458000Y-120305500D03*
X157334500Y-88111000D03*
%TO.N,/PG*%
X129458000Y-122845500D03*
X157334500Y-91159000D03*
%TO.N,/PWR*%
X173781000Y-105510000D03*
X157017000Y-104367000D03*
%TO.N,VCC*%
X173908000Y-102462000D03*
X168193000Y-104367000D03*
X167431000Y-103732000D03*
X164510000Y-97763000D03*
%TD*%
D35*
%TO.N,GND*%
X129600000Y-78800000D02*
X129600000Y-71108000D01*
D36*
X166509500Y-98748000D02*
X166955500Y-98302000D01*
D35*
X186925500Y-72934500D02*
X186925500Y-64679500D01*
D36*
X167447000Y-99239500D02*
X168447000Y-100239500D01*
X167447000Y-98302000D02*
X167447000Y-99239500D01*
D35*
X133268000Y-92429000D02*
X129799000Y-88960000D01*
D36*
X166509500Y-99239500D02*
X167447000Y-99239500D01*
D35*
X129799000Y-88960000D02*
X129600000Y-88960000D01*
X186925500Y-64679500D02*
X186735000Y-64489000D01*
D36*
X166509500Y-99239500D02*
X166509500Y-98748000D01*
X166955500Y-98302000D02*
X167447000Y-98302000D01*
D35*
X155336000Y-59790000D02*
X151937000Y-59790000D01*
X151937000Y-59790000D02*
X150667000Y-61060000D01*
X129600000Y-71108000D02*
X129585000Y-71093000D01*
D37*
%TO.N,+5V*%
X150259000Y-107639000D02*
X150240000Y-107620000D01*
X154096000Y-107639000D02*
X150259000Y-107639000D01*
D35*
%TO.N,/I2C_CLK*%
X140507000Y-111860000D02*
X140507000Y-94787000D01*
X140507000Y-94787000D02*
X129600000Y-83880000D01*
X143887000Y-115240000D02*
X140507000Y-111860000D01*
X150240000Y-115240000D02*
X143887000Y-115240000D01*
%TO.N,/I2C_DAT*%
X138475000Y-113193500D02*
X143061500Y-117780000D01*
X129600000Y-86420000D02*
X138475000Y-95295000D01*
X143061500Y-117780000D02*
X150240000Y-117780000D01*
X138475000Y-95295000D02*
X138475000Y-113193500D01*
%TO.N,/SYNC*%
X130982000Y-97962000D02*
X129600000Y-96580000D01*
X130982000Y-112685500D02*
X130982000Y-97962000D01*
X133536500Y-115240000D02*
X130982000Y-112685500D01*
X135000000Y-115240000D02*
X133536500Y-115240000D01*
%TO.N,/E_STOP*%
X133028500Y-110160000D02*
X133028500Y-94928500D01*
X135000000Y-110160000D02*
X133028500Y-110160000D01*
X133028500Y-94928500D02*
X129600000Y-91500000D01*
%TO.N,/INT*%
X133790500Y-112700000D02*
X131682010Y-110591510D01*
X135000000Y-112700000D02*
X133790500Y-112700000D01*
X131682010Y-110591510D02*
X131682010Y-96122010D01*
X131682010Y-96122010D02*
X129600000Y-94040000D01*
%TO.N,/CHG*%
X135000000Y-117780000D02*
X129472500Y-117780000D01*
D36*
X164002000Y-99668000D02*
X163748000Y-99668000D01*
X164573500Y-100239500D02*
X164002000Y-99668000D01*
D35*
X161462000Y-96620000D02*
X161462000Y-87476000D01*
X145904500Y-85126500D02*
X138094000Y-77316000D01*
X161462000Y-87476000D02*
X159112500Y-85126500D01*
X163748000Y-98906000D02*
X161462000Y-96620000D01*
X129472500Y-117780000D02*
X129458000Y-117765500D01*
X159112500Y-85126500D02*
X157334500Y-85126500D01*
D36*
X166509500Y-100239500D02*
X164573500Y-100239500D01*
D35*
X163748000Y-99668000D02*
X163748000Y-98906000D01*
X157334500Y-85126500D02*
X145904500Y-85126500D01*
%TO.N,/DONE*%
X157334500Y-88111000D02*
X145904500Y-88111000D01*
X163613000Y-100739500D02*
X160128500Y-97255000D01*
X136189000Y-70902500D02*
X138346490Y-68745010D01*
X160128500Y-88809500D02*
X159430000Y-88111000D01*
X159430000Y-88111000D02*
X157334500Y-88111000D01*
X135000000Y-120320000D02*
X129472500Y-120320000D01*
X143048510Y-68745010D02*
X146603000Y-72299500D01*
D36*
X166509500Y-100739500D02*
X163756000Y-100739500D01*
D35*
X163756000Y-100739500D02*
X163613000Y-100739500D01*
X146603000Y-72299500D02*
X146603000Y-77316000D01*
X160128500Y-97255000D02*
X160128500Y-88809500D01*
X138346490Y-68745010D02*
X143048510Y-68745010D01*
X136189000Y-78395500D02*
X136189000Y-70902500D01*
X145904500Y-88111000D02*
X136189000Y-78395500D01*
X129472500Y-120320000D02*
X129458000Y-120305500D01*
D36*
%TO.N,/PG*%
X164716500Y-101239500D02*
X164192500Y-101763500D01*
D35*
X134093500Y-77760500D02*
X134093500Y-70331000D01*
X135000000Y-122860000D02*
X129472500Y-122860000D01*
X154858000Y-70394500D02*
X154858000Y-77189000D01*
X163811500Y-101763500D02*
X161779500Y-101763500D01*
X147492000Y-91159000D02*
X134093500Y-77760500D01*
X158668000Y-92492500D02*
X157334500Y-91159000D01*
X158668000Y-98652000D02*
X158668000Y-92492500D01*
X157334500Y-91159000D02*
X147492000Y-91159000D01*
X152508500Y-68045000D02*
X154858000Y-70394500D01*
D36*
X164192500Y-101763500D02*
X163811500Y-101763500D01*
D35*
X161779500Y-101763500D02*
X158668000Y-98652000D01*
X134093500Y-70331000D02*
X136379500Y-68045000D01*
X129472500Y-122860000D02*
X129458000Y-122845500D01*
D36*
X166509500Y-101239500D02*
X164716500Y-101239500D01*
D35*
X136379500Y-68045000D02*
X152508500Y-68045000D01*
%TO.N,/PWR*%
X171147500Y-105510000D02*
X171114000Y-105543500D01*
D36*
X169811500Y-102177000D02*
X169447000Y-102177000D01*
D37*
X134879000Y-81340000D02*
X150240000Y-96701000D01*
D35*
X153842000Y-99825000D02*
X153842000Y-101192000D01*
X171050500Y-105480000D02*
X171114000Y-105543500D01*
X153842000Y-101192000D02*
X157017000Y-104367000D01*
D37*
X129600000Y-81340000D02*
X134879000Y-81340000D01*
X129600000Y-81340000D02*
X127402500Y-81340000D01*
X125648000Y-83094500D02*
X125648000Y-96302500D01*
D36*
X170098000Y-101890500D02*
X169811500Y-102177000D01*
X170384500Y-101604000D02*
X170098000Y-101890500D01*
D37*
X153842000Y-99825000D02*
X150415000Y-99825000D01*
D36*
X170098000Y-101954000D02*
X171050500Y-102906500D01*
D35*
X171050500Y-102906500D02*
X171050500Y-105480000D01*
D37*
X128465500Y-99120000D02*
X129600000Y-99120000D01*
D35*
X173781000Y-105510000D02*
X171147500Y-105510000D01*
D36*
X170384500Y-101239500D02*
X170384500Y-101604000D01*
X170098000Y-101890500D02*
X170098000Y-101954000D01*
D37*
X125648000Y-96302500D02*
X128465500Y-99120000D01*
X127402500Y-81340000D02*
X125648000Y-83094500D01*
X150415000Y-99825000D02*
X150240000Y-100000000D01*
X150240000Y-96701000D02*
X150240000Y-100000000D01*
D35*
%TO.N,VCC*%
X188685001Y-100321499D02*
X188685001Y-92982001D01*
D37*
X164637000Y-59790000D02*
X164764000Y-59917000D01*
D36*
X170384500Y-99739500D02*
X172439500Y-99739500D01*
X167947000Y-102177000D02*
X167947000Y-103279500D01*
D37*
X160033000Y-55345000D02*
X160033000Y-59347000D01*
D35*
X160476000Y-63094000D02*
X157271000Y-66299000D01*
X173908000Y-102462000D02*
X178353000Y-102462000D01*
X177146500Y-78014500D02*
X186925500Y-78014500D01*
X164764000Y-59917000D02*
X164764000Y-65632000D01*
X164573500Y-97826500D02*
X164510000Y-97763000D01*
X157271000Y-66299000D02*
X140634000Y-66299000D01*
D36*
X170384500Y-99739500D02*
X170384500Y-100739500D01*
D35*
X178353000Y-102462000D02*
X178797500Y-102906500D01*
D36*
X164573500Y-98588500D02*
X164573500Y-97826500D01*
D35*
X178797500Y-102906500D02*
X186100000Y-102906500D01*
X167431000Y-103732000D02*
X167558000Y-103732000D01*
D36*
X166509500Y-99739500D02*
X165724500Y-99739500D01*
X172439500Y-99739500D02*
X172892000Y-99287000D01*
D37*
X160033000Y-59347000D02*
X160476000Y-59790000D01*
X160476000Y-59790000D02*
X164637000Y-59790000D01*
D35*
X183750500Y-81189500D02*
X186925500Y-78014500D01*
X160476000Y-59790000D02*
X160476000Y-63094000D01*
X164764000Y-65632000D02*
X177146500Y-78014500D01*
X167558000Y-103732000D02*
X168193000Y-104367000D01*
X188685001Y-92982001D02*
X183750500Y-88047500D01*
X175178000Y-99287000D02*
X178797500Y-102906500D01*
X172892000Y-99287000D02*
X175178000Y-99287000D01*
D36*
X167947000Y-103279500D02*
X167685000Y-103541500D01*
X167947000Y-102177000D02*
X168447000Y-102177000D01*
D35*
X186100000Y-102906500D02*
X188685001Y-100321499D01*
X183750500Y-88047500D02*
X183750500Y-81189500D01*
D36*
X165724500Y-99739500D02*
X164573500Y-98588500D01*
D37*
%TO.N,Net-(C4-Pad1)*%
X175305000Y-48741000D02*
X174670000Y-49376000D01*
X177083000Y-48741000D02*
X175305000Y-48741000D01*
X174670000Y-49376000D02*
X174670000Y-50011000D01*
X180415000Y-50773000D02*
X179623000Y-49981000D01*
X179623000Y-49981000D02*
X178323000Y-49981000D01*
X178323000Y-49981000D02*
X177083000Y-48741000D01*
X186354000Y-50773000D02*
X180415000Y-50773000D01*
D36*
%TO.N,Net-(C6-Pad1)*%
X170225000Y-98525000D02*
X170225000Y-98461500D01*
D35*
X178446500Y-94939000D02*
X175749500Y-97636000D01*
X182290000Y-94939000D02*
X178446500Y-94939000D01*
D36*
X169447000Y-98302000D02*
X170002000Y-98302000D01*
X168947000Y-98302000D02*
X169447000Y-98302000D01*
X170002000Y-98302000D02*
X170225000Y-98525000D01*
D35*
X184673000Y-94939000D02*
X185719000Y-95985000D01*
X175749500Y-97636000D02*
X171050500Y-97636000D01*
D36*
X170225000Y-98461500D02*
X171050500Y-97636000D01*
D35*
X182290000Y-94939000D02*
X184673000Y-94939000D01*
D36*
X170384500Y-98684500D02*
X170384500Y-99239500D01*
X170225000Y-98525000D02*
X170384500Y-98684500D01*
D35*
%TO.N,Net-(D1-Pad2)*%
X140634000Y-70299000D02*
X140634000Y-77316000D01*
%TO.N,Net-(D2-Pad2)*%
X149270000Y-77189000D02*
X149143000Y-77316000D01*
X149270000Y-70299000D02*
X149270000Y-77189000D01*
%TO.N,Net-(D3-Pad2)*%
X157271000Y-77062000D02*
X157398000Y-77189000D01*
X157271000Y-70299000D02*
X157271000Y-77062000D01*
D37*
%TO.N,Net-(D4-Pad1)*%
X174670000Y-51711000D02*
X166558000Y-51711000D01*
X164764000Y-49917000D02*
X155714000Y-49917000D01*
X155714000Y-49917000D02*
X154858000Y-50773000D01*
X166558000Y-51711000D02*
X164764000Y-49917000D01*
%TO.N,Net-(R4-Pad1)*%
X164256000Y-52678000D02*
X157906000Y-52678000D01*
X174670000Y-55218000D02*
X174664510Y-55223490D01*
X157906000Y-52678000D02*
X156033000Y-54551000D01*
X156033000Y-54551000D02*
X156033000Y-55345000D01*
X166801490Y-55223490D02*
X164256000Y-52678000D01*
X174670000Y-55111000D02*
X174670000Y-55218000D01*
X174664510Y-55223490D02*
X166801490Y-55223490D01*
X156033000Y-55345000D02*
X152413000Y-55345000D01*
D35*
%TO.N,Net-(R6-Pad2)*%
X166478500Y-114051000D02*
X166478500Y-110177000D01*
X178209000Y-109591000D02*
X173749000Y-114051000D01*
X186735000Y-109591000D02*
X178209000Y-109591000D01*
X166478500Y-110177000D02*
X166542000Y-110113500D01*
X173749000Y-114051000D02*
X166478500Y-114051000D01*
%TO.N,Net-(R7-Pad1)*%
X168891500Y-96620000D02*
X169939500Y-95572000D01*
D36*
X168447000Y-97841478D02*
X168447000Y-97318500D01*
X168447000Y-97318500D02*
X168891500Y-96874000D01*
D35*
X169939500Y-95572000D02*
X173273000Y-95572000D01*
D36*
X168447000Y-98302000D02*
X168447000Y-97841478D01*
D35*
X168891500Y-96874000D02*
X168891500Y-96620000D01*
D36*
%TO.N,Net-(R8-Pad1)*%
X167897010Y-98292510D02*
X167897010Y-97213010D01*
X167906500Y-98302000D02*
X167897010Y-98292510D01*
X167897010Y-97213010D02*
X167494500Y-96810500D01*
D35*
X167494500Y-95064000D02*
X168288000Y-94270500D01*
X167494500Y-96810500D02*
X167494500Y-95064000D01*
D36*
X167947000Y-98302000D02*
X167906500Y-98302000D01*
%TO.N,Net-(R9-Pad1)*%
X167208000Y-102177000D02*
X166351500Y-103033500D01*
X166351500Y-103033500D02*
X166351500Y-103478000D01*
D35*
X166351500Y-105923000D02*
X166542000Y-106113500D01*
X166351500Y-103478000D02*
X166351500Y-105923000D01*
D36*
X167447000Y-102177000D02*
X167208000Y-102177000D01*
D35*
%TO.N,Net-(RV1-Pad2)*%
X169336000Y-103541500D02*
X169336000Y-107135502D01*
X188894000Y-75474500D02*
X190164000Y-76744500D01*
D36*
X168947000Y-103152500D02*
X169336000Y-103541500D01*
D35*
X176575000Y-107859500D02*
X180575500Y-103859000D01*
X189385011Y-87903511D02*
X186735000Y-85253500D01*
X180575500Y-103859000D02*
X186137462Y-103859000D01*
D36*
X168947000Y-102177000D02*
X168947000Y-103152500D01*
D35*
X186137462Y-103859000D02*
X189385011Y-100611452D01*
X169336000Y-107135502D02*
X170059998Y-107859500D01*
X190164000Y-76744500D02*
X190164000Y-81824500D01*
X186925500Y-75474500D02*
X188894000Y-75474500D01*
X189385011Y-100611452D02*
X189385011Y-87903511D01*
X190164000Y-81824500D02*
X186735000Y-85253500D01*
X170059998Y-107859500D02*
X176575000Y-107859500D01*
%TD*%
%TA.AperFunction,Conductor*%
%TO.N,GND*%
G36*
X134373643Y-82618502D02*
G01*
X134394617Y-82635405D01*
X148944595Y-97185382D01*
X148978621Y-97247694D01*
X148981500Y-97274477D01*
X148981500Y-99624542D01*
X148977207Y-99657152D01*
X148946457Y-99771913D01*
X148926502Y-100000000D01*
X148933711Y-100082405D01*
X148946457Y-100228086D01*
X149005715Y-100449240D01*
X149005717Y-100449246D01*
X149069958Y-100587012D01*
X149102477Y-100656749D01*
X149233802Y-100844300D01*
X149395700Y-101006198D01*
X149583251Y-101137523D01*
X149623045Y-101156079D01*
X149623047Y-101156080D01*
X149676332Y-101202996D01*
X149695794Y-101271273D01*
X149675253Y-101339233D01*
X149623051Y-101384468D01*
X149583504Y-101402910D01*
X149396025Y-101534184D01*
X149396019Y-101534189D01*
X149234189Y-101696019D01*
X149234184Y-101696025D01*
X149102912Y-101883501D01*
X149006188Y-102090926D01*
X149006186Y-102090931D01*
X148953917Y-102286000D01*
X149809297Y-102286000D01*
X149774075Y-102347007D01*
X149740000Y-102474174D01*
X149740000Y-102605826D01*
X149774075Y-102732993D01*
X149809297Y-102794000D01*
X148953918Y-102794000D01*
X149006186Y-102989068D01*
X149006188Y-102989073D01*
X149102912Y-103196498D01*
X149234184Y-103383974D01*
X149234189Y-103383980D01*
X149396019Y-103545810D01*
X149396025Y-103545815D01*
X149583503Y-103677089D01*
X149623049Y-103695530D01*
X149676334Y-103742447D01*
X149695794Y-103810724D01*
X149675252Y-103878684D01*
X149623049Y-103923918D01*
X149583252Y-103942475D01*
X149395703Y-104073799D01*
X149395697Y-104073804D01*
X149233804Y-104235697D01*
X149233799Y-104235703D01*
X149102477Y-104423250D01*
X149005717Y-104630753D01*
X149005715Y-104630759D01*
X148973418Y-104751294D01*
X148946457Y-104851913D01*
X148926502Y-105080000D01*
X148946457Y-105308087D01*
X148949944Y-105321099D01*
X149005715Y-105529240D01*
X149005717Y-105529246D01*
X149102477Y-105736749D01*
X149210301Y-105890738D01*
X149233802Y-105924300D01*
X149395700Y-106086198D01*
X149583251Y-106217523D01*
X149618359Y-106233894D01*
X149622457Y-106235805D01*
X149675742Y-106282722D01*
X149695203Y-106350999D01*
X149674661Y-106418959D01*
X149622457Y-106464195D01*
X149583250Y-106482477D01*
X149395703Y-106613799D01*
X149395697Y-106613804D01*
X149233804Y-106775697D01*
X149233799Y-106775703D01*
X149102477Y-106963250D01*
X149005717Y-107170753D01*
X149005715Y-107170759D01*
X148946457Y-107391913D01*
X148926502Y-107620000D01*
X148946457Y-107848087D01*
X148967604Y-107927007D01*
X149005715Y-108069240D01*
X149005717Y-108069246D01*
X149044257Y-108151895D01*
X149102477Y-108276749D01*
X149233802Y-108464300D01*
X149395700Y-108626198D01*
X149583251Y-108757523D01*
X149615016Y-108772335D01*
X149622457Y-108775805D01*
X149675742Y-108822722D01*
X149695203Y-108890999D01*
X149674661Y-108958959D01*
X149622457Y-109004195D01*
X149583250Y-109022477D01*
X149395703Y-109153799D01*
X149395697Y-109153804D01*
X149233804Y-109315697D01*
X149233799Y-109315703D01*
X149102477Y-109503250D01*
X149005717Y-109710753D01*
X149005716Y-109710757D01*
X148946457Y-109931913D01*
X148926502Y-110160000D01*
X148946457Y-110388087D01*
X148980670Y-110515771D01*
X149005715Y-110609240D01*
X149005717Y-110609246D01*
X149102477Y-110816749D01*
X149187729Y-110938502D01*
X149233802Y-111004300D01*
X149395700Y-111166198D01*
X149583251Y-111297523D01*
X149618359Y-111313894D01*
X149622457Y-111315805D01*
X149675742Y-111362722D01*
X149695203Y-111430999D01*
X149674661Y-111498959D01*
X149622457Y-111544195D01*
X149583250Y-111562477D01*
X149395703Y-111693799D01*
X149395697Y-111693804D01*
X149233804Y-111855697D01*
X149233799Y-111855703D01*
X149102477Y-112043250D01*
X149005717Y-112250753D01*
X149005715Y-112250759D01*
X148961305Y-112416500D01*
X148946457Y-112471913D01*
X148926502Y-112700000D01*
X148946457Y-112928087D01*
X148974569Y-113033000D01*
X149005715Y-113149240D01*
X149005717Y-113149246D01*
X149102477Y-113356749D01*
X149187729Y-113478502D01*
X149233802Y-113544300D01*
X149395700Y-113706198D01*
X149583251Y-113837523D01*
X149618359Y-113853894D01*
X149622457Y-113855805D01*
X149675742Y-113902722D01*
X149695203Y-113970999D01*
X149674661Y-114038959D01*
X149622457Y-114084195D01*
X149583250Y-114102477D01*
X149395703Y-114233799D01*
X149395697Y-114233804D01*
X149233804Y-114395697D01*
X149233797Y-114395706D01*
X149211344Y-114427772D01*
X149155887Y-114472100D01*
X149108132Y-114481500D01*
X144253371Y-114481500D01*
X144185250Y-114461498D01*
X144164276Y-114444595D01*
X141302405Y-111582724D01*
X141268379Y-111520412D01*
X141265500Y-111493629D01*
X141265500Y-94712295D01*
X141265499Y-94712291D01*
X141264497Y-94707255D01*
X141249088Y-94629785D01*
X141236351Y-94565753D01*
X141202534Y-94484112D01*
X141198702Y-94474860D01*
X141198690Y-94474833D01*
X141193707Y-94462803D01*
X141179174Y-94427716D01*
X141096165Y-94303484D01*
X140990516Y-94197835D01*
X130982225Y-84189544D01*
X130948199Y-84127232D01*
X130945750Y-84090049D01*
X130963156Y-83880000D01*
X130944564Y-83655632D01*
X130934474Y-83615788D01*
X130889297Y-83437387D01*
X130889296Y-83437386D01*
X130889296Y-83437384D01*
X130798860Y-83231209D01*
X130792140Y-83220924D01*
X130675724Y-83042734D01*
X130675720Y-83042729D01*
X130523237Y-82877091D01*
X130454938Y-82823932D01*
X130413467Y-82766306D01*
X130409733Y-82695408D01*
X130444923Y-82633746D01*
X130507864Y-82600898D01*
X130532329Y-82598500D01*
X134305522Y-82598500D01*
X134373643Y-82618502D01*
G37*
%TD.AperFunction*%
%TA.AperFunction,Conductor*%
G36*
X163490274Y-61068502D02*
G01*
X163507855Y-61082135D01*
X163508067Y-61082332D01*
X163508069Y-61082334D01*
X163695781Y-61256505D01*
X163695787Y-61256509D01*
X163907352Y-61400752D01*
X163907359Y-61400756D01*
X163934167Y-61413666D01*
X163986864Y-61461243D01*
X164005500Y-61527189D01*
X164005500Y-65706711D01*
X164017645Y-65767764D01*
X164020074Y-65779976D01*
X164034649Y-65853247D01*
X164091826Y-65991284D01*
X164174834Y-66115515D01*
X176557334Y-78498015D01*
X176557335Y-78498016D01*
X176662984Y-78603665D01*
X176787216Y-78686674D01*
X176868076Y-78720167D01*
X176925253Y-78743851D01*
X176980217Y-78754784D01*
X177071794Y-78773000D01*
X177071795Y-78773000D01*
X177221205Y-78773000D01*
X184790129Y-78773000D01*
X184858250Y-78793002D01*
X184904743Y-78846658D01*
X184914847Y-78916932D01*
X184885353Y-78981512D01*
X184879224Y-78988095D01*
X183161338Y-80705980D01*
X183161333Y-80705986D01*
X183078326Y-80830214D01*
X183067273Y-80856902D01*
X183067272Y-80856905D01*
X183021150Y-80968251D01*
X183021149Y-80968252D01*
X182992000Y-81114790D01*
X182992000Y-81114794D01*
X182992000Y-88122206D01*
X183004631Y-88185705D01*
X183021149Y-88268747D01*
X183078326Y-88406784D01*
X183161334Y-88531015D01*
X183161338Y-88531019D01*
X187889596Y-93259277D01*
X187923622Y-93321589D01*
X187926501Y-93348372D01*
X187926501Y-99955128D01*
X187906499Y-100023249D01*
X187889596Y-100044223D01*
X185822724Y-102111095D01*
X185760412Y-102145121D01*
X185733629Y-102148000D01*
X183776903Y-102148000D01*
X183708782Y-102127998D01*
X183662289Y-102074342D01*
X183652185Y-102004068D01*
X183681679Y-101939488D01*
X183704615Y-101921006D01*
X183703748Y-101919847D01*
X183827904Y-101826904D01*
X183915444Y-101709965D01*
X183915444Y-101709964D01*
X183966494Y-101573093D01*
X183972999Y-101512597D01*
X183973000Y-101512585D01*
X183973000Y-100333000D01*
X180607000Y-100333000D01*
X180607000Y-101512597D01*
X180613505Y-101573093D01*
X180664555Y-101709964D01*
X180664555Y-101709965D01*
X180752095Y-101826904D01*
X180876252Y-101919847D01*
X180874394Y-101922328D01*
X180913677Y-101961601D01*
X180928777Y-102030973D01*
X180903975Y-102097496D01*
X180847144Y-102140050D01*
X180803097Y-102148000D01*
X179163871Y-102148000D01*
X179095750Y-102127998D01*
X179074776Y-102111095D01*
X176788681Y-99825000D01*
X180607000Y-99825000D01*
X182036000Y-99825000D01*
X182036000Y-98186000D01*
X181066402Y-98186000D01*
X181005906Y-98192505D01*
X180869035Y-98243555D01*
X180869034Y-98243555D01*
X180752095Y-98331095D01*
X180664555Y-98448034D01*
X180664555Y-98448035D01*
X180613505Y-98584906D01*
X180607000Y-98645402D01*
X180607000Y-99825000D01*
X176788681Y-99825000D01*
X175661519Y-98697838D01*
X175661518Y-98697837D01*
X175661515Y-98697834D01*
X175552906Y-98625264D01*
X175507379Y-98570788D01*
X175498531Y-98500345D01*
X175529172Y-98436301D01*
X175589574Y-98398990D01*
X175622909Y-98394500D01*
X175824201Y-98394500D01*
X175824205Y-98394500D01*
X175824206Y-98394500D01*
X175897476Y-98379925D01*
X175970747Y-98365351D01*
X176108784Y-98308174D01*
X176233015Y-98225166D01*
X178723776Y-95734405D01*
X178786088Y-95700379D01*
X178812871Y-95697500D01*
X180480500Y-95697500D01*
X180548621Y-95717502D01*
X180595114Y-95771158D01*
X180606500Y-95823500D01*
X180606500Y-96372649D01*
X180613009Y-96433196D01*
X180613011Y-96433204D01*
X180664110Y-96570202D01*
X180664112Y-96570207D01*
X180751738Y-96687261D01*
X180868792Y-96774887D01*
X180868794Y-96774888D01*
X180868796Y-96774889D01*
X180897505Y-96785597D01*
X181005795Y-96825988D01*
X181005803Y-96825990D01*
X181066350Y-96832499D01*
X181066355Y-96832499D01*
X181066362Y-96832500D01*
X181066368Y-96832500D01*
X183513632Y-96832500D01*
X183513638Y-96832500D01*
X183513645Y-96832499D01*
X183513649Y-96832499D01*
X183574196Y-96825990D01*
X183574199Y-96825989D01*
X183574201Y-96825989D01*
X183711204Y-96774889D01*
X183828261Y-96687261D01*
X183878126Y-96620649D01*
X183915887Y-96570207D01*
X183915889Y-96570203D01*
X183915890Y-96570202D01*
X183916444Y-96568715D01*
X183917395Y-96567445D01*
X183920205Y-96562299D01*
X183920944Y-96562703D01*
X183958989Y-96511879D01*
X184025509Y-96487067D01*
X184094884Y-96502157D01*
X184145087Y-96552359D01*
X184160500Y-96612746D01*
X184160500Y-97083649D01*
X184167009Y-97144196D01*
X184167011Y-97144204D01*
X184218110Y-97281202D01*
X184218112Y-97281207D01*
X184305738Y-97398261D01*
X184403345Y-97471329D01*
X184445892Y-97528165D01*
X184450956Y-97598981D01*
X184435269Y-97638032D01*
X184326518Y-97815496D01*
X184232671Y-98042064D01*
X184175423Y-98280521D01*
X184163913Y-98426763D01*
X184138627Y-98493104D01*
X184081489Y-98535243D01*
X184010638Y-98539802D01*
X183948571Y-98505332D01*
X183920244Y-98460905D01*
X183915443Y-98448034D01*
X183915444Y-98448034D01*
X183827904Y-98331095D01*
X183710965Y-98243555D01*
X183574093Y-98192505D01*
X183513597Y-98186000D01*
X182544000Y-98186000D01*
X182544000Y-99825000D01*
X183973000Y-99825000D01*
X183973000Y-98990894D01*
X183993002Y-98922773D01*
X184046658Y-98876280D01*
X184116932Y-98866176D01*
X184181512Y-98895670D01*
X184219896Y-98955396D01*
X184221519Y-98961480D01*
X184232671Y-99007935D01*
X184326518Y-99234503D01*
X184449538Y-99435251D01*
X185194016Y-98690772D01*
X185206482Y-98737292D01*
X185278890Y-98862708D01*
X185381292Y-98965110D01*
X185506708Y-99037518D01*
X185553226Y-99049982D01*
X184808747Y-99794460D01*
X184808747Y-99794462D01*
X185009491Y-99917479D01*
X185236064Y-100011328D01*
X185474521Y-100068576D01*
X185719000Y-100087817D01*
X185963478Y-100068576D01*
X186201935Y-100011328D01*
X186428508Y-99917479D01*
X186629251Y-99794462D01*
X186629252Y-99794461D01*
X185884773Y-99049982D01*
X185931292Y-99037518D01*
X186056708Y-98965110D01*
X186159110Y-98862708D01*
X186231518Y-98737292D01*
X186243982Y-98690773D01*
X186988461Y-99435252D01*
X186988462Y-99435251D01*
X187111479Y-99234508D01*
X187205328Y-99007935D01*
X187262576Y-98769478D01*
X187281817Y-98525000D01*
X187262576Y-98280521D01*
X187205328Y-98042064D01*
X187111479Y-97815491D01*
X187002731Y-97638032D01*
X186984192Y-97569499D01*
X187005648Y-97501822D01*
X187034654Y-97471329D01*
X187132261Y-97398261D01*
X187219887Y-97281207D01*
X187219887Y-97281206D01*
X187219889Y-97281204D01*
X187270989Y-97144201D01*
X187273338Y-97122358D01*
X187277499Y-97083649D01*
X187277500Y-97083632D01*
X187277500Y-94886367D01*
X187277499Y-94886350D01*
X187270990Y-94825803D01*
X187270988Y-94825795D01*
X187228652Y-94712291D01*
X187219889Y-94688796D01*
X187219887Y-94688793D01*
X187219887Y-94688792D01*
X187132261Y-94571738D01*
X187015207Y-94484112D01*
X187015202Y-94484110D01*
X186878204Y-94433011D01*
X186878196Y-94433009D01*
X186817649Y-94426500D01*
X186817638Y-94426500D01*
X185285371Y-94426500D01*
X185217250Y-94406498D01*
X185196276Y-94389595D01*
X185156519Y-94349838D01*
X185156515Y-94349834D01*
X185032284Y-94266826D01*
X184894247Y-94209649D01*
X184820976Y-94195074D01*
X184820975Y-94195073D01*
X184747711Y-94180500D01*
X184747706Y-94180500D01*
X184099500Y-94180500D01*
X184031379Y-94160498D01*
X183984886Y-94106842D01*
X183973500Y-94054500D01*
X183973500Y-93505367D01*
X183973499Y-93505350D01*
X183966990Y-93444803D01*
X183966988Y-93444795D01*
X183931023Y-93348372D01*
X183915889Y-93307796D01*
X183915888Y-93307794D01*
X183915887Y-93307792D01*
X183828261Y-93190738D01*
X183711207Y-93103112D01*
X183711202Y-93103110D01*
X183574204Y-93052011D01*
X183574196Y-93052009D01*
X183513649Y-93045500D01*
X183513638Y-93045500D01*
X181066362Y-93045500D01*
X181066350Y-93045500D01*
X181005803Y-93052009D01*
X181005795Y-93052011D01*
X180868797Y-93103110D01*
X180868792Y-93103112D01*
X180751738Y-93190738D01*
X180664112Y-93307792D01*
X180664110Y-93307797D01*
X180613011Y-93444795D01*
X180613009Y-93444803D01*
X180606500Y-93505350D01*
X180606500Y-94054500D01*
X180586498Y-94122621D01*
X180532842Y-94169114D01*
X180480500Y-94180500D01*
X178371788Y-94180500D01*
X178298524Y-94195073D01*
X178298524Y-94195074D01*
X178225253Y-94209649D01*
X178225251Y-94209649D01*
X178225250Y-94209650D01*
X178144389Y-94243144D01*
X178093134Y-94264375D01*
X178087214Y-94266827D01*
X177962986Y-94349833D01*
X177962980Y-94349838D01*
X175472224Y-96840595D01*
X175409912Y-96874621D01*
X175383129Y-96877500D01*
X174733248Y-96877500D01*
X174665127Y-96857498D01*
X174618634Y-96803842D01*
X174608530Y-96733568D01*
X174615192Y-96707468D01*
X174618437Y-96698767D01*
X174624989Y-96681201D01*
X174631500Y-96620638D01*
X174631500Y-94523362D01*
X174631499Y-94523350D01*
X174624990Y-94462803D01*
X174624988Y-94462795D01*
X174582854Y-94349833D01*
X174573889Y-94325796D01*
X174573888Y-94325794D01*
X174573887Y-94325792D01*
X174486261Y-94208738D01*
X174369207Y-94121112D01*
X174369202Y-94121110D01*
X174232204Y-94070011D01*
X174232196Y-94070009D01*
X174171649Y-94063500D01*
X174171638Y-94063500D01*
X172374362Y-94063500D01*
X172374350Y-94063500D01*
X172313803Y-94070009D01*
X172313795Y-94070011D01*
X172176797Y-94121110D01*
X172176792Y-94121112D01*
X172059738Y-94208738D01*
X171972112Y-94325792D01*
X171972110Y-94325797D01*
X171921011Y-94462795D01*
X171921009Y-94462803D01*
X171914500Y-94523350D01*
X171914500Y-94687500D01*
X171894498Y-94755621D01*
X171840842Y-94802114D01*
X171788500Y-94813500D01*
X169922500Y-94813500D01*
X169854379Y-94793498D01*
X169807886Y-94739842D01*
X169796500Y-94687500D01*
X169796500Y-93371867D01*
X169796499Y-93371850D01*
X169789990Y-93311303D01*
X169789988Y-93311295D01*
X169745022Y-93190739D01*
X169738889Y-93174296D01*
X169738888Y-93174294D01*
X169738887Y-93174292D01*
X169651261Y-93057238D01*
X169534207Y-92969612D01*
X169534202Y-92969610D01*
X169397204Y-92918511D01*
X169397196Y-92918509D01*
X169336649Y-92912000D01*
X169336638Y-92912000D01*
X167239362Y-92912000D01*
X167239350Y-92912000D01*
X167178803Y-92918509D01*
X167178795Y-92918511D01*
X167041797Y-92969610D01*
X167041792Y-92969612D01*
X166924738Y-93057238D01*
X166837112Y-93174292D01*
X166837110Y-93174297D01*
X166786011Y-93311295D01*
X166786009Y-93311303D01*
X166779500Y-93371850D01*
X166779500Y-94783043D01*
X166769909Y-94831261D01*
X166765150Y-94842749D01*
X166765150Y-94842750D01*
X166765149Y-94842753D01*
X166750574Y-94916024D01*
X166750574Y-94916025D01*
X166736000Y-94989288D01*
X166736000Y-96885209D01*
X166765149Y-97031746D01*
X166765150Y-97031749D01*
X166802682Y-97122360D01*
X166822326Y-97169784D01*
X166905335Y-97294016D01*
X166905337Y-97294018D01*
X166977928Y-97366609D01*
X167011954Y-97428921D01*
X167006889Y-97499736D01*
X166982169Y-97538199D01*
X166982642Y-97538562D01*
X166978298Y-97544222D01*
X166977928Y-97544799D01*
X166977619Y-97545107D01*
X166886166Y-97664291D01*
X166828684Y-97803069D01*
X166814000Y-97914603D01*
X166814000Y-98480500D01*
X166793998Y-98548621D01*
X166740342Y-98595114D01*
X166688000Y-98606500D01*
X166122103Y-98606500D01*
X166010569Y-98621184D01*
X165871789Y-98678667D01*
X165782792Y-98746957D01*
X165716572Y-98772557D01*
X165647023Y-98758292D01*
X165616994Y-98736089D01*
X165292445Y-98411540D01*
X165258419Y-98349228D01*
X165263484Y-98278413D01*
X165272413Y-98259460D01*
X165344527Y-98134556D01*
X165403542Y-97952928D01*
X165423504Y-97763000D01*
X165403542Y-97573072D01*
X165344527Y-97391444D01*
X165249040Y-97226056D01*
X165249038Y-97226054D01*
X165249034Y-97226048D01*
X165121255Y-97084135D01*
X164966752Y-96971882D01*
X164792288Y-96894206D01*
X164605487Y-96854500D01*
X164414513Y-96854500D01*
X164227711Y-96894206D01*
X164053247Y-96971882D01*
X163898744Y-97084135D01*
X163770965Y-97226048D01*
X163770958Y-97226058D01*
X163675476Y-97391438D01*
X163675473Y-97391444D01*
X163667899Y-97414754D01*
X163648432Y-97474666D01*
X163608357Y-97533271D01*
X163542960Y-97560907D01*
X163473004Y-97548799D01*
X163439504Y-97524823D01*
X162257405Y-96342724D01*
X162223379Y-96280412D01*
X162220500Y-96253629D01*
X162220500Y-94524500D01*
X162780000Y-94524500D01*
X162780000Y-95169097D01*
X162786505Y-95229593D01*
X162837555Y-95366464D01*
X162837555Y-95366465D01*
X162925095Y-95483404D01*
X163042034Y-95570944D01*
X163178906Y-95621994D01*
X163239402Y-95628499D01*
X163239415Y-95628500D01*
X164034000Y-95628500D01*
X164034000Y-94524500D01*
X164542000Y-94524500D01*
X164542000Y-95628500D01*
X165336585Y-95628500D01*
X165336597Y-95628499D01*
X165397093Y-95621994D01*
X165533964Y-95570944D01*
X165533965Y-95570944D01*
X165650904Y-95483404D01*
X165738444Y-95366465D01*
X165738444Y-95366464D01*
X165789494Y-95229593D01*
X165795999Y-95169097D01*
X165796000Y-95169085D01*
X165796000Y-94524500D01*
X164542000Y-94524500D01*
X164034000Y-94524500D01*
X162780000Y-94524500D01*
X162220500Y-94524500D01*
X162220500Y-94016500D01*
X162780000Y-94016500D01*
X164034000Y-94016500D01*
X164034000Y-92912500D01*
X164542000Y-92912500D01*
X164542000Y-94016500D01*
X165796000Y-94016500D01*
X165796000Y-93371914D01*
X165795999Y-93371902D01*
X165789494Y-93311406D01*
X165738444Y-93174535D01*
X165738444Y-93174534D01*
X165650904Y-93057595D01*
X165533965Y-92970055D01*
X165397093Y-92919005D01*
X165336597Y-92912500D01*
X164542000Y-92912500D01*
X164034000Y-92912500D01*
X163239402Y-92912500D01*
X163178906Y-92919005D01*
X163042035Y-92970055D01*
X163042034Y-92970055D01*
X162925095Y-93057595D01*
X162837555Y-93174534D01*
X162837555Y-93174535D01*
X162786505Y-93311406D01*
X162780000Y-93371902D01*
X162780000Y-94016500D01*
X162220500Y-94016500D01*
X162220500Y-91826000D01*
X171915000Y-91826000D01*
X171915000Y-92620597D01*
X171921505Y-92681093D01*
X171972555Y-92817964D01*
X171972555Y-92817965D01*
X172060095Y-92934904D01*
X172177034Y-93022444D01*
X172313906Y-93073494D01*
X172374402Y-93079999D01*
X172374415Y-93080000D01*
X173019000Y-93080000D01*
X173019000Y-91826000D01*
X173527000Y-91826000D01*
X173527000Y-93080000D01*
X174171585Y-93080000D01*
X174171597Y-93079999D01*
X174232093Y-93073494D01*
X174368964Y-93022444D01*
X174368965Y-93022444D01*
X174485904Y-92934904D01*
X174573444Y-92817965D01*
X174573444Y-92817964D01*
X174624494Y-92681093D01*
X174630999Y-92620597D01*
X174631000Y-92620585D01*
X174631000Y-91826000D01*
X173527000Y-91826000D01*
X173019000Y-91826000D01*
X171915000Y-91826000D01*
X162220500Y-91826000D01*
X162220500Y-91318000D01*
X171915000Y-91318000D01*
X173019000Y-91318000D01*
X173019000Y-90064000D01*
X173527000Y-90064000D01*
X173527000Y-91318000D01*
X174631000Y-91318000D01*
X174631000Y-90523414D01*
X174630999Y-90523402D01*
X174624494Y-90462906D01*
X174573444Y-90326035D01*
X174573444Y-90326034D01*
X174485904Y-90209095D01*
X174368965Y-90121555D01*
X174232093Y-90070505D01*
X174171597Y-90064000D01*
X173527000Y-90064000D01*
X173019000Y-90064000D01*
X172374402Y-90064000D01*
X172313906Y-90070505D01*
X172177035Y-90121555D01*
X172177034Y-90121555D01*
X172060095Y-90209095D01*
X171972555Y-90326034D01*
X171972555Y-90326035D01*
X171921505Y-90462906D01*
X171915000Y-90523402D01*
X171915000Y-91318000D01*
X162220500Y-91318000D01*
X162220500Y-87401293D01*
X162220499Y-87401290D01*
X162191351Y-87254754D01*
X162134174Y-87116716D01*
X162051165Y-86992484D01*
X161945516Y-86886835D01*
X159596015Y-84537334D01*
X159471784Y-84454326D01*
X159333747Y-84397149D01*
X159260476Y-84382574D01*
X159260475Y-84382573D01*
X159187211Y-84368000D01*
X159187206Y-84368000D01*
X157877087Y-84368000D01*
X157808966Y-84347998D01*
X157803024Y-84343935D01*
X157791254Y-84335383D01*
X157616788Y-84257706D01*
X157429987Y-84218000D01*
X157239013Y-84218000D01*
X157052211Y-84257706D01*
X156877745Y-84335383D01*
X156865976Y-84343935D01*
X156799109Y-84367794D01*
X156791913Y-84368000D01*
X146270871Y-84368000D01*
X146202750Y-84347998D01*
X146181776Y-84331095D01*
X140816812Y-78966131D01*
X140782786Y-78903819D01*
X140787851Y-78833004D01*
X140830398Y-78776168D01*
X140885167Y-78752754D01*
X140993268Y-78734716D01*
X141221881Y-78656233D01*
X141434458Y-78541192D01*
X141625201Y-78392731D01*
X141651053Y-78364649D01*
X141767974Y-78237638D01*
X141788906Y-78214900D01*
X141921109Y-78012549D01*
X142018203Y-77791197D01*
X142077539Y-77556884D01*
X142097499Y-77316000D01*
X142077539Y-77075116D01*
X142076196Y-77069814D01*
X142018204Y-76840806D01*
X142018201Y-76840799D01*
X142005471Y-76811778D01*
X141921109Y-76619451D01*
X141788906Y-76417100D01*
X141788905Y-76417099D01*
X141788904Y-76417097D01*
X141625207Y-76239274D01*
X141620845Y-76235879D01*
X141441108Y-76095984D01*
X141399638Y-76038360D01*
X141392500Y-75996553D01*
X141392500Y-71933500D01*
X141412502Y-71865379D01*
X141466158Y-71818886D01*
X141518500Y-71807500D01*
X141532632Y-71807500D01*
X141532638Y-71807500D01*
X141532645Y-71807499D01*
X141532649Y-71807499D01*
X141593196Y-71800990D01*
X141593199Y-71800989D01*
X141593201Y-71800989D01*
X141730204Y-71749889D01*
X141847261Y-71662261D01*
X141934889Y-71545204D01*
X141985989Y-71408201D01*
X141992500Y-71347638D01*
X141992500Y-69629510D01*
X142012502Y-69561389D01*
X142066158Y-69514896D01*
X142118500Y-69503510D01*
X142682139Y-69503510D01*
X142750260Y-69523512D01*
X142771234Y-69540415D01*
X145807595Y-72576776D01*
X145841621Y-72639088D01*
X145844500Y-72665871D01*
X145844500Y-75681500D01*
X145824498Y-75749621D01*
X145770842Y-75796114D01*
X145718500Y-75807500D01*
X145604350Y-75807500D01*
X145543803Y-75814009D01*
X145543795Y-75814011D01*
X145406797Y-75865110D01*
X145406792Y-75865112D01*
X145289738Y-75952738D01*
X145202112Y-76069792D01*
X145202110Y-76069797D01*
X145151011Y-76206795D01*
X145151009Y-76206803D01*
X145144500Y-76267350D01*
X145144500Y-78364649D01*
X145151009Y-78425196D01*
X145151011Y-78425204D01*
X145202110Y-78562202D01*
X145202112Y-78562207D01*
X145289738Y-78679261D01*
X145406792Y-78766887D01*
X145406794Y-78766888D01*
X145406796Y-78766889D01*
X145427202Y-78774500D01*
X145543795Y-78817988D01*
X145543803Y-78817990D01*
X145604350Y-78824499D01*
X145604355Y-78824499D01*
X145604362Y-78824500D01*
X145604368Y-78824500D01*
X147601632Y-78824500D01*
X147601638Y-78824500D01*
X147601645Y-78824499D01*
X147601649Y-78824499D01*
X147662196Y-78817990D01*
X147662199Y-78817989D01*
X147662201Y-78817989D01*
X147799204Y-78766889D01*
X147815375Y-78754784D01*
X147916261Y-78679261D01*
X148003887Y-78562207D01*
X148003887Y-78562206D01*
X148003889Y-78562204D01*
X148026169Y-78502467D01*
X148068715Y-78445634D01*
X148135235Y-78420823D01*
X148204609Y-78435914D01*
X148221607Y-78447065D01*
X148342541Y-78541191D01*
X148342542Y-78541192D01*
X148555119Y-78656233D01*
X148555121Y-78656234D01*
X148675150Y-78697439D01*
X148783732Y-78734716D01*
X149022145Y-78774500D01*
X149022149Y-78774500D01*
X149263851Y-78774500D01*
X149263855Y-78774500D01*
X149502268Y-78734716D01*
X149730881Y-78656233D01*
X149943458Y-78541192D01*
X150134201Y-78392731D01*
X150160053Y-78364649D01*
X150276974Y-78237638D01*
X150297906Y-78214900D01*
X150430109Y-78012549D01*
X150527203Y-77791197D01*
X150586539Y-77556884D01*
X150606499Y-77316000D01*
X150586539Y-77075116D01*
X150585196Y-77069814D01*
X150527204Y-76840806D01*
X150527201Y-76840799D01*
X150514471Y-76811778D01*
X150430109Y-76619451D01*
X150297906Y-76417100D01*
X150297905Y-76417099D01*
X150297904Y-76417097D01*
X150134206Y-76239273D01*
X150134202Y-76239269D01*
X150077109Y-76194832D01*
X150035638Y-76137206D01*
X150028500Y-76095400D01*
X150028500Y-71933500D01*
X150048502Y-71865379D01*
X150102158Y-71818886D01*
X150154500Y-71807500D01*
X150168632Y-71807500D01*
X150168638Y-71807500D01*
X150168645Y-71807499D01*
X150168649Y-71807499D01*
X150229196Y-71800990D01*
X150229199Y-71800989D01*
X150229201Y-71800989D01*
X150366204Y-71749889D01*
X150483261Y-71662261D01*
X150570889Y-71545204D01*
X150621989Y-71408201D01*
X150628500Y-71347638D01*
X150628500Y-69250362D01*
X150628499Y-69250350D01*
X150621990Y-69189803D01*
X150621988Y-69189795D01*
X150570889Y-69052797D01*
X150570889Y-69052796D01*
X150570684Y-69052522D01*
X150535117Y-69005009D01*
X150510306Y-68938488D01*
X150525398Y-68869114D01*
X150575600Y-68818912D01*
X150635985Y-68803500D01*
X152142129Y-68803500D01*
X152210250Y-68823502D01*
X152231224Y-68840405D01*
X154062595Y-70671776D01*
X154096621Y-70734088D01*
X154099500Y-70760871D01*
X154099500Y-75554500D01*
X154079498Y-75622621D01*
X154025842Y-75669114D01*
X153973500Y-75680500D01*
X153859350Y-75680500D01*
X153798803Y-75687009D01*
X153798795Y-75687011D01*
X153661797Y-75738110D01*
X153661792Y-75738112D01*
X153544738Y-75825738D01*
X153457112Y-75942792D01*
X153457110Y-75942797D01*
X153406011Y-76079795D01*
X153406009Y-76079803D01*
X153399500Y-76140350D01*
X153399500Y-78237649D01*
X153406009Y-78298196D01*
X153406011Y-78298204D01*
X153457110Y-78435202D01*
X153457112Y-78435207D01*
X153544738Y-78552261D01*
X153661792Y-78639887D01*
X153661794Y-78639888D01*
X153661796Y-78639889D01*
X153682202Y-78647500D01*
X153798795Y-78690988D01*
X153798803Y-78690990D01*
X153859350Y-78697499D01*
X153859355Y-78697499D01*
X153859362Y-78697500D01*
X153859368Y-78697500D01*
X155856632Y-78697500D01*
X155856638Y-78697500D01*
X155856645Y-78697499D01*
X155856649Y-78697499D01*
X155917196Y-78690990D01*
X155917199Y-78690989D01*
X155917201Y-78690989D01*
X156054204Y-78639889D01*
X156102594Y-78603665D01*
X156171261Y-78552261D01*
X156258887Y-78435207D01*
X156258887Y-78435206D01*
X156258889Y-78435204D01*
X156281169Y-78375467D01*
X156323715Y-78318634D01*
X156390235Y-78293823D01*
X156459609Y-78308914D01*
X156476607Y-78320065D01*
X156569969Y-78392731D01*
X156597541Y-78414191D01*
X156597542Y-78414192D01*
X156810119Y-78529233D01*
X156810121Y-78529234D01*
X156877197Y-78552261D01*
X157038732Y-78607716D01*
X157277145Y-78647500D01*
X157277149Y-78647500D01*
X157518851Y-78647500D01*
X157518855Y-78647500D01*
X157757268Y-78607716D01*
X157985881Y-78529233D01*
X158198458Y-78414192D01*
X158389201Y-78265731D01*
X158409189Y-78244019D01*
X158552904Y-78087902D01*
X158552903Y-78087902D01*
X158552906Y-78087900D01*
X158685109Y-77885549D01*
X158782203Y-77664197D01*
X158841539Y-77429884D01*
X158861499Y-77189000D01*
X158841539Y-76948116D01*
X158814364Y-76840806D01*
X158782204Y-76713806D01*
X158782201Y-76713799D01*
X158766157Y-76677222D01*
X158685109Y-76492451D01*
X158552906Y-76290100D01*
X158552905Y-76290099D01*
X158552904Y-76290097D01*
X158389207Y-76112274D01*
X158367527Y-76095400D01*
X158198458Y-75963808D01*
X158198452Y-75963804D01*
X158095530Y-75908105D01*
X158045140Y-75858092D01*
X158029500Y-75797292D01*
X158029500Y-71933500D01*
X158049502Y-71865379D01*
X158103158Y-71818886D01*
X158155500Y-71807500D01*
X158169632Y-71807500D01*
X158169638Y-71807500D01*
X158169645Y-71807499D01*
X158169649Y-71807499D01*
X158230196Y-71800990D01*
X158230199Y-71800989D01*
X158230201Y-71800989D01*
X158367204Y-71749889D01*
X158484261Y-71662261D01*
X158571889Y-71545204D01*
X158622989Y-71408201D01*
X158629500Y-71347638D01*
X158629500Y-69250362D01*
X158629499Y-69250350D01*
X158622990Y-69189803D01*
X158622988Y-69189795D01*
X158571889Y-69052797D01*
X158571887Y-69052792D01*
X158484261Y-68935738D01*
X158367207Y-68848112D01*
X158367202Y-68848110D01*
X158230204Y-68797011D01*
X158230196Y-68797009D01*
X158169649Y-68790500D01*
X158169638Y-68790500D01*
X156372362Y-68790500D01*
X156372350Y-68790500D01*
X156311803Y-68797009D01*
X156311795Y-68797011D01*
X156174797Y-68848110D01*
X156174792Y-68848112D01*
X156057738Y-68935738D01*
X155970112Y-69052792D01*
X155970110Y-69052797D01*
X155919011Y-69189795D01*
X155919009Y-69189803D01*
X155912500Y-69250350D01*
X155912500Y-71347649D01*
X155919009Y-71408196D01*
X155919011Y-71408204D01*
X155970110Y-71545202D01*
X155970112Y-71545207D01*
X156057738Y-71662261D01*
X156174792Y-71749887D01*
X156174794Y-71749888D01*
X156174796Y-71749889D01*
X156233875Y-71771924D01*
X156311795Y-71800988D01*
X156311803Y-71800990D01*
X156372350Y-71807499D01*
X156372355Y-71807499D01*
X156372362Y-71807500D01*
X156386500Y-71807500D01*
X156454621Y-71827502D01*
X156501114Y-71881158D01*
X156512500Y-71933500D01*
X156512500Y-75924382D01*
X156492498Y-75992503D01*
X156438842Y-76038996D01*
X156368568Y-76049100D01*
X156303988Y-76019606D01*
X156268445Y-75968416D01*
X156266725Y-75963804D01*
X156258889Y-75942796D01*
X156258887Y-75942794D01*
X156258887Y-75942792D01*
X156171261Y-75825738D01*
X156054207Y-75738112D01*
X156054202Y-75738110D01*
X155917204Y-75687011D01*
X155917196Y-75687009D01*
X155856649Y-75680500D01*
X155856638Y-75680500D01*
X155742500Y-75680500D01*
X155674379Y-75660498D01*
X155627886Y-75606842D01*
X155616500Y-75554500D01*
X155616500Y-70319793D01*
X155616499Y-70319790D01*
X155615215Y-70313335D01*
X155587351Y-70173254D01*
X155530174Y-70035216D01*
X155447165Y-69910984D01*
X155341516Y-69805335D01*
X152992015Y-67455834D01*
X152867784Y-67372826D01*
X152729748Y-67315649D01*
X152709752Y-67311671D01*
X152686662Y-67307078D01*
X152623753Y-67274171D01*
X152588622Y-67212475D01*
X152592423Y-67141581D01*
X152633949Y-67083995D01*
X152700016Y-67058001D01*
X152711245Y-67057500D01*
X155786500Y-67057500D01*
X155854621Y-67077502D01*
X155901114Y-67131158D01*
X155912500Y-67183500D01*
X155912500Y-67347649D01*
X155919009Y-67408196D01*
X155919011Y-67408204D01*
X155970110Y-67545202D01*
X155970112Y-67545207D01*
X156057738Y-67662261D01*
X156174792Y-67749887D01*
X156174794Y-67749888D01*
X156174796Y-67749889D01*
X156233875Y-67771924D01*
X156311795Y-67800988D01*
X156311803Y-67800990D01*
X156372350Y-67807499D01*
X156372355Y-67807499D01*
X156372362Y-67807500D01*
X156372368Y-67807500D01*
X158169632Y-67807500D01*
X158169638Y-67807500D01*
X158169645Y-67807499D01*
X158169649Y-67807499D01*
X158230196Y-67800990D01*
X158230199Y-67800989D01*
X158230201Y-67800989D01*
X158367204Y-67749889D01*
X158484261Y-67662261D01*
X158571889Y-67545204D01*
X158622989Y-67408201D01*
X158626793Y-67372823D01*
X158629499Y-67347649D01*
X158629500Y-67347632D01*
X158629500Y-66065371D01*
X158649502Y-65997250D01*
X158666405Y-65976276D01*
X159855060Y-64787621D01*
X161065165Y-63577516D01*
X161148173Y-63453285D01*
X161148174Y-63453284D01*
X161205351Y-63315246D01*
X161234500Y-63168706D01*
X161234500Y-61599500D01*
X161254502Y-61531379D01*
X161308158Y-61484886D01*
X161360500Y-61473500D01*
X161909632Y-61473500D01*
X161909638Y-61473500D01*
X161909645Y-61473499D01*
X161909649Y-61473499D01*
X161970196Y-61466990D01*
X161970199Y-61466989D01*
X161970201Y-61466989D01*
X161985607Y-61461243D01*
X161991438Y-61459068D01*
X162107204Y-61415889D01*
X162107799Y-61415444D01*
X162224261Y-61328261D01*
X162311887Y-61211207D01*
X162311887Y-61211206D01*
X162311889Y-61211204D01*
X162342003Y-61130467D01*
X162384550Y-61073631D01*
X162451070Y-61048821D01*
X162460058Y-61048500D01*
X163422153Y-61048500D01*
X163490274Y-61068502D01*
G37*
%TD.AperFunction*%
%TA.AperFunction,Conductor*%
G36*
X128735792Y-82618502D02*
G01*
X128782285Y-82672158D01*
X128792389Y-82742432D01*
X128762895Y-82807012D01*
X128745062Y-82823932D01*
X128676762Y-82877091D01*
X128524279Y-83042729D01*
X128524275Y-83042734D01*
X128401141Y-83231206D01*
X128310703Y-83437386D01*
X128310702Y-83437387D01*
X128255437Y-83655624D01*
X128236844Y-83880000D01*
X128255437Y-84104375D01*
X128310702Y-84322612D01*
X128310703Y-84322613D01*
X128310704Y-84322616D01*
X128376343Y-84472259D01*
X128401141Y-84528793D01*
X128524275Y-84717265D01*
X128524279Y-84717270D01*
X128652539Y-84856596D01*
X128672431Y-84878204D01*
X128676762Y-84882908D01*
X128731331Y-84925381D01*
X128854424Y-85021189D01*
X128887680Y-85039186D01*
X128938071Y-85089200D01*
X128953423Y-85158516D01*
X128928862Y-85225129D01*
X128887680Y-85260814D01*
X128854426Y-85278810D01*
X128854424Y-85278811D01*
X128676762Y-85417091D01*
X128524279Y-85582729D01*
X128524275Y-85582734D01*
X128401141Y-85771206D01*
X128310703Y-85977386D01*
X128310702Y-85977387D01*
X128255437Y-86195624D01*
X128255436Y-86195630D01*
X128255436Y-86195632D01*
X128236844Y-86420000D01*
X128251321Y-86594712D01*
X128255437Y-86644375D01*
X128310702Y-86862612D01*
X128310703Y-86862613D01*
X128310704Y-86862616D01*
X128367668Y-86992481D01*
X128401141Y-87068793D01*
X128524275Y-87257265D01*
X128524279Y-87257270D01*
X128638780Y-87381649D01*
X128674077Y-87419992D01*
X128676762Y-87422908D01*
X128697215Y-87438827D01*
X128854424Y-87561189D01*
X128888205Y-87579470D01*
X128938596Y-87629482D01*
X128953949Y-87698799D01*
X128929389Y-87765412D01*
X128888209Y-87801096D01*
X128854704Y-87819228D01*
X128854698Y-87819232D01*
X128677097Y-87957465D01*
X128524674Y-88123041D01*
X128401580Y-88311451D01*
X128311179Y-88517543D01*
X128311176Y-88517550D01*
X128263455Y-88705999D01*
X128263456Y-88706000D01*
X129169297Y-88706000D01*
X129134075Y-88767007D01*
X129100000Y-88894174D01*
X129100000Y-89025826D01*
X129134075Y-89152993D01*
X129169297Y-89214000D01*
X128263455Y-89214000D01*
X128311176Y-89402449D01*
X128311179Y-89402456D01*
X128401580Y-89608548D01*
X128524674Y-89796958D01*
X128677097Y-89962534D01*
X128854698Y-90100767D01*
X128854704Y-90100771D01*
X128888207Y-90118902D01*
X128938597Y-90168915D01*
X128953949Y-90238232D01*
X128929388Y-90304845D01*
X128888207Y-90340528D01*
X128854430Y-90358807D01*
X128854424Y-90358811D01*
X128676762Y-90497091D01*
X128524279Y-90662729D01*
X128524275Y-90662734D01*
X128401141Y-90851206D01*
X128310703Y-91057386D01*
X128310702Y-91057387D01*
X128255437Y-91275624D01*
X128255436Y-91275630D01*
X128255436Y-91275632D01*
X128236844Y-91500000D01*
X128251043Y-91671358D01*
X128255437Y-91724375D01*
X128310702Y-91942612D01*
X128310703Y-91942613D01*
X128310704Y-91942616D01*
X128368740Y-92074925D01*
X128401141Y-92148793D01*
X128524275Y-92337265D01*
X128524279Y-92337270D01*
X128676762Y-92502908D01*
X128731331Y-92545381D01*
X128854424Y-92641189D01*
X128887680Y-92659186D01*
X128938071Y-92709200D01*
X128953423Y-92778516D01*
X128928862Y-92845129D01*
X128887680Y-92880814D01*
X128854426Y-92898810D01*
X128854424Y-92898811D01*
X128676762Y-93037091D01*
X128524279Y-93202729D01*
X128524275Y-93202734D01*
X128401141Y-93391206D01*
X128310703Y-93597386D01*
X128310702Y-93597387D01*
X128255437Y-93815624D01*
X128255436Y-93815630D01*
X128255436Y-93815632D01*
X128236844Y-94040000D01*
X128251321Y-94214712D01*
X128255437Y-94264375D01*
X128310702Y-94482612D01*
X128310703Y-94482613D01*
X128310704Y-94482616D01*
X128348690Y-94569215D01*
X128401141Y-94688793D01*
X128524275Y-94877265D01*
X128524279Y-94877270D01*
X128676762Y-95042908D01*
X128704216Y-95064276D01*
X128854424Y-95181189D01*
X128887680Y-95199186D01*
X128938071Y-95249200D01*
X128953423Y-95318516D01*
X128928862Y-95385129D01*
X128887680Y-95420813D01*
X128873749Y-95428353D01*
X128854426Y-95438810D01*
X128854424Y-95438811D01*
X128676762Y-95577091D01*
X128524279Y-95742729D01*
X128524275Y-95742734D01*
X128401141Y-95931206D01*
X128310703Y-96137386D01*
X128310702Y-96137387D01*
X128255437Y-96355624D01*
X128255436Y-96355630D01*
X128255436Y-96355632D01*
X128236844Y-96580000D01*
X128255392Y-96803842D01*
X128255437Y-96804379D01*
X128255951Y-96807457D01*
X128255797Y-96808725D01*
X128255867Y-96809562D01*
X128255694Y-96809576D01*
X128247432Y-96877941D01*
X128202158Y-96932629D01*
X128134505Y-96954159D01*
X128065951Y-96935695D01*
X128042574Y-96917286D01*
X126943405Y-95818117D01*
X126909379Y-95755805D01*
X126906500Y-95729022D01*
X126906500Y-83667978D01*
X126926502Y-83599857D01*
X126943405Y-83578883D01*
X127886883Y-82635405D01*
X127949195Y-82601379D01*
X127975978Y-82598500D01*
X128667671Y-82598500D01*
X128735792Y-82618502D01*
G37*
%TD.AperFunction*%
%TA.AperFunction,Conductor*%
G36*
X173241199Y-52989502D02*
G01*
X173287692Y-53043158D01*
X173297796Y-53113432D01*
X173292910Y-53134439D01*
X173290206Y-53142757D01*
X173290204Y-53142766D01*
X173287950Y-53157000D01*
X174181562Y-53157000D01*
X174157482Y-53198708D01*
X174120000Y-53338591D01*
X174120000Y-53483409D01*
X174157482Y-53623292D01*
X174181562Y-53665000D01*
X173287951Y-53665000D01*
X173290204Y-53679233D01*
X173290206Y-53679238D01*
X173329462Y-53800053D01*
X173331490Y-53871021D01*
X173294828Y-53931819D01*
X173231116Y-53963144D01*
X173209629Y-53964990D01*
X167374968Y-53964990D01*
X167306847Y-53944988D01*
X167285873Y-53928085D01*
X166542383Y-53184595D01*
X166508357Y-53122283D01*
X166513422Y-53051468D01*
X166555969Y-52994632D01*
X166622489Y-52969821D01*
X166631478Y-52969500D01*
X173173078Y-52969500D01*
X173241199Y-52989502D01*
G37*
%TD.AperFunction*%
%TA.AperFunction,Conductor*%
G36*
X190494890Y-40760002D02*
G01*
X190499969Y-40763444D01*
X190651169Y-40871400D01*
X190659363Y-40877776D01*
X190965170Y-41136781D01*
X190972831Y-41143835D01*
X191143095Y-41314099D01*
X191177121Y-41376411D01*
X191180000Y-41403194D01*
X191180000Y-138196806D01*
X191159998Y-138264927D01*
X191143099Y-138285896D01*
X190972827Y-138456169D01*
X190972826Y-138456170D01*
X190965165Y-138463222D01*
X190921567Y-138500148D01*
X190856658Y-138528912D01*
X190840133Y-138530000D01*
X124359867Y-138530000D01*
X124291746Y-138509998D01*
X124278434Y-138500149D01*
X124234835Y-138463223D01*
X124227173Y-138456169D01*
X123943835Y-138172831D01*
X123936781Y-138165169D01*
X123899213Y-138120812D01*
X123870450Y-138055903D01*
X123869362Y-138039554D01*
X123865155Y-134800003D01*
X124286641Y-134800003D01*
X124306064Y-135158237D01*
X124364103Y-135512269D01*
X124460084Y-135857959D01*
X124520362Y-136009246D01*
X124592877Y-136191243D01*
X124760925Y-136508215D01*
X124962258Y-136805159D01*
X125003355Y-136853542D01*
X125194516Y-137078595D01*
X125454962Y-137325304D01*
X125454977Y-137325317D01*
X125740586Y-137542431D01*
X126047995Y-137727393D01*
X126373599Y-137878033D01*
X126713583Y-137992587D01*
X127063958Y-138069711D01*
X127420618Y-138108500D01*
X127420626Y-138108500D01*
X127779374Y-138108500D01*
X127779382Y-138108500D01*
X128136042Y-138069711D01*
X128486417Y-137992587D01*
X128826401Y-137878033D01*
X129152005Y-137727393D01*
X129459414Y-137542431D01*
X129745023Y-137325317D01*
X130005484Y-137078595D01*
X130237742Y-136805159D01*
X130439075Y-136508215D01*
X130607123Y-136191243D01*
X130739915Y-135857961D01*
X130835895Y-135512274D01*
X130893936Y-135158237D01*
X130913359Y-134800000D01*
X130893936Y-134441763D01*
X130847338Y-134157523D01*
X130835896Y-134087730D01*
X130773861Y-133864300D01*
X130739915Y-133742039D01*
X130607123Y-133408757D01*
X130439075Y-133091785D01*
X130237742Y-132794841D01*
X130005484Y-132521405D01*
X130005483Y-132521404D01*
X129745037Y-132274695D01*
X129745022Y-132274682D01*
X129459418Y-132057572D01*
X129459412Y-132057568D01*
X129386672Y-132013802D01*
X129152005Y-131872607D01*
X128826401Y-131721967D01*
X128516422Y-131617523D01*
X128486426Y-131607416D01*
X128486425Y-131607415D01*
X128486417Y-131607413D01*
X128438915Y-131596956D01*
X128136054Y-131530291D01*
X128136030Y-131530287D01*
X127779389Y-131491500D01*
X127779382Y-131491500D01*
X127420618Y-131491500D01*
X127420610Y-131491500D01*
X127063969Y-131530287D01*
X127063945Y-131530291D01*
X126713587Y-131607412D01*
X126713573Y-131607416D01*
X126373601Y-131721966D01*
X126373599Y-131721967D01*
X126066178Y-131864195D01*
X126047989Y-131872610D01*
X125740587Y-132057568D01*
X125740581Y-132057572D01*
X125454977Y-132274682D01*
X125454962Y-132274695D01*
X125194516Y-132521404D01*
X124962256Y-132794843D01*
X124760924Y-133091785D01*
X124760922Y-133091789D01*
X124592876Y-133408759D01*
X124592872Y-133408768D01*
X124460084Y-133742040D01*
X124364103Y-134087730D01*
X124306064Y-134441762D01*
X124286641Y-134799996D01*
X124286641Y-134800003D01*
X123865155Y-134800003D01*
X123815287Y-96401546D01*
X124389500Y-96401546D01*
X124420488Y-96597200D01*
X124456316Y-96707468D01*
X124481702Y-96785596D01*
X124481705Y-96785604D01*
X124537040Y-96894205D01*
X124571634Y-96962098D01*
X124688071Y-97122360D01*
X127645639Y-100079928D01*
X127656497Y-100087817D01*
X127805903Y-100196367D01*
X127982404Y-100286299D01*
X128109587Y-100327622D01*
X128170800Y-100347512D01*
X128366454Y-100378500D01*
X128564546Y-100378500D01*
X128668486Y-100378500D01*
X128736607Y-100398502D01*
X128783100Y-100452158D01*
X128793204Y-100522432D01*
X128763710Y-100587012D01*
X128745877Y-100603932D01*
X128677097Y-100657465D01*
X128524674Y-100823041D01*
X128401580Y-101011451D01*
X128311179Y-101217543D01*
X128311176Y-101217550D01*
X128263455Y-101405999D01*
X128263456Y-101406000D01*
X129169297Y-101406000D01*
X129134075Y-101467007D01*
X129100000Y-101594174D01*
X129100000Y-101725826D01*
X129134075Y-101852993D01*
X129169297Y-101914000D01*
X128263455Y-101914000D01*
X128311176Y-102102449D01*
X128311179Y-102102456D01*
X128401580Y-102308548D01*
X128524674Y-102496958D01*
X128677097Y-102662534D01*
X128854698Y-102800767D01*
X128854699Y-102800768D01*
X129052628Y-102907882D01*
X129052630Y-102907883D01*
X129265483Y-102980955D01*
X129265492Y-102980957D01*
X129346000Y-102994391D01*
X129346000Y-102090702D01*
X129407007Y-102125925D01*
X129534174Y-102160000D01*
X129665826Y-102160000D01*
X129792993Y-102125925D01*
X129854000Y-102090702D01*
X129854000Y-102994390D01*
X129934507Y-102980957D01*
X129934516Y-102980955D01*
X130056588Y-102939048D01*
X130127512Y-102935848D01*
X130188908Y-102971500D01*
X130221282Y-103034685D01*
X130223500Y-103058221D01*
X130223500Y-112760207D01*
X130252649Y-112906747D01*
X130252651Y-112906752D01*
X130261024Y-112926967D01*
X130309826Y-113044784D01*
X130392834Y-113169015D01*
X132947334Y-115723515D01*
X132947335Y-115723516D01*
X133052984Y-115829165D01*
X133177216Y-115912174D01*
X133315254Y-115969351D01*
X133461794Y-115998500D01*
X133461795Y-115998500D01*
X133611205Y-115998500D01*
X133868132Y-115998500D01*
X133936253Y-116018502D01*
X133971344Y-116052228D01*
X133993797Y-116084293D01*
X133993802Y-116084300D01*
X134155700Y-116246198D01*
X134343251Y-116377523D01*
X134378359Y-116393894D01*
X134382457Y-116395805D01*
X134435742Y-116442722D01*
X134455203Y-116510999D01*
X134434661Y-116578959D01*
X134382457Y-116624195D01*
X134343250Y-116642477D01*
X134155703Y-116773799D01*
X134155697Y-116773804D01*
X133993804Y-116935697D01*
X133993797Y-116935706D01*
X133971344Y-116967772D01*
X133915887Y-117012100D01*
X133868132Y-117021500D01*
X130020544Y-117021500D01*
X129952423Y-117001498D01*
X129946483Y-116997436D01*
X129914752Y-116974382D01*
X129740288Y-116896706D01*
X129553487Y-116857000D01*
X129362513Y-116857000D01*
X129175711Y-116896706D01*
X129001247Y-116974382D01*
X128846744Y-117086635D01*
X128718965Y-117228548D01*
X128718958Y-117228558D01*
X128623476Y-117393938D01*
X128623473Y-117393945D01*
X128564457Y-117575572D01*
X128544496Y-117765500D01*
X128564457Y-117955427D01*
X128581568Y-118008087D01*
X128623473Y-118137056D01*
X128623476Y-118137061D01*
X128718958Y-118302441D01*
X128718965Y-118302451D01*
X128846744Y-118444364D01*
X128846747Y-118444366D01*
X129001248Y-118556618D01*
X129175712Y-118634294D01*
X129362513Y-118674000D01*
X129553487Y-118674000D01*
X129740288Y-118634294D01*
X129914752Y-118556618D01*
X129914757Y-118556613D01*
X129916889Y-118555384D01*
X129918480Y-118554957D01*
X129920784Y-118553932D01*
X129920946Y-118554296D01*
X129979894Y-118538500D01*
X133868132Y-118538500D01*
X133936253Y-118558502D01*
X133971344Y-118592228D01*
X133993797Y-118624293D01*
X133993802Y-118624300D01*
X134155700Y-118786198D01*
X134343251Y-118917523D01*
X134378359Y-118933894D01*
X134382457Y-118935805D01*
X134435742Y-118982722D01*
X134455203Y-119050999D01*
X134434661Y-119118959D01*
X134382457Y-119164195D01*
X134343250Y-119182477D01*
X134155703Y-119313799D01*
X134155697Y-119313804D01*
X133993804Y-119475697D01*
X133993797Y-119475706D01*
X133971344Y-119507772D01*
X133915887Y-119552100D01*
X133868132Y-119561500D01*
X130020544Y-119561500D01*
X129952423Y-119541498D01*
X129946483Y-119537436D01*
X129914752Y-119514382D01*
X129740288Y-119436706D01*
X129553487Y-119397000D01*
X129362513Y-119397000D01*
X129175711Y-119436706D01*
X129001247Y-119514382D01*
X128846744Y-119626635D01*
X128718965Y-119768548D01*
X128718958Y-119768558D01*
X128623476Y-119933938D01*
X128623473Y-119933945D01*
X128564457Y-120115572D01*
X128544496Y-120305500D01*
X128564457Y-120495427D01*
X128581568Y-120548087D01*
X128623473Y-120677056D01*
X128623476Y-120677061D01*
X128718958Y-120842441D01*
X128718965Y-120842451D01*
X128846744Y-120984364D01*
X128846747Y-120984366D01*
X129001248Y-121096618D01*
X129175712Y-121174294D01*
X129362513Y-121214000D01*
X129553487Y-121214000D01*
X129740288Y-121174294D01*
X129914752Y-121096618D01*
X129914757Y-121096613D01*
X129916889Y-121095384D01*
X129918480Y-121094957D01*
X129920784Y-121093932D01*
X129920946Y-121094296D01*
X129979894Y-121078500D01*
X133868132Y-121078500D01*
X133936253Y-121098502D01*
X133971344Y-121132228D01*
X133993797Y-121164293D01*
X133993802Y-121164300D01*
X134155700Y-121326198D01*
X134343251Y-121457523D01*
X134378359Y-121473894D01*
X134382457Y-121475805D01*
X134435742Y-121522722D01*
X134455203Y-121590999D01*
X134434661Y-121658959D01*
X134382457Y-121704195D01*
X134343250Y-121722477D01*
X134155703Y-121853799D01*
X134155697Y-121853804D01*
X133993804Y-122015697D01*
X133993797Y-122015706D01*
X133971344Y-122047772D01*
X133915887Y-122092100D01*
X133868132Y-122101500D01*
X130020544Y-122101500D01*
X129952423Y-122081498D01*
X129946483Y-122077436D01*
X129914752Y-122054382D01*
X129740288Y-121976706D01*
X129553487Y-121937000D01*
X129362513Y-121937000D01*
X129175711Y-121976706D01*
X129001247Y-122054382D01*
X128846744Y-122166635D01*
X128718965Y-122308548D01*
X128718958Y-122308558D01*
X128623476Y-122473938D01*
X128623473Y-122473945D01*
X128564457Y-122655572D01*
X128544496Y-122845500D01*
X128564457Y-123035427D01*
X128581568Y-123088087D01*
X128623473Y-123217056D01*
X128623476Y-123217061D01*
X128718958Y-123382441D01*
X128718965Y-123382451D01*
X128846744Y-123524364D01*
X128846747Y-123524366D01*
X129001248Y-123636618D01*
X129175712Y-123714294D01*
X129362513Y-123754000D01*
X129553487Y-123754000D01*
X129740288Y-123714294D01*
X129914752Y-123636618D01*
X129914757Y-123636613D01*
X129916889Y-123635384D01*
X129918480Y-123634957D01*
X129920784Y-123633932D01*
X129920946Y-123634296D01*
X129979894Y-123618500D01*
X133868132Y-123618500D01*
X133936253Y-123638502D01*
X133971344Y-123672228D01*
X133993797Y-123704293D01*
X133993802Y-123704300D01*
X134155700Y-123866198D01*
X134343251Y-123997523D01*
X134378359Y-124013894D01*
X134382457Y-124015805D01*
X134435742Y-124062722D01*
X134455203Y-124130999D01*
X134434661Y-124198959D01*
X134382457Y-124244195D01*
X134343250Y-124262477D01*
X134155703Y-124393799D01*
X134155697Y-124393804D01*
X133993804Y-124555697D01*
X133993799Y-124555703D01*
X133862477Y-124743250D01*
X133765717Y-124950753D01*
X133765716Y-124950757D01*
X133706457Y-125171913D01*
X133686502Y-125400000D01*
X133706457Y-125628087D01*
X133765716Y-125849243D01*
X133862477Y-126056749D01*
X133993802Y-126244300D01*
X134155700Y-126406198D01*
X134343251Y-126537523D01*
X134378359Y-126553894D01*
X134382457Y-126555805D01*
X134435742Y-126602722D01*
X134455203Y-126670999D01*
X134434661Y-126738959D01*
X134382457Y-126784195D01*
X134343250Y-126802477D01*
X134155703Y-126933799D01*
X134155697Y-126933804D01*
X133993804Y-127095697D01*
X133993799Y-127095703D01*
X133862477Y-127283250D01*
X133765717Y-127490753D01*
X133765716Y-127490757D01*
X133706457Y-127711913D01*
X133686502Y-127940000D01*
X133706457Y-128168087D01*
X133765716Y-128389243D01*
X133862477Y-128596749D01*
X133993802Y-128784300D01*
X134155700Y-128946198D01*
X134343251Y-129077523D01*
X134378359Y-129093894D01*
X134382457Y-129095805D01*
X134435742Y-129142722D01*
X134455203Y-129210999D01*
X134434661Y-129278959D01*
X134382457Y-129324195D01*
X134343250Y-129342477D01*
X134155703Y-129473799D01*
X134155697Y-129473804D01*
X133993804Y-129635697D01*
X133993799Y-129635703D01*
X133862477Y-129823250D01*
X133765717Y-130030753D01*
X133765716Y-130030757D01*
X133706457Y-130251913D01*
X133686502Y-130480000D01*
X133706457Y-130708087D01*
X133765716Y-130929243D01*
X133862477Y-131136749D01*
X133993802Y-131324300D01*
X134155700Y-131486198D01*
X134343251Y-131617523D01*
X134378359Y-131633894D01*
X134382457Y-131635805D01*
X134435742Y-131682722D01*
X134455203Y-131750999D01*
X134434661Y-131818959D01*
X134382457Y-131864195D01*
X134343250Y-131882477D01*
X134155703Y-132013799D01*
X134155697Y-132013804D01*
X133993804Y-132175697D01*
X133993799Y-132175703D01*
X133862477Y-132363250D01*
X133765717Y-132570753D01*
X133765716Y-132570757D01*
X133706457Y-132791913D01*
X133686502Y-133020000D01*
X133706457Y-133248087D01*
X133765716Y-133469243D01*
X133862477Y-133676749D01*
X133993802Y-133864300D01*
X134155700Y-134026198D01*
X134343251Y-134157523D01*
X134378359Y-134173894D01*
X134382457Y-134175805D01*
X134435742Y-134222722D01*
X134455203Y-134290999D01*
X134434661Y-134358959D01*
X134382457Y-134404195D01*
X134343250Y-134422477D01*
X134155703Y-134553799D01*
X134155697Y-134553804D01*
X133993804Y-134715697D01*
X133993799Y-134715703D01*
X133862477Y-134903250D01*
X133765717Y-135110753D01*
X133765715Y-135110759D01*
X133706457Y-135331913D01*
X133686502Y-135560000D01*
X133706457Y-135788086D01*
X133765715Y-136009240D01*
X133765717Y-136009246D01*
X133850578Y-136191231D01*
X133862477Y-136216749D01*
X133993802Y-136404300D01*
X134155700Y-136566198D01*
X134343251Y-136697523D01*
X134550757Y-136794284D01*
X134771913Y-136853543D01*
X135000000Y-136873498D01*
X135228087Y-136853543D01*
X135449243Y-136794284D01*
X135656749Y-136697523D01*
X135844300Y-136566198D01*
X136006198Y-136404300D01*
X136137523Y-136216749D01*
X136234284Y-136009243D01*
X136293543Y-135788087D01*
X136313498Y-135560000D01*
X136293543Y-135331913D01*
X136234284Y-135110757D01*
X136137523Y-134903251D01*
X136006198Y-134715700D01*
X135844300Y-134553802D01*
X135656749Y-134422477D01*
X135617543Y-134404195D01*
X135564258Y-134357279D01*
X135544796Y-134289002D01*
X135565337Y-134221042D01*
X135617543Y-134175805D01*
X135619997Y-134174660D01*
X135656749Y-134157523D01*
X135844300Y-134026198D01*
X136006198Y-133864300D01*
X136137523Y-133676749D01*
X136234284Y-133469243D01*
X136293543Y-133248087D01*
X136313498Y-133020000D01*
X136293543Y-132791913D01*
X136234284Y-132570757D01*
X136137523Y-132363251D01*
X136006198Y-132175700D01*
X135844300Y-132013802D01*
X135656749Y-131882477D01*
X135617543Y-131864195D01*
X135564258Y-131817279D01*
X135544796Y-131749002D01*
X135565337Y-131681042D01*
X135617543Y-131635805D01*
X135619997Y-131634660D01*
X135656749Y-131617523D01*
X135844300Y-131486198D01*
X136006198Y-131324300D01*
X136137523Y-131136749D01*
X136234284Y-130929243D01*
X136293543Y-130708087D01*
X136313498Y-130480000D01*
X136293543Y-130251913D01*
X136234284Y-130030757D01*
X136137523Y-129823251D01*
X136006198Y-129635700D01*
X135844300Y-129473802D01*
X135656749Y-129342477D01*
X135617543Y-129324195D01*
X135564258Y-129277279D01*
X135544796Y-129209002D01*
X135565337Y-129141042D01*
X135617543Y-129095805D01*
X135619997Y-129094660D01*
X135656749Y-129077523D01*
X135844300Y-128946198D01*
X136006198Y-128784300D01*
X136137523Y-128596749D01*
X136234284Y-128389243D01*
X136293543Y-128168087D01*
X136313498Y-127940000D01*
X136293543Y-127711913D01*
X136234284Y-127490757D01*
X136137523Y-127283251D01*
X136006198Y-127095700D01*
X135844300Y-126933802D01*
X135656749Y-126802477D01*
X135617543Y-126784195D01*
X135564258Y-126737279D01*
X135544796Y-126669002D01*
X135565337Y-126601042D01*
X135617543Y-126555805D01*
X135619997Y-126554660D01*
X135656749Y-126537523D01*
X135844300Y-126406198D01*
X136006198Y-126244300D01*
X136137523Y-126056749D01*
X136234284Y-125849243D01*
X136293543Y-125628087D01*
X136313498Y-125400000D01*
X136293543Y-125171913D01*
X136234284Y-124950757D01*
X136137523Y-124743251D01*
X136006198Y-124555700D01*
X135844300Y-124393802D01*
X135656749Y-124262477D01*
X135617543Y-124244195D01*
X135564258Y-124197279D01*
X135544796Y-124129002D01*
X135565337Y-124061042D01*
X135617543Y-124015805D01*
X135619997Y-124014660D01*
X135656749Y-123997523D01*
X135844300Y-123866198D01*
X136006198Y-123704300D01*
X136137523Y-123516749D01*
X136234284Y-123309243D01*
X136293543Y-123088087D01*
X136313498Y-122860000D01*
X136293543Y-122631913D01*
X136234284Y-122410757D01*
X136137523Y-122203251D01*
X136006198Y-122015700D01*
X135844300Y-121853802D01*
X135656749Y-121722477D01*
X135617543Y-121704195D01*
X135564258Y-121657279D01*
X135544796Y-121589002D01*
X135565337Y-121521042D01*
X135617543Y-121475805D01*
X135619997Y-121474660D01*
X135656749Y-121457523D01*
X135844300Y-121326198D01*
X136006198Y-121164300D01*
X136137523Y-120976749D01*
X136234284Y-120769243D01*
X136293543Y-120548087D01*
X136313498Y-120320000D01*
X136293543Y-120091913D01*
X136234284Y-119870757D01*
X136137523Y-119663251D01*
X136006198Y-119475700D01*
X135844300Y-119313802D01*
X135820254Y-119296965D01*
X135781998Y-119270177D01*
X135656749Y-119182477D01*
X135617543Y-119164195D01*
X135564258Y-119117279D01*
X135544796Y-119049002D01*
X135565337Y-118981042D01*
X135617543Y-118935805D01*
X135619997Y-118934660D01*
X135656749Y-118917523D01*
X135844300Y-118786198D01*
X136006198Y-118624300D01*
X136137523Y-118436749D01*
X136234284Y-118229243D01*
X136293543Y-118008087D01*
X136313498Y-117780000D01*
X136293543Y-117551913D01*
X136234284Y-117330757D01*
X136137523Y-117123251D01*
X136006198Y-116935700D01*
X135844300Y-116773802D01*
X135656749Y-116642477D01*
X135617543Y-116624195D01*
X135564258Y-116577279D01*
X135544796Y-116509002D01*
X135565337Y-116441042D01*
X135617543Y-116395805D01*
X135619997Y-116394660D01*
X135656749Y-116377523D01*
X135844300Y-116246198D01*
X136006198Y-116084300D01*
X136137523Y-115896749D01*
X136234284Y-115689243D01*
X136293543Y-115468087D01*
X136313498Y-115240000D01*
X136293543Y-115011913D01*
X136234284Y-114790757D01*
X136137523Y-114583251D01*
X136006198Y-114395700D01*
X135844300Y-114233802D01*
X135656749Y-114102477D01*
X135617543Y-114084195D01*
X135564258Y-114037279D01*
X135544796Y-113969002D01*
X135565337Y-113901042D01*
X135617543Y-113855805D01*
X135619997Y-113854660D01*
X135656749Y-113837523D01*
X135844300Y-113706198D01*
X136006198Y-113544300D01*
X136137523Y-113356749D01*
X136234284Y-113149243D01*
X136293543Y-112928087D01*
X136313498Y-112700000D01*
X136293543Y-112471913D01*
X136234284Y-112250757D01*
X136137523Y-112043251D01*
X136006198Y-111855700D01*
X135844300Y-111693802D01*
X135656749Y-111562477D01*
X135617543Y-111544195D01*
X135564258Y-111497279D01*
X135544796Y-111429002D01*
X135565337Y-111361042D01*
X135617543Y-111315805D01*
X135619997Y-111314660D01*
X135656749Y-111297523D01*
X135844300Y-111166198D01*
X136006198Y-111004300D01*
X136137523Y-110816749D01*
X136234284Y-110609243D01*
X136293543Y-110388087D01*
X136313498Y-110160000D01*
X136293543Y-109931913D01*
X136234284Y-109710757D01*
X136137523Y-109503251D01*
X136006198Y-109315700D01*
X135844300Y-109153802D01*
X135726412Y-109071256D01*
X135656749Y-109022477D01*
X135616951Y-109003919D01*
X135563666Y-108957002D01*
X135544205Y-108888725D01*
X135564747Y-108820765D01*
X135616951Y-108775529D01*
X135656498Y-108757087D01*
X135843974Y-108625815D01*
X135843980Y-108625810D01*
X136005810Y-108463980D01*
X136005815Y-108463974D01*
X136137087Y-108276498D01*
X136233811Y-108069073D01*
X136233813Y-108069068D01*
X136286082Y-107874000D01*
X135430703Y-107874000D01*
X135465925Y-107812993D01*
X135500000Y-107685826D01*
X135500000Y-107554174D01*
X135465925Y-107427007D01*
X135430703Y-107366000D01*
X136286082Y-107366000D01*
X136233813Y-107170931D01*
X136233811Y-107170926D01*
X136137087Y-106963501D01*
X136005815Y-106776025D01*
X136005810Y-106776019D01*
X135843980Y-106614189D01*
X135843974Y-106614184D01*
X135656497Y-106482911D01*
X135616949Y-106464469D01*
X135563665Y-106417551D01*
X135544205Y-106349273D01*
X135564748Y-106281314D01*
X135616950Y-106236081D01*
X135656749Y-106217523D01*
X135844300Y-106086198D01*
X136006198Y-105924300D01*
X136137523Y-105736749D01*
X136234284Y-105529243D01*
X136293543Y-105308087D01*
X136313498Y-105080000D01*
X136293543Y-104851913D01*
X136234284Y-104630757D01*
X136137523Y-104423251D01*
X136006198Y-104235700D01*
X135844300Y-104073802D01*
X135809300Y-104049295D01*
X135732385Y-103995438D01*
X135656749Y-103942477D01*
X135617543Y-103924195D01*
X135564258Y-103877279D01*
X135544796Y-103809002D01*
X135565337Y-103741042D01*
X135617543Y-103695805D01*
X135633993Y-103688134D01*
X135656749Y-103677523D01*
X135844300Y-103546198D01*
X136006198Y-103384300D01*
X136137523Y-103196749D01*
X136234284Y-102989243D01*
X136293543Y-102768087D01*
X136313498Y-102540000D01*
X136293543Y-102311913D01*
X136234284Y-102090757D01*
X136137523Y-101883251D01*
X136006198Y-101695700D01*
X135844300Y-101533802D01*
X135844295Y-101533799D01*
X135844292Y-101533796D01*
X135840995Y-101531487D01*
X135796669Y-101476028D01*
X135789363Y-101405409D01*
X135821396Y-101342049D01*
X135882599Y-101306067D01*
X135899801Y-101302999D01*
X135909201Y-101301989D01*
X136046204Y-101250889D01*
X136110182Y-101202996D01*
X136163261Y-101163261D01*
X136250887Y-101046207D01*
X136250887Y-101046206D01*
X136250889Y-101046204D01*
X136301989Y-100909201D01*
X136304158Y-100889033D01*
X136308499Y-100848649D01*
X136308500Y-100848632D01*
X136308500Y-99151367D01*
X136308499Y-99151350D01*
X136301990Y-99090803D01*
X136301988Y-99090795D01*
X136253755Y-98961480D01*
X136250889Y-98953796D01*
X136250888Y-98953794D01*
X136250887Y-98953792D01*
X136163261Y-98836738D01*
X136046207Y-98749112D01*
X136046202Y-98749110D01*
X135909204Y-98698011D01*
X135909196Y-98698009D01*
X135848649Y-98691500D01*
X135848638Y-98691500D01*
X134151362Y-98691500D01*
X134151350Y-98691500D01*
X134090803Y-98698009D01*
X134090802Y-98698010D01*
X134090799Y-98698010D01*
X134090799Y-98698011D01*
X133957031Y-98747904D01*
X133886217Y-98752969D01*
X133823905Y-98718944D01*
X133789880Y-98656632D01*
X133787000Y-98629848D01*
X133787000Y-94853795D01*
X133786999Y-94853788D01*
X133759940Y-94717752D01*
X133759940Y-94717751D01*
X133757852Y-94707257D01*
X133757851Y-94707255D01*
X133757851Y-94707253D01*
X133722880Y-94622826D01*
X133700674Y-94569216D01*
X133617665Y-94444984D01*
X133512016Y-94339335D01*
X130982225Y-91809544D01*
X130948199Y-91747232D01*
X130945750Y-91710049D01*
X130963156Y-91500000D01*
X130944564Y-91275632D01*
X130889296Y-91057384D01*
X130798860Y-90851209D01*
X130757202Y-90787447D01*
X130675724Y-90662734D01*
X130675720Y-90662729D01*
X130559570Y-90536559D01*
X130523240Y-90497094D01*
X130523239Y-90497093D01*
X130523237Y-90497091D01*
X130399137Y-90400500D01*
X130345576Y-90358811D01*
X130311792Y-90340528D01*
X130261402Y-90290516D01*
X130246050Y-90221199D01*
X130270610Y-90154586D01*
X130311793Y-90118901D01*
X130345300Y-90100767D01*
X130345301Y-90100767D01*
X130522902Y-89962534D01*
X130675325Y-89796958D01*
X130798419Y-89608548D01*
X130888820Y-89402456D01*
X130888823Y-89402449D01*
X130944067Y-89184292D01*
X130948214Y-89134251D01*
X130973773Y-89068014D01*
X131031084Y-89026111D01*
X131101953Y-89021844D01*
X131162879Y-89055560D01*
X137679595Y-95572276D01*
X137713621Y-95634588D01*
X137716500Y-95661371D01*
X137716500Y-113268206D01*
X137727131Y-113321650D01*
X137743843Y-113405667D01*
X137745649Y-113414747D01*
X137802826Y-113552784D01*
X137885834Y-113677015D01*
X142472334Y-118263515D01*
X142472335Y-118263516D01*
X142577984Y-118369165D01*
X142702216Y-118452174D01*
X142840254Y-118509351D01*
X142986794Y-118538500D01*
X142986795Y-118538500D01*
X143136205Y-118538500D01*
X149108132Y-118538500D01*
X149176253Y-118558502D01*
X149211344Y-118592228D01*
X149233797Y-118624293D01*
X149233802Y-118624300D01*
X149395700Y-118786198D01*
X149583251Y-118917523D01*
X149618359Y-118933894D01*
X149622457Y-118935805D01*
X149675742Y-118982722D01*
X149695203Y-119050999D01*
X149674661Y-119118959D01*
X149622457Y-119164195D01*
X149583250Y-119182477D01*
X149395703Y-119313799D01*
X149395697Y-119313804D01*
X149233804Y-119475697D01*
X149233799Y-119475703D01*
X149102477Y-119663250D01*
X149005717Y-119870753D01*
X149005715Y-119870759D01*
X148946457Y-120091913D01*
X148926502Y-120320000D01*
X148946457Y-120548086D01*
X149005715Y-120769240D01*
X149005717Y-120769246D01*
X149102477Y-120976749D01*
X149187729Y-121098502D01*
X149233802Y-121164300D01*
X149395700Y-121326198D01*
X149583251Y-121457523D01*
X149618359Y-121473894D01*
X149622457Y-121475805D01*
X149675742Y-121522722D01*
X149695203Y-121590999D01*
X149674661Y-121658959D01*
X149622457Y-121704195D01*
X149583250Y-121722477D01*
X149395703Y-121853799D01*
X149395697Y-121853804D01*
X149233804Y-122015697D01*
X149233799Y-122015703D01*
X149102477Y-122203250D01*
X149005717Y-122410753D01*
X149005715Y-122410759D01*
X148946457Y-122631913D01*
X148926502Y-122860000D01*
X148946457Y-123088086D01*
X149005715Y-123309240D01*
X149005717Y-123309246D01*
X149102477Y-123516749D01*
X149187729Y-123638502D01*
X149233802Y-123704300D01*
X149395700Y-123866198D01*
X149583251Y-123997523D01*
X149618359Y-124013894D01*
X149622457Y-124015805D01*
X149675742Y-124062722D01*
X149695203Y-124130999D01*
X149674661Y-124198959D01*
X149622457Y-124244195D01*
X149583250Y-124262477D01*
X149395703Y-124393799D01*
X149395697Y-124393804D01*
X149233804Y-124555697D01*
X149233799Y-124555703D01*
X149102477Y-124743250D01*
X149005717Y-124950753D01*
X149005716Y-124950757D01*
X148946457Y-125171913D01*
X148926502Y-125400000D01*
X148946457Y-125628087D01*
X149005716Y-125849243D01*
X149102477Y-126056749D01*
X149233802Y-126244300D01*
X149395700Y-126406198D01*
X149583251Y-126537523D01*
X149618359Y-126553894D01*
X149622457Y-126555805D01*
X149675742Y-126602722D01*
X149695203Y-126670999D01*
X149674661Y-126738959D01*
X149622457Y-126784195D01*
X149583250Y-126802477D01*
X149395703Y-126933799D01*
X149395697Y-126933804D01*
X149233804Y-127095697D01*
X149233799Y-127095703D01*
X149102477Y-127283250D01*
X149005717Y-127490753D01*
X149005716Y-127490757D01*
X148946457Y-127711913D01*
X148926502Y-127940000D01*
X148946457Y-128168087D01*
X149005716Y-128389243D01*
X149102477Y-128596749D01*
X149233802Y-128784300D01*
X149395700Y-128946198D01*
X149583251Y-129077523D01*
X149618359Y-129093894D01*
X149622457Y-129095805D01*
X149675742Y-129142722D01*
X149695203Y-129210999D01*
X149674661Y-129278959D01*
X149622457Y-129324195D01*
X149583250Y-129342477D01*
X149395703Y-129473799D01*
X149395697Y-129473804D01*
X149233804Y-129635697D01*
X149233799Y-129635703D01*
X149102477Y-129823250D01*
X149005717Y-130030753D01*
X149005716Y-130030757D01*
X148946457Y-130251913D01*
X148926502Y-130480000D01*
X148946457Y-130708087D01*
X149005716Y-130929243D01*
X149102477Y-131136749D01*
X149233802Y-131324300D01*
X149395700Y-131486198D01*
X149583251Y-131617523D01*
X149618359Y-131633894D01*
X149622457Y-131635805D01*
X149675742Y-131682722D01*
X149695203Y-131750999D01*
X149674661Y-131818959D01*
X149622457Y-131864195D01*
X149583250Y-131882477D01*
X149395703Y-132013799D01*
X149395697Y-132013804D01*
X149233804Y-132175697D01*
X149233799Y-132175703D01*
X149102477Y-132363250D01*
X149005717Y-132570753D01*
X149005716Y-132570757D01*
X148946457Y-132791913D01*
X148926502Y-133020000D01*
X148946457Y-133248087D01*
X149005716Y-133469243D01*
X149102477Y-133676749D01*
X149233802Y-133864300D01*
X149395700Y-134026198D01*
X149583251Y-134157523D01*
X149618359Y-134173894D01*
X149622457Y-134175805D01*
X149675742Y-134222722D01*
X149695203Y-134290999D01*
X149674661Y-134358959D01*
X149622457Y-134404195D01*
X149583250Y-134422477D01*
X149395703Y-134553799D01*
X149395697Y-134553804D01*
X149233804Y-134715697D01*
X149233799Y-134715703D01*
X149102477Y-134903250D01*
X149005717Y-135110753D01*
X149005715Y-135110759D01*
X148946457Y-135331913D01*
X148926502Y-135560000D01*
X148946457Y-135788086D01*
X149005715Y-136009240D01*
X149005717Y-136009246D01*
X149090578Y-136191231D01*
X149102477Y-136216749D01*
X149233802Y-136404300D01*
X149395700Y-136566198D01*
X149583251Y-136697523D01*
X149790757Y-136794284D01*
X150011913Y-136853543D01*
X150240000Y-136873498D01*
X150468087Y-136853543D01*
X150689243Y-136794284D01*
X150896749Y-136697523D01*
X151084300Y-136566198D01*
X151246198Y-136404300D01*
X151377523Y-136216749D01*
X151474284Y-136009243D01*
X151533543Y-135788087D01*
X151553498Y-135560000D01*
X151533543Y-135331913D01*
X151474284Y-135110757D01*
X151377523Y-134903251D01*
X151305228Y-134800003D01*
X184286641Y-134800003D01*
X184306064Y-135158237D01*
X184364103Y-135512269D01*
X184460084Y-135857959D01*
X184520362Y-136009246D01*
X184592877Y-136191243D01*
X184760925Y-136508215D01*
X184962258Y-136805159D01*
X185003355Y-136853542D01*
X185194516Y-137078595D01*
X185454962Y-137325304D01*
X185454977Y-137325317D01*
X185740586Y-137542431D01*
X186047995Y-137727393D01*
X186373599Y-137878033D01*
X186713583Y-137992587D01*
X187063958Y-138069711D01*
X187420618Y-138108500D01*
X187420626Y-138108500D01*
X187779374Y-138108500D01*
X187779382Y-138108500D01*
X188136042Y-138069711D01*
X188486417Y-137992587D01*
X188826401Y-137878033D01*
X189152005Y-137727393D01*
X189459414Y-137542431D01*
X189745023Y-137325317D01*
X190005484Y-137078595D01*
X190237742Y-136805159D01*
X190439075Y-136508215D01*
X190607123Y-136191243D01*
X190739915Y-135857961D01*
X190835895Y-135512274D01*
X190893936Y-135158237D01*
X190913359Y-134800000D01*
X190893936Y-134441763D01*
X190847338Y-134157523D01*
X190835896Y-134087730D01*
X190773861Y-133864300D01*
X190739915Y-133742039D01*
X190607123Y-133408757D01*
X190439075Y-133091785D01*
X190237742Y-132794841D01*
X190005484Y-132521405D01*
X190005483Y-132521404D01*
X189745037Y-132274695D01*
X189745022Y-132274682D01*
X189459418Y-132057572D01*
X189459412Y-132057568D01*
X189386672Y-132013802D01*
X189152005Y-131872607D01*
X188826401Y-131721967D01*
X188516422Y-131617523D01*
X188486426Y-131607416D01*
X188486425Y-131607415D01*
X188486417Y-131607413D01*
X188438915Y-131596956D01*
X188136054Y-131530291D01*
X188136030Y-131530287D01*
X187779389Y-131491500D01*
X187779382Y-131491500D01*
X187420618Y-131491500D01*
X187420610Y-131491500D01*
X187063969Y-131530287D01*
X187063945Y-131530291D01*
X186713587Y-131607412D01*
X186713573Y-131607416D01*
X186373601Y-131721966D01*
X186373599Y-131721967D01*
X186066178Y-131864195D01*
X186047989Y-131872610D01*
X185740587Y-132057568D01*
X185740581Y-132057572D01*
X185454977Y-132274682D01*
X185454962Y-132274695D01*
X185194516Y-132521404D01*
X184962256Y-132794843D01*
X184760924Y-133091785D01*
X184760922Y-133091789D01*
X184592876Y-133408759D01*
X184592872Y-133408768D01*
X184460084Y-133742040D01*
X184364103Y-134087730D01*
X184306064Y-134441762D01*
X184286641Y-134799996D01*
X184286641Y-134800003D01*
X151305228Y-134800003D01*
X151246198Y-134715700D01*
X151084300Y-134553802D01*
X150896749Y-134422477D01*
X150857543Y-134404195D01*
X150804258Y-134357279D01*
X150784796Y-134289002D01*
X150805337Y-134221042D01*
X150857543Y-134175805D01*
X150859997Y-134174660D01*
X150896749Y-134157523D01*
X151084300Y-134026198D01*
X151246198Y-133864300D01*
X151377523Y-133676749D01*
X151474284Y-133469243D01*
X151533543Y-133248087D01*
X151553498Y-133020000D01*
X151533543Y-132791913D01*
X151474284Y-132570757D01*
X151377523Y-132363251D01*
X151246198Y-132175700D01*
X151084300Y-132013802D01*
X150896749Y-131882477D01*
X150857543Y-131864195D01*
X150804258Y-131817279D01*
X150784796Y-131749002D01*
X150805337Y-131681042D01*
X150857543Y-131635805D01*
X150859997Y-131634660D01*
X150896749Y-131617523D01*
X151084300Y-131486198D01*
X151246198Y-131324300D01*
X151377523Y-131136749D01*
X151474284Y-130929243D01*
X151533543Y-130708087D01*
X151553498Y-130480000D01*
X151533543Y-130251913D01*
X151474284Y-130030757D01*
X151377523Y-129823251D01*
X151246198Y-129635700D01*
X151084300Y-129473802D01*
X150896749Y-129342477D01*
X150857543Y-129324195D01*
X150804258Y-129277279D01*
X150784796Y-129209002D01*
X150805337Y-129141042D01*
X150857543Y-129095805D01*
X150859997Y-129094660D01*
X150896749Y-129077523D01*
X151084300Y-128946198D01*
X151246198Y-128784300D01*
X151377523Y-128596749D01*
X151474284Y-128389243D01*
X151533543Y-128168087D01*
X151553498Y-127940000D01*
X151533543Y-127711913D01*
X151474284Y-127490757D01*
X151377523Y-127283251D01*
X151246198Y-127095700D01*
X151084300Y-126933802D01*
X150896749Y-126802477D01*
X150857543Y-126784195D01*
X150804258Y-126737279D01*
X150784796Y-126669002D01*
X150805337Y-126601042D01*
X150857543Y-126555805D01*
X150859997Y-126554660D01*
X150896749Y-126537523D01*
X151084300Y-126406198D01*
X151246198Y-126244300D01*
X151377523Y-126056749D01*
X151474284Y-125849243D01*
X151533543Y-125628087D01*
X151553498Y-125400000D01*
X151533543Y-125171913D01*
X151474284Y-124950757D01*
X151377523Y-124743251D01*
X151246198Y-124555700D01*
X151084300Y-124393802D01*
X150896749Y-124262477D01*
X150857543Y-124244195D01*
X150804258Y-124197279D01*
X150784796Y-124129002D01*
X150805337Y-124061042D01*
X150857543Y-124015805D01*
X150859997Y-124014660D01*
X150896749Y-123997523D01*
X151084300Y-123866198D01*
X151246198Y-123704300D01*
X151377523Y-123516749D01*
X151474284Y-123309243D01*
X151533543Y-123088087D01*
X151553498Y-122860000D01*
X151533543Y-122631913D01*
X151474284Y-122410757D01*
X151377523Y-122203251D01*
X151246198Y-122015700D01*
X151084300Y-121853802D01*
X150896749Y-121722477D01*
X150857543Y-121704195D01*
X150804258Y-121657279D01*
X150784796Y-121589002D01*
X150805337Y-121521042D01*
X150857543Y-121475805D01*
X150859997Y-121474660D01*
X150896749Y-121457523D01*
X151084300Y-121326198D01*
X151246198Y-121164300D01*
X151377523Y-120976749D01*
X151474284Y-120769243D01*
X151533543Y-120548087D01*
X151553498Y-120320000D01*
X151533543Y-120091913D01*
X151474284Y-119870757D01*
X151377523Y-119663251D01*
X151246198Y-119475700D01*
X151084300Y-119313802D01*
X151060254Y-119296965D01*
X151021998Y-119270177D01*
X150896749Y-119182477D01*
X150857543Y-119164195D01*
X150804258Y-119117279D01*
X150784796Y-119049002D01*
X150805337Y-118981042D01*
X150857543Y-118935805D01*
X150859997Y-118934660D01*
X150896749Y-118917523D01*
X151084300Y-118786198D01*
X151246198Y-118624300D01*
X151377523Y-118436749D01*
X151438958Y-118305000D01*
X165120500Y-118305000D01*
X165120500Y-119099597D01*
X165127005Y-119160093D01*
X165178055Y-119296964D01*
X165178055Y-119296965D01*
X165265595Y-119413904D01*
X165382534Y-119501444D01*
X165519406Y-119552494D01*
X165579902Y-119558999D01*
X165579915Y-119559000D01*
X166224500Y-119559000D01*
X166224500Y-118305000D01*
X166732500Y-118305000D01*
X166732500Y-119559000D01*
X167377085Y-119559000D01*
X167377097Y-119558999D01*
X167437593Y-119552494D01*
X167574464Y-119501444D01*
X167574465Y-119501444D01*
X167691404Y-119413904D01*
X167778944Y-119296965D01*
X167778944Y-119296964D01*
X167829994Y-119160093D01*
X167836499Y-119099597D01*
X167836500Y-119099585D01*
X167836500Y-118591000D01*
X185222337Y-118591000D01*
X185240960Y-118827632D01*
X185296371Y-119058437D01*
X185387208Y-119277738D01*
X185501896Y-119464890D01*
X185501897Y-119464890D01*
X186250841Y-118715946D01*
X186269075Y-118783993D01*
X186334901Y-118898007D01*
X186427993Y-118991099D01*
X186542007Y-119056925D01*
X186610051Y-119075157D01*
X185861107Y-119824101D01*
X185861108Y-119824102D01*
X186048261Y-119938791D01*
X186267562Y-120029628D01*
X186498367Y-120085039D01*
X186735000Y-120103662D01*
X186971632Y-120085039D01*
X187202437Y-120029628D01*
X187421738Y-119938791D01*
X187608890Y-119824102D01*
X187608891Y-119824102D01*
X186859947Y-119075158D01*
X186927993Y-119056925D01*
X187042007Y-118991099D01*
X187135099Y-118898007D01*
X187200925Y-118783993D01*
X187219158Y-118715947D01*
X187968102Y-119464891D01*
X187968102Y-119464890D01*
X188082791Y-119277738D01*
X188173628Y-119058437D01*
X188229039Y-118827632D01*
X188247662Y-118591000D01*
X188229039Y-118354367D01*
X188173628Y-118123562D01*
X188082791Y-117904261D01*
X187968102Y-117717108D01*
X187968101Y-117717107D01*
X187219157Y-118466051D01*
X187200925Y-118398007D01*
X187135099Y-118283993D01*
X187042007Y-118190901D01*
X186927993Y-118125075D01*
X186859946Y-118106841D01*
X187608890Y-117357897D01*
X187608890Y-117357896D01*
X187421738Y-117243208D01*
X187202437Y-117152371D01*
X186971632Y-117096960D01*
X186735000Y-117078337D01*
X186498367Y-117096960D01*
X186267562Y-117152371D01*
X186048266Y-117243206D01*
X185861108Y-117357897D01*
X185861108Y-117357898D01*
X186610052Y-118106842D01*
X186542007Y-118125075D01*
X186427993Y-118190901D01*
X186334901Y-118283993D01*
X186269075Y-118398007D01*
X186250842Y-118466052D01*
X185501898Y-117717108D01*
X185501897Y-117717108D01*
X185387206Y-117904266D01*
X185296371Y-118123562D01*
X185240960Y-118354367D01*
X185222337Y-118591000D01*
X167836500Y-118591000D01*
X167836500Y-118305000D01*
X166732500Y-118305000D01*
X166224500Y-118305000D01*
X165120500Y-118305000D01*
X151438958Y-118305000D01*
X151474284Y-118229243D01*
X151533543Y-118008087D01*
X151552011Y-117797000D01*
X165120500Y-117797000D01*
X166224500Y-117797000D01*
X166224500Y-116543000D01*
X166732500Y-116543000D01*
X166732500Y-117797000D01*
X167836500Y-117797000D01*
X167836500Y-117002414D01*
X167836499Y-117002402D01*
X167829994Y-116941906D01*
X167778944Y-116805035D01*
X167778944Y-116805034D01*
X167691404Y-116688095D01*
X167574465Y-116600555D01*
X167437593Y-116549505D01*
X167377097Y-116543000D01*
X166732500Y-116543000D01*
X166224500Y-116543000D01*
X165579902Y-116543000D01*
X165519406Y-116549505D01*
X165382535Y-116600555D01*
X165382534Y-116600555D01*
X165265595Y-116688095D01*
X165178055Y-116805034D01*
X165178055Y-116805035D01*
X165127005Y-116941906D01*
X165120500Y-117002402D01*
X165120500Y-117797000D01*
X151552011Y-117797000D01*
X151553498Y-117780000D01*
X151533543Y-117551913D01*
X151474284Y-117330757D01*
X151377523Y-117123251D01*
X151246198Y-116935700D01*
X151084300Y-116773802D01*
X150896749Y-116642477D01*
X150857543Y-116624195D01*
X150804258Y-116577279D01*
X150784796Y-116509002D01*
X150805337Y-116441042D01*
X150857543Y-116395805D01*
X150859997Y-116394660D01*
X150896749Y-116377523D01*
X151084300Y-116246198D01*
X151246198Y-116084300D01*
X151377523Y-115896749D01*
X151474284Y-115689243D01*
X151533543Y-115468087D01*
X151553498Y-115240000D01*
X151541219Y-115099649D01*
X165120000Y-115099649D01*
X165126509Y-115160196D01*
X165126511Y-115160204D01*
X165177610Y-115297202D01*
X165177612Y-115297207D01*
X165265238Y-115414261D01*
X165382292Y-115501887D01*
X165382294Y-115501888D01*
X165382296Y-115501889D01*
X165441375Y-115523924D01*
X165519295Y-115552988D01*
X165519303Y-115552990D01*
X165579850Y-115559499D01*
X165579855Y-115559499D01*
X165579862Y-115559500D01*
X165579868Y-115559500D01*
X167377132Y-115559500D01*
X167377138Y-115559500D01*
X167377145Y-115559499D01*
X167377149Y-115559499D01*
X167437696Y-115552990D01*
X167437699Y-115552989D01*
X167437701Y-115552989D01*
X167574704Y-115501889D01*
X167619860Y-115468086D01*
X167691761Y-115414261D01*
X167779387Y-115297207D01*
X167779387Y-115297206D01*
X167779389Y-115297204D01*
X167830489Y-115160201D01*
X167837000Y-115099638D01*
X167837000Y-114935500D01*
X167857002Y-114867379D01*
X167910658Y-114820886D01*
X167963000Y-114809500D01*
X173823706Y-114809500D01*
X173917932Y-114790757D01*
X173970247Y-114780351D01*
X174108284Y-114723174D01*
X174232515Y-114640166D01*
X178486276Y-110386405D01*
X178548588Y-110352379D01*
X178575371Y-110349500D01*
X185360035Y-110349500D01*
X185428156Y-110369502D01*
X185467466Y-110409663D01*
X185510824Y-110480416D01*
X185510825Y-110480417D01*
X185510826Y-110480419D01*
X185665030Y-110660969D01*
X185845580Y-110815173D01*
X185845584Y-110815176D01*
X186048037Y-110939240D01*
X186267406Y-111030105D01*
X186498289Y-111085535D01*
X186735000Y-111104165D01*
X186971711Y-111085535D01*
X187202594Y-111030105D01*
X187421963Y-110939240D01*
X187624416Y-110815176D01*
X187804969Y-110660969D01*
X187959176Y-110480416D01*
X188083240Y-110277963D01*
X188174105Y-110058594D01*
X188229535Y-109827711D01*
X188248165Y-109591000D01*
X188229535Y-109354289D01*
X188174105Y-109123406D01*
X188083240Y-108904037D01*
X187959176Y-108701584D01*
X187959173Y-108701580D01*
X187804969Y-108521030D01*
X187624419Y-108366826D01*
X187624417Y-108366825D01*
X187624416Y-108366824D01*
X187421963Y-108242760D01*
X187202594Y-108151895D01*
X187202592Y-108151894D01*
X187044651Y-108113976D01*
X186971711Y-108096465D01*
X186735000Y-108077835D01*
X186498289Y-108096465D01*
X186267407Y-108151894D01*
X186048038Y-108242759D01*
X185845582Y-108366825D01*
X185845580Y-108366826D01*
X185665030Y-108521030D01*
X185510826Y-108701580D01*
X185510825Y-108701582D01*
X185510824Y-108701584D01*
X185467466Y-108772336D01*
X185414820Y-108819966D01*
X185360035Y-108832500D01*
X178134290Y-108832500D01*
X178063902Y-108846502D01*
X177987752Y-108861649D01*
X177987746Y-108861651D01*
X177930576Y-108885331D01*
X177930576Y-108885332D01*
X177892048Y-108901291D01*
X177849715Y-108918826D01*
X177839404Y-108925716D01*
X177827758Y-108933498D01*
X177725485Y-109001834D01*
X177725479Y-109001839D01*
X173471724Y-113255595D01*
X173409412Y-113289621D01*
X173382629Y-113292500D01*
X167963000Y-113292500D01*
X167894879Y-113272498D01*
X167848386Y-113218842D01*
X167837000Y-113166500D01*
X167837000Y-113002367D01*
X167836999Y-113002350D01*
X167830490Y-112941803D01*
X167830488Y-112941795D01*
X167801424Y-112863875D01*
X167779389Y-112804796D01*
X167779388Y-112804794D01*
X167779387Y-112804792D01*
X167691761Y-112687738D01*
X167574707Y-112600112D01*
X167574702Y-112600110D01*
X167437704Y-112549011D01*
X167437696Y-112549009D01*
X167377149Y-112542500D01*
X167377138Y-112542500D01*
X167363000Y-112542500D01*
X167294879Y-112522498D01*
X167248386Y-112468842D01*
X167237000Y-112416500D01*
X167237000Y-111748000D01*
X167257002Y-111679879D01*
X167310658Y-111633386D01*
X167363000Y-111622000D01*
X167440632Y-111622000D01*
X167440638Y-111622000D01*
X167440645Y-111621999D01*
X167440649Y-111621999D01*
X167501196Y-111615490D01*
X167501199Y-111615489D01*
X167501201Y-111615489D01*
X167638204Y-111564389D01*
X167640760Y-111562476D01*
X167755261Y-111476761D01*
X167842887Y-111359707D01*
X167842887Y-111359706D01*
X167842889Y-111359704D01*
X167893989Y-111222701D01*
X167900064Y-111166200D01*
X167900499Y-111162149D01*
X167900500Y-111162132D01*
X167900500Y-110937500D01*
X169431000Y-110937500D01*
X169431000Y-112117097D01*
X169437505Y-112177593D01*
X169488555Y-112314464D01*
X169488555Y-112314465D01*
X169576095Y-112431404D01*
X169693034Y-112518944D01*
X169829906Y-112569994D01*
X169890402Y-112576499D01*
X169890415Y-112576500D01*
X170860000Y-112576500D01*
X170860000Y-110937500D01*
X171368000Y-110937500D01*
X171368000Y-112576500D01*
X172337585Y-112576500D01*
X172337597Y-112576499D01*
X172398093Y-112569994D01*
X172534964Y-112518944D01*
X172534965Y-112518944D01*
X172651904Y-112431404D01*
X172739444Y-112314465D01*
X172739444Y-112314464D01*
X172790494Y-112177593D01*
X172796999Y-112117097D01*
X172797000Y-112117085D01*
X172797000Y-110937500D01*
X171368000Y-110937500D01*
X170860000Y-110937500D01*
X169431000Y-110937500D01*
X167900500Y-110937500D01*
X167900500Y-109064867D01*
X167900499Y-109064850D01*
X167893990Y-109004303D01*
X167893988Y-109004295D01*
X167856593Y-108904037D01*
X167842889Y-108867296D01*
X167842888Y-108867294D01*
X167842887Y-108867292D01*
X167755261Y-108750238D01*
X167638207Y-108662612D01*
X167638202Y-108662610D01*
X167501204Y-108611511D01*
X167501196Y-108611509D01*
X167440649Y-108605000D01*
X167440638Y-108605000D01*
X165643362Y-108605000D01*
X165643350Y-108605000D01*
X165582803Y-108611509D01*
X165582795Y-108611511D01*
X165445797Y-108662610D01*
X165445792Y-108662612D01*
X165328738Y-108750238D01*
X165241112Y-108867292D01*
X165241110Y-108867297D01*
X165190011Y-109004295D01*
X165190009Y-109004303D01*
X165183500Y-109064850D01*
X165183500Y-111162149D01*
X165190009Y-111222696D01*
X165190011Y-111222704D01*
X165241110Y-111359702D01*
X165241112Y-111359707D01*
X165328738Y-111476761D01*
X165445792Y-111564387D01*
X165445794Y-111564388D01*
X165445796Y-111564389D01*
X165494954Y-111582724D01*
X165582795Y-111615488D01*
X165582798Y-111615488D01*
X165582799Y-111615489D01*
X165582804Y-111615490D01*
X165607465Y-111618141D01*
X165673059Y-111645308D01*
X165713551Y-111703625D01*
X165720000Y-111743419D01*
X165720000Y-112416500D01*
X165699998Y-112484621D01*
X165646342Y-112531114D01*
X165594000Y-112542500D01*
X165579850Y-112542500D01*
X165519303Y-112549009D01*
X165519295Y-112549011D01*
X165382297Y-112600110D01*
X165382292Y-112600112D01*
X165265238Y-112687738D01*
X165177612Y-112804792D01*
X165177610Y-112804797D01*
X165126511Y-112941795D01*
X165126509Y-112941803D01*
X165120000Y-113002350D01*
X165120000Y-115099649D01*
X151541219Y-115099649D01*
X151533543Y-115011913D01*
X151474284Y-114790757D01*
X151377523Y-114583251D01*
X151246198Y-114395700D01*
X151084300Y-114233802D01*
X150896749Y-114102477D01*
X150857543Y-114084195D01*
X150804258Y-114037279D01*
X150784796Y-113969002D01*
X150805337Y-113901042D01*
X150857543Y-113855805D01*
X150859997Y-113854660D01*
X150896749Y-113837523D01*
X151084300Y-113706198D01*
X151246198Y-113544300D01*
X151377523Y-113356749D01*
X151474284Y-113149243D01*
X151505431Y-113033000D01*
X152413000Y-113033000D01*
X152413000Y-114212597D01*
X152419505Y-114273093D01*
X152470555Y-114409964D01*
X152470555Y-114409965D01*
X152558095Y-114526904D01*
X152675034Y-114614444D01*
X152811906Y-114665494D01*
X152872402Y-114671999D01*
X152872415Y-114672000D01*
X153842000Y-114672000D01*
X153842000Y-113033000D01*
X154350000Y-113033000D01*
X154350000Y-114672000D01*
X155319585Y-114672000D01*
X155319597Y-114671999D01*
X155380093Y-114665494D01*
X155516964Y-114614444D01*
X155516965Y-114614444D01*
X155633904Y-114526904D01*
X155721444Y-114409965D01*
X155721444Y-114409964D01*
X155772494Y-114273093D01*
X155778999Y-114212597D01*
X155779000Y-114212585D01*
X155779000Y-113033000D01*
X154350000Y-113033000D01*
X153842000Y-113033000D01*
X152413000Y-113033000D01*
X151505431Y-113033000D01*
X151533543Y-112928087D01*
X151553498Y-112700000D01*
X151538188Y-112525000D01*
X152413000Y-112525000D01*
X153842000Y-112525000D01*
X153842000Y-110886000D01*
X154350000Y-110886000D01*
X154350000Y-112525000D01*
X155779000Y-112525000D01*
X155779000Y-111345414D01*
X155778999Y-111345402D01*
X155772494Y-111284906D01*
X155721444Y-111148035D01*
X155721444Y-111148034D01*
X155633904Y-111031095D01*
X155516965Y-110943555D01*
X155380093Y-110892505D01*
X155319597Y-110886000D01*
X154350000Y-110886000D01*
X153842000Y-110886000D01*
X152872402Y-110886000D01*
X152811906Y-110892505D01*
X152675035Y-110943555D01*
X152675034Y-110943555D01*
X152558095Y-111031095D01*
X152470555Y-111148034D01*
X152470555Y-111148035D01*
X152419505Y-111284906D01*
X152413000Y-111345402D01*
X152413000Y-112525000D01*
X151538188Y-112525000D01*
X151533543Y-112471913D01*
X151474284Y-112250757D01*
X151377523Y-112043251D01*
X151246198Y-111855700D01*
X151084300Y-111693802D01*
X150896749Y-111562477D01*
X150857543Y-111544195D01*
X150804258Y-111497279D01*
X150784796Y-111429002D01*
X150805337Y-111361042D01*
X150857543Y-111315805D01*
X150859997Y-111314660D01*
X150896749Y-111297523D01*
X151084300Y-111166198D01*
X151246198Y-111004300D01*
X151377523Y-110816749D01*
X151474284Y-110609243D01*
X151533543Y-110388087D01*
X151553498Y-110160000D01*
X151533543Y-109931913D01*
X151474284Y-109710757D01*
X151377523Y-109503251D01*
X151246198Y-109315700D01*
X151084300Y-109153802D01*
X151045612Y-109126712D01*
X151001285Y-109071256D01*
X150993976Y-109000637D01*
X151026007Y-108937276D01*
X151087208Y-108901291D01*
X151117884Y-108897500D01*
X152286500Y-108897500D01*
X152354621Y-108917502D01*
X152401114Y-108971158D01*
X152412500Y-109023500D01*
X152412500Y-109072649D01*
X152419009Y-109133196D01*
X152419011Y-109133204D01*
X152470110Y-109270202D01*
X152470112Y-109270207D01*
X152557738Y-109387261D01*
X152674792Y-109474887D01*
X152674794Y-109474888D01*
X152674796Y-109474889D01*
X152733875Y-109496924D01*
X152811795Y-109525988D01*
X152811803Y-109525990D01*
X152872350Y-109532499D01*
X152872355Y-109532499D01*
X152872362Y-109532500D01*
X152872368Y-109532500D01*
X155319632Y-109532500D01*
X155319638Y-109532500D01*
X155319645Y-109532499D01*
X155319649Y-109532499D01*
X155380196Y-109525990D01*
X155380199Y-109525989D01*
X155380201Y-109525989D01*
X155517204Y-109474889D01*
X155634261Y-109387261D01*
X155694039Y-109307407D01*
X155721887Y-109270207D01*
X155721887Y-109270206D01*
X155721889Y-109270204D01*
X155772989Y-109133201D01*
X155779500Y-109072638D01*
X155779500Y-106205362D01*
X155777727Y-106188866D01*
X155772990Y-106144803D01*
X155772988Y-106144795D01*
X155736493Y-106046951D01*
X155721889Y-106007796D01*
X155721888Y-106007794D01*
X155721887Y-106007792D01*
X155634261Y-105890738D01*
X155517207Y-105803112D01*
X155517202Y-105803110D01*
X155380204Y-105752011D01*
X155380196Y-105752009D01*
X155319649Y-105745500D01*
X155319638Y-105745500D01*
X152872362Y-105745500D01*
X152872350Y-105745500D01*
X152811803Y-105752009D01*
X152811795Y-105752011D01*
X152674797Y-105803110D01*
X152674792Y-105803112D01*
X152557738Y-105890738D01*
X152470112Y-106007792D01*
X152470110Y-106007797D01*
X152419011Y-106144795D01*
X152419009Y-106144803D01*
X152412500Y-106205350D01*
X152412500Y-106254500D01*
X152392498Y-106322621D01*
X152338842Y-106369114D01*
X152286500Y-106380500D01*
X151063615Y-106380500D01*
X150995494Y-106360498D01*
X150949001Y-106306842D01*
X150938897Y-106236568D01*
X150968391Y-106171988D01*
X150991344Y-106151287D01*
X151017983Y-106132633D01*
X151084300Y-106086198D01*
X151246198Y-105924300D01*
X151377523Y-105736749D01*
X151474284Y-105529243D01*
X151533543Y-105308087D01*
X151553498Y-105080000D01*
X151533543Y-104851913D01*
X151474284Y-104630757D01*
X151377523Y-104423251D01*
X151246198Y-104235700D01*
X151084300Y-104073802D01*
X151049300Y-104049295D01*
X150896749Y-103942477D01*
X150856951Y-103923919D01*
X150803666Y-103877002D01*
X150784205Y-103808725D01*
X150804747Y-103740765D01*
X150856951Y-103695529D01*
X150896498Y-103677087D01*
X151083974Y-103545815D01*
X151083980Y-103545810D01*
X151245810Y-103383980D01*
X151245815Y-103383974D01*
X151377087Y-103196498D01*
X151473811Y-102989073D01*
X151473813Y-102989068D01*
X151526082Y-102794000D01*
X150670703Y-102794000D01*
X150705925Y-102732993D01*
X150740000Y-102605826D01*
X150740000Y-102474174D01*
X150705925Y-102347007D01*
X150670703Y-102286000D01*
X151526082Y-102286000D01*
X151473813Y-102090931D01*
X151473811Y-102090926D01*
X151377087Y-101883501D01*
X151245815Y-101696025D01*
X151245810Y-101696019D01*
X151083980Y-101534189D01*
X151083974Y-101534184D01*
X150896497Y-101402911D01*
X150856949Y-101384469D01*
X150803665Y-101337551D01*
X150784205Y-101269273D01*
X150804748Y-101201314D01*
X150856950Y-101156081D01*
X150896749Y-101137523D01*
X150904883Y-101131827D01*
X150941360Y-101106287D01*
X151008633Y-101083599D01*
X151013630Y-101083500D01*
X152032500Y-101083500D01*
X152100621Y-101103502D01*
X152147114Y-101157158D01*
X152158500Y-101209500D01*
X152158500Y-101258649D01*
X152165009Y-101319196D01*
X152165011Y-101319204D01*
X152216110Y-101456202D01*
X152216112Y-101456207D01*
X152303738Y-101573261D01*
X152420792Y-101660887D01*
X152420794Y-101660888D01*
X152420796Y-101660889D01*
X152447591Y-101670883D01*
X152557795Y-101711988D01*
X152557803Y-101711990D01*
X152618350Y-101718499D01*
X152618355Y-101718499D01*
X152618362Y-101718500D01*
X153243629Y-101718500D01*
X153311750Y-101738502D01*
X153332724Y-101755405D01*
X156096874Y-104519555D01*
X156127612Y-104569713D01*
X156182473Y-104738556D01*
X156182476Y-104738561D01*
X156277958Y-104903941D01*
X156277965Y-104903951D01*
X156405744Y-105045864D01*
X156405747Y-105045866D01*
X156560248Y-105158118D01*
X156734712Y-105235794D01*
X156921513Y-105275500D01*
X157112487Y-105275500D01*
X157299288Y-105235794D01*
X157473752Y-105158118D01*
X157628253Y-105045866D01*
X157628255Y-105045864D01*
X157756034Y-104903951D01*
X157756035Y-104903949D01*
X157756040Y-104903944D01*
X157851527Y-104738556D01*
X157910542Y-104556928D01*
X157930504Y-104367000D01*
X157910542Y-104177072D01*
X157851527Y-103995444D01*
X157756040Y-103830056D01*
X157756038Y-103830054D01*
X157756034Y-103830048D01*
X157628255Y-103688135D01*
X157473752Y-103575882D01*
X157299288Y-103498206D01*
X157236227Y-103484801D01*
X157173754Y-103451072D01*
X157173331Y-103450650D01*
X155421364Y-101698683D01*
X155387338Y-101636371D01*
X155392403Y-101565556D01*
X155409587Y-101534086D01*
X155467889Y-101456204D01*
X155518989Y-101319201D01*
X155519603Y-101313498D01*
X155525499Y-101258649D01*
X155525500Y-101258632D01*
X155525500Y-98391367D01*
X155525499Y-98391350D01*
X155518990Y-98330803D01*
X155518988Y-98330795D01*
X155479872Y-98225924D01*
X155467889Y-98193796D01*
X155467888Y-98193794D01*
X155467887Y-98193792D01*
X155380261Y-98076738D01*
X155263207Y-97989112D01*
X155263202Y-97989110D01*
X155126204Y-97938011D01*
X155126196Y-97938009D01*
X155065649Y-97931500D01*
X155065638Y-97931500D01*
X152618362Y-97931500D01*
X152618350Y-97931500D01*
X152557803Y-97938009D01*
X152557795Y-97938011D01*
X152420797Y-97989110D01*
X152420792Y-97989112D01*
X152303738Y-98076738D01*
X152216112Y-98193792D01*
X152216110Y-98193797D01*
X152165011Y-98330795D01*
X152165009Y-98330803D01*
X152158500Y-98391350D01*
X152158500Y-98440500D01*
X152138498Y-98508621D01*
X152084842Y-98555114D01*
X152032500Y-98566500D01*
X151624500Y-98566500D01*
X151556379Y-98546498D01*
X151509886Y-98492842D01*
X151498500Y-98440500D01*
X151498500Y-96601957D01*
X151498500Y-96601954D01*
X151467512Y-96406300D01*
X151428369Y-96285831D01*
X151426608Y-96280412D01*
X151406301Y-96217910D01*
X151406300Y-96217909D01*
X151406299Y-96217904D01*
X151316367Y-96041403D01*
X151248379Y-95947826D01*
X151199930Y-95881142D01*
X151199928Y-95881139D01*
X151056712Y-95737923D01*
X151056681Y-95737894D01*
X150257787Y-94939000D01*
X152159000Y-94939000D01*
X152159000Y-96118597D01*
X152165505Y-96179093D01*
X152216555Y-96315964D01*
X152216555Y-96315965D01*
X152304095Y-96432904D01*
X152421034Y-96520444D01*
X152557906Y-96571494D01*
X152618402Y-96577999D01*
X152618415Y-96578000D01*
X153588000Y-96578000D01*
X153588000Y-94939000D01*
X154096000Y-94939000D01*
X154096000Y-96578000D01*
X155065585Y-96578000D01*
X155065597Y-96577999D01*
X155126093Y-96571494D01*
X155262964Y-96520444D01*
X155262965Y-96520444D01*
X155379904Y-96432904D01*
X155467444Y-96315965D01*
X155467444Y-96315964D01*
X155518494Y-96179093D01*
X155524999Y-96118597D01*
X155525000Y-96118585D01*
X155525000Y-94939000D01*
X154096000Y-94939000D01*
X153588000Y-94939000D01*
X152159000Y-94939000D01*
X150257787Y-94939000D01*
X149749787Y-94431000D01*
X152159000Y-94431000D01*
X153588000Y-94431000D01*
X153588000Y-92792000D01*
X154096000Y-92792000D01*
X154096000Y-94431000D01*
X155525000Y-94431000D01*
X155525000Y-93251414D01*
X155524999Y-93251402D01*
X155518494Y-93190906D01*
X155467444Y-93054035D01*
X155467444Y-93054034D01*
X155379904Y-92937095D01*
X155262965Y-92849555D01*
X155126093Y-92798505D01*
X155065597Y-92792000D01*
X154096000Y-92792000D01*
X153588000Y-92792000D01*
X152618402Y-92792000D01*
X152557906Y-92798505D01*
X152421035Y-92849555D01*
X152421034Y-92849555D01*
X152304095Y-92937095D01*
X152216555Y-93054034D01*
X152216555Y-93054035D01*
X152165505Y-93190906D01*
X152159000Y-93251402D01*
X152159000Y-94431000D01*
X149749787Y-94431000D01*
X147451382Y-92132595D01*
X147417356Y-92070283D01*
X147422421Y-91999468D01*
X147464968Y-91942632D01*
X147531488Y-91917821D01*
X147540477Y-91917500D01*
X147566705Y-91917500D01*
X156791913Y-91917500D01*
X156860034Y-91937502D01*
X156865971Y-91941562D01*
X156877748Y-91950118D01*
X157052212Y-92027794D01*
X157115269Y-92041197D01*
X157177743Y-92074925D01*
X157178168Y-92075349D01*
X157872595Y-92769776D01*
X157906621Y-92832088D01*
X157909500Y-92858871D01*
X157909500Y-98726707D01*
X157924772Y-98803484D01*
X157938649Y-98873247D01*
X157995826Y-99011284D01*
X158078834Y-99135515D01*
X161190334Y-102247015D01*
X161190335Y-102247016D01*
X161295984Y-102352665D01*
X161401220Y-102422981D01*
X161420216Y-102435674D01*
X161420218Y-102435675D01*
X161483771Y-102461999D01*
X161483772Y-102462000D01*
X161483773Y-102462000D01*
X161558253Y-102492851D01*
X161631522Y-102507424D01*
X161631523Y-102507425D01*
X161646098Y-102510324D01*
X161704794Y-102522000D01*
X161704795Y-102522000D01*
X161704799Y-102522000D01*
X163886206Y-102522000D01*
X164032746Y-102492851D01*
X164170784Y-102435674D01*
X164197885Y-102417565D01*
X164249032Y-102399266D01*
X164248822Y-102398208D01*
X164263599Y-102395268D01*
X164377285Y-102372655D01*
X164492575Y-102324900D01*
X164596333Y-102255571D01*
X164941999Y-101909905D01*
X165004311Y-101875879D01*
X165031094Y-101873000D01*
X166311904Y-101873000D01*
X166380025Y-101893002D01*
X166426518Y-101946658D01*
X166436622Y-102016932D01*
X166407128Y-102081512D01*
X166401000Y-102088095D01*
X165947667Y-102541429D01*
X165859427Y-102629669D01*
X165859426Y-102629671D01*
X165790101Y-102733423D01*
X165749356Y-102831790D01*
X165742345Y-102848715D01*
X165740881Y-102856077D01*
X165718000Y-102971103D01*
X165718000Y-103022614D01*
X165697998Y-103090735D01*
X165696766Y-103092615D01*
X165679325Y-103118716D01*
X165622150Y-103256750D01*
X165622149Y-103256753D01*
X165593000Y-103403290D01*
X165593000Y-104520223D01*
X165572998Y-104588344D01*
X165519342Y-104634837D01*
X165511034Y-104638278D01*
X165445795Y-104662611D01*
X165445792Y-104662612D01*
X165328738Y-104750238D01*
X165241112Y-104867292D01*
X165241110Y-104867297D01*
X165190011Y-105004295D01*
X165190009Y-105004303D01*
X165183500Y-105064850D01*
X165183500Y-107162149D01*
X165190009Y-107222696D01*
X165190011Y-107222704D01*
X165241110Y-107359702D01*
X165241112Y-107359707D01*
X165328738Y-107476761D01*
X165445792Y-107564387D01*
X165445794Y-107564388D01*
X165445796Y-107564389D01*
X165504875Y-107586424D01*
X165582795Y-107615488D01*
X165582803Y-107615490D01*
X165643350Y-107621999D01*
X165643355Y-107621999D01*
X165643362Y-107622000D01*
X165643368Y-107622000D01*
X167440632Y-107622000D01*
X167440638Y-107622000D01*
X167440645Y-107621999D01*
X167440649Y-107621999D01*
X167501196Y-107615490D01*
X167501199Y-107615489D01*
X167501201Y-107615489D01*
X167638204Y-107564389D01*
X167731183Y-107494786D01*
X167755261Y-107476761D01*
X167842887Y-107359707D01*
X167842887Y-107359706D01*
X167842889Y-107359704D01*
X167893989Y-107222701D01*
X167895333Y-107210207D01*
X167900499Y-107162149D01*
X167900500Y-107162132D01*
X167900500Y-105389220D01*
X167920502Y-105321099D01*
X167974158Y-105274606D01*
X168044432Y-105264502D01*
X168052681Y-105265970D01*
X168086464Y-105273151D01*
X168097512Y-105275500D01*
X168097513Y-105275500D01*
X168288491Y-105275500D01*
X168425302Y-105246419D01*
X168496093Y-105251820D01*
X168552726Y-105294636D01*
X168577220Y-105361274D01*
X168577500Y-105369665D01*
X168577500Y-107210209D01*
X168597945Y-107312993D01*
X168606649Y-107356749D01*
X168663826Y-107494786D01*
X168746834Y-107619017D01*
X169576483Y-108448666D01*
X169576486Y-108448668D01*
X169576491Y-108448672D01*
X169599880Y-108464300D01*
X169700709Y-108531671D01*
X169700711Y-108531672D01*
X169700714Y-108531674D01*
X169771468Y-108560981D01*
X169803120Y-108574092D01*
X169858401Y-108618640D01*
X169880822Y-108686004D01*
X169863264Y-108754795D01*
X169811302Y-108803173D01*
X169798935Y-108808557D01*
X169693033Y-108848056D01*
X169576095Y-108935595D01*
X169488555Y-109052534D01*
X169488555Y-109052535D01*
X169437505Y-109189406D01*
X169431000Y-109249902D01*
X169431000Y-110429500D01*
X172797000Y-110429500D01*
X172797000Y-109249914D01*
X172796999Y-109249902D01*
X172790494Y-109189406D01*
X172739444Y-109052535D01*
X172739444Y-109052534D01*
X172651904Y-108935595D01*
X172530707Y-108844868D01*
X172488160Y-108788032D01*
X172483096Y-108717216D01*
X172517121Y-108654904D01*
X172579433Y-108620879D01*
X172606216Y-108618000D01*
X176649706Y-108618000D01*
X176745576Y-108598930D01*
X176796247Y-108588851D01*
X176934284Y-108531674D01*
X177058515Y-108448666D01*
X180852776Y-104654405D01*
X180915088Y-104620379D01*
X180941871Y-104617500D01*
X186212167Y-104617500D01*
X186212168Y-104617500D01*
X186296154Y-104600794D01*
X186358709Y-104588351D01*
X186496746Y-104531174D01*
X186620977Y-104448166D01*
X189974176Y-101094968D01*
X190057185Y-100970736D01*
X190091026Y-100889036D01*
X190114362Y-100832699D01*
X190143511Y-100686157D01*
X190143511Y-100536747D01*
X190143511Y-87828805D01*
X190114362Y-87682265D01*
X190057185Y-87544227D01*
X189974176Y-87419995D01*
X189868527Y-87314346D01*
X188645207Y-86091026D01*
X188611181Y-86028714D01*
X188615576Y-85959738D01*
X188673538Y-85796653D01*
X188729442Y-85527630D01*
X188748193Y-85253500D01*
X188746252Y-85225129D01*
X188729443Y-84979383D01*
X188729442Y-84979377D01*
X188729442Y-84979370D01*
X188673538Y-84710347D01*
X188615576Y-84547261D01*
X188611612Y-84476376D01*
X188645205Y-84415974D01*
X190753165Y-82308016D01*
X190836173Y-82183785D01*
X190836174Y-82183784D01*
X190893351Y-82045746D01*
X190894688Y-82039022D01*
X190898845Y-82018132D01*
X190922499Y-81899210D01*
X190922500Y-81899203D01*
X190922500Y-76669793D01*
X190922499Y-76669790D01*
X190914645Y-76630305D01*
X190893351Y-76523254D01*
X190836174Y-76385216D01*
X190753165Y-76260984D01*
X190647516Y-76155335D01*
X189377515Y-74885334D01*
X189253284Y-74802326D01*
X189115247Y-74745149D01*
X189041976Y-74730574D01*
X189041975Y-74730573D01*
X188968711Y-74716000D01*
X188968706Y-74716000D01*
X187956553Y-74716000D01*
X187888432Y-74695998D01*
X187867458Y-74679096D01*
X187718181Y-74529819D01*
X187542097Y-74406524D01*
X187353154Y-74318418D01*
X187299870Y-74271502D01*
X187280409Y-74203224D01*
X187300951Y-74135265D01*
X187353156Y-74090029D01*
X187541843Y-74002043D01*
X187541844Y-74002042D01*
X187595947Y-73964157D01*
X187595947Y-73964156D01*
X186966291Y-73334500D01*
X186978161Y-73334500D01*
X187079894Y-73307241D01*
X187171106Y-73254580D01*
X187245580Y-73180106D01*
X187298241Y-73088894D01*
X187325500Y-72987161D01*
X187325500Y-72975291D01*
X187955156Y-73604947D01*
X187955157Y-73604947D01*
X187993041Y-73550846D01*
X188083849Y-73356108D01*
X188083851Y-73356103D01*
X188139463Y-73148552D01*
X188158190Y-72934500D01*
X188139463Y-72720447D01*
X188083851Y-72512896D01*
X188083849Y-72512892D01*
X187993041Y-72318154D01*
X187955158Y-72264051D01*
X187955157Y-72264051D01*
X187325500Y-72893708D01*
X187325500Y-72881839D01*
X187298241Y-72780106D01*
X187245580Y-72688894D01*
X187171106Y-72614420D01*
X187079894Y-72561759D01*
X186978161Y-72534500D01*
X186966290Y-72534500D01*
X187595947Y-71904841D01*
X187595947Y-71904840D01*
X187541844Y-71866957D01*
X187541845Y-71866957D01*
X187347108Y-71776150D01*
X187347103Y-71776148D01*
X187139552Y-71720536D01*
X186925500Y-71701809D01*
X186711447Y-71720536D01*
X186503896Y-71776148D01*
X186503892Y-71776150D01*
X186309153Y-71866959D01*
X186255050Y-71904841D01*
X186884709Y-72534500D01*
X186872839Y-72534500D01*
X186771106Y-72561759D01*
X186679894Y-72614420D01*
X186605420Y-72688894D01*
X186552759Y-72780106D01*
X186525500Y-72881839D01*
X186525500Y-72893709D01*
X185895841Y-72264050D01*
X185857959Y-72318153D01*
X185767150Y-72512892D01*
X185767148Y-72512896D01*
X185711536Y-72720447D01*
X185692809Y-72934500D01*
X185711536Y-73148552D01*
X185767148Y-73356103D01*
X185767150Y-73356108D01*
X185857957Y-73550845D01*
X185895841Y-73604947D01*
X186525500Y-72975288D01*
X186525500Y-72987161D01*
X186552759Y-73088894D01*
X186605420Y-73180106D01*
X186679894Y-73254580D01*
X186771106Y-73307241D01*
X186872839Y-73334500D01*
X186884710Y-73334500D01*
X186255051Y-73964157D01*
X186255051Y-73964158D01*
X186309155Y-74002042D01*
X186309154Y-74002042D01*
X186497844Y-74090029D01*
X186551129Y-74136946D01*
X186570590Y-74205223D01*
X186550048Y-74273183D01*
X186497844Y-74318419D01*
X186308900Y-74406525D01*
X186132823Y-74529814D01*
X186132813Y-74529823D01*
X185980823Y-74681813D01*
X185980814Y-74681823D01*
X185857525Y-74857900D01*
X185766679Y-75052720D01*
X185766678Y-75052723D01*
X185711042Y-75260358D01*
X185692307Y-75474500D01*
X185711042Y-75688642D01*
X185737531Y-75787498D01*
X185766677Y-75896274D01*
X185766679Y-75896280D01*
X185857524Y-76091097D01*
X185976482Y-76260988D01*
X185980819Y-76267181D01*
X186132819Y-76419181D01*
X186308903Y-76542476D01*
X186473977Y-76619451D01*
X186497253Y-76630305D01*
X186550538Y-76677222D01*
X186569999Y-76745500D01*
X186549457Y-76813459D01*
X186497253Y-76858695D01*
X186308900Y-76946525D01*
X186132823Y-77069814D01*
X186132813Y-77069823D01*
X185983542Y-77219095D01*
X185921230Y-77253121D01*
X185894447Y-77256000D01*
X177512871Y-77256000D01*
X177444750Y-77235998D01*
X177423776Y-77219095D01*
X165559405Y-65354724D01*
X165525379Y-65292412D01*
X165522500Y-65265629D01*
X165522500Y-64489004D01*
X184722308Y-64489004D01*
X184741052Y-64763048D01*
X184741053Y-64763054D01*
X184796942Y-65032011D01*
X184796944Y-65032019D01*
X184888938Y-65290865D01*
X185015314Y-65534756D01*
X185015316Y-65534759D01*
X185145541Y-65719248D01*
X186055764Y-64809024D01*
X186070359Y-64844258D01*
X186152437Y-64967097D01*
X186256903Y-65071563D01*
X186379742Y-65153641D01*
X186414973Y-65168234D01*
X185505715Y-66077492D01*
X185505715Y-66077494D01*
X185574313Y-66133304D01*
X185574318Y-66133307D01*
X185809030Y-66276038D01*
X186060989Y-66385480D01*
X186325509Y-66459595D01*
X186597635Y-66496999D01*
X186597649Y-66497000D01*
X186872351Y-66497000D01*
X186872364Y-66496999D01*
X187144490Y-66459595D01*
X187409010Y-66385480D01*
X187660969Y-66276038D01*
X187895679Y-66133309D01*
X187964283Y-66077493D01*
X187964283Y-66077492D01*
X187055025Y-65168234D01*
X187090258Y-65153641D01*
X187213097Y-65071563D01*
X187317563Y-64967097D01*
X187399641Y-64844258D01*
X187414235Y-64809025D01*
X188324457Y-65719247D01*
X188454682Y-65534762D01*
X188454685Y-65534756D01*
X188581061Y-65290865D01*
X188673055Y-65032019D01*
X188673057Y-65032011D01*
X188728946Y-64763054D01*
X188728947Y-64763048D01*
X188747692Y-64489004D01*
X188747692Y-64488995D01*
X188728947Y-64214951D01*
X188728946Y-64214945D01*
X188673057Y-63945988D01*
X188673055Y-63945980D01*
X188581061Y-63687134D01*
X188454685Y-63443243D01*
X188454681Y-63443237D01*
X188324457Y-63258750D01*
X187414234Y-64168973D01*
X187399641Y-64133742D01*
X187317563Y-64010903D01*
X187213097Y-63906437D01*
X187090258Y-63824359D01*
X187055024Y-63809764D01*
X187964283Y-62900504D01*
X187895680Y-62844691D01*
X187660969Y-62701961D01*
X187409010Y-62592519D01*
X187144490Y-62518404D01*
X186872364Y-62481000D01*
X186597635Y-62481000D01*
X186325509Y-62518404D01*
X186060989Y-62592519D01*
X185809030Y-62701961D01*
X185574325Y-62844687D01*
X185505715Y-62900505D01*
X185505714Y-62900505D01*
X186414974Y-63809765D01*
X186379742Y-63824359D01*
X186256903Y-63906437D01*
X186152437Y-64010903D01*
X186070359Y-64133742D01*
X186055765Y-64168974D01*
X185145541Y-63258750D01*
X185015317Y-63443236D01*
X184888938Y-63687134D01*
X184796944Y-63945980D01*
X184796942Y-63945988D01*
X184741053Y-64214945D01*
X184741052Y-64214951D01*
X184722308Y-64488995D01*
X184722308Y-64489004D01*
X165522500Y-64489004D01*
X165522500Y-61527189D01*
X165542502Y-61459068D01*
X165593831Y-61413666D01*
X165620646Y-61400754D01*
X165832219Y-61256505D01*
X166019931Y-61082334D01*
X166179587Y-60882131D01*
X166307622Y-60660369D01*
X166401174Y-60422001D01*
X166458155Y-60172353D01*
X166477291Y-59917000D01*
X166458155Y-59661647D01*
X166401174Y-59411999D01*
X166396013Y-59398849D01*
X166307625Y-59173637D01*
X166307623Y-59173633D01*
X166179589Y-58951872D01*
X166179587Y-58951869D01*
X166019931Y-58751666D01*
X165832219Y-58577495D01*
X165815966Y-58566414D01*
X165620647Y-58433247D01*
X165620646Y-58433246D01*
X165620643Y-58433245D01*
X165620641Y-58433243D01*
X165620640Y-58433242D01*
X165389936Y-58322142D01*
X165389929Y-58322139D01*
X165145253Y-58246667D01*
X165145245Y-58246665D01*
X165145243Y-58246665D01*
X164892034Y-58208500D01*
X164635966Y-58208500D01*
X164382757Y-58246665D01*
X164382755Y-58246665D01*
X164382746Y-58246667D01*
X164138073Y-58322138D01*
X164138055Y-58322145D01*
X163907360Y-58433242D01*
X163907352Y-58433247D01*
X163795355Y-58509606D01*
X163727804Y-58531453D01*
X163724377Y-58531500D01*
X162460058Y-58531500D01*
X162391937Y-58511498D01*
X162345444Y-58457842D01*
X162342003Y-58449533D01*
X162311978Y-58369035D01*
X162311889Y-58368796D01*
X162311888Y-58368794D01*
X162311887Y-58368792D01*
X162224261Y-58251738D01*
X162107207Y-58164112D01*
X162107202Y-58164110D01*
X161970204Y-58113011D01*
X161970196Y-58113009D01*
X161909649Y-58106500D01*
X161909638Y-58106500D01*
X161417500Y-58106500D01*
X161349379Y-58086498D01*
X161302886Y-58032842D01*
X161291500Y-57980500D01*
X161291500Y-56699755D01*
X161311502Y-56631634D01*
X161341991Y-56598887D01*
X161396261Y-56558261D01*
X161483887Y-56441207D01*
X161483887Y-56441206D01*
X161483889Y-56441204D01*
X161534989Y-56304201D01*
X161535457Y-56299856D01*
X161541499Y-56243649D01*
X161541500Y-56243632D01*
X161541500Y-54446367D01*
X161541499Y-54446350D01*
X161534990Y-54385803D01*
X161534988Y-54385795D01*
X161483978Y-54249035D01*
X161483889Y-54248796D01*
X161483888Y-54248794D01*
X161483887Y-54248792D01*
X161400955Y-54138009D01*
X161376144Y-54071489D01*
X161391235Y-54002115D01*
X161441437Y-53951913D01*
X161501823Y-53936500D01*
X163682522Y-53936500D01*
X163750643Y-53956502D01*
X163771617Y-53973405D01*
X165841559Y-56043347D01*
X165841560Y-56043348D01*
X165981632Y-56183420D01*
X166141892Y-56299856D01*
X166318393Y-56389788D01*
X166506790Y-56451002D01*
X166702444Y-56481990D01*
X166702447Y-56481990D01*
X173165799Y-56481990D01*
X173233920Y-56501992D01*
X173261609Y-56526159D01*
X173287950Y-56557000D01*
X174181562Y-56557000D01*
X174157482Y-56598708D01*
X174120000Y-56738591D01*
X174120000Y-56883409D01*
X174157482Y-57023292D01*
X174181562Y-57065000D01*
X173287951Y-57065000D01*
X173290204Y-57079233D01*
X173290206Y-57079239D01*
X173345923Y-57250717D01*
X173427783Y-57411376D01*
X173533763Y-57557245D01*
X173661254Y-57684736D01*
X173807123Y-57790716D01*
X173967782Y-57872576D01*
X174139257Y-57928292D01*
X174317350Y-57956500D01*
X174416000Y-57956500D01*
X174416000Y-57299438D01*
X174457708Y-57323518D01*
X174597591Y-57361000D01*
X174742409Y-57361000D01*
X174882292Y-57323518D01*
X174924000Y-57299438D01*
X174924000Y-57956500D01*
X175022650Y-57956500D01*
X175200742Y-57928292D01*
X175372217Y-57872576D01*
X175532876Y-57790716D01*
X175678745Y-57684736D01*
X175806236Y-57557245D01*
X175912216Y-57411376D01*
X175994076Y-57250717D01*
X176049793Y-57079239D01*
X176049795Y-57079233D01*
X176052049Y-57065000D01*
X175158438Y-57065000D01*
X175182518Y-57023292D01*
X175220000Y-56883409D01*
X175220000Y-56738591D01*
X175182518Y-56598708D01*
X175158438Y-56557000D01*
X176052049Y-56557000D01*
X176049795Y-56542766D01*
X176049793Y-56542760D01*
X175994076Y-56371282D01*
X175912216Y-56210623D01*
X175806236Y-56064754D01*
X175791930Y-56050448D01*
X175757904Y-55988136D01*
X175762969Y-55917321D01*
X175791930Y-55872258D01*
X175806620Y-55857569D01*
X175912647Y-55711635D01*
X175994540Y-55550911D01*
X176050282Y-55379356D01*
X176050972Y-55375000D01*
X177940000Y-55375000D01*
X177940000Y-56554597D01*
X177946505Y-56615093D01*
X177997555Y-56751964D01*
X177997555Y-56751965D01*
X178085095Y-56868904D01*
X178202034Y-56956444D01*
X178338906Y-57007494D01*
X178399402Y-57013999D01*
X178399415Y-57014000D01*
X179369000Y-57014000D01*
X179369000Y-55375000D01*
X179877000Y-55375000D01*
X179877000Y-57014000D01*
X180846585Y-57014000D01*
X180846597Y-57013999D01*
X180907093Y-57007494D01*
X181043964Y-56956444D01*
X181043965Y-56956444D01*
X181160904Y-56868904D01*
X181248444Y-56751965D01*
X181248444Y-56751964D01*
X181299494Y-56615093D01*
X181305999Y-56554597D01*
X181306000Y-56554585D01*
X181306000Y-55375000D01*
X179877000Y-55375000D01*
X179369000Y-55375000D01*
X177940000Y-55375000D01*
X176050972Y-55375000D01*
X176078500Y-55201192D01*
X176078500Y-55020808D01*
X176054140Y-54867000D01*
X177940000Y-54867000D01*
X179369000Y-54867000D01*
X179369000Y-53228000D01*
X179877000Y-53228000D01*
X179877000Y-54867000D01*
X181306000Y-54867000D01*
X181306000Y-53687414D01*
X181305999Y-53687402D01*
X181299494Y-53626906D01*
X181248444Y-53490035D01*
X181248444Y-53490034D01*
X181160904Y-53373095D01*
X181043965Y-53285555D01*
X180907093Y-53234505D01*
X180846597Y-53228000D01*
X179877000Y-53228000D01*
X179369000Y-53228000D01*
X178399402Y-53228000D01*
X178338906Y-53234505D01*
X178202035Y-53285555D01*
X178202034Y-53285555D01*
X178085095Y-53373095D01*
X177997555Y-53490034D01*
X177997555Y-53490035D01*
X177946505Y-53626906D01*
X177940000Y-53687402D01*
X177940000Y-54867000D01*
X176054140Y-54867000D01*
X176050282Y-54842644D01*
X175994540Y-54671089D01*
X175912647Y-54510365D01*
X175806620Y-54364431D01*
X175791930Y-54349741D01*
X175757905Y-54287433D01*
X175762968Y-54216617D01*
X175791932Y-54171548D01*
X175806237Y-54157242D01*
X175912216Y-54011376D01*
X175994076Y-53850717D01*
X176049793Y-53679239D01*
X176049795Y-53679233D01*
X176052049Y-53665000D01*
X175158438Y-53665000D01*
X175182518Y-53623292D01*
X175220000Y-53483409D01*
X175220000Y-53338591D01*
X175182518Y-53198708D01*
X175158438Y-53157000D01*
X176052049Y-53157000D01*
X176049795Y-53142766D01*
X176049793Y-53142760D01*
X175994076Y-52971282D01*
X175912216Y-52810623D01*
X175806236Y-52664754D01*
X175791930Y-52650448D01*
X175757904Y-52588136D01*
X175762969Y-52517321D01*
X175791930Y-52472258D01*
X175806620Y-52457569D01*
X175912647Y-52311635D01*
X175994540Y-52150911D01*
X176050282Y-51979356D01*
X176078500Y-51801192D01*
X176078500Y-51620808D01*
X176050282Y-51442644D01*
X175994540Y-51271089D01*
X175926718Y-51137982D01*
X175913615Y-51068207D01*
X175938116Y-51005274D01*
X176020889Y-50894704D01*
X176071989Y-50757701D01*
X176078500Y-50697138D01*
X176078500Y-50125500D01*
X176098502Y-50057379D01*
X176152158Y-50010886D01*
X176204500Y-49999500D01*
X176509522Y-49999500D01*
X176577643Y-50019502D01*
X176598612Y-50036400D01*
X177503142Y-50940930D01*
X177663402Y-51057367D01*
X177839904Y-51147299D01*
X177852433Y-51151369D01*
X177911039Y-51191440D01*
X177938678Y-51256836D01*
X177939500Y-51271203D01*
X177939500Y-51414649D01*
X177946009Y-51475196D01*
X177946011Y-51475204D01*
X177997110Y-51612202D01*
X177997112Y-51612207D01*
X178084738Y-51729261D01*
X178201792Y-51816887D01*
X178201794Y-51816888D01*
X178201796Y-51816889D01*
X178260875Y-51838924D01*
X178338795Y-51867988D01*
X178338803Y-51867990D01*
X178399350Y-51874499D01*
X178399355Y-51874499D01*
X178399362Y-51874500D01*
X179774480Y-51874500D01*
X179831682Y-51888232D01*
X179931903Y-51939298D01*
X180120300Y-52000512D01*
X180315954Y-52031500D01*
X184761815Y-52031500D01*
X184829936Y-52051502D01*
X184862683Y-52081991D01*
X184940738Y-52186261D01*
X185038345Y-52259329D01*
X185080892Y-52316165D01*
X185085956Y-52386981D01*
X185070269Y-52426032D01*
X184961518Y-52603496D01*
X184867671Y-52830064D01*
X184810423Y-53068521D01*
X184791182Y-53313000D01*
X184810423Y-53557478D01*
X184867671Y-53795935D01*
X184961518Y-54022503D01*
X185084538Y-54223251D01*
X185829016Y-53478772D01*
X185841482Y-53525292D01*
X185913890Y-53650708D01*
X186016292Y-53753110D01*
X186141708Y-53825518D01*
X186188226Y-53837982D01*
X185443747Y-54582460D01*
X185443747Y-54582462D01*
X185644491Y-54705479D01*
X185871064Y-54799328D01*
X186109521Y-54856576D01*
X186354000Y-54875817D01*
X186598478Y-54856576D01*
X186836935Y-54799328D01*
X187063508Y-54705479D01*
X187264251Y-54582462D01*
X187264252Y-54582461D01*
X186519773Y-53837982D01*
X186566292Y-53825518D01*
X186691708Y-53753110D01*
X186794110Y-53650708D01*
X186866518Y-53525292D01*
X186878982Y-53478773D01*
X187623461Y-54223252D01*
X187623462Y-54223251D01*
X187746479Y-54022508D01*
X187840328Y-53795935D01*
X187897576Y-53557478D01*
X187916817Y-53313000D01*
X187897576Y-53068521D01*
X187840328Y-52830064D01*
X187746479Y-52603491D01*
X187637731Y-52426032D01*
X187619192Y-52357499D01*
X187640648Y-52289822D01*
X187669654Y-52259329D01*
X187767261Y-52186261D01*
X187854887Y-52069207D01*
X187854887Y-52069206D01*
X187854889Y-52069204D01*
X187905989Y-51932201D01*
X187907387Y-51919204D01*
X187912499Y-51871649D01*
X187912500Y-51871632D01*
X187912500Y-49674367D01*
X187912499Y-49674350D01*
X187905990Y-49613803D01*
X187905988Y-49613795D01*
X187865989Y-49506556D01*
X187854889Y-49476796D01*
X187854888Y-49476794D01*
X187854887Y-49476792D01*
X187767261Y-49359738D01*
X187650207Y-49272112D01*
X187650202Y-49272110D01*
X187513204Y-49221011D01*
X187513196Y-49221009D01*
X187452649Y-49214500D01*
X187452638Y-49214500D01*
X185255362Y-49214500D01*
X185255350Y-49214500D01*
X185194803Y-49221009D01*
X185194795Y-49221011D01*
X185057797Y-49272110D01*
X185057792Y-49272112D01*
X184940738Y-49359738D01*
X184862683Y-49464009D01*
X184805847Y-49506556D01*
X184761815Y-49514500D01*
X181432500Y-49514500D01*
X181364379Y-49494498D01*
X181317886Y-49440842D01*
X181306500Y-49388500D01*
X181306500Y-48547367D01*
X181306499Y-48547350D01*
X181299990Y-48486803D01*
X181299988Y-48486795D01*
X181248889Y-48349797D01*
X181248887Y-48349792D01*
X181161261Y-48232738D01*
X181044207Y-48145112D01*
X181044202Y-48145110D01*
X180907204Y-48094011D01*
X180907196Y-48094009D01*
X180846649Y-48087500D01*
X180846638Y-48087500D01*
X178399362Y-48087500D01*
X178399350Y-48087500D01*
X178338804Y-48094009D01*
X178338802Y-48094010D01*
X178325077Y-48099129D01*
X178254261Y-48104190D01*
X178191955Y-48070167D01*
X177902858Y-47781070D01*
X177742594Y-47664630D01*
X177742585Y-47664625D01*
X177742176Y-47664419D01*
X177566097Y-47574702D01*
X177377700Y-47513488D01*
X177182046Y-47482500D01*
X175205954Y-47482500D01*
X175010300Y-47513488D01*
X175010297Y-47513488D01*
X175010296Y-47513489D01*
X174949087Y-47533377D01*
X174821908Y-47574699D01*
X174821902Y-47574702D01*
X174645399Y-47664635D01*
X174485141Y-47781070D01*
X174273629Y-47992583D01*
X173850142Y-48416070D01*
X173780106Y-48486106D01*
X173710070Y-48556141D01*
X173593636Y-48716398D01*
X173503702Y-48892903D01*
X173496831Y-48914048D01*
X173456755Y-48972652D01*
X173452510Y-48975974D01*
X173406737Y-49010240D01*
X173319112Y-49127292D01*
X173319110Y-49127297D01*
X173268011Y-49264295D01*
X173268009Y-49264303D01*
X173261500Y-49324850D01*
X173261500Y-50326500D01*
X173241498Y-50394621D01*
X173187842Y-50441114D01*
X173135500Y-50452500D01*
X167131478Y-50452500D01*
X167063357Y-50432498D01*
X167042383Y-50415595D01*
X166504963Y-49878175D01*
X166470937Y-49815863D01*
X166468410Y-49798496D01*
X166465810Y-49763799D01*
X166458155Y-49661647D01*
X166401174Y-49411999D01*
X166391951Y-49388500D01*
X166307625Y-49173637D01*
X166307623Y-49173633D01*
X166179589Y-48951872D01*
X166179587Y-48951869D01*
X166019931Y-48751666D01*
X165832219Y-48577495D01*
X165788022Y-48547362D01*
X165620647Y-48433247D01*
X165620646Y-48433246D01*
X165620643Y-48433245D01*
X165620641Y-48433243D01*
X165620640Y-48433242D01*
X165389936Y-48322142D01*
X165389929Y-48322139D01*
X165145253Y-48246667D01*
X165145245Y-48246665D01*
X165145243Y-48246665D01*
X164892034Y-48208500D01*
X164635966Y-48208500D01*
X164382757Y-48246665D01*
X164382755Y-48246665D01*
X164382746Y-48246667D01*
X164138073Y-48322138D01*
X164138060Y-48322143D01*
X163907352Y-48433247D01*
X163907345Y-48433251D01*
X163695787Y-48577490D01*
X163695774Y-48577500D01*
X163644727Y-48624865D01*
X163581186Y-48656536D01*
X163559026Y-48658500D01*
X155614954Y-48658500D01*
X155419300Y-48689488D01*
X155419297Y-48689488D01*
X155419296Y-48689489D01*
X155358087Y-48709377D01*
X155230908Y-48750699D01*
X155230904Y-48750701D01*
X155054402Y-48840633D01*
X154901301Y-48951869D01*
X154894138Y-48957073D01*
X154723920Y-49127292D01*
X154523615Y-49327596D01*
X154461305Y-49361620D01*
X154434522Y-49364500D01*
X153909350Y-49364500D01*
X153848803Y-49371009D01*
X153848795Y-49371011D01*
X153711797Y-49422110D01*
X153711792Y-49422112D01*
X153594738Y-49509738D01*
X153507112Y-49626792D01*
X153507110Y-49626797D01*
X153456011Y-49763795D01*
X153456009Y-49763803D01*
X153449500Y-49824350D01*
X153449500Y-51721649D01*
X153456009Y-51782196D01*
X153456011Y-51782204D01*
X153507110Y-51919202D01*
X153507112Y-51919207D01*
X153594738Y-52036261D01*
X153711792Y-52123887D01*
X153711794Y-52123888D01*
X153711796Y-52123889D01*
X153770875Y-52145924D01*
X153848795Y-52174988D01*
X153848803Y-52174990D01*
X153909350Y-52181499D01*
X153909355Y-52181499D01*
X153909362Y-52181500D01*
X153909368Y-52181500D01*
X155806632Y-52181500D01*
X155806638Y-52181500D01*
X155806645Y-52181499D01*
X155806649Y-52181499D01*
X155867196Y-52174990D01*
X155867199Y-52174989D01*
X155867201Y-52174989D01*
X156004204Y-52123889D01*
X156077251Y-52069207D01*
X156121261Y-52036261D01*
X156208887Y-51919207D01*
X156208887Y-51919206D01*
X156208889Y-51919204D01*
X156259989Y-51782201D01*
X156265681Y-51729261D01*
X156266499Y-51721649D01*
X156266500Y-51721632D01*
X156266500Y-51301500D01*
X156286502Y-51233379D01*
X156340158Y-51186886D01*
X156392500Y-51175500D01*
X157746528Y-51175500D01*
X157814649Y-51195502D01*
X157861142Y-51249158D01*
X157871246Y-51319432D01*
X157841752Y-51384012D01*
X157782026Y-51422396D01*
X157766246Y-51425947D01*
X157611300Y-51450488D01*
X157611297Y-51450488D01*
X157611296Y-51450489D01*
X157422903Y-51511702D01*
X157422901Y-51511703D01*
X157274466Y-51587333D01*
X157274467Y-51587334D01*
X157246399Y-51601635D01*
X157086139Y-51718071D01*
X157086136Y-51718074D01*
X155669773Y-53134439D01*
X155213142Y-53591070D01*
X155177306Y-53626906D01*
X155073070Y-53731141D01*
X154956634Y-53891401D01*
X154922688Y-53958023D01*
X154873940Y-54009638D01*
X154854456Y-54018874D01*
X154786796Y-54044110D01*
X154771073Y-54055880D01*
X154763742Y-54061368D01*
X154697224Y-54086179D01*
X154688234Y-54086500D01*
X153757766Y-54086500D01*
X153689645Y-54066498D01*
X153682264Y-54061373D01*
X153667279Y-54050156D01*
X153659203Y-54044110D01*
X153522204Y-53993011D01*
X153522196Y-53993009D01*
X153461649Y-53986500D01*
X153461638Y-53986500D01*
X151364362Y-53986500D01*
X151364350Y-53986500D01*
X151303803Y-53993009D01*
X151303795Y-53993011D01*
X151166797Y-54044110D01*
X151166792Y-54044112D01*
X151049738Y-54131738D01*
X150962112Y-54248792D01*
X150962110Y-54248797D01*
X150911011Y-54385795D01*
X150911009Y-54385803D01*
X150904500Y-54446350D01*
X150904500Y-56243649D01*
X150911009Y-56304196D01*
X150911011Y-56304204D01*
X150962110Y-56441202D01*
X150962112Y-56441207D01*
X151049738Y-56558261D01*
X151166792Y-56645887D01*
X151166794Y-56645888D01*
X151166796Y-56645889D01*
X151225875Y-56667924D01*
X151303795Y-56696988D01*
X151303803Y-56696990D01*
X151364350Y-56703499D01*
X151364355Y-56703499D01*
X151364362Y-56703500D01*
X151364368Y-56703500D01*
X153461632Y-56703500D01*
X153461638Y-56703500D01*
X153461645Y-56703499D01*
X153461649Y-56703499D01*
X153522196Y-56696990D01*
X153522199Y-56696989D01*
X153522201Y-56696989D01*
X153659204Y-56645889D01*
X153682257Y-56628631D01*
X153748776Y-56603821D01*
X153757766Y-56603500D01*
X154688234Y-56603500D01*
X154756355Y-56623502D01*
X154763735Y-56628626D01*
X154767754Y-56631634D01*
X154786796Y-56645889D01*
X154923795Y-56696988D01*
X154923803Y-56696990D01*
X154984350Y-56703499D01*
X154984355Y-56703499D01*
X154984362Y-56703500D01*
X154984368Y-56703500D01*
X157081632Y-56703500D01*
X157081638Y-56703500D01*
X157081645Y-56703499D01*
X157081649Y-56703499D01*
X157142196Y-56696990D01*
X157142199Y-56696989D01*
X157142201Y-56696989D01*
X157279204Y-56645889D01*
X157279799Y-56645444D01*
X157396261Y-56558261D01*
X157483887Y-56441207D01*
X157483887Y-56441206D01*
X157483889Y-56441204D01*
X157534989Y-56304201D01*
X157535457Y-56299856D01*
X157541499Y-56243649D01*
X157541500Y-56243632D01*
X157541500Y-54874478D01*
X157561502Y-54806357D01*
X157578405Y-54785383D01*
X158390383Y-53973405D01*
X158452695Y-53939379D01*
X158479478Y-53936500D01*
X158564177Y-53936500D01*
X158632298Y-53956502D01*
X158678791Y-54010158D01*
X158688895Y-54080432D01*
X158665045Y-54138009D01*
X158582112Y-54248792D01*
X158582110Y-54248797D01*
X158531011Y-54385795D01*
X158531009Y-54385803D01*
X158524500Y-54446350D01*
X158524500Y-56243649D01*
X158531009Y-56304196D01*
X158531011Y-56304204D01*
X158582110Y-56441202D01*
X158582112Y-56441207D01*
X158669738Y-56558261D01*
X158724009Y-56598887D01*
X158766556Y-56655722D01*
X158774500Y-56699755D01*
X158774500Y-58153662D01*
X158754498Y-58221783D01*
X158733300Y-58244555D01*
X158734111Y-58245366D01*
X158727740Y-58251736D01*
X158640112Y-58368792D01*
X158640110Y-58368797D01*
X158589011Y-58505795D01*
X158589009Y-58505803D01*
X158582500Y-58566350D01*
X158582500Y-61013649D01*
X158589009Y-61074196D01*
X158589011Y-61074204D01*
X158640110Y-61211202D01*
X158640112Y-61211207D01*
X158727738Y-61328261D01*
X158844792Y-61415887D01*
X158844794Y-61415888D01*
X158844796Y-61415889D01*
X158903875Y-61437924D01*
X158981795Y-61466988D01*
X158981803Y-61466990D01*
X159042350Y-61473499D01*
X159042355Y-61473499D01*
X159042362Y-61473500D01*
X159591500Y-61473500D01*
X159659621Y-61493502D01*
X159706114Y-61547158D01*
X159717500Y-61599500D01*
X159717500Y-62727629D01*
X159697498Y-62795750D01*
X159680595Y-62816724D01*
X157743724Y-64753595D01*
X157681412Y-64787621D01*
X157654629Y-64790500D01*
X156372350Y-64790500D01*
X156311803Y-64797009D01*
X156311795Y-64797011D01*
X156174797Y-64848110D01*
X156174792Y-64848112D01*
X156057738Y-64935738D01*
X155970112Y-65052792D01*
X155970110Y-65052797D01*
X155919011Y-65189795D01*
X155919009Y-65189803D01*
X155912500Y-65250350D01*
X155912500Y-65414500D01*
X155892498Y-65482621D01*
X155838842Y-65529114D01*
X155786500Y-65540500D01*
X150754500Y-65540500D01*
X150686379Y-65520498D01*
X150639886Y-65466842D01*
X150628500Y-65414500D01*
X150628500Y-65250367D01*
X150628499Y-65250350D01*
X150621990Y-65189803D01*
X150621988Y-65189795D01*
X150570889Y-65052797D01*
X150570887Y-65052792D01*
X150483261Y-64935738D01*
X150366207Y-64848112D01*
X150366202Y-64848110D01*
X150229204Y-64797011D01*
X150229196Y-64797009D01*
X150168649Y-64790500D01*
X150168638Y-64790500D01*
X148371362Y-64790500D01*
X148371350Y-64790500D01*
X148310803Y-64797009D01*
X148310795Y-64797011D01*
X148173797Y-64848110D01*
X148173792Y-64848112D01*
X148056738Y-64935738D01*
X147969112Y-65052792D01*
X147969110Y-65052797D01*
X147918011Y-65189795D01*
X147918009Y-65189803D01*
X147911500Y-65250350D01*
X147911500Y-65414500D01*
X147891498Y-65482621D01*
X147837842Y-65529114D01*
X147785500Y-65540500D01*
X142118500Y-65540500D01*
X142050379Y-65520498D01*
X142003886Y-65466842D01*
X141992500Y-65414500D01*
X141992500Y-65250367D01*
X141992499Y-65250350D01*
X141985990Y-65189803D01*
X141985988Y-65189795D01*
X141934889Y-65052797D01*
X141934887Y-65052792D01*
X141847261Y-64935738D01*
X141730207Y-64848112D01*
X141730202Y-64848110D01*
X141593204Y-64797011D01*
X141593196Y-64797009D01*
X141532649Y-64790500D01*
X141532638Y-64790500D01*
X139735362Y-64790500D01*
X139735350Y-64790500D01*
X139674803Y-64797009D01*
X139674795Y-64797011D01*
X139537797Y-64848110D01*
X139537792Y-64848112D01*
X139420738Y-64935738D01*
X139333112Y-65052792D01*
X139333110Y-65052797D01*
X139282011Y-65189795D01*
X139282009Y-65189803D01*
X139275500Y-65250350D01*
X139275500Y-67160500D01*
X139255498Y-67228621D01*
X139201842Y-67275114D01*
X139149500Y-67286500D01*
X136304788Y-67286500D01*
X136231524Y-67301073D01*
X136231524Y-67301074D01*
X136158253Y-67315649D01*
X136158251Y-67315649D01*
X136158250Y-67315650D01*
X136158249Y-67315650D01*
X136101076Y-67339332D01*
X136101075Y-67339331D01*
X136020220Y-67372823D01*
X136020216Y-67372825D01*
X135895986Y-67455833D01*
X135895980Y-67455838D01*
X133504338Y-69847480D01*
X133504333Y-69847486D01*
X133421326Y-69971716D01*
X133377404Y-70077750D01*
X133377405Y-70077751D01*
X133364149Y-70109754D01*
X133335000Y-70256290D01*
X133335000Y-70256294D01*
X133335000Y-77835206D01*
X133345014Y-77885549D01*
X133364149Y-77981747D01*
X133421326Y-78119784D01*
X133504334Y-78244015D01*
X133504338Y-78244019D01*
X135136070Y-79875751D01*
X135170096Y-79938063D01*
X135165031Y-80008878D01*
X135122484Y-80065714D01*
X135055964Y-80090525D01*
X135027266Y-80089295D01*
X134989144Y-80083257D01*
X134978046Y-80081500D01*
X134978045Y-80081500D01*
X131011496Y-80081500D01*
X130943375Y-80061498D01*
X130896882Y-80007842D01*
X130886778Y-79937568D01*
X130897758Y-79904578D01*
X130897296Y-79904406D01*
X130951494Y-79759093D01*
X130957999Y-79698597D01*
X130958000Y-79698585D01*
X130958000Y-79054000D01*
X130030703Y-79054000D01*
X130065925Y-78992993D01*
X130100000Y-78865826D01*
X130100000Y-78734174D01*
X130065925Y-78607007D01*
X130030703Y-78546000D01*
X130958000Y-78546000D01*
X130958000Y-77901414D01*
X130957999Y-77901402D01*
X130951494Y-77840906D01*
X130900444Y-77704035D01*
X130900444Y-77704034D01*
X130812904Y-77587095D01*
X130695965Y-77499555D01*
X130559093Y-77448505D01*
X130498597Y-77442000D01*
X129854000Y-77442000D01*
X129854000Y-78369297D01*
X129792993Y-78334075D01*
X129665826Y-78300000D01*
X129534174Y-78300000D01*
X129407007Y-78334075D01*
X129346000Y-78369297D01*
X129346000Y-77442000D01*
X128701402Y-77442000D01*
X128640906Y-77448505D01*
X128504035Y-77499555D01*
X128504034Y-77499555D01*
X128387095Y-77587095D01*
X128299555Y-77704034D01*
X128299555Y-77704035D01*
X128248505Y-77840906D01*
X128242000Y-77901402D01*
X128242000Y-78546000D01*
X129169297Y-78546000D01*
X129134075Y-78607007D01*
X129100000Y-78734174D01*
X129100000Y-78865826D01*
X129134075Y-78992993D01*
X129169297Y-79054000D01*
X128242000Y-79054000D01*
X128242000Y-79698597D01*
X128248505Y-79759093D01*
X128302704Y-79904406D01*
X128301232Y-79904954D01*
X128314183Y-79964491D01*
X128289371Y-80031011D01*
X128232535Y-80073556D01*
X128188504Y-80081500D01*
X127303454Y-80081500D01*
X127107800Y-80112488D01*
X127107797Y-80112488D01*
X127107796Y-80112489D01*
X127046587Y-80132377D01*
X126919408Y-80173699D01*
X126919402Y-80173702D01*
X126742899Y-80263635D01*
X126582639Y-80380071D01*
X126582636Y-80380074D01*
X125212917Y-81749795D01*
X124828142Y-82134570D01*
X124778929Y-82183783D01*
X124688070Y-82274641D01*
X124571636Y-82434898D01*
X124481703Y-82611401D01*
X124481702Y-82611403D01*
X124440305Y-82738811D01*
X124420488Y-82799800D01*
X124389500Y-82995454D01*
X124389500Y-96401546D01*
X123815287Y-96401546D01*
X123768070Y-60044000D01*
X153443000Y-60044000D01*
X153443000Y-61013597D01*
X153449505Y-61074093D01*
X153500555Y-61210964D01*
X153500555Y-61210965D01*
X153588095Y-61327904D01*
X153705034Y-61415444D01*
X153841906Y-61466494D01*
X153902402Y-61472999D01*
X153902415Y-61473000D01*
X155082000Y-61473000D01*
X155082000Y-60044000D01*
X155590000Y-60044000D01*
X155590000Y-61473000D01*
X156769585Y-61473000D01*
X156769597Y-61472999D01*
X156830093Y-61466494D01*
X156966964Y-61415444D01*
X156966965Y-61415444D01*
X157083904Y-61327904D01*
X157171444Y-61210965D01*
X157171444Y-61210964D01*
X157222494Y-61074093D01*
X157228999Y-61013597D01*
X157229000Y-61013585D01*
X157229000Y-60044000D01*
X155590000Y-60044000D01*
X155082000Y-60044000D01*
X153443000Y-60044000D01*
X123768070Y-60044000D01*
X123767410Y-59536000D01*
X153443000Y-59536000D01*
X155082000Y-59536000D01*
X155082000Y-58107000D01*
X155590000Y-58107000D01*
X155590000Y-59536000D01*
X157229000Y-59536000D01*
X157229000Y-58566414D01*
X157228999Y-58566402D01*
X157222494Y-58505906D01*
X157171444Y-58369035D01*
X157171444Y-58369034D01*
X157083904Y-58252095D01*
X156966965Y-58164555D01*
X156830093Y-58113505D01*
X156769597Y-58107000D01*
X155590000Y-58107000D01*
X155082000Y-58107000D01*
X153902402Y-58107000D01*
X153841906Y-58113505D01*
X153705035Y-58164555D01*
X153705034Y-58164555D01*
X153588095Y-58252095D01*
X153500555Y-58369034D01*
X153500555Y-58369035D01*
X153449505Y-58505906D01*
X153443000Y-58566402D01*
X153443000Y-59536000D01*
X123767410Y-59536000D01*
X123762297Y-55599000D01*
X146905000Y-55599000D01*
X146905000Y-56243597D01*
X146911505Y-56304093D01*
X146962555Y-56440964D01*
X146962555Y-56440965D01*
X147050095Y-56557904D01*
X147167034Y-56645444D01*
X147303906Y-56696494D01*
X147364402Y-56702999D01*
X147364415Y-56703000D01*
X148159000Y-56703000D01*
X148159000Y-55599000D01*
X148667000Y-55599000D01*
X148667000Y-56703000D01*
X149461585Y-56703000D01*
X149461597Y-56702999D01*
X149522093Y-56696494D01*
X149658964Y-56645444D01*
X149658965Y-56645444D01*
X149775904Y-56557904D01*
X149863444Y-56440965D01*
X149863444Y-56440964D01*
X149914494Y-56304093D01*
X149920999Y-56243597D01*
X149921000Y-56243585D01*
X149921000Y-55599000D01*
X148667000Y-55599000D01*
X148159000Y-55599000D01*
X146905000Y-55599000D01*
X123762297Y-55599000D01*
X123761637Y-55091000D01*
X146905000Y-55091000D01*
X148159000Y-55091000D01*
X148159000Y-53987000D01*
X148667000Y-53987000D01*
X148667000Y-55091000D01*
X149921000Y-55091000D01*
X149921000Y-54446414D01*
X149920999Y-54446402D01*
X149914494Y-54385906D01*
X149863444Y-54249035D01*
X149863444Y-54249034D01*
X149775904Y-54132095D01*
X149658965Y-54044555D01*
X149522093Y-53993505D01*
X149461597Y-53987000D01*
X148667000Y-53987000D01*
X148159000Y-53987000D01*
X147364402Y-53987000D01*
X147303906Y-53993505D01*
X147167035Y-54044555D01*
X147167034Y-54044555D01*
X147050095Y-54132095D01*
X146962555Y-54249034D01*
X146962555Y-54249035D01*
X146911505Y-54385906D01*
X146905000Y-54446402D01*
X146905000Y-55091000D01*
X123761637Y-55091000D01*
X123748272Y-44800003D01*
X124286641Y-44800003D01*
X124306064Y-45158237D01*
X124364103Y-45512269D01*
X124460084Y-45857959D01*
X124460085Y-45857961D01*
X124592877Y-46191243D01*
X124760925Y-46508215D01*
X124962258Y-46805159D01*
X125194516Y-47078595D01*
X125454962Y-47325304D01*
X125454977Y-47325317D01*
X125740586Y-47542431D01*
X126047995Y-47727393D01*
X126373599Y-47878033D01*
X126713583Y-47992587D01*
X127063958Y-48069711D01*
X127420618Y-48108500D01*
X127420626Y-48108500D01*
X127779374Y-48108500D01*
X127779382Y-48108500D01*
X128136042Y-48069711D01*
X128486417Y-47992587D01*
X128826401Y-47878033D01*
X129152005Y-47727393D01*
X129459414Y-47542431D01*
X129745023Y-47325317D01*
X130005484Y-47078595D01*
X130237742Y-46805159D01*
X130439075Y-46508215D01*
X130607123Y-46191243D01*
X130739915Y-45857961D01*
X130835895Y-45512274D01*
X130893936Y-45158237D01*
X130913359Y-44800003D01*
X184286641Y-44800003D01*
X184306064Y-45158237D01*
X184364103Y-45512269D01*
X184460084Y-45857959D01*
X184460085Y-45857961D01*
X184592877Y-46191243D01*
X184760925Y-46508215D01*
X184962258Y-46805159D01*
X185194516Y-47078595D01*
X185454962Y-47325304D01*
X185454977Y-47325317D01*
X185740586Y-47542431D01*
X186047995Y-47727393D01*
X186373599Y-47878033D01*
X186713583Y-47992587D01*
X187063958Y-48069711D01*
X187420618Y-48108500D01*
X187420626Y-48108500D01*
X187779374Y-48108500D01*
X187779382Y-48108500D01*
X188136042Y-48069711D01*
X188486417Y-47992587D01*
X188826401Y-47878033D01*
X189152005Y-47727393D01*
X189459414Y-47542431D01*
X189745023Y-47325317D01*
X190005484Y-47078595D01*
X190237742Y-46805159D01*
X190439075Y-46508215D01*
X190607123Y-46191243D01*
X190739915Y-45857961D01*
X190835895Y-45512274D01*
X190893936Y-45158237D01*
X190913359Y-44800000D01*
X190893936Y-44441763D01*
X190835895Y-44087726D01*
X190739915Y-43742039D01*
X190607123Y-43408757D01*
X190439075Y-43091785D01*
X190237742Y-42794841D01*
X190005484Y-42521405D01*
X189911523Y-42432400D01*
X189745037Y-42274695D01*
X189745022Y-42274682D01*
X189459418Y-42057572D01*
X189459412Y-42057568D01*
X189314260Y-41970233D01*
X189152005Y-41872607D01*
X188826401Y-41721967D01*
X188584159Y-41640346D01*
X188486426Y-41607416D01*
X188486425Y-41607415D01*
X188486417Y-41607413D01*
X188438915Y-41596956D01*
X188136054Y-41530291D01*
X188136030Y-41530287D01*
X187779389Y-41491500D01*
X187779382Y-41491500D01*
X187420618Y-41491500D01*
X187420610Y-41491500D01*
X187063969Y-41530287D01*
X187063945Y-41530291D01*
X186713587Y-41607412D01*
X186713573Y-41607416D01*
X186373601Y-41721966D01*
X186373599Y-41721967D01*
X186077035Y-41859172D01*
X186047989Y-41872610D01*
X185740587Y-42057568D01*
X185740581Y-42057572D01*
X185454977Y-42274682D01*
X185454962Y-42274695D01*
X185194516Y-42521404D01*
X184962256Y-42794843D01*
X184760924Y-43091785D01*
X184760922Y-43091789D01*
X184592876Y-43408759D01*
X184592872Y-43408768D01*
X184460084Y-43742040D01*
X184364103Y-44087730D01*
X184306064Y-44441762D01*
X184286641Y-44799996D01*
X184286641Y-44800003D01*
X130913359Y-44800003D01*
X130913359Y-44800000D01*
X130893936Y-44441763D01*
X130835895Y-44087726D01*
X130739915Y-43742039D01*
X130607123Y-43408757D01*
X130439075Y-43091785D01*
X130308364Y-42899000D01*
X153469875Y-42899000D01*
X154485032Y-42899000D01*
X154438667Y-42979306D01*
X154408000Y-43093756D01*
X154408000Y-43212244D01*
X154438667Y-43326694D01*
X154485032Y-43407000D01*
X153469876Y-43407000D01*
X153521724Y-43611743D01*
X153521726Y-43611747D01*
X153615456Y-43825430D01*
X153743081Y-44020776D01*
X153901113Y-44192445D01*
X153901118Y-44192450D01*
X154085250Y-44335766D01*
X154290474Y-44446827D01*
X154290477Y-44446829D01*
X154511167Y-44522592D01*
X154511176Y-44522594D01*
X154603999Y-44538083D01*
X154604000Y-44538083D01*
X154604000Y-43525968D01*
X154684306Y-43572333D01*
X154798756Y-43603000D01*
X154917244Y-43603000D01*
X155031694Y-43572333D01*
X155112000Y-43525968D01*
X155112000Y-44538083D01*
X155204823Y-44522594D01*
X155204832Y-44522592D01*
X155425522Y-44446829D01*
X155425525Y-44446827D01*
X155630749Y-44335766D01*
X155814881Y-44192450D01*
X155814886Y-44192445D01*
X155972918Y-44020776D01*
X156100543Y-43825430D01*
X156194273Y-43611747D01*
X156194275Y-43611743D01*
X156246124Y-43407000D01*
X155230968Y-43407000D01*
X155277333Y-43326694D01*
X155308000Y-43212244D01*
X155308000Y-43093756D01*
X155277333Y-42979306D01*
X155230968Y-42899000D01*
X156246124Y-42899000D01*
X156194275Y-42694256D01*
X156194273Y-42694252D01*
X156100543Y-42480569D01*
X155972918Y-42285223D01*
X155814886Y-42113554D01*
X155814881Y-42113549D01*
X155630749Y-41970233D01*
X155425525Y-41859172D01*
X155425522Y-41859170D01*
X155204828Y-41783406D01*
X155204817Y-41783403D01*
X155112000Y-41767914D01*
X155112000Y-42780031D01*
X155031694Y-42733667D01*
X154917244Y-42703000D01*
X154798756Y-42703000D01*
X154684306Y-42733667D01*
X154604000Y-42780031D01*
X154604000Y-41767914D01*
X154603999Y-41767914D01*
X154511182Y-41783403D01*
X154511171Y-41783406D01*
X154290477Y-41859170D01*
X154290474Y-41859172D01*
X154085250Y-41970233D01*
X153901118Y-42113549D01*
X153901113Y-42113554D01*
X153743081Y-42285223D01*
X153615456Y-42480569D01*
X153521726Y-42694252D01*
X153521724Y-42694256D01*
X153469875Y-42899000D01*
X130308364Y-42899000D01*
X130237742Y-42794841D01*
X130005484Y-42521405D01*
X129911523Y-42432400D01*
X129745037Y-42274695D01*
X129745022Y-42274682D01*
X129459418Y-42057572D01*
X129459412Y-42057568D01*
X129314260Y-41970233D01*
X129152005Y-41872607D01*
X128826401Y-41721967D01*
X128584159Y-41640346D01*
X128486426Y-41607416D01*
X128486425Y-41607415D01*
X128486417Y-41607413D01*
X128438915Y-41596956D01*
X128136054Y-41530291D01*
X128136030Y-41530287D01*
X127779389Y-41491500D01*
X127779382Y-41491500D01*
X127420618Y-41491500D01*
X127420610Y-41491500D01*
X127063969Y-41530287D01*
X127063945Y-41530291D01*
X126713587Y-41607412D01*
X126713573Y-41607416D01*
X126373601Y-41721966D01*
X126373599Y-41721967D01*
X126077035Y-41859172D01*
X126047989Y-41872610D01*
X125740587Y-42057568D01*
X125740581Y-42057572D01*
X125454977Y-42274682D01*
X125454962Y-42274695D01*
X125194516Y-42521404D01*
X124962256Y-42794843D01*
X124760924Y-43091785D01*
X124760922Y-43091789D01*
X124592876Y-43408759D01*
X124592872Y-43408768D01*
X124460084Y-43742040D01*
X124364103Y-44087730D01*
X124306064Y-44441762D01*
X124286641Y-44799996D01*
X124286641Y-44800003D01*
X123748272Y-44800003D01*
X123744257Y-41708491D01*
X123764171Y-41640346D01*
X123774096Y-41626912D01*
X123936787Y-41434822D01*
X123943817Y-41427186D01*
X124227180Y-41143823D01*
X124234815Y-41136793D01*
X124540647Y-40877767D01*
X124548830Y-40871400D01*
X124700016Y-40763455D01*
X124767078Y-40740150D01*
X124773231Y-40740000D01*
X190426769Y-40740000D01*
X190494890Y-40760002D01*
G37*
%TD.AperFunction*%
%TD*%
M02*
