%TF.GenerationSoftware,KiCad,Pcbnew,8.0.1*%
%TF.CreationDate,2024-04-21T18:12:41-04:00*%
%TF.ProjectId,BREAD_Slice,42524541-445f-4536-9c69-63652e6b6963,rev?*%
%TF.SameCoordinates,Original*%
%TF.FileFunction,Legend,Bot*%
%TF.FilePolarity,Positive*%
%FSLAX46Y46*%
G04 Gerber Fmt 4.6, Leading zero omitted, Abs format (unit mm)*
G04 Created by KiCad (PCBNEW 8.0.1) date 2024-04-21 18:12:41*
%MOMM*%
%LPD*%
G01*
G04 APERTURE LIST*
%ADD10C,0.150000*%
%ADD11C,0.120000*%
G04 APERTURE END LIST*
D10*
X154455580Y-115042333D02*
X154503200Y-114994714D01*
X154503200Y-114994714D02*
X154550819Y-114851857D01*
X154550819Y-114851857D02*
X154550819Y-114756619D01*
X154550819Y-114756619D02*
X154503200Y-114613762D01*
X154503200Y-114613762D02*
X154407961Y-114518524D01*
X154407961Y-114518524D02*
X154312723Y-114470905D01*
X154312723Y-114470905D02*
X154122247Y-114423286D01*
X154122247Y-114423286D02*
X153979390Y-114423286D01*
X153979390Y-114423286D02*
X153788914Y-114470905D01*
X153788914Y-114470905D02*
X153693676Y-114518524D01*
X153693676Y-114518524D02*
X153598438Y-114613762D01*
X153598438Y-114613762D02*
X153550819Y-114756619D01*
X153550819Y-114756619D02*
X153550819Y-114851857D01*
X153550819Y-114851857D02*
X153598438Y-114994714D01*
X153598438Y-114994714D02*
X153646057Y-115042333D01*
X153646057Y-115423286D02*
X153598438Y-115470905D01*
X153598438Y-115470905D02*
X153550819Y-115566143D01*
X153550819Y-115566143D02*
X153550819Y-115804238D01*
X153550819Y-115804238D02*
X153598438Y-115899476D01*
X153598438Y-115899476D02*
X153646057Y-115947095D01*
X153646057Y-115947095D02*
X153741295Y-115994714D01*
X153741295Y-115994714D02*
X153836533Y-115994714D01*
X153836533Y-115994714D02*
X153979390Y-115947095D01*
X153979390Y-115947095D02*
X154550819Y-115375667D01*
X154550819Y-115375667D02*
X154550819Y-115994714D01*
X154201580Y-92088333D02*
X154249200Y-92040714D01*
X154249200Y-92040714D02*
X154296819Y-91897857D01*
X154296819Y-91897857D02*
X154296819Y-91802619D01*
X154296819Y-91802619D02*
X154249200Y-91659762D01*
X154249200Y-91659762D02*
X154153961Y-91564524D01*
X154153961Y-91564524D02*
X154058723Y-91516905D01*
X154058723Y-91516905D02*
X153868247Y-91469286D01*
X153868247Y-91469286D02*
X153725390Y-91469286D01*
X153725390Y-91469286D02*
X153534914Y-91516905D01*
X153534914Y-91516905D02*
X153439676Y-91564524D01*
X153439676Y-91564524D02*
X153344438Y-91659762D01*
X153344438Y-91659762D02*
X153296819Y-91802619D01*
X153296819Y-91802619D02*
X153296819Y-91897857D01*
X153296819Y-91897857D02*
X153344438Y-92040714D01*
X153344438Y-92040714D02*
X153392057Y-92088333D01*
X154296819Y-93040714D02*
X154296819Y-92469286D01*
X154296819Y-92755000D02*
X153296819Y-92755000D01*
X153296819Y-92755000D02*
X153439676Y-92659762D01*
X153439676Y-92659762D02*
X153534914Y-92564524D01*
X153534914Y-92564524D02*
X153582533Y-92469286D01*
X158072666Y-58049580D02*
X158120285Y-58097200D01*
X158120285Y-58097200D02*
X158263142Y-58144819D01*
X158263142Y-58144819D02*
X158358380Y-58144819D01*
X158358380Y-58144819D02*
X158501237Y-58097200D01*
X158501237Y-58097200D02*
X158596475Y-58001961D01*
X158596475Y-58001961D02*
X158644094Y-57906723D01*
X158644094Y-57906723D02*
X158691713Y-57716247D01*
X158691713Y-57716247D02*
X158691713Y-57573390D01*
X158691713Y-57573390D02*
X158644094Y-57382914D01*
X158644094Y-57382914D02*
X158596475Y-57287676D01*
X158596475Y-57287676D02*
X158501237Y-57192438D01*
X158501237Y-57192438D02*
X158358380Y-57144819D01*
X158358380Y-57144819D02*
X158263142Y-57144819D01*
X158263142Y-57144819D02*
X158120285Y-57192438D01*
X158120285Y-57192438D02*
X158072666Y-57240057D01*
X157739332Y-57144819D02*
X157120285Y-57144819D01*
X157120285Y-57144819D02*
X157453618Y-57525771D01*
X157453618Y-57525771D02*
X157310761Y-57525771D01*
X157310761Y-57525771D02*
X157215523Y-57573390D01*
X157215523Y-57573390D02*
X157167904Y-57621009D01*
X157167904Y-57621009D02*
X157120285Y-57716247D01*
X157120285Y-57716247D02*
X157120285Y-57954342D01*
X157120285Y-57954342D02*
X157167904Y-58049580D01*
X157167904Y-58049580D02*
X157215523Y-58097200D01*
X157215523Y-58097200D02*
X157310761Y-58144819D01*
X157310761Y-58144819D02*
X157596475Y-58144819D01*
X157596475Y-58144819D02*
X157691713Y-58097200D01*
X157691713Y-58097200D02*
X157739332Y-58049580D01*
X177882580Y-52384333D02*
X177930200Y-52336714D01*
X177930200Y-52336714D02*
X177977819Y-52193857D01*
X177977819Y-52193857D02*
X177977819Y-52098619D01*
X177977819Y-52098619D02*
X177930200Y-51955762D01*
X177930200Y-51955762D02*
X177834961Y-51860524D01*
X177834961Y-51860524D02*
X177739723Y-51812905D01*
X177739723Y-51812905D02*
X177549247Y-51765286D01*
X177549247Y-51765286D02*
X177406390Y-51765286D01*
X177406390Y-51765286D02*
X177215914Y-51812905D01*
X177215914Y-51812905D02*
X177120676Y-51860524D01*
X177120676Y-51860524D02*
X177025438Y-51955762D01*
X177025438Y-51955762D02*
X176977819Y-52098619D01*
X176977819Y-52098619D02*
X176977819Y-52193857D01*
X176977819Y-52193857D02*
X177025438Y-52336714D01*
X177025438Y-52336714D02*
X177073057Y-52384333D01*
X177311152Y-53241476D02*
X177977819Y-53241476D01*
X176930200Y-53003381D02*
X177644485Y-52765286D01*
X177644485Y-52765286D02*
X177644485Y-53384333D01*
X169373580Y-107946833D02*
X169421200Y-107899214D01*
X169421200Y-107899214D02*
X169468819Y-107756357D01*
X169468819Y-107756357D02*
X169468819Y-107661119D01*
X169468819Y-107661119D02*
X169421200Y-107518262D01*
X169421200Y-107518262D02*
X169325961Y-107423024D01*
X169325961Y-107423024D02*
X169230723Y-107375405D01*
X169230723Y-107375405D02*
X169040247Y-107327786D01*
X169040247Y-107327786D02*
X168897390Y-107327786D01*
X168897390Y-107327786D02*
X168706914Y-107375405D01*
X168706914Y-107375405D02*
X168611676Y-107423024D01*
X168611676Y-107423024D02*
X168516438Y-107518262D01*
X168516438Y-107518262D02*
X168468819Y-107661119D01*
X168468819Y-107661119D02*
X168468819Y-107756357D01*
X168468819Y-107756357D02*
X168516438Y-107899214D01*
X168516438Y-107899214D02*
X168564057Y-107946833D01*
X168468819Y-108851595D02*
X168468819Y-108375405D01*
X168468819Y-108375405D02*
X168945009Y-108327786D01*
X168945009Y-108327786D02*
X168897390Y-108375405D01*
X168897390Y-108375405D02*
X168849771Y-108470643D01*
X168849771Y-108470643D02*
X168849771Y-108708738D01*
X168849771Y-108708738D02*
X168897390Y-108803976D01*
X168897390Y-108803976D02*
X168945009Y-108851595D01*
X168945009Y-108851595D02*
X169040247Y-108899214D01*
X169040247Y-108899214D02*
X169278342Y-108899214D01*
X169278342Y-108899214D02*
X169373580Y-108851595D01*
X169373580Y-108851595D02*
X169421200Y-108803976D01*
X169421200Y-108803976D02*
X169468819Y-108708738D01*
X169468819Y-108708738D02*
X169468819Y-108470643D01*
X169468819Y-108470643D02*
X169421200Y-108375405D01*
X169421200Y-108375405D02*
X169373580Y-108327786D01*
X180549580Y-97342333D02*
X180597200Y-97294714D01*
X180597200Y-97294714D02*
X180644819Y-97151857D01*
X180644819Y-97151857D02*
X180644819Y-97056619D01*
X180644819Y-97056619D02*
X180597200Y-96913762D01*
X180597200Y-96913762D02*
X180501961Y-96818524D01*
X180501961Y-96818524D02*
X180406723Y-96770905D01*
X180406723Y-96770905D02*
X180216247Y-96723286D01*
X180216247Y-96723286D02*
X180073390Y-96723286D01*
X180073390Y-96723286D02*
X179882914Y-96770905D01*
X179882914Y-96770905D02*
X179787676Y-96818524D01*
X179787676Y-96818524D02*
X179692438Y-96913762D01*
X179692438Y-96913762D02*
X179644819Y-97056619D01*
X179644819Y-97056619D02*
X179644819Y-97151857D01*
X179644819Y-97151857D02*
X179692438Y-97294714D01*
X179692438Y-97294714D02*
X179740057Y-97342333D01*
X179644819Y-98199476D02*
X179644819Y-98009000D01*
X179644819Y-98009000D02*
X179692438Y-97913762D01*
X179692438Y-97913762D02*
X179740057Y-97866143D01*
X179740057Y-97866143D02*
X179882914Y-97770905D01*
X179882914Y-97770905D02*
X180073390Y-97723286D01*
X180073390Y-97723286D02*
X180454342Y-97723286D01*
X180454342Y-97723286D02*
X180549580Y-97770905D01*
X180549580Y-97770905D02*
X180597200Y-97818524D01*
X180597200Y-97818524D02*
X180644819Y-97913762D01*
X180644819Y-97913762D02*
X180644819Y-98104238D01*
X180644819Y-98104238D02*
X180597200Y-98199476D01*
X180597200Y-98199476D02*
X180549580Y-98247095D01*
X180549580Y-98247095D02*
X180454342Y-98294714D01*
X180454342Y-98294714D02*
X180216247Y-98294714D01*
X180216247Y-98294714D02*
X180121009Y-98247095D01*
X180121009Y-98247095D02*
X180073390Y-98199476D01*
X180073390Y-98199476D02*
X180025771Y-98104238D01*
X180025771Y-98104238D02*
X180025771Y-97913762D01*
X180025771Y-97913762D02*
X180073390Y-97818524D01*
X180073390Y-97818524D02*
X180121009Y-97770905D01*
X180121009Y-97770905D02*
X180216247Y-97723286D01*
X143388819Y-68132333D02*
X142912628Y-67799000D01*
X143388819Y-67560905D02*
X142388819Y-67560905D01*
X142388819Y-67560905D02*
X142388819Y-67941857D01*
X142388819Y-67941857D02*
X142436438Y-68037095D01*
X142436438Y-68037095D02*
X142484057Y-68084714D01*
X142484057Y-68084714D02*
X142579295Y-68132333D01*
X142579295Y-68132333D02*
X142722152Y-68132333D01*
X142722152Y-68132333D02*
X142817390Y-68084714D01*
X142817390Y-68084714D02*
X142865009Y-68037095D01*
X142865009Y-68037095D02*
X142912628Y-67941857D01*
X142912628Y-67941857D02*
X142912628Y-67560905D01*
X143388819Y-69084714D02*
X143388819Y-68513286D01*
X143388819Y-68799000D02*
X142388819Y-68799000D01*
X142388819Y-68799000D02*
X142531676Y-68703762D01*
X142531676Y-68703762D02*
X142626914Y-68608524D01*
X142626914Y-68608524D02*
X142674533Y-68513286D01*
X152024819Y-68132333D02*
X151548628Y-67799000D01*
X152024819Y-67560905D02*
X151024819Y-67560905D01*
X151024819Y-67560905D02*
X151024819Y-67941857D01*
X151024819Y-67941857D02*
X151072438Y-68037095D01*
X151072438Y-68037095D02*
X151120057Y-68084714D01*
X151120057Y-68084714D02*
X151215295Y-68132333D01*
X151215295Y-68132333D02*
X151358152Y-68132333D01*
X151358152Y-68132333D02*
X151453390Y-68084714D01*
X151453390Y-68084714D02*
X151501009Y-68037095D01*
X151501009Y-68037095D02*
X151548628Y-67941857D01*
X151548628Y-67941857D02*
X151548628Y-67560905D01*
X151120057Y-68513286D02*
X151072438Y-68560905D01*
X151072438Y-68560905D02*
X151024819Y-68656143D01*
X151024819Y-68656143D02*
X151024819Y-68894238D01*
X151024819Y-68894238D02*
X151072438Y-68989476D01*
X151072438Y-68989476D02*
X151120057Y-69037095D01*
X151120057Y-69037095D02*
X151215295Y-69084714D01*
X151215295Y-69084714D02*
X151310533Y-69084714D01*
X151310533Y-69084714D02*
X151453390Y-69037095D01*
X151453390Y-69037095D02*
X152024819Y-68465667D01*
X152024819Y-68465667D02*
X152024819Y-69084714D01*
X160025819Y-68132333D02*
X159549628Y-67799000D01*
X160025819Y-67560905D02*
X159025819Y-67560905D01*
X159025819Y-67560905D02*
X159025819Y-67941857D01*
X159025819Y-67941857D02*
X159073438Y-68037095D01*
X159073438Y-68037095D02*
X159121057Y-68084714D01*
X159121057Y-68084714D02*
X159216295Y-68132333D01*
X159216295Y-68132333D02*
X159359152Y-68132333D01*
X159359152Y-68132333D02*
X159454390Y-68084714D01*
X159454390Y-68084714D02*
X159502009Y-68037095D01*
X159502009Y-68037095D02*
X159549628Y-67941857D01*
X159549628Y-67941857D02*
X159549628Y-67560905D01*
X159025819Y-68465667D02*
X159025819Y-69084714D01*
X159025819Y-69084714D02*
X159406771Y-68751381D01*
X159406771Y-68751381D02*
X159406771Y-68894238D01*
X159406771Y-68894238D02*
X159454390Y-68989476D01*
X159454390Y-68989476D02*
X159502009Y-69037095D01*
X159502009Y-69037095D02*
X159597247Y-69084714D01*
X159597247Y-69084714D02*
X159835342Y-69084714D01*
X159835342Y-69084714D02*
X159930580Y-69037095D01*
X159930580Y-69037095D02*
X159978200Y-68989476D01*
X159978200Y-68989476D02*
X160025819Y-68894238D01*
X160025819Y-68894238D02*
X160025819Y-68608524D01*
X160025819Y-68608524D02*
X159978200Y-68513286D01*
X159978200Y-68513286D02*
X159930580Y-68465667D01*
X158072666Y-53386819D02*
X158405999Y-52910628D01*
X158644094Y-53386819D02*
X158644094Y-52386819D01*
X158644094Y-52386819D02*
X158263142Y-52386819D01*
X158263142Y-52386819D02*
X158167904Y-52434438D01*
X158167904Y-52434438D02*
X158120285Y-52482057D01*
X158120285Y-52482057D02*
X158072666Y-52577295D01*
X158072666Y-52577295D02*
X158072666Y-52720152D01*
X158072666Y-52720152D02*
X158120285Y-52815390D01*
X158120285Y-52815390D02*
X158167904Y-52863009D01*
X158167904Y-52863009D02*
X158263142Y-52910628D01*
X158263142Y-52910628D02*
X158644094Y-52910628D01*
X157215523Y-52720152D02*
X157215523Y-53386819D01*
X157453618Y-52339200D02*
X157691713Y-53053485D01*
X157691713Y-53053485D02*
X157072666Y-53053485D01*
X150579666Y-58099819D02*
X150912999Y-57623628D01*
X151151094Y-58099819D02*
X151151094Y-57099819D01*
X151151094Y-57099819D02*
X150770142Y-57099819D01*
X150770142Y-57099819D02*
X150674904Y-57147438D01*
X150674904Y-57147438D02*
X150627285Y-57195057D01*
X150627285Y-57195057D02*
X150579666Y-57290295D01*
X150579666Y-57290295D02*
X150579666Y-57433152D01*
X150579666Y-57433152D02*
X150627285Y-57528390D01*
X150627285Y-57528390D02*
X150674904Y-57576009D01*
X150674904Y-57576009D02*
X150770142Y-57623628D01*
X150770142Y-57623628D02*
X151151094Y-57623628D01*
X149674904Y-57099819D02*
X150151094Y-57099819D01*
X150151094Y-57099819D02*
X150198713Y-57576009D01*
X150198713Y-57576009D02*
X150151094Y-57528390D01*
X150151094Y-57528390D02*
X150055856Y-57480771D01*
X150055856Y-57480771D02*
X149817761Y-57480771D01*
X149817761Y-57480771D02*
X149722523Y-57528390D01*
X149722523Y-57528390D02*
X149674904Y-57576009D01*
X149674904Y-57576009D02*
X149627285Y-57671247D01*
X149627285Y-57671247D02*
X149627285Y-57909342D01*
X149627285Y-57909342D02*
X149674904Y-58004580D01*
X149674904Y-58004580D02*
X149722523Y-58052200D01*
X149722523Y-58052200D02*
X149817761Y-58099819D01*
X149817761Y-58099819D02*
X150055856Y-58099819D01*
X150055856Y-58099819D02*
X150151094Y-58052200D01*
X150151094Y-58052200D02*
X150198713Y-58004580D01*
X169233319Y-115884333D02*
X168757128Y-115551000D01*
X169233319Y-115312905D02*
X168233319Y-115312905D01*
X168233319Y-115312905D02*
X168233319Y-115693857D01*
X168233319Y-115693857D02*
X168280938Y-115789095D01*
X168280938Y-115789095D02*
X168328557Y-115836714D01*
X168328557Y-115836714D02*
X168423795Y-115884333D01*
X168423795Y-115884333D02*
X168566652Y-115884333D01*
X168566652Y-115884333D02*
X168661890Y-115836714D01*
X168661890Y-115836714D02*
X168709509Y-115789095D01*
X168709509Y-115789095D02*
X168757128Y-115693857D01*
X168757128Y-115693857D02*
X168757128Y-115312905D01*
X168233319Y-116741476D02*
X168233319Y-116551000D01*
X168233319Y-116551000D02*
X168280938Y-116455762D01*
X168280938Y-116455762D02*
X168328557Y-116408143D01*
X168328557Y-116408143D02*
X168471414Y-116312905D01*
X168471414Y-116312905D02*
X168661890Y-116265286D01*
X168661890Y-116265286D02*
X169042842Y-116265286D01*
X169042842Y-116265286D02*
X169138080Y-116312905D01*
X169138080Y-116312905D02*
X169185700Y-116360524D01*
X169185700Y-116360524D02*
X169233319Y-116455762D01*
X169233319Y-116455762D02*
X169233319Y-116646238D01*
X169233319Y-116646238D02*
X169185700Y-116741476D01*
X169185700Y-116741476D02*
X169138080Y-116789095D01*
X169138080Y-116789095D02*
X169042842Y-116836714D01*
X169042842Y-116836714D02*
X168804747Y-116836714D01*
X168804747Y-116836714D02*
X168709509Y-116789095D01*
X168709509Y-116789095D02*
X168661890Y-116741476D01*
X168661890Y-116741476D02*
X168614271Y-116646238D01*
X168614271Y-116646238D02*
X168614271Y-116455762D01*
X168614271Y-116455762D02*
X168661890Y-116360524D01*
X168661890Y-116360524D02*
X168709509Y-116312905D01*
X168709509Y-116312905D02*
X168804747Y-116265286D01*
X176027819Y-93405333D02*
X175551628Y-93072000D01*
X176027819Y-92833905D02*
X175027819Y-92833905D01*
X175027819Y-92833905D02*
X175027819Y-93214857D01*
X175027819Y-93214857D02*
X175075438Y-93310095D01*
X175075438Y-93310095D02*
X175123057Y-93357714D01*
X175123057Y-93357714D02*
X175218295Y-93405333D01*
X175218295Y-93405333D02*
X175361152Y-93405333D01*
X175361152Y-93405333D02*
X175456390Y-93357714D01*
X175456390Y-93357714D02*
X175504009Y-93310095D01*
X175504009Y-93310095D02*
X175551628Y-93214857D01*
X175551628Y-93214857D02*
X175551628Y-92833905D01*
X175027819Y-93738667D02*
X175027819Y-94405333D01*
X175027819Y-94405333D02*
X176027819Y-93976762D01*
X166454666Y-92425319D02*
X166787999Y-91949128D01*
X167026094Y-92425319D02*
X167026094Y-91425319D01*
X167026094Y-91425319D02*
X166645142Y-91425319D01*
X166645142Y-91425319D02*
X166549904Y-91472938D01*
X166549904Y-91472938D02*
X166502285Y-91520557D01*
X166502285Y-91520557D02*
X166454666Y-91615795D01*
X166454666Y-91615795D02*
X166454666Y-91758652D01*
X166454666Y-91758652D02*
X166502285Y-91853890D01*
X166502285Y-91853890D02*
X166549904Y-91901509D01*
X166549904Y-91901509D02*
X166645142Y-91949128D01*
X166645142Y-91949128D02*
X167026094Y-91949128D01*
X165883237Y-91853890D02*
X165978475Y-91806271D01*
X165978475Y-91806271D02*
X166026094Y-91758652D01*
X166026094Y-91758652D02*
X166073713Y-91663414D01*
X166073713Y-91663414D02*
X166073713Y-91615795D01*
X166073713Y-91615795D02*
X166026094Y-91520557D01*
X166026094Y-91520557D02*
X165978475Y-91472938D01*
X165978475Y-91472938D02*
X165883237Y-91425319D01*
X165883237Y-91425319D02*
X165692761Y-91425319D01*
X165692761Y-91425319D02*
X165597523Y-91472938D01*
X165597523Y-91472938D02*
X165549904Y-91520557D01*
X165549904Y-91520557D02*
X165502285Y-91615795D01*
X165502285Y-91615795D02*
X165502285Y-91663414D01*
X165502285Y-91663414D02*
X165549904Y-91758652D01*
X165549904Y-91758652D02*
X165597523Y-91806271D01*
X165597523Y-91806271D02*
X165692761Y-91853890D01*
X165692761Y-91853890D02*
X165883237Y-91853890D01*
X165883237Y-91853890D02*
X165978475Y-91901509D01*
X165978475Y-91901509D02*
X166026094Y-91949128D01*
X166026094Y-91949128D02*
X166073713Y-92044366D01*
X166073713Y-92044366D02*
X166073713Y-92234842D01*
X166073713Y-92234842D02*
X166026094Y-92330080D01*
X166026094Y-92330080D02*
X165978475Y-92377700D01*
X165978475Y-92377700D02*
X165883237Y-92425319D01*
X165883237Y-92425319D02*
X165692761Y-92425319D01*
X165692761Y-92425319D02*
X165597523Y-92377700D01*
X165597523Y-92377700D02*
X165549904Y-92330080D01*
X165549904Y-92330080D02*
X165502285Y-92234842D01*
X165502285Y-92234842D02*
X165502285Y-92044366D01*
X165502285Y-92044366D02*
X165549904Y-91949128D01*
X165549904Y-91949128D02*
X165597523Y-91901509D01*
X165597523Y-91901509D02*
X165692761Y-91853890D01*
X164696819Y-107946833D02*
X164220628Y-107613500D01*
X164696819Y-107375405D02*
X163696819Y-107375405D01*
X163696819Y-107375405D02*
X163696819Y-107756357D01*
X163696819Y-107756357D02*
X163744438Y-107851595D01*
X163744438Y-107851595D02*
X163792057Y-107899214D01*
X163792057Y-107899214D02*
X163887295Y-107946833D01*
X163887295Y-107946833D02*
X164030152Y-107946833D01*
X164030152Y-107946833D02*
X164125390Y-107899214D01*
X164125390Y-107899214D02*
X164173009Y-107851595D01*
X164173009Y-107851595D02*
X164220628Y-107756357D01*
X164220628Y-107756357D02*
X164220628Y-107375405D01*
X164696819Y-108423024D02*
X164696819Y-108613500D01*
X164696819Y-108613500D02*
X164649200Y-108708738D01*
X164649200Y-108708738D02*
X164601580Y-108756357D01*
X164601580Y-108756357D02*
X164458723Y-108851595D01*
X164458723Y-108851595D02*
X164268247Y-108899214D01*
X164268247Y-108899214D02*
X163887295Y-108899214D01*
X163887295Y-108899214D02*
X163792057Y-108851595D01*
X163792057Y-108851595D02*
X163744438Y-108803976D01*
X163744438Y-108803976D02*
X163696819Y-108708738D01*
X163696819Y-108708738D02*
X163696819Y-108518262D01*
X163696819Y-108518262D02*
X163744438Y-108423024D01*
X163744438Y-108423024D02*
X163792057Y-108375405D01*
X163792057Y-108375405D02*
X163887295Y-108327786D01*
X163887295Y-108327786D02*
X164125390Y-108327786D01*
X164125390Y-108327786D02*
X164220628Y-108375405D01*
X164220628Y-108375405D02*
X164268247Y-108423024D01*
X164268247Y-108423024D02*
X164315866Y-108518262D01*
X164315866Y-108518262D02*
X164315866Y-108708738D01*
X164315866Y-108708738D02*
X164268247Y-108803976D01*
X164268247Y-108803976D02*
X164220628Y-108851595D01*
X164220628Y-108851595D02*
X164125390Y-108899214D01*
X171201819Y-99477595D02*
X172011342Y-99477595D01*
X172011342Y-99477595D02*
X172106580Y-99525214D01*
X172106580Y-99525214D02*
X172154200Y-99572833D01*
X172154200Y-99572833D02*
X172201819Y-99668071D01*
X172201819Y-99668071D02*
X172201819Y-99858547D01*
X172201819Y-99858547D02*
X172154200Y-99953785D01*
X172154200Y-99953785D02*
X172106580Y-100001404D01*
X172106580Y-100001404D02*
X172011342Y-100049023D01*
X172011342Y-100049023D02*
X171201819Y-100049023D01*
X171297057Y-100477595D02*
X171249438Y-100525214D01*
X171249438Y-100525214D02*
X171201819Y-100620452D01*
X171201819Y-100620452D02*
X171201819Y-100858547D01*
X171201819Y-100858547D02*
X171249438Y-100953785D01*
X171249438Y-100953785D02*
X171297057Y-101001404D01*
X171297057Y-101001404D02*
X171392295Y-101049023D01*
X171392295Y-101049023D02*
X171487533Y-101049023D01*
X171487533Y-101049023D02*
X171630390Y-101001404D01*
X171630390Y-101001404D02*
X172201819Y-100429976D01*
X172201819Y-100429976D02*
X172201819Y-101049023D01*
%TO.C,C2*%
X153026000Y-111209000D02*
X153026000Y-109199000D01*
X155166000Y-111179000D02*
X155166000Y-109169000D01*
%TO.C,C1*%
X152772000Y-96285000D02*
X152772000Y-98295000D01*
X154912000Y-96255000D02*
X154912000Y-98265000D01*
%TO.C,C3*%
X156906000Y-58720000D02*
X158916000Y-58720000D01*
X156936000Y-60860000D02*
X158946000Y-60860000D01*
%TO.C,C4*%
X178553000Y-53551000D02*
X178553000Y-51541000D01*
X180693000Y-53521000D02*
X180693000Y-51511000D01*
%TO.C,C5*%
X170044000Y-109113500D02*
X170044000Y-107103500D01*
X172184000Y-109083500D02*
X172184000Y-107073500D01*
%TO.C,C6*%
X181220000Y-98509000D02*
X181220000Y-96499000D01*
X183360000Y-98479000D02*
X183360000Y-96469000D01*
%TO.C,R1*%
X139559000Y-67299000D02*
X139559000Y-69299000D01*
X141709000Y-69299000D02*
X141709000Y-67299000D01*
%TO.C,R2*%
X148195000Y-67299000D02*
X148195000Y-69299000D01*
X150345000Y-69299000D02*
X150345000Y-67299000D01*
%TO.C,R3*%
X156196000Y-67299000D02*
X156196000Y-69299000D01*
X158346000Y-69299000D02*
X158346000Y-67299000D01*
%TO.C,R4*%
X157033000Y-56420000D02*
X159033000Y-56420000D01*
X159033000Y-54270000D02*
X157033000Y-54270000D01*
%TO.C,R5*%
X149413000Y-56420000D02*
X151413000Y-56420000D01*
X151413000Y-54270000D02*
X149413000Y-54270000D01*
%TO.C,R6*%
X165403500Y-115051000D02*
X165403500Y-117051000D01*
X167553500Y-117051000D02*
X167553500Y-115051000D01*
%TO.C,R7*%
X172198000Y-92572000D02*
X172198000Y-94572000D01*
X174348000Y-94572000D02*
X174348000Y-92572000D01*
%TO.C,R8*%
X165288000Y-95345500D02*
X167288000Y-95345500D01*
X167288000Y-93195500D02*
X165288000Y-93195500D01*
%TO.C,R9*%
X165467000Y-107113500D02*
X165467000Y-109113500D01*
X167617000Y-109113500D02*
X167617000Y-107113500D01*
D11*
%TO.C,U2*%
X166337000Y-98129500D02*
X167062000Y-98129500D01*
X166337000Y-98854500D02*
X166337000Y-98129500D01*
X166337000Y-101624500D02*
X166337000Y-102349500D01*
X166337000Y-102349500D02*
X167062000Y-102349500D01*
X170557000Y-98129500D02*
X169832000Y-98129500D01*
X170557000Y-98854500D02*
X170557000Y-98129500D01*
X170557000Y-101624500D02*
X170557000Y-102349500D01*
%TD*%
M02*
