%TF.GenerationSoftware,KiCad,Pcbnew,8.0.1*%
%TF.CreationDate,2024-04-21T18:12:41-04:00*%
%TF.ProjectId,BREAD_Slice,42524541-445f-4536-9c69-63652e6b6963,rev?*%
%TF.SameCoordinates,Original*%
%TF.FileFunction,Legend,Top*%
%TF.FilePolarity,Positive*%
%FSLAX46Y46*%
G04 Gerber Fmt 4.6, Leading zero omitted, Abs format (unit mm)*
G04 Created by KiCad (PCBNEW 8.0.1) date 2024-04-21 18:12:41*
%MOMM*%
%LPD*%
G01*
G04 APERTURE LIST*
%ADD10C,0.150000*%
%ADD11C,0.120000*%
%ADD12C,0.010000*%
%ADD13R,1.900000X2.000000*%
%ADD14C,1.900000*%
G04 APERTURE END LIST*
D10*
X190237866Y-98508951D02*
X190237866Y-97747047D01*
X190237866Y-96508951D02*
X190237866Y-95747047D01*
X190618819Y-96127999D02*
X189856914Y-96127999D01*
X190253819Y-66893761D02*
X190253819Y-66322333D01*
X191253819Y-66608047D02*
X190253819Y-66608047D01*
X191206200Y-65608047D02*
X191253819Y-65703285D01*
X191253819Y-65703285D02*
X191253819Y-65893761D01*
X191253819Y-65893761D02*
X191206200Y-65988999D01*
X191206200Y-65988999D02*
X191110961Y-66036618D01*
X191110961Y-66036618D02*
X190730009Y-66036618D01*
X190730009Y-66036618D02*
X190634771Y-65988999D01*
X190634771Y-65988999D02*
X190587152Y-65893761D01*
X190587152Y-65893761D02*
X190587152Y-65703285D01*
X190587152Y-65703285D02*
X190634771Y-65608047D01*
X190634771Y-65608047D02*
X190730009Y-65560428D01*
X190730009Y-65560428D02*
X190825247Y-65560428D01*
X190825247Y-65560428D02*
X190920485Y-66036618D01*
X191206200Y-65179475D02*
X191253819Y-65084237D01*
X191253819Y-65084237D02*
X191253819Y-64893761D01*
X191253819Y-64893761D02*
X191206200Y-64798523D01*
X191206200Y-64798523D02*
X191110961Y-64750904D01*
X191110961Y-64750904D02*
X191063342Y-64750904D01*
X191063342Y-64750904D02*
X190968104Y-64798523D01*
X190968104Y-64798523D02*
X190920485Y-64893761D01*
X190920485Y-64893761D02*
X190920485Y-65036618D01*
X190920485Y-65036618D02*
X190872866Y-65131856D01*
X190872866Y-65131856D02*
X190777628Y-65179475D01*
X190777628Y-65179475D02*
X190730009Y-65179475D01*
X190730009Y-65179475D02*
X190634771Y-65131856D01*
X190634771Y-65131856D02*
X190587152Y-65036618D01*
X190587152Y-65036618D02*
X190587152Y-64893761D01*
X190587152Y-64893761D02*
X190634771Y-64798523D01*
X190587152Y-64465189D02*
X190587152Y-64084237D01*
X190253819Y-64322332D02*
X191110961Y-64322332D01*
X191110961Y-64322332D02*
X191206200Y-64274713D01*
X191206200Y-64274713D02*
X191253819Y-64179475D01*
X191253819Y-64179475D02*
X191253819Y-64084237D01*
X190872866Y-62988998D02*
X190872866Y-62227094D01*
X192095200Y-54749333D02*
X192142819Y-54606476D01*
X192142819Y-54606476D02*
X192142819Y-54368381D01*
X192142819Y-54368381D02*
X192095200Y-54273143D01*
X192095200Y-54273143D02*
X192047580Y-54225524D01*
X192047580Y-54225524D02*
X191952342Y-54177905D01*
X191952342Y-54177905D02*
X191857104Y-54177905D01*
X191857104Y-54177905D02*
X191761866Y-54225524D01*
X191761866Y-54225524D02*
X191714247Y-54273143D01*
X191714247Y-54273143D02*
X191666628Y-54368381D01*
X191666628Y-54368381D02*
X191619009Y-54558857D01*
X191619009Y-54558857D02*
X191571390Y-54654095D01*
X191571390Y-54654095D02*
X191523771Y-54701714D01*
X191523771Y-54701714D02*
X191428533Y-54749333D01*
X191428533Y-54749333D02*
X191333295Y-54749333D01*
X191333295Y-54749333D02*
X191238057Y-54701714D01*
X191238057Y-54701714D02*
X191190438Y-54654095D01*
X191190438Y-54654095D02*
X191142819Y-54558857D01*
X191142819Y-54558857D02*
X191142819Y-54320762D01*
X191142819Y-54320762D02*
X191190438Y-54177905D01*
X192142819Y-53606476D02*
X192095200Y-53701714D01*
X192095200Y-53701714D02*
X192047580Y-53749333D01*
X192047580Y-53749333D02*
X191952342Y-53796952D01*
X191952342Y-53796952D02*
X191666628Y-53796952D01*
X191666628Y-53796952D02*
X191571390Y-53749333D01*
X191571390Y-53749333D02*
X191523771Y-53701714D01*
X191523771Y-53701714D02*
X191476152Y-53606476D01*
X191476152Y-53606476D02*
X191476152Y-53463619D01*
X191476152Y-53463619D02*
X191523771Y-53368381D01*
X191523771Y-53368381D02*
X191571390Y-53320762D01*
X191571390Y-53320762D02*
X191666628Y-53273143D01*
X191666628Y-53273143D02*
X191952342Y-53273143D01*
X191952342Y-53273143D02*
X192047580Y-53320762D01*
X192047580Y-53320762D02*
X192095200Y-53368381D01*
X192095200Y-53368381D02*
X192142819Y-53463619D01*
X192142819Y-53463619D02*
X192142819Y-53606476D01*
X192142819Y-52701714D02*
X192095200Y-52796952D01*
X192095200Y-52796952D02*
X191999961Y-52844571D01*
X191999961Y-52844571D02*
X191142819Y-52844571D01*
X192142819Y-51892190D02*
X191619009Y-51892190D01*
X191619009Y-51892190D02*
X191523771Y-51939809D01*
X191523771Y-51939809D02*
X191476152Y-52035047D01*
X191476152Y-52035047D02*
X191476152Y-52225523D01*
X191476152Y-52225523D02*
X191523771Y-52320761D01*
X192095200Y-51892190D02*
X192142819Y-51987428D01*
X192142819Y-51987428D02*
X192142819Y-52225523D01*
X192142819Y-52225523D02*
X192095200Y-52320761D01*
X192095200Y-52320761D02*
X191999961Y-52368380D01*
X191999961Y-52368380D02*
X191904723Y-52368380D01*
X191904723Y-52368380D02*
X191809485Y-52320761D01*
X191809485Y-52320761D02*
X191761866Y-52225523D01*
X191761866Y-52225523D02*
X191761866Y-51987428D01*
X191761866Y-51987428D02*
X191714247Y-51892190D01*
X192142819Y-51415999D02*
X191476152Y-51415999D01*
X191666628Y-51415999D02*
X191571390Y-51368380D01*
X191571390Y-51368380D02*
X191523771Y-51320761D01*
X191523771Y-51320761D02*
X191476152Y-51225523D01*
X191476152Y-51225523D02*
X191476152Y-51130285D01*
X192142819Y-50035046D02*
X191142819Y-50035046D01*
X191476152Y-49558856D02*
X192142819Y-49558856D01*
X191571390Y-49558856D02*
X191523771Y-49511237D01*
X191523771Y-49511237D02*
X191476152Y-49415999D01*
X191476152Y-49415999D02*
X191476152Y-49273142D01*
X191476152Y-49273142D02*
X191523771Y-49177904D01*
X191523771Y-49177904D02*
X191619009Y-49130285D01*
X191619009Y-49130285D02*
X192142819Y-49130285D01*
X191492009Y-101096286D02*
X191539628Y-100953429D01*
X191539628Y-100953429D02*
X191587247Y-100905810D01*
X191587247Y-100905810D02*
X191682485Y-100858191D01*
X191682485Y-100858191D02*
X191825342Y-100858191D01*
X191825342Y-100858191D02*
X191920580Y-100905810D01*
X191920580Y-100905810D02*
X191968200Y-100953429D01*
X191968200Y-100953429D02*
X192015819Y-101048667D01*
X192015819Y-101048667D02*
X192015819Y-101429619D01*
X192015819Y-101429619D02*
X191015819Y-101429619D01*
X191015819Y-101429619D02*
X191015819Y-101096286D01*
X191015819Y-101096286D02*
X191063438Y-101001048D01*
X191063438Y-101001048D02*
X191111057Y-100953429D01*
X191111057Y-100953429D02*
X191206295Y-100905810D01*
X191206295Y-100905810D02*
X191301533Y-100905810D01*
X191301533Y-100905810D02*
X191396771Y-100953429D01*
X191396771Y-100953429D02*
X191444390Y-101001048D01*
X191444390Y-101001048D02*
X191492009Y-101096286D01*
X191492009Y-101096286D02*
X191492009Y-101429619D01*
X192015819Y-100001048D02*
X191492009Y-100001048D01*
X191492009Y-100001048D02*
X191396771Y-100048667D01*
X191396771Y-100048667D02*
X191349152Y-100143905D01*
X191349152Y-100143905D02*
X191349152Y-100334381D01*
X191349152Y-100334381D02*
X191396771Y-100429619D01*
X191968200Y-100001048D02*
X192015819Y-100096286D01*
X192015819Y-100096286D02*
X192015819Y-100334381D01*
X192015819Y-100334381D02*
X191968200Y-100429619D01*
X191968200Y-100429619D02*
X191872961Y-100477238D01*
X191872961Y-100477238D02*
X191777723Y-100477238D01*
X191777723Y-100477238D02*
X191682485Y-100429619D01*
X191682485Y-100429619D02*
X191634866Y-100334381D01*
X191634866Y-100334381D02*
X191634866Y-100096286D01*
X191634866Y-100096286D02*
X191587247Y-100001048D01*
X191349152Y-99667714D02*
X191349152Y-99286762D01*
X191015819Y-99524857D02*
X191872961Y-99524857D01*
X191872961Y-99524857D02*
X191968200Y-99477238D01*
X191968200Y-99477238D02*
X192015819Y-99382000D01*
X192015819Y-99382000D02*
X192015819Y-99286762D01*
X191349152Y-99096285D02*
X191349152Y-98715333D01*
X191015819Y-98953428D02*
X191872961Y-98953428D01*
X191872961Y-98953428D02*
X191968200Y-98905809D01*
X191968200Y-98905809D02*
X192015819Y-98810571D01*
X192015819Y-98810571D02*
X192015819Y-98715333D01*
X191968200Y-98001047D02*
X192015819Y-98096285D01*
X192015819Y-98096285D02*
X192015819Y-98286761D01*
X192015819Y-98286761D02*
X191968200Y-98381999D01*
X191968200Y-98381999D02*
X191872961Y-98429618D01*
X191872961Y-98429618D02*
X191492009Y-98429618D01*
X191492009Y-98429618D02*
X191396771Y-98381999D01*
X191396771Y-98381999D02*
X191349152Y-98286761D01*
X191349152Y-98286761D02*
X191349152Y-98096285D01*
X191349152Y-98096285D02*
X191396771Y-98001047D01*
X191396771Y-98001047D02*
X191492009Y-97953428D01*
X191492009Y-97953428D02*
X191587247Y-97953428D01*
X191587247Y-97953428D02*
X191682485Y-98429618D01*
X192015819Y-97524856D02*
X191349152Y-97524856D01*
X191539628Y-97524856D02*
X191444390Y-97477237D01*
X191444390Y-97477237D02*
X191396771Y-97429618D01*
X191396771Y-97429618D02*
X191349152Y-97334380D01*
X191349152Y-97334380D02*
X191349152Y-97239142D01*
X191349152Y-97001046D02*
X192015819Y-96762951D01*
X191349152Y-96524856D02*
X192015819Y-96762951D01*
X192015819Y-96762951D02*
X192253914Y-96858189D01*
X192253914Y-96858189D02*
X192301533Y-96905808D01*
X192301533Y-96905808D02*
X192349152Y-97001046D01*
X191015819Y-95191522D02*
X191015819Y-95001046D01*
X191015819Y-95001046D02*
X191063438Y-94905808D01*
X191063438Y-94905808D02*
X191158676Y-94810570D01*
X191158676Y-94810570D02*
X191349152Y-94762951D01*
X191349152Y-94762951D02*
X191682485Y-94762951D01*
X191682485Y-94762951D02*
X191872961Y-94810570D01*
X191872961Y-94810570D02*
X191968200Y-94905808D01*
X191968200Y-94905808D02*
X192015819Y-95001046D01*
X192015819Y-95001046D02*
X192015819Y-95191522D01*
X192015819Y-95191522D02*
X191968200Y-95286760D01*
X191968200Y-95286760D02*
X191872961Y-95381998D01*
X191872961Y-95381998D02*
X191682485Y-95429617D01*
X191682485Y-95429617D02*
X191349152Y-95429617D01*
X191349152Y-95429617D02*
X191158676Y-95381998D01*
X191158676Y-95381998D02*
X191063438Y-95286760D01*
X191063438Y-95286760D02*
X191015819Y-95191522D01*
X191349152Y-93905808D02*
X192015819Y-93905808D01*
X191349152Y-94334379D02*
X191872961Y-94334379D01*
X191872961Y-94334379D02*
X191968200Y-94286760D01*
X191968200Y-94286760D02*
X192015819Y-94191522D01*
X192015819Y-94191522D02*
X192015819Y-94048665D01*
X192015819Y-94048665D02*
X191968200Y-93953427D01*
X191968200Y-93953427D02*
X191920580Y-93905808D01*
X191349152Y-93572474D02*
X191349152Y-93191522D01*
X191015819Y-93429617D02*
X191872961Y-93429617D01*
X191872961Y-93429617D02*
X191968200Y-93381998D01*
X191968200Y-93381998D02*
X192015819Y-93286760D01*
X192015819Y-93286760D02*
X192015819Y-93191522D01*
X155144570Y-135041256D02*
X155287427Y-135088875D01*
X155287427Y-135088875D02*
X155525522Y-135088875D01*
X155525522Y-135088875D02*
X155620760Y-135041256D01*
X155620760Y-135041256D02*
X155668379Y-134993636D01*
X155668379Y-134993636D02*
X155715998Y-134898398D01*
X155715998Y-134898398D02*
X155715998Y-134803160D01*
X155715998Y-134803160D02*
X155668379Y-134707922D01*
X155668379Y-134707922D02*
X155620760Y-134660303D01*
X155620760Y-134660303D02*
X155525522Y-134612684D01*
X155525522Y-134612684D02*
X155335046Y-134565065D01*
X155335046Y-134565065D02*
X155239808Y-134517446D01*
X155239808Y-134517446D02*
X155192189Y-134469827D01*
X155192189Y-134469827D02*
X155144570Y-134374589D01*
X155144570Y-134374589D02*
X155144570Y-134279351D01*
X155144570Y-134279351D02*
X155192189Y-134184113D01*
X155192189Y-134184113D02*
X155239808Y-134136494D01*
X155239808Y-134136494D02*
X155335046Y-134088875D01*
X155335046Y-134088875D02*
X155573141Y-134088875D01*
X155573141Y-134088875D02*
X155715998Y-134136494D01*
X156287427Y-135088875D02*
X156192189Y-135041256D01*
X156192189Y-135041256D02*
X156144570Y-134993636D01*
X156144570Y-134993636D02*
X156096951Y-134898398D01*
X156096951Y-134898398D02*
X156096951Y-134612684D01*
X156096951Y-134612684D02*
X156144570Y-134517446D01*
X156144570Y-134517446D02*
X156192189Y-134469827D01*
X156192189Y-134469827D02*
X156287427Y-134422208D01*
X156287427Y-134422208D02*
X156430284Y-134422208D01*
X156430284Y-134422208D02*
X156525522Y-134469827D01*
X156525522Y-134469827D02*
X156573141Y-134517446D01*
X156573141Y-134517446D02*
X156620760Y-134612684D01*
X156620760Y-134612684D02*
X156620760Y-134898398D01*
X156620760Y-134898398D02*
X156573141Y-134993636D01*
X156573141Y-134993636D02*
X156525522Y-135041256D01*
X156525522Y-135041256D02*
X156430284Y-135088875D01*
X156430284Y-135088875D02*
X156287427Y-135088875D01*
X157192189Y-135088875D02*
X157096951Y-135041256D01*
X157096951Y-135041256D02*
X157049332Y-134946017D01*
X157049332Y-134946017D02*
X157049332Y-134088875D01*
X158001713Y-135088875D02*
X158001713Y-134565065D01*
X158001713Y-134565065D02*
X157954094Y-134469827D01*
X157954094Y-134469827D02*
X157858856Y-134422208D01*
X157858856Y-134422208D02*
X157668380Y-134422208D01*
X157668380Y-134422208D02*
X157573142Y-134469827D01*
X158001713Y-135041256D02*
X157906475Y-135088875D01*
X157906475Y-135088875D02*
X157668380Y-135088875D01*
X157668380Y-135088875D02*
X157573142Y-135041256D01*
X157573142Y-135041256D02*
X157525523Y-134946017D01*
X157525523Y-134946017D02*
X157525523Y-134850779D01*
X157525523Y-134850779D02*
X157573142Y-134755541D01*
X157573142Y-134755541D02*
X157668380Y-134707922D01*
X157668380Y-134707922D02*
X157906475Y-134707922D01*
X157906475Y-134707922D02*
X158001713Y-134660303D01*
X158477904Y-135088875D02*
X158477904Y-134422208D01*
X158477904Y-134612684D02*
X158525523Y-134517446D01*
X158525523Y-134517446D02*
X158573142Y-134469827D01*
X158573142Y-134469827D02*
X158668380Y-134422208D01*
X158668380Y-134422208D02*
X158763618Y-134422208D01*
X159858857Y-135088875D02*
X159858857Y-134088875D01*
X159858857Y-134088875D02*
X160239809Y-134088875D01*
X160239809Y-134088875D02*
X160335047Y-134136494D01*
X160335047Y-134136494D02*
X160382666Y-134184113D01*
X160382666Y-134184113D02*
X160430285Y-134279351D01*
X160430285Y-134279351D02*
X160430285Y-134422208D01*
X160430285Y-134422208D02*
X160382666Y-134517446D01*
X160382666Y-134517446D02*
X160335047Y-134565065D01*
X160335047Y-134565065D02*
X160239809Y-134612684D01*
X160239809Y-134612684D02*
X159858857Y-134612684D01*
X161001714Y-135088875D02*
X160906476Y-135041256D01*
X160906476Y-135041256D02*
X160858857Y-134993636D01*
X160858857Y-134993636D02*
X160811238Y-134898398D01*
X160811238Y-134898398D02*
X160811238Y-134612684D01*
X160811238Y-134612684D02*
X160858857Y-134517446D01*
X160858857Y-134517446D02*
X160906476Y-134469827D01*
X160906476Y-134469827D02*
X161001714Y-134422208D01*
X161001714Y-134422208D02*
X161144571Y-134422208D01*
X161144571Y-134422208D02*
X161239809Y-134469827D01*
X161239809Y-134469827D02*
X161287428Y-134517446D01*
X161287428Y-134517446D02*
X161335047Y-134612684D01*
X161335047Y-134612684D02*
X161335047Y-134898398D01*
X161335047Y-134898398D02*
X161287428Y-134993636D01*
X161287428Y-134993636D02*
X161239809Y-135041256D01*
X161239809Y-135041256D02*
X161144571Y-135088875D01*
X161144571Y-135088875D02*
X161001714Y-135088875D01*
X161668381Y-134422208D02*
X161858857Y-135088875D01*
X161858857Y-135088875D02*
X162049333Y-134612684D01*
X162049333Y-134612684D02*
X162239809Y-135088875D01*
X162239809Y-135088875D02*
X162430285Y-134422208D01*
X163192190Y-135041256D02*
X163096952Y-135088875D01*
X163096952Y-135088875D02*
X162906476Y-135088875D01*
X162906476Y-135088875D02*
X162811238Y-135041256D01*
X162811238Y-135041256D02*
X162763619Y-134946017D01*
X162763619Y-134946017D02*
X162763619Y-134565065D01*
X162763619Y-134565065D02*
X162811238Y-134469827D01*
X162811238Y-134469827D02*
X162906476Y-134422208D01*
X162906476Y-134422208D02*
X163096952Y-134422208D01*
X163096952Y-134422208D02*
X163192190Y-134469827D01*
X163192190Y-134469827D02*
X163239809Y-134565065D01*
X163239809Y-134565065D02*
X163239809Y-134660303D01*
X163239809Y-134660303D02*
X162763619Y-134755541D01*
X163668381Y-135088875D02*
X163668381Y-134422208D01*
X163668381Y-134612684D02*
X163716000Y-134517446D01*
X163716000Y-134517446D02*
X163763619Y-134469827D01*
X163763619Y-134469827D02*
X163858857Y-134422208D01*
X163858857Y-134422208D02*
X163954095Y-134422208D01*
X165001715Y-135041256D02*
X165144572Y-135088875D01*
X165144572Y-135088875D02*
X165382667Y-135088875D01*
X165382667Y-135088875D02*
X165477905Y-135041256D01*
X165477905Y-135041256D02*
X165525524Y-134993636D01*
X165525524Y-134993636D02*
X165573143Y-134898398D01*
X165573143Y-134898398D02*
X165573143Y-134803160D01*
X165573143Y-134803160D02*
X165525524Y-134707922D01*
X165525524Y-134707922D02*
X165477905Y-134660303D01*
X165477905Y-134660303D02*
X165382667Y-134612684D01*
X165382667Y-134612684D02*
X165192191Y-134565065D01*
X165192191Y-134565065D02*
X165096953Y-134517446D01*
X165096953Y-134517446D02*
X165049334Y-134469827D01*
X165049334Y-134469827D02*
X165001715Y-134374589D01*
X165001715Y-134374589D02*
X165001715Y-134279351D01*
X165001715Y-134279351D02*
X165049334Y-134184113D01*
X165049334Y-134184113D02*
X165096953Y-134136494D01*
X165096953Y-134136494D02*
X165192191Y-134088875D01*
X165192191Y-134088875D02*
X165430286Y-134088875D01*
X165430286Y-134088875D02*
X165573143Y-134136494D01*
X166144572Y-135088875D02*
X166049334Y-135041256D01*
X166049334Y-135041256D02*
X166001715Y-134946017D01*
X166001715Y-134946017D02*
X166001715Y-134088875D01*
X166525525Y-135088875D02*
X166525525Y-134422208D01*
X166525525Y-134088875D02*
X166477906Y-134136494D01*
X166477906Y-134136494D02*
X166525525Y-134184113D01*
X166525525Y-134184113D02*
X166573144Y-134136494D01*
X166573144Y-134136494D02*
X166525525Y-134088875D01*
X166525525Y-134088875D02*
X166525525Y-134184113D01*
X167430286Y-135041256D02*
X167335048Y-135088875D01*
X167335048Y-135088875D02*
X167144572Y-135088875D01*
X167144572Y-135088875D02*
X167049334Y-135041256D01*
X167049334Y-135041256D02*
X167001715Y-134993636D01*
X167001715Y-134993636D02*
X166954096Y-134898398D01*
X166954096Y-134898398D02*
X166954096Y-134612684D01*
X166954096Y-134612684D02*
X167001715Y-134517446D01*
X167001715Y-134517446D02*
X167049334Y-134469827D01*
X167049334Y-134469827D02*
X167144572Y-134422208D01*
X167144572Y-134422208D02*
X167335048Y-134422208D01*
X167335048Y-134422208D02*
X167430286Y-134469827D01*
X168239810Y-135041256D02*
X168144572Y-135088875D01*
X168144572Y-135088875D02*
X167954096Y-135088875D01*
X167954096Y-135088875D02*
X167858858Y-135041256D01*
X167858858Y-135041256D02*
X167811239Y-134946017D01*
X167811239Y-134946017D02*
X167811239Y-134565065D01*
X167811239Y-134565065D02*
X167858858Y-134469827D01*
X167858858Y-134469827D02*
X167954096Y-134422208D01*
X167954096Y-134422208D02*
X168144572Y-134422208D01*
X168144572Y-134422208D02*
X168239810Y-134469827D01*
X168239810Y-134469827D02*
X168287429Y-134565065D01*
X168287429Y-134565065D02*
X168287429Y-134660303D01*
X168287429Y-134660303D02*
X167811239Y-134755541D01*
X158239809Y-136651200D02*
X158382666Y-136698819D01*
X158382666Y-136698819D02*
X158620761Y-136698819D01*
X158620761Y-136698819D02*
X158715999Y-136651200D01*
X158715999Y-136651200D02*
X158763618Y-136603580D01*
X158763618Y-136603580D02*
X158811237Y-136508342D01*
X158811237Y-136508342D02*
X158811237Y-136413104D01*
X158811237Y-136413104D02*
X158763618Y-136317866D01*
X158763618Y-136317866D02*
X158715999Y-136270247D01*
X158715999Y-136270247D02*
X158620761Y-136222628D01*
X158620761Y-136222628D02*
X158430285Y-136175009D01*
X158430285Y-136175009D02*
X158335047Y-136127390D01*
X158335047Y-136127390D02*
X158287428Y-136079771D01*
X158287428Y-136079771D02*
X158239809Y-135984533D01*
X158239809Y-135984533D02*
X158239809Y-135889295D01*
X158239809Y-135889295D02*
X158287428Y-135794057D01*
X158287428Y-135794057D02*
X158335047Y-135746438D01*
X158335047Y-135746438D02*
X158430285Y-135698819D01*
X158430285Y-135698819D02*
X158668380Y-135698819D01*
X158668380Y-135698819D02*
X158811237Y-135746438D01*
X159715999Y-136698819D02*
X159239809Y-136698819D01*
X159239809Y-136698819D02*
X159239809Y-135698819D01*
X160620761Y-136603580D02*
X160573142Y-136651200D01*
X160573142Y-136651200D02*
X160430285Y-136698819D01*
X160430285Y-136698819D02*
X160335047Y-136698819D01*
X160335047Y-136698819D02*
X160192190Y-136651200D01*
X160192190Y-136651200D02*
X160096952Y-136555961D01*
X160096952Y-136555961D02*
X160049333Y-136460723D01*
X160049333Y-136460723D02*
X160001714Y-136270247D01*
X160001714Y-136270247D02*
X160001714Y-136127390D01*
X160001714Y-136127390D02*
X160049333Y-135936914D01*
X160049333Y-135936914D02*
X160096952Y-135841676D01*
X160096952Y-135841676D02*
X160192190Y-135746438D01*
X160192190Y-135746438D02*
X160335047Y-135698819D01*
X160335047Y-135698819D02*
X160430285Y-135698819D01*
X160430285Y-135698819D02*
X160573142Y-135746438D01*
X160573142Y-135746438D02*
X160620761Y-135794057D01*
X160811238Y-136794057D02*
X161573142Y-136794057D01*
X161763619Y-136651200D02*
X161906476Y-136698819D01*
X161906476Y-136698819D02*
X162144571Y-136698819D01*
X162144571Y-136698819D02*
X162239809Y-136651200D01*
X162239809Y-136651200D02*
X162287428Y-136603580D01*
X162287428Y-136603580D02*
X162335047Y-136508342D01*
X162335047Y-136508342D02*
X162335047Y-136413104D01*
X162335047Y-136413104D02*
X162287428Y-136317866D01*
X162287428Y-136317866D02*
X162239809Y-136270247D01*
X162239809Y-136270247D02*
X162144571Y-136222628D01*
X162144571Y-136222628D02*
X161954095Y-136175009D01*
X161954095Y-136175009D02*
X161858857Y-136127390D01*
X161858857Y-136127390D02*
X161811238Y-136079771D01*
X161811238Y-136079771D02*
X161763619Y-135984533D01*
X161763619Y-135984533D02*
X161763619Y-135889295D01*
X161763619Y-135889295D02*
X161811238Y-135794057D01*
X161811238Y-135794057D02*
X161858857Y-135746438D01*
X161858857Y-135746438D02*
X161954095Y-135698819D01*
X161954095Y-135698819D02*
X162192190Y-135698819D01*
X162192190Y-135698819D02*
X162335047Y-135746438D01*
X162954095Y-135698819D02*
X163144571Y-135698819D01*
X163144571Y-135698819D02*
X163239809Y-135746438D01*
X163239809Y-135746438D02*
X163335047Y-135841676D01*
X163335047Y-135841676D02*
X163382666Y-136032152D01*
X163382666Y-136032152D02*
X163382666Y-136365485D01*
X163382666Y-136365485D02*
X163335047Y-136555961D01*
X163335047Y-136555961D02*
X163239809Y-136651200D01*
X163239809Y-136651200D02*
X163144571Y-136698819D01*
X163144571Y-136698819D02*
X162954095Y-136698819D01*
X162954095Y-136698819D02*
X162858857Y-136651200D01*
X162858857Y-136651200D02*
X162763619Y-136555961D01*
X162763619Y-136555961D02*
X162716000Y-136365485D01*
X162716000Y-136365485D02*
X162716000Y-136032152D01*
X162716000Y-136032152D02*
X162763619Y-135841676D01*
X162763619Y-135841676D02*
X162858857Y-135746438D01*
X162858857Y-135746438D02*
X162954095Y-135698819D01*
X164287428Y-136698819D02*
X163811238Y-136698819D01*
X163811238Y-136698819D02*
X163811238Y-135698819D01*
X165192190Y-136698819D02*
X164858857Y-136222628D01*
X164620762Y-136698819D02*
X164620762Y-135698819D01*
X164620762Y-135698819D02*
X165001714Y-135698819D01*
X165001714Y-135698819D02*
X165096952Y-135746438D01*
X165096952Y-135746438D02*
X165144571Y-135794057D01*
X165144571Y-135794057D02*
X165192190Y-135889295D01*
X165192190Y-135889295D02*
X165192190Y-136032152D01*
X165192190Y-136032152D02*
X165144571Y-136127390D01*
X165144571Y-136127390D02*
X165096952Y-136175009D01*
X165096952Y-136175009D02*
X165001714Y-136222628D01*
X165001714Y-136222628D02*
X164620762Y-136222628D01*
X159263618Y-138308763D02*
X158930285Y-137832572D01*
X158692190Y-138308763D02*
X158692190Y-137308763D01*
X158692190Y-137308763D02*
X159073142Y-137308763D01*
X159073142Y-137308763D02*
X159168380Y-137356382D01*
X159168380Y-137356382D02*
X159215999Y-137404001D01*
X159215999Y-137404001D02*
X159263618Y-137499239D01*
X159263618Y-137499239D02*
X159263618Y-137642096D01*
X159263618Y-137642096D02*
X159215999Y-137737334D01*
X159215999Y-137737334D02*
X159168380Y-137784953D01*
X159168380Y-137784953D02*
X159073142Y-137832572D01*
X159073142Y-137832572D02*
X158692190Y-137832572D01*
X159882666Y-137308763D02*
X159977904Y-137308763D01*
X159977904Y-137308763D02*
X160073142Y-137356382D01*
X160073142Y-137356382D02*
X160120761Y-137404001D01*
X160120761Y-137404001D02*
X160168380Y-137499239D01*
X160168380Y-137499239D02*
X160215999Y-137689715D01*
X160215999Y-137689715D02*
X160215999Y-137927810D01*
X160215999Y-137927810D02*
X160168380Y-138118286D01*
X160168380Y-138118286D02*
X160120761Y-138213524D01*
X160120761Y-138213524D02*
X160073142Y-138261144D01*
X160073142Y-138261144D02*
X159977904Y-138308763D01*
X159977904Y-138308763D02*
X159882666Y-138308763D01*
X159882666Y-138308763D02*
X159787428Y-138261144D01*
X159787428Y-138261144D02*
X159739809Y-138213524D01*
X159739809Y-138213524D02*
X159692190Y-138118286D01*
X159692190Y-138118286D02*
X159644571Y-137927810D01*
X159644571Y-137927810D02*
X159644571Y-137689715D01*
X159644571Y-137689715D02*
X159692190Y-137499239D01*
X159692190Y-137499239D02*
X159739809Y-137404001D01*
X159739809Y-137404001D02*
X159787428Y-137356382D01*
X159787428Y-137356382D02*
X159882666Y-137308763D01*
X161358857Y-137404001D02*
X161406476Y-137356382D01*
X161406476Y-137356382D02*
X161501714Y-137308763D01*
X161501714Y-137308763D02*
X161739809Y-137308763D01*
X161739809Y-137308763D02*
X161835047Y-137356382D01*
X161835047Y-137356382D02*
X161882666Y-137404001D01*
X161882666Y-137404001D02*
X161930285Y-137499239D01*
X161930285Y-137499239D02*
X161930285Y-137594477D01*
X161930285Y-137594477D02*
X161882666Y-137737334D01*
X161882666Y-137737334D02*
X161311238Y-138308763D01*
X161311238Y-138308763D02*
X161930285Y-138308763D01*
X162549333Y-137308763D02*
X162644571Y-137308763D01*
X162644571Y-137308763D02*
X162739809Y-137356382D01*
X162739809Y-137356382D02*
X162787428Y-137404001D01*
X162787428Y-137404001D02*
X162835047Y-137499239D01*
X162835047Y-137499239D02*
X162882666Y-137689715D01*
X162882666Y-137689715D02*
X162882666Y-137927810D01*
X162882666Y-137927810D02*
X162835047Y-138118286D01*
X162835047Y-138118286D02*
X162787428Y-138213524D01*
X162787428Y-138213524D02*
X162739809Y-138261144D01*
X162739809Y-138261144D02*
X162644571Y-138308763D01*
X162644571Y-138308763D02*
X162549333Y-138308763D01*
X162549333Y-138308763D02*
X162454095Y-138261144D01*
X162454095Y-138261144D02*
X162406476Y-138213524D01*
X162406476Y-138213524D02*
X162358857Y-138118286D01*
X162358857Y-138118286D02*
X162311238Y-137927810D01*
X162311238Y-137927810D02*
X162311238Y-137689715D01*
X162311238Y-137689715D02*
X162358857Y-137499239D01*
X162358857Y-137499239D02*
X162406476Y-137404001D01*
X162406476Y-137404001D02*
X162454095Y-137356382D01*
X162454095Y-137356382D02*
X162549333Y-137308763D01*
X163263619Y-137404001D02*
X163311238Y-137356382D01*
X163311238Y-137356382D02*
X163406476Y-137308763D01*
X163406476Y-137308763D02*
X163644571Y-137308763D01*
X163644571Y-137308763D02*
X163739809Y-137356382D01*
X163739809Y-137356382D02*
X163787428Y-137404001D01*
X163787428Y-137404001D02*
X163835047Y-137499239D01*
X163835047Y-137499239D02*
X163835047Y-137594477D01*
X163835047Y-137594477D02*
X163787428Y-137737334D01*
X163787428Y-137737334D02*
X163216000Y-138308763D01*
X163216000Y-138308763D02*
X163835047Y-138308763D01*
X164787428Y-138308763D02*
X164216000Y-138308763D01*
X164501714Y-138308763D02*
X164501714Y-137308763D01*
X164501714Y-137308763D02*
X164406476Y-137451620D01*
X164406476Y-137451620D02*
X164311238Y-137546858D01*
X164311238Y-137546858D02*
X164216000Y-137594477D01*
X190618866Y-53550951D02*
X190618866Y-52789047D01*
X190618866Y-51550951D02*
X190618866Y-50789047D01*
X190999819Y-51169999D02*
X190237914Y-51169999D01*
X190761819Y-87975761D02*
X190761819Y-87404333D01*
X191761819Y-87690047D02*
X190761819Y-87690047D01*
X191714200Y-86690047D02*
X191761819Y-86785285D01*
X191761819Y-86785285D02*
X191761819Y-86975761D01*
X191761819Y-86975761D02*
X191714200Y-87070999D01*
X191714200Y-87070999D02*
X191618961Y-87118618D01*
X191618961Y-87118618D02*
X191238009Y-87118618D01*
X191238009Y-87118618D02*
X191142771Y-87070999D01*
X191142771Y-87070999D02*
X191095152Y-86975761D01*
X191095152Y-86975761D02*
X191095152Y-86785285D01*
X191095152Y-86785285D02*
X191142771Y-86690047D01*
X191142771Y-86690047D02*
X191238009Y-86642428D01*
X191238009Y-86642428D02*
X191333247Y-86642428D01*
X191333247Y-86642428D02*
X191428485Y-87118618D01*
X191714200Y-86261475D02*
X191761819Y-86166237D01*
X191761819Y-86166237D02*
X191761819Y-85975761D01*
X191761819Y-85975761D02*
X191714200Y-85880523D01*
X191714200Y-85880523D02*
X191618961Y-85832904D01*
X191618961Y-85832904D02*
X191571342Y-85832904D01*
X191571342Y-85832904D02*
X191476104Y-85880523D01*
X191476104Y-85880523D02*
X191428485Y-85975761D01*
X191428485Y-85975761D02*
X191428485Y-86118618D01*
X191428485Y-86118618D02*
X191380866Y-86213856D01*
X191380866Y-86213856D02*
X191285628Y-86261475D01*
X191285628Y-86261475D02*
X191238009Y-86261475D01*
X191238009Y-86261475D02*
X191142771Y-86213856D01*
X191142771Y-86213856D02*
X191095152Y-86118618D01*
X191095152Y-86118618D02*
X191095152Y-85975761D01*
X191095152Y-85975761D02*
X191142771Y-85880523D01*
X191095152Y-85547189D02*
X191095152Y-85166237D01*
X190761819Y-85404332D02*
X191618961Y-85404332D01*
X191618961Y-85404332D02*
X191714200Y-85356713D01*
X191714200Y-85356713D02*
X191761819Y-85261475D01*
X191761819Y-85261475D02*
X191761819Y-85166237D01*
X191380866Y-84070998D02*
X191380866Y-83309094D01*
X191761819Y-83690046D02*
X190999914Y-83690046D01*
X141905714Y-95089104D02*
X142381904Y-95089104D01*
X141810476Y-95374819D02*
X142143809Y-94374819D01*
X142143809Y-94374819D02*
X142477142Y-95374819D01*
X143334285Y-95374819D02*
X142762857Y-95374819D01*
X143048571Y-95374819D02*
X143048571Y-94374819D01*
X143048571Y-94374819D02*
X142953333Y-94517676D01*
X142953333Y-94517676D02*
X142858095Y-94612914D01*
X142858095Y-94612914D02*
X142762857Y-94660533D01*
X124886666Y-75484819D02*
X124886666Y-76199104D01*
X124886666Y-76199104D02*
X124839047Y-76341961D01*
X124839047Y-76341961D02*
X124743809Y-76437200D01*
X124743809Y-76437200D02*
X124600952Y-76484819D01*
X124600952Y-76484819D02*
X124505714Y-76484819D01*
X125886666Y-76484819D02*
X125315238Y-76484819D01*
X125600952Y-76484819D02*
X125600952Y-75484819D01*
X125600952Y-75484819D02*
X125505714Y-75627676D01*
X125505714Y-75627676D02*
X125410476Y-75722914D01*
X125410476Y-75722914D02*
X125315238Y-75770533D01*
X138879905Y-81834819D02*
X138879905Y-80834819D01*
X138879905Y-80834819D02*
X139118000Y-80834819D01*
X139118000Y-80834819D02*
X139260857Y-80882438D01*
X139260857Y-80882438D02*
X139356095Y-80977676D01*
X139356095Y-80977676D02*
X139403714Y-81072914D01*
X139403714Y-81072914D02*
X139451333Y-81263390D01*
X139451333Y-81263390D02*
X139451333Y-81406247D01*
X139451333Y-81406247D02*
X139403714Y-81596723D01*
X139403714Y-81596723D02*
X139356095Y-81691961D01*
X139356095Y-81691961D02*
X139260857Y-81787200D01*
X139260857Y-81787200D02*
X139118000Y-81834819D01*
X139118000Y-81834819D02*
X138879905Y-81834819D01*
X140403714Y-81834819D02*
X139832286Y-81834819D01*
X140118000Y-81834819D02*
X140118000Y-80834819D01*
X140118000Y-80834819D02*
X140022762Y-80977676D01*
X140022762Y-80977676D02*
X139927524Y-81072914D01*
X139927524Y-81072914D02*
X139832286Y-81120533D01*
X135927095Y-79675819D02*
X135927095Y-78675819D01*
X136498523Y-79675819D02*
X136069952Y-79104390D01*
X136498523Y-78675819D02*
X135927095Y-79247247D01*
X147388905Y-81834819D02*
X147388905Y-80834819D01*
X147388905Y-80834819D02*
X147627000Y-80834819D01*
X147627000Y-80834819D02*
X147769857Y-80882438D01*
X147769857Y-80882438D02*
X147865095Y-80977676D01*
X147865095Y-80977676D02*
X147912714Y-81072914D01*
X147912714Y-81072914D02*
X147960333Y-81263390D01*
X147960333Y-81263390D02*
X147960333Y-81406247D01*
X147960333Y-81406247D02*
X147912714Y-81596723D01*
X147912714Y-81596723D02*
X147865095Y-81691961D01*
X147865095Y-81691961D02*
X147769857Y-81787200D01*
X147769857Y-81787200D02*
X147627000Y-81834819D01*
X147627000Y-81834819D02*
X147388905Y-81834819D01*
X148341286Y-80930057D02*
X148388905Y-80882438D01*
X148388905Y-80882438D02*
X148484143Y-80834819D01*
X148484143Y-80834819D02*
X148722238Y-80834819D01*
X148722238Y-80834819D02*
X148817476Y-80882438D01*
X148817476Y-80882438D02*
X148865095Y-80930057D01*
X148865095Y-80930057D02*
X148912714Y-81025295D01*
X148912714Y-81025295D02*
X148912714Y-81120533D01*
X148912714Y-81120533D02*
X148865095Y-81263390D01*
X148865095Y-81263390D02*
X148293667Y-81834819D01*
X148293667Y-81834819D02*
X148912714Y-81834819D01*
X144436095Y-79675819D02*
X144436095Y-78675819D01*
X145007523Y-79675819D02*
X144578952Y-79104390D01*
X145007523Y-78675819D02*
X144436095Y-79247247D01*
X155643905Y-81707819D02*
X155643905Y-80707819D01*
X155643905Y-80707819D02*
X155882000Y-80707819D01*
X155882000Y-80707819D02*
X156024857Y-80755438D01*
X156024857Y-80755438D02*
X156120095Y-80850676D01*
X156120095Y-80850676D02*
X156167714Y-80945914D01*
X156167714Y-80945914D02*
X156215333Y-81136390D01*
X156215333Y-81136390D02*
X156215333Y-81279247D01*
X156215333Y-81279247D02*
X156167714Y-81469723D01*
X156167714Y-81469723D02*
X156120095Y-81564961D01*
X156120095Y-81564961D02*
X156024857Y-81660200D01*
X156024857Y-81660200D02*
X155882000Y-81707819D01*
X155882000Y-81707819D02*
X155643905Y-81707819D01*
X156548667Y-80707819D02*
X157167714Y-80707819D01*
X157167714Y-80707819D02*
X156834381Y-81088771D01*
X156834381Y-81088771D02*
X156977238Y-81088771D01*
X156977238Y-81088771D02*
X157072476Y-81136390D01*
X157072476Y-81136390D02*
X157120095Y-81184009D01*
X157120095Y-81184009D02*
X157167714Y-81279247D01*
X157167714Y-81279247D02*
X157167714Y-81517342D01*
X157167714Y-81517342D02*
X157120095Y-81612580D01*
X157120095Y-81612580D02*
X157072476Y-81660200D01*
X157072476Y-81660200D02*
X156977238Y-81707819D01*
X156977238Y-81707819D02*
X156691524Y-81707819D01*
X156691524Y-81707819D02*
X156596286Y-81660200D01*
X156596286Y-81660200D02*
X156548667Y-81612580D01*
X152691095Y-79548819D02*
X152691095Y-78548819D01*
X153262523Y-79548819D02*
X152833952Y-78977390D01*
X153262523Y-78548819D02*
X152691095Y-79120247D01*
X152842819Y-47701094D02*
X151842819Y-47701094D01*
X151842819Y-47701094D02*
X151842819Y-47462999D01*
X151842819Y-47462999D02*
X151890438Y-47320142D01*
X151890438Y-47320142D02*
X151985676Y-47224904D01*
X151985676Y-47224904D02*
X152080914Y-47177285D01*
X152080914Y-47177285D02*
X152271390Y-47129666D01*
X152271390Y-47129666D02*
X152414247Y-47129666D01*
X152414247Y-47129666D02*
X152604723Y-47177285D01*
X152604723Y-47177285D02*
X152699961Y-47224904D01*
X152699961Y-47224904D02*
X152795200Y-47320142D01*
X152795200Y-47320142D02*
X152842819Y-47462999D01*
X152842819Y-47462999D02*
X152842819Y-47701094D01*
X152176152Y-46272523D02*
X152842819Y-46272523D01*
X151795200Y-46510618D02*
X152509485Y-46748713D01*
X152509485Y-46748713D02*
X152509485Y-46129666D01*
X153412819Y-51034904D02*
X152412819Y-51034904D01*
X153412819Y-50463476D02*
X152841390Y-50892047D01*
X152412819Y-50463476D02*
X152984247Y-51034904D01*
X186020666Y-55815819D02*
X186020666Y-56530104D01*
X186020666Y-56530104D02*
X185973047Y-56672961D01*
X185973047Y-56672961D02*
X185877809Y-56768200D01*
X185877809Y-56768200D02*
X185734952Y-56815819D01*
X185734952Y-56815819D02*
X185639714Y-56815819D01*
X186449238Y-55911057D02*
X186496857Y-55863438D01*
X186496857Y-55863438D02*
X186592095Y-55815819D01*
X186592095Y-55815819D02*
X186830190Y-55815819D01*
X186830190Y-55815819D02*
X186925428Y-55863438D01*
X186925428Y-55863438D02*
X186973047Y-55911057D01*
X186973047Y-55911057D02*
X187020666Y-56006295D01*
X187020666Y-56006295D02*
X187020666Y-56101533D01*
X187020666Y-56101533D02*
X186973047Y-56244390D01*
X186973047Y-56244390D02*
X186401619Y-56815819D01*
X186401619Y-56815819D02*
X187020666Y-56815819D01*
X184538819Y-92381333D02*
X185253104Y-92381333D01*
X185253104Y-92381333D02*
X185395961Y-92428952D01*
X185395961Y-92428952D02*
X185491200Y-92524190D01*
X185491200Y-92524190D02*
X185538819Y-92667047D01*
X185538819Y-92667047D02*
X185538819Y-92762285D01*
X184538819Y-92000380D02*
X184538819Y-91381333D01*
X184538819Y-91381333D02*
X184919771Y-91714666D01*
X184919771Y-91714666D02*
X184919771Y-91571809D01*
X184919771Y-91571809D02*
X184967390Y-91476571D01*
X184967390Y-91476571D02*
X185015009Y-91428952D01*
X185015009Y-91428952D02*
X185110247Y-91381333D01*
X185110247Y-91381333D02*
X185348342Y-91381333D01*
X185348342Y-91381333D02*
X185443580Y-91428952D01*
X185443580Y-91428952D02*
X185491200Y-91476571D01*
X185491200Y-91476571D02*
X185538819Y-91571809D01*
X185538819Y-91571809D02*
X185538819Y-91857523D01*
X185538819Y-91857523D02*
X185491200Y-91952761D01*
X185491200Y-91952761D02*
X185443580Y-92000380D01*
X157968819Y-55083666D02*
X157968819Y-55559856D01*
X157968819Y-55559856D02*
X156968819Y-55559856D01*
X157968819Y-54226523D02*
X157968819Y-54797951D01*
X157968819Y-54512237D02*
X156968819Y-54512237D01*
X156968819Y-54512237D02*
X157111676Y-54607475D01*
X157111676Y-54607475D02*
X157206914Y-54702713D01*
X157206914Y-54702713D02*
X157254533Y-54797951D01*
X191040319Y-76069738D02*
X190564128Y-76403071D01*
X191040319Y-76641166D02*
X190040319Y-76641166D01*
X190040319Y-76641166D02*
X190040319Y-76260214D01*
X190040319Y-76260214D02*
X190087938Y-76164976D01*
X190087938Y-76164976D02*
X190135557Y-76117357D01*
X190135557Y-76117357D02*
X190230795Y-76069738D01*
X190230795Y-76069738D02*
X190373652Y-76069738D01*
X190373652Y-76069738D02*
X190468890Y-76117357D01*
X190468890Y-76117357D02*
X190516509Y-76164976D01*
X190516509Y-76164976D02*
X190564128Y-76260214D01*
X190564128Y-76260214D02*
X190564128Y-76641166D01*
X190040319Y-75784023D02*
X191040319Y-75450690D01*
X191040319Y-75450690D02*
X190040319Y-75117357D01*
X191040319Y-74260214D02*
X191040319Y-74831642D01*
X191040319Y-74545928D02*
X190040319Y-74545928D01*
X190040319Y-74545928D02*
X190183176Y-74641166D01*
X190183176Y-74641166D02*
X190278414Y-74736404D01*
X190278414Y-74736404D02*
X190326033Y-74831642D01*
X182939819Y-115376713D02*
X182939819Y-114805285D01*
X183939819Y-115090999D02*
X182939819Y-115090999D01*
X183939819Y-114471951D02*
X182939819Y-114471951D01*
X183416009Y-114471951D02*
X183416009Y-113900523D01*
X183939819Y-113900523D02*
X182939819Y-113900523D01*
X183939819Y-112900523D02*
X183939819Y-113471951D01*
X183939819Y-113186237D02*
X182939819Y-113186237D01*
X182939819Y-113186237D02*
X183082676Y-113281475D01*
X183082676Y-113281475D02*
X183177914Y-113376713D01*
X183177914Y-113376713D02*
X183225533Y-113471951D01*
X186173095Y-87208319D02*
X186744523Y-87208319D01*
X186458809Y-88208319D02*
X186458809Y-87208319D01*
X187077857Y-88208319D02*
X187077857Y-87208319D01*
X187077857Y-87208319D02*
X187458809Y-87208319D01*
X187458809Y-87208319D02*
X187554047Y-87255938D01*
X187554047Y-87255938D02*
X187601666Y-87303557D01*
X187601666Y-87303557D02*
X187649285Y-87398795D01*
X187649285Y-87398795D02*
X187649285Y-87541652D01*
X187649285Y-87541652D02*
X187601666Y-87636890D01*
X187601666Y-87636890D02*
X187554047Y-87684509D01*
X187554047Y-87684509D02*
X187458809Y-87732128D01*
X187458809Y-87732128D02*
X187077857Y-87732128D01*
X188030238Y-87303557D02*
X188077857Y-87255938D01*
X188077857Y-87255938D02*
X188173095Y-87208319D01*
X188173095Y-87208319D02*
X188411190Y-87208319D01*
X188411190Y-87208319D02*
X188506428Y-87255938D01*
X188506428Y-87255938D02*
X188554047Y-87303557D01*
X188554047Y-87303557D02*
X188601666Y-87398795D01*
X188601666Y-87398795D02*
X188601666Y-87494033D01*
X188601666Y-87494033D02*
X188554047Y-87636890D01*
X188554047Y-87636890D02*
X187982619Y-88208319D01*
X187982619Y-88208319D02*
X188601666Y-88208319D01*
X186173095Y-66443819D02*
X186744523Y-66443819D01*
X186458809Y-67443819D02*
X186458809Y-66443819D01*
X187077857Y-67443819D02*
X187077857Y-66443819D01*
X187077857Y-66443819D02*
X187458809Y-66443819D01*
X187458809Y-66443819D02*
X187554047Y-66491438D01*
X187554047Y-66491438D02*
X187601666Y-66539057D01*
X187601666Y-66539057D02*
X187649285Y-66634295D01*
X187649285Y-66634295D02*
X187649285Y-66777152D01*
X187649285Y-66777152D02*
X187601666Y-66872390D01*
X187601666Y-66872390D02*
X187554047Y-66920009D01*
X187554047Y-66920009D02*
X187458809Y-66967628D01*
X187458809Y-66967628D02*
X187077857Y-66967628D01*
X188601666Y-67443819D02*
X188030238Y-67443819D01*
X188315952Y-67443819D02*
X188315952Y-66443819D01*
X188315952Y-66443819D02*
X188220714Y-66586676D01*
X188220714Y-66586676D02*
X188125476Y-66681914D01*
X188125476Y-66681914D02*
X188030238Y-66729533D01*
X178394819Y-54172904D02*
X179204342Y-54172904D01*
X179204342Y-54172904D02*
X179299580Y-54125285D01*
X179299580Y-54125285D02*
X179347200Y-54077666D01*
X179347200Y-54077666D02*
X179394819Y-53982428D01*
X179394819Y-53982428D02*
X179394819Y-53791952D01*
X179394819Y-53791952D02*
X179347200Y-53696714D01*
X179347200Y-53696714D02*
X179299580Y-53649095D01*
X179299580Y-53649095D02*
X179204342Y-53601476D01*
X179204342Y-53601476D02*
X178394819Y-53601476D01*
X179394819Y-52601476D02*
X179394819Y-53172904D01*
X179394819Y-52887190D02*
X178394819Y-52887190D01*
X178394819Y-52887190D02*
X178537676Y-52982428D01*
X178537676Y-52982428D02*
X178632914Y-53077666D01*
X178632914Y-53077666D02*
X178680533Y-53172904D01*
D11*
%TO.C,A1*%
X133600000Y-96060000D02*
X133600000Y-98730000D01*
X133600000Y-101270000D02*
X133600000Y-139500000D01*
X133600000Y-139500000D02*
X151640000Y-139500000D01*
X136270000Y-98730000D02*
X133600000Y-98730000D01*
X136270000Y-101270000D02*
X133600000Y-101270000D01*
X136270000Y-101270000D02*
X136270000Y-98730000D01*
X136270000Y-101270000D02*
X136270000Y-136830000D01*
X136270000Y-136830000D02*
X133600000Y-136830000D01*
X148970000Y-98730000D02*
X148970000Y-136830000D01*
X148970000Y-98730000D02*
X151640000Y-98730000D01*
X148970000Y-136830000D02*
X151640000Y-136830000D01*
X151640000Y-96060000D02*
X133600000Y-96060000D01*
X151640000Y-139500000D02*
X151640000Y-96060000D01*
%TO.C,J1*%
X119510000Y-77470000D02*
X119510000Y-102990000D01*
X119510000Y-77470000D02*
X128140000Y-77470000D01*
X119510000Y-77590000D02*
X128140000Y-77590000D01*
X119510000Y-77708095D02*
X128140000Y-77708095D01*
X119510000Y-77826190D02*
X128140000Y-77826190D01*
X119510000Y-77944285D02*
X128140000Y-77944285D01*
X119510000Y-78062380D02*
X128140000Y-78062380D01*
X119510000Y-78180475D02*
X128140000Y-78180475D01*
X119510000Y-78298570D02*
X128140000Y-78298570D01*
X119510000Y-78416665D02*
X128140000Y-78416665D01*
X119510000Y-78534760D02*
X128140000Y-78534760D01*
X119510000Y-78652855D02*
X128140000Y-78652855D01*
X119510000Y-78770950D02*
X128140000Y-78770950D01*
X119510000Y-78889045D02*
X128140000Y-78889045D01*
X119510000Y-79007140D02*
X128140000Y-79007140D01*
X119510000Y-79125235D02*
X128140000Y-79125235D01*
X119510000Y-79243330D02*
X128140000Y-79243330D01*
X119510000Y-79361425D02*
X128140000Y-79361425D01*
X119510000Y-79479520D02*
X128140000Y-79479520D01*
X119510000Y-79597615D02*
X128140000Y-79597615D01*
X119510000Y-79715710D02*
X128140000Y-79715710D01*
X119510000Y-79833805D02*
X128140000Y-79833805D01*
X119510000Y-79951900D02*
X128140000Y-79951900D01*
X119510000Y-80070000D02*
X128140000Y-80070000D01*
X119510000Y-82610000D02*
X128140000Y-82610000D01*
X119510000Y-85150000D02*
X128140000Y-85150000D01*
X119510000Y-87690000D02*
X128140000Y-87690000D01*
X119510000Y-90230000D02*
X128140000Y-90230000D01*
X119510000Y-92770000D02*
X128140000Y-92770000D01*
X119510000Y-95310000D02*
X128140000Y-95310000D01*
X119510000Y-97850000D02*
X128140000Y-97850000D01*
X119510000Y-100390000D02*
X128140000Y-100390000D01*
X119510000Y-102990000D02*
X128140000Y-102990000D01*
X128140000Y-77470000D02*
X128140000Y-102990000D01*
X128140000Y-78440000D02*
X128490000Y-78440000D01*
X128140000Y-79160000D02*
X128490000Y-79160000D01*
X128140000Y-80980000D02*
X128550000Y-80980000D01*
X128140000Y-81700000D02*
X128550000Y-81700000D01*
X128140000Y-83520000D02*
X128550000Y-83520000D01*
X128140000Y-84240000D02*
X128550000Y-84240000D01*
X128140000Y-86060000D02*
X128550000Y-86060000D01*
X128140000Y-86780000D02*
X128550000Y-86780000D01*
X128140000Y-88600000D02*
X128550000Y-88600000D01*
X128140000Y-89320000D02*
X128550000Y-89320000D01*
X128140000Y-91140000D02*
X128550000Y-91140000D01*
X128140000Y-91860000D02*
X128550000Y-91860000D01*
X128140000Y-93680000D02*
X128550000Y-93680000D01*
X128140000Y-94400000D02*
X128550000Y-94400000D01*
X128140000Y-96220000D02*
X128550000Y-96220000D01*
X128140000Y-96940000D02*
X128550000Y-96940000D01*
X128140000Y-98760000D02*
X128550000Y-98760000D01*
X128140000Y-99480000D02*
X128550000Y-99480000D01*
X128140000Y-101300000D02*
X128550000Y-101300000D01*
X128140000Y-102020000D02*
X128550000Y-102020000D01*
X129600000Y-77470000D02*
X130710000Y-77470000D01*
X130710000Y-77470000D02*
X130710000Y-78800000D01*
D12*
%TO.C,Logo1*%
X172685814Y-133331931D02*
X172769635Y-133776555D01*
X173078920Y-133904053D01*
X173388206Y-134031551D01*
X173759246Y-133779246D01*
X173863157Y-133708996D01*
X173957087Y-133646272D01*
X174036652Y-133593938D01*
X174097470Y-133554857D01*
X174135157Y-133531893D01*
X174145421Y-133526942D01*
X174163910Y-133539676D01*
X174203420Y-133574882D01*
X174259522Y-133628062D01*
X174327787Y-133694718D01*
X174403786Y-133770354D01*
X174483092Y-133850472D01*
X174561275Y-133930574D01*
X174633907Y-134006164D01*
X174696559Y-134072745D01*
X174744803Y-134125818D01*
X174774210Y-134160887D01*
X174781241Y-134172623D01*
X174771123Y-134194260D01*
X174742759Y-134241662D01*
X174699129Y-134310193D01*
X174643218Y-134395215D01*
X174578006Y-134492093D01*
X174540219Y-134547350D01*
X174471343Y-134648248D01*
X174410140Y-134739299D01*
X174359578Y-134815970D01*
X174322628Y-134873728D01*
X174302258Y-134908043D01*
X174299197Y-134915254D01*
X174306136Y-134935748D01*
X174325051Y-134983513D01*
X174353087Y-135051832D01*
X174387391Y-135133989D01*
X174425109Y-135223270D01*
X174463387Y-135312958D01*
X174499370Y-135396338D01*
X174530206Y-135466694D01*
X174553039Y-135517310D01*
X174565017Y-135541471D01*
X174565724Y-135542422D01*
X174584531Y-135547036D01*
X174634618Y-135557328D01*
X174710793Y-135572287D01*
X174807865Y-135590901D01*
X174920643Y-135612159D01*
X174986442Y-135624418D01*
X175106950Y-135647362D01*
X175215797Y-135669195D01*
X175307476Y-135688722D01*
X175376481Y-135704748D01*
X175417304Y-135716079D01*
X175425511Y-135719674D01*
X175433548Y-135744006D01*
X175440033Y-135798959D01*
X175444970Y-135878108D01*
X175448364Y-135975026D01*
X175450218Y-136083287D01*
X175450538Y-136196465D01*
X175449327Y-136308135D01*
X175446590Y-136411868D01*
X175442331Y-136501241D01*
X175436555Y-136569826D01*
X175429267Y-136611197D01*
X175424895Y-136619810D01*
X175398764Y-136630133D01*
X175343393Y-136644892D01*
X175266107Y-136662352D01*
X175174230Y-136680780D01*
X175142158Y-136686741D01*
X174987524Y-136715066D01*
X174865375Y-136737876D01*
X174771673Y-136756080D01*
X174702384Y-136770583D01*
X174653471Y-136782292D01*
X174620897Y-136792115D01*
X174600628Y-136800956D01*
X174588626Y-136809724D01*
X174586947Y-136811457D01*
X174570184Y-136839371D01*
X174544614Y-136893695D01*
X174512788Y-136967777D01*
X174477260Y-137054965D01*
X174440583Y-137148608D01*
X174405311Y-137242052D01*
X174373996Y-137328647D01*
X174349193Y-137401740D01*
X174333454Y-137454678D01*
X174329332Y-137480811D01*
X174329676Y-137481726D01*
X174343641Y-137503086D01*
X174375322Y-137550084D01*
X174421391Y-137617827D01*
X174478518Y-137701423D01*
X174543373Y-137795982D01*
X174561843Y-137822854D01*
X174627699Y-137920275D01*
X174685650Y-138009163D01*
X174732538Y-138084412D01*
X174765207Y-138140920D01*
X174780500Y-138173581D01*
X174781241Y-138177593D01*
X174768392Y-138198684D01*
X174732888Y-138240464D01*
X174679293Y-138298445D01*
X174612171Y-138368135D01*
X174536087Y-138445045D01*
X174455604Y-138524683D01*
X174375287Y-138602561D01*
X174299699Y-138674186D01*
X174233405Y-138735070D01*
X174180969Y-138780721D01*
X174146955Y-138806650D01*
X174137545Y-138810883D01*
X174115643Y-138800912D01*
X174070800Y-138774020D01*
X174010321Y-138734736D01*
X173963789Y-138703117D01*
X173879475Y-138645098D01*
X173779626Y-138576784D01*
X173679473Y-138508579D01*
X173625627Y-138472075D01*
X173443371Y-138348800D01*
X173290381Y-138431520D01*
X173220682Y-138467759D01*
X173161414Y-138495926D01*
X173121311Y-138511991D01*
X173111103Y-138514226D01*
X173098829Y-138497722D01*
X173074613Y-138451082D01*
X173040263Y-138378609D01*
X172997588Y-138284606D01*
X172948394Y-138173374D01*
X172894490Y-138049215D01*
X172837684Y-137916432D01*
X172779782Y-137779327D01*
X172722593Y-137642202D01*
X172667924Y-137509358D01*
X172617584Y-137385098D01*
X172573380Y-137273725D01*
X172537119Y-137179539D01*
X172510609Y-137106844D01*
X172495658Y-137059941D01*
X172493254Y-137043833D01*
X172512311Y-137023286D01*
X172554036Y-136989933D01*
X172609706Y-136950702D01*
X172614378Y-136947599D01*
X172758264Y-136832423D01*
X172874283Y-136698053D01*
X172961430Y-136548784D01*
X173018699Y-136388913D01*
X173045086Y-136222737D01*
X173039585Y-136054552D01*
X173001190Y-135888655D01*
X172928895Y-135729342D01*
X172907626Y-135694487D01*
X172796996Y-135553737D01*
X172666302Y-135440714D01*
X172520064Y-135356003D01*
X172362808Y-135300194D01*
X172199057Y-135273874D01*
X172033333Y-135277630D01*
X171870162Y-135312050D01*
X171714065Y-135377723D01*
X171569567Y-135475235D01*
X171524869Y-135514813D01*
X171411112Y-135638703D01*
X171328218Y-135769124D01*
X171271356Y-135915315D01*
X171239687Y-136060088D01*
X171231869Y-136222860D01*
X171257938Y-136386440D01*
X171315245Y-136545298D01*
X171401144Y-136693906D01*
X171512986Y-136826735D01*
X171648123Y-136938256D01*
X171665883Y-136950011D01*
X171722150Y-136988508D01*
X171764923Y-137021863D01*
X171785372Y-137043160D01*
X171785669Y-137043833D01*
X171781279Y-137066871D01*
X171763876Y-137119157D01*
X171735268Y-137196390D01*
X171697265Y-137294268D01*
X171651674Y-137408491D01*
X171600303Y-137534758D01*
X171544962Y-137668767D01*
X171487458Y-137806218D01*
X171429601Y-137942808D01*
X171373198Y-138074237D01*
X171320058Y-138196205D01*
X171271990Y-138304409D01*
X171230801Y-138394549D01*
X171198301Y-138462323D01*
X171176297Y-138503430D01*
X171167436Y-138514226D01*
X171140360Y-138505819D01*
X171089697Y-138483272D01*
X171024183Y-138450613D01*
X170988159Y-138431520D01*
X170835168Y-138348800D01*
X170652912Y-138472075D01*
X170559875Y-138535228D01*
X170458015Y-138604727D01*
X170362562Y-138670165D01*
X170314750Y-138703117D01*
X170247505Y-138748273D01*
X170190564Y-138784057D01*
X170151354Y-138805938D01*
X170138619Y-138810563D01*
X170120083Y-138798085D01*
X170079059Y-138763252D01*
X170019525Y-138709678D01*
X169945458Y-138640983D01*
X169860835Y-138560781D01*
X169807315Y-138509286D01*
X169713681Y-138417286D01*
X169632759Y-138334999D01*
X169567823Y-138265945D01*
X169522142Y-138213644D01*
X169498989Y-138181616D01*
X169496768Y-138175116D01*
X169507076Y-138150394D01*
X169535561Y-138100405D01*
X169579063Y-138030212D01*
X169634423Y-137944875D01*
X169698480Y-137849456D01*
X169716697Y-137822854D01*
X169783073Y-137726167D01*
X169842622Y-137639117D01*
X169892016Y-137566595D01*
X169927925Y-137513493D01*
X169947019Y-137484703D01*
X169948864Y-137481726D01*
X169946105Y-137458782D01*
X169931462Y-137408336D01*
X169907487Y-137337041D01*
X169876734Y-137251547D01*
X169841756Y-137158507D01*
X169805107Y-137064574D01*
X169769339Y-136976399D01*
X169737006Y-136900634D01*
X169710662Y-136843931D01*
X169692858Y-136812943D01*
X169691593Y-136811457D01*
X169680706Y-136802601D01*
X169662318Y-136793843D01*
X169632394Y-136784277D01*
X169586897Y-136772996D01*
X169521791Y-136759093D01*
X169433039Y-136741663D01*
X169316607Y-136719798D01*
X169168458Y-136692591D01*
X169136382Y-136686741D01*
X169041314Y-136668374D01*
X168958435Y-136650405D01*
X168895070Y-136634569D01*
X168858542Y-136622600D01*
X168853644Y-136619810D01*
X168845573Y-136595072D01*
X168839013Y-136539790D01*
X168833967Y-136460389D01*
X168830441Y-136363296D01*
X168828439Y-136254938D01*
X168827964Y-136141740D01*
X168829023Y-136030128D01*
X168831618Y-135926529D01*
X168835754Y-135837368D01*
X168841437Y-135769072D01*
X168848669Y-135728066D01*
X168853029Y-135719674D01*
X168877302Y-135711208D01*
X168932574Y-135697435D01*
X169013338Y-135679550D01*
X169114088Y-135658748D01*
X169229317Y-135636223D01*
X169292098Y-135624418D01*
X169411213Y-135602151D01*
X169517435Y-135581979D01*
X169605573Y-135564915D01*
X169670434Y-135551969D01*
X169706826Y-135544155D01*
X169712816Y-135542422D01*
X169722939Y-135522890D01*
X169744338Y-135475843D01*
X169774161Y-135408003D01*
X169809555Y-135326091D01*
X169847668Y-135236828D01*
X169885647Y-135146935D01*
X169920640Y-135063135D01*
X169949794Y-134992147D01*
X169970257Y-134940694D01*
X169979177Y-134915497D01*
X169979343Y-134914396D01*
X169969231Y-134894519D01*
X169940883Y-134848777D01*
X169897277Y-134781717D01*
X169841394Y-134697884D01*
X169776213Y-134601826D01*
X169738321Y-134546650D01*
X169669275Y-134445481D01*
X169607950Y-134353630D01*
X169557337Y-134275744D01*
X169520429Y-134216469D01*
X169500218Y-134180451D01*
X169497299Y-134172377D01*
X169509847Y-134153584D01*
X169544537Y-134113457D01*
X169596937Y-134056493D01*
X169662616Y-133987185D01*
X169737144Y-133910031D01*
X169816087Y-133829525D01*
X169895017Y-133750163D01*
X169969500Y-133676440D01*
X170035106Y-133612852D01*
X170087404Y-133563894D01*
X170121961Y-133534061D01*
X170133522Y-133526942D01*
X170152346Y-133536953D01*
X170197369Y-133565078D01*
X170264213Y-133608454D01*
X170348501Y-133664218D01*
X170445856Y-133729506D01*
X170519293Y-133779246D01*
X170890333Y-134031551D01*
X171508905Y-133776555D01*
X171592725Y-133331931D01*
X171676546Y-132887307D01*
X172601994Y-132887307D01*
X172685814Y-133331931D01*
G36*
X172685814Y-133331931D02*
G01*
X172769635Y-133776555D01*
X173078920Y-133904053D01*
X173388206Y-134031551D01*
X173759246Y-133779246D01*
X173863157Y-133708996D01*
X173957087Y-133646272D01*
X174036652Y-133593938D01*
X174097470Y-133554857D01*
X174135157Y-133531893D01*
X174145421Y-133526942D01*
X174163910Y-133539676D01*
X174203420Y-133574882D01*
X174259522Y-133628062D01*
X174327787Y-133694718D01*
X174403786Y-133770354D01*
X174483092Y-133850472D01*
X174561275Y-133930574D01*
X174633907Y-134006164D01*
X174696559Y-134072745D01*
X174744803Y-134125818D01*
X174774210Y-134160887D01*
X174781241Y-134172623D01*
X174771123Y-134194260D01*
X174742759Y-134241662D01*
X174699129Y-134310193D01*
X174643218Y-134395215D01*
X174578006Y-134492093D01*
X174540219Y-134547350D01*
X174471343Y-134648248D01*
X174410140Y-134739299D01*
X174359578Y-134815970D01*
X174322628Y-134873728D01*
X174302258Y-134908043D01*
X174299197Y-134915254D01*
X174306136Y-134935748D01*
X174325051Y-134983513D01*
X174353087Y-135051832D01*
X174387391Y-135133989D01*
X174425109Y-135223270D01*
X174463387Y-135312958D01*
X174499370Y-135396338D01*
X174530206Y-135466694D01*
X174553039Y-135517310D01*
X174565017Y-135541471D01*
X174565724Y-135542422D01*
X174584531Y-135547036D01*
X174634618Y-135557328D01*
X174710793Y-135572287D01*
X174807865Y-135590901D01*
X174920643Y-135612159D01*
X174986442Y-135624418D01*
X175106950Y-135647362D01*
X175215797Y-135669195D01*
X175307476Y-135688722D01*
X175376481Y-135704748D01*
X175417304Y-135716079D01*
X175425511Y-135719674D01*
X175433548Y-135744006D01*
X175440033Y-135798959D01*
X175444970Y-135878108D01*
X175448364Y-135975026D01*
X175450218Y-136083287D01*
X175450538Y-136196465D01*
X175449327Y-136308135D01*
X175446590Y-136411868D01*
X175442331Y-136501241D01*
X175436555Y-136569826D01*
X175429267Y-136611197D01*
X175424895Y-136619810D01*
X175398764Y-136630133D01*
X175343393Y-136644892D01*
X175266107Y-136662352D01*
X175174230Y-136680780D01*
X175142158Y-136686741D01*
X174987524Y-136715066D01*
X174865375Y-136737876D01*
X174771673Y-136756080D01*
X174702384Y-136770583D01*
X174653471Y-136782292D01*
X174620897Y-136792115D01*
X174600628Y-136800956D01*
X174588626Y-136809724D01*
X174586947Y-136811457D01*
X174570184Y-136839371D01*
X174544614Y-136893695D01*
X174512788Y-136967777D01*
X174477260Y-137054965D01*
X174440583Y-137148608D01*
X174405311Y-137242052D01*
X174373996Y-137328647D01*
X174349193Y-137401740D01*
X174333454Y-137454678D01*
X174329332Y-137480811D01*
X174329676Y-137481726D01*
X174343641Y-137503086D01*
X174375322Y-137550084D01*
X174421391Y-137617827D01*
X174478518Y-137701423D01*
X174543373Y-137795982D01*
X174561843Y-137822854D01*
X174627699Y-137920275D01*
X174685650Y-138009163D01*
X174732538Y-138084412D01*
X174765207Y-138140920D01*
X174780500Y-138173581D01*
X174781241Y-138177593D01*
X174768392Y-138198684D01*
X174732888Y-138240464D01*
X174679293Y-138298445D01*
X174612171Y-138368135D01*
X174536087Y-138445045D01*
X174455604Y-138524683D01*
X174375287Y-138602561D01*
X174299699Y-138674186D01*
X174233405Y-138735070D01*
X174180969Y-138780721D01*
X174146955Y-138806650D01*
X174137545Y-138810883D01*
X174115643Y-138800912D01*
X174070800Y-138774020D01*
X174010321Y-138734736D01*
X173963789Y-138703117D01*
X173879475Y-138645098D01*
X173779626Y-138576784D01*
X173679473Y-138508579D01*
X173625627Y-138472075D01*
X173443371Y-138348800D01*
X173290381Y-138431520D01*
X173220682Y-138467759D01*
X173161414Y-138495926D01*
X173121311Y-138511991D01*
X173111103Y-138514226D01*
X173098829Y-138497722D01*
X173074613Y-138451082D01*
X173040263Y-138378609D01*
X172997588Y-138284606D01*
X172948394Y-138173374D01*
X172894490Y-138049215D01*
X172837684Y-137916432D01*
X172779782Y-137779327D01*
X172722593Y-137642202D01*
X172667924Y-137509358D01*
X172617584Y-137385098D01*
X172573380Y-137273725D01*
X172537119Y-137179539D01*
X172510609Y-137106844D01*
X172495658Y-137059941D01*
X172493254Y-137043833D01*
X172512311Y-137023286D01*
X172554036Y-136989933D01*
X172609706Y-136950702D01*
X172614378Y-136947599D01*
X172758264Y-136832423D01*
X172874283Y-136698053D01*
X172961430Y-136548784D01*
X173018699Y-136388913D01*
X173045086Y-136222737D01*
X173039585Y-136054552D01*
X173001190Y-135888655D01*
X172928895Y-135729342D01*
X172907626Y-135694487D01*
X172796996Y-135553737D01*
X172666302Y-135440714D01*
X172520064Y-135356003D01*
X172362808Y-135300194D01*
X172199057Y-135273874D01*
X172033333Y-135277630D01*
X171870162Y-135312050D01*
X171714065Y-135377723D01*
X171569567Y-135475235D01*
X171524869Y-135514813D01*
X171411112Y-135638703D01*
X171328218Y-135769124D01*
X171271356Y-135915315D01*
X171239687Y-136060088D01*
X171231869Y-136222860D01*
X171257938Y-136386440D01*
X171315245Y-136545298D01*
X171401144Y-136693906D01*
X171512986Y-136826735D01*
X171648123Y-136938256D01*
X171665883Y-136950011D01*
X171722150Y-136988508D01*
X171764923Y-137021863D01*
X171785372Y-137043160D01*
X171785669Y-137043833D01*
X171781279Y-137066871D01*
X171763876Y-137119157D01*
X171735268Y-137196390D01*
X171697265Y-137294268D01*
X171651674Y-137408491D01*
X171600303Y-137534758D01*
X171544962Y-137668767D01*
X171487458Y-137806218D01*
X171429601Y-137942808D01*
X171373198Y-138074237D01*
X171320058Y-138196205D01*
X171271990Y-138304409D01*
X171230801Y-138394549D01*
X171198301Y-138462323D01*
X171176297Y-138503430D01*
X171167436Y-138514226D01*
X171140360Y-138505819D01*
X171089697Y-138483272D01*
X171024183Y-138450613D01*
X170988159Y-138431520D01*
X170835168Y-138348800D01*
X170652912Y-138472075D01*
X170559875Y-138535228D01*
X170458015Y-138604727D01*
X170362562Y-138670165D01*
X170314750Y-138703117D01*
X170247505Y-138748273D01*
X170190564Y-138784057D01*
X170151354Y-138805938D01*
X170138619Y-138810563D01*
X170120083Y-138798085D01*
X170079059Y-138763252D01*
X170019525Y-138709678D01*
X169945458Y-138640983D01*
X169860835Y-138560781D01*
X169807315Y-138509286D01*
X169713681Y-138417286D01*
X169632759Y-138334999D01*
X169567823Y-138265945D01*
X169522142Y-138213644D01*
X169498989Y-138181616D01*
X169496768Y-138175116D01*
X169507076Y-138150394D01*
X169535561Y-138100405D01*
X169579063Y-138030212D01*
X169634423Y-137944875D01*
X169698480Y-137849456D01*
X169716697Y-137822854D01*
X169783073Y-137726167D01*
X169842622Y-137639117D01*
X169892016Y-137566595D01*
X169927925Y-137513493D01*
X169947019Y-137484703D01*
X169948864Y-137481726D01*
X169946105Y-137458782D01*
X169931462Y-137408336D01*
X169907487Y-137337041D01*
X169876734Y-137251547D01*
X169841756Y-137158507D01*
X169805107Y-137064574D01*
X169769339Y-136976399D01*
X169737006Y-136900634D01*
X169710662Y-136843931D01*
X169692858Y-136812943D01*
X169691593Y-136811457D01*
X169680706Y-136802601D01*
X169662318Y-136793843D01*
X169632394Y-136784277D01*
X169586897Y-136772996D01*
X169521791Y-136759093D01*
X169433039Y-136741663D01*
X169316607Y-136719798D01*
X169168458Y-136692591D01*
X169136382Y-136686741D01*
X169041314Y-136668374D01*
X168958435Y-136650405D01*
X168895070Y-136634569D01*
X168858542Y-136622600D01*
X168853644Y-136619810D01*
X168845573Y-136595072D01*
X168839013Y-136539790D01*
X168833967Y-136460389D01*
X168830441Y-136363296D01*
X168828439Y-136254938D01*
X168827964Y-136141740D01*
X168829023Y-136030128D01*
X168831618Y-135926529D01*
X168835754Y-135837368D01*
X168841437Y-135769072D01*
X168848669Y-135728066D01*
X168853029Y-135719674D01*
X168877302Y-135711208D01*
X168932574Y-135697435D01*
X169013338Y-135679550D01*
X169114088Y-135658748D01*
X169229317Y-135636223D01*
X169292098Y-135624418D01*
X169411213Y-135602151D01*
X169517435Y-135581979D01*
X169605573Y-135564915D01*
X169670434Y-135551969D01*
X169706826Y-135544155D01*
X169712816Y-135542422D01*
X169722939Y-135522890D01*
X169744338Y-135475843D01*
X169774161Y-135408003D01*
X169809555Y-135326091D01*
X169847668Y-135236828D01*
X169885647Y-135146935D01*
X169920640Y-135063135D01*
X169949794Y-134992147D01*
X169970257Y-134940694D01*
X169979177Y-134915497D01*
X169979343Y-134914396D01*
X169969231Y-134894519D01*
X169940883Y-134848777D01*
X169897277Y-134781717D01*
X169841394Y-134697884D01*
X169776213Y-134601826D01*
X169738321Y-134546650D01*
X169669275Y-134445481D01*
X169607950Y-134353630D01*
X169557337Y-134275744D01*
X169520429Y-134216469D01*
X169500218Y-134180451D01*
X169497299Y-134172377D01*
X169509847Y-134153584D01*
X169544537Y-134113457D01*
X169596937Y-134056493D01*
X169662616Y-133987185D01*
X169737144Y-133910031D01*
X169816087Y-133829525D01*
X169895017Y-133750163D01*
X169969500Y-133676440D01*
X170035106Y-133612852D01*
X170087404Y-133563894D01*
X170121961Y-133534061D01*
X170133522Y-133526942D01*
X170152346Y-133536953D01*
X170197369Y-133565078D01*
X170264213Y-133608454D01*
X170348501Y-133664218D01*
X170445856Y-133729506D01*
X170519293Y-133779246D01*
X170890333Y-134031551D01*
X171508905Y-133776555D01*
X171592725Y-133331931D01*
X171676546Y-132887307D01*
X172601994Y-132887307D01*
X172685814Y-133331931D01*
G37*
D10*
%TO.C,D1*%
X136864000Y-78816000D02*
X136864000Y-75816000D01*
X136864001Y-75816000D02*
G75*
G02*
X136879113Y-78840903I2499999J-1500000D01*
G01*
X141881936Y-77316000D02*
G75*
G02*
X136846064Y-77316000I-2517936J0D01*
G01*
X136846064Y-77316000D02*
G75*
G02*
X141881936Y-77316000I2517936J0D01*
G01*
%TO.C,D2*%
X145373000Y-78816000D02*
X145373000Y-75816000D01*
X145373001Y-75816000D02*
G75*
G02*
X145388113Y-78840903I2499999J-1500000D01*
G01*
X150390936Y-77316000D02*
G75*
G02*
X145355064Y-77316000I-2517936J0D01*
G01*
X145355064Y-77316000D02*
G75*
G02*
X150390936Y-77316000I2517936J0D01*
G01*
%TO.C,D3*%
X153628000Y-78689000D02*
X153628000Y-75689000D01*
X153628001Y-75689000D02*
G75*
G02*
X153643113Y-78713903I2499999J-1500000D01*
G01*
X158645936Y-77189000D02*
G75*
G02*
X153610064Y-77189000I-2517936J0D01*
G01*
X153610064Y-77189000D02*
G75*
G02*
X158645936Y-77189000I2517936J0D01*
G01*
D11*
%TO.C,D4*%
X153388000Y-44243000D02*
X153718000Y-44243000D01*
X153388000Y-48663000D02*
X156328000Y-48663000D01*
X153388000Y-48783000D02*
X156328000Y-48783000D01*
X153388000Y-48903000D02*
X156328000Y-48903000D01*
X153388000Y-49683000D02*
X153388000Y-44243000D01*
X153718000Y-49683000D02*
X153388000Y-49683000D01*
X155998000Y-49683000D02*
X156328000Y-49683000D01*
X156328000Y-44243000D02*
X155998000Y-44243000D01*
X156328000Y-49683000D02*
X156328000Y-44243000D01*
%TO.C,J2*%
X182744000Y-48913000D02*
X182744000Y-49313000D01*
X182984000Y-49153000D02*
X182984000Y-54933000D01*
X183384000Y-48913000D02*
X182744000Y-48913000D01*
X183504000Y-49153000D02*
X183504000Y-54933000D01*
X188604000Y-49153000D02*
X188604000Y-54933000D01*
X189724000Y-49153000D02*
X182984000Y-49153000D01*
X189724000Y-49153000D02*
X189724000Y-54933000D01*
X189724000Y-54933000D02*
X182984000Y-54933000D01*
%TO.C,J3*%
X182109000Y-94125000D02*
X182109000Y-94525000D01*
X182349000Y-94365000D02*
X182349000Y-100145000D01*
X182749000Y-94125000D02*
X182109000Y-94125000D01*
X182869000Y-94365000D02*
X182869000Y-100145000D01*
X187969000Y-94365000D02*
X187969000Y-100145000D01*
X189089000Y-94365000D02*
X182349000Y-94365000D01*
X189089000Y-94365000D02*
X189089000Y-100145000D01*
X189089000Y-100145000D02*
X182349000Y-100145000D01*
%TO.C,L1*%
X163304000Y-60860299D02*
G75*
G02*
X163304000Y-48973701I1460000J5943299D01*
G01*
X166224000Y-48973701D02*
G75*
G02*
X166224000Y-60860299I-1460000J-5943299D01*
G01*
%TO.C,RV1*%
X184385500Y-70589500D02*
X184385500Y-80359500D01*
X189455500Y-70589500D02*
X184385500Y-70589500D01*
X189455500Y-70589500D02*
X189455500Y-80359500D01*
X189455500Y-80359500D02*
X184385500Y-80359500D01*
%TO.C,TH1*%
X184615000Y-107471000D02*
X188855000Y-107471000D01*
X184615000Y-120711000D02*
X184615000Y-107471000D01*
X184615000Y-120711000D02*
X188855000Y-120711000D01*
X188855000Y-120711000D02*
X188855000Y-107471000D01*
%TO.C,TP2*%
X188435000Y-85253500D02*
G75*
G02*
X185035000Y-85253500I-1700000J0D01*
G01*
X185035000Y-85253500D02*
G75*
G02*
X188435000Y-85253500I1700000J0D01*
G01*
%TO.C,TP1*%
X188435000Y-64489000D02*
G75*
G02*
X185035000Y-64489000I-1700000J0D01*
G01*
X185035000Y-64489000D02*
G75*
G02*
X188435000Y-64489000I1700000J0D01*
G01*
%TO.C,U1*%
X173299000Y-48290000D02*
X173299000Y-58531000D01*
X176430000Y-48290000D02*
X176430000Y-58531000D01*
X177940000Y-48290000D02*
X173299000Y-48290000D01*
X177940000Y-48290000D02*
X177940000Y-58531000D01*
X177940000Y-51561000D02*
X176430000Y-51561000D01*
X177940000Y-55261000D02*
X176430000Y-55261000D01*
X177940000Y-58531000D02*
X173299000Y-58531000D01*
%TD*%
D13*
%TO.C,D1*%
X138094000Y-77316000D03*
D14*
X140634000Y-77316000D03*
%TD*%
D13*
%TO.C,D2*%
X146603000Y-77316000D03*
D14*
X149143000Y-77316000D03*
%TD*%
D13*
%TO.C,D3*%
X154858000Y-77189000D03*
D14*
X157398000Y-77189000D03*
%TD*%
M02*
