%TF.GenerationSoftware,KiCad,Pcbnew,8.0.1*%
%TF.CreationDate,2024-04-21T18:12:41-04:00*%
%TF.ProjectId,BREAD_Slice,42524541-445f-4536-9c69-63652e6b6963,rev?*%
%TF.SameCoordinates,Original*%
%TF.FileFunction,Soldermask,Bot*%
%TF.FilePolarity,Negative*%
%FSLAX46Y46*%
G04 Gerber Fmt 4.6, Leading zero omitted, Abs format (unit mm)*
G04 Created by KiCad (PCBNEW 8.0.1) date 2024-04-21 18:12:41*
%MOMM*%
%LPD*%
G01*
G04 APERTURE LIST*
G04 Aperture macros list*
%AMRoundRect*
0 Rectangle with rounded corners*
0 $1 Rounding radius*
0 $2 $3 $4 $5 $6 $7 $8 $9 X,Y pos of 4 corners*
0 Add a 4 corners polygon primitive as box body*
4,1,4,$2,$3,$4,$5,$6,$7,$8,$9,$2,$3,0*
0 Add four circle primitives for the rounded corners*
1,1,$1+$1,$2,$3*
1,1,$1+$1,$4,$5*
1,1,$1+$1,$6,$7*
1,1,$1+$1,$8,$9*
0 Add four rect primitives between the rounded corners*
20,1,$1+$1,$2,$3,$4,$5,0*
20,1,$1+$1,$4,$5,$6,$7,0*
20,1,$1+$1,$6,$7,$8,$9,0*
20,1,$1+$1,$8,$9,$2,$3,0*%
G04 Aperture macros list end*
%ADD10C,5.700000*%
%ADD11RoundRect,0.050000X-0.800000X-0.800000X0.800000X-0.800000X0.800000X0.800000X-0.800000X0.800000X0*%
%ADD12O,1.700000X1.700000*%
%ADD13RoundRect,0.050000X-0.850000X-0.850000X0.850000X-0.850000X0.850000X0.850000X-0.850000X0.850000X0*%
%ADD14O,1.800000X1.800000*%
%ADD15RoundRect,0.050000X0.950000X-1.000000X0.950000X1.000000X-0.950000X1.000000X-0.950000X-1.000000X0*%
%ADD16C,2.000000*%
%ADD17RoundRect,0.050000X0.900000X-0.900000X0.900000X0.900000X-0.900000X0.900000X-0.900000X-0.900000X0*%
%ADD18O,1.900000X1.900000*%
%ADD19RoundRect,0.050000X-1.050000X1.050000X-1.050000X-1.050000X1.050000X-1.050000X1.050000X1.050000X0*%
%ADD20C,2.200000*%
%ADD21C,2.500000*%
%ADD22C,1.540000*%
%ADD23C,2.100000*%
%ADD24C,3.100000*%
%ADD25RoundRect,0.050000X-0.900000X0.637500X-0.900000X-0.637500X0.900000X-0.637500X0.900000X0.637500X0*%
%ADD26O,1.900000X1.375000*%
%ADD27RoundRect,0.050000X-1.175000X1.385000X-1.175000X-1.385000X1.175000X-1.385000X1.175000X1.385000X0*%
%ADD28RoundRect,0.050000X1.175000X-1.385000X1.175000X1.385000X-1.175000X1.385000X-1.175000X-1.385000X0*%
%ADD29RoundRect,0.050000X1.385000X1.175000X-1.385000X1.175000X-1.385000X-1.175000X1.385000X-1.175000X0*%
%ADD30RoundRect,0.050000X0.850000X-1.000000X0.850000X1.000000X-0.850000X1.000000X-0.850000X-1.000000X0*%
%ADD31RoundRect,0.050000X-1.000000X-0.850000X1.000000X-0.850000X1.000000X0.850000X-1.000000X0.850000X0*%
%ADD32RoundRect,0.050000X1.000000X0.850000X-1.000000X0.850000X-1.000000X-0.850000X1.000000X-0.850000X0*%
%ADD33RoundRect,0.050000X-0.850000X1.000000X-0.850000X-1.000000X0.850000X-1.000000X0.850000X1.000000X0*%
%ADD34RoundRect,0.087500X0.087500X-0.375000X0.087500X0.375000X-0.087500X0.375000X-0.087500X-0.375000X0*%
%ADD35RoundRect,0.087500X0.375000X-0.087500X0.375000X0.087500X-0.375000X0.087500X-0.375000X-0.087500X0*%
%ADD36RoundRect,0.050000X1.250000X-1.250000X1.250000X1.250000X-1.250000X1.250000X-1.250000X-1.250000X0*%
G04 APERTURE END LIST*
D10*
%TO.C,H1*%
X127600000Y-44800000D03*
%TD*%
%TO.C,H2*%
X187600000Y-44800000D03*
%TD*%
%TO.C,H3*%
X127600000Y-134800000D03*
%TD*%
%TO.C,H4*%
X187600000Y-134800000D03*
%TD*%
D11*
%TO.C,A1*%
X135000000Y-100000000D03*
D12*
X135000000Y-102540000D03*
X135000000Y-105080000D03*
X135000000Y-107620000D03*
X135000000Y-110160000D03*
X135000000Y-112700000D03*
X135000000Y-115240000D03*
X135000000Y-117780000D03*
X135000000Y-120320000D03*
X135000000Y-122860000D03*
X135000000Y-125400000D03*
X135000000Y-127940000D03*
X135000000Y-130480000D03*
X135000000Y-133020000D03*
X135000000Y-135560000D03*
X150240000Y-135560000D03*
X150240000Y-133020000D03*
X150240000Y-130480000D03*
X150240000Y-127940000D03*
X150240000Y-125400000D03*
X150240000Y-122860000D03*
X150240000Y-120320000D03*
X150240000Y-117780000D03*
X150240000Y-115240000D03*
X150240000Y-112700000D03*
X150240000Y-110160000D03*
X150240000Y-107620000D03*
X150240000Y-105080000D03*
X150240000Y-102540000D03*
X150240000Y-100000000D03*
%TD*%
D13*
%TO.C,J1*%
X129600000Y-78800000D03*
D14*
X129600000Y-81340000D03*
X129600000Y-83880000D03*
X129600000Y-86420000D03*
X129600000Y-88960000D03*
X129600000Y-91500000D03*
X129600000Y-94040000D03*
X129600000Y-96580000D03*
X129600000Y-99120000D03*
X129600000Y-101660000D03*
%TD*%
D15*
%TO.C,D1*%
X138094000Y-77316000D03*
D16*
X140634000Y-77316000D03*
%TD*%
D15*
%TO.C,D2*%
X146603000Y-77316000D03*
D16*
X149143000Y-77316000D03*
%TD*%
D15*
%TO.C,D3*%
X154858000Y-77189000D03*
D16*
X157398000Y-77189000D03*
%TD*%
D17*
%TO.C,D4*%
X154858000Y-50773000D03*
D18*
X154858000Y-43153000D03*
%TD*%
D19*
%TO.C,J2*%
X186354000Y-50773000D03*
D20*
X186354000Y-53313000D03*
%TD*%
D19*
%TO.C,J3*%
X185719000Y-95985000D03*
D20*
X185719000Y-98525000D03*
%TD*%
D21*
%TO.C,L1*%
X164764000Y-59917000D03*
X164764000Y-49917000D03*
%TD*%
D22*
%TO.C,RV1*%
X186925500Y-78014500D03*
X186925500Y-75474500D03*
X186925500Y-72934500D03*
%TD*%
D23*
%TO.C,TH1*%
X186735000Y-118591000D03*
X186735000Y-109591000D03*
%TD*%
D24*
%TO.C,TP2*%
X186735000Y-85253500D03*
%TD*%
%TO.C,TP1*%
X186735000Y-64489000D03*
%TD*%
D25*
%TO.C,U1*%
X174670000Y-50011000D03*
D26*
X174670000Y-51711000D03*
X174670000Y-53411000D03*
X174670000Y-55111000D03*
X174670000Y-56811000D03*
%TD*%
D27*
%TO.C,C2*%
X154096000Y-107639000D03*
X154096000Y-112779000D03*
%TD*%
D28*
%TO.C,C1*%
X153842000Y-99825000D03*
X153842000Y-94685000D03*
%TD*%
D29*
%TO.C,C3*%
X160476000Y-59790000D03*
X155336000Y-59790000D03*
%TD*%
D27*
%TO.C,C4*%
X179623000Y-49981000D03*
X179623000Y-55121000D03*
%TD*%
%TO.C,C5*%
X171114000Y-105543500D03*
X171114000Y-110683500D03*
%TD*%
%TO.C,C6*%
X182290000Y-94939000D03*
X182290000Y-100079000D03*
%TD*%
D30*
%TO.C,R1*%
X140634000Y-70299000D03*
X140634000Y-66299000D03*
%TD*%
%TO.C,R2*%
X149270000Y-70299000D03*
X149270000Y-66299000D03*
%TD*%
%TO.C,R3*%
X157271000Y-70299000D03*
X157271000Y-66299000D03*
%TD*%
D31*
%TO.C,R4*%
X156033000Y-55345000D03*
X160033000Y-55345000D03*
%TD*%
%TO.C,R5*%
X148413000Y-55345000D03*
X152413000Y-55345000D03*
%TD*%
D30*
%TO.C,R6*%
X166478500Y-118051000D03*
X166478500Y-114051000D03*
%TD*%
%TO.C,R7*%
X173273000Y-95572000D03*
X173273000Y-91572000D03*
%TD*%
D32*
%TO.C,R8*%
X168288000Y-94270500D03*
X164288000Y-94270500D03*
%TD*%
D33*
%TO.C,R9*%
X166542000Y-106113500D03*
X166542000Y-110113500D03*
%TD*%
D34*
%TO.C,U2*%
X169447000Y-102177000D03*
X168947000Y-102177000D03*
X168447000Y-102177000D03*
X167947000Y-102177000D03*
X167447000Y-102177000D03*
D35*
X166509500Y-101239500D03*
X166509500Y-100739500D03*
X166509500Y-100239500D03*
X166509500Y-99739500D03*
X166509500Y-99239500D03*
D34*
X167447000Y-98302000D03*
X167947000Y-98302000D03*
X168447000Y-98302000D03*
X168947000Y-98302000D03*
X169447000Y-98302000D03*
D35*
X170384500Y-99239500D03*
X170384500Y-99739500D03*
X170384500Y-100239500D03*
X170384500Y-100739500D03*
X170384500Y-101239500D03*
D36*
X168447000Y-100239500D03*
%TD*%
M02*
