%TF.GenerationSoftware,KiCad,Pcbnew,5.1.10-1.fc34*%
%TF.CreationDate,2021-06-08T11:51:25-04:00*%
%TF.ProjectId,BREAD_Slice,42524541-445f-4536-9c69-63652e6b6963,rev?*%
%TF.SameCoordinates,Original*%
%TF.FileFunction,Legend,Bot*%
%TF.FilePolarity,Positive*%
%FSLAX46Y46*%
G04 Gerber Fmt 4.6, Leading zero omitted, Abs format (unit mm)*
G04 Created by KiCad (PCBNEW 5.1.10-1.fc34) date 2021-06-08 11:51:25*
%MOMM*%
%LPD*%
G01*
G04 APERTURE LIST*
%ADD10C,0.120000*%
%ADD11C,0.150000*%
G04 APERTURE END LIST*
D10*
%TO.C,C10*%
X154426252Y-83772000D02*
X153003748Y-83772000D01*
X154426252Y-85592000D02*
X153003748Y-85592000D01*
%TO.C,C9*%
X153918252Y-60912000D02*
X152495748Y-60912000D01*
X153918252Y-62732000D02*
X152495748Y-62732000D01*
%TO.C,R4*%
X153934064Y-57483000D02*
X152479936Y-57483000D01*
X153934064Y-59303000D02*
X152479936Y-59303000D01*
%TO.C,R3*%
X154315064Y-79835000D02*
X152860936Y-79835000D01*
X154315064Y-81655000D02*
X152860936Y-81655000D01*
%TO.C,C8*%
X167227748Y-66288000D02*
X168650252Y-66288000D01*
X167227748Y-64468000D02*
X168650252Y-64468000D01*
%TO.C,C7*%
X168777252Y-45926000D02*
X167354748Y-45926000D01*
X168777252Y-47746000D02*
X167354748Y-47746000D01*
%TO.C,C6*%
X167227748Y-92577000D02*
X168650252Y-92577000D01*
X167227748Y-90757000D02*
X168650252Y-90757000D01*
%TO.C,C5*%
X169158252Y-72215000D02*
X167735748Y-72215000D01*
X169158252Y-74035000D02*
X167735748Y-74035000D01*
D11*
%TO.C,C4*%
X149959000Y-59490000D02*
X149959000Y-57480000D01*
X147819000Y-59520000D02*
X147819000Y-57510000D01*
%TO.C,C3*%
X149832000Y-81588000D02*
X149832000Y-79578000D01*
X147692000Y-81618000D02*
X147692000Y-79608000D01*
%TO.C,C1*%
X158570000Y-97930000D02*
X156560000Y-97930000D01*
X158600000Y-100070000D02*
X156590000Y-100070000D01*
%TO.C,C2*%
X158600000Y-108870000D02*
X156590000Y-108870000D01*
X158570000Y-106730000D02*
X156560000Y-106730000D01*
%TO.C,C10*%
X154357857Y-87071142D02*
X154405476Y-87118761D01*
X154548333Y-87166380D01*
X154643571Y-87166380D01*
X154786428Y-87118761D01*
X154881666Y-87023523D01*
X154929285Y-86928285D01*
X154976904Y-86737809D01*
X154976904Y-86594952D01*
X154929285Y-86404476D01*
X154881666Y-86309238D01*
X154786428Y-86214000D01*
X154643571Y-86166380D01*
X154548333Y-86166380D01*
X154405476Y-86214000D01*
X154357857Y-86261619D01*
X153405476Y-87166380D02*
X153976904Y-87166380D01*
X153691190Y-87166380D02*
X153691190Y-86166380D01*
X153786428Y-86309238D01*
X153881666Y-86404476D01*
X153976904Y-86452095D01*
X152786428Y-86166380D02*
X152691190Y-86166380D01*
X152595952Y-86214000D01*
X152548333Y-86261619D01*
X152500714Y-86356857D01*
X152453095Y-86547333D01*
X152453095Y-86785428D01*
X152500714Y-86975904D01*
X152548333Y-87071142D01*
X152595952Y-87118761D01*
X152691190Y-87166380D01*
X152786428Y-87166380D01*
X152881666Y-87118761D01*
X152929285Y-87071142D01*
X152976904Y-86975904D01*
X153024523Y-86785428D01*
X153024523Y-86547333D01*
X152976904Y-86356857D01*
X152929285Y-86261619D01*
X152881666Y-86214000D01*
X152786428Y-86166380D01*
%TO.C,C9*%
X153373666Y-64211142D02*
X153421285Y-64258761D01*
X153564142Y-64306380D01*
X153659380Y-64306380D01*
X153802238Y-64258761D01*
X153897476Y-64163523D01*
X153945095Y-64068285D01*
X153992714Y-63877809D01*
X153992714Y-63734952D01*
X153945095Y-63544476D01*
X153897476Y-63449238D01*
X153802238Y-63354000D01*
X153659380Y-63306380D01*
X153564142Y-63306380D01*
X153421285Y-63354000D01*
X153373666Y-63401619D01*
X152897476Y-64306380D02*
X152707000Y-64306380D01*
X152611761Y-64258761D01*
X152564142Y-64211142D01*
X152468904Y-64068285D01*
X152421285Y-63877809D01*
X152421285Y-63496857D01*
X152468904Y-63401619D01*
X152516523Y-63354000D01*
X152611761Y-63306380D01*
X152802238Y-63306380D01*
X152897476Y-63354000D01*
X152945095Y-63401619D01*
X152992714Y-63496857D01*
X152992714Y-63734952D01*
X152945095Y-63830190D01*
X152897476Y-63877809D01*
X152802238Y-63925428D01*
X152611761Y-63925428D01*
X152516523Y-63877809D01*
X152468904Y-63830190D01*
X152421285Y-63734952D01*
%TO.C,R4*%
X153373666Y-60623380D02*
X153707000Y-60147190D01*
X153945095Y-60623380D02*
X153945095Y-59623380D01*
X153564142Y-59623380D01*
X153468904Y-59671000D01*
X153421285Y-59718619D01*
X153373666Y-59813857D01*
X153373666Y-59956714D01*
X153421285Y-60051952D01*
X153468904Y-60099571D01*
X153564142Y-60147190D01*
X153945095Y-60147190D01*
X152516523Y-59956714D02*
X152516523Y-60623380D01*
X152754619Y-59575761D02*
X152992714Y-60290047D01*
X152373666Y-60290047D01*
%TO.C,R3*%
X153881666Y-83229380D02*
X154215000Y-82753190D01*
X154453095Y-83229380D02*
X154453095Y-82229380D01*
X154072142Y-82229380D01*
X153976904Y-82277000D01*
X153929285Y-82324619D01*
X153881666Y-82419857D01*
X153881666Y-82562714D01*
X153929285Y-82657952D01*
X153976904Y-82705571D01*
X154072142Y-82753190D01*
X154453095Y-82753190D01*
X153548333Y-82229380D02*
X152929285Y-82229380D01*
X153262619Y-82610333D01*
X153119761Y-82610333D01*
X153024523Y-82657952D01*
X152976904Y-82705571D01*
X152929285Y-82800809D01*
X152929285Y-83038904D01*
X152976904Y-83134142D01*
X153024523Y-83181761D01*
X153119761Y-83229380D01*
X153405476Y-83229380D01*
X153500714Y-83181761D01*
X153548333Y-83134142D01*
%TO.C,C8*%
X168105666Y-67585142D02*
X168153285Y-67632761D01*
X168296142Y-67680380D01*
X168391380Y-67680380D01*
X168534238Y-67632761D01*
X168629476Y-67537523D01*
X168677095Y-67442285D01*
X168724714Y-67251809D01*
X168724714Y-67108952D01*
X168677095Y-66918476D01*
X168629476Y-66823238D01*
X168534238Y-66728000D01*
X168391380Y-66680380D01*
X168296142Y-66680380D01*
X168153285Y-66728000D01*
X168105666Y-66775619D01*
X167534238Y-67108952D02*
X167629476Y-67061333D01*
X167677095Y-67013714D01*
X167724714Y-66918476D01*
X167724714Y-66870857D01*
X167677095Y-66775619D01*
X167629476Y-66728000D01*
X167534238Y-66680380D01*
X167343761Y-66680380D01*
X167248523Y-66728000D01*
X167200904Y-66775619D01*
X167153285Y-66870857D01*
X167153285Y-66918476D01*
X167200904Y-67013714D01*
X167248523Y-67061333D01*
X167343761Y-67108952D01*
X167534238Y-67108952D01*
X167629476Y-67156571D01*
X167677095Y-67204190D01*
X167724714Y-67299428D01*
X167724714Y-67489904D01*
X167677095Y-67585142D01*
X167629476Y-67632761D01*
X167534238Y-67680380D01*
X167343761Y-67680380D01*
X167248523Y-67632761D01*
X167200904Y-67585142D01*
X167153285Y-67489904D01*
X167153285Y-67299428D01*
X167200904Y-67204190D01*
X167248523Y-67156571D01*
X167343761Y-67108952D01*
%TO.C,C7*%
X168232666Y-45343142D02*
X168280285Y-45390761D01*
X168423142Y-45438380D01*
X168518380Y-45438380D01*
X168661238Y-45390761D01*
X168756476Y-45295523D01*
X168804095Y-45200285D01*
X168851714Y-45009809D01*
X168851714Y-44866952D01*
X168804095Y-44676476D01*
X168756476Y-44581238D01*
X168661238Y-44486000D01*
X168518380Y-44438380D01*
X168423142Y-44438380D01*
X168280285Y-44486000D01*
X168232666Y-44533619D01*
X167899333Y-44438380D02*
X167232666Y-44438380D01*
X167661238Y-45438380D01*
%TO.C,C6*%
X168105666Y-93874142D02*
X168153285Y-93921761D01*
X168296142Y-93969380D01*
X168391380Y-93969380D01*
X168534238Y-93921761D01*
X168629476Y-93826523D01*
X168677095Y-93731285D01*
X168724714Y-93540809D01*
X168724714Y-93397952D01*
X168677095Y-93207476D01*
X168629476Y-93112238D01*
X168534238Y-93017000D01*
X168391380Y-92969380D01*
X168296142Y-92969380D01*
X168153285Y-93017000D01*
X168105666Y-93064619D01*
X167248523Y-92969380D02*
X167439000Y-92969380D01*
X167534238Y-93017000D01*
X167581857Y-93064619D01*
X167677095Y-93207476D01*
X167724714Y-93397952D01*
X167724714Y-93778904D01*
X167677095Y-93874142D01*
X167629476Y-93921761D01*
X167534238Y-93969380D01*
X167343761Y-93969380D01*
X167248523Y-93921761D01*
X167200904Y-93874142D01*
X167153285Y-93778904D01*
X167153285Y-93540809D01*
X167200904Y-93445571D01*
X167248523Y-93397952D01*
X167343761Y-93350333D01*
X167534238Y-93350333D01*
X167629476Y-93397952D01*
X167677095Y-93445571D01*
X167724714Y-93540809D01*
%TO.C,C5*%
X168613666Y-71632142D02*
X168661285Y-71679761D01*
X168804142Y-71727380D01*
X168899380Y-71727380D01*
X169042238Y-71679761D01*
X169137476Y-71584523D01*
X169185095Y-71489285D01*
X169232714Y-71298809D01*
X169232714Y-71155952D01*
X169185095Y-70965476D01*
X169137476Y-70870238D01*
X169042238Y-70775000D01*
X168899380Y-70727380D01*
X168804142Y-70727380D01*
X168661285Y-70775000D01*
X168613666Y-70822619D01*
X167708904Y-70727380D02*
X168185095Y-70727380D01*
X168232714Y-71203571D01*
X168185095Y-71155952D01*
X168089857Y-71108333D01*
X167851761Y-71108333D01*
X167756523Y-71155952D01*
X167708904Y-71203571D01*
X167661285Y-71298809D01*
X167661285Y-71536904D01*
X167708904Y-71632142D01*
X167756523Y-71679761D01*
X167851761Y-71727380D01*
X168089857Y-71727380D01*
X168185095Y-71679761D01*
X168232714Y-71632142D01*
%TO.C,C4*%
X147146142Y-58353333D02*
X147193761Y-58305714D01*
X147241380Y-58162857D01*
X147241380Y-58067619D01*
X147193761Y-57924761D01*
X147098523Y-57829523D01*
X147003285Y-57781904D01*
X146812809Y-57734285D01*
X146669952Y-57734285D01*
X146479476Y-57781904D01*
X146384238Y-57829523D01*
X146289000Y-57924761D01*
X146241380Y-58067619D01*
X146241380Y-58162857D01*
X146289000Y-58305714D01*
X146336619Y-58353333D01*
X146574714Y-59210476D02*
X147241380Y-59210476D01*
X146193761Y-58972380D02*
X146908047Y-58734285D01*
X146908047Y-59353333D01*
%TO.C,C3*%
X147019142Y-80451333D02*
X147066761Y-80403714D01*
X147114380Y-80260857D01*
X147114380Y-80165619D01*
X147066761Y-80022761D01*
X146971523Y-79927523D01*
X146876285Y-79879904D01*
X146685809Y-79832285D01*
X146542952Y-79832285D01*
X146352476Y-79879904D01*
X146257238Y-79927523D01*
X146162000Y-80022761D01*
X146114380Y-80165619D01*
X146114380Y-80260857D01*
X146162000Y-80403714D01*
X146209619Y-80451333D01*
X146114380Y-80784666D02*
X146114380Y-81403714D01*
X146495333Y-81070380D01*
X146495333Y-81213238D01*
X146542952Y-81308476D01*
X146590571Y-81356095D01*
X146685809Y-81403714D01*
X146923904Y-81403714D01*
X147019142Y-81356095D01*
X147066761Y-81308476D01*
X147114380Y-81213238D01*
X147114380Y-80927523D01*
X147066761Y-80832285D01*
X147019142Y-80784666D01*
%TO.C,C1*%
X162766666Y-99357142D02*
X162814285Y-99404761D01*
X162957142Y-99452380D01*
X163052380Y-99452380D01*
X163195238Y-99404761D01*
X163290476Y-99309523D01*
X163338095Y-99214285D01*
X163385714Y-99023809D01*
X163385714Y-98880952D01*
X163338095Y-98690476D01*
X163290476Y-98595238D01*
X163195238Y-98500000D01*
X163052380Y-98452380D01*
X162957142Y-98452380D01*
X162814285Y-98500000D01*
X162766666Y-98547619D01*
X161814285Y-99452380D02*
X162385714Y-99452380D01*
X162100000Y-99452380D02*
X162100000Y-98452380D01*
X162195238Y-98595238D01*
X162290476Y-98690476D01*
X162385714Y-98738095D01*
%TO.C,C2*%
X162766666Y-108157142D02*
X162814285Y-108204761D01*
X162957142Y-108252380D01*
X163052380Y-108252380D01*
X163195238Y-108204761D01*
X163290476Y-108109523D01*
X163338095Y-108014285D01*
X163385714Y-107823809D01*
X163385714Y-107680952D01*
X163338095Y-107490476D01*
X163290476Y-107395238D01*
X163195238Y-107300000D01*
X163052380Y-107252380D01*
X162957142Y-107252380D01*
X162814285Y-107300000D01*
X162766666Y-107347619D01*
X162385714Y-107347619D02*
X162338095Y-107300000D01*
X162242857Y-107252380D01*
X162004761Y-107252380D01*
X161909523Y-107300000D01*
X161861904Y-107347619D01*
X161814285Y-107442857D01*
X161814285Y-107538095D01*
X161861904Y-107680952D01*
X162433333Y-108252380D01*
X161814285Y-108252380D01*
%TD*%
M02*
