%TF.GenerationSoftware,KiCad,Pcbnew,5.1.10-1.fc34*%
%TF.CreationDate,2021-06-08T11:51:25-04:00*%
%TF.ProjectId,BREAD_Slice,42524541-445f-4536-9c69-63652e6b6963,rev?*%
%TF.SameCoordinates,Original*%
%TF.FileFunction,Legend,Top*%
%TF.FilePolarity,Positive*%
%FSLAX46Y46*%
G04 Gerber Fmt 4.6, Leading zero omitted, Abs format (unit mm)*
G04 Created by KiCad (PCBNEW 5.1.10-1.fc34) date 2021-06-08 11:51:25*
%MOMM*%
%LPD*%
G01*
G04 APERTURE LIST*
%ADD10C,0.125000*%
%ADD11C,0.150000*%
%ADD12C,0.120000*%
%ADD13C,0.010000*%
G04 APERTURE END LIST*
D10*
X190295000Y-102207952D02*
X190271190Y-102255571D01*
X190271190Y-102327000D01*
X190295000Y-102398428D01*
X190342619Y-102446047D01*
X190390238Y-102469857D01*
X190485476Y-102493666D01*
X190556904Y-102493666D01*
X190652142Y-102469857D01*
X190699761Y-102446047D01*
X190747380Y-102398428D01*
X190771190Y-102327000D01*
X190771190Y-102279380D01*
X190747380Y-102207952D01*
X190723571Y-102184142D01*
X190556904Y-102184142D01*
X190556904Y-102279380D01*
X190771190Y-101969857D02*
X190271190Y-101969857D01*
X190771190Y-101684142D01*
X190271190Y-101684142D01*
X190771190Y-101446047D02*
X190271190Y-101446047D01*
X190271190Y-101327000D01*
X190295000Y-101255571D01*
X190342619Y-101207952D01*
X190390238Y-101184142D01*
X190485476Y-101160333D01*
X190556904Y-101160333D01*
X190652142Y-101184142D01*
X190699761Y-101207952D01*
X190747380Y-101255571D01*
X190771190Y-101327000D01*
X190771190Y-101446047D01*
D11*
X190711666Y-109939095D02*
X190711666Y-109462904D01*
X190997380Y-110034333D02*
X189997380Y-109701000D01*
X190997380Y-109367666D01*
X190473571Y-106835571D02*
X190521190Y-106692714D01*
X190568809Y-106645095D01*
X190664047Y-106597476D01*
X190806904Y-106597476D01*
X190902142Y-106645095D01*
X190949761Y-106692714D01*
X190997380Y-106787952D01*
X190997380Y-107168904D01*
X189997380Y-107168904D01*
X189997380Y-106835571D01*
X190045000Y-106740333D01*
X190092619Y-106692714D01*
X190187857Y-106645095D01*
X190283095Y-106645095D01*
X190378333Y-106692714D01*
X190425952Y-106740333D01*
X190473571Y-106835571D01*
X190473571Y-107168904D01*
D10*
X190271190Y-104462238D02*
X190271190Y-104700333D01*
X190509285Y-104724142D01*
X190485476Y-104700333D01*
X190461666Y-104652714D01*
X190461666Y-104533666D01*
X190485476Y-104486047D01*
X190509285Y-104462238D01*
X190556904Y-104438428D01*
X190675952Y-104438428D01*
X190723571Y-104462238D01*
X190747380Y-104486047D01*
X190771190Y-104533666D01*
X190771190Y-104652714D01*
X190747380Y-104700333D01*
X190723571Y-104724142D01*
X190271190Y-104295571D02*
X190771190Y-104128904D01*
X190271190Y-103962238D01*
X190295000Y-115161952D02*
X190271190Y-115209571D01*
X190271190Y-115281000D01*
X190295000Y-115352428D01*
X190342619Y-115400047D01*
X190390238Y-115423857D01*
X190485476Y-115447666D01*
X190556904Y-115447666D01*
X190652142Y-115423857D01*
X190699761Y-115400047D01*
X190747380Y-115352428D01*
X190771190Y-115281000D01*
X190771190Y-115233380D01*
X190747380Y-115161952D01*
X190723571Y-115138142D01*
X190556904Y-115138142D01*
X190556904Y-115233380D01*
X190771190Y-114923857D02*
X190271190Y-114923857D01*
X190771190Y-114638142D01*
X190271190Y-114638142D01*
X190771190Y-114400047D02*
X190271190Y-114400047D01*
X190271190Y-114281000D01*
X190295000Y-114209571D01*
X190342619Y-114161952D01*
X190390238Y-114138142D01*
X190485476Y-114114333D01*
X190556904Y-114114333D01*
X190652142Y-114138142D01*
X190699761Y-114161952D01*
X190747380Y-114209571D01*
X190771190Y-114281000D01*
X190771190Y-114400047D01*
X190271190Y-117416238D02*
X190271190Y-117654333D01*
X190509285Y-117678142D01*
X190485476Y-117654333D01*
X190461666Y-117606714D01*
X190461666Y-117487666D01*
X190485476Y-117440047D01*
X190509285Y-117416238D01*
X190556904Y-117392428D01*
X190675952Y-117392428D01*
X190723571Y-117416238D01*
X190747380Y-117440047D01*
X190771190Y-117487666D01*
X190771190Y-117606714D01*
X190747380Y-117654333D01*
X190723571Y-117678142D01*
X190271190Y-117249571D02*
X190771190Y-117082904D01*
X190271190Y-116916238D01*
D11*
X190473571Y-119789571D02*
X190521190Y-119646714D01*
X190568809Y-119599095D01*
X190664047Y-119551476D01*
X190806904Y-119551476D01*
X190902142Y-119599095D01*
X190949761Y-119646714D01*
X190997380Y-119741952D01*
X190997380Y-120122904D01*
X189997380Y-120122904D01*
X189997380Y-119789571D01*
X190045000Y-119694333D01*
X190092619Y-119646714D01*
X190187857Y-119599095D01*
X190283095Y-119599095D01*
X190378333Y-119646714D01*
X190425952Y-119694333D01*
X190473571Y-119789571D01*
X190473571Y-120122904D01*
X190711666Y-122893095D02*
X190711666Y-122416904D01*
X190997380Y-122988333D02*
X189997380Y-122655000D01*
X190997380Y-122321666D01*
X191886380Y-54265380D02*
X190886380Y-54265380D01*
X191600666Y-53932047D01*
X190886380Y-53598714D01*
X191886380Y-53598714D01*
X191505428Y-53122523D02*
X191505428Y-52360619D01*
X191886380Y-51090380D02*
X190886380Y-51090380D01*
X191600666Y-50757047D01*
X190886380Y-50423714D01*
X191886380Y-50423714D01*
X191505428Y-49947523D02*
X191505428Y-49185619D01*
X191886380Y-49566571D02*
X191124476Y-49566571D01*
D10*
X189509190Y-57369000D02*
X189509190Y-57273761D01*
X189533000Y-57226142D01*
X189580619Y-57178523D01*
X189675857Y-57154714D01*
X189842523Y-57154714D01*
X189937761Y-57178523D01*
X189985380Y-57226142D01*
X190009190Y-57273761D01*
X190009190Y-57369000D01*
X189985380Y-57416619D01*
X189937761Y-57464238D01*
X189842523Y-57488047D01*
X189675857Y-57488047D01*
X189580619Y-57464238D01*
X189533000Y-57416619D01*
X189509190Y-57369000D01*
X189509190Y-56940428D02*
X189913952Y-56940428D01*
X189961571Y-56916619D01*
X189985380Y-56892809D01*
X190009190Y-56845190D01*
X190009190Y-56749952D01*
X189985380Y-56702333D01*
X189961571Y-56678523D01*
X189913952Y-56654714D01*
X189509190Y-56654714D01*
X189509190Y-56488047D02*
X189509190Y-56202333D01*
X190009190Y-56345190D02*
X189509190Y-56345190D01*
X189945714Y-60329666D02*
X189945714Y-59948714D01*
X190136190Y-60139190D02*
X189755238Y-60139190D01*
X190136190Y-59448714D02*
X190136190Y-59734428D01*
X190136190Y-59591571D02*
X189636190Y-59591571D01*
X189707619Y-59639190D01*
X189755238Y-59686809D01*
X189779047Y-59734428D01*
X189683809Y-59258238D02*
X189660000Y-59234428D01*
X189636190Y-59186809D01*
X189636190Y-59067761D01*
X189660000Y-59020142D01*
X189683809Y-58996333D01*
X189731428Y-58972523D01*
X189779047Y-58972523D01*
X189850476Y-58996333D01*
X190136190Y-59282047D01*
X190136190Y-58972523D01*
X190088571Y-63413333D02*
X190112380Y-63437142D01*
X190136190Y-63508571D01*
X190136190Y-63556190D01*
X190112380Y-63627619D01*
X190064761Y-63675238D01*
X190017142Y-63699047D01*
X189921904Y-63722857D01*
X189850476Y-63722857D01*
X189755238Y-63699047D01*
X189707619Y-63675238D01*
X189660000Y-63627619D01*
X189636190Y-63556190D01*
X189636190Y-63508571D01*
X189660000Y-63437142D01*
X189683809Y-63413333D01*
X189636190Y-63199047D02*
X190040952Y-63199047D01*
X190088571Y-63175238D01*
X190112380Y-63151428D01*
X190136190Y-63103809D01*
X190136190Y-63008571D01*
X190112380Y-62960952D01*
X190088571Y-62937142D01*
X190040952Y-62913333D01*
X189636190Y-62913333D01*
X190112380Y-62699047D02*
X190136190Y-62627619D01*
X190136190Y-62508571D01*
X190112380Y-62460952D01*
X190088571Y-62437142D01*
X190040952Y-62413333D01*
X189993333Y-62413333D01*
X189945714Y-62437142D01*
X189921904Y-62460952D01*
X189898095Y-62508571D01*
X189874285Y-62603809D01*
X189850476Y-62651428D01*
X189826666Y-62675238D01*
X189779047Y-62699047D01*
X189731428Y-62699047D01*
X189683809Y-62675238D01*
X189660000Y-62651428D01*
X189636190Y-62603809D01*
X189636190Y-62484761D01*
X189660000Y-62413333D01*
X189636190Y-62270476D02*
X189636190Y-61984761D01*
X190136190Y-62127619D02*
X189636190Y-62127619D01*
X189636190Y-61722857D02*
X189636190Y-61627619D01*
X189660000Y-61580000D01*
X189707619Y-61532380D01*
X189802857Y-61508571D01*
X189969523Y-61508571D01*
X190064761Y-61532380D01*
X190112380Y-61580000D01*
X190136190Y-61627619D01*
X190136190Y-61722857D01*
X190112380Y-61770476D01*
X190064761Y-61818095D01*
X189969523Y-61841904D01*
X189802857Y-61841904D01*
X189707619Y-61818095D01*
X189660000Y-61770476D01*
X189636190Y-61722857D01*
X190136190Y-61294285D02*
X189636190Y-61294285D01*
X189993333Y-61127619D01*
X189636190Y-60960952D01*
X190136190Y-60960952D01*
D11*
X190997428Y-69060952D02*
X190997428Y-68299047D01*
X190545047Y-66211428D02*
X191306952Y-66211428D01*
X190926000Y-66592380D02*
X190926000Y-65830476D01*
D10*
X192247571Y-69771095D02*
X192271380Y-69794904D01*
X192295190Y-69866333D01*
X192295190Y-69913952D01*
X192271380Y-69985380D01*
X192223761Y-70033000D01*
X192176142Y-70056809D01*
X192080904Y-70080619D01*
X192009476Y-70080619D01*
X191914238Y-70056809D01*
X191866619Y-70033000D01*
X191819000Y-69985380D01*
X191795190Y-69913952D01*
X191795190Y-69866333D01*
X191819000Y-69794904D01*
X191842809Y-69771095D01*
X191795190Y-69556809D02*
X192199952Y-69556809D01*
X192247571Y-69533000D01*
X192271380Y-69509190D01*
X192295190Y-69461571D01*
X192295190Y-69366333D01*
X192271380Y-69318714D01*
X192247571Y-69294904D01*
X192199952Y-69271095D01*
X191795190Y-69271095D01*
X192271380Y-69056809D02*
X192295190Y-68985380D01*
X192295190Y-68866333D01*
X192271380Y-68818714D01*
X192247571Y-68794904D01*
X192199952Y-68771095D01*
X192152333Y-68771095D01*
X192104714Y-68794904D01*
X192080904Y-68818714D01*
X192057095Y-68866333D01*
X192033285Y-68961571D01*
X192009476Y-69009190D01*
X191985666Y-69033000D01*
X191938047Y-69056809D01*
X191890428Y-69056809D01*
X191842809Y-69033000D01*
X191819000Y-69009190D01*
X191795190Y-68961571D01*
X191795190Y-68842523D01*
X191819000Y-68771095D01*
X191795190Y-68628238D02*
X191795190Y-68342523D01*
X192295190Y-68485380D02*
X191795190Y-68485380D01*
X191795190Y-68080619D02*
X191795190Y-67985380D01*
X191819000Y-67937761D01*
X191866619Y-67890142D01*
X191961857Y-67866333D01*
X192128523Y-67866333D01*
X192223761Y-67890142D01*
X192271380Y-67937761D01*
X192295190Y-67985380D01*
X192295190Y-68080619D01*
X192271380Y-68128238D01*
X192223761Y-68175857D01*
X192128523Y-68199666D01*
X191961857Y-68199666D01*
X191866619Y-68175857D01*
X191819000Y-68128238D01*
X191795190Y-68080619D01*
X192295190Y-67652047D02*
X191795190Y-67652047D01*
X192152333Y-67485380D01*
X191795190Y-67318714D01*
X192295190Y-67318714D01*
X192295190Y-66699666D02*
X191795190Y-66699666D01*
X191795190Y-66509190D01*
X191819000Y-66461571D01*
X191842809Y-66437761D01*
X191890428Y-66413952D01*
X191961857Y-66413952D01*
X192009476Y-66437761D01*
X192033285Y-66461571D01*
X192057095Y-66509190D01*
X192057095Y-66699666D01*
X191795190Y-66247285D02*
X192295190Y-66128238D01*
X191938047Y-66033000D01*
X192295190Y-65937761D01*
X191795190Y-65818714D01*
X192295190Y-65342523D02*
X192057095Y-65509190D01*
X192295190Y-65628238D02*
X191795190Y-65628238D01*
X191795190Y-65437761D01*
X191819000Y-65390142D01*
X191842809Y-65366333D01*
X191890428Y-65342523D01*
X191961857Y-65342523D01*
X192009476Y-65366333D01*
X192033285Y-65390142D01*
X192057095Y-65437761D01*
X192057095Y-65628238D01*
X191842809Y-64771095D02*
X191819000Y-64747285D01*
X191795190Y-64699666D01*
X191795190Y-64580619D01*
X191819000Y-64533000D01*
X191842809Y-64509190D01*
X191890428Y-64485380D01*
X191938047Y-64485380D01*
X192009476Y-64509190D01*
X192295190Y-64794904D01*
X192295190Y-64485380D01*
D11*
X191759380Y-80173380D02*
X190759380Y-80173380D01*
X191473666Y-79840047D01*
X190759380Y-79506714D01*
X191759380Y-79506714D01*
X191378428Y-79030523D02*
X191378428Y-78268619D01*
X191632380Y-77506380D02*
X190632380Y-77506380D01*
X191346666Y-77173047D01*
X190632380Y-76839714D01*
X191632380Y-76839714D01*
X191251428Y-76363523D02*
X191251428Y-75601619D01*
X191632380Y-75982571D02*
X190870476Y-75982571D01*
D10*
X189509190Y-83658000D02*
X189509190Y-83562761D01*
X189533000Y-83515142D01*
X189580619Y-83467523D01*
X189675857Y-83443714D01*
X189842523Y-83443714D01*
X189937761Y-83467523D01*
X189985380Y-83515142D01*
X190009190Y-83562761D01*
X190009190Y-83658000D01*
X189985380Y-83705619D01*
X189937761Y-83753238D01*
X189842523Y-83777047D01*
X189675857Y-83777047D01*
X189580619Y-83753238D01*
X189533000Y-83705619D01*
X189509190Y-83658000D01*
X189509190Y-83229428D02*
X189913952Y-83229428D01*
X189961571Y-83205619D01*
X189985380Y-83181809D01*
X190009190Y-83134190D01*
X190009190Y-83038952D01*
X189985380Y-82991333D01*
X189961571Y-82967523D01*
X189913952Y-82943714D01*
X189509190Y-82943714D01*
X189509190Y-82777047D02*
X189509190Y-82491333D01*
X190009190Y-82634190D02*
X189509190Y-82634190D01*
X189945714Y-86618666D02*
X189945714Y-86237714D01*
X190136190Y-86428190D02*
X189755238Y-86428190D01*
X190136190Y-85737714D02*
X190136190Y-86023428D01*
X190136190Y-85880571D02*
X189636190Y-85880571D01*
X189707619Y-85928190D01*
X189755238Y-85975809D01*
X189779047Y-86023428D01*
X189683809Y-85547238D02*
X189660000Y-85523428D01*
X189636190Y-85475809D01*
X189636190Y-85356761D01*
X189660000Y-85309142D01*
X189683809Y-85285333D01*
X189731428Y-85261523D01*
X189779047Y-85261523D01*
X189850476Y-85285333D01*
X190136190Y-85571047D01*
X190136190Y-85261523D01*
X190088571Y-89702333D02*
X190112380Y-89726142D01*
X190136190Y-89797571D01*
X190136190Y-89845190D01*
X190112380Y-89916619D01*
X190064761Y-89964238D01*
X190017142Y-89988047D01*
X189921904Y-90011857D01*
X189850476Y-90011857D01*
X189755238Y-89988047D01*
X189707619Y-89964238D01*
X189660000Y-89916619D01*
X189636190Y-89845190D01*
X189636190Y-89797571D01*
X189660000Y-89726142D01*
X189683809Y-89702333D01*
X189636190Y-89488047D02*
X190040952Y-89488047D01*
X190088571Y-89464238D01*
X190112380Y-89440428D01*
X190136190Y-89392809D01*
X190136190Y-89297571D01*
X190112380Y-89249952D01*
X190088571Y-89226142D01*
X190040952Y-89202333D01*
X189636190Y-89202333D01*
X190112380Y-88988047D02*
X190136190Y-88916619D01*
X190136190Y-88797571D01*
X190112380Y-88749952D01*
X190088571Y-88726142D01*
X190040952Y-88702333D01*
X189993333Y-88702333D01*
X189945714Y-88726142D01*
X189921904Y-88749952D01*
X189898095Y-88797571D01*
X189874285Y-88892809D01*
X189850476Y-88940428D01*
X189826666Y-88964238D01*
X189779047Y-88988047D01*
X189731428Y-88988047D01*
X189683809Y-88964238D01*
X189660000Y-88940428D01*
X189636190Y-88892809D01*
X189636190Y-88773761D01*
X189660000Y-88702333D01*
X189636190Y-88559476D02*
X189636190Y-88273761D01*
X190136190Y-88416619D02*
X189636190Y-88416619D01*
X189636190Y-88011857D02*
X189636190Y-87916619D01*
X189660000Y-87869000D01*
X189707619Y-87821380D01*
X189802857Y-87797571D01*
X189969523Y-87797571D01*
X190064761Y-87821380D01*
X190112380Y-87869000D01*
X190136190Y-87916619D01*
X190136190Y-88011857D01*
X190112380Y-88059476D01*
X190064761Y-88107095D01*
X189969523Y-88130904D01*
X189802857Y-88130904D01*
X189707619Y-88107095D01*
X189660000Y-88059476D01*
X189636190Y-88011857D01*
X190136190Y-87583285D02*
X189636190Y-87583285D01*
X189993333Y-87416619D01*
X189636190Y-87249952D01*
X190136190Y-87249952D01*
D11*
X190997428Y-95730952D02*
X190997428Y-94969047D01*
X190545047Y-92754428D02*
X191306952Y-92754428D01*
X190926000Y-93135380D02*
X190926000Y-92373476D01*
D10*
X192247571Y-96568095D02*
X192271380Y-96591904D01*
X192295190Y-96663333D01*
X192295190Y-96710952D01*
X192271380Y-96782380D01*
X192223761Y-96830000D01*
X192176142Y-96853809D01*
X192080904Y-96877619D01*
X192009476Y-96877619D01*
X191914238Y-96853809D01*
X191866619Y-96830000D01*
X191819000Y-96782380D01*
X191795190Y-96710952D01*
X191795190Y-96663333D01*
X191819000Y-96591904D01*
X191842809Y-96568095D01*
X191795190Y-96353809D02*
X192199952Y-96353809D01*
X192247571Y-96330000D01*
X192271380Y-96306190D01*
X192295190Y-96258571D01*
X192295190Y-96163333D01*
X192271380Y-96115714D01*
X192247571Y-96091904D01*
X192199952Y-96068095D01*
X191795190Y-96068095D01*
X192271380Y-95853809D02*
X192295190Y-95782380D01*
X192295190Y-95663333D01*
X192271380Y-95615714D01*
X192247571Y-95591904D01*
X192199952Y-95568095D01*
X192152333Y-95568095D01*
X192104714Y-95591904D01*
X192080904Y-95615714D01*
X192057095Y-95663333D01*
X192033285Y-95758571D01*
X192009476Y-95806190D01*
X191985666Y-95830000D01*
X191938047Y-95853809D01*
X191890428Y-95853809D01*
X191842809Y-95830000D01*
X191819000Y-95806190D01*
X191795190Y-95758571D01*
X191795190Y-95639523D01*
X191819000Y-95568095D01*
X191795190Y-95425238D02*
X191795190Y-95139523D01*
X192295190Y-95282380D02*
X191795190Y-95282380D01*
X191795190Y-94877619D02*
X191795190Y-94782380D01*
X191819000Y-94734761D01*
X191866619Y-94687142D01*
X191961857Y-94663333D01*
X192128523Y-94663333D01*
X192223761Y-94687142D01*
X192271380Y-94734761D01*
X192295190Y-94782380D01*
X192295190Y-94877619D01*
X192271380Y-94925238D01*
X192223761Y-94972857D01*
X192128523Y-94996666D01*
X191961857Y-94996666D01*
X191866619Y-94972857D01*
X191819000Y-94925238D01*
X191795190Y-94877619D01*
X192295190Y-94449047D02*
X191795190Y-94449047D01*
X192152333Y-94282380D01*
X191795190Y-94115714D01*
X192295190Y-94115714D01*
X192295190Y-93496666D02*
X191795190Y-93496666D01*
X191795190Y-93306190D01*
X191819000Y-93258571D01*
X191842809Y-93234761D01*
X191890428Y-93210952D01*
X191961857Y-93210952D01*
X192009476Y-93234761D01*
X192033285Y-93258571D01*
X192057095Y-93306190D01*
X192057095Y-93496666D01*
X191795190Y-93044285D02*
X192295190Y-92925238D01*
X191938047Y-92830000D01*
X192295190Y-92734761D01*
X191795190Y-92615714D01*
X192295190Y-92139523D02*
X192057095Y-92306190D01*
X192295190Y-92425238D02*
X191795190Y-92425238D01*
X191795190Y-92234761D01*
X191819000Y-92187142D01*
X191842809Y-92163333D01*
X191890428Y-92139523D01*
X191961857Y-92139523D01*
X192009476Y-92163333D01*
X192033285Y-92187142D01*
X192057095Y-92234761D01*
X192057095Y-92425238D01*
X192295190Y-91282380D02*
X192295190Y-91568095D01*
X192295190Y-91425238D02*
X191795190Y-91425238D01*
X191866619Y-91472857D01*
X191914238Y-91520476D01*
X191938047Y-91568095D01*
D11*
X191743571Y-107859238D02*
X191743571Y-107525904D01*
X192267380Y-107383047D02*
X192267380Y-107859238D01*
X191267380Y-107859238D01*
X191267380Y-107383047D01*
X192267380Y-106954476D02*
X191267380Y-106954476D01*
X192267380Y-106383047D01*
X191267380Y-106383047D01*
X192172142Y-105335428D02*
X192219761Y-105383047D01*
X192267380Y-105525904D01*
X192267380Y-105621142D01*
X192219761Y-105764000D01*
X192124523Y-105859238D01*
X192029285Y-105906857D01*
X191838809Y-105954476D01*
X191695952Y-105954476D01*
X191505476Y-105906857D01*
X191410238Y-105859238D01*
X191315000Y-105764000D01*
X191267380Y-105621142D01*
X191267380Y-105525904D01*
X191315000Y-105383047D01*
X191362619Y-105335428D01*
X191362619Y-104192571D02*
X191315000Y-104144952D01*
X191267380Y-104049714D01*
X191267380Y-103811619D01*
X191315000Y-103716380D01*
X191362619Y-103668761D01*
X191457857Y-103621142D01*
X191553095Y-103621142D01*
X191695952Y-103668761D01*
X192267380Y-104240190D01*
X192267380Y-103621142D01*
X191743571Y-120813238D02*
X191743571Y-120479904D01*
X192267380Y-120337047D02*
X192267380Y-120813238D01*
X191267380Y-120813238D01*
X191267380Y-120337047D01*
X192267380Y-119908476D02*
X191267380Y-119908476D01*
X192267380Y-119337047D01*
X191267380Y-119337047D01*
X192172142Y-118289428D02*
X192219761Y-118337047D01*
X192267380Y-118479904D01*
X192267380Y-118575142D01*
X192219761Y-118718000D01*
X192124523Y-118813238D01*
X192029285Y-118860857D01*
X191838809Y-118908476D01*
X191695952Y-118908476D01*
X191505476Y-118860857D01*
X191410238Y-118813238D01*
X191315000Y-118718000D01*
X191267380Y-118575142D01*
X191267380Y-118479904D01*
X191315000Y-118337047D01*
X191362619Y-118289428D01*
X192267380Y-116575142D02*
X192267380Y-117146571D01*
X192267380Y-116860857D02*
X191267380Y-116860857D01*
X191410238Y-116956095D01*
X191505476Y-117051333D01*
X191553095Y-117146571D01*
X152485476Y-134538380D02*
X152485476Y-133538380D01*
X152723571Y-133538380D01*
X152866428Y-133586000D01*
X152961666Y-133681238D01*
X153009285Y-133776476D01*
X153056904Y-133966952D01*
X153056904Y-134109809D01*
X153009285Y-134300285D01*
X152961666Y-134395523D01*
X152866428Y-134490761D01*
X152723571Y-134538380D01*
X152485476Y-134538380D01*
X154056904Y-134443142D02*
X154009285Y-134490761D01*
X153866428Y-134538380D01*
X153771190Y-134538380D01*
X153628333Y-134490761D01*
X153533095Y-134395523D01*
X153485476Y-134300285D01*
X153437857Y-134109809D01*
X153437857Y-133966952D01*
X153485476Y-133776476D01*
X153533095Y-133681238D01*
X153628333Y-133586000D01*
X153771190Y-133538380D01*
X153866428Y-133538380D01*
X154009285Y-133586000D01*
X154056904Y-133633619D01*
X155247380Y-134538380D02*
X155247380Y-133538380D01*
X155580714Y-134252666D01*
X155914047Y-133538380D01*
X155914047Y-134538380D01*
X156533095Y-134538380D02*
X156437857Y-134490761D01*
X156390238Y-134443142D01*
X156342619Y-134347904D01*
X156342619Y-134062190D01*
X156390238Y-133966952D01*
X156437857Y-133919333D01*
X156533095Y-133871714D01*
X156675952Y-133871714D01*
X156771190Y-133919333D01*
X156818809Y-133966952D01*
X156866428Y-134062190D01*
X156866428Y-134347904D01*
X156818809Y-134443142D01*
X156771190Y-134490761D01*
X156675952Y-134538380D01*
X156533095Y-134538380D01*
X157152142Y-133871714D02*
X157533095Y-133871714D01*
X157295000Y-133538380D02*
X157295000Y-134395523D01*
X157342619Y-134490761D01*
X157437857Y-134538380D01*
X157533095Y-134538380D01*
X158009285Y-134538380D02*
X157914047Y-134490761D01*
X157866428Y-134443142D01*
X157818809Y-134347904D01*
X157818809Y-134062190D01*
X157866428Y-133966952D01*
X157914047Y-133919333D01*
X158009285Y-133871714D01*
X158152142Y-133871714D01*
X158247380Y-133919333D01*
X158295000Y-133966952D01*
X158342619Y-134062190D01*
X158342619Y-134347904D01*
X158295000Y-134443142D01*
X158247380Y-134490761D01*
X158152142Y-134538380D01*
X158009285Y-134538380D01*
X158771190Y-134538380D02*
X158771190Y-133871714D01*
X158771190Y-134062190D02*
X158818809Y-133966952D01*
X158866428Y-133919333D01*
X158961666Y-133871714D01*
X159056904Y-133871714D01*
X160723571Y-134443142D02*
X160675952Y-134490761D01*
X160533095Y-134538380D01*
X160437857Y-134538380D01*
X160295000Y-134490761D01*
X160199761Y-134395523D01*
X160152142Y-134300285D01*
X160104523Y-134109809D01*
X160104523Y-133966952D01*
X160152142Y-133776476D01*
X160199761Y-133681238D01*
X160295000Y-133586000D01*
X160437857Y-133538380D01*
X160533095Y-133538380D01*
X160675952Y-133586000D01*
X160723571Y-133633619D01*
X161295000Y-134538380D02*
X161199761Y-134490761D01*
X161152142Y-134443142D01*
X161104523Y-134347904D01*
X161104523Y-134062190D01*
X161152142Y-133966952D01*
X161199761Y-133919333D01*
X161295000Y-133871714D01*
X161437857Y-133871714D01*
X161533095Y-133919333D01*
X161580714Y-133966952D01*
X161628333Y-134062190D01*
X161628333Y-134347904D01*
X161580714Y-134443142D01*
X161533095Y-134490761D01*
X161437857Y-134538380D01*
X161295000Y-134538380D01*
X162056904Y-133871714D02*
X162056904Y-134538380D01*
X162056904Y-133966952D02*
X162104523Y-133919333D01*
X162199761Y-133871714D01*
X162342619Y-133871714D01*
X162437857Y-133919333D01*
X162485476Y-134014571D01*
X162485476Y-134538380D01*
X162818809Y-133871714D02*
X163199761Y-133871714D01*
X162961666Y-133538380D02*
X162961666Y-134395523D01*
X163009285Y-134490761D01*
X163104523Y-134538380D01*
X163199761Y-134538380D01*
X163533095Y-134538380D02*
X163533095Y-133871714D01*
X163533095Y-134062190D02*
X163580714Y-133966952D01*
X163628333Y-133919333D01*
X163723571Y-133871714D01*
X163818809Y-133871714D01*
X164295000Y-134538380D02*
X164199761Y-134490761D01*
X164152142Y-134443142D01*
X164104523Y-134347904D01*
X164104523Y-134062190D01*
X164152142Y-133966952D01*
X164199761Y-133919333D01*
X164295000Y-133871714D01*
X164437857Y-133871714D01*
X164533095Y-133919333D01*
X164580714Y-133966952D01*
X164628333Y-134062190D01*
X164628333Y-134347904D01*
X164580714Y-134443142D01*
X164533095Y-134490761D01*
X164437857Y-134538380D01*
X164295000Y-134538380D01*
X165199761Y-134538380D02*
X165104523Y-134490761D01*
X165056904Y-134395523D01*
X165056904Y-133538380D01*
X155271190Y-136140761D02*
X155414047Y-136188380D01*
X155652142Y-136188380D01*
X155747380Y-136140761D01*
X155795000Y-136093142D01*
X155842619Y-135997904D01*
X155842619Y-135902666D01*
X155795000Y-135807428D01*
X155747380Y-135759809D01*
X155652142Y-135712190D01*
X155461666Y-135664571D01*
X155366428Y-135616952D01*
X155318809Y-135569333D01*
X155271190Y-135474095D01*
X155271190Y-135378857D01*
X155318809Y-135283619D01*
X155366428Y-135236000D01*
X155461666Y-135188380D01*
X155699761Y-135188380D01*
X155842619Y-135236000D01*
X156747380Y-136188380D02*
X156271190Y-136188380D01*
X156271190Y-135188380D01*
X157652142Y-136093142D02*
X157604523Y-136140761D01*
X157461666Y-136188380D01*
X157366428Y-136188380D01*
X157223571Y-136140761D01*
X157128333Y-136045523D01*
X157080714Y-135950285D01*
X157033095Y-135759809D01*
X157033095Y-135616952D01*
X157080714Y-135426476D01*
X157128333Y-135331238D01*
X157223571Y-135236000D01*
X157366428Y-135188380D01*
X157461666Y-135188380D01*
X157604523Y-135236000D01*
X157652142Y-135283619D01*
X157842619Y-136283619D02*
X158604523Y-136283619D01*
X158842619Y-136188380D02*
X158842619Y-135188380D01*
X159080714Y-135188380D01*
X159223571Y-135236000D01*
X159318809Y-135331238D01*
X159366428Y-135426476D01*
X159414047Y-135616952D01*
X159414047Y-135759809D01*
X159366428Y-135950285D01*
X159318809Y-136045523D01*
X159223571Y-136140761D01*
X159080714Y-136188380D01*
X158842619Y-136188380D01*
X160414047Y-136093142D02*
X160366428Y-136140761D01*
X160223571Y-136188380D01*
X160128333Y-136188380D01*
X159985476Y-136140761D01*
X159890238Y-136045523D01*
X159842619Y-135950285D01*
X159795000Y-135759809D01*
X159795000Y-135616952D01*
X159842619Y-135426476D01*
X159890238Y-135331238D01*
X159985476Y-135236000D01*
X160128333Y-135188380D01*
X160223571Y-135188380D01*
X160366428Y-135236000D01*
X160414047Y-135283619D01*
X160842619Y-136188380D02*
X160842619Y-135188380D01*
X161175952Y-135902666D01*
X161509285Y-135188380D01*
X161509285Y-136188380D01*
X161842619Y-135188380D02*
X162414047Y-135188380D01*
X162128333Y-136188380D02*
X162128333Y-135188380D01*
X156342619Y-137838380D02*
X156009285Y-137362190D01*
X155771190Y-137838380D02*
X155771190Y-136838380D01*
X156152142Y-136838380D01*
X156247380Y-136886000D01*
X156295000Y-136933619D01*
X156342619Y-137028857D01*
X156342619Y-137171714D01*
X156295000Y-137266952D01*
X156247380Y-137314571D01*
X156152142Y-137362190D01*
X155771190Y-137362190D01*
X156961666Y-136838380D02*
X157056904Y-136838380D01*
X157152142Y-136886000D01*
X157199761Y-136933619D01*
X157247380Y-137028857D01*
X157295000Y-137219333D01*
X157295000Y-137457428D01*
X157247380Y-137647904D01*
X157199761Y-137743142D01*
X157152142Y-137790761D01*
X157056904Y-137838380D01*
X156961666Y-137838380D01*
X156866428Y-137790761D01*
X156818809Y-137743142D01*
X156771190Y-137647904D01*
X156723571Y-137457428D01*
X156723571Y-137219333D01*
X156771190Y-137028857D01*
X156818809Y-136933619D01*
X156866428Y-136886000D01*
X156961666Y-136838380D01*
X158437857Y-136933619D02*
X158485476Y-136886000D01*
X158580714Y-136838380D01*
X158818809Y-136838380D01*
X158914047Y-136886000D01*
X158961666Y-136933619D01*
X159009285Y-137028857D01*
X159009285Y-137124095D01*
X158961666Y-137266952D01*
X158390238Y-137838380D01*
X159009285Y-137838380D01*
X159628333Y-136838380D02*
X159723571Y-136838380D01*
X159818809Y-136886000D01*
X159866428Y-136933619D01*
X159914047Y-137028857D01*
X159961666Y-137219333D01*
X159961666Y-137457428D01*
X159914047Y-137647904D01*
X159866428Y-137743142D01*
X159818809Y-137790761D01*
X159723571Y-137838380D01*
X159628333Y-137838380D01*
X159533095Y-137790761D01*
X159485476Y-137743142D01*
X159437857Y-137647904D01*
X159390238Y-137457428D01*
X159390238Y-137219333D01*
X159437857Y-137028857D01*
X159485476Y-136933619D01*
X159533095Y-136886000D01*
X159628333Y-136838380D01*
X160342619Y-136933619D02*
X160390238Y-136886000D01*
X160485476Y-136838380D01*
X160723571Y-136838380D01*
X160818809Y-136886000D01*
X160866428Y-136933619D01*
X160914047Y-137028857D01*
X160914047Y-137124095D01*
X160866428Y-137266952D01*
X160295000Y-137838380D01*
X160914047Y-137838380D01*
X161866428Y-137838380D02*
X161295000Y-137838380D01*
X161580714Y-137838380D02*
X161580714Y-136838380D01*
X161485476Y-136981238D01*
X161390238Y-137076476D01*
X161295000Y-137124095D01*
D12*
%TO.C,U2*%
X173956000Y-45916000D02*
X173956000Y-66356000D01*
X168715000Y-45916000D02*
X168715000Y-48412000D01*
X168715000Y-50261000D02*
X168715000Y-51812000D01*
X168715000Y-53661000D02*
X168715000Y-55212000D01*
X168715000Y-57061000D02*
X168715000Y-58612000D01*
X168715000Y-60461000D02*
X168715000Y-62012000D01*
X168715000Y-63861000D02*
X168715000Y-66356000D01*
X173956000Y-45916000D02*
X168715000Y-45916000D01*
X173956000Y-66356000D02*
X168715000Y-66356000D01*
X172116000Y-45916000D02*
X172116000Y-66356000D01*
X173956000Y-54286000D02*
X172116000Y-54286000D01*
X173956000Y-57986000D02*
X172116000Y-57986000D01*
X168715000Y-47636000D02*
X165306000Y-47636000D01*
X168715000Y-51036000D02*
X165321000Y-51036000D01*
X168715000Y-54436000D02*
X165321000Y-54436000D01*
X168715000Y-57836000D02*
X165321000Y-57836000D01*
X168715000Y-61236000D02*
X165321000Y-61236000D01*
X168715000Y-64636000D02*
X165321000Y-64636000D01*
%TO.C,A1*%
X151640000Y-96060000D02*
X133600000Y-96060000D01*
X151640000Y-139500000D02*
X151640000Y-96060000D01*
X133600000Y-139500000D02*
X151640000Y-139500000D01*
X136270000Y-136830000D02*
X133600000Y-136830000D01*
X136270000Y-101270000D02*
X136270000Y-136830000D01*
X136270000Y-101270000D02*
X133600000Y-101270000D01*
X148970000Y-136830000D02*
X151640000Y-136830000D01*
X148970000Y-98730000D02*
X148970000Y-136830000D01*
X148970000Y-98730000D02*
X151640000Y-98730000D01*
X133600000Y-96060000D02*
X133600000Y-98730000D01*
X133600000Y-101270000D02*
X133600000Y-139500000D01*
X136270000Y-98730000D02*
X133600000Y-98730000D01*
X136270000Y-101270000D02*
X136270000Y-98730000D01*
%TO.C,U1*%
X173829000Y-72167000D02*
X173829000Y-92607000D01*
X168588000Y-72167000D02*
X168588000Y-74663000D01*
X168588000Y-76512000D02*
X168588000Y-78063000D01*
X168588000Y-79912000D02*
X168588000Y-81463000D01*
X168588000Y-83312000D02*
X168588000Y-84863000D01*
X168588000Y-86712000D02*
X168588000Y-88263000D01*
X168588000Y-90112000D02*
X168588000Y-92607000D01*
X173829000Y-72167000D02*
X168588000Y-72167000D01*
X173829000Y-92607000D02*
X168588000Y-92607000D01*
X171989000Y-72167000D02*
X171989000Y-92607000D01*
X173829000Y-80537000D02*
X171989000Y-80537000D01*
X173829000Y-84237000D02*
X171989000Y-84237000D01*
X168588000Y-73887000D02*
X165179000Y-73887000D01*
X168588000Y-77287000D02*
X165194000Y-77287000D01*
X168588000Y-80687000D02*
X165194000Y-80687000D01*
X168588000Y-84087000D02*
X165194000Y-84087000D01*
X168588000Y-87487000D02*
X165194000Y-87487000D01*
X168588000Y-90887000D02*
X165194000Y-90887000D01*
%TO.C,J9*%
X183758000Y-64520000D02*
X183758000Y-70300000D01*
X188858000Y-64520000D02*
X188858000Y-70300000D01*
X189978000Y-64520000D02*
X189978000Y-70300000D01*
X183238000Y-64520000D02*
X183238000Y-70300000D01*
X189978000Y-64520000D02*
X183238000Y-64520000D01*
X189978000Y-70300000D02*
X183238000Y-70300000D01*
X183638000Y-64280000D02*
X182998000Y-64280000D01*
X182998000Y-64280000D02*
X182998000Y-64680000D01*
%TO.C,J8*%
X183631000Y-91063000D02*
X183631000Y-96843000D01*
X188731000Y-91063000D02*
X188731000Y-96843000D01*
X189851000Y-91063000D02*
X189851000Y-96843000D01*
X183111000Y-91063000D02*
X183111000Y-96843000D01*
X189851000Y-91063000D02*
X183111000Y-91063000D01*
X189851000Y-96843000D02*
X183111000Y-96843000D01*
X183511000Y-90823000D02*
X182871000Y-90823000D01*
X182871000Y-90823000D02*
X182871000Y-91223000D01*
%TO.C,J7*%
X183758000Y-48772000D02*
X183758000Y-54552000D01*
X188858000Y-48772000D02*
X188858000Y-54552000D01*
X189978000Y-48772000D02*
X189978000Y-54552000D01*
X183238000Y-48772000D02*
X183238000Y-54552000D01*
X189978000Y-48772000D02*
X183238000Y-48772000D01*
X189978000Y-54552000D02*
X183238000Y-54552000D01*
X183638000Y-48532000D02*
X182998000Y-48532000D01*
X182998000Y-48532000D02*
X182998000Y-48932000D01*
%TO.C,J6*%
X183631000Y-75061000D02*
X183631000Y-80841000D01*
X188731000Y-75061000D02*
X188731000Y-80841000D01*
X189851000Y-75061000D02*
X189851000Y-80841000D01*
X183111000Y-75061000D02*
X183111000Y-80841000D01*
X189851000Y-75061000D02*
X183111000Y-75061000D01*
X189851000Y-80841000D02*
X183111000Y-80841000D01*
X183511000Y-74821000D02*
X182871000Y-74821000D01*
X182871000Y-74821000D02*
X182871000Y-75221000D01*
%TO.C,J5*%
X188065000Y-60806000D02*
X185405000Y-60806000D01*
X188065000Y-60806000D02*
X188065000Y-55666000D01*
X188065000Y-55666000D02*
X185405000Y-55666000D01*
X185405000Y-60806000D02*
X185405000Y-55666000D01*
X185405000Y-63406000D02*
X185405000Y-62076000D01*
X186735000Y-63406000D02*
X185405000Y-63406000D01*
%TO.C,J4*%
X187811000Y-87095000D02*
X185151000Y-87095000D01*
X187811000Y-87095000D02*
X187811000Y-81955000D01*
X187811000Y-81955000D02*
X185151000Y-81955000D01*
X185151000Y-87095000D02*
X185151000Y-81955000D01*
X185151000Y-89695000D02*
X185151000Y-88365000D01*
X186481000Y-89695000D02*
X185151000Y-89695000D01*
%TO.C,J3*%
X188950000Y-111067000D02*
X188950000Y-100206000D01*
X183850000Y-111067000D02*
X183850000Y-100206000D01*
X182730000Y-111067000D02*
X182730000Y-100206000D01*
X189470000Y-111067000D02*
X189470000Y-100206000D01*
X182730000Y-111067000D02*
X189470000Y-111067000D01*
X182730000Y-100206000D02*
X189470000Y-100206000D01*
X189070000Y-111307000D02*
X189710000Y-111307000D01*
X189710000Y-111307000D02*
X189710000Y-110907000D01*
%TO.C,J2*%
X188950000Y-124021000D02*
X188950000Y-113160000D01*
X183850000Y-124021000D02*
X183850000Y-113160000D01*
X182730000Y-124021000D02*
X182730000Y-113160000D01*
X189470000Y-124021000D02*
X189470000Y-113160000D01*
X182730000Y-124021000D02*
X189470000Y-124021000D01*
X182730000Y-113160000D02*
X189470000Y-113160000D01*
X189070000Y-124261000D02*
X189710000Y-124261000D01*
X189710000Y-124261000D02*
X189710000Y-123861000D01*
D13*
%TO.C,Logo1*%
G36*
X169510814Y-132950931D02*
G01*
X169594635Y-133395555D01*
X169903920Y-133523053D01*
X170213206Y-133650551D01*
X170584246Y-133398246D01*
X170688157Y-133327996D01*
X170782087Y-133265272D01*
X170861652Y-133212938D01*
X170922470Y-133173857D01*
X170960157Y-133150893D01*
X170970421Y-133145942D01*
X170988910Y-133158676D01*
X171028420Y-133193882D01*
X171084522Y-133247062D01*
X171152787Y-133313718D01*
X171228786Y-133389354D01*
X171308092Y-133469472D01*
X171386275Y-133549574D01*
X171458907Y-133625164D01*
X171521559Y-133691745D01*
X171569803Y-133744818D01*
X171599210Y-133779887D01*
X171606241Y-133791623D01*
X171596123Y-133813260D01*
X171567759Y-133860662D01*
X171524129Y-133929193D01*
X171468218Y-134014215D01*
X171403006Y-134111093D01*
X171365219Y-134166350D01*
X171296343Y-134267248D01*
X171235140Y-134358299D01*
X171184578Y-134434970D01*
X171147628Y-134492728D01*
X171127258Y-134527043D01*
X171124197Y-134534254D01*
X171131136Y-134554748D01*
X171150051Y-134602513D01*
X171178087Y-134670832D01*
X171212391Y-134752989D01*
X171250109Y-134842270D01*
X171288387Y-134931958D01*
X171324370Y-135015338D01*
X171355206Y-135085694D01*
X171378039Y-135136310D01*
X171390017Y-135160471D01*
X171390724Y-135161422D01*
X171409531Y-135166036D01*
X171459618Y-135176328D01*
X171535793Y-135191287D01*
X171632865Y-135209901D01*
X171745643Y-135231159D01*
X171811442Y-135243418D01*
X171931950Y-135266362D01*
X172040797Y-135288195D01*
X172132476Y-135307722D01*
X172201481Y-135323748D01*
X172242304Y-135335079D01*
X172250511Y-135338674D01*
X172258548Y-135363006D01*
X172265033Y-135417959D01*
X172269970Y-135497108D01*
X172273364Y-135594026D01*
X172275218Y-135702287D01*
X172275538Y-135815465D01*
X172274327Y-135927135D01*
X172271590Y-136030868D01*
X172267331Y-136120241D01*
X172261555Y-136188826D01*
X172254267Y-136230197D01*
X172249895Y-136238810D01*
X172223764Y-136249133D01*
X172168393Y-136263892D01*
X172091107Y-136281352D01*
X171999230Y-136299780D01*
X171967158Y-136305741D01*
X171812524Y-136334066D01*
X171690375Y-136356876D01*
X171596673Y-136375080D01*
X171527384Y-136389583D01*
X171478471Y-136401292D01*
X171445897Y-136411115D01*
X171425628Y-136419956D01*
X171413626Y-136428724D01*
X171411947Y-136430457D01*
X171395184Y-136458371D01*
X171369614Y-136512695D01*
X171337788Y-136586777D01*
X171302260Y-136673965D01*
X171265583Y-136767608D01*
X171230311Y-136861052D01*
X171198996Y-136947647D01*
X171174193Y-137020740D01*
X171158454Y-137073678D01*
X171154332Y-137099811D01*
X171154676Y-137100726D01*
X171168641Y-137122086D01*
X171200322Y-137169084D01*
X171246391Y-137236827D01*
X171303518Y-137320423D01*
X171368373Y-137414982D01*
X171386843Y-137441854D01*
X171452699Y-137539275D01*
X171510650Y-137628163D01*
X171557538Y-137703412D01*
X171590207Y-137759920D01*
X171605500Y-137792581D01*
X171606241Y-137796593D01*
X171593392Y-137817684D01*
X171557888Y-137859464D01*
X171504293Y-137917445D01*
X171437171Y-137987135D01*
X171361087Y-138064045D01*
X171280604Y-138143683D01*
X171200287Y-138221561D01*
X171124699Y-138293186D01*
X171058405Y-138354070D01*
X171005969Y-138399721D01*
X170971955Y-138425650D01*
X170962545Y-138429883D01*
X170940643Y-138419912D01*
X170895800Y-138393020D01*
X170835321Y-138353736D01*
X170788789Y-138322117D01*
X170704475Y-138264098D01*
X170604626Y-138195784D01*
X170504473Y-138127579D01*
X170450627Y-138091075D01*
X170268371Y-137967800D01*
X170115381Y-138050520D01*
X170045682Y-138086759D01*
X169986414Y-138114926D01*
X169946311Y-138130991D01*
X169936103Y-138133226D01*
X169923829Y-138116722D01*
X169899613Y-138070082D01*
X169865263Y-137997609D01*
X169822588Y-137903606D01*
X169773394Y-137792374D01*
X169719490Y-137668215D01*
X169662684Y-137535432D01*
X169604782Y-137398327D01*
X169547593Y-137261202D01*
X169492924Y-137128358D01*
X169442584Y-137004098D01*
X169398380Y-136892725D01*
X169362119Y-136798539D01*
X169335609Y-136725844D01*
X169320658Y-136678941D01*
X169318254Y-136662833D01*
X169337311Y-136642286D01*
X169379036Y-136608933D01*
X169434706Y-136569702D01*
X169439378Y-136566599D01*
X169583264Y-136451423D01*
X169699283Y-136317053D01*
X169786430Y-136167784D01*
X169843699Y-136007913D01*
X169870086Y-135841737D01*
X169864585Y-135673552D01*
X169826190Y-135507655D01*
X169753895Y-135348342D01*
X169732626Y-135313487D01*
X169621996Y-135172737D01*
X169491302Y-135059714D01*
X169345064Y-134975003D01*
X169187808Y-134919194D01*
X169024057Y-134892874D01*
X168858333Y-134896630D01*
X168695162Y-134931050D01*
X168539065Y-134996723D01*
X168394567Y-135094235D01*
X168349869Y-135133813D01*
X168236112Y-135257703D01*
X168153218Y-135388124D01*
X168096356Y-135534315D01*
X168064687Y-135679088D01*
X168056869Y-135841860D01*
X168082938Y-136005440D01*
X168140245Y-136164298D01*
X168226144Y-136312906D01*
X168337986Y-136445735D01*
X168473123Y-136557256D01*
X168490883Y-136569011D01*
X168547150Y-136607508D01*
X168589923Y-136640863D01*
X168610372Y-136662160D01*
X168610669Y-136662833D01*
X168606279Y-136685871D01*
X168588876Y-136738157D01*
X168560268Y-136815390D01*
X168522265Y-136913268D01*
X168476674Y-137027491D01*
X168425303Y-137153758D01*
X168369962Y-137287767D01*
X168312458Y-137425218D01*
X168254601Y-137561808D01*
X168198198Y-137693237D01*
X168145058Y-137815205D01*
X168096990Y-137923409D01*
X168055801Y-138013549D01*
X168023301Y-138081323D01*
X168001297Y-138122430D01*
X167992436Y-138133226D01*
X167965360Y-138124819D01*
X167914697Y-138102272D01*
X167849183Y-138069613D01*
X167813159Y-138050520D01*
X167660168Y-137967800D01*
X167477912Y-138091075D01*
X167384875Y-138154228D01*
X167283015Y-138223727D01*
X167187562Y-138289165D01*
X167139750Y-138322117D01*
X167072505Y-138367273D01*
X167015564Y-138403057D01*
X166976354Y-138424938D01*
X166963619Y-138429563D01*
X166945083Y-138417085D01*
X166904059Y-138382252D01*
X166844525Y-138328678D01*
X166770458Y-138259983D01*
X166685835Y-138179781D01*
X166632315Y-138128286D01*
X166538681Y-138036286D01*
X166457759Y-137953999D01*
X166392823Y-137884945D01*
X166347142Y-137832644D01*
X166323989Y-137800616D01*
X166321768Y-137794116D01*
X166332076Y-137769394D01*
X166360561Y-137719405D01*
X166404063Y-137649212D01*
X166459423Y-137563875D01*
X166523480Y-137468456D01*
X166541697Y-137441854D01*
X166608073Y-137345167D01*
X166667622Y-137258117D01*
X166717016Y-137185595D01*
X166752925Y-137132493D01*
X166772019Y-137103703D01*
X166773864Y-137100726D01*
X166771105Y-137077782D01*
X166756462Y-137027336D01*
X166732487Y-136956041D01*
X166701734Y-136870547D01*
X166666756Y-136777507D01*
X166630107Y-136683574D01*
X166594339Y-136595399D01*
X166562006Y-136519634D01*
X166535662Y-136462931D01*
X166517858Y-136431943D01*
X166516593Y-136430457D01*
X166505706Y-136421601D01*
X166487318Y-136412843D01*
X166457394Y-136403277D01*
X166411897Y-136391996D01*
X166346791Y-136378093D01*
X166258039Y-136360663D01*
X166141607Y-136338798D01*
X165993458Y-136311591D01*
X165961382Y-136305741D01*
X165866314Y-136287374D01*
X165783435Y-136269405D01*
X165720070Y-136253569D01*
X165683542Y-136241600D01*
X165678644Y-136238810D01*
X165670573Y-136214072D01*
X165664013Y-136158790D01*
X165658967Y-136079389D01*
X165655441Y-135982296D01*
X165653439Y-135873938D01*
X165652964Y-135760740D01*
X165654023Y-135649128D01*
X165656618Y-135545529D01*
X165660754Y-135456368D01*
X165666437Y-135388072D01*
X165673669Y-135347066D01*
X165678029Y-135338674D01*
X165702302Y-135330208D01*
X165757574Y-135316435D01*
X165838338Y-135298550D01*
X165939088Y-135277748D01*
X166054317Y-135255223D01*
X166117098Y-135243418D01*
X166236213Y-135221151D01*
X166342435Y-135200979D01*
X166430573Y-135183915D01*
X166495434Y-135170969D01*
X166531826Y-135163155D01*
X166537816Y-135161422D01*
X166547939Y-135141890D01*
X166569338Y-135094843D01*
X166599161Y-135027003D01*
X166634555Y-134945091D01*
X166672668Y-134855828D01*
X166710647Y-134765935D01*
X166745640Y-134682135D01*
X166774794Y-134611147D01*
X166795257Y-134559694D01*
X166804177Y-134534497D01*
X166804343Y-134533396D01*
X166794231Y-134513519D01*
X166765883Y-134467777D01*
X166722277Y-134400717D01*
X166666394Y-134316884D01*
X166601213Y-134220826D01*
X166563321Y-134165650D01*
X166494275Y-134064481D01*
X166432950Y-133972630D01*
X166382337Y-133894744D01*
X166345429Y-133835469D01*
X166325218Y-133799451D01*
X166322299Y-133791377D01*
X166334847Y-133772584D01*
X166369537Y-133732457D01*
X166421937Y-133675493D01*
X166487616Y-133606185D01*
X166562144Y-133529031D01*
X166641087Y-133448525D01*
X166720017Y-133369163D01*
X166794500Y-133295440D01*
X166860106Y-133231852D01*
X166912404Y-133182894D01*
X166946961Y-133153061D01*
X166958522Y-133145942D01*
X166977346Y-133155953D01*
X167022369Y-133184078D01*
X167089213Y-133227454D01*
X167173501Y-133283218D01*
X167270856Y-133348506D01*
X167344293Y-133398246D01*
X167715333Y-133650551D01*
X168333905Y-133395555D01*
X168417725Y-132950931D01*
X168501546Y-132506307D01*
X169426994Y-132506307D01*
X169510814Y-132950931D01*
G37*
X169510814Y-132950931D02*
X169594635Y-133395555D01*
X169903920Y-133523053D01*
X170213206Y-133650551D01*
X170584246Y-133398246D01*
X170688157Y-133327996D01*
X170782087Y-133265272D01*
X170861652Y-133212938D01*
X170922470Y-133173857D01*
X170960157Y-133150893D01*
X170970421Y-133145942D01*
X170988910Y-133158676D01*
X171028420Y-133193882D01*
X171084522Y-133247062D01*
X171152787Y-133313718D01*
X171228786Y-133389354D01*
X171308092Y-133469472D01*
X171386275Y-133549574D01*
X171458907Y-133625164D01*
X171521559Y-133691745D01*
X171569803Y-133744818D01*
X171599210Y-133779887D01*
X171606241Y-133791623D01*
X171596123Y-133813260D01*
X171567759Y-133860662D01*
X171524129Y-133929193D01*
X171468218Y-134014215D01*
X171403006Y-134111093D01*
X171365219Y-134166350D01*
X171296343Y-134267248D01*
X171235140Y-134358299D01*
X171184578Y-134434970D01*
X171147628Y-134492728D01*
X171127258Y-134527043D01*
X171124197Y-134534254D01*
X171131136Y-134554748D01*
X171150051Y-134602513D01*
X171178087Y-134670832D01*
X171212391Y-134752989D01*
X171250109Y-134842270D01*
X171288387Y-134931958D01*
X171324370Y-135015338D01*
X171355206Y-135085694D01*
X171378039Y-135136310D01*
X171390017Y-135160471D01*
X171390724Y-135161422D01*
X171409531Y-135166036D01*
X171459618Y-135176328D01*
X171535793Y-135191287D01*
X171632865Y-135209901D01*
X171745643Y-135231159D01*
X171811442Y-135243418D01*
X171931950Y-135266362D01*
X172040797Y-135288195D01*
X172132476Y-135307722D01*
X172201481Y-135323748D01*
X172242304Y-135335079D01*
X172250511Y-135338674D01*
X172258548Y-135363006D01*
X172265033Y-135417959D01*
X172269970Y-135497108D01*
X172273364Y-135594026D01*
X172275218Y-135702287D01*
X172275538Y-135815465D01*
X172274327Y-135927135D01*
X172271590Y-136030868D01*
X172267331Y-136120241D01*
X172261555Y-136188826D01*
X172254267Y-136230197D01*
X172249895Y-136238810D01*
X172223764Y-136249133D01*
X172168393Y-136263892D01*
X172091107Y-136281352D01*
X171999230Y-136299780D01*
X171967158Y-136305741D01*
X171812524Y-136334066D01*
X171690375Y-136356876D01*
X171596673Y-136375080D01*
X171527384Y-136389583D01*
X171478471Y-136401292D01*
X171445897Y-136411115D01*
X171425628Y-136419956D01*
X171413626Y-136428724D01*
X171411947Y-136430457D01*
X171395184Y-136458371D01*
X171369614Y-136512695D01*
X171337788Y-136586777D01*
X171302260Y-136673965D01*
X171265583Y-136767608D01*
X171230311Y-136861052D01*
X171198996Y-136947647D01*
X171174193Y-137020740D01*
X171158454Y-137073678D01*
X171154332Y-137099811D01*
X171154676Y-137100726D01*
X171168641Y-137122086D01*
X171200322Y-137169084D01*
X171246391Y-137236827D01*
X171303518Y-137320423D01*
X171368373Y-137414982D01*
X171386843Y-137441854D01*
X171452699Y-137539275D01*
X171510650Y-137628163D01*
X171557538Y-137703412D01*
X171590207Y-137759920D01*
X171605500Y-137792581D01*
X171606241Y-137796593D01*
X171593392Y-137817684D01*
X171557888Y-137859464D01*
X171504293Y-137917445D01*
X171437171Y-137987135D01*
X171361087Y-138064045D01*
X171280604Y-138143683D01*
X171200287Y-138221561D01*
X171124699Y-138293186D01*
X171058405Y-138354070D01*
X171005969Y-138399721D01*
X170971955Y-138425650D01*
X170962545Y-138429883D01*
X170940643Y-138419912D01*
X170895800Y-138393020D01*
X170835321Y-138353736D01*
X170788789Y-138322117D01*
X170704475Y-138264098D01*
X170604626Y-138195784D01*
X170504473Y-138127579D01*
X170450627Y-138091075D01*
X170268371Y-137967800D01*
X170115381Y-138050520D01*
X170045682Y-138086759D01*
X169986414Y-138114926D01*
X169946311Y-138130991D01*
X169936103Y-138133226D01*
X169923829Y-138116722D01*
X169899613Y-138070082D01*
X169865263Y-137997609D01*
X169822588Y-137903606D01*
X169773394Y-137792374D01*
X169719490Y-137668215D01*
X169662684Y-137535432D01*
X169604782Y-137398327D01*
X169547593Y-137261202D01*
X169492924Y-137128358D01*
X169442584Y-137004098D01*
X169398380Y-136892725D01*
X169362119Y-136798539D01*
X169335609Y-136725844D01*
X169320658Y-136678941D01*
X169318254Y-136662833D01*
X169337311Y-136642286D01*
X169379036Y-136608933D01*
X169434706Y-136569702D01*
X169439378Y-136566599D01*
X169583264Y-136451423D01*
X169699283Y-136317053D01*
X169786430Y-136167784D01*
X169843699Y-136007913D01*
X169870086Y-135841737D01*
X169864585Y-135673552D01*
X169826190Y-135507655D01*
X169753895Y-135348342D01*
X169732626Y-135313487D01*
X169621996Y-135172737D01*
X169491302Y-135059714D01*
X169345064Y-134975003D01*
X169187808Y-134919194D01*
X169024057Y-134892874D01*
X168858333Y-134896630D01*
X168695162Y-134931050D01*
X168539065Y-134996723D01*
X168394567Y-135094235D01*
X168349869Y-135133813D01*
X168236112Y-135257703D01*
X168153218Y-135388124D01*
X168096356Y-135534315D01*
X168064687Y-135679088D01*
X168056869Y-135841860D01*
X168082938Y-136005440D01*
X168140245Y-136164298D01*
X168226144Y-136312906D01*
X168337986Y-136445735D01*
X168473123Y-136557256D01*
X168490883Y-136569011D01*
X168547150Y-136607508D01*
X168589923Y-136640863D01*
X168610372Y-136662160D01*
X168610669Y-136662833D01*
X168606279Y-136685871D01*
X168588876Y-136738157D01*
X168560268Y-136815390D01*
X168522265Y-136913268D01*
X168476674Y-137027491D01*
X168425303Y-137153758D01*
X168369962Y-137287767D01*
X168312458Y-137425218D01*
X168254601Y-137561808D01*
X168198198Y-137693237D01*
X168145058Y-137815205D01*
X168096990Y-137923409D01*
X168055801Y-138013549D01*
X168023301Y-138081323D01*
X168001297Y-138122430D01*
X167992436Y-138133226D01*
X167965360Y-138124819D01*
X167914697Y-138102272D01*
X167849183Y-138069613D01*
X167813159Y-138050520D01*
X167660168Y-137967800D01*
X167477912Y-138091075D01*
X167384875Y-138154228D01*
X167283015Y-138223727D01*
X167187562Y-138289165D01*
X167139750Y-138322117D01*
X167072505Y-138367273D01*
X167015564Y-138403057D01*
X166976354Y-138424938D01*
X166963619Y-138429563D01*
X166945083Y-138417085D01*
X166904059Y-138382252D01*
X166844525Y-138328678D01*
X166770458Y-138259983D01*
X166685835Y-138179781D01*
X166632315Y-138128286D01*
X166538681Y-138036286D01*
X166457759Y-137953999D01*
X166392823Y-137884945D01*
X166347142Y-137832644D01*
X166323989Y-137800616D01*
X166321768Y-137794116D01*
X166332076Y-137769394D01*
X166360561Y-137719405D01*
X166404063Y-137649212D01*
X166459423Y-137563875D01*
X166523480Y-137468456D01*
X166541697Y-137441854D01*
X166608073Y-137345167D01*
X166667622Y-137258117D01*
X166717016Y-137185595D01*
X166752925Y-137132493D01*
X166772019Y-137103703D01*
X166773864Y-137100726D01*
X166771105Y-137077782D01*
X166756462Y-137027336D01*
X166732487Y-136956041D01*
X166701734Y-136870547D01*
X166666756Y-136777507D01*
X166630107Y-136683574D01*
X166594339Y-136595399D01*
X166562006Y-136519634D01*
X166535662Y-136462931D01*
X166517858Y-136431943D01*
X166516593Y-136430457D01*
X166505706Y-136421601D01*
X166487318Y-136412843D01*
X166457394Y-136403277D01*
X166411897Y-136391996D01*
X166346791Y-136378093D01*
X166258039Y-136360663D01*
X166141607Y-136338798D01*
X165993458Y-136311591D01*
X165961382Y-136305741D01*
X165866314Y-136287374D01*
X165783435Y-136269405D01*
X165720070Y-136253569D01*
X165683542Y-136241600D01*
X165678644Y-136238810D01*
X165670573Y-136214072D01*
X165664013Y-136158790D01*
X165658967Y-136079389D01*
X165655441Y-135982296D01*
X165653439Y-135873938D01*
X165652964Y-135760740D01*
X165654023Y-135649128D01*
X165656618Y-135545529D01*
X165660754Y-135456368D01*
X165666437Y-135388072D01*
X165673669Y-135347066D01*
X165678029Y-135338674D01*
X165702302Y-135330208D01*
X165757574Y-135316435D01*
X165838338Y-135298550D01*
X165939088Y-135277748D01*
X166054317Y-135255223D01*
X166117098Y-135243418D01*
X166236213Y-135221151D01*
X166342435Y-135200979D01*
X166430573Y-135183915D01*
X166495434Y-135170969D01*
X166531826Y-135163155D01*
X166537816Y-135161422D01*
X166547939Y-135141890D01*
X166569338Y-135094843D01*
X166599161Y-135027003D01*
X166634555Y-134945091D01*
X166672668Y-134855828D01*
X166710647Y-134765935D01*
X166745640Y-134682135D01*
X166774794Y-134611147D01*
X166795257Y-134559694D01*
X166804177Y-134534497D01*
X166804343Y-134533396D01*
X166794231Y-134513519D01*
X166765883Y-134467777D01*
X166722277Y-134400717D01*
X166666394Y-134316884D01*
X166601213Y-134220826D01*
X166563321Y-134165650D01*
X166494275Y-134064481D01*
X166432950Y-133972630D01*
X166382337Y-133894744D01*
X166345429Y-133835469D01*
X166325218Y-133799451D01*
X166322299Y-133791377D01*
X166334847Y-133772584D01*
X166369537Y-133732457D01*
X166421937Y-133675493D01*
X166487616Y-133606185D01*
X166562144Y-133529031D01*
X166641087Y-133448525D01*
X166720017Y-133369163D01*
X166794500Y-133295440D01*
X166860106Y-133231852D01*
X166912404Y-133182894D01*
X166946961Y-133153061D01*
X166958522Y-133145942D01*
X166977346Y-133155953D01*
X167022369Y-133184078D01*
X167089213Y-133227454D01*
X167173501Y-133283218D01*
X167270856Y-133348506D01*
X167344293Y-133398246D01*
X167715333Y-133650551D01*
X168333905Y-133395555D01*
X168417725Y-132950931D01*
X168501546Y-132506307D01*
X169426994Y-132506307D01*
X169510814Y-132950931D01*
D12*
%TO.C,A1*%
X136270000Y-101270000D02*
X136270000Y-98730000D01*
X136270000Y-98730000D02*
X133600000Y-98730000D01*
X133600000Y-101270000D02*
X133600000Y-139500000D01*
X133600000Y-96060000D02*
X133600000Y-98730000D01*
X148970000Y-98730000D02*
X151640000Y-98730000D01*
X148970000Y-98730000D02*
X148970000Y-136830000D01*
X148970000Y-136830000D02*
X151640000Y-136830000D01*
X136270000Y-101270000D02*
X133600000Y-101270000D01*
X136270000Y-101270000D02*
X136270000Y-136830000D01*
X136270000Y-136830000D02*
X133600000Y-136830000D01*
X133600000Y-139500000D02*
X151640000Y-139500000D01*
X151640000Y-139500000D02*
X151640000Y-96060000D01*
X151640000Y-96060000D02*
X133600000Y-96060000D01*
%TO.C,J1*%
X129600000Y-77470000D02*
X130710000Y-77470000D01*
X130710000Y-77470000D02*
X130710000Y-78800000D01*
X119510000Y-77470000D02*
X119510000Y-102990000D01*
X119510000Y-102990000D02*
X128140000Y-102990000D01*
X128140000Y-77470000D02*
X128140000Y-102990000D01*
X119510000Y-77470000D02*
X128140000Y-77470000D01*
X119510000Y-100390000D02*
X128140000Y-100390000D01*
X119510000Y-97850000D02*
X128140000Y-97850000D01*
X119510000Y-95310000D02*
X128140000Y-95310000D01*
X119510000Y-92770000D02*
X128140000Y-92770000D01*
X119510000Y-90230000D02*
X128140000Y-90230000D01*
X119510000Y-87690000D02*
X128140000Y-87690000D01*
X119510000Y-85150000D02*
X128140000Y-85150000D01*
X119510000Y-82610000D02*
X128140000Y-82610000D01*
X119510000Y-80070000D02*
X128140000Y-80070000D01*
X128140000Y-102020000D02*
X128550000Y-102020000D01*
X128140000Y-101300000D02*
X128550000Y-101300000D01*
X128140000Y-99480000D02*
X128550000Y-99480000D01*
X128140000Y-98760000D02*
X128550000Y-98760000D01*
X128140000Y-96940000D02*
X128550000Y-96940000D01*
X128140000Y-96220000D02*
X128550000Y-96220000D01*
X128140000Y-94400000D02*
X128550000Y-94400000D01*
X128140000Y-93680000D02*
X128550000Y-93680000D01*
X128140000Y-91860000D02*
X128550000Y-91860000D01*
X128140000Y-91140000D02*
X128550000Y-91140000D01*
X128140000Y-89320000D02*
X128550000Y-89320000D01*
X128140000Y-88600000D02*
X128550000Y-88600000D01*
X128140000Y-86780000D02*
X128550000Y-86780000D01*
X128140000Y-86060000D02*
X128550000Y-86060000D01*
X128140000Y-84240000D02*
X128550000Y-84240000D01*
X128140000Y-83520000D02*
X128550000Y-83520000D01*
X128140000Y-81700000D02*
X128550000Y-81700000D01*
X128140000Y-80980000D02*
X128550000Y-80980000D01*
X128140000Y-79160000D02*
X128490000Y-79160000D01*
X128140000Y-78440000D02*
X128490000Y-78440000D01*
X119510000Y-79951900D02*
X128140000Y-79951900D01*
X119510000Y-79833805D02*
X128140000Y-79833805D01*
X119510000Y-79715710D02*
X128140000Y-79715710D01*
X119510000Y-79597615D02*
X128140000Y-79597615D01*
X119510000Y-79479520D02*
X128140000Y-79479520D01*
X119510000Y-79361425D02*
X128140000Y-79361425D01*
X119510000Y-79243330D02*
X128140000Y-79243330D01*
X119510000Y-79125235D02*
X128140000Y-79125235D01*
X119510000Y-79007140D02*
X128140000Y-79007140D01*
X119510000Y-78889045D02*
X128140000Y-78889045D01*
X119510000Y-78770950D02*
X128140000Y-78770950D01*
X119510000Y-78652855D02*
X128140000Y-78652855D01*
X119510000Y-78534760D02*
X128140000Y-78534760D01*
X119510000Y-78416665D02*
X128140000Y-78416665D01*
X119510000Y-78298570D02*
X128140000Y-78298570D01*
X119510000Y-78180475D02*
X128140000Y-78180475D01*
X119510000Y-78062380D02*
X128140000Y-78062380D01*
X119510000Y-77944285D02*
X128140000Y-77944285D01*
X119510000Y-77826190D02*
X128140000Y-77826190D01*
X119510000Y-77708095D02*
X128140000Y-77708095D01*
X119510000Y-77590000D02*
X128140000Y-77590000D01*
%TO.C,U2*%
D11*
X174408380Y-56897904D02*
X175217904Y-56897904D01*
X175313142Y-56850285D01*
X175360761Y-56802666D01*
X175408380Y-56707428D01*
X175408380Y-56516952D01*
X175360761Y-56421714D01*
X175313142Y-56374095D01*
X175217904Y-56326476D01*
X174408380Y-56326476D01*
X174503619Y-55897904D02*
X174456000Y-55850285D01*
X174408380Y-55755047D01*
X174408380Y-55516952D01*
X174456000Y-55421714D01*
X174503619Y-55374095D01*
X174598857Y-55326476D01*
X174694095Y-55326476D01*
X174836952Y-55374095D01*
X175408380Y-55945523D01*
X175408380Y-55326476D01*
%TO.C,A1*%
X141905714Y-95086666D02*
X142381904Y-95086666D01*
X141810476Y-95372380D02*
X142143809Y-94372380D01*
X142477142Y-95372380D01*
X143334285Y-95372380D02*
X142762857Y-95372380D01*
X143048571Y-95372380D02*
X143048571Y-94372380D01*
X142953333Y-94515238D01*
X142858095Y-94610476D01*
X142762857Y-94658095D01*
%TO.C,U1*%
X174281380Y-83148904D02*
X175090904Y-83148904D01*
X175186142Y-83101285D01*
X175233761Y-83053666D01*
X175281380Y-82958428D01*
X175281380Y-82767952D01*
X175233761Y-82672714D01*
X175186142Y-82625095D01*
X175090904Y-82577476D01*
X174281380Y-82577476D01*
X175281380Y-81577476D02*
X175281380Y-82148904D01*
X175281380Y-81863190D02*
X174281380Y-81863190D01*
X174424238Y-81958428D01*
X174519476Y-82053666D01*
X174567095Y-82148904D01*
%TO.C,J9*%
X181488380Y-67870333D02*
X182202666Y-67870333D01*
X182345523Y-67917952D01*
X182440761Y-68013190D01*
X182488380Y-68156047D01*
X182488380Y-68251285D01*
X182488380Y-67346523D02*
X182488380Y-67156047D01*
X182440761Y-67060809D01*
X182393142Y-67013190D01*
X182250285Y-66917952D01*
X182059809Y-66870333D01*
X181678857Y-66870333D01*
X181583619Y-66917952D01*
X181536000Y-66965571D01*
X181488380Y-67060809D01*
X181488380Y-67251285D01*
X181536000Y-67346523D01*
X181583619Y-67394142D01*
X181678857Y-67441761D01*
X181916952Y-67441761D01*
X182012190Y-67394142D01*
X182059809Y-67346523D01*
X182107428Y-67251285D01*
X182107428Y-67060809D01*
X182059809Y-66965571D01*
X182012190Y-66917952D01*
X181916952Y-66870333D01*
%TO.C,J8*%
X186147666Y-97215380D02*
X186147666Y-97929666D01*
X186100047Y-98072523D01*
X186004809Y-98167761D01*
X185861952Y-98215380D01*
X185766714Y-98215380D01*
X186766714Y-97643952D02*
X186671476Y-97596333D01*
X186623857Y-97548714D01*
X186576238Y-97453476D01*
X186576238Y-97405857D01*
X186623857Y-97310619D01*
X186671476Y-97263000D01*
X186766714Y-97215380D01*
X186957190Y-97215380D01*
X187052428Y-97263000D01*
X187100047Y-97310619D01*
X187147666Y-97405857D01*
X187147666Y-97453476D01*
X187100047Y-97548714D01*
X187052428Y-97596333D01*
X186957190Y-97643952D01*
X186766714Y-97643952D01*
X186671476Y-97691571D01*
X186623857Y-97739190D01*
X186576238Y-97834428D01*
X186576238Y-98024904D01*
X186623857Y-98120142D01*
X186671476Y-98167761D01*
X186766714Y-98215380D01*
X186957190Y-98215380D01*
X187052428Y-98167761D01*
X187100047Y-98120142D01*
X187147666Y-98024904D01*
X187147666Y-97834428D01*
X187100047Y-97739190D01*
X187052428Y-97691571D01*
X186957190Y-97643952D01*
%TO.C,J7*%
X181361380Y-51741333D02*
X182075666Y-51741333D01*
X182218523Y-51788952D01*
X182313761Y-51884190D01*
X182361380Y-52027047D01*
X182361380Y-52122285D01*
X181361380Y-51360380D02*
X181361380Y-50693714D01*
X182361380Y-51122285D01*
%TO.C,J6*%
X181488380Y-78411333D02*
X182202666Y-78411333D01*
X182345523Y-78458952D01*
X182440761Y-78554190D01*
X182488380Y-78697047D01*
X182488380Y-78792285D01*
X181488380Y-77506571D02*
X181488380Y-77697047D01*
X181536000Y-77792285D01*
X181583619Y-77839904D01*
X181726476Y-77935142D01*
X181916952Y-77982761D01*
X182297904Y-77982761D01*
X182393142Y-77935142D01*
X182440761Y-77887523D01*
X182488380Y-77792285D01*
X182488380Y-77601809D01*
X182440761Y-77506571D01*
X182393142Y-77458952D01*
X182297904Y-77411333D01*
X182059809Y-77411333D01*
X181964571Y-77458952D01*
X181916952Y-77506571D01*
X181869333Y-77601809D01*
X181869333Y-77792285D01*
X181916952Y-77887523D01*
X181964571Y-77935142D01*
X182059809Y-77982761D01*
%TO.C,J5*%
X182885380Y-60377333D02*
X183599666Y-60377333D01*
X183742523Y-60424952D01*
X183837761Y-60520190D01*
X183885380Y-60663047D01*
X183885380Y-60758285D01*
X182885380Y-59424952D02*
X182885380Y-59901142D01*
X183361571Y-59948761D01*
X183313952Y-59901142D01*
X183266333Y-59805904D01*
X183266333Y-59567809D01*
X183313952Y-59472571D01*
X183361571Y-59424952D01*
X183456809Y-59377333D01*
X183694904Y-59377333D01*
X183790142Y-59424952D01*
X183837761Y-59472571D01*
X183885380Y-59567809D01*
X183885380Y-59805904D01*
X183837761Y-59901142D01*
X183790142Y-59948761D01*
%TO.C,J4*%
X183266380Y-88698333D02*
X183980666Y-88698333D01*
X184123523Y-88745952D01*
X184218761Y-88841190D01*
X184266380Y-88984047D01*
X184266380Y-89079285D01*
X183599714Y-87793571D02*
X184266380Y-87793571D01*
X183218761Y-88031666D02*
X183933047Y-88269761D01*
X183933047Y-87650714D01*
%TO.C,J3*%
X181182380Y-105970333D02*
X181896666Y-105970333D01*
X182039523Y-106017952D01*
X182134761Y-106113190D01*
X182182380Y-106256047D01*
X182182380Y-106351285D01*
X181182380Y-105589380D02*
X181182380Y-104970333D01*
X181563333Y-105303666D01*
X181563333Y-105160809D01*
X181610952Y-105065571D01*
X181658571Y-105017952D01*
X181753809Y-104970333D01*
X181991904Y-104970333D01*
X182087142Y-105017952D01*
X182134761Y-105065571D01*
X182182380Y-105160809D01*
X182182380Y-105446523D01*
X182134761Y-105541761D01*
X182087142Y-105589380D01*
%TO.C,J2*%
X181182380Y-118924333D02*
X181896666Y-118924333D01*
X182039523Y-118971952D01*
X182134761Y-119067190D01*
X182182380Y-119210047D01*
X182182380Y-119305285D01*
X181277619Y-118495761D02*
X181230000Y-118448142D01*
X181182380Y-118352904D01*
X181182380Y-118114809D01*
X181230000Y-118019571D01*
X181277619Y-117971952D01*
X181372857Y-117924333D01*
X181468095Y-117924333D01*
X181610952Y-117971952D01*
X182182380Y-118543380D01*
X182182380Y-117924333D01*
%TO.C,A1*%
X141905714Y-95086666D02*
X142381904Y-95086666D01*
X141810476Y-95372380D02*
X142143809Y-94372380D01*
X142477142Y-95372380D01*
X143334285Y-95372380D02*
X142762857Y-95372380D01*
X143048571Y-95372380D02*
X143048571Y-94372380D01*
X142953333Y-94515238D01*
X142858095Y-94610476D01*
X142762857Y-94658095D01*
%TO.C,J1*%
X124886666Y-75482380D02*
X124886666Y-76196666D01*
X124839047Y-76339523D01*
X124743809Y-76434761D01*
X124600952Y-76482380D01*
X124505714Y-76482380D01*
X125886666Y-76482380D02*
X125315238Y-76482380D01*
X125600952Y-76482380D02*
X125600952Y-75482380D01*
X125505714Y-75625238D01*
X125410476Y-75720476D01*
X125315238Y-75768095D01*
%TD*%
M02*
