M48
; DRILL file {KiCad 5.1.10-1.fc34} date Tue Jun  8 11:51:27 2021
; FORMAT={-:-/ absolute / inch / decimal}
; #@! TF.CreationDate,2021-06-08T11:51:27-04:00
; #@! TF.GenerationSoftware,Kicad,Pcbnew,5.1.10-1.fc34
; #@! TF.FileFunction,Plated,1,2,PTH
FMAT,2
INCH
T1C0.0157
T2C0.0394
T3C0.0433
T4C0.1260
%
G90
G05
T1
X5.7068Y-3.7089
X5.7568Y-3.6539
X5.8468Y-3.5339
X6.3818Y-4.4489
T2
X5.1024Y-3.1024
X5.1024Y-3.2024
X5.1024Y-3.3024
X5.1024Y-3.4024
X5.1024Y-3.5024
X5.1024Y-3.6024
X5.1024Y-3.7024
X5.1024Y-3.8024
X5.1024Y-3.9024
X5.1024Y-4.0024
X5.315Y-3.937
X5.315Y-3.937
X5.315Y-4.037
X5.315Y-4.037
X5.315Y-4.137
X5.315Y-4.137
X5.315Y-4.237
X5.315Y-4.237
X5.315Y-4.337
X5.315Y-4.337
X5.315Y-4.437
X5.315Y-4.437
X5.315Y-4.537
X5.315Y-4.537
X5.315Y-4.637
X5.315Y-4.637
X5.315Y-4.737
X5.315Y-4.737
X5.315Y-4.837
X5.315Y-4.837
X5.315Y-4.937
X5.315Y-4.937
X5.315Y-5.037
X5.315Y-5.037
X5.315Y-5.137
X5.315Y-5.137
X5.315Y-5.237
X5.315Y-5.237
X5.315Y-5.337
X5.315Y-5.337
X5.915Y-3.937
X5.915Y-3.937
X5.915Y-4.037
X5.915Y-4.037
X5.915Y-4.137
X5.915Y-4.137
X5.915Y-4.237
X5.915Y-4.237
X5.915Y-4.337
X5.915Y-4.337
X5.915Y-4.437
X5.915Y-4.437
X5.915Y-4.537
X5.915Y-4.537
X5.915Y-4.637
X5.915Y-4.637
X5.915Y-4.737
X5.915Y-4.737
X5.915Y-4.837
X5.915Y-4.837
X5.915Y-4.937
X5.915Y-4.937
X5.915Y-5.037
X5.915Y-5.037
X5.915Y-5.137
X5.915Y-5.137
X5.915Y-5.237
X5.915Y-5.237
X5.915Y-5.337
X5.915Y-5.337
X6.2218Y-4.6089
X6.4618Y-2.9089
X6.4618Y-3.0428
X6.4618Y-3.1767
X6.4618Y-3.3105
X6.4618Y-3.4444
X6.4618Y-3.5782
X6.4668Y-1.8754
X6.4668Y-2.0093
X6.4668Y-2.1431
X6.4668Y-2.277
X6.4668Y-2.4109
X6.4668Y-2.5447
X6.6618Y-2.9759
X6.6618Y-3.1097
X6.6618Y-3.2436
X6.6618Y-3.3774
X6.6618Y-3.5113
X6.6668Y-1.9424
X6.6668Y-2.0762
X6.6668Y-2.2101
X6.6668Y-2.3439
X6.6668Y-2.4778
X7.3418Y-3.2789
X7.3418Y-3.3789
X7.3418Y-3.4789
X7.3518Y-2.2439
X7.3518Y-2.3439
X7.3518Y-2.4439
T3
X7.3268Y-4.0089
X7.3268Y-4.1089
X7.3268Y-4.2089
X7.3268Y-4.3089
X7.3268Y-4.5189
X7.3268Y-4.6189
X7.3268Y-4.7189
X7.3268Y-4.8189
X7.3418Y-3.0189
X7.3418Y-3.1189
X7.3418Y-3.6489
X7.3418Y-3.7489
X7.3468Y-1.9839
X7.3468Y-2.0839
X7.3468Y-2.6039
X7.3468Y-2.7039
T4
X5.0236Y-1.7638
X5.0236Y-5.3071
X7.3858Y-1.7638
X7.3858Y-5.3071
T0
M30
