%TF.GenerationSoftware,KiCad,Pcbnew,5.1.10-1.fc34*%
%TF.CreationDate,2021-06-08T11:51:25-04:00*%
%TF.ProjectId,BREAD_Slice,42524541-445f-4536-9c69-63652e6b6963,rev?*%
%TF.SameCoordinates,Original*%
%TF.FileFunction,Copper,L1,Top*%
%TF.FilePolarity,Positive*%
%FSLAX46Y46*%
G04 Gerber Fmt 4.6, Leading zero omitted, Abs format (unit mm)*
G04 Created by KiCad (PCBNEW 5.1.10-1.fc34) date 2021-06-08 11:51:25*
%MOMM*%
%LPD*%
G01*
G04 APERTURE LIST*
%TA.AperFunction,ComponentPad*%
%ADD10O,1.800000X1.800000*%
%TD*%
%TA.AperFunction,ComponentPad*%
%ADD11R,1.800000X1.800000*%
%TD*%
%TA.AperFunction,ComponentPad*%
%ADD12O,1.600000X1.600000*%
%TD*%
%TA.AperFunction,ComponentPad*%
%ADD13R,1.600000X1.600000*%
%TD*%
%TA.AperFunction,ComponentPad*%
%ADD14C,2.100000*%
%TD*%
%TA.AperFunction,ComponentPad*%
%ADD15R,2.100000X2.100000*%
%TD*%
%TA.AperFunction,ComponentPad*%
%ADD16O,1.700000X1.700000*%
%TD*%
%TA.AperFunction,ComponentPad*%
%ADD17R,1.700000X1.700000*%
%TD*%
%TA.AperFunction,ComponentPad*%
%ADD18C,5.600000*%
%TD*%
%TA.AperFunction,ViaPad*%
%ADD19C,1.500000*%
%TD*%
%TA.AperFunction,ViaPad*%
%ADD20C,0.800000*%
%TD*%
%TA.AperFunction,Conductor*%
%ADD21C,1.500000*%
%TD*%
%TA.AperFunction,Conductor*%
%ADD22C,0.500000*%
%TD*%
%TA.AperFunction,Conductor*%
%ADD23C,0.254000*%
%TD*%
%TA.AperFunction,Conductor*%
%ADD24C,0.100000*%
%TD*%
G04 APERTURE END LIST*
D10*
%TO.P,U2,11*%
%TO.N,Net-(C8-Pad1)*%
X164256000Y-64636000D03*
%TO.P,U2,10*%
%TO.N,Net-(C8-Pad2)*%
X169336000Y-62936000D03*
%TO.P,U2,9*%
%TO.N,/THRM2*%
X164256000Y-61236000D03*
%TO.P,U2,8*%
%TO.N,/CSEN2*%
X169336000Y-59536000D03*
%TO.P,U2,7*%
%TO.N,GND*%
X164256000Y-57836000D03*
%TO.P,U2,6*%
%TO.N,Net-(C4-Pad1)*%
X169336000Y-56136000D03*
%TO.P,U2,5*%
%TO.N,/MC2*%
X164256000Y-54436000D03*
%TO.P,U2,4*%
%TO.N,/BR2*%
X169336000Y-52736000D03*
%TO.P,U2,3*%
%TO.N,/DIR2*%
X164256000Y-51036000D03*
%TO.P,U2,2*%
%TO.N,Net-(C7-Pad1)*%
X169336000Y-49336000D03*
D11*
%TO.P,U2,1*%
%TO.N,Net-(C7-Pad2)*%
X164256000Y-47636000D03*
%TD*%
D12*
%TO.P,A1,16*%
%TO.N,Net-(A1-Pad16)*%
X150240000Y-135560000D03*
%TO.P,A1,15*%
%TO.N,/THRM1*%
X135000000Y-135560000D03*
%TO.P,A1,30*%
%TO.N,+12V*%
X150240000Y-100000000D03*
%TO.P,A1,14*%
%TO.N,/BR1*%
X135000000Y-133020000D03*
%TO.P,A1,29*%
%TO.N,GND*%
X150240000Y-102540000D03*
%TO.P,A1,13*%
%TO.N,/MC1*%
X135000000Y-130480000D03*
%TO.P,A1,28*%
%TO.N,Net-(A1-Pad28)*%
X150240000Y-105080000D03*
%TO.P,A1,12*%
%TO.N,/DIR1*%
X135000000Y-127940000D03*
%TO.P,A1,27*%
%TO.N,+5V*%
X150240000Y-107620000D03*
%TO.P,A1,11*%
%TO.N,/THRM2*%
X135000000Y-125400000D03*
%TO.P,A1,26*%
%TO.N,/CSEN2*%
X150240000Y-110160000D03*
%TO.P,A1,10*%
%TO.N,/BR2*%
X135000000Y-122860000D03*
%TO.P,A1,25*%
%TO.N,/CSEN1*%
X150240000Y-112700000D03*
%TO.P,A1,9*%
%TO.N,/MC2*%
X135000000Y-120320000D03*
%TO.P,A1,24*%
%TO.N,/I2C_CLK*%
X150240000Y-115240000D03*
%TO.P,A1,8*%
%TO.N,/DIR2*%
X135000000Y-117780000D03*
%TO.P,A1,23*%
%TO.N,/I2C_DAT*%
X150240000Y-117780000D03*
%TO.P,A1,7*%
%TO.N,/SYNC*%
X135000000Y-115240000D03*
%TO.P,A1,22*%
%TO.N,/B2*%
X150240000Y-120320000D03*
%TO.P,A1,6*%
%TO.N,/INT*%
X135000000Y-112700000D03*
%TO.P,A1,21*%
%TO.N,/A2*%
X150240000Y-122860000D03*
%TO.P,A1,5*%
%TO.N,/E_STOP*%
X135000000Y-110160000D03*
%TO.P,A1,20*%
%TO.N,/B1*%
X150240000Y-125400000D03*
%TO.P,A1,4*%
%TO.N,GND*%
X135000000Y-107620000D03*
%TO.P,A1,19*%
%TO.N,/A1*%
X150240000Y-127940000D03*
%TO.P,A1,3*%
%TO.N,Net-(A1-Pad3)*%
X135000000Y-105080000D03*
%TO.P,A1,18*%
%TO.N,Net-(A1-Pad18)*%
X150240000Y-130480000D03*
%TO.P,A1,2*%
%TO.N,Net-(A1-Pad2)*%
X135000000Y-102540000D03*
%TO.P,A1,17*%
%TO.N,Net-(A1-Pad17)*%
X150240000Y-133020000D03*
D13*
%TO.P,A1,1*%
%TO.N,Net-(A1-Pad1)*%
X135000000Y-100000000D03*
%TD*%
D10*
%TO.P,U1,11*%
%TO.N,Net-(C6-Pad1)*%
X164129000Y-90887000D03*
%TO.P,U1,10*%
%TO.N,Net-(C6-Pad2)*%
X169209000Y-89187000D03*
%TO.P,U1,9*%
%TO.N,/THRM1*%
X164129000Y-87487000D03*
%TO.P,U1,8*%
%TO.N,/CSEN1*%
X169209000Y-85787000D03*
%TO.P,U1,7*%
%TO.N,GND*%
X164129000Y-84087000D03*
%TO.P,U1,6*%
%TO.N,Net-(C3-Pad1)*%
X169209000Y-82387000D03*
%TO.P,U1,5*%
%TO.N,/MC1*%
X164129000Y-80687000D03*
%TO.P,U1,4*%
%TO.N,/BR1*%
X169209000Y-78987000D03*
%TO.P,U1,3*%
%TO.N,/DIR1*%
X164129000Y-77287000D03*
%TO.P,U1,2*%
%TO.N,Net-(C5-Pad1)*%
X169209000Y-75587000D03*
D11*
%TO.P,U1,1*%
%TO.N,Net-(C5-Pad2)*%
X164129000Y-73887000D03*
%TD*%
D14*
%TO.P,J9,2*%
%TO.N,GND*%
X186608000Y-68680000D03*
D15*
%TO.P,J9,1*%
%TO.N,/CUST2*%
X186608000Y-66140000D03*
%TD*%
D14*
%TO.P,J8,2*%
%TO.N,GND*%
X186481000Y-95223000D03*
D15*
%TO.P,J8,1*%
%TO.N,/CUST1*%
X186481000Y-92683000D03*
%TD*%
D14*
%TO.P,J7,2*%
%TO.N,Net-(C8-Pad2)*%
X186608000Y-52932000D03*
D15*
%TO.P,J7,1*%
%TO.N,Net-(C7-Pad1)*%
X186608000Y-50392000D03*
%TD*%
D14*
%TO.P,J6,2*%
%TO.N,Net-(C6-Pad2)*%
X186481000Y-79221000D03*
D15*
%TO.P,J6,1*%
%TO.N,Net-(C5-Pad1)*%
X186481000Y-76681000D03*
%TD*%
D16*
%TO.P,J5,3*%
%TO.N,Net-(C4-Pad1)*%
X186735000Y-56996000D03*
%TO.P,J5,2*%
%TO.N,+12V*%
X186735000Y-59536000D03*
D17*
%TO.P,J5,1*%
%TO.N,/CUST2*%
X186735000Y-62076000D03*
%TD*%
D16*
%TO.P,J4,3*%
%TO.N,Net-(C3-Pad1)*%
X186481000Y-83285000D03*
%TO.P,J4,2*%
%TO.N,+12V*%
X186481000Y-85825000D03*
D17*
%TO.P,J4,1*%
%TO.N,/CUST1*%
X186481000Y-88365000D03*
%TD*%
D14*
%TO.P,J3,4*%
%TO.N,GND*%
X186100000Y-101827000D03*
%TO.P,J3,3*%
%TO.N,+5V*%
X186100000Y-104367000D03*
%TO.P,J3,2*%
%TO.N,/B2*%
X186100000Y-106907000D03*
D15*
%TO.P,J3,1*%
%TO.N,/A2*%
X186100000Y-109447000D03*
%TD*%
D14*
%TO.P,J2,4*%
%TO.N,GND*%
X186100000Y-114781000D03*
%TO.P,J2,3*%
%TO.N,+5V*%
X186100000Y-117321000D03*
%TO.P,J2,2*%
%TO.N,/B1*%
X186100000Y-119861000D03*
D15*
%TO.P,J2,1*%
%TO.N,/A1*%
X186100000Y-122401000D03*
%TD*%
D18*
%TO.P,H4,1*%
%TO.N,N/C*%
X187600000Y-134800000D03*
%TD*%
%TO.P,H3,1*%
%TO.N,N/C*%
X127600000Y-134800000D03*
%TD*%
%TO.P,H2,1*%
%TO.N,N/C*%
X187600000Y-44800000D03*
%TD*%
%TO.P,H1,1*%
%TO.N,N/C*%
X127600000Y-44800000D03*
%TD*%
D13*
%TO.P,A1,1*%
%TO.N,Net-(A1-Pad1)*%
X135000000Y-100000000D03*
D12*
%TO.P,A1,17*%
%TO.N,Net-(A1-Pad17)*%
X150240000Y-133020000D03*
%TO.P,A1,2*%
%TO.N,Net-(A1-Pad2)*%
X135000000Y-102540000D03*
%TO.P,A1,18*%
%TO.N,Net-(A1-Pad18)*%
X150240000Y-130480000D03*
%TO.P,A1,3*%
%TO.N,Net-(A1-Pad3)*%
X135000000Y-105080000D03*
%TO.P,A1,19*%
%TO.N,/A1*%
X150240000Y-127940000D03*
%TO.P,A1,4*%
%TO.N,GND*%
X135000000Y-107620000D03*
%TO.P,A1,20*%
%TO.N,/B1*%
X150240000Y-125400000D03*
%TO.P,A1,5*%
%TO.N,/E_STOP*%
X135000000Y-110160000D03*
%TO.P,A1,21*%
%TO.N,/A2*%
X150240000Y-122860000D03*
%TO.P,A1,6*%
%TO.N,/INT*%
X135000000Y-112700000D03*
%TO.P,A1,22*%
%TO.N,/B2*%
X150240000Y-120320000D03*
%TO.P,A1,7*%
%TO.N,/SYNC*%
X135000000Y-115240000D03*
%TO.P,A1,23*%
%TO.N,/I2C_DAT*%
X150240000Y-117780000D03*
%TO.P,A1,8*%
%TO.N,/DIR2*%
X135000000Y-117780000D03*
%TO.P,A1,24*%
%TO.N,/I2C_CLK*%
X150240000Y-115240000D03*
%TO.P,A1,9*%
%TO.N,/MC2*%
X135000000Y-120320000D03*
%TO.P,A1,25*%
%TO.N,/CSEN1*%
X150240000Y-112700000D03*
%TO.P,A1,10*%
%TO.N,/BR2*%
X135000000Y-122860000D03*
%TO.P,A1,26*%
%TO.N,/CSEN2*%
X150240000Y-110160000D03*
%TO.P,A1,11*%
%TO.N,/THRM2*%
X135000000Y-125400000D03*
%TO.P,A1,27*%
%TO.N,+5V*%
X150240000Y-107620000D03*
%TO.P,A1,12*%
%TO.N,/DIR1*%
X135000000Y-127940000D03*
%TO.P,A1,28*%
%TO.N,Net-(A1-Pad28)*%
X150240000Y-105080000D03*
%TO.P,A1,13*%
%TO.N,/MC1*%
X135000000Y-130480000D03*
%TO.P,A1,29*%
%TO.N,GND*%
X150240000Y-102540000D03*
%TO.P,A1,14*%
%TO.N,/BR1*%
X135000000Y-133020000D03*
%TO.P,A1,30*%
%TO.N,+12V*%
X150240000Y-100000000D03*
%TO.P,A1,15*%
%TO.N,/THRM1*%
X135000000Y-135560000D03*
%TO.P,A1,16*%
%TO.N,Net-(A1-Pad16)*%
X150240000Y-135560000D03*
%TD*%
D17*
%TO.P,J1,1*%
%TO.N,GND*%
X129600000Y-78800000D03*
D16*
%TO.P,J1,2*%
%TO.N,+12V*%
X129600000Y-81340000D03*
%TO.P,J1,3*%
%TO.N,/I2C_CLK*%
X129600000Y-83880000D03*
%TO.P,J1,4*%
%TO.N,/I2C_DAT*%
X129600000Y-86420000D03*
%TO.P,J1,5*%
%TO.N,GND*%
X129600000Y-88960000D03*
%TO.P,J1,6*%
%TO.N,/E_STOP*%
X129600000Y-91500000D03*
%TO.P,J1,7*%
%TO.N,/INT*%
X129600000Y-94040000D03*
%TO.P,J1,8*%
%TO.N,/SYNC*%
X129600000Y-96580000D03*
%TO.P,J1,9*%
%TO.N,+12V*%
X129600000Y-99120000D03*
%TO.P,J1,10*%
%TO.N,GND*%
X129600000Y-101660000D03*
%TD*%
D19*
%TO.N,GND*%
X158033000Y-117067000D03*
D20*
%TO.N,/I2C_CLK*%
X146222000Y-92810000D03*
%TO.N,/I2C_DAT*%
X144952000Y-94207000D03*
%TO.N,/CSEN1*%
X162097000Y-113003000D03*
%TO.N,/CSEN2*%
X148508000Y-89762000D03*
%TD*%
D21*
%TO.N,GND*%
X186100000Y-101827000D02*
X178607000Y-101827000D01*
X163367000Y-117067000D02*
X158033000Y-117067000D01*
X178607000Y-101827000D02*
X163367000Y-117067000D01*
%TO.N,+5V*%
X187584924Y-117321000D02*
X186100000Y-117321000D01*
X189402000Y-115503924D02*
X187584924Y-117321000D01*
X189402000Y-105764000D02*
X189402000Y-115503924D01*
X188005000Y-104367000D02*
X189402000Y-105764000D01*
X186100000Y-104367000D02*
X188005000Y-104367000D01*
D22*
%TO.N,/I2C_CLK*%
X150240000Y-115240000D02*
X147824000Y-115240000D01*
X146222000Y-113638000D02*
X146222000Y-92810000D01*
X147824000Y-115240000D02*
X146222000Y-113638000D01*
%TO.N,/I2C_DAT*%
X150240000Y-117780000D02*
X146173000Y-117780000D01*
X144952000Y-116559000D02*
X144952000Y-94207000D01*
X146173000Y-117780000D02*
X144952000Y-116559000D01*
%TO.N,/SYNC*%
X135000000Y-115240000D02*
X132838000Y-115240000D01*
X132838000Y-115240000D02*
X131236000Y-113638000D01*
X131236000Y-113638000D02*
X131236000Y-97382000D01*
X130434000Y-96580000D02*
X129600000Y-96580000D01*
X131236000Y-97382000D02*
X130434000Y-96580000D01*
%TO.N,/E_STOP*%
X135000000Y-110160000D02*
X133727000Y-110160000D01*
X133727000Y-110160000D02*
X133014000Y-109447000D01*
X133014000Y-109447000D02*
X133014000Y-93064000D01*
X131450000Y-91500000D02*
X129600000Y-91500000D01*
X133014000Y-93064000D02*
X131450000Y-91500000D01*
D21*
%TO.N,+12V*%
X129600000Y-81340000D02*
X127974000Y-81340000D01*
X127974000Y-81340000D02*
X126156000Y-83158000D01*
X126156000Y-83158000D02*
X126156000Y-98017000D01*
X127259000Y-99120000D02*
X129600000Y-99120000D01*
X126156000Y-98017000D02*
X127259000Y-99120000D01*
X187937081Y-59536000D02*
X190037000Y-61635919D01*
X186735000Y-59536000D02*
X187937081Y-59536000D01*
X187683081Y-85825000D02*
X186481000Y-85825000D01*
X190037000Y-83471081D02*
X187683081Y-85825000D01*
X190037000Y-61635919D02*
X190037000Y-83471081D01*
D22*
%TO.N,/INT*%
X131069000Y-94040000D02*
X129600000Y-94040000D01*
X132125000Y-95096000D02*
X131069000Y-94040000D01*
X132125000Y-111860000D02*
X132125000Y-95096000D01*
X132965000Y-112700000D02*
X132125000Y-111860000D01*
X135000000Y-112700000D02*
X132965000Y-112700000D01*
%TO.N,/BR1*%
X169189000Y-78987000D02*
X169209000Y-78987000D01*
X165780000Y-82396000D02*
X169189000Y-78987000D01*
X145333000Y-82396000D02*
X165780000Y-82396000D01*
X142161020Y-85567980D02*
X145333000Y-82396000D01*
X142285000Y-100811000D02*
X142161020Y-100687020D01*
X142161020Y-100687020D02*
X142161020Y-85567980D01*
X142285000Y-125735000D02*
X142285000Y-100811000D01*
X135000000Y-133020000D02*
X142285000Y-125735000D01*
%TO.N,/BR2*%
X168770000Y-52736000D02*
X169336000Y-52736000D01*
X165526000Y-55980000D02*
X168770000Y-52736000D01*
X141777000Y-55980000D02*
X165526000Y-55980000D01*
X138602000Y-59155000D02*
X141777000Y-55980000D01*
X138602000Y-119258000D02*
X138602000Y-59155000D01*
X135000000Y-122860000D02*
X138602000Y-119258000D01*
%TO.N,/CSEN1*%
X162097000Y-113003000D02*
X162097000Y-106272000D01*
X162097000Y-106272000D02*
X172892000Y-95477000D01*
X172892000Y-89470000D02*
X169209000Y-85787000D01*
X172892000Y-95477000D02*
X172892000Y-89470000D01*
%TO.N,/DIR1*%
X135000000Y-127940000D02*
X140761000Y-122179000D01*
X140761000Y-79856000D02*
X140830000Y-79856000D01*
X140761000Y-122179000D02*
X140761000Y-79856000D01*
X140761000Y-79475000D02*
X142949000Y-77287000D01*
X140761000Y-79856000D02*
X140761000Y-79475000D01*
X142949000Y-77287000D02*
X164129000Y-77287000D01*
%TO.N,/CSEN2*%
X150240000Y-110160000D02*
X151605000Y-110160000D01*
X151605000Y-110160000D02*
X153334000Y-108431000D01*
X153334000Y-94588000D02*
X148508000Y-89762000D01*
X153334000Y-108431000D02*
X153334000Y-94588000D01*
%TO.N,/DIR2*%
X135000000Y-117780000D02*
X135984000Y-117780000D01*
X135984000Y-117780000D02*
X137078000Y-116686000D01*
X139990000Y-51036000D02*
X142802000Y-51036000D01*
X137078000Y-53948000D02*
X139990000Y-51036000D01*
X142802000Y-51036000D02*
X164256000Y-51036000D01*
X137078000Y-116686000D02*
X137078000Y-53948000D01*
%TO.N,/MC1*%
X143624000Y-80687000D02*
X164129000Y-80687000D01*
X141461010Y-82849990D02*
X143624000Y-80687000D01*
X141461010Y-124018990D02*
X141461010Y-82849990D01*
X135000000Y-130480000D02*
X141461010Y-124018990D01*
%TO.N,/MC2*%
X140527000Y-54436000D02*
X164256000Y-54436000D01*
X137778010Y-57184990D02*
X140527000Y-54436000D01*
X137778010Y-117541990D02*
X137778010Y-57184990D01*
X135000000Y-120320000D02*
X137778010Y-117541990D01*
%TO.N,/THRM1*%
X135000000Y-135560000D02*
X143428000Y-127132000D01*
X143428000Y-127132000D02*
X143428000Y-90778000D01*
X143428000Y-90778000D02*
X143428000Y-90905000D01*
X145979000Y-87487000D02*
X164129000Y-87487000D01*
X143428000Y-90038000D02*
X145979000Y-87487000D01*
X143428000Y-90778000D02*
X143428000Y-90038000D01*
%TO.N,/THRM2*%
X142871000Y-61236000D02*
X164256000Y-61236000D01*
X139618000Y-64489000D02*
X142871000Y-61236000D01*
X139618000Y-120750000D02*
X139618000Y-64489000D01*
X136570000Y-123798000D02*
X139618000Y-120750000D01*
X136570000Y-123830000D02*
X136570000Y-123798000D01*
X135000000Y-125400000D02*
X136570000Y-123830000D01*
D21*
%TO.N,/CUST2*%
X186735000Y-66013000D02*
X186608000Y-66140000D01*
X186735000Y-62076000D02*
X186735000Y-66013000D01*
%TO.N,/CUST1*%
X186481000Y-92683000D02*
X186481000Y-88365000D01*
%TD*%
D23*
%TO.N,Net-(C4-Pad1)*%
X184932188Y-51566482D02*
X184968498Y-51686180D01*
X185027463Y-51796494D01*
X185106815Y-51893185D01*
X185203506Y-51972537D01*
X185217546Y-51980042D01*
X185114772Y-52133853D01*
X184987754Y-52440504D01*
X184923000Y-52766042D01*
X184923000Y-53097958D01*
X184987754Y-53423496D01*
X185114772Y-53730147D01*
X185299175Y-54006125D01*
X185533875Y-54240825D01*
X185809853Y-54425228D01*
X186116504Y-54552246D01*
X186442042Y-54617000D01*
X186773958Y-54617000D01*
X187099496Y-54552246D01*
X187406147Y-54425228D01*
X187682125Y-54240825D01*
X187916825Y-54006125D01*
X188101228Y-53730147D01*
X188228246Y-53423496D01*
X188293000Y-53097958D01*
X188293000Y-52766042D01*
X188228246Y-52440504D01*
X188101228Y-52133853D01*
X187998454Y-51980042D01*
X188012494Y-51972537D01*
X188109185Y-51893185D01*
X188188537Y-51796494D01*
X188247502Y-51686180D01*
X188283812Y-51566482D01*
X188286913Y-51535000D01*
X189656000Y-51535000D01*
X189656000Y-58393000D01*
X188727519Y-58393000D01*
X188710269Y-58378843D01*
X188469662Y-58250236D01*
X188208588Y-58171040D01*
X188005118Y-58151000D01*
X188005110Y-58151000D01*
X187937081Y-58144300D01*
X187869052Y-58151000D01*
X187660929Y-58151000D01*
X187832588Y-57996269D01*
X188006641Y-57762920D01*
X188131825Y-57500099D01*
X188176476Y-57352890D01*
X188055155Y-57123000D01*
X186862000Y-57123000D01*
X186862000Y-57143000D01*
X186608000Y-57143000D01*
X186608000Y-57123000D01*
X185414845Y-57123000D01*
X185293524Y-57352890D01*
X185338175Y-57500099D01*
X185463359Y-57762920D01*
X185637412Y-57996269D01*
X185853645Y-58191178D01*
X185970534Y-58260805D01*
X185788368Y-58382525D01*
X185777893Y-58393000D01*
X170363817Y-58393000D01*
X170314505Y-58343688D01*
X170063095Y-58175701D01*
X169783743Y-58059989D01*
X169487184Y-58001000D01*
X169184816Y-58001000D01*
X168888257Y-58059989D01*
X168608905Y-58175701D01*
X168357495Y-58343688D01*
X168308183Y-58393000D01*
X167050000Y-58393000D01*
X167050000Y-56500741D01*
X167844959Y-56500741D01*
X167944766Y-56784620D01*
X168098038Y-57043573D01*
X168298884Y-57267649D01*
X168539586Y-57448236D01*
X168810893Y-57578394D01*
X168971260Y-57627036D01*
X169209000Y-57506378D01*
X169209000Y-56263000D01*
X169463000Y-56263000D01*
X169463000Y-57506378D01*
X169700740Y-57627036D01*
X169861107Y-57578394D01*
X170132414Y-57448236D01*
X170373116Y-57267649D01*
X170573962Y-57043573D01*
X170727234Y-56784620D01*
X170778392Y-56639110D01*
X185293524Y-56639110D01*
X185414845Y-56869000D01*
X186608000Y-56869000D01*
X186608000Y-55675186D01*
X186862000Y-55675186D01*
X186862000Y-56869000D01*
X188055155Y-56869000D01*
X188176476Y-56639110D01*
X188131825Y-56491901D01*
X188006641Y-56229080D01*
X187832588Y-55995731D01*
X187616355Y-55800822D01*
X187366252Y-55651843D01*
X187091891Y-55554519D01*
X186862000Y-55675186D01*
X186608000Y-55675186D01*
X186378109Y-55554519D01*
X186103748Y-55651843D01*
X185853645Y-55800822D01*
X185637412Y-55995731D01*
X185463359Y-56229080D01*
X185338175Y-56491901D01*
X185293524Y-56639110D01*
X170778392Y-56639110D01*
X170827041Y-56500741D01*
X170706992Y-56263000D01*
X169463000Y-56263000D01*
X169209000Y-56263000D01*
X167965008Y-56263000D01*
X167844959Y-56500741D01*
X167050000Y-56500741D01*
X167050000Y-55771259D01*
X167844959Y-55771259D01*
X167965008Y-56009000D01*
X169209000Y-56009000D01*
X169209000Y-54765622D01*
X169463000Y-54765622D01*
X169463000Y-56009000D01*
X170706992Y-56009000D01*
X170827041Y-55771259D01*
X170727234Y-55487380D01*
X170573962Y-55228427D01*
X170373116Y-55004351D01*
X170132414Y-54823764D01*
X169861107Y-54693606D01*
X169700740Y-54644964D01*
X169463000Y-54765622D01*
X169209000Y-54765622D01*
X168971260Y-54644964D01*
X168810893Y-54693606D01*
X168539586Y-54823764D01*
X168298884Y-55004351D01*
X168098038Y-55228427D01*
X167944766Y-55487380D01*
X167844959Y-55771259D01*
X167050000Y-55771259D01*
X167050000Y-55707578D01*
X168645939Y-54111639D01*
X168888257Y-54212011D01*
X169184816Y-54271000D01*
X169487184Y-54271000D01*
X169783743Y-54212011D01*
X170063095Y-54096299D01*
X170314505Y-53928312D01*
X170528312Y-53714505D01*
X170696299Y-53463095D01*
X170812011Y-53183743D01*
X170871000Y-52887184D01*
X170871000Y-52584816D01*
X170812011Y-52288257D01*
X170696299Y-52008905D01*
X170528312Y-51757495D01*
X170314505Y-51543688D01*
X170301503Y-51535000D01*
X184929087Y-51535000D01*
X184932188Y-51566482D01*
%TA.AperFunction,Conductor*%
D24*
G36*
X184932188Y-51566482D02*
G01*
X184968498Y-51686180D01*
X185027463Y-51796494D01*
X185106815Y-51893185D01*
X185203506Y-51972537D01*
X185217546Y-51980042D01*
X185114772Y-52133853D01*
X184987754Y-52440504D01*
X184923000Y-52766042D01*
X184923000Y-53097958D01*
X184987754Y-53423496D01*
X185114772Y-53730147D01*
X185299175Y-54006125D01*
X185533875Y-54240825D01*
X185809853Y-54425228D01*
X186116504Y-54552246D01*
X186442042Y-54617000D01*
X186773958Y-54617000D01*
X187099496Y-54552246D01*
X187406147Y-54425228D01*
X187682125Y-54240825D01*
X187916825Y-54006125D01*
X188101228Y-53730147D01*
X188228246Y-53423496D01*
X188293000Y-53097958D01*
X188293000Y-52766042D01*
X188228246Y-52440504D01*
X188101228Y-52133853D01*
X187998454Y-51980042D01*
X188012494Y-51972537D01*
X188109185Y-51893185D01*
X188188537Y-51796494D01*
X188247502Y-51686180D01*
X188283812Y-51566482D01*
X188286913Y-51535000D01*
X189656000Y-51535000D01*
X189656000Y-58393000D01*
X188727519Y-58393000D01*
X188710269Y-58378843D01*
X188469662Y-58250236D01*
X188208588Y-58171040D01*
X188005118Y-58151000D01*
X188005110Y-58151000D01*
X187937081Y-58144300D01*
X187869052Y-58151000D01*
X187660929Y-58151000D01*
X187832588Y-57996269D01*
X188006641Y-57762920D01*
X188131825Y-57500099D01*
X188176476Y-57352890D01*
X188055155Y-57123000D01*
X186862000Y-57123000D01*
X186862000Y-57143000D01*
X186608000Y-57143000D01*
X186608000Y-57123000D01*
X185414845Y-57123000D01*
X185293524Y-57352890D01*
X185338175Y-57500099D01*
X185463359Y-57762920D01*
X185637412Y-57996269D01*
X185853645Y-58191178D01*
X185970534Y-58260805D01*
X185788368Y-58382525D01*
X185777893Y-58393000D01*
X170363817Y-58393000D01*
X170314505Y-58343688D01*
X170063095Y-58175701D01*
X169783743Y-58059989D01*
X169487184Y-58001000D01*
X169184816Y-58001000D01*
X168888257Y-58059989D01*
X168608905Y-58175701D01*
X168357495Y-58343688D01*
X168308183Y-58393000D01*
X167050000Y-58393000D01*
X167050000Y-56500741D01*
X167844959Y-56500741D01*
X167944766Y-56784620D01*
X168098038Y-57043573D01*
X168298884Y-57267649D01*
X168539586Y-57448236D01*
X168810893Y-57578394D01*
X168971260Y-57627036D01*
X169209000Y-57506378D01*
X169209000Y-56263000D01*
X169463000Y-56263000D01*
X169463000Y-57506378D01*
X169700740Y-57627036D01*
X169861107Y-57578394D01*
X170132414Y-57448236D01*
X170373116Y-57267649D01*
X170573962Y-57043573D01*
X170727234Y-56784620D01*
X170778392Y-56639110D01*
X185293524Y-56639110D01*
X185414845Y-56869000D01*
X186608000Y-56869000D01*
X186608000Y-55675186D01*
X186862000Y-55675186D01*
X186862000Y-56869000D01*
X188055155Y-56869000D01*
X188176476Y-56639110D01*
X188131825Y-56491901D01*
X188006641Y-56229080D01*
X187832588Y-55995731D01*
X187616355Y-55800822D01*
X187366252Y-55651843D01*
X187091891Y-55554519D01*
X186862000Y-55675186D01*
X186608000Y-55675186D01*
X186378109Y-55554519D01*
X186103748Y-55651843D01*
X185853645Y-55800822D01*
X185637412Y-55995731D01*
X185463359Y-56229080D01*
X185338175Y-56491901D01*
X185293524Y-56639110D01*
X170778392Y-56639110D01*
X170827041Y-56500741D01*
X170706992Y-56263000D01*
X169463000Y-56263000D01*
X169209000Y-56263000D01*
X167965008Y-56263000D01*
X167844959Y-56500741D01*
X167050000Y-56500741D01*
X167050000Y-55771259D01*
X167844959Y-55771259D01*
X167965008Y-56009000D01*
X169209000Y-56009000D01*
X169209000Y-54765622D01*
X169463000Y-54765622D01*
X169463000Y-56009000D01*
X170706992Y-56009000D01*
X170827041Y-55771259D01*
X170727234Y-55487380D01*
X170573962Y-55228427D01*
X170373116Y-55004351D01*
X170132414Y-54823764D01*
X169861107Y-54693606D01*
X169700740Y-54644964D01*
X169463000Y-54765622D01*
X169209000Y-54765622D01*
X168971260Y-54644964D01*
X168810893Y-54693606D01*
X168539586Y-54823764D01*
X168298884Y-55004351D01*
X168098038Y-55228427D01*
X167944766Y-55487380D01*
X167844959Y-55771259D01*
X167050000Y-55771259D01*
X167050000Y-55707578D01*
X168645939Y-54111639D01*
X168888257Y-54212011D01*
X169184816Y-54271000D01*
X169487184Y-54271000D01*
X169783743Y-54212011D01*
X170063095Y-54096299D01*
X170314505Y-53928312D01*
X170528312Y-53714505D01*
X170696299Y-53463095D01*
X170812011Y-53183743D01*
X170871000Y-52887184D01*
X170871000Y-52584816D01*
X170812011Y-52288257D01*
X170696299Y-52008905D01*
X170528312Y-51757495D01*
X170314505Y-51543688D01*
X170301503Y-51535000D01*
X184929087Y-51535000D01*
X184932188Y-51566482D01*
G37*
%TD.AperFunction*%
%TD*%
D23*
%TO.N,Net-(C3-Pad1)*%
X184792928Y-77731000D02*
X184805188Y-77855482D01*
X184841498Y-77975180D01*
X184900463Y-78085494D01*
X184979815Y-78182185D01*
X185076506Y-78261537D01*
X185090546Y-78269042D01*
X184987772Y-78422853D01*
X184860754Y-78729504D01*
X184796000Y-79055042D01*
X184796000Y-79386958D01*
X184860754Y-79712496D01*
X184987772Y-80019147D01*
X185172175Y-80295125D01*
X185406875Y-80529825D01*
X185682853Y-80714228D01*
X185989504Y-80841246D01*
X186315042Y-80906000D01*
X186646958Y-80906000D01*
X186972496Y-80841246D01*
X187279147Y-80714228D01*
X187555125Y-80529825D01*
X187789825Y-80295125D01*
X187974228Y-80019147D01*
X188101246Y-79712496D01*
X188166000Y-79386958D01*
X188166000Y-79055042D01*
X188101246Y-78729504D01*
X187974228Y-78422853D01*
X187871454Y-78269042D01*
X187885494Y-78261537D01*
X187982185Y-78182185D01*
X188061537Y-78085494D01*
X188120502Y-77975180D01*
X188156812Y-77855482D01*
X188169072Y-77731000D01*
X188169072Y-77570000D01*
X188652001Y-77570000D01*
X188652001Y-82897394D01*
X187917305Y-83632091D01*
X187801155Y-83412000D01*
X186608000Y-83412000D01*
X186608000Y-83432000D01*
X186354000Y-83432000D01*
X186354000Y-83412000D01*
X185160845Y-83412000D01*
X185039524Y-83641890D01*
X185084175Y-83789099D01*
X185209359Y-84051920D01*
X185383412Y-84285269D01*
X185541758Y-84428000D01*
X169938039Y-84428000D01*
X169936095Y-84426701D01*
X169656743Y-84310989D01*
X169360184Y-84252000D01*
X169057816Y-84252000D01*
X168761257Y-84310989D01*
X168481905Y-84426701D01*
X168479961Y-84428000D01*
X166415000Y-84428000D01*
X166415000Y-83017283D01*
X166436534Y-82991044D01*
X166675837Y-82751741D01*
X167717959Y-82751741D01*
X167817766Y-83035620D01*
X167971038Y-83294573D01*
X168171884Y-83518649D01*
X168412586Y-83699236D01*
X168683893Y-83829394D01*
X168844260Y-83878036D01*
X169082000Y-83757378D01*
X169082000Y-82514000D01*
X169336000Y-82514000D01*
X169336000Y-83757378D01*
X169573740Y-83878036D01*
X169734107Y-83829394D01*
X170005414Y-83699236D01*
X170246116Y-83518649D01*
X170446962Y-83294573D01*
X170600234Y-83035620D01*
X170638032Y-82928110D01*
X185039524Y-82928110D01*
X185160845Y-83158000D01*
X186354000Y-83158000D01*
X186354000Y-81964186D01*
X186608000Y-81964186D01*
X186608000Y-83158000D01*
X187801155Y-83158000D01*
X187922476Y-82928110D01*
X187877825Y-82780901D01*
X187752641Y-82518080D01*
X187578588Y-82284731D01*
X187362355Y-82089822D01*
X187112252Y-81940843D01*
X186837891Y-81843519D01*
X186608000Y-81964186D01*
X186354000Y-81964186D01*
X186124109Y-81843519D01*
X185849748Y-81940843D01*
X185599645Y-82089822D01*
X185383412Y-82284731D01*
X185209359Y-82518080D01*
X185084175Y-82780901D01*
X185039524Y-82928110D01*
X170638032Y-82928110D01*
X170700041Y-82751741D01*
X170579992Y-82514000D01*
X169336000Y-82514000D01*
X169082000Y-82514000D01*
X167838008Y-82514000D01*
X167717959Y-82751741D01*
X166675837Y-82751741D01*
X168168914Y-81258665D01*
X167971038Y-81479427D01*
X167817766Y-81738380D01*
X167717959Y-82022259D01*
X167838008Y-82260000D01*
X169082000Y-82260000D01*
X169082000Y-81016622D01*
X169336000Y-81016622D01*
X169336000Y-82260000D01*
X170579992Y-82260000D01*
X170700041Y-82022259D01*
X170600234Y-81738380D01*
X170446962Y-81479427D01*
X170246116Y-81255351D01*
X170005414Y-81074764D01*
X169734107Y-80944606D01*
X169573740Y-80895964D01*
X169336000Y-81016622D01*
X169082000Y-81016622D01*
X168844260Y-80895964D01*
X168683893Y-80944606D01*
X168412586Y-81074764D01*
X168173259Y-81254319D01*
X168930836Y-80496742D01*
X169057816Y-80522000D01*
X169360184Y-80522000D01*
X169656743Y-80463011D01*
X169936095Y-80347299D01*
X170187505Y-80179312D01*
X170401312Y-79965505D01*
X170569299Y-79714095D01*
X170685011Y-79434743D01*
X170744000Y-79138184D01*
X170744000Y-78835816D01*
X170685011Y-78539257D01*
X170569299Y-78259905D01*
X170401312Y-78008495D01*
X170187505Y-77794688D01*
X169936095Y-77626701D01*
X169799207Y-77570000D01*
X184792928Y-77570000D01*
X184792928Y-77731000D01*
%TA.AperFunction,Conductor*%
D24*
G36*
X184792928Y-77731000D02*
G01*
X184805188Y-77855482D01*
X184841498Y-77975180D01*
X184900463Y-78085494D01*
X184979815Y-78182185D01*
X185076506Y-78261537D01*
X185090546Y-78269042D01*
X184987772Y-78422853D01*
X184860754Y-78729504D01*
X184796000Y-79055042D01*
X184796000Y-79386958D01*
X184860754Y-79712496D01*
X184987772Y-80019147D01*
X185172175Y-80295125D01*
X185406875Y-80529825D01*
X185682853Y-80714228D01*
X185989504Y-80841246D01*
X186315042Y-80906000D01*
X186646958Y-80906000D01*
X186972496Y-80841246D01*
X187279147Y-80714228D01*
X187555125Y-80529825D01*
X187789825Y-80295125D01*
X187974228Y-80019147D01*
X188101246Y-79712496D01*
X188166000Y-79386958D01*
X188166000Y-79055042D01*
X188101246Y-78729504D01*
X187974228Y-78422853D01*
X187871454Y-78269042D01*
X187885494Y-78261537D01*
X187982185Y-78182185D01*
X188061537Y-78085494D01*
X188120502Y-77975180D01*
X188156812Y-77855482D01*
X188169072Y-77731000D01*
X188169072Y-77570000D01*
X188652001Y-77570000D01*
X188652001Y-82897394D01*
X187917305Y-83632091D01*
X187801155Y-83412000D01*
X186608000Y-83412000D01*
X186608000Y-83432000D01*
X186354000Y-83432000D01*
X186354000Y-83412000D01*
X185160845Y-83412000D01*
X185039524Y-83641890D01*
X185084175Y-83789099D01*
X185209359Y-84051920D01*
X185383412Y-84285269D01*
X185541758Y-84428000D01*
X169938039Y-84428000D01*
X169936095Y-84426701D01*
X169656743Y-84310989D01*
X169360184Y-84252000D01*
X169057816Y-84252000D01*
X168761257Y-84310989D01*
X168481905Y-84426701D01*
X168479961Y-84428000D01*
X166415000Y-84428000D01*
X166415000Y-83017283D01*
X166436534Y-82991044D01*
X166675837Y-82751741D01*
X167717959Y-82751741D01*
X167817766Y-83035620D01*
X167971038Y-83294573D01*
X168171884Y-83518649D01*
X168412586Y-83699236D01*
X168683893Y-83829394D01*
X168844260Y-83878036D01*
X169082000Y-83757378D01*
X169082000Y-82514000D01*
X169336000Y-82514000D01*
X169336000Y-83757378D01*
X169573740Y-83878036D01*
X169734107Y-83829394D01*
X170005414Y-83699236D01*
X170246116Y-83518649D01*
X170446962Y-83294573D01*
X170600234Y-83035620D01*
X170638032Y-82928110D01*
X185039524Y-82928110D01*
X185160845Y-83158000D01*
X186354000Y-83158000D01*
X186354000Y-81964186D01*
X186608000Y-81964186D01*
X186608000Y-83158000D01*
X187801155Y-83158000D01*
X187922476Y-82928110D01*
X187877825Y-82780901D01*
X187752641Y-82518080D01*
X187578588Y-82284731D01*
X187362355Y-82089822D01*
X187112252Y-81940843D01*
X186837891Y-81843519D01*
X186608000Y-81964186D01*
X186354000Y-81964186D01*
X186124109Y-81843519D01*
X185849748Y-81940843D01*
X185599645Y-82089822D01*
X185383412Y-82284731D01*
X185209359Y-82518080D01*
X185084175Y-82780901D01*
X185039524Y-82928110D01*
X170638032Y-82928110D01*
X170700041Y-82751741D01*
X170579992Y-82514000D01*
X169336000Y-82514000D01*
X169082000Y-82514000D01*
X167838008Y-82514000D01*
X167717959Y-82751741D01*
X166675837Y-82751741D01*
X168168914Y-81258665D01*
X167971038Y-81479427D01*
X167817766Y-81738380D01*
X167717959Y-82022259D01*
X167838008Y-82260000D01*
X169082000Y-82260000D01*
X169082000Y-81016622D01*
X169336000Y-81016622D01*
X169336000Y-82260000D01*
X170579992Y-82260000D01*
X170700041Y-82022259D01*
X170600234Y-81738380D01*
X170446962Y-81479427D01*
X170246116Y-81255351D01*
X170005414Y-81074764D01*
X169734107Y-80944606D01*
X169573740Y-80895964D01*
X169336000Y-81016622D01*
X169082000Y-81016622D01*
X168844260Y-80895964D01*
X168683893Y-80944606D01*
X168412586Y-81074764D01*
X168173259Y-81254319D01*
X168930836Y-80496742D01*
X169057816Y-80522000D01*
X169360184Y-80522000D01*
X169656743Y-80463011D01*
X169936095Y-80347299D01*
X170187505Y-80179312D01*
X170401312Y-79965505D01*
X170569299Y-79714095D01*
X170685011Y-79434743D01*
X170744000Y-79138184D01*
X170744000Y-78835816D01*
X170685011Y-78539257D01*
X170569299Y-78259905D01*
X170401312Y-78008495D01*
X170187505Y-77794688D01*
X169936095Y-77626701D01*
X169799207Y-77570000D01*
X184792928Y-77570000D01*
X184792928Y-77731000D01*
G37*
%TD.AperFunction*%
%TD*%
M02*
