%TF.GenerationSoftware,KiCad,Pcbnew,5.1.10-1.fc34*%
%TF.CreationDate,2021-06-08T11:51:25-04:00*%
%TF.ProjectId,BREAD_Slice,42524541-445f-4536-9c69-63652e6b6963,rev?*%
%TF.SameCoordinates,Original*%
%TF.FileFunction,Soldermask,Bot*%
%TF.FilePolarity,Negative*%
%FSLAX46Y46*%
G04 Gerber Fmt 4.6, Leading zero omitted, Abs format (unit mm)*
G04 Created by KiCad (PCBNEW 5.1.10-1.fc34) date 2021-06-08 11:51:25*
%MOMM*%
%LPD*%
G01*
G04 APERTURE LIST*
%ADD10O,1.900000X1.900000*%
%ADD11O,1.700000X1.700000*%
%ADD12C,2.200000*%
%ADD13O,1.800000X1.800000*%
%ADD14C,5.700000*%
G04 APERTURE END LIST*
%TO.C,C10*%
G36*
G01*
X152865000Y-84000866D02*
X152865000Y-85363134D01*
G75*
G02*
X152596134Y-85632000I-268866J0D01*
G01*
X151708866Y-85632000D01*
G75*
G02*
X151440000Y-85363134I0J268866D01*
G01*
X151440000Y-84000866D01*
G75*
G02*
X151708866Y-83732000I268866J0D01*
G01*
X152596134Y-83732000D01*
G75*
G02*
X152865000Y-84000866I0J-268866D01*
G01*
G37*
G36*
G01*
X155990000Y-84000866D02*
X155990000Y-85363134D01*
G75*
G02*
X155721134Y-85632000I-268866J0D01*
G01*
X154833866Y-85632000D01*
G75*
G02*
X154565000Y-85363134I0J268866D01*
G01*
X154565000Y-84000866D01*
G75*
G02*
X154833866Y-83732000I268866J0D01*
G01*
X155721134Y-83732000D01*
G75*
G02*
X155990000Y-84000866I0J-268866D01*
G01*
G37*
%TD*%
%TO.C,C9*%
G36*
G01*
X152357000Y-61140866D02*
X152357000Y-62503134D01*
G75*
G02*
X152088134Y-62772000I-268866J0D01*
G01*
X151200866Y-62772000D01*
G75*
G02*
X150932000Y-62503134I0J268866D01*
G01*
X150932000Y-61140866D01*
G75*
G02*
X151200866Y-60872000I268866J0D01*
G01*
X152088134Y-60872000D01*
G75*
G02*
X152357000Y-61140866I0J-268866D01*
G01*
G37*
G36*
G01*
X155482000Y-61140866D02*
X155482000Y-62503134D01*
G75*
G02*
X155213134Y-62772000I-268866J0D01*
G01*
X154325866Y-62772000D01*
G75*
G02*
X154057000Y-62503134I0J268866D01*
G01*
X154057000Y-61140866D01*
G75*
G02*
X154325866Y-60872000I268866J0D01*
G01*
X155213134Y-60872000D01*
G75*
G02*
X155482000Y-61140866I0J-268866D01*
G01*
G37*
%TD*%
D10*
%TO.C,U2*%
X164256000Y-64636000D03*
X169336000Y-62936000D03*
X164256000Y-61236000D03*
X169336000Y-59536000D03*
X164256000Y-57836000D03*
X169336000Y-56136000D03*
X164256000Y-54436000D03*
X169336000Y-52736000D03*
X164256000Y-51036000D03*
X169336000Y-49336000D03*
G36*
G01*
X163356000Y-46686000D02*
X165156000Y-46686000D01*
G75*
G02*
X165206000Y-46736000I0J-50000D01*
G01*
X165206000Y-48536000D01*
G75*
G02*
X165156000Y-48586000I-50000J0D01*
G01*
X163356000Y-48586000D01*
G75*
G02*
X163306000Y-48536000I0J50000D01*
G01*
X163306000Y-46736000D01*
G75*
G02*
X163356000Y-46686000I50000J0D01*
G01*
G37*
%TD*%
D11*
%TO.C,A1*%
X150240000Y-135560000D03*
X135000000Y-135560000D03*
X150240000Y-100000000D03*
X135000000Y-133020000D03*
X150240000Y-102540000D03*
X135000000Y-130480000D03*
X150240000Y-105080000D03*
X135000000Y-127940000D03*
X150240000Y-107620000D03*
X135000000Y-125400000D03*
X150240000Y-110160000D03*
X135000000Y-122860000D03*
X150240000Y-112700000D03*
X135000000Y-120320000D03*
X150240000Y-115240000D03*
X135000000Y-117780000D03*
X150240000Y-117780000D03*
X135000000Y-115240000D03*
X150240000Y-120320000D03*
X135000000Y-112700000D03*
X150240000Y-122860000D03*
X135000000Y-110160000D03*
X150240000Y-125400000D03*
X135000000Y-107620000D03*
X150240000Y-127940000D03*
X135000000Y-105080000D03*
X150240000Y-130480000D03*
X135000000Y-102540000D03*
X150240000Y-133020000D03*
G36*
G01*
X134150000Y-100800000D02*
X134150000Y-99200000D01*
G75*
G02*
X134200000Y-99150000I50000J0D01*
G01*
X135800000Y-99150000D01*
G75*
G02*
X135850000Y-99200000I0J-50000D01*
G01*
X135850000Y-100800000D01*
G75*
G02*
X135800000Y-100850000I-50000J0D01*
G01*
X134200000Y-100850000D01*
G75*
G02*
X134150000Y-100800000I0J50000D01*
G01*
G37*
%TD*%
D10*
%TO.C,U1*%
X164129000Y-90887000D03*
X169209000Y-89187000D03*
X164129000Y-87487000D03*
X169209000Y-85787000D03*
X164129000Y-84087000D03*
X169209000Y-82387000D03*
X164129000Y-80687000D03*
X169209000Y-78987000D03*
X164129000Y-77287000D03*
X169209000Y-75587000D03*
G36*
G01*
X163229000Y-72937000D02*
X165029000Y-72937000D01*
G75*
G02*
X165079000Y-72987000I0J-50000D01*
G01*
X165079000Y-74787000D01*
G75*
G02*
X165029000Y-74837000I-50000J0D01*
G01*
X163229000Y-74837000D01*
G75*
G02*
X163179000Y-74787000I0J50000D01*
G01*
X163179000Y-72987000D01*
G75*
G02*
X163229000Y-72937000I50000J0D01*
G01*
G37*
%TD*%
%TO.C,R4*%
G36*
G01*
X152357000Y-57737230D02*
X152357000Y-59048770D01*
G75*
G02*
X152087770Y-59318000I-269230J0D01*
G01*
X151226230Y-59318000D01*
G75*
G02*
X150957000Y-59048770I0J269230D01*
G01*
X150957000Y-57737230D01*
G75*
G02*
X151226230Y-57468000I269230J0D01*
G01*
X152087770Y-57468000D01*
G75*
G02*
X152357000Y-57737230I0J-269230D01*
G01*
G37*
G36*
G01*
X155457000Y-57737230D02*
X155457000Y-59048770D01*
G75*
G02*
X155187770Y-59318000I-269230J0D01*
G01*
X154326230Y-59318000D01*
G75*
G02*
X154057000Y-59048770I0J269230D01*
G01*
X154057000Y-57737230D01*
G75*
G02*
X154326230Y-57468000I269230J0D01*
G01*
X155187770Y-57468000D01*
G75*
G02*
X155457000Y-57737230I0J-269230D01*
G01*
G37*
%TD*%
%TO.C,R3*%
G36*
G01*
X152738000Y-80089230D02*
X152738000Y-81400770D01*
G75*
G02*
X152468770Y-81670000I-269230J0D01*
G01*
X151607230Y-81670000D01*
G75*
G02*
X151338000Y-81400770I0J269230D01*
G01*
X151338000Y-80089230D01*
G75*
G02*
X151607230Y-79820000I269230J0D01*
G01*
X152468770Y-79820000D01*
G75*
G02*
X152738000Y-80089230I0J-269230D01*
G01*
G37*
G36*
G01*
X155838000Y-80089230D02*
X155838000Y-81400770D01*
G75*
G02*
X155568770Y-81670000I-269230J0D01*
G01*
X154707230Y-81670000D01*
G75*
G02*
X154438000Y-81400770I0J269230D01*
G01*
X154438000Y-80089230D01*
G75*
G02*
X154707230Y-79820000I269230J0D01*
G01*
X155568770Y-79820000D01*
G75*
G02*
X155838000Y-80089230I0J-269230D01*
G01*
G37*
%TD*%
D12*
%TO.C,J9*%
X186608000Y-68680000D03*
G36*
G01*
X185558000Y-65040000D02*
X187658000Y-65040000D01*
G75*
G02*
X187708000Y-65090000I0J-50000D01*
G01*
X187708000Y-67190000D01*
G75*
G02*
X187658000Y-67240000I-50000J0D01*
G01*
X185558000Y-67240000D01*
G75*
G02*
X185508000Y-67190000I0J50000D01*
G01*
X185508000Y-65090000D01*
G75*
G02*
X185558000Y-65040000I50000J0D01*
G01*
G37*
%TD*%
%TO.C,J8*%
X186481000Y-95223000D03*
G36*
G01*
X185431000Y-91583000D02*
X187531000Y-91583000D01*
G75*
G02*
X187581000Y-91633000I0J-50000D01*
G01*
X187581000Y-93733000D01*
G75*
G02*
X187531000Y-93783000I-50000J0D01*
G01*
X185431000Y-93783000D01*
G75*
G02*
X185381000Y-93733000I0J50000D01*
G01*
X185381000Y-91633000D01*
G75*
G02*
X185431000Y-91583000I50000J0D01*
G01*
G37*
%TD*%
%TO.C,J7*%
X186608000Y-52932000D03*
G36*
G01*
X185558000Y-49292000D02*
X187658000Y-49292000D01*
G75*
G02*
X187708000Y-49342000I0J-50000D01*
G01*
X187708000Y-51442000D01*
G75*
G02*
X187658000Y-51492000I-50000J0D01*
G01*
X185558000Y-51492000D01*
G75*
G02*
X185508000Y-51442000I0J50000D01*
G01*
X185508000Y-49342000D01*
G75*
G02*
X185558000Y-49292000I50000J0D01*
G01*
G37*
%TD*%
%TO.C,J6*%
X186481000Y-79221000D03*
G36*
G01*
X185431000Y-75581000D02*
X187531000Y-75581000D01*
G75*
G02*
X187581000Y-75631000I0J-50000D01*
G01*
X187581000Y-77731000D01*
G75*
G02*
X187531000Y-77781000I-50000J0D01*
G01*
X185431000Y-77781000D01*
G75*
G02*
X185381000Y-77731000I0J50000D01*
G01*
X185381000Y-75631000D01*
G75*
G02*
X185431000Y-75581000I50000J0D01*
G01*
G37*
%TD*%
D13*
%TO.C,J5*%
X186735000Y-56996000D03*
X186735000Y-59536000D03*
G36*
G01*
X187635000Y-61226000D02*
X187635000Y-62926000D01*
G75*
G02*
X187585000Y-62976000I-50000J0D01*
G01*
X185885000Y-62976000D01*
G75*
G02*
X185835000Y-62926000I0J50000D01*
G01*
X185835000Y-61226000D01*
G75*
G02*
X185885000Y-61176000I50000J0D01*
G01*
X187585000Y-61176000D01*
G75*
G02*
X187635000Y-61226000I0J-50000D01*
G01*
G37*
%TD*%
%TO.C,J4*%
X186481000Y-83285000D03*
X186481000Y-85825000D03*
G36*
G01*
X187381000Y-87515000D02*
X187381000Y-89215000D01*
G75*
G02*
X187331000Y-89265000I-50000J0D01*
G01*
X185631000Y-89265000D01*
G75*
G02*
X185581000Y-89215000I0J50000D01*
G01*
X185581000Y-87515000D01*
G75*
G02*
X185631000Y-87465000I50000J0D01*
G01*
X187331000Y-87465000D01*
G75*
G02*
X187381000Y-87515000I0J-50000D01*
G01*
G37*
%TD*%
D12*
%TO.C,J3*%
X186100000Y-101827000D03*
X186100000Y-104367000D03*
X186100000Y-106907000D03*
G36*
G01*
X187150000Y-110547000D02*
X185050000Y-110547000D01*
G75*
G02*
X185000000Y-110497000I0J50000D01*
G01*
X185000000Y-108397000D01*
G75*
G02*
X185050000Y-108347000I50000J0D01*
G01*
X187150000Y-108347000D01*
G75*
G02*
X187200000Y-108397000I0J-50000D01*
G01*
X187200000Y-110497000D01*
G75*
G02*
X187150000Y-110547000I-50000J0D01*
G01*
G37*
%TD*%
%TO.C,J2*%
X186100000Y-114781000D03*
X186100000Y-117321000D03*
X186100000Y-119861000D03*
G36*
G01*
X187150000Y-123501000D02*
X185050000Y-123501000D01*
G75*
G02*
X185000000Y-123451000I0J50000D01*
G01*
X185000000Y-121351000D01*
G75*
G02*
X185050000Y-121301000I50000J0D01*
G01*
X187150000Y-121301000D01*
G75*
G02*
X187200000Y-121351000I0J-50000D01*
G01*
X187200000Y-123451000D01*
G75*
G02*
X187150000Y-123501000I-50000J0D01*
G01*
G37*
%TD*%
%TO.C,C8*%
G36*
G01*
X168789000Y-66059134D02*
X168789000Y-64696866D01*
G75*
G02*
X169057866Y-64428000I268866J0D01*
G01*
X169945134Y-64428000D01*
G75*
G02*
X170214000Y-64696866I0J-268866D01*
G01*
X170214000Y-66059134D01*
G75*
G02*
X169945134Y-66328000I-268866J0D01*
G01*
X169057866Y-66328000D01*
G75*
G02*
X168789000Y-66059134I0J268866D01*
G01*
G37*
G36*
G01*
X165664000Y-66059134D02*
X165664000Y-64696866D01*
G75*
G02*
X165932866Y-64428000I268866J0D01*
G01*
X166820134Y-64428000D01*
G75*
G02*
X167089000Y-64696866I0J-268866D01*
G01*
X167089000Y-66059134D01*
G75*
G02*
X166820134Y-66328000I-268866J0D01*
G01*
X165932866Y-66328000D01*
G75*
G02*
X165664000Y-66059134I0J268866D01*
G01*
G37*
%TD*%
%TO.C,C7*%
G36*
G01*
X167216000Y-46154866D02*
X167216000Y-47517134D01*
G75*
G02*
X166947134Y-47786000I-268866J0D01*
G01*
X166059866Y-47786000D01*
G75*
G02*
X165791000Y-47517134I0J268866D01*
G01*
X165791000Y-46154866D01*
G75*
G02*
X166059866Y-45886000I268866J0D01*
G01*
X166947134Y-45886000D01*
G75*
G02*
X167216000Y-46154866I0J-268866D01*
G01*
G37*
G36*
G01*
X170341000Y-46154866D02*
X170341000Y-47517134D01*
G75*
G02*
X170072134Y-47786000I-268866J0D01*
G01*
X169184866Y-47786000D01*
G75*
G02*
X168916000Y-47517134I0J268866D01*
G01*
X168916000Y-46154866D01*
G75*
G02*
X169184866Y-45886000I268866J0D01*
G01*
X170072134Y-45886000D01*
G75*
G02*
X170341000Y-46154866I0J-268866D01*
G01*
G37*
%TD*%
%TO.C,C6*%
G36*
G01*
X168789000Y-92348134D02*
X168789000Y-90985866D01*
G75*
G02*
X169057866Y-90717000I268866J0D01*
G01*
X169945134Y-90717000D01*
G75*
G02*
X170214000Y-90985866I0J-268866D01*
G01*
X170214000Y-92348134D01*
G75*
G02*
X169945134Y-92617000I-268866J0D01*
G01*
X169057866Y-92617000D01*
G75*
G02*
X168789000Y-92348134I0J268866D01*
G01*
G37*
G36*
G01*
X165664000Y-92348134D02*
X165664000Y-90985866D01*
G75*
G02*
X165932866Y-90717000I268866J0D01*
G01*
X166820134Y-90717000D01*
G75*
G02*
X167089000Y-90985866I0J-268866D01*
G01*
X167089000Y-92348134D01*
G75*
G02*
X166820134Y-92617000I-268866J0D01*
G01*
X165932866Y-92617000D01*
G75*
G02*
X165664000Y-92348134I0J268866D01*
G01*
G37*
%TD*%
%TO.C,C5*%
G36*
G01*
X167597000Y-72443866D02*
X167597000Y-73806134D01*
G75*
G02*
X167328134Y-74075000I-268866J0D01*
G01*
X166440866Y-74075000D01*
G75*
G02*
X166172000Y-73806134I0J268866D01*
G01*
X166172000Y-72443866D01*
G75*
G02*
X166440866Y-72175000I268866J0D01*
G01*
X167328134Y-72175000D01*
G75*
G02*
X167597000Y-72443866I0J-268866D01*
G01*
G37*
G36*
G01*
X170722000Y-72443866D02*
X170722000Y-73806134D01*
G75*
G02*
X170453134Y-74075000I-268866J0D01*
G01*
X169565866Y-74075000D01*
G75*
G02*
X169297000Y-73806134I0J268866D01*
G01*
X169297000Y-72443866D01*
G75*
G02*
X169565866Y-72175000I268866J0D01*
G01*
X170453134Y-72175000D01*
G75*
G02*
X170722000Y-72443866I0J-268866D01*
G01*
G37*
%TD*%
%TO.C,C4*%
G36*
G01*
X147713999Y-59655000D02*
X150064001Y-59655000D01*
G75*
G02*
X150114000Y-59704999I0J-49999D01*
G01*
X150114000Y-62475001D01*
G75*
G02*
X150064001Y-62525000I-49999J0D01*
G01*
X147713999Y-62525000D01*
G75*
G02*
X147664000Y-62475001I0J49999D01*
G01*
X147664000Y-59704999D01*
G75*
G02*
X147713999Y-59655000I49999J0D01*
G01*
G37*
G36*
G01*
X147713999Y-54515000D02*
X150064001Y-54515000D01*
G75*
G02*
X150114000Y-54564999I0J-49999D01*
G01*
X150114000Y-57335001D01*
G75*
G02*
X150064001Y-57385000I-49999J0D01*
G01*
X147713999Y-57385000D01*
G75*
G02*
X147664000Y-57335001I0J49999D01*
G01*
X147664000Y-54564999D01*
G75*
G02*
X147713999Y-54515000I49999J0D01*
G01*
G37*
%TD*%
%TO.C,C3*%
G36*
G01*
X147586999Y-81753000D02*
X149937001Y-81753000D01*
G75*
G02*
X149987000Y-81802999I0J-49999D01*
G01*
X149987000Y-84573001D01*
G75*
G02*
X149937001Y-84623000I-49999J0D01*
G01*
X147586999Y-84623000D01*
G75*
G02*
X147537000Y-84573001I0J49999D01*
G01*
X147537000Y-81802999D01*
G75*
G02*
X147586999Y-81753000I49999J0D01*
G01*
G37*
G36*
G01*
X147586999Y-76613000D02*
X149937001Y-76613000D01*
G75*
G02*
X149987000Y-76662999I0J-49999D01*
G01*
X149987000Y-79433001D01*
G75*
G02*
X149937001Y-79483000I-49999J0D01*
G01*
X147586999Y-79483000D01*
G75*
G02*
X147537000Y-79433001I0J49999D01*
G01*
X147537000Y-76662999D01*
G75*
G02*
X147586999Y-76613000I49999J0D01*
G01*
G37*
%TD*%
D14*
%TO.C,H4*%
X187600000Y-134800000D03*
%TD*%
%TO.C,H3*%
X127600000Y-134800000D03*
%TD*%
%TO.C,H2*%
X187600000Y-44800000D03*
%TD*%
%TO.C,H1*%
X127600000Y-44800000D03*
%TD*%
%TO.C,C1*%
G36*
G01*
X158735000Y-100175001D02*
X158735000Y-97824999D01*
G75*
G02*
X158784999Y-97775000I49999J0D01*
G01*
X161555001Y-97775000D01*
G75*
G02*
X161605000Y-97824999I0J-49999D01*
G01*
X161605000Y-100175001D01*
G75*
G02*
X161555001Y-100225000I-49999J0D01*
G01*
X158784999Y-100225000D01*
G75*
G02*
X158735000Y-100175001I0J49999D01*
G01*
G37*
G36*
G01*
X153595000Y-100175001D02*
X153595000Y-97824999D01*
G75*
G02*
X153644999Y-97775000I49999J0D01*
G01*
X156415001Y-97775000D01*
G75*
G02*
X156465000Y-97824999I0J-49999D01*
G01*
X156465000Y-100175001D01*
G75*
G02*
X156415001Y-100225000I-49999J0D01*
G01*
X153644999Y-100225000D01*
G75*
G02*
X153595000Y-100175001I0J49999D01*
G01*
G37*
%TD*%
%TO.C,A1*%
G36*
G01*
X134150000Y-100800000D02*
X134150000Y-99200000D01*
G75*
G02*
X134200000Y-99150000I50000J0D01*
G01*
X135800000Y-99150000D01*
G75*
G02*
X135850000Y-99200000I0J-50000D01*
G01*
X135850000Y-100800000D01*
G75*
G02*
X135800000Y-100850000I-50000J0D01*
G01*
X134200000Y-100850000D01*
G75*
G02*
X134150000Y-100800000I0J50000D01*
G01*
G37*
D11*
X150240000Y-133020000D03*
X135000000Y-102540000D03*
X150240000Y-130480000D03*
X135000000Y-105080000D03*
X150240000Y-127940000D03*
X135000000Y-107620000D03*
X150240000Y-125400000D03*
X135000000Y-110160000D03*
X150240000Y-122860000D03*
X135000000Y-112700000D03*
X150240000Y-120320000D03*
X135000000Y-115240000D03*
X150240000Y-117780000D03*
X135000000Y-117780000D03*
X150240000Y-115240000D03*
X135000000Y-120320000D03*
X150240000Y-112700000D03*
X135000000Y-122860000D03*
X150240000Y-110160000D03*
X135000000Y-125400000D03*
X150240000Y-107620000D03*
X135000000Y-127940000D03*
X150240000Y-105080000D03*
X135000000Y-130480000D03*
X150240000Y-102540000D03*
X135000000Y-133020000D03*
X150240000Y-100000000D03*
X135000000Y-135560000D03*
X150240000Y-135560000D03*
%TD*%
%TO.C,C2*%
G36*
G01*
X153595000Y-108975001D02*
X153595000Y-106624999D01*
G75*
G02*
X153644999Y-106575000I49999J0D01*
G01*
X156415001Y-106575000D01*
G75*
G02*
X156465000Y-106624999I0J-49999D01*
G01*
X156465000Y-108975001D01*
G75*
G02*
X156415001Y-109025000I-49999J0D01*
G01*
X153644999Y-109025000D01*
G75*
G02*
X153595000Y-108975001I0J49999D01*
G01*
G37*
G36*
G01*
X158735000Y-108975001D02*
X158735000Y-106624999D01*
G75*
G02*
X158784999Y-106575000I49999J0D01*
G01*
X161555001Y-106575000D01*
G75*
G02*
X161605000Y-106624999I0J-49999D01*
G01*
X161605000Y-108975001D01*
G75*
G02*
X161555001Y-109025000I-49999J0D01*
G01*
X158784999Y-109025000D01*
G75*
G02*
X158735000Y-108975001I0J49999D01*
G01*
G37*
%TD*%
%TO.C,J1*%
G36*
G01*
X128700000Y-79650000D02*
X128700000Y-77950000D01*
G75*
G02*
X128750000Y-77900000I50000J0D01*
G01*
X130450000Y-77900000D01*
G75*
G02*
X130500000Y-77950000I0J-50000D01*
G01*
X130500000Y-79650000D01*
G75*
G02*
X130450000Y-79700000I-50000J0D01*
G01*
X128750000Y-79700000D01*
G75*
G02*
X128700000Y-79650000I0J50000D01*
G01*
G37*
D13*
X129600000Y-81340000D03*
X129600000Y-83880000D03*
X129600000Y-86420000D03*
X129600000Y-88960000D03*
X129600000Y-91500000D03*
X129600000Y-94040000D03*
X129600000Y-96580000D03*
X129600000Y-99120000D03*
X129600000Y-101660000D03*
%TD*%
M02*
