M48
; DRILL file {KiCad (6.0.4)} date Tue Dec  6 12:04:01 2022
; FORMAT={-:-/ absolute / inch / decimal}
; #@! TF.CreationDate,2022-12-06T12:04:01-05:00
; #@! TF.GenerationSoftware,Kicad,Pcbnew,(6.0.4)
; #@! TF.FileFunction,Plated,1,2,PTH
FMAT,2
INCH
; #@! TA.AperFunction,Plated,PTH,ViaDrill
T1C0.0394
; #@! TA.AperFunction,Plated,PTH,ComponentDrill
T2C0.0394
; #@! TA.AperFunction,Plated,PTH,ComponentDrill
T3C0.1260
%
G90
G05
T1
X4.1732Y-3.5354
X4.2598Y-3.622
X4.5315Y-3.5886
T2
X4.036Y-3.1285
X4.036Y-3.2285
X4.036Y-3.3285
X4.036Y-3.4285
X4.036Y-3.5285
X4.036Y-3.6285
X4.036Y-3.7285
X4.036Y-3.8285
X4.036Y-3.9285
X4.036Y-4.0285
X4.2565Y-3.9632
X4.2565Y-4.0632
X4.2565Y-4.1632
X4.2565Y-4.2632
X4.2565Y-4.3632
X4.2565Y-4.4632
X4.2565Y-4.5632
X4.2565Y-4.6632
X4.2565Y-4.7632
X4.2565Y-4.8632
X4.2565Y-4.9632
X4.2565Y-5.0632
X4.2565Y-5.1632
X4.2565Y-5.2632
X4.2565Y-5.3632
X4.848Y-2.388
X4.848Y-2.488
X4.848Y-2.588
X4.848Y-2.688
X4.848Y-2.788
X4.8565Y-3.9632
X4.8565Y-4.0632
X4.8565Y-4.1632
X4.8565Y-4.2632
X4.8565Y-4.3632
X4.8565Y-4.4632
X4.8565Y-4.5632
X4.8565Y-4.6632
X4.8565Y-4.7632
X4.8565Y-4.8632
X4.8565Y-4.9632
X4.8565Y-5.0632
X4.8565Y-5.1632
X4.8565Y-5.2632
X4.8565Y-5.3632
X5.0943Y-5.2313
X5.0943Y-5.3711
X5.1943Y-5.2313
X5.1943Y-5.3711
X5.2943Y-5.2313
X5.2943Y-5.3711
X5.6102Y-4.0256
X5.7102Y-4.0256
X5.8102Y-4.0256
X5.9102Y-4.0256
X6.0102Y-4.0256
X6.1998Y-2.9329
X6.1998Y-3.0329
X6.1998Y-3.1329
X6.3396Y-2.9329
X6.3396Y-3.0329
X6.3396Y-3.1329
T3
X3.9553Y-1.7899
X3.9553Y-5.3332
X4.4927Y-2.1187
X4.4927Y-3.0636
X5.3346Y-3.5925
X5.3346Y-4.9311
X5.8313Y-2.1187
X5.8313Y-3.0636
X6.2795Y-3.5925
X6.2795Y-4.9311
X6.3175Y-1.7899
X6.3175Y-5.3332
T0
M30
