M48
; DRILL file {KiCad (6.0.4)} date Mon Jul 24 13:38:09 2023
; FORMAT={-:-/ absolute / inch / decimal}
; #@! TF.CreationDate,2023-07-24T13:38:09-04:00
; #@! TF.GenerationSoftware,Kicad,Pcbnew,(6.0.4)
; #@! TF.FileFunction,Plated,1,2,PTH
FMAT,2
INCH
; #@! TA.AperFunction,Plated,PTH,ViaDrill
T1C0.0394
; #@! TA.AperFunction,Plated,PTH,ComponentDrill
T2C0.0394
; #@! TA.AperFunction,Plated,PTH,ComponentDrill
T3C0.0433
; #@! TA.AperFunction,Plated,PTH,ComponentDrill
T4C0.1260
%
G90
G05
T1
X4.9118Y-4.3514
X4.9143Y-4.4789
X5.0318Y-4.1964
X5.0793Y-4.7389
X5.0793Y-4.8389
X5.0793Y-5.0364
X5.0818Y-4.9414
X5.2643Y-3.6414
X5.3618Y-3.7164
X5.3693Y-3.2889
X5.5418Y-1.8714
X5.5418Y-2.2489
X5.5418Y-2.3964
X5.5443Y-2.5364
X5.5468Y-2.1164
X5.7268Y-2.1114
X5.7268Y-2.3964
X5.7293Y-1.8739
X5.7293Y-2.2489
X5.7293Y-2.5364
X6.0518Y-4.6189
X6.0618Y-2.7714
X6.0618Y-3.4514
X6.0643Y-4.0914
X6.0693Y-2.0339
X6.1918Y-4.1489
X6.5618Y-2.5764
X6.5643Y-3.9289
X6.5693Y-1.8239
X6.5793Y-3.2889
X6.7368Y-3.9264
X6.7418Y-1.8239
X6.7668Y-2.5789
X6.7768Y-3.2889
T2
X5.1024Y-3.1024
X5.1024Y-3.2024
X5.1024Y-3.3024
X5.1024Y-3.4024
X5.1024Y-3.5024
X5.1024Y-3.6024
X5.1024Y-3.7024
X5.1024Y-3.8024
X5.1024Y-3.9024
X5.1024Y-4.0024
X5.315Y-3.937
X5.315Y-4.037
X5.315Y-4.137
X5.315Y-4.237
X5.315Y-4.337
X5.315Y-4.437
X5.315Y-4.537
X5.315Y-4.637
X5.315Y-4.737
X5.315Y-4.837
X5.315Y-4.937
X5.315Y-5.037
X5.315Y-5.137
X5.315Y-5.237
X5.315Y-5.337
X5.915Y-3.937
X5.915Y-4.037
X5.915Y-4.137
X5.915Y-4.237
X5.915Y-4.337
X5.915Y-4.437
X5.915Y-4.537
X5.915Y-4.637
X5.915Y-4.737
X5.915Y-4.837
X5.915Y-4.937
X5.915Y-5.037
X5.915Y-5.137
X5.915Y-5.237
X5.915Y-5.337
T3
X7.3693Y-2.0639
X7.3693Y-2.1639
X7.3693Y-2.7889
X7.3693Y-2.8889
X7.3693Y-3.4739
X7.3693Y-3.5739
X7.3693Y-4.0914
X7.3693Y-4.1914
T4
X5.0236Y-1.7638
X5.0236Y-5.3071
X7.3858Y-1.7638
X7.3858Y-5.3071
T0
M30
