%TF.GenerationSoftware,KiCad,Pcbnew,5.1.10-1.fc34*%
%TF.CreationDate,2021-06-08T11:48:28-04:00*%
%TF.ProjectId,BREAD_Slice,42524541-445f-4536-9c69-63652e6b6963,rev?*%
%TF.SameCoordinates,Original*%
%TF.FileFunction,Copper,L1,Top*%
%TF.FilePolarity,Positive*%
%FSLAX46Y46*%
G04 Gerber Fmt 4.6, Leading zero omitted, Abs format (unit mm)*
G04 Created by KiCad (PCBNEW 5.1.10-1.fc34) date 2021-06-08 11:48:28*
%MOMM*%
%LPD*%
G01*
G04 APERTURE LIST*
%TA.AperFunction,ComponentPad*%
%ADD10C,2.100000*%
%TD*%
%TA.AperFunction,ComponentPad*%
%ADD11R,2.100000X2.100000*%
%TD*%
%TA.AperFunction,ComponentPad*%
%ADD12O,1.700000X1.700000*%
%TD*%
%TA.AperFunction,ComponentPad*%
%ADD13R,1.700000X1.700000*%
%TD*%
%TA.AperFunction,ComponentPad*%
%ADD14C,5.600000*%
%TD*%
%TA.AperFunction,ComponentPad*%
%ADD15R,1.600000X1.600000*%
%TD*%
%TA.AperFunction,ComponentPad*%
%ADD16O,1.600000X1.600000*%
%TD*%
%TA.AperFunction,ViaPad*%
%ADD17C,0.800000*%
%TD*%
%TA.AperFunction,Conductor*%
%ADD18C,0.500000*%
%TD*%
G04 APERTURE END LIST*
D10*
%TO.P,J8,2*%
%TO.N,GND*%
X184322000Y-124814000D03*
D11*
%TO.P,J8,1*%
%TO.N,/CSTM*%
X184322000Y-122274000D03*
%TD*%
D12*
%TO.P,J7,3*%
%TO.N,+12V*%
X184322000Y-117575000D03*
%TO.P,J7,2*%
%TO.N,/CSTM*%
X184322000Y-115035000D03*
D13*
%TO.P,J7,1*%
%TO.N,/PWR*%
X184322000Y-112495000D03*
%TD*%
D10*
%TO.P,J6,3*%
%TO.N,GND*%
X184322000Y-81126000D03*
%TO.P,J6,2*%
%TO.N,Net-(J6-Pad2)*%
X184322000Y-78586000D03*
D11*
%TO.P,J6,1*%
%TO.N,/PWM3*%
X184322000Y-76046000D03*
%TD*%
D10*
%TO.P,J5,3*%
%TO.N,GND*%
X184322000Y-105256000D03*
%TO.P,J5,2*%
%TO.N,/PWR*%
X184322000Y-102716000D03*
D11*
%TO.P,J5,1*%
%TO.N,/PWM5*%
X184322000Y-100176000D03*
%TD*%
D10*
%TO.P,J4,3*%
%TO.N,GND*%
X184322000Y-69061000D03*
%TO.P,J4,2*%
%TO.N,/PWR*%
X184322000Y-66521000D03*
D11*
%TO.P,J4,1*%
%TO.N,/PWM2*%
X184322000Y-63981000D03*
%TD*%
D10*
%TO.P,J3,3*%
%TO.N,GND*%
X184322000Y-93191000D03*
%TO.P,J3,2*%
%TO.N,/PWR*%
X184322000Y-90651000D03*
D11*
%TO.P,J3,1*%
%TO.N,/PWM4*%
X184322000Y-88111000D03*
%TD*%
D10*
%TO.P,J2,3*%
%TO.N,GND*%
X184322000Y-56996000D03*
%TO.P,J2,2*%
%TO.N,/PWR*%
X184322000Y-54456000D03*
D11*
%TO.P,J2,1*%
%TO.N,/PWM1*%
X184322000Y-51916000D03*
%TD*%
D14*
%TO.P,H4,1*%
%TO.N,N/C*%
X187600000Y-134800000D03*
%TD*%
%TO.P,H3,1*%
%TO.N,N/C*%
X127600000Y-134800000D03*
%TD*%
%TO.P,H2,1*%
%TO.N,N/C*%
X187600000Y-44800000D03*
%TD*%
%TO.P,H1,1*%
%TO.N,N/C*%
X127600000Y-44800000D03*
%TD*%
D15*
%TO.P,A1,1*%
%TO.N,Net-(A1-Pad1)*%
X135000000Y-100000000D03*
D16*
%TO.P,A1,17*%
%TO.N,Net-(A1-Pad17)*%
X150240000Y-133020000D03*
%TO.P,A1,2*%
%TO.N,Net-(A1-Pad2)*%
X135000000Y-102540000D03*
%TO.P,A1,18*%
%TO.N,Net-(A1-Pad18)*%
X150240000Y-130480000D03*
%TO.P,A1,3*%
%TO.N,Net-(A1-Pad3)*%
X135000000Y-105080000D03*
%TO.P,A1,19*%
%TO.N,Net-(A1-Pad19)*%
X150240000Y-127940000D03*
%TO.P,A1,4*%
%TO.N,GND*%
X135000000Y-107620000D03*
%TO.P,A1,20*%
%TO.N,Net-(A1-Pad20)*%
X150240000Y-125400000D03*
%TO.P,A1,5*%
%TO.N,/E_STOP*%
X135000000Y-110160000D03*
%TO.P,A1,21*%
%TO.N,Net-(A1-Pad21)*%
X150240000Y-122860000D03*
%TO.P,A1,6*%
%TO.N,/INT*%
X135000000Y-112700000D03*
%TO.P,A1,22*%
%TO.N,Net-(A1-Pad22)*%
X150240000Y-120320000D03*
%TO.P,A1,7*%
%TO.N,/SYNC*%
X135000000Y-115240000D03*
%TO.P,A1,23*%
%TO.N,/I2C_DAT*%
X150240000Y-117780000D03*
%TO.P,A1,8*%
%TO.N,/PWM1*%
X135000000Y-117780000D03*
%TO.P,A1,24*%
%TO.N,/I2C_CLK*%
X150240000Y-115240000D03*
%TO.P,A1,9*%
%TO.N,/PWM2*%
X135000000Y-120320000D03*
%TO.P,A1,25*%
%TO.N,Net-(A1-Pad25)*%
X150240000Y-112700000D03*
%TO.P,A1,10*%
%TO.N,Net-(A1-Pad10)*%
X135000000Y-122860000D03*
%TO.P,A1,26*%
%TO.N,Net-(A1-Pad26)*%
X150240000Y-110160000D03*
%TO.P,A1,11*%
%TO.N,Net-(A1-Pad11)*%
X135000000Y-125400000D03*
%TO.P,A1,27*%
%TO.N,+5V*%
X150240000Y-107620000D03*
%TO.P,A1,12*%
%TO.N,/PWM3*%
X135000000Y-127940000D03*
%TO.P,A1,28*%
%TO.N,Net-(A1-Pad28)*%
X150240000Y-105080000D03*
%TO.P,A1,13*%
%TO.N,/PWM4*%
X135000000Y-130480000D03*
%TO.P,A1,29*%
%TO.N,GND*%
X150240000Y-102540000D03*
%TO.P,A1,14*%
%TO.N,/PWM5*%
X135000000Y-133020000D03*
%TO.P,A1,30*%
%TO.N,+12V*%
X150240000Y-100000000D03*
%TO.P,A1,15*%
%TO.N,Net-(A1-Pad15)*%
X135000000Y-135560000D03*
%TO.P,A1,16*%
%TO.N,Net-(A1-Pad16)*%
X150240000Y-135560000D03*
%TD*%
D13*
%TO.P,J1,1*%
%TO.N,GND*%
X129600000Y-78800000D03*
D12*
%TO.P,J1,2*%
%TO.N,+12V*%
X129600000Y-81340000D03*
%TO.P,J1,3*%
%TO.N,/I2C_CLK*%
X129600000Y-83880000D03*
%TO.P,J1,4*%
%TO.N,/I2C_DAT*%
X129600000Y-86420000D03*
%TO.P,J1,5*%
%TO.N,GND*%
X129600000Y-88960000D03*
%TO.P,J1,6*%
%TO.N,/E_STOP*%
X129600000Y-91500000D03*
%TO.P,J1,7*%
%TO.N,/INT*%
X129600000Y-94040000D03*
%TO.P,J1,8*%
%TO.N,/SYNC*%
X129600000Y-96580000D03*
%TO.P,J1,9*%
%TO.N,+12V*%
X129600000Y-99120000D03*
%TO.P,J1,10*%
%TO.N,GND*%
X129600000Y-101660000D03*
%TD*%
D17*
%TO.N,/PWM1*%
X130347000Y-117829000D03*
X174924000Y-51916000D03*
%TO.N,/PWM2*%
X130347000Y-120242000D03*
X174924000Y-63981000D03*
%TO.N,/PWM3*%
X130347000Y-122528000D03*
X174924000Y-76046000D03*
%TO.N,/PWM4*%
X130474000Y-124814000D03*
X174924000Y-88111000D03*
%TO.N,/PWM5*%
X130347000Y-127354000D03*
X174797000Y-100176000D03*
%TD*%
D18*
%TO.N,/PWM1*%
X134261002Y-117829000D02*
X136697000Y-115393002D01*
X130347000Y-117829000D02*
X134261002Y-117829000D01*
X136697000Y-115393002D02*
X136697000Y-58520000D01*
X143301000Y-51916000D02*
X174924000Y-51916000D01*
X136697000Y-58520000D02*
X143301000Y-51916000D01*
%TO.N,/PWM2*%
X134388002Y-120242000D02*
X139618000Y-115012002D01*
X130347000Y-120242000D02*
X134388002Y-120242000D01*
X139618000Y-115012002D02*
X139618000Y-67029000D01*
X142666000Y-63981000D02*
X174924000Y-63981000D01*
X139618000Y-67029000D02*
X142666000Y-63981000D01*
%TO.N,/PWM3*%
X135600001Y-124110001D02*
X141650000Y-118060002D01*
X131929001Y-124110001D02*
X135600001Y-124110001D01*
X130347000Y-122528000D02*
X131929001Y-124110001D01*
X141650000Y-118060002D02*
X141650000Y-79856000D01*
X145460000Y-76046000D02*
X174924000Y-76046000D01*
X141650000Y-79856000D02*
X145460000Y-76046000D01*
%TO.N,/PWM4*%
X135600001Y-129190001D02*
X143682000Y-121108002D01*
X134284316Y-129190001D02*
X135600001Y-129190001D01*
X130474000Y-125379685D02*
X134284316Y-129190001D01*
X130474000Y-124814000D02*
X130474000Y-125379685D01*
X143682000Y-121108002D02*
X143682000Y-91413000D01*
X146984000Y-88111000D02*
X174924000Y-88111000D01*
X143682000Y-91413000D02*
X146984000Y-88111000D01*
%TO.N,/PWM5*%
X135600001Y-131730001D02*
X146095000Y-121235002D01*
X130347000Y-127919685D02*
X134157316Y-131730001D01*
X134157316Y-131730001D02*
X135600001Y-131730001D01*
X130347000Y-127354000D02*
X130347000Y-127919685D01*
X146095000Y-121235002D02*
X146095000Y-96874000D01*
X146095000Y-96874000D02*
X148889000Y-94080000D01*
X148889000Y-94080000D02*
X157271000Y-94080000D01*
X163367000Y-100176000D02*
X174797000Y-100176000D01*
X157271000Y-94080000D02*
X163367000Y-100176000D01*
%TD*%
M02*
