M48
; DRILL file {KiCad (6.0.4)} date Wed Feb  1 16:24:17 2023
; FORMAT={-:-/ absolute / inch / decimal}
; #@! TF.CreationDate,2023-02-01T16:24:17-05:00
; #@! TF.GenerationSoftware,Kicad,Pcbnew,(6.0.4)
; #@! TF.FileFunction,Plated,1,2,PTH
FMAT,2
INCH
; #@! TA.AperFunction,Plated,PTH,ViaDrill
T1C0.0157
; #@! TA.AperFunction,Plated,PTH,ComponentDrill
T2C0.0320
; #@! TA.AperFunction,Plated,PTH,ComponentDrill
T3C0.0394
; #@! TA.AperFunction,Plated,PTH,ComponentDrill
T4C0.0394
; #@! TA.AperFunction,Plated,PTH,ComponentDrill
T5C0.0500
; #@! TA.AperFunction,Plated,PTH,ComponentDrill
T6C0.0512
; #@! TA.AperFunction,Plated,PTH,ComponentDrill
T7C0.0591
; #@! TA.AperFunction,Plated,PTH,ComponentDrill
T8C0.1000
; #@! TA.AperFunction,Plated,PTH,ComponentDrill
T9C0.1260
%
G90
G05
T1
X0.5Y2.3
X1.235Y1.45
X1.405Y1.05
X1.425Y1.595
X1.435Y1.325
X1.46Y0.74
X1.46Y0.675
X1.48Y1.115
X1.65Y1.6
X1.72Y1.21
X1.745Y3.655
X1.815Y1.425
X1.865Y1.825
X2.305Y3.595
T2
X1.425Y0.875
X1.435Y0.46
X1.525Y0.875
X1.535Y0.46
X1.625Y0.875
X1.635Y0.46
T3
X0.2756Y2.4016
X0.2756Y2.3016
X0.2756Y2.2016
X0.2756Y2.1016
X0.2756Y2.0016
X0.2756Y1.9016
X0.2756Y1.8016
X0.2756Y1.7016
X0.2756Y1.6016
X0.2756Y1.5016
X0.4882Y1.5669
X0.4882Y1.4669
X0.4882Y1.3669
X0.4882Y1.2669
X0.4882Y1.1669
X0.4882Y1.0669
X0.4882Y0.9669
X0.4882Y0.8669
X0.4882Y0.7669
X0.4882Y0.6669
X0.4882Y0.5669
X0.4882Y0.4669
X0.4882Y0.3669
X0.4882Y0.2669
X0.4882Y0.1669
X1.0882Y1.5669
X1.0882Y1.4669
X1.0882Y1.3669
X1.0882Y1.2669
X1.0882Y1.1669
X1.0882Y1.0669
X1.0882Y0.9669
X1.0882Y0.8669
X1.0882Y0.7669
X1.0882Y0.6669
X1.0882Y0.5669
X1.0882Y0.4669
X1.0882Y0.3669
X1.0882Y0.2669
X1.0882Y0.1669
T4
X1.785Y0.84
X1.79Y0.405
T5
X2.185Y0.84
X2.19Y0.405
T6
X0.8506Y3.2504
X0.8506Y2.9504
X1.2506Y2.9504
X1.4506Y3.2504
X1.5506Y2.9504
X2.4982Y2.9134
X2.4982Y2.7166
X2.5Y3.33
X2.5Y3.1331
X2.5068Y1.8684
X2.5068Y1.6716
X2.5068Y1.4619
X2.5068Y1.265
X2.5068Y1.0534
X2.5068Y0.8566
X2.5068Y0.6434
X2.5068Y0.4466
T7
X0.52Y3.35
X0.52Y2.75
T8
X2.0332Y3.4923
X2.0332Y3.2923
X2.0332Y3.1324
X2.0332Y2.9324
T9
X0.1969Y3.7402
X0.1969Y0.1969
X2.5591Y3.7402
X2.5591Y0.1969
T0
M30
