%TF.GenerationSoftware,KiCad,Pcbnew,(6.0.4)*%
%TF.CreationDate,2023-02-01T16:26:22-05:00*%
%TF.ProjectId,BREAD_Slice,42524541-445f-4536-9c69-63652e6b6963,rev?*%
%TF.SameCoordinates,PX74eba40PY8552dc0*%
%TF.FileFunction,Legend,Top*%
%TF.FilePolarity,Positive*%
%FSLAX46Y46*%
G04 Gerber Fmt 4.6, Leading zero omitted, Abs format (unit mm)*
G04 Created by KiCad (PCBNEW (6.0.4)) date 2023-02-01 16:26:22*
%MOMM*%
%LPD*%
G01*
G04 APERTURE LIST*
%ADD10C,0.150000*%
%ADD11C,0.120000*%
%ADD12C,0.010000*%
%ADD13R,2.500000X2.500000*%
%ADD14C,2.500000*%
%ADD15R,2.540000X2.540000*%
%ADD16C,2.540000*%
%ADD17R,1.998980X1.998980*%
%ADD18C,1.998980*%
%ADD19C,1.524000*%
%ADD20C,3.500000*%
G04 APERTURE END LIST*
D10*
X35099952Y94371381D02*
X35433285Y93895191D01*
X35671380Y94371381D02*
X35671380Y93371381D01*
X35290428Y93371381D01*
X35195190Y93419000D01*
X35147571Y93466620D01*
X35099952Y93561858D01*
X35099952Y93704715D01*
X35147571Y93799953D01*
X35195190Y93847572D01*
X35290428Y93895191D01*
X35671380Y93895191D01*
X34290428Y94323762D02*
X34385666Y94371381D01*
X34576142Y94371381D01*
X34671380Y94323762D01*
X34719000Y94228524D01*
X34719000Y93847572D01*
X34671380Y93752334D01*
X34576142Y93704715D01*
X34385666Y93704715D01*
X34290428Y93752334D01*
X34242809Y93847572D01*
X34242809Y93942810D01*
X34719000Y94038048D01*
X33671380Y94371381D02*
X33766619Y94323762D01*
X33814238Y94228524D01*
X33814238Y93371381D01*
X32861857Y94371381D02*
X32861857Y93847572D01*
X32909476Y93752334D01*
X33004714Y93704715D01*
X33195190Y93704715D01*
X33290428Y93752334D01*
X32861857Y94323762D02*
X32957095Y94371381D01*
X33195190Y94371381D01*
X33290428Y94323762D01*
X33338047Y94228524D01*
X33338047Y94133286D01*
X33290428Y94038048D01*
X33195190Y93990429D01*
X32957095Y93990429D01*
X32861857Y93942810D01*
X32480904Y93704715D02*
X32242809Y94371381D01*
X32004714Y93704715D02*
X32242809Y94371381D01*
X32338047Y94609477D01*
X32385666Y94657096D01*
X32480904Y94704715D01*
X30861857Y94371381D02*
X30861857Y93371381D01*
X30861857Y93847572D02*
X30290428Y93847572D01*
X30290428Y94371381D02*
X30290428Y93371381D01*
X29433285Y94323762D02*
X29528523Y94371381D01*
X29719000Y94371381D01*
X29814238Y94323762D01*
X29861857Y94228524D01*
X29861857Y93847572D01*
X29814238Y93752334D01*
X29719000Y93704715D01*
X29528523Y93704715D01*
X29433285Y93752334D01*
X29385666Y93847572D01*
X29385666Y93942810D01*
X29861857Y94038048D01*
X28528523Y94371381D02*
X28528523Y93847572D01*
X28576142Y93752334D01*
X28671380Y93704715D01*
X28861857Y93704715D01*
X28957095Y93752334D01*
X28528523Y94323762D02*
X28623761Y94371381D01*
X28861857Y94371381D01*
X28957095Y94323762D01*
X29004714Y94228524D01*
X29004714Y94133286D01*
X28957095Y94038048D01*
X28861857Y93990429D01*
X28623761Y93990429D01*
X28528523Y93942810D01*
X28195190Y93704715D02*
X27814238Y93704715D01*
X28052333Y93371381D02*
X28052333Y94228524D01*
X28004714Y94323762D01*
X27909476Y94371381D01*
X27814238Y94371381D01*
X27480904Y94371381D02*
X27480904Y93704715D01*
X27480904Y93371381D02*
X27528523Y93419000D01*
X27480904Y93466620D01*
X27433285Y93419000D01*
X27480904Y93371381D01*
X27480904Y93466620D01*
X27004714Y93704715D02*
X27004714Y94371381D01*
X27004714Y93799953D02*
X26957095Y93752334D01*
X26861857Y93704715D01*
X26719000Y93704715D01*
X26623761Y93752334D01*
X26576142Y93847572D01*
X26576142Y94371381D01*
X25671380Y93704715D02*
X25671380Y94514239D01*
X25719000Y94609477D01*
X25766619Y94657096D01*
X25861857Y94704715D01*
X26004714Y94704715D01*
X26099952Y94657096D01*
X25671380Y94323762D02*
X25766619Y94371381D01*
X25957095Y94371381D01*
X26052333Y94323762D01*
X26099952Y94276143D01*
X26147571Y94180905D01*
X26147571Y93895191D01*
X26099952Y93799953D01*
X26052333Y93752334D01*
X25957095Y93704715D01*
X25766619Y93704715D01*
X25671380Y93752334D01*
X24433285Y93847572D02*
X24099952Y93847572D01*
X23957095Y94371381D02*
X24433285Y94371381D01*
X24433285Y93371381D01*
X23957095Y93371381D01*
X23385666Y94371381D02*
X23480904Y94323762D01*
X23528523Y94228524D01*
X23528523Y93371381D01*
X22623761Y94323762D02*
X22719000Y94371381D01*
X22909476Y94371381D01*
X23004714Y94323762D01*
X23052333Y94228524D01*
X23052333Y93847572D01*
X23004714Y93752334D01*
X22909476Y93704715D01*
X22719000Y93704715D01*
X22623761Y93752334D01*
X22576142Y93847572D01*
X22576142Y93942810D01*
X23052333Y94038048D01*
X22147571Y94371381D02*
X22147571Y93704715D01*
X22147571Y93799953D02*
X22099952Y93752334D01*
X22004714Y93704715D01*
X21861857Y93704715D01*
X21766619Y93752334D01*
X21719000Y93847572D01*
X21719000Y94371381D01*
X21719000Y93847572D02*
X21671380Y93752334D01*
X21576142Y93704715D01*
X21433285Y93704715D01*
X21338047Y93752334D01*
X21290428Y93847572D01*
X21290428Y94371381D01*
X20433285Y94323762D02*
X20528523Y94371381D01*
X20719000Y94371381D01*
X20814238Y94323762D01*
X20861857Y94228524D01*
X20861857Y93847572D01*
X20814238Y93752334D01*
X20719000Y93704715D01*
X20528523Y93704715D01*
X20433285Y93752334D01*
X20385666Y93847572D01*
X20385666Y93942810D01*
X20861857Y94038048D01*
X19957095Y93704715D02*
X19957095Y94371381D01*
X19957095Y93799953D02*
X19909476Y93752334D01*
X19814238Y93704715D01*
X19671380Y93704715D01*
X19576142Y93752334D01*
X19528523Y93847572D01*
X19528523Y94371381D01*
X19195190Y93704715D02*
X18814238Y93704715D01*
X19052333Y93371381D02*
X19052333Y94228524D01*
X19004714Y94323762D01*
X18909476Y94371381D01*
X18814238Y94371381D01*
X17147571Y94276143D02*
X17195190Y94323762D01*
X17338047Y94371381D01*
X17433285Y94371381D01*
X17576142Y94323762D01*
X17671380Y94228524D01*
X17719000Y94133286D01*
X17766619Y93942810D01*
X17766619Y93799953D01*
X17719000Y93609477D01*
X17671380Y93514239D01*
X17576142Y93419000D01*
X17433285Y93371381D01*
X17338047Y93371381D01*
X17195190Y93419000D01*
X17147571Y93466620D01*
X16576142Y94371381D02*
X16671380Y94323762D01*
X16719000Y94276143D01*
X16766619Y94180905D01*
X16766619Y93895191D01*
X16719000Y93799953D01*
X16671380Y93752334D01*
X16576142Y93704715D01*
X16433285Y93704715D01*
X16338047Y93752334D01*
X16290428Y93799953D01*
X16242809Y93895191D01*
X16242809Y94180905D01*
X16290428Y94276143D01*
X16338047Y94323762D01*
X16433285Y94371381D01*
X16576142Y94371381D01*
X15814238Y93704715D02*
X15814238Y94371381D01*
X15814238Y93799953D02*
X15766619Y93752334D01*
X15671380Y93704715D01*
X15528523Y93704715D01*
X15433285Y93752334D01*
X15385666Y93847572D01*
X15385666Y94371381D01*
X15052333Y93704715D02*
X14671380Y93704715D01*
X14909476Y93371381D02*
X14909476Y94228524D01*
X14861857Y94323762D01*
X14766619Y94371381D01*
X14671380Y94371381D01*
X14338047Y94371381D02*
X14338047Y93704715D01*
X14338047Y93895191D02*
X14290428Y93799953D01*
X14242809Y93752334D01*
X14147571Y93704715D01*
X14052333Y93704715D01*
X13576142Y94371381D02*
X13671380Y94323762D01*
X13719000Y94276143D01*
X13766619Y94180905D01*
X13766619Y93895191D01*
X13719000Y93799953D01*
X13671380Y93752334D01*
X13576142Y93704715D01*
X13433285Y93704715D01*
X13338047Y93752334D01*
X13290428Y93799953D01*
X13242809Y93895191D01*
X13242809Y94180905D01*
X13290428Y94276143D01*
X13338047Y94323762D01*
X13433285Y94371381D01*
X13576142Y94371381D01*
X12671380Y94371381D02*
X12766619Y94323762D01*
X12814238Y94228524D01*
X12814238Y93371381D01*
X12147571Y94371381D02*
X12242809Y94323762D01*
X12290428Y94228524D01*
X12290428Y93371381D01*
X11385666Y94323762D02*
X11480904Y94371381D01*
X11671380Y94371381D01*
X11766619Y94323762D01*
X11814238Y94228524D01*
X11814238Y93847572D01*
X11766619Y93752334D01*
X11671380Y93704715D01*
X11480904Y93704715D01*
X11385666Y93752334D01*
X11338047Y93847572D01*
X11338047Y93942810D01*
X11814238Y94038048D01*
X10909476Y94371381D02*
X10909476Y93704715D01*
X10909476Y93895191D02*
X10861857Y93799953D01*
X10814238Y93752334D01*
X10719000Y93704715D01*
X10623761Y93704715D01*
X26599952Y95933762D02*
X26457095Y95981381D01*
X26219000Y95981381D01*
X26123761Y95933762D01*
X26076142Y95886143D01*
X26028523Y95790905D01*
X26028523Y95695667D01*
X26076142Y95600429D01*
X26123761Y95552810D01*
X26219000Y95505191D01*
X26409476Y95457572D01*
X26504714Y95409953D01*
X26552333Y95362334D01*
X26599952Y95267096D01*
X26599952Y95171858D01*
X26552333Y95076620D01*
X26504714Y95029000D01*
X26409476Y94981381D01*
X26171380Y94981381D01*
X26028523Y95029000D01*
X25123761Y95981381D02*
X25599952Y95981381D01*
X25599952Y94981381D01*
X24219000Y95886143D02*
X24266619Y95933762D01*
X24409476Y95981381D01*
X24504714Y95981381D01*
X24647571Y95933762D01*
X24742809Y95838524D01*
X24790428Y95743286D01*
X24838047Y95552810D01*
X24838047Y95409953D01*
X24790428Y95219477D01*
X24742809Y95124239D01*
X24647571Y95029000D01*
X24504714Y94981381D01*
X24409476Y94981381D01*
X24266619Y95029000D01*
X24219000Y95076620D01*
X24028523Y96076620D02*
X23266619Y96076620D01*
X22457095Y95981381D02*
X22790428Y95505191D01*
X23028523Y95981381D02*
X23028523Y94981381D01*
X22647571Y94981381D01*
X22552333Y95029000D01*
X22504714Y95076620D01*
X22457095Y95171858D01*
X22457095Y95314715D01*
X22504714Y95409953D01*
X22552333Y95457572D01*
X22647571Y95505191D01*
X23028523Y95505191D01*
X21552333Y95981381D02*
X22028523Y95981381D01*
X22028523Y94981381D01*
X21219000Y95981381D02*
X21219000Y94981381D01*
X21219000Y95457572D02*
X20647571Y95457572D01*
X20647571Y95981381D02*
X20647571Y94981381D01*
X20314238Y94981381D02*
X19742809Y94981381D01*
X20028523Y95981381D02*
X20028523Y94981381D01*
X25671380Y97591381D02*
X26004714Y97115191D01*
X26242809Y97591381D02*
X26242809Y96591381D01*
X25861857Y96591381D01*
X25766619Y96639000D01*
X25719000Y96686620D01*
X25671380Y96781858D01*
X25671380Y96924715D01*
X25719000Y97019953D01*
X25766619Y97067572D01*
X25861857Y97115191D01*
X26242809Y97115191D01*
X24719000Y97591381D02*
X25290428Y97591381D01*
X25004714Y97591381D02*
X25004714Y96591381D01*
X25099952Y96734239D01*
X25195190Y96829477D01*
X25290428Y96877096D01*
X23576142Y96686620D02*
X23528523Y96639000D01*
X23433285Y96591381D01*
X23195190Y96591381D01*
X23099952Y96639000D01*
X23052333Y96686620D01*
X23004714Y96781858D01*
X23004714Y96877096D01*
X23052333Y97019953D01*
X23623761Y97591381D01*
X23004714Y97591381D01*
X22385666Y96591381D02*
X22290428Y96591381D01*
X22195190Y96639000D01*
X22147571Y96686620D01*
X22099952Y96781858D01*
X22052333Y96972334D01*
X22052333Y97210429D01*
X22099952Y97400905D01*
X22147571Y97496143D01*
X22195190Y97543762D01*
X22290428Y97591381D01*
X22385666Y97591381D01*
X22480904Y97543762D01*
X22528523Y97496143D01*
X22576142Y97400905D01*
X22623761Y97210429D01*
X22623761Y96972334D01*
X22576142Y96781858D01*
X22528523Y96686620D01*
X22480904Y96639000D01*
X22385666Y96591381D01*
X21671380Y96686620D02*
X21623761Y96639000D01*
X21528523Y96591381D01*
X21290428Y96591381D01*
X21195190Y96639000D01*
X21147571Y96686620D01*
X21099952Y96781858D01*
X21099952Y96877096D01*
X21147571Y97019953D01*
X21719000Y97591381D01*
X21099952Y97591381D01*
X20719000Y96686620D02*
X20671380Y96639000D01*
X20576142Y96591381D01*
X20338047Y96591381D01*
X20242809Y96639000D01*
X20195190Y96686620D01*
X20147571Y96781858D01*
X20147571Y96877096D01*
X20195190Y97019953D01*
X20766619Y97591381D01*
X20147571Y97591381D01*
%TO.C,A1*%
X19305714Y44713334D02*
X19781904Y44713334D01*
X19210476Y44427620D02*
X19543809Y45427620D01*
X19877142Y44427620D01*
X20734285Y44427620D02*
X20162857Y44427620D01*
X20448571Y44427620D02*
X20448571Y45427620D01*
X20353333Y45284762D01*
X20258095Y45189524D01*
X20162857Y45141905D01*
%TO.C,J1*%
X2286666Y64317620D02*
X2286666Y63603334D01*
X2239047Y63460477D01*
X2143809Y63365239D01*
X2000952Y63317620D01*
X1905714Y63317620D01*
X3286666Y63317620D02*
X2715238Y63317620D01*
X3000952Y63317620D02*
X3000952Y64317620D01*
X2905714Y64174762D01*
X2810476Y64079524D01*
X2715238Y64031905D01*
%TO.C,J2*%
X69025380Y23923667D02*
X69739666Y23923667D01*
X69882523Y23876048D01*
X69977761Y23780810D01*
X70025380Y23637953D01*
X70025380Y23542715D01*
X69120619Y24352239D02*
X69073000Y24399858D01*
X69025380Y24495096D01*
X69025380Y24733191D01*
X69073000Y24828429D01*
X69120619Y24876048D01*
X69215857Y24923667D01*
X69311095Y24923667D01*
X69453952Y24876048D01*
X70025380Y24304620D01*
X70025380Y24923667D01*
%TO.C,J3*%
X69025380Y13509667D02*
X69739666Y13509667D01*
X69882523Y13462048D01*
X69977761Y13366810D01*
X70025380Y13223953D01*
X70025380Y13128715D01*
X69025380Y13890620D02*
X69025380Y14509667D01*
X69406333Y14176334D01*
X69406333Y14319191D01*
X69453952Y14414429D01*
X69501571Y14462048D01*
X69596809Y14509667D01*
X69834904Y14509667D01*
X69930142Y14462048D01*
X69977761Y14414429D01*
X70025380Y14319191D01*
X70025380Y14033477D01*
X69977761Y13938239D01*
X69930142Y13890620D01*
%TO.C,D3*%
X8580380Y77285905D02*
X7580380Y77285905D01*
X7580380Y77524000D01*
X7628000Y77666858D01*
X7723238Y77762096D01*
X7818476Y77809715D01*
X8008952Y77857334D01*
X8151809Y77857334D01*
X8342285Y77809715D01*
X8437523Y77762096D01*
X8532761Y77666858D01*
X8580380Y77524000D01*
X8580380Y77285905D01*
X7580380Y78190667D02*
X7580380Y78809715D01*
X7961333Y78476381D01*
X7961333Y78619239D01*
X8008952Y78714477D01*
X8056571Y78762096D01*
X8151809Y78809715D01*
X8389904Y78809715D01*
X8485142Y78762096D01*
X8532761Y78714477D01*
X8580380Y78619239D01*
X8580380Y78333524D01*
X8532761Y78238286D01*
X8485142Y78190667D01*
%TO.C,J5*%
X57052380Y81748667D02*
X57766666Y81748667D01*
X57909523Y81701048D01*
X58004761Y81605810D01*
X58052380Y81462953D01*
X58052380Y81367715D01*
X57052380Y82701048D02*
X57052380Y82224858D01*
X57528571Y82177239D01*
X57480952Y82224858D01*
X57433333Y82320096D01*
X57433333Y82558191D01*
X57480952Y82653429D01*
X57528571Y82701048D01*
X57623809Y82748667D01*
X57861904Y82748667D01*
X57957142Y82701048D01*
X58004761Y82653429D01*
X58052380Y82558191D01*
X58052380Y82320096D01*
X58004761Y82224858D01*
X57957142Y82177239D01*
%TO.C,J8*%
X69025380Y34297667D02*
X69739666Y34297667D01*
X69882523Y34250048D01*
X69977761Y34154810D01*
X70025380Y34011953D01*
X70025380Y33916715D01*
X69453952Y34916715D02*
X69406333Y34821477D01*
X69358714Y34773858D01*
X69263476Y34726239D01*
X69215857Y34726239D01*
X69120619Y34773858D01*
X69073000Y34821477D01*
X69025380Y34916715D01*
X69025380Y35107191D01*
X69073000Y35202429D01*
X69120619Y35250048D01*
X69215857Y35297667D01*
X69263476Y35297667D01*
X69358714Y35250048D01*
X69406333Y35202429D01*
X69453952Y35107191D01*
X69453952Y34916715D01*
X69501571Y34821477D01*
X69549190Y34773858D01*
X69644428Y34726239D01*
X69834904Y34726239D01*
X69930142Y34773858D01*
X69977761Y34821477D01*
X70025380Y34916715D01*
X70025380Y35107191D01*
X69977761Y35202429D01*
X69930142Y35250048D01*
X69834904Y35297667D01*
X69644428Y35297667D01*
X69549190Y35250048D01*
X69501571Y35202429D01*
X69453952Y35107191D01*
%TO.C,D2*%
X50115244Y7294620D02*
X50115244Y8294620D01*
X50353340Y8294620D01*
X50496197Y8247000D01*
X50591435Y8151762D01*
X50639054Y8056524D01*
X50686673Y7866048D01*
X50686673Y7723191D01*
X50639054Y7532715D01*
X50591435Y7437477D01*
X50496197Y7342239D01*
X50353340Y7294620D01*
X50115244Y7294620D01*
X51067625Y8199381D02*
X51115244Y8247000D01*
X51210482Y8294620D01*
X51448578Y8294620D01*
X51543816Y8247000D01*
X51591435Y8199381D01*
X51639054Y8104143D01*
X51639054Y8008905D01*
X51591435Y7866048D01*
X51020006Y7294620D01*
X51639054Y7294620D01*
%TO.C,J7*%
X69025380Y44624667D02*
X69739666Y44624667D01*
X69882523Y44577048D01*
X69977761Y44481810D01*
X70025380Y44338953D01*
X70025380Y44243715D01*
X69025380Y45005620D02*
X69025380Y45672286D01*
X70025380Y45243715D01*
%TO.C,RV2*%
X31821380Y11088762D02*
X31345190Y10755429D01*
X31821380Y10517334D02*
X30821380Y10517334D01*
X30821380Y10898286D01*
X30869000Y10993524D01*
X30916619Y11041143D01*
X31011857Y11088762D01*
X31154714Y11088762D01*
X31249952Y11041143D01*
X31297571Y10993524D01*
X31345190Y10898286D01*
X31345190Y10517334D01*
X30821380Y11374477D02*
X31821380Y11707810D01*
X30821380Y12041143D01*
X30916619Y12326858D02*
X30869000Y12374477D01*
X30821380Y12469715D01*
X30821380Y12707810D01*
X30869000Y12803048D01*
X30916619Y12850667D01*
X31011857Y12898286D01*
X31107095Y12898286D01*
X31249952Y12850667D01*
X31821380Y12279239D01*
X31821380Y12898286D01*
%TO.C,J4*%
X57006380Y71167667D02*
X57720666Y71167667D01*
X57863523Y71120048D01*
X57958761Y71024810D01*
X58006380Y70881953D01*
X58006380Y70786715D01*
X57339714Y72072429D02*
X58006380Y72072429D01*
X56958761Y71834334D02*
X57673047Y71596239D01*
X57673047Y72215286D01*
%TO.C,D1*%
X49988244Y18343620D02*
X49988244Y19343620D01*
X50226340Y19343620D01*
X50369197Y19296000D01*
X50464435Y19200762D01*
X50512054Y19105524D01*
X50559673Y18915048D01*
X50559673Y18772191D01*
X50512054Y18581715D01*
X50464435Y18486477D01*
X50369197Y18391239D01*
X50226340Y18343620D01*
X49988244Y18343620D01*
X51512054Y18343620D02*
X50940625Y18343620D01*
X51226340Y18343620D02*
X51226340Y19343620D01*
X51131101Y19200762D01*
X51035863Y19105524D01*
X50940625Y19057905D01*
%TO.C,RV1*%
X31567380Y21629762D02*
X31091190Y21296429D01*
X31567380Y21058334D02*
X30567380Y21058334D01*
X30567380Y21439286D01*
X30615000Y21534524D01*
X30662619Y21582143D01*
X30757857Y21629762D01*
X30900714Y21629762D01*
X30995952Y21582143D01*
X31043571Y21534524D01*
X31091190Y21439286D01*
X31091190Y21058334D01*
X30567380Y21915477D02*
X31567380Y22248810D01*
X30567380Y22582143D01*
X31567380Y23439286D02*
X31567380Y22867858D01*
X31567380Y23153572D02*
X30567380Y23153572D01*
X30710238Y23058334D01*
X30805476Y22963096D01*
X30853095Y22867858D01*
%TO.C,K1*%
X30366904Y84987620D02*
X30366904Y85987620D01*
X30938333Y84987620D02*
X30509761Y85559048D01*
X30938333Y85987620D02*
X30366904Y85416191D01*
X31890714Y84987620D02*
X31319285Y84987620D01*
X31605000Y84987620D02*
X31605000Y85987620D01*
X31509761Y85844762D01*
X31414523Y85749524D01*
X31319285Y85701905D01*
%TO.C,F1*%
X55571571Y81750667D02*
X55571571Y81417334D01*
X56095380Y81417334D02*
X55095380Y81417334D01*
X55095380Y81893524D01*
X56095380Y82798286D02*
X56095380Y82226858D01*
X56095380Y82512572D02*
X55095380Y82512572D01*
X55238238Y82417334D01*
X55333476Y82322096D01*
X55381095Y82226858D01*
D11*
%TO.C,A1*%
X29040000Y43740000D02*
X11000000Y43740000D01*
X11000000Y43740000D02*
X11000000Y41070000D01*
X13670000Y41070000D02*
X11000000Y41070000D01*
X11000000Y38530000D02*
X11000000Y300000D01*
X26370000Y2970000D02*
X29040000Y2970000D01*
X13670000Y38530000D02*
X13670000Y2970000D01*
X13670000Y38530000D02*
X11000000Y38530000D01*
X11000000Y300000D02*
X29040000Y300000D01*
X13670000Y2970000D02*
X11000000Y2970000D01*
X26370000Y41070000D02*
X26370000Y2970000D01*
X29040000Y300000D02*
X29040000Y43740000D01*
X13670000Y38530000D02*
X13670000Y41070000D01*
X26370000Y41070000D02*
X29040000Y41070000D01*
%TO.C,J1*%
X-3090000Y44490000D02*
X5540000Y44490000D01*
X-3090000Y59966195D02*
X5540000Y59966195D01*
X-3090000Y54650000D02*
X5540000Y54650000D01*
X5540000Y58820000D02*
X5950000Y58820000D01*
X5540000Y37780000D02*
X5950000Y37780000D01*
X5540000Y42860000D02*
X5950000Y42860000D01*
X-3090000Y61737620D02*
X5540000Y61737620D01*
X-3090000Y60202385D02*
X5540000Y60202385D01*
X-3090000Y61029050D02*
X5540000Y61029050D01*
X-3090000Y39410000D02*
X5540000Y39410000D01*
X5540000Y41040000D02*
X5950000Y41040000D01*
X5540000Y50480000D02*
X5950000Y50480000D01*
X5540000Y61360000D02*
X5890000Y61360000D01*
X5540000Y43580000D02*
X5950000Y43580000D01*
X-3090000Y47030000D02*
X5540000Y47030000D01*
X5540000Y47940000D02*
X5950000Y47940000D01*
X5540000Y60640000D02*
X5890000Y60640000D01*
X-3090000Y61147145D02*
X5540000Y61147145D01*
X-3090000Y61855715D02*
X5540000Y61855715D01*
X5540000Y38500000D02*
X5950000Y38500000D01*
X-3090000Y61973810D02*
X5540000Y61973810D01*
X5540000Y58100000D02*
X5950000Y58100000D01*
X-3090000Y60792860D02*
X5540000Y60792860D01*
X5540000Y45400000D02*
X5950000Y45400000D01*
X-3090000Y41950000D02*
X5540000Y41950000D01*
X7000000Y62330000D02*
X8110000Y62330000D01*
X-3090000Y61265240D02*
X5540000Y61265240D01*
X5540000Y53740000D02*
X5950000Y53740000D01*
X-3090000Y62330000D02*
X-3090000Y36810000D01*
X5540000Y46120000D02*
X5950000Y46120000D01*
X8110000Y62330000D02*
X8110000Y61000000D01*
X-3090000Y60438575D02*
X5540000Y60438575D01*
X-3090000Y60556670D02*
X5540000Y60556670D01*
X-3090000Y60084290D02*
X5540000Y60084290D01*
X-3090000Y60674765D02*
X5540000Y60674765D01*
X5540000Y53020000D02*
X5950000Y53020000D01*
X-3090000Y62210000D02*
X5540000Y62210000D01*
X-3090000Y61619525D02*
X5540000Y61619525D01*
X-3090000Y52110000D02*
X5540000Y52110000D01*
X-3090000Y61383335D02*
X5540000Y61383335D01*
X-3090000Y59848100D02*
X5540000Y59848100D01*
X5540000Y48660000D02*
X5950000Y48660000D01*
X-3090000Y62330000D02*
X5540000Y62330000D01*
X-3090000Y62091905D02*
X5540000Y62091905D01*
X5540000Y56280000D02*
X5950000Y56280000D01*
X-3090000Y57190000D02*
X5540000Y57190000D01*
X-3090000Y49570000D02*
X5540000Y49570000D01*
X5540000Y55560000D02*
X5950000Y55560000D01*
X5540000Y51200000D02*
X5950000Y51200000D01*
X-3090000Y59730000D02*
X5540000Y59730000D01*
X-3090000Y60320480D02*
X5540000Y60320480D01*
X5540000Y40320000D02*
X5950000Y40320000D01*
X-3090000Y60910955D02*
X5540000Y60910955D01*
X-3090000Y36810000D02*
X5540000Y36810000D01*
X-3090000Y61501430D02*
X5540000Y61501430D01*
X5540000Y62330000D02*
X5540000Y36810000D01*
%TO.C,Logo1*%
G36*
X37489357Y98212912D02*
G01*
X37534200Y98186020D01*
X37594679Y98146736D01*
X37641211Y98115117D01*
X37725525Y98057098D01*
X37825374Y97988784D01*
X37925527Y97920579D01*
X37979373Y97884075D01*
X38161629Y97760800D01*
X38314619Y97843520D01*
X38384318Y97879759D01*
X38443586Y97907926D01*
X38483689Y97923991D01*
X38493897Y97926226D01*
X38506171Y97909722D01*
X38530387Y97863082D01*
X38564737Y97790609D01*
X38607412Y97696606D01*
X38656606Y97585374D01*
X38710510Y97461215D01*
X38767316Y97328432D01*
X38825218Y97191327D01*
X38882407Y97054202D01*
X38937076Y96921358D01*
X38987416Y96797098D01*
X39031620Y96685725D01*
X39067881Y96591539D01*
X39094391Y96518844D01*
X39109342Y96471941D01*
X39111746Y96455833D01*
X39092689Y96435286D01*
X39050964Y96401933D01*
X38995294Y96362702D01*
X38990622Y96359599D01*
X38846736Y96244423D01*
X38730717Y96110053D01*
X38643570Y95960784D01*
X38586301Y95800913D01*
X38559914Y95634737D01*
X38565415Y95466552D01*
X38603810Y95300655D01*
X38676105Y95141342D01*
X38697374Y95106487D01*
X38808004Y94965737D01*
X38938698Y94852714D01*
X39084936Y94768003D01*
X39242192Y94712194D01*
X39405943Y94685874D01*
X39571667Y94689630D01*
X39734838Y94724050D01*
X39890935Y94789723D01*
X40035433Y94887235D01*
X40080131Y94926813D01*
X40193888Y95050703D01*
X40276782Y95181124D01*
X40333644Y95327315D01*
X40365313Y95472088D01*
X40373131Y95634860D01*
X40347062Y95798440D01*
X40289755Y95957298D01*
X40203856Y96105906D01*
X40092014Y96238735D01*
X39956877Y96350256D01*
X39939117Y96362011D01*
X39882850Y96400508D01*
X39840077Y96433863D01*
X39819628Y96455160D01*
X39819331Y96455833D01*
X39823721Y96478871D01*
X39841124Y96531157D01*
X39869732Y96608390D01*
X39907735Y96706268D01*
X39953326Y96820491D01*
X40004697Y96946758D01*
X40060038Y97080767D01*
X40117542Y97218218D01*
X40175399Y97354808D01*
X40231802Y97486237D01*
X40284942Y97608205D01*
X40333010Y97716409D01*
X40374199Y97806549D01*
X40406699Y97874323D01*
X40428703Y97915430D01*
X40437564Y97926226D01*
X40464640Y97917819D01*
X40515303Y97895272D01*
X40580817Y97862613D01*
X40616841Y97843520D01*
X40769832Y97760800D01*
X40952088Y97884075D01*
X41045125Y97947228D01*
X41146985Y98016727D01*
X41242438Y98082165D01*
X41290250Y98115117D01*
X41357495Y98160273D01*
X41414436Y98196057D01*
X41453646Y98217938D01*
X41466381Y98222563D01*
X41484917Y98210085D01*
X41525941Y98175252D01*
X41585475Y98121678D01*
X41659542Y98052983D01*
X41744165Y97972781D01*
X41797685Y97921286D01*
X41891319Y97829286D01*
X41972241Y97746999D01*
X42037177Y97677945D01*
X42082858Y97625644D01*
X42106011Y97593616D01*
X42108232Y97587116D01*
X42097924Y97562394D01*
X42069439Y97512405D01*
X42025937Y97442212D01*
X41970577Y97356875D01*
X41906520Y97261456D01*
X41888303Y97234854D01*
X41821927Y97138167D01*
X41762378Y97051117D01*
X41712984Y96978595D01*
X41677075Y96925493D01*
X41657981Y96896703D01*
X41656136Y96893726D01*
X41658895Y96870782D01*
X41673538Y96820336D01*
X41697513Y96749041D01*
X41728266Y96663547D01*
X41763244Y96570507D01*
X41799893Y96476574D01*
X41835661Y96388399D01*
X41867994Y96312634D01*
X41894338Y96255931D01*
X41912142Y96224943D01*
X41913407Y96223457D01*
X41924294Y96214601D01*
X41942682Y96205843D01*
X41972606Y96196277D01*
X42018103Y96184996D01*
X42083209Y96171093D01*
X42171961Y96153663D01*
X42288393Y96131798D01*
X42436542Y96104591D01*
X42468618Y96098741D01*
X42563686Y96080374D01*
X42646565Y96062405D01*
X42709930Y96046569D01*
X42746458Y96034600D01*
X42751356Y96031810D01*
X42759427Y96007072D01*
X42765987Y95951790D01*
X42771033Y95872389D01*
X42774559Y95775296D01*
X42776561Y95666938D01*
X42777036Y95553740D01*
X42775977Y95442128D01*
X42773382Y95338529D01*
X42769246Y95249368D01*
X42763563Y95181072D01*
X42756331Y95140066D01*
X42751971Y95131674D01*
X42727698Y95123208D01*
X42672426Y95109435D01*
X42591662Y95091550D01*
X42490912Y95070748D01*
X42375683Y95048223D01*
X42312902Y95036418D01*
X42193787Y95014151D01*
X42087565Y94993979D01*
X41999427Y94976915D01*
X41934566Y94963969D01*
X41898174Y94956155D01*
X41892184Y94954422D01*
X41882061Y94934890D01*
X41860662Y94887843D01*
X41830839Y94820003D01*
X41795445Y94738091D01*
X41757332Y94648828D01*
X41719353Y94558935D01*
X41684360Y94475135D01*
X41655206Y94404147D01*
X41634743Y94352694D01*
X41625823Y94327497D01*
X41625657Y94326396D01*
X41635769Y94306519D01*
X41664117Y94260777D01*
X41707723Y94193717D01*
X41763606Y94109884D01*
X41828787Y94013826D01*
X41866679Y93958650D01*
X41935725Y93857481D01*
X41997050Y93765630D01*
X42047663Y93687744D01*
X42084571Y93628469D01*
X42104782Y93592451D01*
X42107701Y93584377D01*
X42095153Y93565584D01*
X42060463Y93525457D01*
X42008063Y93468493D01*
X41942384Y93399185D01*
X41867856Y93322031D01*
X41788913Y93241525D01*
X41709983Y93162163D01*
X41635500Y93088440D01*
X41569894Y93024852D01*
X41517596Y92975894D01*
X41483039Y92946061D01*
X41471478Y92938942D01*
X41452654Y92948953D01*
X41407631Y92977078D01*
X41340787Y93020454D01*
X41256499Y93076218D01*
X41159144Y93141506D01*
X41085707Y93191246D01*
X40714667Y93443551D01*
X40096095Y93188555D01*
X40012275Y92743931D01*
X39928454Y92299307D01*
X39003006Y92299307D01*
X38919186Y92743931D01*
X38835365Y93188555D01*
X38526080Y93316053D01*
X38216794Y93443551D01*
X37845754Y93191246D01*
X37741843Y93120996D01*
X37647913Y93058272D01*
X37568348Y93005938D01*
X37507530Y92966857D01*
X37469843Y92943893D01*
X37459579Y92938942D01*
X37441090Y92951676D01*
X37401580Y92986882D01*
X37345478Y93040062D01*
X37277213Y93106718D01*
X37201214Y93182354D01*
X37121908Y93262472D01*
X37043725Y93342574D01*
X36971093Y93418164D01*
X36908441Y93484745D01*
X36860197Y93537818D01*
X36830790Y93572887D01*
X36823759Y93584623D01*
X36833877Y93606260D01*
X36862241Y93653662D01*
X36905871Y93722193D01*
X36961782Y93807215D01*
X37026994Y93904093D01*
X37064781Y93959350D01*
X37133657Y94060248D01*
X37194860Y94151299D01*
X37245422Y94227970D01*
X37282372Y94285728D01*
X37302742Y94320043D01*
X37305803Y94327254D01*
X37298864Y94347748D01*
X37279949Y94395513D01*
X37251913Y94463832D01*
X37217609Y94545989D01*
X37179891Y94635270D01*
X37141613Y94724958D01*
X37105630Y94808338D01*
X37074794Y94878694D01*
X37051961Y94929310D01*
X37039983Y94953471D01*
X37039276Y94954422D01*
X37020469Y94959036D01*
X36970382Y94969328D01*
X36894207Y94984287D01*
X36797135Y95002901D01*
X36684357Y95024159D01*
X36618558Y95036418D01*
X36498050Y95059362D01*
X36389203Y95081195D01*
X36297524Y95100722D01*
X36228519Y95116748D01*
X36187696Y95128079D01*
X36179489Y95131674D01*
X36171452Y95156006D01*
X36164967Y95210959D01*
X36160030Y95290108D01*
X36156636Y95387026D01*
X36154782Y95495287D01*
X36154462Y95608465D01*
X36155673Y95720135D01*
X36158410Y95823868D01*
X36162669Y95913241D01*
X36168445Y95981826D01*
X36175733Y96023197D01*
X36180105Y96031810D01*
X36206236Y96042133D01*
X36261607Y96056892D01*
X36338893Y96074352D01*
X36430770Y96092780D01*
X36462842Y96098741D01*
X36617476Y96127066D01*
X36739625Y96149876D01*
X36833327Y96168080D01*
X36902616Y96182583D01*
X36951529Y96194292D01*
X36984103Y96204115D01*
X37004372Y96212956D01*
X37016374Y96221724D01*
X37018053Y96223457D01*
X37034816Y96251371D01*
X37060386Y96305695D01*
X37092212Y96379777D01*
X37127740Y96466965D01*
X37164417Y96560608D01*
X37199689Y96654052D01*
X37231004Y96740647D01*
X37255807Y96813740D01*
X37271546Y96866678D01*
X37275668Y96892811D01*
X37275324Y96893726D01*
X37261359Y96915086D01*
X37229678Y96962084D01*
X37183609Y97029827D01*
X37126482Y97113423D01*
X37061627Y97207982D01*
X37043157Y97234854D01*
X36977301Y97332275D01*
X36919350Y97421163D01*
X36872462Y97496412D01*
X36839793Y97552920D01*
X36824500Y97585581D01*
X36823759Y97589593D01*
X36836608Y97610684D01*
X36872112Y97652464D01*
X36925707Y97710445D01*
X36992829Y97780135D01*
X37068913Y97857045D01*
X37149396Y97936683D01*
X37229713Y98014561D01*
X37305301Y98086186D01*
X37371595Y98147070D01*
X37424031Y98192721D01*
X37458045Y98218650D01*
X37467455Y98222883D01*
X37489357Y98212912D01*
G37*
D12*
X37489357Y98212912D02*
X37534200Y98186020D01*
X37594679Y98146736D01*
X37641211Y98115117D01*
X37725525Y98057098D01*
X37825374Y97988784D01*
X37925527Y97920579D01*
X37979373Y97884075D01*
X38161629Y97760800D01*
X38314619Y97843520D01*
X38384318Y97879759D01*
X38443586Y97907926D01*
X38483689Y97923991D01*
X38493897Y97926226D01*
X38506171Y97909722D01*
X38530387Y97863082D01*
X38564737Y97790609D01*
X38607412Y97696606D01*
X38656606Y97585374D01*
X38710510Y97461215D01*
X38767316Y97328432D01*
X38825218Y97191327D01*
X38882407Y97054202D01*
X38937076Y96921358D01*
X38987416Y96797098D01*
X39031620Y96685725D01*
X39067881Y96591539D01*
X39094391Y96518844D01*
X39109342Y96471941D01*
X39111746Y96455833D01*
X39092689Y96435286D01*
X39050964Y96401933D01*
X38995294Y96362702D01*
X38990622Y96359599D01*
X38846736Y96244423D01*
X38730717Y96110053D01*
X38643570Y95960784D01*
X38586301Y95800913D01*
X38559914Y95634737D01*
X38565415Y95466552D01*
X38603810Y95300655D01*
X38676105Y95141342D01*
X38697374Y95106487D01*
X38808004Y94965737D01*
X38938698Y94852714D01*
X39084936Y94768003D01*
X39242192Y94712194D01*
X39405943Y94685874D01*
X39571667Y94689630D01*
X39734838Y94724050D01*
X39890935Y94789723D01*
X40035433Y94887235D01*
X40080131Y94926813D01*
X40193888Y95050703D01*
X40276782Y95181124D01*
X40333644Y95327315D01*
X40365313Y95472088D01*
X40373131Y95634860D01*
X40347062Y95798440D01*
X40289755Y95957298D01*
X40203856Y96105906D01*
X40092014Y96238735D01*
X39956877Y96350256D01*
X39939117Y96362011D01*
X39882850Y96400508D01*
X39840077Y96433863D01*
X39819628Y96455160D01*
X39819331Y96455833D01*
X39823721Y96478871D01*
X39841124Y96531157D01*
X39869732Y96608390D01*
X39907735Y96706268D01*
X39953326Y96820491D01*
X40004697Y96946758D01*
X40060038Y97080767D01*
X40117542Y97218218D01*
X40175399Y97354808D01*
X40231802Y97486237D01*
X40284942Y97608205D01*
X40333010Y97716409D01*
X40374199Y97806549D01*
X40406699Y97874323D01*
X40428703Y97915430D01*
X40437564Y97926226D01*
X40464640Y97917819D01*
X40515303Y97895272D01*
X40580817Y97862613D01*
X40616841Y97843520D01*
X40769832Y97760800D01*
X40952088Y97884075D01*
X41045125Y97947228D01*
X41146985Y98016727D01*
X41242438Y98082165D01*
X41290250Y98115117D01*
X41357495Y98160273D01*
X41414436Y98196057D01*
X41453646Y98217938D01*
X41466381Y98222563D01*
X41484917Y98210085D01*
X41525941Y98175252D01*
X41585475Y98121678D01*
X41659542Y98052983D01*
X41744165Y97972781D01*
X41797685Y97921286D01*
X41891319Y97829286D01*
X41972241Y97746999D01*
X42037177Y97677945D01*
X42082858Y97625644D01*
X42106011Y97593616D01*
X42108232Y97587116D01*
X42097924Y97562394D01*
X42069439Y97512405D01*
X42025937Y97442212D01*
X41970577Y97356875D01*
X41906520Y97261456D01*
X41888303Y97234854D01*
X41821927Y97138167D01*
X41762378Y97051117D01*
X41712984Y96978595D01*
X41677075Y96925493D01*
X41657981Y96896703D01*
X41656136Y96893726D01*
X41658895Y96870782D01*
X41673538Y96820336D01*
X41697513Y96749041D01*
X41728266Y96663547D01*
X41763244Y96570507D01*
X41799893Y96476574D01*
X41835661Y96388399D01*
X41867994Y96312634D01*
X41894338Y96255931D01*
X41912142Y96224943D01*
X41913407Y96223457D01*
X41924294Y96214601D01*
X41942682Y96205843D01*
X41972606Y96196277D01*
X42018103Y96184996D01*
X42083209Y96171093D01*
X42171961Y96153663D01*
X42288393Y96131798D01*
X42436542Y96104591D01*
X42468618Y96098741D01*
X42563686Y96080374D01*
X42646565Y96062405D01*
X42709930Y96046569D01*
X42746458Y96034600D01*
X42751356Y96031810D01*
X42759427Y96007072D01*
X42765987Y95951790D01*
X42771033Y95872389D01*
X42774559Y95775296D01*
X42776561Y95666938D01*
X42777036Y95553740D01*
X42775977Y95442128D01*
X42773382Y95338529D01*
X42769246Y95249368D01*
X42763563Y95181072D01*
X42756331Y95140066D01*
X42751971Y95131674D01*
X42727698Y95123208D01*
X42672426Y95109435D01*
X42591662Y95091550D01*
X42490912Y95070748D01*
X42375683Y95048223D01*
X42312902Y95036418D01*
X42193787Y95014151D01*
X42087565Y94993979D01*
X41999427Y94976915D01*
X41934566Y94963969D01*
X41898174Y94956155D01*
X41892184Y94954422D01*
X41882061Y94934890D01*
X41860662Y94887843D01*
X41830839Y94820003D01*
X41795445Y94738091D01*
X41757332Y94648828D01*
X41719353Y94558935D01*
X41684360Y94475135D01*
X41655206Y94404147D01*
X41634743Y94352694D01*
X41625823Y94327497D01*
X41625657Y94326396D01*
X41635769Y94306519D01*
X41664117Y94260777D01*
X41707723Y94193717D01*
X41763606Y94109884D01*
X41828787Y94013826D01*
X41866679Y93958650D01*
X41935725Y93857481D01*
X41997050Y93765630D01*
X42047663Y93687744D01*
X42084571Y93628469D01*
X42104782Y93592451D01*
X42107701Y93584377D01*
X42095153Y93565584D01*
X42060463Y93525457D01*
X42008063Y93468493D01*
X41942384Y93399185D01*
X41867856Y93322031D01*
X41788913Y93241525D01*
X41709983Y93162163D01*
X41635500Y93088440D01*
X41569894Y93024852D01*
X41517596Y92975894D01*
X41483039Y92946061D01*
X41471478Y92938942D01*
X41452654Y92948953D01*
X41407631Y92977078D01*
X41340787Y93020454D01*
X41256499Y93076218D01*
X41159144Y93141506D01*
X41085707Y93191246D01*
X40714667Y93443551D01*
X40096095Y93188555D01*
X40012275Y92743931D01*
X39928454Y92299307D01*
X39003006Y92299307D01*
X38919186Y92743931D01*
X38835365Y93188555D01*
X38526080Y93316053D01*
X38216794Y93443551D01*
X37845754Y93191246D01*
X37741843Y93120996D01*
X37647913Y93058272D01*
X37568348Y93005938D01*
X37507530Y92966857D01*
X37469843Y92943893D01*
X37459579Y92938942D01*
X37441090Y92951676D01*
X37401580Y92986882D01*
X37345478Y93040062D01*
X37277213Y93106718D01*
X37201214Y93182354D01*
X37121908Y93262472D01*
X37043725Y93342574D01*
X36971093Y93418164D01*
X36908441Y93484745D01*
X36860197Y93537818D01*
X36830790Y93572887D01*
X36823759Y93584623D01*
X36833877Y93606260D01*
X36862241Y93653662D01*
X36905871Y93722193D01*
X36961782Y93807215D01*
X37026994Y93904093D01*
X37064781Y93959350D01*
X37133657Y94060248D01*
X37194860Y94151299D01*
X37245422Y94227970D01*
X37282372Y94285728D01*
X37302742Y94320043D01*
X37305803Y94327254D01*
X37298864Y94347748D01*
X37279949Y94395513D01*
X37251913Y94463832D01*
X37217609Y94545989D01*
X37179891Y94635270D01*
X37141613Y94724958D01*
X37105630Y94808338D01*
X37074794Y94878694D01*
X37051961Y94929310D01*
X37039983Y94953471D01*
X37039276Y94954422D01*
X37020469Y94959036D01*
X36970382Y94969328D01*
X36894207Y94984287D01*
X36797135Y95002901D01*
X36684357Y95024159D01*
X36618558Y95036418D01*
X36498050Y95059362D01*
X36389203Y95081195D01*
X36297524Y95100722D01*
X36228519Y95116748D01*
X36187696Y95128079D01*
X36179489Y95131674D01*
X36171452Y95156006D01*
X36164967Y95210959D01*
X36160030Y95290108D01*
X36156636Y95387026D01*
X36154782Y95495287D01*
X36154462Y95608465D01*
X36155673Y95720135D01*
X36158410Y95823868D01*
X36162669Y95913241D01*
X36168445Y95981826D01*
X36175733Y96023197D01*
X36180105Y96031810D01*
X36206236Y96042133D01*
X36261607Y96056892D01*
X36338893Y96074352D01*
X36430770Y96092780D01*
X36462842Y96098741D01*
X36617476Y96127066D01*
X36739625Y96149876D01*
X36833327Y96168080D01*
X36902616Y96182583D01*
X36951529Y96194292D01*
X36984103Y96204115D01*
X37004372Y96212956D01*
X37016374Y96221724D01*
X37018053Y96223457D01*
X37034816Y96251371D01*
X37060386Y96305695D01*
X37092212Y96379777D01*
X37127740Y96466965D01*
X37164417Y96560608D01*
X37199689Y96654052D01*
X37231004Y96740647D01*
X37255807Y96813740D01*
X37271546Y96866678D01*
X37275668Y96892811D01*
X37275324Y96893726D01*
X37261359Y96915086D01*
X37229678Y96962084D01*
X37183609Y97029827D01*
X37126482Y97113423D01*
X37061627Y97207982D01*
X37043157Y97234854D01*
X36977301Y97332275D01*
X36919350Y97421163D01*
X36872462Y97496412D01*
X36839793Y97552920D01*
X36824500Y97585581D01*
X36823759Y97589593D01*
X36836608Y97610684D01*
X36872112Y97652464D01*
X36925707Y97710445D01*
X36992829Y97780135D01*
X37068913Y97857045D01*
X37149396Y97936683D01*
X37229713Y98014561D01*
X37305301Y98086186D01*
X37371595Y98147070D01*
X37424031Y98192721D01*
X37458045Y98218650D01*
X37467455Y98222883D01*
X37489357Y98212912D01*
D10*
%TO.C,J2*%
X68273000Y19257000D02*
X68273000Y29257000D01*
X68273000Y29257000D02*
X58473000Y29257000D01*
X66273000Y19257000D02*
X66273000Y29257000D01*
X58473000Y29257000D02*
X58473000Y19257000D01*
X58473000Y19257000D02*
X68273000Y19257000D01*
X67773000Y19257000D02*
X67773000Y29257000D01*
X67773000Y24257000D02*
X68273000Y24257000D01*
X61373000Y19257000D02*
X61373000Y29257000D01*
X65773000Y26757000D02*
G75*
G03*
X65773000Y26757000I-2000000J0D01*
G01*
X65773000Y21757000D02*
G75*
G03*
X65773000Y21757000I-2000000J0D01*
G01*
%TO.C,J3*%
X67773000Y8843000D02*
X67773000Y18843000D01*
X66273000Y8843000D02*
X66273000Y18843000D01*
X68273000Y8843000D02*
X68273000Y18843000D01*
X58473000Y8843000D02*
X68273000Y8843000D01*
X61373000Y8843000D02*
X61373000Y18843000D01*
X68273000Y18843000D02*
X58473000Y18843000D01*
X58473000Y18843000D02*
X58473000Y8843000D01*
X67773000Y13843000D02*
X68273000Y13843000D01*
X65773000Y11343000D02*
G75*
G03*
X65773000Y11343000I-2000000J0D01*
G01*
X65773000Y16343000D02*
G75*
G03*
X65773000Y16343000I-2000000J0D01*
G01*
%TO.C,D3*%
X10414000Y82042000D02*
X16002000Y82042000D01*
X13208000Y82042000D02*
X13208000Y83566000D01*
X13208000Y72898000D02*
X13208000Y71374000D01*
X16002000Y81534000D02*
X10414000Y81534000D01*
X16002000Y72898000D02*
X10414000Y72898000D01*
X16002000Y81026000D02*
X10414000Y81026000D01*
X10414000Y72898000D02*
X10414000Y82042000D01*
X16002000Y82042000D02*
X16002000Y72898000D01*
X16002000Y81280000D02*
X10414000Y81280000D01*
%TO.C,J5*%
X59400000Y87082000D02*
X59400000Y77082000D01*
X58900000Y77082000D02*
X68700000Y77082000D01*
X60900000Y87082000D02*
X60900000Y77082000D01*
X59400000Y82082000D02*
X58900000Y82082000D01*
X65800000Y87082000D02*
X65800000Y77082000D01*
X58900000Y87082000D02*
X58900000Y77082000D01*
X68700000Y77082000D02*
X68700000Y87082000D01*
X68700000Y87082000D02*
X58900000Y87082000D01*
X65400000Y79582000D02*
G75*
G03*
X65400000Y79582000I-2000000J0D01*
G01*
X65400000Y84582000D02*
G75*
G03*
X65400000Y84582000I-2000000J0D01*
G01*
%TO.C,J8*%
X68273000Y29631000D02*
X68273000Y39631000D01*
X66273000Y29631000D02*
X66273000Y39631000D01*
X58473000Y39631000D02*
X58473000Y29631000D01*
X67773000Y29631000D02*
X67773000Y39631000D01*
X61373000Y29631000D02*
X61373000Y39631000D01*
X68273000Y39631000D02*
X58473000Y39631000D01*
X67773000Y34631000D02*
X68273000Y34631000D01*
X58473000Y29631000D02*
X68273000Y29631000D01*
X65773000Y32131000D02*
G75*
G03*
X65773000Y32131000I-2000000J0D01*
G01*
X65773000Y37131000D02*
G75*
G03*
X65773000Y37131000I-2000000J0D01*
G01*
%TO.C,D2*%
X53086000Y11557000D02*
X53086000Y9017000D01*
X49276000Y11557000D02*
X48006000Y9017000D01*
X48006000Y9017000D02*
X48006000Y11557000D01*
X49022000Y11557000D02*
X49022000Y9017000D01*
X48641000Y11557000D02*
X48641000Y9017000D01*
X53086000Y10287000D02*
X54102000Y10287000D01*
X53086000Y9017000D02*
X48006000Y9017000D01*
X48514000Y11557000D02*
X48514000Y9017000D01*
X49276000Y11557000D02*
X49276000Y9017000D01*
X48006000Y11557000D02*
X53086000Y11557000D01*
X48006000Y11557000D02*
X49276000Y9017000D01*
X48260000Y10287000D02*
X46990000Y10287000D01*
X48260000Y11557000D02*
X48260000Y9017000D01*
X48768000Y11557000D02*
X48768000Y9017000D01*
%TO.C,J7*%
X68273000Y39958000D02*
X68273000Y49958000D01*
X67773000Y39958000D02*
X67773000Y49958000D01*
X68273000Y49958000D02*
X58473000Y49958000D01*
X58473000Y39958000D02*
X68273000Y39958000D01*
X66273000Y39958000D02*
X66273000Y49958000D01*
X58473000Y49958000D02*
X58473000Y39958000D01*
X61373000Y39958000D02*
X61373000Y49958000D01*
X67773000Y44958000D02*
X68273000Y44958000D01*
X65773000Y42458000D02*
G75*
G03*
X65773000Y42458000I-2000000J0D01*
G01*
X65773000Y47458000D02*
G75*
G03*
X65773000Y47458000I-2000000J0D01*
G01*
%TO.C,RV2*%
X42735500Y9639300D02*
X43091100Y9842500D01*
X42545000Y9652000D02*
X42545000Y10922000D01*
X43815000Y10414000D02*
X43815000Y9144000D01*
X43091100Y9842500D02*
X43268900Y10134600D01*
X42875200Y11112500D02*
X42697400Y11201400D01*
X43268900Y10134600D02*
X43319700Y10452100D01*
X43815000Y14224000D02*
X43815000Y11684000D01*
X43319700Y10452100D02*
X43218100Y10858500D01*
X42291000Y9652000D02*
X42735500Y9639300D01*
X43815000Y11684000D02*
X43815000Y10414000D01*
X34163000Y13462000D02*
X43815000Y13462000D01*
X41757600Y10401300D02*
X41795700Y10147300D01*
X41973500Y9867900D02*
X42291000Y9652000D01*
X41795700Y10147300D02*
X41973500Y9867900D01*
X43218100Y10858500D02*
X42875200Y11112500D01*
X34163000Y9144000D02*
X34163000Y14224000D01*
X43815000Y9144000D02*
X34163000Y9144000D01*
%TO.C,J4*%
X68654000Y66501000D02*
X68654000Y76501000D01*
X58854000Y76501000D02*
X58854000Y66501000D01*
X59354000Y71501000D02*
X58854000Y71501000D01*
X65754000Y76501000D02*
X65754000Y66501000D01*
X59354000Y76501000D02*
X59354000Y66501000D01*
X68654000Y76501000D02*
X58854000Y76501000D01*
X60854000Y76501000D02*
X60854000Y66501000D01*
X58854000Y66501000D02*
X68654000Y66501000D01*
X65354000Y69001000D02*
G75*
G03*
X65354000Y69001000I-2000000J0D01*
G01*
X65354000Y74001000D02*
G75*
G03*
X65354000Y74001000I-2000000J0D01*
G01*
%TO.C,D1*%
X52959000Y20066000D02*
X47879000Y20066000D01*
X52959000Y22606000D02*
X52959000Y20066000D01*
X47879000Y20066000D02*
X47879000Y22606000D01*
X47879000Y22606000D02*
X52959000Y22606000D01*
X49149000Y22606000D02*
X49149000Y20066000D01*
X48895000Y22606000D02*
X48895000Y20066000D01*
X48387000Y22606000D02*
X48387000Y20066000D01*
X52959000Y21336000D02*
X53975000Y21336000D01*
X48133000Y22606000D02*
X48133000Y20066000D01*
X48514000Y22606000D02*
X48514000Y20066000D01*
X48641000Y22606000D02*
X48641000Y20066000D01*
X48133000Y21336000D02*
X46863000Y21336000D01*
X47879000Y22606000D02*
X49149000Y20066000D01*
X49149000Y22606000D02*
X47879000Y20066000D01*
%TO.C,RV1*%
X42481500Y20180300D02*
X42837100Y20383500D01*
X33909000Y19685000D02*
X33909000Y24765000D01*
X43014900Y20675600D02*
X43065700Y20993100D01*
X42964100Y21399500D02*
X42621200Y21653500D01*
X42037000Y20193000D02*
X42481500Y20180300D01*
X41719500Y20408900D02*
X42037000Y20193000D01*
X43065700Y20993100D02*
X42964100Y21399500D01*
X33909000Y24003000D02*
X43561000Y24003000D01*
X41503600Y20942300D02*
X41541700Y20688300D01*
X42837100Y20383500D02*
X43014900Y20675600D01*
X43561000Y19685000D02*
X33909000Y19685000D01*
X41541700Y20688300D02*
X41719500Y20408900D01*
X42621200Y21653500D02*
X42443400Y21742400D01*
X43561000Y22225000D02*
X43561000Y20955000D01*
X43561000Y24765000D02*
X43561000Y22225000D01*
X42291000Y20193000D02*
X42291000Y21463000D01*
X43561000Y20955000D02*
X43561000Y19685000D01*
D11*
%TO.C,K1*%
X41065000Y73250000D02*
X41065000Y84250000D01*
X22875000Y74940000D02*
X24145000Y74940000D01*
X24145000Y77230000D02*
X23635000Y77230000D01*
X23635000Y77230000D02*
X23635000Y79770000D01*
X24145000Y79770000D02*
X24655000Y79770000D01*
X19925000Y73250000D02*
X19925000Y84250000D01*
X31765000Y76210000D02*
X31765000Y78750000D01*
X24655000Y77230000D02*
X24145000Y77230000D01*
X23635000Y79770000D02*
X24145000Y79770000D01*
X39385000Y76210000D02*
X39385000Y78750000D01*
X24655000Y79770000D02*
X24655000Y77230000D01*
X24145000Y79770000D02*
X24145000Y82560000D01*
X34940000Y78750000D02*
X38750000Y81290000D01*
X24145000Y74940000D02*
X24145000Y77230000D01*
X19925000Y84250000D02*
X41065000Y84250000D01*
X36845000Y81290000D02*
X36845000Y80020000D01*
X24145000Y82560000D02*
X22875000Y82560000D01*
X19925000Y73250000D02*
X41065000Y73250000D01*
X31765000Y78750000D02*
X34940000Y78750000D01*
X23635000Y77990000D02*
X24655000Y79000000D01*
X35067000Y78750000D02*
G75*
G03*
X35067000Y78750000I-127000J0D01*
G01*
D10*
%TO.C,F1*%
X54643000Y90984000D02*
X54643000Y72084000D01*
X54643000Y72084000D02*
X49243000Y72084000D01*
X49243000Y90984000D02*
X54643000Y90984000D01*
X49243000Y72084000D02*
X49243000Y90984000D01*
%TD*%
D13*
%TO.C,J2*%
X63673000Y21757000D03*
D14*
X63673000Y26757000D03*
%TD*%
D13*
%TO.C,J3*%
X63673000Y11343000D03*
D14*
X63673000Y16343000D03*
%TD*%
D15*
%TO.C,D3*%
X13208000Y85090000D03*
D16*
X13208000Y69850000D03*
%TD*%
D13*
%TO.C,J5*%
X63500000Y84582000D03*
D14*
X63500000Y79582000D03*
%TD*%
D13*
%TO.C,J8*%
X63673000Y32131000D03*
D14*
X63673000Y37131000D03*
%TD*%
D17*
%TO.C,D2*%
X45466000Y10287000D03*
D18*
X55626000Y10287000D03*
%TD*%
D13*
%TO.C,J7*%
X63673000Y42458000D03*
D14*
X63673000Y47458000D03*
%TD*%
D19*
%TO.C,RV2*%
X41529000Y11684000D03*
X38989000Y11684000D03*
X36449000Y11684000D03*
%TD*%
D13*
%TO.C,J4*%
X63454000Y74001000D03*
D14*
X63454000Y69001000D03*
%TD*%
D17*
%TO.C,D1*%
X45339000Y21336000D03*
D18*
X55499000Y21336000D03*
%TD*%
D19*
%TO.C,RV1*%
X41275000Y22225000D03*
X38735000Y22225000D03*
X36195000Y22225000D03*
%TD*%
D20*
%TO.C,F1*%
X51643000Y79564000D03*
X51643000Y74484000D03*
X51643000Y83624000D03*
X51643000Y88704000D03*
%TD*%
M02*
