%TF.GenerationSoftware,KiCad,Pcbnew,(6.0.4)*%
%TF.CreationDate,2023-02-01T16:26:22-05:00*%
%TF.ProjectId,BREAD_Slice,42524541-445f-4536-9c69-63652e6b6963,rev?*%
%TF.SameCoordinates,PX74eba40PY8552dc0*%
%TF.FileFunction,Legend,Bot*%
%TF.FilePolarity,Positive*%
%FSLAX46Y46*%
G04 Gerber Fmt 4.6, Leading zero omitted, Abs format (unit mm)*
G04 Created by KiCad (PCBNEW (6.0.4)) date 2023-02-01 16:26:22*
%MOMM*%
%LPD*%
G01*
G04 APERTURE LIST*
%ADD10C,0.150000*%
%ADD11C,0.120000*%
%ADD12C,0.127000*%
%ADD13C,0.200000*%
G04 APERTURE END LIST*
D10*
%TO.C,FB4*%
X58110333Y30029429D02*
X58443666Y30029429D01*
X58443666Y29505620D02*
X58443666Y30505620D01*
X57967476Y30505620D01*
X57253190Y30029429D02*
X57110333Y29981810D01*
X57062714Y29934191D01*
X57015095Y29838953D01*
X57015095Y29696096D01*
X57062714Y29600858D01*
X57110333Y29553239D01*
X57205571Y29505620D01*
X57586523Y29505620D01*
X57586523Y30505620D01*
X57253190Y30505620D01*
X57157952Y30458000D01*
X57110333Y30410381D01*
X57062714Y30315143D01*
X57062714Y30219905D01*
X57110333Y30124667D01*
X57157952Y30077048D01*
X57253190Y30029429D01*
X57586523Y30029429D01*
X56157952Y30172286D02*
X56157952Y29505620D01*
X56396047Y30553239D02*
X56634142Y29838953D01*
X56015095Y29838953D01*
%TO.C,R4*%
X50585666Y18710620D02*
X50919000Y19186810D01*
X51157095Y18710620D02*
X51157095Y19710620D01*
X50776142Y19710620D01*
X50680904Y19663000D01*
X50633285Y19615381D01*
X50585666Y19520143D01*
X50585666Y19377286D01*
X50633285Y19282048D01*
X50680904Y19234429D01*
X50776142Y19186810D01*
X51157095Y19186810D01*
X49728523Y19377286D02*
X49728523Y18710620D01*
X49966619Y19758239D02*
X50204714Y19043953D01*
X49585666Y19043953D01*
%TO.C,U2*%
X41147904Y19203620D02*
X41147904Y18394096D01*
X41100285Y18298858D01*
X41052666Y18251239D01*
X40957428Y18203620D01*
X40766952Y18203620D01*
X40671714Y18251239D01*
X40624095Y18298858D01*
X40576476Y18394096D01*
X40576476Y19203620D01*
X40147904Y19108381D02*
X40100285Y19156000D01*
X40005047Y19203620D01*
X39766952Y19203620D01*
X39671714Y19156000D01*
X39624095Y19108381D01*
X39576476Y19013143D01*
X39576476Y18917905D01*
X39624095Y18775048D01*
X40195523Y18203620D01*
X39576476Y18203620D01*
%TO.C,U1*%
X41147904Y30379620D02*
X41147904Y29570096D01*
X41100285Y29474858D01*
X41052666Y29427239D01*
X40957428Y29379620D01*
X40766952Y29379620D01*
X40671714Y29427239D01*
X40624095Y29474858D01*
X40576476Y29570096D01*
X40576476Y30379620D01*
X39576476Y29379620D02*
X40147904Y29379620D01*
X39862190Y29379620D02*
X39862190Y30379620D01*
X39957428Y30236762D01*
X40052666Y30141524D01*
X40147904Y30093905D01*
%TO.C,R6*%
X50585666Y7534620D02*
X50919000Y8010810D01*
X51157095Y7534620D02*
X51157095Y8534620D01*
X50776142Y8534620D01*
X50680904Y8487000D01*
X50633285Y8439381D01*
X50585666Y8344143D01*
X50585666Y8201286D01*
X50633285Y8106048D01*
X50680904Y8058429D01*
X50776142Y8010810D01*
X51157095Y8010810D01*
X49728523Y8534620D02*
X49919000Y8534620D01*
X50014238Y8487000D01*
X50061857Y8439381D01*
X50157095Y8296524D01*
X50204714Y8106048D01*
X50204714Y7725096D01*
X50157095Y7629858D01*
X50109476Y7582239D01*
X50014238Y7534620D01*
X49823761Y7534620D01*
X49728523Y7582239D01*
X49680904Y7629858D01*
X49633285Y7725096D01*
X49633285Y7963191D01*
X49680904Y8058429D01*
X49728523Y8106048D01*
X49823761Y8153667D01*
X50014238Y8153667D01*
X50109476Y8106048D01*
X50157095Y8058429D01*
X50204714Y7963191D01*
%TO.C,C6*%
X50254142Y34837667D02*
X50301761Y34885286D01*
X50349380Y35028143D01*
X50349380Y35123381D01*
X50301761Y35266239D01*
X50206523Y35361477D01*
X50111285Y35409096D01*
X49920809Y35456715D01*
X49777952Y35456715D01*
X49587476Y35409096D01*
X49492238Y35361477D01*
X49397000Y35266239D01*
X49349380Y35123381D01*
X49349380Y35028143D01*
X49397000Y34885286D01*
X49444619Y34837667D01*
X49349380Y33980524D02*
X49349380Y34171000D01*
X49397000Y34266239D01*
X49444619Y34313858D01*
X49587476Y34409096D01*
X49777952Y34456715D01*
X50158904Y34456715D01*
X50254142Y34409096D01*
X50301761Y34361477D01*
X50349380Y34266239D01*
X50349380Y34075762D01*
X50301761Y33980524D01*
X50254142Y33932905D01*
X50158904Y33885286D01*
X49920809Y33885286D01*
X49825571Y33932905D01*
X49777952Y33980524D01*
X49730333Y34075762D01*
X49730333Y34266239D01*
X49777952Y34361477D01*
X49825571Y34409096D01*
X49920809Y34456715D01*
%TO.C,C1*%
X29440142Y41949667D02*
X29487761Y41997286D01*
X29535380Y42140143D01*
X29535380Y42235381D01*
X29487761Y42378239D01*
X29392523Y42473477D01*
X29297285Y42521096D01*
X29106809Y42568715D01*
X28963952Y42568715D01*
X28773476Y42521096D01*
X28678238Y42473477D01*
X28583000Y42378239D01*
X28535380Y42235381D01*
X28535380Y42140143D01*
X28583000Y41997286D01*
X28630619Y41949667D01*
X29535380Y40997286D02*
X29535380Y41568715D01*
X29535380Y41283000D02*
X28535380Y41283000D01*
X28678238Y41378239D01*
X28773476Y41473477D01*
X28821095Y41568715D01*
%TO.C,U4*%
X42831904Y38296620D02*
X42831904Y37487096D01*
X42784285Y37391858D01*
X42736666Y37344239D01*
X42641428Y37296620D01*
X42450952Y37296620D01*
X42355714Y37344239D01*
X42308095Y37391858D01*
X42260476Y37487096D01*
X42260476Y38296620D01*
X41355714Y37963286D02*
X41355714Y37296620D01*
X41593809Y38344239D02*
X41831904Y37629953D01*
X41212857Y37629953D01*
%TO.C,FB1*%
X58110333Y45142429D02*
X58443666Y45142429D01*
X58443666Y44618620D02*
X58443666Y45618620D01*
X57967476Y45618620D01*
X57253190Y45142429D02*
X57110333Y45094810D01*
X57062714Y45047191D01*
X57015095Y44951953D01*
X57015095Y44809096D01*
X57062714Y44713858D01*
X57110333Y44666239D01*
X57205571Y44618620D01*
X57586523Y44618620D01*
X57586523Y45618620D01*
X57253190Y45618620D01*
X57157952Y45571000D01*
X57110333Y45523381D01*
X57062714Y45428143D01*
X57062714Y45332905D01*
X57110333Y45237667D01*
X57157952Y45190048D01*
X57253190Y45142429D01*
X57586523Y45142429D01*
X56062714Y44618620D02*
X56634142Y44618620D01*
X56348428Y44618620D02*
X56348428Y45618620D01*
X56443666Y45475762D01*
X56538904Y45380524D01*
X56634142Y45332905D01*
%TO.C,FB3*%
X58110333Y34982429D02*
X58443666Y34982429D01*
X58443666Y34458620D02*
X58443666Y35458620D01*
X57967476Y35458620D01*
X57253190Y34982429D02*
X57110333Y34934810D01*
X57062714Y34887191D01*
X57015095Y34791953D01*
X57015095Y34649096D01*
X57062714Y34553858D01*
X57110333Y34506239D01*
X57205571Y34458620D01*
X57586523Y34458620D01*
X57586523Y35458620D01*
X57253190Y35458620D01*
X57157952Y35411000D01*
X57110333Y35363381D01*
X57062714Y35268143D01*
X57062714Y35172905D01*
X57110333Y35077667D01*
X57157952Y35030048D01*
X57253190Y34982429D01*
X57586523Y34982429D01*
X56681761Y35458620D02*
X56062714Y35458620D01*
X56396047Y35077667D01*
X56253190Y35077667D01*
X56157952Y35030048D01*
X56110333Y34982429D01*
X56062714Y34887191D01*
X56062714Y34649096D01*
X56110333Y34553858D01*
X56157952Y34506239D01*
X56253190Y34458620D01*
X56538904Y34458620D01*
X56634142Y34506239D01*
X56681761Y34553858D01*
%TO.C,R1*%
X44253380Y15914667D02*
X43777190Y16248000D01*
X44253380Y16486096D02*
X43253380Y16486096D01*
X43253380Y16105143D01*
X43301000Y16009905D01*
X43348619Y15962286D01*
X43443857Y15914667D01*
X43586714Y15914667D01*
X43681952Y15962286D01*
X43729571Y16009905D01*
X43777190Y16105143D01*
X43777190Y16486096D01*
X44253380Y14962286D02*
X44253380Y15533715D01*
X44253380Y15248000D02*
X43253380Y15248000D01*
X43396238Y15343239D01*
X43491476Y15438477D01*
X43539095Y15533715D01*
%TO.C,U5*%
X23361904Y66697620D02*
X23361904Y65888096D01*
X23314285Y65792858D01*
X23266666Y65745239D01*
X23171428Y65697620D01*
X22980952Y65697620D01*
X22885714Y65745239D01*
X22838095Y65792858D01*
X22790476Y65888096D01*
X22790476Y66697620D01*
X21838095Y66697620D02*
X22314285Y66697620D01*
X22361904Y66221429D01*
X22314285Y66269048D01*
X22219047Y66316667D01*
X21980952Y66316667D01*
X21885714Y66269048D01*
X21838095Y66221429D01*
X21790476Y66126191D01*
X21790476Y65888096D01*
X21838095Y65792858D01*
X21885714Y65745239D01*
X21980952Y65697620D01*
X22219047Y65697620D01*
X22314285Y65745239D01*
X22361904Y65792858D01*
%TO.C,R3*%
X44253380Y27471667D02*
X43777190Y27805000D01*
X44253380Y28043096D02*
X43253380Y28043096D01*
X43253380Y27662143D01*
X43301000Y27566905D01*
X43348619Y27519286D01*
X43443857Y27471667D01*
X43586714Y27471667D01*
X43681952Y27519286D01*
X43729571Y27566905D01*
X43777190Y27662143D01*
X43777190Y28043096D01*
X43253380Y27138334D02*
X43253380Y26519286D01*
X43634333Y26852620D01*
X43634333Y26709762D01*
X43681952Y26614524D01*
X43729571Y26566905D01*
X43824809Y26519286D01*
X44062904Y26519286D01*
X44158142Y26566905D01*
X44205761Y26614524D01*
X44253380Y26709762D01*
X44253380Y26995477D01*
X44205761Y27090715D01*
X44158142Y27138334D01*
%TO.C,C3*%
X50508142Y44870667D02*
X50555761Y44918286D01*
X50603380Y45061143D01*
X50603380Y45156381D01*
X50555761Y45299239D01*
X50460523Y45394477D01*
X50365285Y45442096D01*
X50174809Y45489715D01*
X50031952Y45489715D01*
X49841476Y45442096D01*
X49746238Y45394477D01*
X49651000Y45299239D01*
X49603380Y45156381D01*
X49603380Y45061143D01*
X49651000Y44918286D01*
X49698619Y44870667D01*
X49603380Y44537334D02*
X49603380Y43918286D01*
X49984333Y44251620D01*
X49984333Y44108762D01*
X50031952Y44013524D01*
X50079571Y43965905D01*
X50174809Y43918286D01*
X50412904Y43918286D01*
X50508142Y43965905D01*
X50555761Y44013524D01*
X50603380Y44108762D01*
X50603380Y44394477D01*
X50555761Y44489715D01*
X50508142Y44537334D01*
%TO.C,C2*%
X29553142Y30138667D02*
X29600761Y30186286D01*
X29648380Y30329143D01*
X29648380Y30424381D01*
X29600761Y30567239D01*
X29505523Y30662477D01*
X29410285Y30710096D01*
X29219809Y30757715D01*
X29076952Y30757715D01*
X28886476Y30710096D01*
X28791238Y30662477D01*
X28696000Y30567239D01*
X28648380Y30424381D01*
X28648380Y30329143D01*
X28696000Y30186286D01*
X28743619Y30138667D01*
X28743619Y29757715D02*
X28696000Y29710096D01*
X28648380Y29614858D01*
X28648380Y29376762D01*
X28696000Y29281524D01*
X28743619Y29233905D01*
X28838857Y29186286D01*
X28934095Y29186286D01*
X29076952Y29233905D01*
X29648380Y29805334D01*
X29648380Y29186286D01*
%TO.C,U3*%
X42884904Y48583620D02*
X42884904Y47774096D01*
X42837285Y47678858D01*
X42789666Y47631239D01*
X42694428Y47583620D01*
X42503952Y47583620D01*
X42408714Y47631239D01*
X42361095Y47678858D01*
X42313476Y47774096D01*
X42313476Y48583620D01*
X41932523Y48583620D02*
X41313476Y48583620D01*
X41646809Y48202667D01*
X41503952Y48202667D01*
X41408714Y48155048D01*
X41361095Y48107429D01*
X41313476Y48012191D01*
X41313476Y47774096D01*
X41361095Y47678858D01*
X41408714Y47631239D01*
X41503952Y47583620D01*
X41789666Y47583620D01*
X41884904Y47631239D01*
X41932523Y47678858D01*
%TO.C,FB2*%
X58110333Y40062429D02*
X58443666Y40062429D01*
X58443666Y39538620D02*
X58443666Y40538620D01*
X57967476Y40538620D01*
X57253190Y40062429D02*
X57110333Y40014810D01*
X57062714Y39967191D01*
X57015095Y39871953D01*
X57015095Y39729096D01*
X57062714Y39633858D01*
X57110333Y39586239D01*
X57205571Y39538620D01*
X57586523Y39538620D01*
X57586523Y40538620D01*
X57253190Y40538620D01*
X57157952Y40491000D01*
X57110333Y40443381D01*
X57062714Y40348143D01*
X57062714Y40252905D01*
X57110333Y40157667D01*
X57157952Y40110048D01*
X57253190Y40062429D01*
X57586523Y40062429D01*
X56634142Y40443381D02*
X56586523Y40491000D01*
X56491285Y40538620D01*
X56253190Y40538620D01*
X56157952Y40491000D01*
X56110333Y40443381D01*
X56062714Y40348143D01*
X56062714Y40252905D01*
X56110333Y40110048D01*
X56681761Y39538620D01*
X56062714Y39538620D01*
%TO.C,FB4*%
X56277000Y31183000D02*
X58277000Y31183000D01*
X58277000Y33333000D02*
X56277000Y33333000D01*
%TO.C,R4*%
X51419000Y22538000D02*
X49419000Y22538000D01*
X49419000Y20388000D02*
X51419000Y20388000D01*
D11*
%TO.C,U2*%
X40386000Y17816000D02*
X39586000Y17816000D01*
X40386000Y14696000D02*
X39586000Y14696000D01*
X40386000Y14696000D02*
X41186000Y14696000D01*
X40386000Y17816000D02*
X42186000Y17816000D01*
%TO.C,U1*%
X40386000Y28992000D02*
X39586000Y28992000D01*
X40386000Y25872000D02*
X41186000Y25872000D01*
X40386000Y28992000D02*
X42186000Y28992000D01*
X40386000Y25872000D02*
X39586000Y25872000D01*
D10*
%TO.C,R6*%
X49419000Y9212000D02*
X51419000Y9212000D01*
X51419000Y11362000D02*
X49419000Y11362000D01*
%TO.C,C6*%
X53222000Y35671000D02*
X53222000Y33671000D01*
X51172000Y33671000D02*
X51172000Y35671000D01*
%TO.C,C1*%
X30471000Y40783000D02*
X30471000Y42783000D01*
X32521000Y42783000D02*
X32521000Y40783000D01*
D12*
%TO.C,U4*%
X43275000Y36937000D02*
X39275000Y36937000D01*
X43275000Y31897000D02*
X39275000Y31897000D01*
D13*
X45820000Y36912000D02*
G75*
G03*
X45820000Y36912000I-100000J0D01*
G01*
D10*
%TO.C,FB1*%
X56277000Y46296000D02*
X58277000Y46296000D01*
X58277000Y48446000D02*
X56277000Y48446000D01*
%TO.C,FB3*%
X56277000Y36136000D02*
X58277000Y36136000D01*
X58277000Y38286000D02*
X56277000Y38286000D01*
%TO.C,R1*%
X47176000Y14748000D02*
X47176000Y16748000D01*
X45026000Y16748000D02*
X45026000Y14748000D01*
D11*
%TO.C,U5*%
X24910000Y65095000D02*
X26600000Y65095000D01*
X24910000Y65310000D02*
X24910000Y65095000D01*
X24910000Y62490000D02*
X24910000Y62705000D01*
X22600000Y65310000D02*
X24910000Y65310000D01*
X22600000Y62490000D02*
X20290000Y62490000D01*
X20290000Y62490000D02*
X20290000Y62705000D01*
X22600000Y65310000D02*
X20290000Y65310000D01*
X22600000Y62490000D02*
X24910000Y62490000D01*
X20290000Y65310000D02*
X20290000Y65095000D01*
D10*
%TO.C,R3*%
X45026000Y28305000D02*
X45026000Y26305000D01*
X47176000Y26305000D02*
X47176000Y28305000D01*
%TO.C,C3*%
X53476000Y45704000D02*
X53476000Y43704000D01*
X51426000Y43704000D02*
X51426000Y45704000D01*
%TO.C,C2*%
X32521000Y30972000D02*
X32521000Y28972000D01*
X30471000Y28972000D02*
X30471000Y30972000D01*
D12*
%TO.C,U3*%
X43328000Y47224000D02*
X39328000Y47224000D01*
X43328000Y42184000D02*
X39328000Y42184000D01*
D13*
X45873000Y47199000D02*
G75*
G03*
X45873000Y47199000I-100000J0D01*
G01*
D10*
%TO.C,FB2*%
X56277000Y41216000D02*
X58277000Y41216000D01*
X58277000Y43366000D02*
X56277000Y43366000D01*
%TD*%
M02*
