%TF.GenerationSoftware,KiCad,Pcbnew,(6.0.4)*%
%TF.CreationDate,2023-02-01T16:26:22-05:00*%
%TF.ProjectId,BREAD_Slice,42524541-445f-4536-9c69-63652e6b6963,rev?*%
%TF.SameCoordinates,PX74eba40PY8552dc0*%
%TF.FileFunction,Soldermask,Bot*%
%TF.FilePolarity,Negative*%
%FSLAX46Y46*%
G04 Gerber Fmt 4.6, Leading zero omitted, Abs format (unit mm)*
G04 Created by KiCad (PCBNEW (6.0.4)) date 2023-02-01 16:26:22*
%MOMM*%
%LPD*%
G01*
G04 APERTURE LIST*
G04 Aperture macros list*
%AMRoundRect*
0 Rectangle with rounded corners*
0 $1 Rounding radius*
0 $2 $3 $4 $5 $6 $7 $8 $9 X,Y pos of 4 corners*
0 Add a 4 corners polygon primitive as box body*
4,1,4,$2,$3,$4,$5,$6,$7,$8,$9,$2,$3,0*
0 Add four circle primitives for the rounded corners*
1,1,$1+$1,$2,$3*
1,1,$1+$1,$4,$5*
1,1,$1+$1,$6,$7*
1,1,$1+$1,$8,$9*
0 Add four rect primitives between the rounded corners*
20,1,$1+$1,$2,$3,$4,$5,0*
20,1,$1+$1,$4,$5,$6,$7,0*
20,1,$1+$1,$6,$7,$8,$9,0*
20,1,$1+$1,$8,$9,$2,$3,0*%
G04 Aperture macros list end*
%ADD10C,5.700000*%
%ADD11RoundRect,0.050000X-0.800000X-0.800000X0.800000X-0.800000X0.800000X0.800000X-0.800000X0.800000X0*%
%ADD12O,1.700000X1.700000*%
%ADD13RoundRect,0.050000X-0.850000X-0.850000X0.850000X-0.850000X0.850000X0.850000X-0.850000X0.850000X0*%
%ADD14O,1.800000X1.800000*%
%ADD15RoundRect,0.050000X1.250000X-1.250000X1.250000X1.250000X-1.250000X1.250000X-1.250000X-1.250000X0*%
%ADD16C,2.600000*%
%ADD17RoundRect,0.050000X1.270000X-1.270000X1.270000X1.270000X-1.270000X1.270000X-1.270000X-1.270000X0*%
%ADD18C,2.640000*%
%ADD19RoundRect,0.050000X-1.250000X1.250000X-1.250000X-1.250000X1.250000X-1.250000X1.250000X1.250000X0*%
%ADD20RoundRect,0.050000X0.999490X0.999490X-0.999490X0.999490X-0.999490X-0.999490X0.999490X-0.999490X0*%
%ADD21C,2.098980*%
%ADD22C,1.624000*%
%ADD23RoundRect,0.050000X1.150000X1.150000X-1.150000X1.150000X-1.150000X-1.150000X1.150000X-1.150000X0*%
%ADD24C,2.400000*%
%ADD25C,3.600000*%
%ADD26RoundRect,0.050000X-1.000000X-0.850000X1.000000X-0.850000X1.000000X0.850000X-1.000000X0.850000X0*%
%ADD27RoundRect,0.200000X0.512500X0.150000X-0.512500X0.150000X-0.512500X-0.150000X0.512500X-0.150000X0*%
%ADD28RoundRect,0.050000X-0.800000X1.000000X-0.800000X-1.000000X0.800000X-1.000000X0.800000X1.000000X0*%
%ADD29RoundRect,0.050000X0.800000X-1.000000X0.800000X1.000000X-0.800000X1.000000X-0.800000X-1.000000X0*%
%ADD30RoundRect,0.091300X0.943700X0.253700X-0.943700X0.253700X-0.943700X-0.253700X0.943700X-0.253700X0*%
%ADD31RoundRect,0.050000X-0.850000X1.000000X-0.850000X-1.000000X0.850000X-1.000000X0.850000X1.000000X0*%
%ADD32RoundRect,0.200000X0.662500X0.150000X-0.662500X0.150000X-0.662500X-0.150000X0.662500X-0.150000X0*%
G04 APERTURE END LIST*
D10*
%TO.C,H1*%
X5000000Y95000000D03*
%TD*%
%TO.C,H2*%
X65000000Y95000000D03*
%TD*%
%TO.C,H3*%
X5000000Y5000000D03*
%TD*%
%TO.C,H4*%
X65000000Y5000000D03*
%TD*%
D11*
%TO.C,A1*%
X12400000Y39800000D03*
D12*
X12400000Y37260000D03*
X12400000Y34720000D03*
X12400000Y32180000D03*
X12400000Y29640000D03*
X12400000Y27100000D03*
X12400000Y24560000D03*
X12400000Y22020000D03*
X12400000Y19480000D03*
X12400000Y16940000D03*
X12400000Y14400000D03*
X12400000Y11860000D03*
X12400000Y9320000D03*
X12400000Y6780000D03*
X12400000Y4240000D03*
X27640000Y4240000D03*
X27640000Y6780000D03*
X27640000Y9320000D03*
X27640000Y11860000D03*
X27640000Y14400000D03*
X27640000Y16940000D03*
X27640000Y19480000D03*
X27640000Y22020000D03*
X27640000Y24560000D03*
X27640000Y27100000D03*
X27640000Y29640000D03*
X27640000Y32180000D03*
X27640000Y34720000D03*
X27640000Y37260000D03*
X27640000Y39800000D03*
%TD*%
D13*
%TO.C,J1*%
X7000000Y61000000D03*
D14*
X7000000Y58460000D03*
X7000000Y55920000D03*
X7000000Y53380000D03*
X7000000Y50840000D03*
X7000000Y48300000D03*
X7000000Y45760000D03*
X7000000Y43220000D03*
X7000000Y40680000D03*
X7000000Y38140000D03*
%TD*%
D15*
%TO.C,J2*%
X63673000Y21757000D03*
D16*
X63673000Y26757000D03*
%TD*%
D15*
%TO.C,J3*%
X63673000Y11343000D03*
D16*
X63673000Y16343000D03*
%TD*%
D17*
%TO.C,D3*%
X13208000Y85090000D03*
D18*
X13208000Y69850000D03*
%TD*%
D19*
%TO.C,J5*%
X63500000Y84582000D03*
D16*
X63500000Y79582000D03*
%TD*%
D15*
%TO.C,J8*%
X63673000Y32131000D03*
D16*
X63673000Y37131000D03*
%TD*%
D20*
%TO.C,D2*%
X45466000Y10287000D03*
D21*
X55626000Y10287000D03*
%TD*%
D15*
%TO.C,J7*%
X63673000Y42458000D03*
D16*
X63673000Y47458000D03*
%TD*%
D22*
%TO.C,RV2*%
X41529000Y11684000D03*
X38989000Y11684000D03*
X36449000Y11684000D03*
%TD*%
D19*
%TO.C,J4*%
X63454000Y74001000D03*
D16*
X63454000Y69001000D03*
%TD*%
D20*
%TO.C,D1*%
X45339000Y21336000D03*
D21*
X55499000Y21336000D03*
%TD*%
D22*
%TO.C,RV1*%
X41275000Y22225000D03*
X38735000Y22225000D03*
X36195000Y22225000D03*
%TD*%
D23*
%TO.C,K1*%
X21605000Y74940000D03*
D24*
X31765000Y74940000D03*
X39385000Y74940000D03*
X36845000Y82560000D03*
X21605000Y82560000D03*
%TD*%
D25*
%TO.C,F1*%
X51643000Y79564000D03*
X51643000Y74484000D03*
X51643000Y83624000D03*
X51643000Y88704000D03*
%TD*%
D26*
%TO.C,FB4*%
X55277000Y32258000D03*
X59277000Y32258000D03*
%TD*%
%TO.C,R4*%
X48419000Y21463000D03*
X52419000Y21463000D03*
%TD*%
D27*
%TO.C,U2*%
X41523500Y17206000D03*
X41523500Y16256000D03*
X41523500Y15306000D03*
X39248500Y15306000D03*
X39248500Y17206000D03*
%TD*%
%TO.C,U1*%
X41523500Y28382000D03*
X41523500Y27432000D03*
X41523500Y26482000D03*
X39248500Y26482000D03*
X39248500Y28382000D03*
%TD*%
D26*
%TO.C,R6*%
X48419000Y10287000D03*
X52419000Y10287000D03*
%TD*%
D28*
%TO.C,C6*%
X52197000Y36671000D03*
X52197000Y32671000D03*
%TD*%
D29*
%TO.C,C1*%
X31496000Y39783000D03*
X31496000Y43783000D03*
%TD*%
D30*
%TO.C,U4*%
X43750000Y36322000D03*
X43750000Y35052000D03*
X43750000Y33782000D03*
X43750000Y32512000D03*
X38800000Y32512000D03*
X38800000Y33782000D03*
X38800000Y35052000D03*
X38800000Y36322000D03*
%TD*%
D26*
%TO.C,FB1*%
X55277000Y47371000D03*
X59277000Y47371000D03*
%TD*%
%TO.C,FB3*%
X55277000Y37211000D03*
X59277000Y37211000D03*
%TD*%
D31*
%TO.C,R1*%
X46101000Y17748000D03*
X46101000Y13748000D03*
%TD*%
D32*
%TO.C,U5*%
X25787500Y64535000D03*
X25787500Y63265000D03*
X19412500Y63265000D03*
X19412500Y64535000D03*
%TD*%
D31*
%TO.C,R3*%
X46101000Y29305000D03*
X46101000Y25305000D03*
%TD*%
D28*
%TO.C,C3*%
X52451000Y46704000D03*
X52451000Y42704000D03*
%TD*%
%TO.C,C2*%
X31496000Y31972000D03*
X31496000Y27972000D03*
%TD*%
D30*
%TO.C,U3*%
X43803000Y46609000D03*
X43803000Y45339000D03*
X43803000Y44069000D03*
X43803000Y42799000D03*
X38853000Y42799000D03*
X38853000Y44069000D03*
X38853000Y45339000D03*
X38853000Y46609000D03*
%TD*%
D26*
%TO.C,FB2*%
X55277000Y42291000D03*
X59277000Y42291000D03*
%TD*%
M02*
