%TF.GenerationSoftware,KiCad,Pcbnew,(6.0.4)*%
%TF.CreationDate,2023-02-01T16:26:21-05:00*%
%TF.ProjectId,BREAD_Slice,42524541-445f-4536-9c69-63652e6b6963,rev?*%
%TF.SameCoordinates,PX74eba40PY8552dc0*%
%TF.FileFunction,Copper,L1,Top*%
%TF.FilePolarity,Positive*%
%FSLAX46Y46*%
G04 Gerber Fmt 4.6, Leading zero omitted, Abs format (unit mm)*
G04 Created by KiCad (PCBNEW (6.0.4)) date 2023-02-01 16:26:21*
%MOMM*%
%LPD*%
G01*
G04 APERTURE LIST*
%TA.AperFunction,ComponentPad*%
%ADD10C,5.600000*%
%TD*%
%TA.AperFunction,ComponentPad*%
%ADD11R,1.600000X1.600000*%
%TD*%
%TA.AperFunction,ComponentPad*%
%ADD12O,1.600000X1.600000*%
%TD*%
%TA.AperFunction,ComponentPad*%
%ADD13R,1.700000X1.700000*%
%TD*%
%TA.AperFunction,ComponentPad*%
%ADD14O,1.700000X1.700000*%
%TD*%
%TA.AperFunction,ComponentPad*%
%ADD15R,2.500000X2.500000*%
%TD*%
%TA.AperFunction,ComponentPad*%
%ADD16C,2.500000*%
%TD*%
%TA.AperFunction,ComponentPad*%
%ADD17R,2.540000X2.540000*%
%TD*%
%TA.AperFunction,ComponentPad*%
%ADD18C,2.540000*%
%TD*%
%TA.AperFunction,ComponentPad*%
%ADD19R,1.998980X1.998980*%
%TD*%
%TA.AperFunction,ComponentPad*%
%ADD20C,1.998980*%
%TD*%
%TA.AperFunction,ComponentPad*%
%ADD21C,1.524000*%
%TD*%
%TA.AperFunction,ComponentPad*%
%ADD22R,2.300000X2.300000*%
%TD*%
%TA.AperFunction,ComponentPad*%
%ADD23C,2.300000*%
%TD*%
%TA.AperFunction,ComponentPad*%
%ADD24C,3.500000*%
%TD*%
%TA.AperFunction,ViaPad*%
%ADD25C,0.500000*%
%TD*%
%TA.AperFunction,Conductor*%
%ADD26C,0.500000*%
%TD*%
%TA.AperFunction,Conductor*%
%ADD27C,1.500000*%
%TD*%
G04 APERTURE END LIST*
D10*
%TO.P,H1,1*%
%TO.N,N/C*%
X5000000Y95000000D03*
%TD*%
%TO.P,H2,1*%
%TO.N,N/C*%
X65000000Y95000000D03*
%TD*%
%TO.P,H3,1*%
%TO.N,N/C*%
X5000000Y5000000D03*
%TD*%
%TO.P,H4,1*%
%TO.N,N/C*%
X65000000Y5000000D03*
%TD*%
D11*
%TO.P,A1,1,D1/TX*%
%TO.N,unconnected-(A1-Pad1)*%
X12400000Y39800000D03*
D12*
%TO.P,A1,2,D0/RX*%
%TO.N,unconnected-(A1-Pad2)*%
X12400000Y37260000D03*
%TO.P,A1,3,~{RESET}*%
%TO.N,unconnected-(A1-Pad3)*%
X12400000Y34720000D03*
%TO.P,A1,4,GND*%
%TO.N,GND*%
X12400000Y32180000D03*
%TO.P,A1,5,D2*%
%TO.N,/E_STOP*%
X12400000Y29640000D03*
%TO.P,A1,6,D3*%
%TO.N,/INT*%
X12400000Y27100000D03*
%TO.P,A1,7,D4*%
%TO.N,/SYNC*%
X12400000Y24560000D03*
%TO.P,A1,8,D5*%
%TO.N,unconnected-(A1-Pad8)*%
X12400000Y22020000D03*
%TO.P,A1,9,D6*%
%TO.N,/PWM*%
X12400000Y19480000D03*
%TO.P,A1,10,D7*%
%TO.N,unconnected-(A1-Pad10)*%
X12400000Y16940000D03*
%TO.P,A1,11,D8*%
%TO.N,unconnected-(A1-Pad11)*%
X12400000Y14400000D03*
%TO.P,A1,12,D9*%
%TO.N,unconnected-(A1-Pad12)*%
X12400000Y11860000D03*
%TO.P,A1,13,D10*%
%TO.N,/SS1*%
X12400000Y9320000D03*
%TO.P,A1,14,D11*%
%TO.N,/SS2*%
X12400000Y6780000D03*
%TO.P,A1,15,D12*%
%TO.N,/DATA*%
X12400000Y4240000D03*
%TO.P,A1,16,D13*%
%TO.N,/CLK*%
X27640000Y4240000D03*
%TO.P,A1,17,3V3*%
%TO.N,unconnected-(A1-Pad17)*%
X27640000Y6780000D03*
%TO.P,A1,18,AREF*%
%TO.N,unconnected-(A1-Pad18)*%
X27640000Y9320000D03*
%TO.P,A1,19,A0*%
%TO.N,/TMSTR2*%
X27640000Y11860000D03*
%TO.P,A1,20,A1*%
%TO.N,/TMSTR1*%
X27640000Y14400000D03*
%TO.P,A1,21,A2*%
%TO.N,unconnected-(A1-Pad21)*%
X27640000Y16940000D03*
%TO.P,A1,22,A3*%
%TO.N,unconnected-(A1-Pad22)*%
X27640000Y19480000D03*
%TO.P,A1,23,A4*%
%TO.N,/I2C_DAT*%
X27640000Y22020000D03*
%TO.P,A1,24,A5*%
%TO.N,/I2C_CLK*%
X27640000Y24560000D03*
%TO.P,A1,25,A6*%
%TO.N,unconnected-(A1-Pad25)*%
X27640000Y27100000D03*
%TO.P,A1,26,A7*%
%TO.N,unconnected-(A1-Pad26)*%
X27640000Y29640000D03*
%TO.P,A1,27,+5V*%
%TO.N,+5V*%
X27640000Y32180000D03*
%TO.P,A1,28,~{RESET}*%
%TO.N,unconnected-(A1-Pad28)*%
X27640000Y34720000D03*
%TO.P,A1,29,GND*%
%TO.N,GND*%
X27640000Y37260000D03*
%TO.P,A1,30,VIN*%
%TO.N,+12V*%
X27640000Y39800000D03*
%TD*%
D13*
%TO.P,J1,1,Pin_1*%
%TO.N,GND*%
X7000000Y61000000D03*
D14*
%TO.P,J1,2,Pin_2*%
%TO.N,+12V*%
X7000000Y58460000D03*
%TO.P,J1,3,Pin_3*%
%TO.N,/I2C_CLK*%
X7000000Y55920000D03*
%TO.P,J1,4,Pin_4*%
%TO.N,/I2C_DAT*%
X7000000Y53380000D03*
%TO.P,J1,5,Pin_5*%
%TO.N,GND*%
X7000000Y50840000D03*
%TO.P,J1,6,Pin_6*%
%TO.N,/E_STOP*%
X7000000Y48300000D03*
%TO.P,J1,7,Pin_7*%
%TO.N,/INT*%
X7000000Y45760000D03*
%TO.P,J1,8,Pin_8*%
%TO.N,/SYNC*%
X7000000Y43220000D03*
%TO.P,J1,9,Pin_9*%
%TO.N,+12V*%
X7000000Y40680000D03*
%TO.P,J1,10,Pin_10*%
%TO.N,GND*%
X7000000Y38140000D03*
%TD*%
D15*
%TO.P,J2,1*%
%TO.N,GND*%
X63673000Y21757000D03*
D16*
%TO.P,J2,2*%
%TO.N,Net-(J2-Pad2)*%
X63673000Y26757000D03*
%TD*%
D15*
%TO.P,J3,1*%
%TO.N,GND*%
X63673000Y11343000D03*
D16*
%TO.P,J3,2*%
%TO.N,Net-(J3-Pad2)*%
X63673000Y16343000D03*
%TD*%
D17*
%TO.P,D3,1,K*%
%TO.N,Net-(D3-Pad1)*%
X13208000Y85090000D03*
D18*
%TO.P,D3,2,A*%
%TO.N,Net-(K1-Pad1)*%
X13208000Y69850000D03*
%TD*%
D15*
%TO.P,J5,1*%
%TO.N,Net-(J5-Pad1)*%
X63500000Y84582000D03*
D16*
%TO.P,J5,2*%
%TO.N,Net-(J5-Pad2)*%
X63500000Y79582000D03*
%TD*%
D15*
%TO.P,J8,1*%
%TO.N,Net-(FB4-Pad2)*%
X63673000Y32131000D03*
D16*
%TO.P,J8,2*%
%TO.N,Net-(FB3-Pad2)*%
X63673000Y37131000D03*
%TD*%
D19*
%TO.P,D2,1,K*%
%TO.N,/TMSTR2*%
X45466000Y10287000D03*
D20*
%TO.P,D2,2,A*%
%TO.N,GND*%
X55626000Y10287000D03*
%TD*%
D15*
%TO.P,J7,1*%
%TO.N,Net-(FB2-Pad2)*%
X63673000Y42458000D03*
D16*
%TO.P,J7,2*%
%TO.N,Net-(FB1-Pad2)*%
X63673000Y47458000D03*
%TD*%
D21*
%TO.P,RV2,1,1*%
%TO.N,Net-(R6-Pad1)*%
X41529000Y11684000D03*
%TO.P,RV2,2,2*%
%TO.N,/TMSTR2*%
X38989000Y11684000D03*
%TO.P,RV2,3,3*%
%TO.N,unconnected-(RV2-Pad3)*%
X36449000Y11684000D03*
%TD*%
D15*
%TO.P,J4,1*%
%TO.N,Net-(J4-Pad1)*%
X63454000Y74001000D03*
D16*
%TO.P,J4,2*%
%TO.N,GND*%
X63454000Y69001000D03*
%TD*%
D19*
%TO.P,D1,1,K*%
%TO.N,/TMSTR1*%
X45339000Y21336000D03*
D20*
%TO.P,D1,2,A*%
%TO.N,GND*%
X55499000Y21336000D03*
%TD*%
D21*
%TO.P,RV1,1,1*%
%TO.N,Net-(R4-Pad1)*%
X41275000Y22225000D03*
%TO.P,RV1,2,2*%
%TO.N,/TMSTR1*%
X38735000Y22225000D03*
%TO.P,RV1,3,3*%
%TO.N,unconnected-(RV1-Pad3)*%
X36195000Y22225000D03*
%TD*%
D22*
%TO.P,K1,1*%
%TO.N,Net-(K1-Pad1)*%
X21605000Y74940000D03*
D23*
%TO.P,K1,2*%
%TO.N,Net-(J4-Pad1)*%
X31765000Y74940000D03*
%TO.P,K1,3*%
%TO.N,Net-(J5-Pad2)*%
X39385000Y74940000D03*
%TO.P,K1,4*%
%TO.N,Net-(J5-Pad1)*%
X36845000Y82560000D03*
%TO.P,K1,5*%
%TO.N,Net-(D3-Pad1)*%
X21605000Y82560000D03*
%TD*%
D24*
%TO.P,F1,1*%
%TO.N,Net-(D3-Pad1)*%
X51643000Y79564000D03*
X51643000Y74484000D03*
%TO.P,F1,2*%
%TO.N,+12V*%
X51643000Y83624000D03*
X51643000Y88704000D03*
%TD*%
D25*
%TO.N,GND*%
X35687000Y26670000D03*
X46101000Y36195000D03*
X47371000Y46355000D03*
X37084000Y18796000D03*
%TO.N,+5V*%
X41910000Y40640000D03*
X37084000Y17145000D03*
X37592000Y28321000D03*
X43688000Y30734000D03*
%TO.N,+12V*%
X31369000Y36830000D03*
X12700000Y58420000D03*
%TO.N,/CLK*%
X36195000Y40513000D03*
X36449000Y33655000D03*
%TO.N,Net-(J5-Pad1)*%
X58547000Y91313000D03*
X44323000Y92837000D03*
%TD*%
D26*
%TO.N,GND*%
X34036000Y25019000D02*
X34036000Y21844000D01*
X47371000Y37465000D02*
X46101000Y36195000D01*
X34036000Y21844000D02*
X37084000Y18796000D01*
X35687000Y26670000D02*
X34036000Y25019000D01*
X47371000Y46355000D02*
X47371000Y37465000D01*
%TO.N,+5V*%
X43688000Y30734000D02*
X41910000Y32512000D01*
X41910000Y32512000D02*
X41910000Y40640000D01*
%TO.N,/I2C_CLK*%
X22733000Y47498000D02*
X14311000Y55920000D01*
X27640000Y24560000D02*
X22733000Y29467000D01*
X22733000Y29467000D02*
X22733000Y47498000D01*
X14311000Y55920000D02*
X7000000Y55920000D01*
%TO.N,/I2C_DAT*%
X19558000Y30102000D02*
X27640000Y22020000D01*
X13168000Y53380000D02*
X19558000Y46990000D01*
X7000000Y53380000D02*
X13168000Y53380000D01*
X19558000Y46990000D02*
X19558000Y30102000D01*
D27*
%TO.N,+12V*%
X31369000Y36830000D02*
X31369000Y42131000D01*
X15080000Y58420000D02*
X12700000Y58420000D01*
X31369000Y42131000D02*
X15080000Y58420000D01*
D26*
%TO.N,/CLK*%
X36195000Y40513000D02*
X36195000Y33909000D01*
X35941000Y33147000D02*
X36195000Y33401000D01*
X35941000Y33147000D02*
X30353000Y27559000D01*
X29640000Y4240000D02*
X27640000Y4240000D01*
X30353000Y4953000D02*
X29640000Y4240000D01*
X30353000Y27559000D02*
X30353000Y4953000D01*
X36195000Y33401000D02*
X36195000Y33909000D01*
X36449000Y33655000D02*
X35941000Y33147000D01*
X36195000Y33909000D02*
X36449000Y33655000D01*
%TO.N,Net-(K1-Pad1)*%
X13250000Y69850000D02*
X13208000Y69850000D01*
D27*
%TO.N,Net-(J5-Pad1)*%
X57023000Y92837000D02*
X58547000Y91313000D01*
X44323000Y92837000D02*
X57023000Y92837000D01*
%TD*%
%TA.AperFunction,Conductor*%
%TO.N,+5V*%
G36*
X68522121Y49890998D02*
G01*
X68568614Y49837342D01*
X68580000Y49785000D01*
X68580000Y2337245D01*
X68559998Y2269124D01*
X68553963Y2260542D01*
X68444032Y2117275D01*
X68436980Y2108871D01*
X68323069Y1984560D01*
X68179686Y1828086D01*
X68171914Y1820314D01*
X67891137Y1563028D01*
X67882716Y1555962D01*
X67580578Y1324124D01*
X67571582Y1317825D01*
X67527485Y1289732D01*
X67459787Y1270000D01*
X24510000Y1270000D01*
X24441879Y1290002D01*
X24395386Y1343658D01*
X24384000Y1396000D01*
X24384000Y23899129D01*
X24404002Y23967250D01*
X24457658Y24013743D01*
X24527932Y24023847D01*
X24592512Y23994353D01*
X24599095Y23988224D01*
X26304329Y22282990D01*
X26338355Y22220678D01*
X26340755Y22182913D01*
X26326502Y22020000D01*
X26346457Y21791913D01*
X26347881Y21786600D01*
X26347881Y21786598D01*
X26399941Y21592311D01*
X26405716Y21570757D01*
X26408039Y21565776D01*
X26408039Y21565775D01*
X26500151Y21368238D01*
X26500154Y21368233D01*
X26502477Y21363251D01*
X26633802Y21175700D01*
X26795700Y21013802D01*
X26800208Y21010645D01*
X26800211Y21010643D01*
X26875746Y20957753D01*
X26983251Y20882477D01*
X26988233Y20880154D01*
X26988238Y20880151D01*
X27022457Y20864195D01*
X27075742Y20817278D01*
X27095203Y20749001D01*
X27074661Y20681041D01*
X27022457Y20635805D01*
X26988238Y20619849D01*
X26988233Y20619846D01*
X26983251Y20617523D01*
X26878389Y20544098D01*
X26800211Y20489357D01*
X26800208Y20489355D01*
X26795700Y20486198D01*
X26633802Y20324300D01*
X26630645Y20319792D01*
X26630643Y20319789D01*
X26606269Y20284979D01*
X26502477Y20136749D01*
X26500154Y20131767D01*
X26500151Y20131762D01*
X26429584Y19980429D01*
X26405716Y19929243D01*
X26404294Y19923935D01*
X26404293Y19923933D01*
X26377445Y19823735D01*
X26346457Y19708087D01*
X26326502Y19480000D01*
X26346457Y19251913D01*
X26347881Y19246600D01*
X26347881Y19246598D01*
X26381537Y19120995D01*
X26405716Y19030757D01*
X26408039Y19025776D01*
X26408039Y19025775D01*
X26500151Y18828238D01*
X26500154Y18828233D01*
X26502477Y18823251D01*
X26633802Y18635700D01*
X26795700Y18473802D01*
X26800208Y18470645D01*
X26800211Y18470643D01*
X26843090Y18440619D01*
X26983251Y18342477D01*
X26988233Y18340154D01*
X26988238Y18340151D01*
X27022457Y18324195D01*
X27075742Y18277278D01*
X27095203Y18209001D01*
X27074661Y18141041D01*
X27022457Y18095805D01*
X26988238Y18079849D01*
X26988233Y18079846D01*
X26983251Y18077523D01*
X26919477Y18032868D01*
X26800211Y17949357D01*
X26800208Y17949355D01*
X26795700Y17946198D01*
X26633802Y17784300D01*
X26630645Y17779792D01*
X26630643Y17779789D01*
X26604200Y17742024D01*
X26502477Y17596749D01*
X26500154Y17591767D01*
X26500151Y17591762D01*
X26487387Y17564389D01*
X26405716Y17389243D01*
X26346457Y17168087D01*
X26326502Y16940000D01*
X26346457Y16711913D01*
X26347881Y16706600D01*
X26347881Y16706598D01*
X26375466Y16603652D01*
X26405716Y16490757D01*
X26408039Y16485776D01*
X26408039Y16485775D01*
X26500151Y16288238D01*
X26500154Y16288233D01*
X26502477Y16283251D01*
X26633802Y16095700D01*
X26795700Y15933802D01*
X26800208Y15930645D01*
X26800211Y15930643D01*
X26877787Y15876324D01*
X26983251Y15802477D01*
X26988233Y15800154D01*
X26988238Y15800151D01*
X27022457Y15784195D01*
X27075742Y15737278D01*
X27095203Y15669001D01*
X27074661Y15601041D01*
X27022457Y15555805D01*
X26988238Y15539849D01*
X26988233Y15539846D01*
X26983251Y15537523D01*
X26878389Y15464098D01*
X26800211Y15409357D01*
X26800208Y15409355D01*
X26795700Y15406198D01*
X26633802Y15244300D01*
X26502477Y15056749D01*
X26500154Y15051767D01*
X26500151Y15051762D01*
X26438418Y14919374D01*
X26405716Y14849243D01*
X26404294Y14843935D01*
X26404293Y14843933D01*
X26349970Y14641198D01*
X26346457Y14628087D01*
X26326502Y14400000D01*
X26346457Y14171913D01*
X26405716Y13950757D01*
X26408039Y13945776D01*
X26408039Y13945775D01*
X26500151Y13748238D01*
X26500154Y13748233D01*
X26502477Y13743251D01*
X26633802Y13555700D01*
X26795700Y13393802D01*
X26800208Y13390645D01*
X26800211Y13390643D01*
X26878389Y13335902D01*
X26983251Y13262477D01*
X26988233Y13260154D01*
X26988238Y13260151D01*
X27022457Y13244195D01*
X27075742Y13197278D01*
X27095203Y13129001D01*
X27074661Y13061041D01*
X27022457Y13015805D01*
X26988238Y12999849D01*
X26988233Y12999846D01*
X26983251Y12997523D01*
X26899035Y12938554D01*
X26800211Y12869357D01*
X26800208Y12869355D01*
X26795700Y12866198D01*
X26633802Y12704300D01*
X26630645Y12699792D01*
X26630643Y12699789D01*
X26587180Y12637717D01*
X26502477Y12516749D01*
X26500154Y12511767D01*
X26500151Y12511762D01*
X26409188Y12316689D01*
X26405716Y12309243D01*
X26404294Y12303935D01*
X26404293Y12303933D01*
X26353638Y12114886D01*
X26346457Y12088087D01*
X26326502Y11860000D01*
X26346457Y11631913D01*
X26347881Y11626600D01*
X26347881Y11626598D01*
X26378920Y11510762D01*
X26405716Y11410757D01*
X26408039Y11405776D01*
X26408039Y11405775D01*
X26500151Y11208238D01*
X26500154Y11208233D01*
X26502477Y11203251D01*
X26633802Y11015700D01*
X26795700Y10853802D01*
X26800208Y10850645D01*
X26800211Y10850643D01*
X26878389Y10795902D01*
X26983251Y10722477D01*
X26988233Y10720154D01*
X26988238Y10720151D01*
X27022457Y10704195D01*
X27075742Y10657278D01*
X27095203Y10589001D01*
X27074661Y10521041D01*
X27022457Y10475805D01*
X26988238Y10459849D01*
X26988233Y10459846D01*
X26983251Y10457523D01*
X26914133Y10409126D01*
X26800211Y10329357D01*
X26800208Y10329355D01*
X26795700Y10326198D01*
X26633802Y10164300D01*
X26502477Y9976749D01*
X26500154Y9971767D01*
X26500151Y9971762D01*
X26438295Y9839109D01*
X26405716Y9769243D01*
X26346457Y9548087D01*
X26326502Y9320000D01*
X26346457Y9091913D01*
X26347881Y9086600D01*
X26347881Y9086598D01*
X26392825Y8918868D01*
X26405716Y8870757D01*
X26408039Y8865776D01*
X26408039Y8865775D01*
X26500151Y8668238D01*
X26500154Y8668233D01*
X26502477Y8663251D01*
X26633802Y8475700D01*
X26795700Y8313802D01*
X26800208Y8310645D01*
X26800211Y8310643D01*
X26803710Y8308193D01*
X26983251Y8182477D01*
X26988233Y8180154D01*
X26988238Y8180151D01*
X27022457Y8164195D01*
X27075742Y8117278D01*
X27095203Y8049001D01*
X27074661Y7981041D01*
X27022457Y7935805D01*
X26988238Y7919849D01*
X26988233Y7919846D01*
X26983251Y7917523D01*
X26878389Y7844098D01*
X26800211Y7789357D01*
X26800208Y7789355D01*
X26795700Y7786198D01*
X26633802Y7624300D01*
X26502477Y7436749D01*
X26500154Y7431767D01*
X26500151Y7431762D01*
X26430487Y7282365D01*
X26405716Y7229243D01*
X26404294Y7223935D01*
X26404293Y7223933D01*
X26347881Y7013402D01*
X26346457Y7008087D01*
X26326502Y6780000D01*
X26346457Y6551913D01*
X26347881Y6546600D01*
X26347881Y6546598D01*
X26389089Y6392811D01*
X26405716Y6330757D01*
X26408039Y6325776D01*
X26408039Y6325775D01*
X26500151Y6128238D01*
X26500154Y6128233D01*
X26502477Y6123251D01*
X26633802Y5935700D01*
X26795700Y5773802D01*
X26800208Y5770645D01*
X26800211Y5770643D01*
X26863875Y5726065D01*
X26983251Y5642477D01*
X26988233Y5640154D01*
X26988238Y5640151D01*
X27022457Y5624195D01*
X27075742Y5577278D01*
X27095203Y5509001D01*
X27074661Y5441041D01*
X27022457Y5395805D01*
X26988238Y5379849D01*
X26988233Y5379846D01*
X26983251Y5377523D01*
X26950284Y5354439D01*
X26800211Y5249357D01*
X26800208Y5249355D01*
X26795700Y5246198D01*
X26633802Y5084300D01*
X26502477Y4896749D01*
X26500154Y4891767D01*
X26500151Y4891762D01*
X26410526Y4699559D01*
X26405716Y4689243D01*
X26404294Y4683935D01*
X26404293Y4683933D01*
X26365954Y4540850D01*
X26346457Y4468087D01*
X26326502Y4240000D01*
X26346457Y4011913D01*
X26405716Y3790757D01*
X26408039Y3785776D01*
X26408039Y3785775D01*
X26500151Y3588238D01*
X26500154Y3588233D01*
X26502477Y3583251D01*
X26633802Y3395700D01*
X26795700Y3233802D01*
X26800208Y3230645D01*
X26800211Y3230643D01*
X26829887Y3209864D01*
X26983251Y3102477D01*
X26988233Y3100154D01*
X26988238Y3100151D01*
X27184130Y3008806D01*
X27190757Y3005716D01*
X27196065Y3004294D01*
X27196067Y3004293D01*
X27406598Y2947881D01*
X27406600Y2947881D01*
X27411913Y2946457D01*
X27640000Y2926502D01*
X27868087Y2946457D01*
X27873400Y2947881D01*
X27873402Y2947881D01*
X28083933Y3004293D01*
X28083935Y3004294D01*
X28089243Y3005716D01*
X28095870Y3008806D01*
X28291762Y3100151D01*
X28291767Y3100154D01*
X28296749Y3102477D01*
X28450113Y3209864D01*
X28479789Y3230643D01*
X28479792Y3230645D01*
X28484300Y3233802D01*
X28646198Y3395700D01*
X28668655Y3427771D01*
X28724110Y3472099D01*
X28771867Y3481500D01*
X29572930Y3481500D01*
X29591880Y3480067D01*
X29606115Y3477901D01*
X29606119Y3477901D01*
X29613349Y3476801D01*
X29620641Y3477394D01*
X29620644Y3477394D01*
X29666018Y3481085D01*
X29676233Y3481500D01*
X29684293Y3481500D01*
X29697583Y3483049D01*
X29712507Y3484789D01*
X29716882Y3485222D01*
X29782339Y3490546D01*
X29782342Y3490547D01*
X29789637Y3491140D01*
X29796601Y3493396D01*
X29802560Y3494587D01*
X29808415Y3495971D01*
X29815681Y3496818D01*
X29884327Y3521735D01*
X29888455Y3523152D01*
X29950936Y3543393D01*
X29950938Y3543394D01*
X29957899Y3545649D01*
X29964154Y3549445D01*
X29969628Y3551951D01*
X29975058Y3554670D01*
X29981937Y3557167D01*
X30014846Y3578743D01*
X30042976Y3597186D01*
X30046680Y3599523D01*
X30109107Y3637405D01*
X30117484Y3644803D01*
X30117508Y3644776D01*
X30120500Y3647429D01*
X30123733Y3650132D01*
X30129852Y3654144D01*
X30183128Y3710383D01*
X30185506Y3712825D01*
X30841911Y4369230D01*
X30856323Y4381616D01*
X30867918Y4390149D01*
X30867923Y4390154D01*
X30873818Y4394492D01*
X30878557Y4400070D01*
X30878560Y4400073D01*
X30908035Y4434768D01*
X30914965Y4442284D01*
X30920660Y4447979D01*
X30932233Y4462607D01*
X30938281Y4470251D01*
X30941072Y4473655D01*
X30983591Y4523703D01*
X30983592Y4523705D01*
X30988333Y4529285D01*
X30991661Y4535801D01*
X30995028Y4540850D01*
X30998195Y4545979D01*
X31002734Y4551716D01*
X31033655Y4617875D01*
X31035561Y4621775D01*
X31068769Y4686808D01*
X31070508Y4693916D01*
X31072607Y4699559D01*
X31074524Y4705322D01*
X31077622Y4711950D01*
X31092487Y4783417D01*
X31093457Y4787701D01*
X31109473Y4853155D01*
X31110808Y4858610D01*
X31111500Y4869764D01*
X31111536Y4869762D01*
X31111775Y4873755D01*
X31112149Y4877947D01*
X31113640Y4885115D01*
X31111546Y4962521D01*
X31111500Y4965928D01*
X31111500Y5011566D01*
X61686661Y5011566D01*
X61704792Y4653660D01*
X61705329Y4650305D01*
X61705330Y4650299D01*
X61738152Y4445383D01*
X61761470Y4299805D01*
X61856033Y3954141D01*
X61987374Y3620712D01*
X62007041Y3583251D01*
X62103141Y3400209D01*
X62153957Y3303418D01*
X62155858Y3300589D01*
X62155864Y3300579D01*
X62290547Y3100151D01*
X62353834Y3005971D01*
X62584665Y2731850D01*
X62843751Y2484262D01*
X63128061Y2266103D01*
X63160056Y2246650D01*
X63431355Y2081697D01*
X63431360Y2081694D01*
X63434270Y2079925D01*
X63437358Y2078479D01*
X63437357Y2078479D01*
X63755710Y1929351D01*
X63755720Y1929347D01*
X63758794Y1927907D01*
X63762012Y1926805D01*
X63762015Y1926804D01*
X64094615Y1812929D01*
X64094623Y1812927D01*
X64097838Y1811826D01*
X64447435Y1733041D01*
X64499728Y1727083D01*
X64800114Y1692858D01*
X64800122Y1692858D01*
X64803497Y1692473D01*
X64806901Y1692455D01*
X64806904Y1692455D01*
X65001227Y1691438D01*
X65161857Y1690597D01*
X65165243Y1690947D01*
X65165245Y1690947D01*
X65514932Y1727083D01*
X65514941Y1727084D01*
X65518324Y1727434D01*
X65521657Y1728148D01*
X65521660Y1728149D01*
X65694186Y1765136D01*
X65868727Y1802554D01*
X66208968Y1915078D01*
X66535066Y2063689D01*
X66629052Y2119494D01*
X66840262Y2244901D01*
X66840267Y2244904D01*
X66843207Y2246650D01*
X67129786Y2461820D01*
X67391451Y2706681D01*
X67625140Y2978370D01*
X67731750Y3133488D01*
X67826190Y3270899D01*
X67826195Y3270906D01*
X67828120Y3273708D01*
X67829732Y3276702D01*
X67829737Y3276710D01*
X67973331Y3543393D01*
X67998017Y3589240D01*
X68132842Y3921276D01*
X68143142Y3957432D01*
X68222074Y4234525D01*
X68231020Y4265930D01*
X68237386Y4303171D01*
X68290829Y4615825D01*
X68290829Y4615827D01*
X68291401Y4619172D01*
X68293511Y4653660D01*
X68313168Y4975072D01*
X68313278Y4976869D01*
X68313359Y5000000D01*
X68293979Y5357841D01*
X68236066Y5711495D01*
X68140297Y6056827D01*
X68137243Y6064503D01*
X68009052Y6386631D01*
X68007793Y6389795D01*
X67921956Y6551913D01*
X67841702Y6703487D01*
X67841698Y6703494D01*
X67840103Y6706506D01*
X67639190Y7003254D01*
X67635092Y7008087D01*
X67543506Y7116081D01*
X67407403Y7276568D01*
X67147454Y7523250D01*
X66862384Y7740415D01*
X66859472Y7742172D01*
X66859467Y7742175D01*
X66558443Y7923764D01*
X66558437Y7923767D01*
X66555528Y7925522D01*
X66230475Y8076407D01*
X66060752Y8133855D01*
X65894255Y8190211D01*
X65894250Y8190212D01*
X65891028Y8191303D01*
X65692681Y8235276D01*
X65544493Y8268129D01*
X65544487Y8268130D01*
X65541158Y8268868D01*
X65537769Y8269242D01*
X65537764Y8269243D01*
X65188338Y8307820D01*
X65188333Y8307820D01*
X65184957Y8308193D01*
X65181558Y8308199D01*
X65181557Y8308199D01*
X65012080Y8308495D01*
X64826592Y8308818D01*
X64713413Y8296723D01*
X64473639Y8271099D01*
X64473631Y8271098D01*
X64470256Y8270737D01*
X64120117Y8194394D01*
X63780271Y8080683D01*
X63777178Y8079261D01*
X63777177Y8079260D01*
X63595090Y7995509D01*
X63454694Y7930934D01*
X63451760Y7929178D01*
X63451758Y7929177D01*
X63206346Y7782301D01*
X63147193Y7746899D01*
X63144467Y7744837D01*
X63144465Y7744836D01*
X62979124Y7619789D01*
X62861367Y7530730D01*
X62600559Y7284957D01*
X62367819Y7012454D01*
X62365900Y7009642D01*
X62365897Y7009637D01*
X62272624Y6872903D01*
X62165871Y6716409D01*
X61997077Y6400286D01*
X61863411Y6067782D01*
X61862491Y6064508D01*
X61862489Y6064503D01*
X61779889Y5770643D01*
X61766437Y5722787D01*
X61765875Y5719430D01*
X61765875Y5719429D01*
X61708132Y5374366D01*
X61707290Y5369337D01*
X61686661Y5011566D01*
X31111500Y5011566D01*
X31111500Y9239376D01*
X43958010Y9239376D01*
X43964765Y9177194D01*
X44015895Y9040805D01*
X44103249Y8924249D01*
X44219805Y8836895D01*
X44356194Y8785765D01*
X44418376Y8779010D01*
X46513624Y8779010D01*
X46575806Y8785765D01*
X46712195Y8836895D01*
X46828751Y8924249D01*
X46916105Y9040805D01*
X46967235Y9177194D01*
X46973990Y9239376D01*
X46973990Y10287000D01*
X54113347Y10287000D01*
X54131970Y10050369D01*
X54150842Y9971762D01*
X54182690Y9839109D01*
X54187382Y9819565D01*
X54189272Y9815002D01*
X54189274Y9814996D01*
X54262077Y9639233D01*
X54278216Y9600270D01*
X54402238Y9397885D01*
X54556393Y9217393D01*
X54736885Y9063238D01*
X54939270Y8939216D01*
X54943840Y8937323D01*
X54943844Y8937321D01*
X55153996Y8850274D01*
X55154002Y8850272D01*
X55158565Y8848382D01*
X55163365Y8847230D01*
X55163370Y8847228D01*
X55268785Y8821920D01*
X55389369Y8792970D01*
X55626000Y8774347D01*
X55862631Y8792970D01*
X55983215Y8821920D01*
X56088630Y8847228D01*
X56088635Y8847230D01*
X56093435Y8848382D01*
X56097998Y8850272D01*
X56098004Y8850274D01*
X56308156Y8937321D01*
X56308160Y8937323D01*
X56312730Y8939216D01*
X56515115Y9063238D01*
X56695607Y9217393D01*
X56849762Y9397885D01*
X56973784Y9600270D01*
X56989923Y9639233D01*
X57062726Y9814996D01*
X57062728Y9815002D01*
X57064618Y9819565D01*
X57069311Y9839109D01*
X57101158Y9971762D01*
X57118709Y10044866D01*
X61914500Y10044866D01*
X61921255Y9982684D01*
X61972385Y9846295D01*
X62059739Y9729739D01*
X62176295Y9642385D01*
X62312684Y9591255D01*
X62374866Y9584500D01*
X64971134Y9584500D01*
X65033316Y9591255D01*
X65169705Y9642385D01*
X65286261Y9729739D01*
X65373615Y9846295D01*
X65424745Y9982684D01*
X65431500Y10044866D01*
X65431500Y12641134D01*
X65424745Y12703316D01*
X65373615Y12839705D01*
X65286261Y12956261D01*
X65169705Y13043615D01*
X65033316Y13094745D01*
X64971134Y13101500D01*
X62374866Y13101500D01*
X62312684Y13094745D01*
X62176295Y13043615D01*
X62059739Y12956261D01*
X61972385Y12839705D01*
X61921255Y12703316D01*
X61914500Y12641134D01*
X61914500Y10044866D01*
X57118709Y10044866D01*
X57120030Y10050369D01*
X57138653Y10287000D01*
X57120030Y10523631D01*
X57064618Y10754435D01*
X57062728Y10758998D01*
X57062726Y10759004D01*
X56975679Y10969156D01*
X56975677Y10969160D01*
X56973784Y10973730D01*
X56849762Y11176115D01*
X56695607Y11356607D01*
X56515115Y11510762D01*
X56312730Y11634784D01*
X56308160Y11636677D01*
X56308156Y11636679D01*
X56098004Y11723726D01*
X56097998Y11723728D01*
X56093435Y11725618D01*
X56088635Y11726770D01*
X56088630Y11726772D01*
X55983215Y11752080D01*
X55862631Y11781030D01*
X55626000Y11799653D01*
X55389369Y11781030D01*
X55268785Y11752080D01*
X55163370Y11726772D01*
X55163365Y11726770D01*
X55158565Y11725618D01*
X55154002Y11723728D01*
X55153996Y11723726D01*
X54943844Y11636679D01*
X54943840Y11636677D01*
X54939270Y11634784D01*
X54736885Y11510762D01*
X54556393Y11356607D01*
X54402238Y11176115D01*
X54278216Y10973730D01*
X54276323Y10969160D01*
X54276321Y10969156D01*
X54189274Y10759004D01*
X54189272Y10758998D01*
X54187382Y10754435D01*
X54131970Y10523631D01*
X54113347Y10287000D01*
X46973990Y10287000D01*
X46973990Y11334624D01*
X46967235Y11396806D01*
X46916105Y11533195D01*
X46828751Y11649751D01*
X46712195Y11737105D01*
X46575806Y11788235D01*
X46513624Y11794990D01*
X44418376Y11794990D01*
X44356194Y11788235D01*
X44219805Y11737105D01*
X44103249Y11649751D01*
X44015895Y11533195D01*
X43964765Y11396806D01*
X43958010Y11334624D01*
X43958010Y9239376D01*
X31111500Y9239376D01*
X31111500Y11684000D01*
X35173647Y11684000D01*
X35193022Y11462537D01*
X35250560Y11247804D01*
X35252882Y11242823D01*
X35252883Y11242822D01*
X35342186Y11051311D01*
X35342189Y11051306D01*
X35344512Y11046324D01*
X35347668Y11041817D01*
X35347669Y11041815D01*
X35395343Y10973730D01*
X35472023Y10864219D01*
X35629219Y10707023D01*
X35633727Y10703866D01*
X35633730Y10703864D01*
X35697861Y10658959D01*
X35811323Y10579512D01*
X35816305Y10577189D01*
X35816310Y10577186D01*
X36007822Y10487883D01*
X36012804Y10485560D01*
X36018112Y10484138D01*
X36018114Y10484137D01*
X36049210Y10475805D01*
X36227537Y10428022D01*
X36449000Y10408647D01*
X36670463Y10428022D01*
X36848790Y10475805D01*
X36879886Y10484137D01*
X36879888Y10484138D01*
X36885196Y10485560D01*
X36890178Y10487883D01*
X37081690Y10577186D01*
X37081695Y10577189D01*
X37086677Y10579512D01*
X37200139Y10658959D01*
X37264270Y10703864D01*
X37264273Y10703866D01*
X37268781Y10707023D01*
X37425977Y10864219D01*
X37502658Y10973730D01*
X37550331Y11041815D01*
X37550332Y11041817D01*
X37553488Y11046324D01*
X37555811Y11051306D01*
X37555814Y11051311D01*
X37604805Y11156373D01*
X37651723Y11209658D01*
X37720000Y11229119D01*
X37787960Y11208577D01*
X37833195Y11156373D01*
X37882186Y11051311D01*
X37882189Y11051306D01*
X37884512Y11046324D01*
X37887668Y11041817D01*
X37887669Y11041815D01*
X37935343Y10973730D01*
X38012023Y10864219D01*
X38169219Y10707023D01*
X38173727Y10703866D01*
X38173730Y10703864D01*
X38237861Y10658959D01*
X38351323Y10579512D01*
X38356305Y10577189D01*
X38356310Y10577186D01*
X38547822Y10487883D01*
X38552804Y10485560D01*
X38558112Y10484138D01*
X38558114Y10484137D01*
X38589210Y10475805D01*
X38767537Y10428022D01*
X38989000Y10408647D01*
X39210463Y10428022D01*
X39388790Y10475805D01*
X39419886Y10484137D01*
X39419888Y10484138D01*
X39425196Y10485560D01*
X39430178Y10487883D01*
X39621690Y10577186D01*
X39621695Y10577189D01*
X39626677Y10579512D01*
X39740139Y10658959D01*
X39804270Y10703864D01*
X39804273Y10703866D01*
X39808781Y10707023D01*
X39965977Y10864219D01*
X40042658Y10973730D01*
X40090331Y11041815D01*
X40090332Y11041817D01*
X40093488Y11046324D01*
X40095811Y11051306D01*
X40095814Y11051311D01*
X40144805Y11156373D01*
X40191723Y11209658D01*
X40260000Y11229119D01*
X40327960Y11208577D01*
X40373195Y11156373D01*
X40422186Y11051311D01*
X40422189Y11051306D01*
X40424512Y11046324D01*
X40427668Y11041817D01*
X40427669Y11041815D01*
X40475343Y10973730D01*
X40552023Y10864219D01*
X40709219Y10707023D01*
X40713727Y10703866D01*
X40713730Y10703864D01*
X40777861Y10658959D01*
X40891323Y10579512D01*
X40896305Y10577189D01*
X40896310Y10577186D01*
X41087822Y10487883D01*
X41092804Y10485560D01*
X41098112Y10484138D01*
X41098114Y10484137D01*
X41129210Y10475805D01*
X41307537Y10428022D01*
X41529000Y10408647D01*
X41750463Y10428022D01*
X41928790Y10475805D01*
X41959886Y10484137D01*
X41959888Y10484138D01*
X41965196Y10485560D01*
X41970178Y10487883D01*
X42161690Y10577186D01*
X42161695Y10577189D01*
X42166677Y10579512D01*
X42280139Y10658959D01*
X42344270Y10703864D01*
X42344273Y10703866D01*
X42348781Y10707023D01*
X42505977Y10864219D01*
X42582658Y10973730D01*
X42630331Y11041815D01*
X42630332Y11041817D01*
X42633488Y11046324D01*
X42635811Y11051306D01*
X42635814Y11051311D01*
X42725117Y11242822D01*
X42725118Y11242823D01*
X42727440Y11247804D01*
X42784978Y11462537D01*
X42804353Y11684000D01*
X42784978Y11905463D01*
X42736044Y12088087D01*
X42728863Y12114886D01*
X42728862Y12114888D01*
X42727440Y12120196D01*
X42639286Y12309243D01*
X42635814Y12316689D01*
X42635811Y12316694D01*
X42633488Y12321676D01*
X42505977Y12503781D01*
X42348781Y12660977D01*
X42344273Y12664134D01*
X42344270Y12664136D01*
X42268505Y12717187D01*
X42166677Y12788488D01*
X42161695Y12790811D01*
X42161690Y12790814D01*
X41970178Y12880117D01*
X41970177Y12880118D01*
X41965196Y12882440D01*
X41959888Y12883862D01*
X41959886Y12883863D01*
X41894051Y12901503D01*
X41750463Y12939978D01*
X41529000Y12959353D01*
X41307537Y12939978D01*
X41163949Y12901503D01*
X41098114Y12883863D01*
X41098112Y12883862D01*
X41092804Y12882440D01*
X41087823Y12880118D01*
X41087822Y12880117D01*
X40896311Y12790814D01*
X40896306Y12790811D01*
X40891324Y12788488D01*
X40886817Y12785332D01*
X40886815Y12785331D01*
X40713730Y12664136D01*
X40713727Y12664134D01*
X40709219Y12660977D01*
X40552023Y12503781D01*
X40424512Y12321676D01*
X40422189Y12316694D01*
X40422186Y12316689D01*
X40373195Y12211627D01*
X40326277Y12158342D01*
X40258000Y12138881D01*
X40190040Y12159423D01*
X40144805Y12211627D01*
X40095814Y12316689D01*
X40095811Y12316694D01*
X40093488Y12321676D01*
X39965977Y12503781D01*
X39808781Y12660977D01*
X39804273Y12664134D01*
X39804270Y12664136D01*
X39728505Y12717187D01*
X39626677Y12788488D01*
X39621695Y12790811D01*
X39621690Y12790814D01*
X39430178Y12880117D01*
X39430177Y12880118D01*
X39425196Y12882440D01*
X39419888Y12883862D01*
X39419886Y12883863D01*
X39354051Y12901503D01*
X39210463Y12939978D01*
X38989000Y12959353D01*
X38767537Y12939978D01*
X38623949Y12901503D01*
X38558114Y12883863D01*
X38558112Y12883862D01*
X38552804Y12882440D01*
X38547823Y12880118D01*
X38547822Y12880117D01*
X38356311Y12790814D01*
X38356306Y12790811D01*
X38351324Y12788488D01*
X38346817Y12785332D01*
X38346815Y12785331D01*
X38173730Y12664136D01*
X38173727Y12664134D01*
X38169219Y12660977D01*
X38012023Y12503781D01*
X37884512Y12321676D01*
X37882189Y12316694D01*
X37882186Y12316689D01*
X37833195Y12211627D01*
X37786277Y12158342D01*
X37718000Y12138881D01*
X37650040Y12159423D01*
X37604805Y12211627D01*
X37555814Y12316689D01*
X37555811Y12316694D01*
X37553488Y12321676D01*
X37425977Y12503781D01*
X37268781Y12660977D01*
X37264273Y12664134D01*
X37264270Y12664136D01*
X37188505Y12717187D01*
X37086677Y12788488D01*
X37081695Y12790811D01*
X37081690Y12790814D01*
X36890178Y12880117D01*
X36890177Y12880118D01*
X36885196Y12882440D01*
X36879888Y12883862D01*
X36879886Y12883863D01*
X36814051Y12901503D01*
X36670463Y12939978D01*
X36449000Y12959353D01*
X36227537Y12939978D01*
X36083949Y12901503D01*
X36018114Y12883863D01*
X36018112Y12883862D01*
X36012804Y12882440D01*
X36007823Y12880118D01*
X36007822Y12880117D01*
X35816311Y12790814D01*
X35816306Y12790811D01*
X35811324Y12788488D01*
X35806817Y12785332D01*
X35806815Y12785331D01*
X35633730Y12664136D01*
X35633727Y12664134D01*
X35629219Y12660977D01*
X35472023Y12503781D01*
X35344512Y12321676D01*
X35342189Y12316694D01*
X35342186Y12316689D01*
X35338714Y12309243D01*
X35250560Y12120196D01*
X35249138Y12114888D01*
X35249137Y12114886D01*
X35241956Y12088087D01*
X35193022Y11905463D01*
X35173647Y11684000D01*
X31111500Y11684000D01*
X31111500Y16389161D01*
X61910173Y16389161D01*
X61922713Y16128092D01*
X61973704Y15871744D01*
X62062026Y15625748D01*
X62099607Y15555805D01*
X62182088Y15402301D01*
X62185737Y15395509D01*
X62188532Y15391766D01*
X62188534Y15391763D01*
X62339330Y15189823D01*
X62339335Y15189817D01*
X62342122Y15186085D01*
X62345431Y15182805D01*
X62345436Y15182799D01*
X62477622Y15051762D01*
X62527743Y15002077D01*
X62531505Y14999319D01*
X62531508Y14999316D01*
X62734750Y14850293D01*
X62738524Y14847526D01*
X62742667Y14845346D01*
X62742669Y14845345D01*
X62965684Y14728011D01*
X62965689Y14728009D01*
X62969834Y14725828D01*
X63216590Y14639656D01*
X63221183Y14638784D01*
X63468785Y14591776D01*
X63468788Y14591776D01*
X63473374Y14590905D01*
X63603958Y14585774D01*
X63729875Y14580826D01*
X63729881Y14580826D01*
X63734543Y14580643D01*
X63813977Y14589343D01*
X63989707Y14608588D01*
X63989712Y14608589D01*
X63994360Y14609098D01*
X64107116Y14638784D01*
X64242594Y14674452D01*
X64242596Y14674453D01*
X64247117Y14675643D01*
X64487262Y14778818D01*
X64709519Y14916354D01*
X64713082Y14919371D01*
X64713087Y14919374D01*
X64905439Y15082213D01*
X64905440Y15082214D01*
X64909005Y15085232D01*
X65044548Y15239789D01*
X65078257Y15278226D01*
X65078261Y15278231D01*
X65081339Y15281741D01*
X65222733Y15501563D01*
X65330083Y15739871D01*
X65401030Y15991428D01*
X65417832Y16123504D01*
X65433616Y16247579D01*
X65433616Y16247583D01*
X65434014Y16250709D01*
X65436431Y16343000D01*
X65417061Y16603652D01*
X65405725Y16653752D01*
X65360408Y16854020D01*
X65359377Y16858577D01*
X65264647Y17102177D01*
X65134951Y17329098D01*
X64973138Y17534357D01*
X64782763Y17713443D01*
X64568009Y17862424D01*
X64563816Y17864492D01*
X64337781Y17975960D01*
X64337778Y17975961D01*
X64333593Y17978025D01*
X64287449Y17992796D01*
X64089123Y18056280D01*
X64084665Y18057707D01*
X63826693Y18099721D01*
X63712942Y18101210D01*
X63570022Y18103081D01*
X63570019Y18103081D01*
X63565345Y18103142D01*
X63306362Y18067896D01*
X63301876Y18066588D01*
X63301874Y18066588D01*
X63239231Y18048329D01*
X63055433Y17994757D01*
X63051180Y17992797D01*
X63051179Y17992796D01*
X63014659Y17975960D01*
X62818072Y17885332D01*
X62779067Y17859759D01*
X62603404Y17744590D01*
X62603399Y17744586D01*
X62599491Y17742024D01*
X62404494Y17567982D01*
X62237363Y17367030D01*
X62234934Y17363027D01*
X62116642Y17168087D01*
X62101771Y17143581D01*
X62000697Y16902545D01*
X61936359Y16649217D01*
X61910173Y16389161D01*
X31111500Y16389161D01*
X31111500Y21870651D01*
X33272801Y21870651D01*
X33273394Y21863359D01*
X33273394Y21863356D01*
X33277085Y21817982D01*
X33277500Y21807767D01*
X33277500Y21799707D01*
X33277925Y21796063D01*
X33280789Y21771493D01*
X33281222Y21767118D01*
X33287140Y21694363D01*
X33289396Y21687399D01*
X33290587Y21681440D01*
X33291971Y21675585D01*
X33292818Y21668319D01*
X33317735Y21599673D01*
X33319152Y21595545D01*
X33341649Y21526101D01*
X33345445Y21519846D01*
X33347951Y21514372D01*
X33350670Y21508942D01*
X33353167Y21502063D01*
X33357180Y21495943D01*
X33357180Y21495942D01*
X33393186Y21441024D01*
X33395523Y21437320D01*
X33433405Y21374893D01*
X33437121Y21370685D01*
X33437122Y21370684D01*
X33440803Y21366516D01*
X33440776Y21366492D01*
X33443429Y21363500D01*
X33446132Y21360267D01*
X33450144Y21354148D01*
X33455456Y21349116D01*
X33506383Y21300872D01*
X33508825Y21298494D01*
X36540468Y18266851D01*
X36542010Y18265283D01*
X36597455Y18207868D01*
X36603346Y18204013D01*
X36603351Y18204009D01*
X36635512Y18182964D01*
X36644698Y18176345D01*
X36676973Y18150809D01*
X36676978Y18150806D01*
X36682716Y18146266D01*
X36689345Y18143168D01*
X36689348Y18143166D01*
X36698113Y18139070D01*
X36705649Y18135548D01*
X36721281Y18126839D01*
X36739846Y18114690D01*
X36746446Y18112235D01*
X36746455Y18112231D01*
X36786130Y18097476D01*
X36795557Y18093528D01*
X36842950Y18071378D01*
X36863249Y18067156D01*
X36863932Y18067014D01*
X36882190Y18061752D01*
X36891043Y18058460D01*
X36899341Y18055374D01*
X36936102Y18050469D01*
X36952139Y18048329D01*
X36961132Y18046796D01*
X37008951Y18036850D01*
X37016115Y18035360D01*
X37033667Y18035835D01*
X37053725Y18034775D01*
X37068015Y18032868D01*
X37075027Y18033506D01*
X37075032Y18033506D01*
X37124927Y18038047D01*
X37132938Y18038520D01*
X37185604Y18039945D01*
X37185605Y18039945D01*
X37192921Y18040143D01*
X37199995Y18042019D01*
X37199998Y18042019D01*
X37206150Y18043650D01*
X37227011Y18047338D01*
X37228426Y18047467D01*
X37230464Y18047652D01*
X37230465Y18047652D01*
X37237483Y18048291D01*
X37244183Y18050468D01*
X37244188Y18050469D01*
X37295544Y18067156D01*
X37302187Y18069114D01*
X37356806Y18083596D01*
X37356816Y18083600D01*
X37363884Y18085474D01*
X37370336Y18088926D01*
X37372525Y18090097D01*
X37391157Y18098034D01*
X37392625Y18098700D01*
X37399322Y18100876D01*
X37455122Y18134139D01*
X37460192Y18137005D01*
X37470877Y18142722D01*
X37519834Y18168918D01*
X37525321Y18173764D01*
X37529967Y18176993D01*
X37533989Y18179929D01*
X37533827Y18180143D01*
X37539439Y18184403D01*
X37545490Y18188010D01*
X37595399Y18235538D01*
X37598870Y18238721D01*
X37652404Y18286000D01*
X37656632Y18291982D01*
X37658011Y18293519D01*
X37660850Y18297202D01*
X37663621Y18300504D01*
X37668721Y18305361D01*
X37681235Y18324195D01*
X37709067Y18366086D01*
X37711118Y18369078D01*
X37750258Y18424461D01*
X37754484Y18430440D01*
X37757221Y18437232D01*
X37758160Y18438954D01*
X37759662Y18442239D01*
X37762891Y18447098D01*
X37790236Y18519086D01*
X37791155Y18521432D01*
X37817862Y18587701D01*
X37820598Y18594489D01*
X37821699Y18601726D01*
X37821879Y18602384D01*
X37823319Y18606175D01*
X37834655Y18686837D01*
X37834862Y18688251D01*
X37846098Y18762114D01*
X37847199Y18769349D01*
X37846851Y18773622D01*
X37847001Y18774687D01*
X37847299Y18796000D01*
X37839258Y18867689D01*
X37838889Y18871506D01*
X37833454Y18938337D01*
X37833453Y18938340D01*
X37832860Y18945636D01*
X37830604Y18952599D01*
X37830220Y18954522D01*
X37829035Y18958833D01*
X37828331Y18965108D01*
X37803268Y19037081D01*
X37802395Y19039679D01*
X37780607Y19106936D01*
X37780606Y19106938D01*
X37778351Y19113899D01*
X37774553Y19120157D01*
X37773649Y19122133D01*
X37772368Y19125811D01*
X37729720Y19194062D01*
X37728856Y19195466D01*
X37689510Y19260306D01*
X37689501Y19260319D01*
X37686595Y19265107D01*
X37682253Y19270024D01*
X37682316Y19270080D01*
X37682058Y19270431D01*
X37681966Y19270349D01*
X37679197Y19273484D01*
X37629724Y19322957D01*
X37562286Y19390868D01*
X37561307Y19391489D01*
X37560183Y19392498D01*
X36664305Y20288376D01*
X43831010Y20288376D01*
X43837765Y20226194D01*
X43888895Y20089805D01*
X43976249Y19973249D01*
X44092805Y19885895D01*
X44229194Y19834765D01*
X44291376Y19828010D01*
X46386624Y19828010D01*
X46448806Y19834765D01*
X46585195Y19885895D01*
X46701751Y19973249D01*
X46789105Y20089805D01*
X46840235Y20226194D01*
X46846990Y20288376D01*
X46846990Y21336000D01*
X53986347Y21336000D01*
X54004970Y21099369D01*
X54022450Y21026560D01*
X54058534Y20876264D01*
X54060382Y20868565D01*
X54062272Y20864002D01*
X54062274Y20863996D01*
X54138056Y20681041D01*
X54151216Y20649270D01*
X54275238Y20446885D01*
X54429393Y20266393D01*
X54609885Y20112238D01*
X54812270Y19988216D01*
X54816840Y19986323D01*
X54816844Y19986321D01*
X55026996Y19899274D01*
X55027002Y19899272D01*
X55031565Y19897382D01*
X55036365Y19896230D01*
X55036370Y19896228D01*
X55141785Y19870920D01*
X55262369Y19841970D01*
X55499000Y19823347D01*
X55735631Y19841970D01*
X55856215Y19870920D01*
X55961630Y19896228D01*
X55961635Y19896230D01*
X55966435Y19897382D01*
X55970998Y19899272D01*
X55971004Y19899274D01*
X56181156Y19986321D01*
X56181160Y19986323D01*
X56185730Y19988216D01*
X56388115Y20112238D01*
X56568607Y20266393D01*
X56722762Y20446885D01*
X56730104Y20458866D01*
X61914500Y20458866D01*
X61921255Y20396684D01*
X61972385Y20260295D01*
X62059739Y20143739D01*
X62176295Y20056385D01*
X62312684Y20005255D01*
X62374866Y19998500D01*
X64971134Y19998500D01*
X65033316Y20005255D01*
X65169705Y20056385D01*
X65286261Y20143739D01*
X65373615Y20260295D01*
X65424745Y20396684D01*
X65431500Y20458866D01*
X65431500Y23055134D01*
X65424745Y23117316D01*
X65373615Y23253705D01*
X65286261Y23370261D01*
X65169705Y23457615D01*
X65033316Y23508745D01*
X64971134Y23515500D01*
X62374866Y23515500D01*
X62312684Y23508745D01*
X62176295Y23457615D01*
X62059739Y23370261D01*
X61972385Y23253705D01*
X61921255Y23117316D01*
X61914500Y23055134D01*
X61914500Y20458866D01*
X56730104Y20458866D01*
X56846784Y20649270D01*
X56859944Y20681041D01*
X56935726Y20863996D01*
X56935728Y20864002D01*
X56937618Y20868565D01*
X56939467Y20876264D01*
X56975550Y21026560D01*
X56993030Y21099369D01*
X57011653Y21336000D01*
X56993030Y21572631D01*
X56962052Y21701661D01*
X56938772Y21798630D01*
X56938770Y21798635D01*
X56937618Y21803435D01*
X56935728Y21807998D01*
X56935726Y21808004D01*
X56848679Y22018156D01*
X56848677Y22018160D01*
X56846784Y22022730D01*
X56722762Y22225115D01*
X56568607Y22405607D01*
X56388115Y22559762D01*
X56185730Y22683784D01*
X56181160Y22685677D01*
X56181156Y22685679D01*
X55971004Y22772726D01*
X55970998Y22772728D01*
X55966435Y22774618D01*
X55961635Y22775770D01*
X55961630Y22775772D01*
X55856215Y22801080D01*
X55735631Y22830030D01*
X55499000Y22848653D01*
X55262369Y22830030D01*
X55141785Y22801080D01*
X55036370Y22775772D01*
X55036365Y22775770D01*
X55031565Y22774618D01*
X55027002Y22772728D01*
X55026996Y22772726D01*
X54816844Y22685679D01*
X54816840Y22685677D01*
X54812270Y22683784D01*
X54609885Y22559762D01*
X54429393Y22405607D01*
X54275238Y22225115D01*
X54151216Y22022730D01*
X54149323Y22018160D01*
X54149321Y22018156D01*
X54062274Y21808004D01*
X54062272Y21807998D01*
X54060382Y21803435D01*
X54059230Y21798635D01*
X54059228Y21798630D01*
X54035948Y21701661D01*
X54004970Y21572631D01*
X53986347Y21336000D01*
X46846990Y21336000D01*
X46846990Y22383624D01*
X46840235Y22445806D01*
X46789105Y22582195D01*
X46701751Y22698751D01*
X46585195Y22786105D01*
X46448806Y22837235D01*
X46386624Y22843990D01*
X44291376Y22843990D01*
X44229194Y22837235D01*
X44092805Y22786105D01*
X43976249Y22698751D01*
X43888895Y22582195D01*
X43837765Y22445806D01*
X43831010Y22383624D01*
X43831010Y20288376D01*
X36664305Y20288376D01*
X36209544Y20743137D01*
X36175518Y20805449D01*
X36180583Y20876264D01*
X36223130Y20933100D01*
X36287657Y20957753D01*
X36337223Y20962090D01*
X36416463Y20969022D01*
X36560051Y21007497D01*
X36625886Y21025137D01*
X36625888Y21025138D01*
X36631196Y21026560D01*
X36636178Y21028883D01*
X36827690Y21118186D01*
X36827695Y21118189D01*
X36832677Y21120512D01*
X36934505Y21191813D01*
X37010270Y21244864D01*
X37010273Y21244866D01*
X37014781Y21248023D01*
X37171977Y21405219D01*
X37195763Y21439188D01*
X37296331Y21582815D01*
X37296332Y21582817D01*
X37299488Y21587324D01*
X37301811Y21592306D01*
X37301814Y21592311D01*
X37350805Y21697373D01*
X37397723Y21750658D01*
X37466000Y21770119D01*
X37533960Y21749577D01*
X37579195Y21697373D01*
X37628186Y21592311D01*
X37628189Y21592306D01*
X37630512Y21587324D01*
X37633668Y21582817D01*
X37633669Y21582815D01*
X37734238Y21439188D01*
X37758023Y21405219D01*
X37915219Y21248023D01*
X37919727Y21244866D01*
X37919730Y21244864D01*
X37995495Y21191813D01*
X38097323Y21120512D01*
X38102305Y21118189D01*
X38102310Y21118186D01*
X38293822Y21028883D01*
X38298804Y21026560D01*
X38304112Y21025138D01*
X38304114Y21025137D01*
X38369949Y21007497D01*
X38513537Y20969022D01*
X38735000Y20949647D01*
X38956463Y20969022D01*
X39100051Y21007497D01*
X39165886Y21025137D01*
X39165888Y21025138D01*
X39171196Y21026560D01*
X39176178Y21028883D01*
X39367690Y21118186D01*
X39367695Y21118189D01*
X39372677Y21120512D01*
X39474505Y21191813D01*
X39550270Y21244864D01*
X39550273Y21244866D01*
X39554781Y21248023D01*
X39711977Y21405219D01*
X39735763Y21439188D01*
X39836331Y21582815D01*
X39836332Y21582817D01*
X39839488Y21587324D01*
X39841811Y21592306D01*
X39841814Y21592311D01*
X39890805Y21697373D01*
X39937723Y21750658D01*
X40006000Y21770119D01*
X40073960Y21749577D01*
X40119195Y21697373D01*
X40168186Y21592311D01*
X40168189Y21592306D01*
X40170512Y21587324D01*
X40173668Y21582817D01*
X40173669Y21582815D01*
X40274238Y21439188D01*
X40298023Y21405219D01*
X40455219Y21248023D01*
X40459727Y21244866D01*
X40459730Y21244864D01*
X40535495Y21191813D01*
X40637323Y21120512D01*
X40642305Y21118189D01*
X40642310Y21118186D01*
X40833822Y21028883D01*
X40838804Y21026560D01*
X40844112Y21025138D01*
X40844114Y21025137D01*
X40909949Y21007497D01*
X41053537Y20969022D01*
X41275000Y20949647D01*
X41496463Y20969022D01*
X41640051Y21007497D01*
X41705886Y21025137D01*
X41705888Y21025138D01*
X41711196Y21026560D01*
X41716178Y21028883D01*
X41907690Y21118186D01*
X41907695Y21118189D01*
X41912677Y21120512D01*
X42014505Y21191813D01*
X42090270Y21244864D01*
X42090273Y21244866D01*
X42094781Y21248023D01*
X42251977Y21405219D01*
X42275763Y21439188D01*
X42376331Y21582815D01*
X42376332Y21582817D01*
X42379488Y21587324D01*
X42381811Y21592306D01*
X42381814Y21592311D01*
X42471117Y21783822D01*
X42471118Y21783823D01*
X42473440Y21788804D01*
X42475742Y21797393D01*
X42529554Y21998224D01*
X42530978Y22003537D01*
X42531940Y22014525D01*
X42549874Y22219525D01*
X42550353Y22225000D01*
X42530978Y22446463D01*
X42473440Y22661196D01*
X42471117Y22666178D01*
X42381814Y22857689D01*
X42381811Y22857694D01*
X42379488Y22862676D01*
X42251977Y23044781D01*
X42094781Y23201977D01*
X42090273Y23205134D01*
X42090270Y23205136D01*
X42010643Y23260891D01*
X41912677Y23329488D01*
X41907695Y23331811D01*
X41907690Y23331814D01*
X41716178Y23421117D01*
X41716177Y23421118D01*
X41711196Y23423440D01*
X41705888Y23424862D01*
X41705886Y23424863D01*
X41640051Y23442503D01*
X41496463Y23480978D01*
X41275000Y23500353D01*
X41053537Y23480978D01*
X40909949Y23442503D01*
X40844114Y23424863D01*
X40844112Y23424862D01*
X40838804Y23423440D01*
X40833823Y23421118D01*
X40833822Y23421117D01*
X40642311Y23331814D01*
X40642306Y23331811D01*
X40637324Y23329488D01*
X40632817Y23326332D01*
X40632815Y23326331D01*
X40459730Y23205136D01*
X40459727Y23205134D01*
X40455219Y23201977D01*
X40298023Y23044781D01*
X40170512Y22862676D01*
X40168189Y22857694D01*
X40168186Y22857689D01*
X40119195Y22752627D01*
X40072277Y22699342D01*
X40004000Y22679881D01*
X39936040Y22700423D01*
X39890805Y22752627D01*
X39841814Y22857689D01*
X39841811Y22857694D01*
X39839488Y22862676D01*
X39711977Y23044781D01*
X39554781Y23201977D01*
X39550273Y23205134D01*
X39550270Y23205136D01*
X39470643Y23260891D01*
X39372677Y23329488D01*
X39367695Y23331811D01*
X39367690Y23331814D01*
X39176178Y23421117D01*
X39176177Y23421118D01*
X39171196Y23423440D01*
X39165888Y23424862D01*
X39165886Y23424863D01*
X39100051Y23442503D01*
X38956463Y23480978D01*
X38735000Y23500353D01*
X38513537Y23480978D01*
X38369949Y23442503D01*
X38304114Y23424863D01*
X38304112Y23424862D01*
X38298804Y23423440D01*
X38293823Y23421118D01*
X38293822Y23421117D01*
X38102311Y23331814D01*
X38102306Y23331811D01*
X38097324Y23329488D01*
X38092817Y23326332D01*
X38092815Y23326331D01*
X37919730Y23205136D01*
X37919727Y23205134D01*
X37915219Y23201977D01*
X37758023Y23044781D01*
X37630512Y22862676D01*
X37628189Y22857694D01*
X37628186Y22857689D01*
X37579195Y22752627D01*
X37532277Y22699342D01*
X37464000Y22679881D01*
X37396040Y22700423D01*
X37350805Y22752627D01*
X37301814Y22857689D01*
X37301811Y22857694D01*
X37299488Y22862676D01*
X37171977Y23044781D01*
X37014781Y23201977D01*
X37010273Y23205134D01*
X37010270Y23205136D01*
X36930643Y23260891D01*
X36832677Y23329488D01*
X36827695Y23331811D01*
X36827690Y23331814D01*
X36636178Y23421117D01*
X36636177Y23421118D01*
X36631196Y23423440D01*
X36625888Y23424862D01*
X36625886Y23424863D01*
X36560051Y23442503D01*
X36416463Y23480978D01*
X36195000Y23500353D01*
X35973537Y23480978D01*
X35829949Y23442503D01*
X35764114Y23424863D01*
X35764112Y23424862D01*
X35758804Y23423440D01*
X35753823Y23421118D01*
X35753822Y23421117D01*
X35562311Y23331814D01*
X35562306Y23331811D01*
X35557324Y23329488D01*
X35552817Y23326332D01*
X35552815Y23326331D01*
X35379730Y23205136D01*
X35379727Y23205134D01*
X35375219Y23201977D01*
X35218023Y23044781D01*
X35090512Y22862676D01*
X35088189Y22857694D01*
X35088186Y22857689D01*
X35075289Y22830030D01*
X35048568Y22772726D01*
X35034695Y22742976D01*
X34987778Y22689691D01*
X34919500Y22670230D01*
X34851541Y22690772D01*
X34805475Y22744795D01*
X34794500Y22796226D01*
X34794500Y24652629D01*
X34814502Y24720750D01*
X34831405Y24741724D01*
X36214462Y26124781D01*
X36216665Y26126932D01*
X36266622Y26174505D01*
X36266623Y26174506D01*
X36271721Y26179361D01*
X36298605Y26219823D01*
X36304736Y26228269D01*
X36332190Y26262971D01*
X36332191Y26262972D01*
X36336735Y26268716D01*
X36346140Y26288839D01*
X36355339Y26305215D01*
X36361991Y26315227D01*
X36361993Y26315232D01*
X36365891Y26321098D01*
X36384528Y26370159D01*
X36388167Y26378763D01*
X36408524Y26422321D01*
X36408524Y26422322D01*
X36411622Y26428950D01*
X36413112Y26436113D01*
X36413114Y26436119D01*
X36415356Y26446897D01*
X36420926Y26465979D01*
X36426319Y26480175D01*
X36433071Y26528224D01*
X36434165Y26536006D01*
X36435579Y26544130D01*
X36437579Y26553743D01*
X36447641Y26602115D01*
X36447250Y26616563D01*
X36448430Y26637508D01*
X36449450Y26644762D01*
X36449451Y26644772D01*
X36450001Y26648687D01*
X36450299Y26670000D01*
X36449337Y26678573D01*
X36444970Y26717514D01*
X36444231Y26728149D01*
X36443055Y26771604D01*
X36442857Y26778921D01*
X36436966Y26801141D01*
X36436587Y26803161D01*
X61910173Y26803161D01*
X61910397Y26798495D01*
X61910397Y26798489D01*
X61912239Y26760149D01*
X61922713Y26542092D01*
X61973704Y26285744D01*
X62062026Y26039748D01*
X62064242Y26035624D01*
X62128753Y25915563D01*
X62185737Y25809509D01*
X62188532Y25805766D01*
X62188534Y25805763D01*
X62339330Y25603823D01*
X62339335Y25603817D01*
X62342122Y25600085D01*
X62345431Y25596805D01*
X62345436Y25596799D01*
X62500871Y25442715D01*
X62527743Y25416077D01*
X62531505Y25413319D01*
X62531508Y25413316D01*
X62723638Y25272441D01*
X62738524Y25261526D01*
X62742667Y25259346D01*
X62742669Y25259345D01*
X62965684Y25142011D01*
X62965689Y25142009D01*
X62969834Y25139828D01*
X63216590Y25053656D01*
X63221183Y25052784D01*
X63468785Y25005776D01*
X63468788Y25005776D01*
X63473374Y25004905D01*
X63603959Y24999774D01*
X63729875Y24994826D01*
X63729881Y24994826D01*
X63734543Y24994643D01*
X63819368Y25003933D01*
X63989707Y25022588D01*
X63989712Y25022589D01*
X63994360Y25023098D01*
X64107116Y25052784D01*
X64242594Y25088452D01*
X64242596Y25088453D01*
X64247117Y25089643D01*
X64276433Y25102238D01*
X64370204Y25142526D01*
X64487262Y25192818D01*
X64709519Y25330354D01*
X64713082Y25333371D01*
X64713087Y25333374D01*
X64905439Y25496213D01*
X64905440Y25496214D01*
X64909005Y25499232D01*
X65000729Y25603823D01*
X65078257Y25692226D01*
X65078261Y25692231D01*
X65081339Y25695741D01*
X65083982Y25699849D01*
X65220205Y25911633D01*
X65222733Y25915563D01*
X65330083Y26153871D01*
X65374617Y26311776D01*
X65399760Y26400924D01*
X65399761Y26400927D01*
X65401030Y26405428D01*
X65418160Y26540085D01*
X65433616Y26661579D01*
X65433616Y26661583D01*
X65434014Y26664709D01*
X65436431Y26757000D01*
X65429835Y26845764D01*
X65417407Y27013000D01*
X65417406Y27013004D01*
X65417061Y27017652D01*
X65408775Y27054273D01*
X65360408Y27268020D01*
X65359377Y27272577D01*
X65332969Y27340485D01*
X65266340Y27511824D01*
X65266339Y27511827D01*
X65264647Y27516177D01*
X65134951Y27743098D01*
X64973138Y27948357D01*
X64782763Y28127443D01*
X64568009Y28276424D01*
X64563816Y28278492D01*
X64337781Y28389960D01*
X64337778Y28389961D01*
X64333593Y28392025D01*
X64287449Y28406796D01*
X64089123Y28470280D01*
X64084665Y28471707D01*
X63826693Y28513721D01*
X63712942Y28515210D01*
X63570022Y28517081D01*
X63570019Y28517081D01*
X63565345Y28517142D01*
X63306362Y28481896D01*
X63055433Y28408757D01*
X63051180Y28406797D01*
X63051179Y28406796D01*
X63014659Y28389960D01*
X62818072Y28299332D01*
X62779067Y28273759D01*
X62603404Y28158590D01*
X62603399Y28158586D01*
X62599491Y28156024D01*
X62404494Y27981982D01*
X62237363Y27781030D01*
X62222629Y27756749D01*
X62139386Y27619568D01*
X62101771Y27557581D01*
X62000697Y27316545D01*
X61936359Y27063217D01*
X61935891Y27058566D01*
X61935890Y27058562D01*
X61934721Y27046948D01*
X61910173Y26803161D01*
X36436587Y26803161D01*
X36433545Y26819381D01*
X36432118Y26832103D01*
X36432116Y26832114D01*
X36431331Y26839108D01*
X36429016Y26845757D01*
X36429014Y26845764D01*
X36414326Y26887944D01*
X36411527Y26897085D01*
X36399402Y26942811D01*
X36397527Y26949884D01*
X36392807Y26958706D01*
X36388512Y26966733D01*
X36380618Y26984736D01*
X36377684Y26993162D01*
X36377682Y26993167D01*
X36375368Y26999811D01*
X36345903Y27046965D01*
X36341679Y27054260D01*
X36314082Y27105834D01*
X36309238Y27111319D01*
X36309235Y27111323D01*
X36303998Y27117252D01*
X36291585Y27133890D01*
X36288925Y27138147D01*
X36285192Y27144121D01*
X36280229Y27149119D01*
X36280224Y27149125D01*
X36243286Y27186322D01*
X36238251Y27191698D01*
X36201850Y27232915D01*
X36201843Y27232921D01*
X36197000Y27238405D01*
X36191024Y27242628D01*
X36191021Y27242631D01*
X36187727Y27244959D01*
X36171047Y27259068D01*
X36170257Y27259864D01*
X36170247Y27259872D01*
X36165286Y27264868D01*
X36159342Y27268640D01*
X36159336Y27268645D01*
X36111767Y27298833D01*
X36106561Y27302321D01*
X36092838Y27312020D01*
X36070103Y27328087D01*
X36058539Y27336260D01*
X36058536Y27336262D01*
X36052560Y27340485D01*
X36045633Y27343277D01*
X36033937Y27349282D01*
X36033890Y27349186D01*
X36027552Y27352277D01*
X36021608Y27356049D01*
X35958138Y27378650D01*
X35953387Y27380453D01*
X35888511Y27406598D01*
X35881271Y27407700D01*
X35874862Y27409453D01*
X35874794Y27409161D01*
X35867936Y27410769D01*
X35861300Y27413132D01*
X35841499Y27415493D01*
X35790517Y27421572D01*
X35786485Y27422119D01*
X35720886Y27432099D01*
X35720880Y27432099D01*
X35713651Y27433199D01*
X35706359Y27432606D01*
X35704412Y27432674D01*
X35699076Y27432476D01*
X35692329Y27433280D01*
X35685326Y27432544D01*
X35685325Y27432544D01*
X35666730Y27430590D01*
X35617367Y27425401D01*
X35614459Y27425131D01*
X35578591Y27422213D01*
X35544664Y27419454D01*
X35544662Y27419454D01*
X35537364Y27418860D01*
X35530396Y27416603D01*
X35528291Y27416182D01*
X35527431Y27415949D01*
X35523093Y27415493D01*
X35516426Y27413223D01*
X35516424Y27413223D01*
X35447764Y27389850D01*
X35445992Y27389261D01*
X35369101Y27364352D01*
X35364290Y27361433D01*
X35362003Y27360654D01*
X35357624Y27357960D01*
X35357622Y27357959D01*
X35289592Y27316107D01*
X35288937Y27315707D01*
X35232937Y27281724D01*
X35217893Y27272595D01*
X35213691Y27268885D01*
X35213688Y27268882D01*
X35213420Y27268645D01*
X35209517Y27265198D01*
X35156803Y27212484D01*
X35155866Y27211556D01*
X35136539Y27192629D01*
X35095486Y27152427D01*
X35093756Y27149742D01*
X35090890Y27146571D01*
X33547089Y25602770D01*
X33532677Y25590384D01*
X33521082Y25581851D01*
X33521077Y25581846D01*
X33515182Y25577508D01*
X33510443Y25571930D01*
X33510440Y25571927D01*
X33480965Y25537232D01*
X33474035Y25529716D01*
X33468340Y25524021D01*
X33466060Y25521139D01*
X33450719Y25501749D01*
X33447928Y25498345D01*
X33446117Y25496213D01*
X33400667Y25442715D01*
X33397339Y25436199D01*
X33393972Y25431150D01*
X33390805Y25426021D01*
X33386266Y25420284D01*
X33355345Y25354125D01*
X33353442Y25350231D01*
X33320231Y25285192D01*
X33318492Y25278084D01*
X33316393Y25272441D01*
X33314476Y25266678D01*
X33311378Y25260050D01*
X33309888Y25252888D01*
X33309888Y25252887D01*
X33296514Y25188588D01*
X33295544Y25184304D01*
X33278192Y25113390D01*
X33277500Y25102236D01*
X33277464Y25102238D01*
X33277225Y25098245D01*
X33276851Y25094053D01*
X33275360Y25086885D01*
X33275558Y25079568D01*
X33277454Y25009479D01*
X33277500Y25006072D01*
X33277500Y21911070D01*
X33276067Y21892120D01*
X33272801Y21870651D01*
X31111500Y21870651D01*
X31111500Y27192629D01*
X31131502Y27260750D01*
X31148405Y27281724D01*
X34699547Y30832866D01*
X61914500Y30832866D01*
X61921255Y30770684D01*
X61972385Y30634295D01*
X62059739Y30517739D01*
X62176295Y30430385D01*
X62312684Y30379255D01*
X62374866Y30372500D01*
X64971134Y30372500D01*
X65033316Y30379255D01*
X65169705Y30430385D01*
X65286261Y30517739D01*
X65373615Y30634295D01*
X65424745Y30770684D01*
X65431500Y30832866D01*
X65431500Y33429134D01*
X65424745Y33491316D01*
X65373615Y33627705D01*
X65286261Y33744261D01*
X65169705Y33831615D01*
X65033316Y33882745D01*
X64971134Y33889500D01*
X62374866Y33889500D01*
X62312684Y33882745D01*
X62176295Y33831615D01*
X62059739Y33744261D01*
X61972385Y33627705D01*
X61921255Y33491316D01*
X61914500Y33429134D01*
X61914500Y30832866D01*
X34699547Y30832866D01*
X36683911Y32817230D01*
X36698323Y32829616D01*
X36709918Y32838149D01*
X36709923Y32838154D01*
X36715818Y32842492D01*
X36720557Y32848070D01*
X36720560Y32848073D01*
X36750035Y32882768D01*
X36756965Y32890284D01*
X36965650Y33098969D01*
X36971337Y33104315D01*
X37011917Y33140154D01*
X37017404Y33145000D01*
X37021631Y33150981D01*
X37023011Y33152519D01*
X37025850Y33156202D01*
X37028620Y33159503D01*
X37033721Y33164361D01*
X37060611Y33204833D01*
X37066745Y33213283D01*
X37094194Y33247978D01*
X37098734Y33253716D01*
X37102756Y33262321D01*
X37114003Y33281685D01*
X37119484Y33289440D01*
X37122221Y33296231D01*
X37123160Y33297954D01*
X37124662Y33301239D01*
X37127891Y33306098D01*
X37130867Y33313931D01*
X37146532Y33355172D01*
X37150166Y33363765D01*
X37173621Y33413950D01*
X37175553Y33423236D01*
X37182044Y33444670D01*
X37182861Y33446697D01*
X37182862Y33446702D01*
X37185598Y33453490D01*
X37186699Y33460732D01*
X37186876Y33461376D01*
X37188319Y33465175D01*
X37196167Y33521015D01*
X37197581Y33529137D01*
X37208150Y33579950D01*
X37208150Y33579953D01*
X37209640Y33587115D01*
X37209383Y33596599D01*
X37210771Y33618962D01*
X37211097Y33621105D01*
X37211097Y33621106D01*
X37212199Y33628349D01*
X37211851Y33632623D01*
X37212001Y33633687D01*
X37212299Y33655000D01*
X37211857Y33658942D01*
X37206969Y33702525D01*
X37206230Y33713159D01*
X37205054Y33756599D01*
X37204856Y33763920D01*
X37202422Y33773102D01*
X37198631Y33795161D01*
X37198454Y33797341D01*
X37198453Y33797344D01*
X37197860Y33804637D01*
X37195606Y33811596D01*
X37195221Y33813521D01*
X37194035Y33817834D01*
X37193331Y33824108D01*
X37191015Y33830759D01*
X37191014Y33830763D01*
X37176327Y33872938D01*
X37173526Y33882082D01*
X37171559Y33889500D01*
X37159526Y33934884D01*
X37156072Y33941339D01*
X37156070Y33941344D01*
X37155051Y33943247D01*
X37146278Y33963865D01*
X37145608Y33965933D01*
X37145607Y33965936D01*
X37143351Y33972899D01*
X37139556Y33979153D01*
X37138646Y33981140D01*
X37137368Y33984811D01*
X37107900Y34031970D01*
X37103669Y34039276D01*
X37079536Y34084378D01*
X37076082Y34090833D01*
X37071232Y34096325D01*
X37069795Y34097953D01*
X37056524Y34115986D01*
X37054509Y34119306D01*
X37054509Y34119307D01*
X37051595Y34124108D01*
X37047252Y34129026D01*
X37047315Y34129082D01*
X37047061Y34129427D01*
X37046969Y34129346D01*
X37045492Y34131019D01*
X37045478Y34131034D01*
X37044197Y34132484D01*
X37005029Y34171652D01*
X36999682Y34177341D01*
X36985058Y34193900D01*
X36954957Y34258200D01*
X36953500Y34277306D01*
X36953500Y36205657D01*
X45337775Y36205657D01*
X45338462Y36198651D01*
X45338462Y36198649D01*
X45343049Y36151876D01*
X45343603Y36142995D01*
X45345143Y36086079D01*
X45347020Y36079000D01*
X45349444Y36069859D01*
X45353050Y36049865D01*
X45353692Y36043319D01*
X45353694Y36043311D01*
X45354381Y36036301D01*
X45356604Y36029619D01*
X45356605Y36029613D01*
X45372670Y35981320D01*
X45374902Y35973845D01*
X45390474Y35915116D01*
X45393924Y35908667D01*
X45393926Y35908663D01*
X45396560Y35903740D01*
X45405019Y35884077D01*
X45408094Y35874833D01*
X45440132Y35821931D01*
X45443437Y35816131D01*
X45473918Y35759166D01*
X45479889Y35752405D01*
X45489642Y35739139D01*
X45492598Y35735301D01*
X45496246Y35729277D01*
X45536966Y35687110D01*
X45541921Y35681979D01*
X45545725Y35677860D01*
X45591000Y35626596D01*
X45596976Y35622372D01*
X45602428Y35617481D01*
X45602400Y35617449D01*
X45603907Y35616156D01*
X45604132Y35616428D01*
X45609558Y35611939D01*
X45614455Y35606868D01*
X45620354Y35603008D01*
X45620355Y35603007D01*
X45672781Y35568701D01*
X45676481Y35566184D01*
X45735440Y35524516D01*
X45742228Y35521780D01*
X45744001Y35520814D01*
X45748689Y35518690D01*
X45750955Y35517546D01*
X45756846Y35513690D01*
X45825941Y35487994D01*
X45829119Y35486763D01*
X45899489Y35458402D01*
X45906727Y35457301D01*
X45908653Y35456774D01*
X45911330Y35456238D01*
X45916341Y35454374D01*
X45923326Y35453442D01*
X45993483Y35444081D01*
X45995769Y35443755D01*
X46067115Y35432901D01*
X46067119Y35432901D01*
X46074349Y35431801D01*
X46081287Y35432365D01*
X46085015Y35431868D01*
X46167331Y35439359D01*
X46168371Y35439448D01*
X46243340Y35445546D01*
X46243344Y35445547D01*
X46250637Y35446140D01*
X46254076Y35447254D01*
X46254483Y35447291D01*
X46352488Y35479135D01*
X46379835Y35487994D01*
X46411933Y35498392D01*
X46411936Y35498393D01*
X46418899Y35500649D01*
X46489862Y35543710D01*
X46490709Y35544219D01*
X46528618Y35566818D01*
X46562490Y35587010D01*
X46564379Y35588809D01*
X46565311Y35589494D01*
X46570107Y35592405D01*
X46574306Y35596114D01*
X46574311Y35596117D01*
X46577019Y35598509D01*
X46577023Y35598512D01*
X46578484Y35599803D01*
X46628462Y35649781D01*
X46630665Y35651932D01*
X46680622Y35699505D01*
X46680623Y35699506D01*
X46685721Y35704361D01*
X46689619Y35710228D01*
X46689786Y35710427D01*
X46697214Y35718533D01*
X47859911Y36881230D01*
X47874323Y36893616D01*
X47885918Y36902149D01*
X47885923Y36902154D01*
X47891818Y36906492D01*
X47896557Y36912070D01*
X47896560Y36912073D01*
X47926035Y36946768D01*
X47932965Y36954284D01*
X47938660Y36959979D01*
X47956281Y36982251D01*
X47959072Y36985655D01*
X48001591Y37035703D01*
X48001592Y37035705D01*
X48006333Y37041285D01*
X48009661Y37047801D01*
X48013028Y37052850D01*
X48016195Y37057979D01*
X48020734Y37063716D01*
X48051655Y37129875D01*
X48053561Y37133775D01*
X48053752Y37134149D01*
X48075715Y37177161D01*
X61910173Y37177161D01*
X61922713Y36916092D01*
X61973704Y36659744D01*
X62062026Y36413748D01*
X62077748Y36384487D01*
X62173837Y36205657D01*
X62185737Y36183509D01*
X62188532Y36179766D01*
X62188534Y36179763D01*
X62339330Y35977823D01*
X62339335Y35977817D01*
X62342122Y35974085D01*
X62345431Y35970805D01*
X62345436Y35970799D01*
X62524426Y35793365D01*
X62527743Y35790077D01*
X62531505Y35787319D01*
X62531508Y35787316D01*
X62734750Y35638293D01*
X62738524Y35635526D01*
X62742667Y35633346D01*
X62742669Y35633345D01*
X62965684Y35516011D01*
X62965689Y35516009D01*
X62969834Y35513828D01*
X63128548Y35458402D01*
X63204721Y35431801D01*
X63216590Y35427656D01*
X63221183Y35426784D01*
X63468785Y35379776D01*
X63468788Y35379776D01*
X63473374Y35378905D01*
X63603959Y35373774D01*
X63729875Y35368826D01*
X63729881Y35368826D01*
X63734543Y35368643D01*
X63813977Y35377343D01*
X63989707Y35396588D01*
X63989712Y35396589D01*
X63994360Y35397098D01*
X64107116Y35426784D01*
X64242594Y35462452D01*
X64242596Y35462453D01*
X64247117Y35463643D01*
X64283097Y35479101D01*
X64388802Y35524516D01*
X64487262Y35566818D01*
X64538475Y35598509D01*
X64705547Y35701896D01*
X64705548Y35701896D01*
X64709519Y35704354D01*
X64713082Y35707371D01*
X64713087Y35707374D01*
X64905439Y35870213D01*
X64905440Y35870214D01*
X64909005Y35873232D01*
X64945736Y35915116D01*
X65078257Y36066226D01*
X65078261Y36066231D01*
X65081339Y36069741D01*
X65222733Y36289563D01*
X65330083Y36527871D01*
X65374333Y36684767D01*
X65399760Y36774924D01*
X65399761Y36774927D01*
X65401030Y36779428D01*
X65413981Y36881230D01*
X65433616Y37035579D01*
X65433616Y37035583D01*
X65434014Y37038709D01*
X65434385Y37052850D01*
X65436348Y37127840D01*
X65436431Y37131000D01*
X65428991Y37231113D01*
X65417407Y37387000D01*
X65417406Y37387004D01*
X65417061Y37391652D01*
X65414170Y37404432D01*
X65360408Y37642020D01*
X65359377Y37646577D01*
X65335008Y37709243D01*
X65266340Y37885824D01*
X65266339Y37885827D01*
X65264647Y37890177D01*
X65134951Y38117098D01*
X64973138Y38322357D01*
X64782763Y38501443D01*
X64568009Y38650424D01*
X64543568Y38662477D01*
X64337781Y38763960D01*
X64337778Y38763961D01*
X64333593Y38766025D01*
X64287449Y38780796D01*
X64089123Y38844280D01*
X64084665Y38845707D01*
X63826693Y38887721D01*
X63712942Y38889210D01*
X63570022Y38891081D01*
X63570019Y38891081D01*
X63565345Y38891142D01*
X63306362Y38855896D01*
X63055433Y38782757D01*
X63051180Y38780797D01*
X63051179Y38780796D01*
X63014659Y38763960D01*
X62818072Y38673332D01*
X62779067Y38647759D01*
X62603404Y38532590D01*
X62603399Y38532586D01*
X62599491Y38530024D01*
X62404494Y38355982D01*
X62237363Y38155030D01*
X62101771Y37931581D01*
X62000697Y37690545D01*
X61936359Y37437217D01*
X61910173Y37177161D01*
X48075715Y37177161D01*
X48086769Y37198808D01*
X48088508Y37205916D01*
X48090607Y37211559D01*
X48092524Y37217322D01*
X48095622Y37223950D01*
X48110487Y37295417D01*
X48111457Y37299701D01*
X48127473Y37365155D01*
X48128808Y37370610D01*
X48129500Y37381764D01*
X48129536Y37381762D01*
X48129775Y37385755D01*
X48130149Y37389947D01*
X48131640Y37397115D01*
X48129546Y37474521D01*
X48129500Y37477928D01*
X48129500Y41159866D01*
X61914500Y41159866D01*
X61921255Y41097684D01*
X61972385Y40961295D01*
X62059739Y40844739D01*
X62176295Y40757385D01*
X62312684Y40706255D01*
X62374866Y40699500D01*
X64971134Y40699500D01*
X65033316Y40706255D01*
X65169705Y40757385D01*
X65286261Y40844739D01*
X65373615Y40961295D01*
X65424745Y41097684D01*
X65431500Y41159866D01*
X65431500Y43756134D01*
X65424745Y43818316D01*
X65373615Y43954705D01*
X65286261Y44071261D01*
X65169705Y44158615D01*
X65033316Y44209745D01*
X64971134Y44216500D01*
X62374866Y44216500D01*
X62312684Y44209745D01*
X62176295Y44158615D01*
X62059739Y44071261D01*
X61972385Y43954705D01*
X61921255Y43818316D01*
X61914500Y43756134D01*
X61914500Y41159866D01*
X48129500Y41159866D01*
X48129500Y46292849D01*
X48130726Y46310385D01*
X48133452Y46329779D01*
X48133452Y46329782D01*
X48134001Y46333687D01*
X48134299Y46355000D01*
X48129617Y46396742D01*
X48129500Y46398117D01*
X48129500Y46399293D01*
X48125040Y46437548D01*
X48115331Y46524108D01*
X48114756Y46525760D01*
X48114182Y46530681D01*
X48086393Y46607235D01*
X48085880Y46608678D01*
X48061685Y46678157D01*
X48059368Y46684811D01*
X48057300Y46688122D01*
X48056332Y46690055D01*
X48053833Y46696937D01*
X48011041Y46762206D01*
X48009575Y46764496D01*
X47972925Y46823147D01*
X47969192Y46829121D01*
X47964744Y46833601D01*
X47962125Y46837228D01*
X47960872Y46838726D01*
X47956856Y46844852D01*
X47951540Y46849887D01*
X47951535Y46849894D01*
X47902816Y46896046D01*
X47900084Y46898714D01*
X47849286Y46949868D01*
X47843334Y46953646D01*
X47838567Y46957478D01*
X47835481Y46960173D01*
X47833770Y46961453D01*
X47828453Y46966490D01*
X47801841Y46981948D01*
X47767334Y47001991D01*
X47763138Y47004540D01*
X47705608Y47041049D01*
X47698972Y47043412D01*
X47692637Y47046502D01*
X47692719Y47046670D01*
X47684087Y47050672D01*
X47681841Y47051649D01*
X47675510Y47055326D01*
X47611493Y47074715D01*
X47605754Y47076605D01*
X47571412Y47088834D01*
X47545300Y47098132D01*
X47537952Y47099008D01*
X47516346Y47103532D01*
X47506233Y47106595D01*
X47443282Y47110501D01*
X47436186Y47111143D01*
X47376329Y47118280D01*
X47369326Y47117544D01*
X47369323Y47117544D01*
X47365100Y47117100D01*
X47344129Y47116652D01*
X47342634Y47116745D01*
X47329702Y47117547D01*
X47322487Y47116307D01*
X47322483Y47116307D01*
X47271313Y47107514D01*
X47263145Y47106384D01*
X47214102Y47101230D01*
X47214099Y47101229D01*
X47207093Y47100493D01*
X47200424Y47098223D01*
X47200416Y47098221D01*
X47192724Y47095602D01*
X47173461Y47090700D01*
X47155386Y47087594D01*
X47111460Y47068904D01*
X47104408Y47065903D01*
X47095681Y47062566D01*
X47046003Y47045654D01*
X47029752Y47035656D01*
X47013075Y47027040D01*
X46999370Y47021209D01*
X46999365Y47021206D01*
X46992636Y47018343D01*
X46986745Y47014008D01*
X46986742Y47014006D01*
X46970416Y47001991D01*
X46951105Y46987780D01*
X46942459Y46981953D01*
X46925475Y46971505D01*
X46907068Y46960181D01*
X46907065Y46960179D01*
X46901066Y46956488D01*
X46896035Y46951561D01*
X46896031Y46951558D01*
X46884666Y46940428D01*
X46871192Y46928971D01*
X46856083Y46917852D01*
X46856076Y46917846D01*
X46850182Y46913508D01*
X46845440Y46907926D01*
X46819292Y46877148D01*
X46811431Y46868710D01*
X46779486Y46837427D01*
X46775669Y46831504D01*
X46764950Y46814871D01*
X46755065Y46801548D01*
X46735667Y46778715D01*
X46715724Y46739658D01*
X46709418Y46728703D01*
X46687304Y46694390D01*
X46684896Y46687774D01*
X46684893Y46687768D01*
X46676794Y46665514D01*
X46670609Y46651307D01*
X46655231Y46621192D01*
X46653491Y46614083D01*
X46653490Y46614079D01*
X46645724Y46582339D01*
X46641742Y46569209D01*
X46629103Y46534484D01*
X46628220Y46527492D01*
X46624764Y46500142D01*
X46622148Y46485993D01*
X46613192Y46449390D01*
X46612500Y46438236D01*
X46612500Y46410983D01*
X46611506Y46395191D01*
X46607775Y46365657D01*
X46610523Y46337634D01*
X46611899Y46323598D01*
X46612500Y46311302D01*
X46612500Y37831371D01*
X46592498Y37763250D01*
X46575595Y37742276D01*
X45570803Y36737484D01*
X45569866Y36736556D01*
X45509486Y36677427D01*
X45505668Y36671502D01*
X45505665Y36671499D01*
X45486528Y36641806D01*
X45479432Y36631885D01*
X45451266Y36596284D01*
X45439237Y36570546D01*
X45431004Y36555649D01*
X45417304Y36534390D01*
X45401481Y36490916D01*
X45397235Y36480676D01*
X45376378Y36436050D01*
X45372146Y36415700D01*
X45371384Y36412039D01*
X45366425Y36394602D01*
X45361512Y36381104D01*
X45361511Y36381099D01*
X45359103Y36374484D01*
X45358220Y36367497D01*
X45358220Y36367496D01*
X45352817Y36324727D01*
X45351172Y36314865D01*
X45340360Y36262885D01*
X45340558Y36255568D01*
X45340918Y36242240D01*
X45339971Y36223046D01*
X45338658Y36212648D01*
X45337775Y36205657D01*
X36953500Y36205657D01*
X36953500Y40450849D01*
X36954726Y40468385D01*
X36957452Y40487779D01*
X36957452Y40487782D01*
X36958001Y40491687D01*
X36958299Y40513000D01*
X36953617Y40554742D01*
X36953500Y40556117D01*
X36953500Y40557293D01*
X36949040Y40595548D01*
X36939331Y40682108D01*
X36938756Y40683760D01*
X36938182Y40688681D01*
X36910393Y40765235D01*
X36909880Y40766678D01*
X36885685Y40836157D01*
X36883368Y40842811D01*
X36881300Y40846122D01*
X36880332Y40848055D01*
X36877833Y40854937D01*
X36835041Y40920206D01*
X36833575Y40922496D01*
X36796925Y40981147D01*
X36793192Y40987121D01*
X36788744Y40991601D01*
X36786125Y40995228D01*
X36784872Y40996726D01*
X36780856Y41002852D01*
X36775540Y41007887D01*
X36775535Y41007894D01*
X36726816Y41054046D01*
X36724084Y41056714D01*
X36673286Y41107868D01*
X36667334Y41111646D01*
X36662567Y41115478D01*
X36659481Y41118173D01*
X36657770Y41119453D01*
X36652453Y41124490D01*
X36625841Y41139948D01*
X36591334Y41159991D01*
X36587138Y41162540D01*
X36529608Y41199049D01*
X36522972Y41201412D01*
X36516637Y41204502D01*
X36516719Y41204670D01*
X36508087Y41208672D01*
X36505841Y41209649D01*
X36499510Y41213326D01*
X36435493Y41232715D01*
X36429754Y41234605D01*
X36395412Y41246834D01*
X36369300Y41256132D01*
X36361952Y41257008D01*
X36340346Y41261532D01*
X36330233Y41264595D01*
X36267282Y41268501D01*
X36260186Y41269143D01*
X36200329Y41276280D01*
X36193326Y41275544D01*
X36193323Y41275544D01*
X36189100Y41275100D01*
X36168129Y41274652D01*
X36166634Y41274745D01*
X36153702Y41275547D01*
X36146487Y41274307D01*
X36146483Y41274307D01*
X36095313Y41265514D01*
X36087145Y41264384D01*
X36038102Y41259230D01*
X36038099Y41259229D01*
X36031093Y41258493D01*
X36024424Y41256223D01*
X36024416Y41256221D01*
X36016724Y41253602D01*
X35997461Y41248700D01*
X35979386Y41245594D01*
X35935460Y41226904D01*
X35928408Y41223903D01*
X35919681Y41220566D01*
X35870003Y41203654D01*
X35853752Y41193656D01*
X35837075Y41185040D01*
X35823370Y41179209D01*
X35823365Y41179206D01*
X35816636Y41176343D01*
X35810745Y41172008D01*
X35810742Y41172006D01*
X35794416Y41159991D01*
X35775105Y41145780D01*
X35766459Y41139953D01*
X35749475Y41129505D01*
X35731068Y41118181D01*
X35731065Y41118179D01*
X35725066Y41114488D01*
X35720035Y41109561D01*
X35720031Y41109558D01*
X35708666Y41098428D01*
X35695192Y41086971D01*
X35680083Y41075852D01*
X35680076Y41075846D01*
X35674182Y41071508D01*
X35669440Y41065926D01*
X35643292Y41035148D01*
X35635431Y41026710D01*
X35603486Y40995427D01*
X35599669Y40989504D01*
X35588950Y40972871D01*
X35579065Y40959548D01*
X35559667Y40936715D01*
X35539724Y40897658D01*
X35533418Y40886703D01*
X35511304Y40852390D01*
X35508896Y40845774D01*
X35508893Y40845768D01*
X35500794Y40823514D01*
X35494609Y40809307D01*
X35479231Y40779192D01*
X35477491Y40772083D01*
X35477490Y40772079D01*
X35469724Y40740339D01*
X35465742Y40727209D01*
X35453103Y40692484D01*
X35452220Y40685492D01*
X35448764Y40658142D01*
X35446148Y40643993D01*
X35437192Y40607390D01*
X35436500Y40596236D01*
X35436500Y40568983D01*
X35435506Y40553191D01*
X35431775Y40523657D01*
X35434523Y40495634D01*
X35435899Y40481598D01*
X35436500Y40469302D01*
X35436500Y33976070D01*
X35435067Y33957120D01*
X35432957Y33943247D01*
X35431801Y33935651D01*
X35432394Y33928359D01*
X35432394Y33928356D01*
X35436085Y33882982D01*
X35436500Y33872767D01*
X35436500Y33767371D01*
X35416498Y33699250D01*
X35399595Y33678276D01*
X29864089Y28142770D01*
X29849677Y28130384D01*
X29838082Y28121851D01*
X29838077Y28121846D01*
X29832182Y28117508D01*
X29827443Y28111930D01*
X29827440Y28111927D01*
X29797965Y28077232D01*
X29791035Y28069716D01*
X29785340Y28064021D01*
X29783060Y28061139D01*
X29767719Y28041749D01*
X29764928Y28038345D01*
X29722409Y27988297D01*
X29717667Y27982715D01*
X29714339Y27976199D01*
X29710972Y27971150D01*
X29707805Y27966021D01*
X29703266Y27960284D01*
X29672345Y27894125D01*
X29670442Y27890231D01*
X29637231Y27825192D01*
X29635492Y27818084D01*
X29633393Y27812441D01*
X29631476Y27806678D01*
X29628378Y27800050D01*
X29626888Y27792888D01*
X29626888Y27792887D01*
X29613514Y27728588D01*
X29612544Y27724304D01*
X29595192Y27653390D01*
X29594500Y27642236D01*
X29594464Y27642238D01*
X29594225Y27638245D01*
X29593851Y27634053D01*
X29592360Y27626885D01*
X29592558Y27619568D01*
X29594454Y27549479D01*
X29594500Y27546072D01*
X29594500Y5319371D01*
X29574498Y5251250D01*
X29557595Y5230276D01*
X29362724Y5035405D01*
X29300412Y5001379D01*
X29273629Y4998500D01*
X28771867Y4998500D01*
X28703746Y5018502D01*
X28668655Y5052228D01*
X28646198Y5084300D01*
X28484300Y5246198D01*
X28479792Y5249355D01*
X28479789Y5249357D01*
X28329716Y5354439D01*
X28296749Y5377523D01*
X28291767Y5379846D01*
X28291762Y5379849D01*
X28257543Y5395805D01*
X28204258Y5442722D01*
X28184797Y5510999D01*
X28205339Y5578959D01*
X28257543Y5624195D01*
X28291762Y5640151D01*
X28291767Y5640154D01*
X28296749Y5642477D01*
X28416125Y5726065D01*
X28479789Y5770643D01*
X28479792Y5770645D01*
X28484300Y5773802D01*
X28646198Y5935700D01*
X28777523Y6123251D01*
X28779846Y6128233D01*
X28779849Y6128238D01*
X28871961Y6325775D01*
X28871961Y6325776D01*
X28874284Y6330757D01*
X28890912Y6392811D01*
X28932119Y6546598D01*
X28932119Y6546600D01*
X28933543Y6551913D01*
X28953498Y6780000D01*
X28933543Y7008087D01*
X28932119Y7013402D01*
X28875707Y7223933D01*
X28875706Y7223935D01*
X28874284Y7229243D01*
X28849513Y7282365D01*
X28779849Y7431762D01*
X28779846Y7431767D01*
X28777523Y7436749D01*
X28646198Y7624300D01*
X28484300Y7786198D01*
X28479792Y7789355D01*
X28479789Y7789357D01*
X28401611Y7844098D01*
X28296749Y7917523D01*
X28291767Y7919846D01*
X28291762Y7919849D01*
X28257543Y7935805D01*
X28204258Y7982722D01*
X28184797Y8050999D01*
X28205339Y8118959D01*
X28257543Y8164195D01*
X28291762Y8180151D01*
X28291767Y8180154D01*
X28296749Y8182477D01*
X28476290Y8308193D01*
X28479789Y8310643D01*
X28479792Y8310645D01*
X28484300Y8313802D01*
X28646198Y8475700D01*
X28777523Y8663251D01*
X28779846Y8668233D01*
X28779849Y8668238D01*
X28871961Y8865775D01*
X28871961Y8865776D01*
X28874284Y8870757D01*
X28887176Y8918868D01*
X28932119Y9086598D01*
X28932119Y9086600D01*
X28933543Y9091913D01*
X28953498Y9320000D01*
X28933543Y9548087D01*
X28874284Y9769243D01*
X28841705Y9839109D01*
X28779849Y9971762D01*
X28779846Y9971767D01*
X28777523Y9976749D01*
X28646198Y10164300D01*
X28484300Y10326198D01*
X28479792Y10329355D01*
X28479789Y10329357D01*
X28365867Y10409126D01*
X28296749Y10457523D01*
X28291767Y10459846D01*
X28291762Y10459849D01*
X28257543Y10475805D01*
X28204258Y10522722D01*
X28184797Y10590999D01*
X28205339Y10658959D01*
X28257543Y10704195D01*
X28291762Y10720151D01*
X28291767Y10720154D01*
X28296749Y10722477D01*
X28401611Y10795902D01*
X28479789Y10850643D01*
X28479792Y10850645D01*
X28484300Y10853802D01*
X28646198Y11015700D01*
X28777523Y11203251D01*
X28779846Y11208233D01*
X28779849Y11208238D01*
X28871961Y11405775D01*
X28871961Y11405776D01*
X28874284Y11410757D01*
X28901081Y11510762D01*
X28932119Y11626598D01*
X28932119Y11626600D01*
X28933543Y11631913D01*
X28953498Y11860000D01*
X28933543Y12088087D01*
X28926362Y12114886D01*
X28875707Y12303933D01*
X28875706Y12303935D01*
X28874284Y12309243D01*
X28870812Y12316689D01*
X28779849Y12511762D01*
X28779846Y12511767D01*
X28777523Y12516749D01*
X28692820Y12637717D01*
X28649357Y12699789D01*
X28649355Y12699792D01*
X28646198Y12704300D01*
X28484300Y12866198D01*
X28479792Y12869355D01*
X28479789Y12869357D01*
X28380965Y12938554D01*
X28296749Y12997523D01*
X28291767Y12999846D01*
X28291762Y12999849D01*
X28257543Y13015805D01*
X28204258Y13062722D01*
X28184797Y13130999D01*
X28205339Y13198959D01*
X28257543Y13244195D01*
X28291762Y13260151D01*
X28291767Y13260154D01*
X28296749Y13262477D01*
X28401611Y13335902D01*
X28479789Y13390643D01*
X28479792Y13390645D01*
X28484300Y13393802D01*
X28646198Y13555700D01*
X28777523Y13743251D01*
X28779846Y13748233D01*
X28779849Y13748238D01*
X28871961Y13945775D01*
X28871961Y13945776D01*
X28874284Y13950757D01*
X28933543Y14171913D01*
X28953498Y14400000D01*
X28933543Y14628087D01*
X28930030Y14641198D01*
X28875707Y14843933D01*
X28875706Y14843935D01*
X28874284Y14849243D01*
X28841582Y14919374D01*
X28779849Y15051762D01*
X28779846Y15051767D01*
X28777523Y15056749D01*
X28646198Y15244300D01*
X28484300Y15406198D01*
X28479792Y15409355D01*
X28479789Y15409357D01*
X28401611Y15464098D01*
X28296749Y15537523D01*
X28291767Y15539846D01*
X28291762Y15539849D01*
X28257543Y15555805D01*
X28204258Y15602722D01*
X28184797Y15670999D01*
X28205339Y15738959D01*
X28257543Y15784195D01*
X28291762Y15800151D01*
X28291767Y15800154D01*
X28296749Y15802477D01*
X28402213Y15876324D01*
X28479789Y15930643D01*
X28479792Y15930645D01*
X28484300Y15933802D01*
X28646198Y16095700D01*
X28777523Y16283251D01*
X28779846Y16288233D01*
X28779849Y16288238D01*
X28871961Y16485775D01*
X28871961Y16485776D01*
X28874284Y16490757D01*
X28904535Y16603652D01*
X28932119Y16706598D01*
X28932119Y16706600D01*
X28933543Y16711913D01*
X28953498Y16940000D01*
X28933543Y17168087D01*
X28874284Y17389243D01*
X28792613Y17564389D01*
X28779849Y17591762D01*
X28779846Y17591767D01*
X28777523Y17596749D01*
X28675800Y17742024D01*
X28649357Y17779789D01*
X28649355Y17779792D01*
X28646198Y17784300D01*
X28484300Y17946198D01*
X28479792Y17949355D01*
X28479789Y17949357D01*
X28360523Y18032868D01*
X28296749Y18077523D01*
X28291767Y18079846D01*
X28291762Y18079849D01*
X28257543Y18095805D01*
X28204258Y18142722D01*
X28184797Y18210999D01*
X28205339Y18278959D01*
X28257543Y18324195D01*
X28291762Y18340151D01*
X28291767Y18340154D01*
X28296749Y18342477D01*
X28436910Y18440619D01*
X28479789Y18470643D01*
X28479792Y18470645D01*
X28484300Y18473802D01*
X28646198Y18635700D01*
X28777523Y18823251D01*
X28779846Y18828233D01*
X28779849Y18828238D01*
X28871961Y19025775D01*
X28871961Y19025776D01*
X28874284Y19030757D01*
X28898464Y19120995D01*
X28932119Y19246598D01*
X28932119Y19246600D01*
X28933543Y19251913D01*
X28953498Y19480000D01*
X28933543Y19708087D01*
X28902555Y19823735D01*
X28875707Y19923933D01*
X28875706Y19923935D01*
X28874284Y19929243D01*
X28850416Y19980429D01*
X28779849Y20131762D01*
X28779846Y20131767D01*
X28777523Y20136749D01*
X28673731Y20284979D01*
X28649357Y20319789D01*
X28649355Y20319792D01*
X28646198Y20324300D01*
X28484300Y20486198D01*
X28479792Y20489355D01*
X28479789Y20489357D01*
X28401611Y20544098D01*
X28296749Y20617523D01*
X28291767Y20619846D01*
X28291762Y20619849D01*
X28257543Y20635805D01*
X28204258Y20682722D01*
X28184797Y20750999D01*
X28205339Y20818959D01*
X28257543Y20864195D01*
X28291762Y20880151D01*
X28291767Y20880154D01*
X28296749Y20882477D01*
X28404254Y20957753D01*
X28479789Y21010643D01*
X28479792Y21010645D01*
X28484300Y21013802D01*
X28646198Y21175700D01*
X28777523Y21363251D01*
X28779846Y21368233D01*
X28779849Y21368238D01*
X28871961Y21565775D01*
X28871961Y21565776D01*
X28874284Y21570757D01*
X28880060Y21592311D01*
X28932119Y21786598D01*
X28932119Y21786600D01*
X28933543Y21791913D01*
X28953498Y22020000D01*
X28933543Y22248087D01*
X28897226Y22383624D01*
X28875707Y22463933D01*
X28875706Y22463935D01*
X28874284Y22469243D01*
X28787252Y22655886D01*
X28779849Y22671762D01*
X28779846Y22671767D01*
X28777523Y22676749D01*
X28670194Y22830030D01*
X28649357Y22859789D01*
X28649355Y22859792D01*
X28646198Y22864300D01*
X28484300Y23026198D01*
X28479792Y23029355D01*
X28479789Y23029357D01*
X28354170Y23117316D01*
X28296749Y23157523D01*
X28291767Y23159846D01*
X28291762Y23159849D01*
X28257543Y23175805D01*
X28204258Y23222722D01*
X28184797Y23290999D01*
X28205339Y23358959D01*
X28257543Y23404195D01*
X28291762Y23420151D01*
X28291767Y23420154D01*
X28296749Y23422477D01*
X28407967Y23500353D01*
X28479789Y23550643D01*
X28479792Y23550645D01*
X28484300Y23553802D01*
X28646198Y23715700D01*
X28777523Y23903251D01*
X28779846Y23908233D01*
X28779849Y23908238D01*
X28871961Y24105775D01*
X28871961Y24105776D01*
X28874284Y24110757D01*
X28933543Y24331913D01*
X28953498Y24560000D01*
X28933543Y24788087D01*
X28874284Y25009243D01*
X28838079Y25086885D01*
X28779849Y25211762D01*
X28779846Y25211767D01*
X28777523Y25216749D01*
X28646198Y25404300D01*
X28484300Y25566198D01*
X28479792Y25569355D01*
X28479789Y25569357D01*
X28401611Y25624098D01*
X28296749Y25697523D01*
X28291767Y25699846D01*
X28291762Y25699849D01*
X28257543Y25715805D01*
X28204258Y25762722D01*
X28184797Y25830999D01*
X28205339Y25898959D01*
X28257543Y25944195D01*
X28291762Y25960151D01*
X28291767Y25960154D01*
X28296749Y25962477D01*
X28413393Y26044152D01*
X28479789Y26090643D01*
X28479792Y26090645D01*
X28484300Y26093802D01*
X28646198Y26255700D01*
X28651290Y26262971D01*
X28751039Y26405428D01*
X28777523Y26443251D01*
X28779846Y26448233D01*
X28779849Y26448238D01*
X28871961Y26645775D01*
X28871961Y26645776D01*
X28874284Y26650757D01*
X28878023Y26664709D01*
X28932119Y26866598D01*
X28932119Y26866600D01*
X28933543Y26871913D01*
X28953498Y27100000D01*
X28933543Y27328087D01*
X28928319Y27347582D01*
X28875707Y27543933D01*
X28875706Y27543935D01*
X28874284Y27549243D01*
X28838079Y27626885D01*
X28779849Y27751762D01*
X28779846Y27751767D01*
X28777523Y27756749D01*
X28646198Y27944300D01*
X28484300Y28106198D01*
X28479792Y28109355D01*
X28479789Y28109357D01*
X28401611Y28164098D01*
X28296749Y28237523D01*
X28291767Y28239846D01*
X28291762Y28239849D01*
X28257543Y28255805D01*
X28204258Y28302722D01*
X28184797Y28370999D01*
X28205339Y28438959D01*
X28257543Y28484195D01*
X28291762Y28500151D01*
X28291767Y28500154D01*
X28296749Y28502477D01*
X28401611Y28575902D01*
X28479789Y28630643D01*
X28479792Y28630645D01*
X28484300Y28633802D01*
X28646198Y28795700D01*
X28777523Y28983251D01*
X28779846Y28988233D01*
X28779849Y28988238D01*
X28871961Y29185775D01*
X28871961Y29185776D01*
X28874284Y29190757D01*
X28933543Y29411913D01*
X28953498Y29640000D01*
X28933543Y29868087D01*
X28874284Y30089243D01*
X28855908Y30128651D01*
X28779849Y30291762D01*
X28779846Y30291767D01*
X28777523Y30296749D01*
X28683950Y30430385D01*
X28649357Y30479789D01*
X28649355Y30479792D01*
X28646198Y30484300D01*
X28484300Y30646198D01*
X28479792Y30649355D01*
X28479789Y30649357D01*
X28401611Y30704098D01*
X28296749Y30777523D01*
X28291767Y30779846D01*
X28291762Y30779849D01*
X28256951Y30796081D01*
X28203666Y30842998D01*
X28184205Y30911275D01*
X28204747Y30979235D01*
X28256951Y31024471D01*
X28291511Y31040586D01*
X28301007Y31046069D01*
X28479467Y31171028D01*
X28487875Y31178084D01*
X28641916Y31332125D01*
X28648972Y31340533D01*
X28773931Y31518993D01*
X28779414Y31528489D01*
X28871490Y31725947D01*
X28875236Y31736239D01*
X28921394Y31908503D01*
X28921058Y31922599D01*
X28913116Y31926000D01*
X26372033Y31926000D01*
X26358502Y31922027D01*
X26357273Y31913478D01*
X26404764Y31736239D01*
X26408510Y31725947D01*
X26500586Y31528489D01*
X26506069Y31518993D01*
X26631028Y31340533D01*
X26638084Y31332125D01*
X26792125Y31178084D01*
X26800533Y31171028D01*
X26978993Y31046069D01*
X26988489Y31040586D01*
X27023049Y31024471D01*
X27076334Y30977554D01*
X27095795Y30909277D01*
X27075253Y30841317D01*
X27023049Y30796081D01*
X26988238Y30779849D01*
X26988233Y30779846D01*
X26983251Y30777523D01*
X26878389Y30704098D01*
X26800211Y30649357D01*
X26800208Y30649355D01*
X26795700Y30646198D01*
X26633802Y30484300D01*
X26630645Y30479792D01*
X26630643Y30479789D01*
X26596050Y30430385D01*
X26502477Y30296749D01*
X26500154Y30291767D01*
X26500151Y30291762D01*
X26424092Y30128651D01*
X26405716Y30089243D01*
X26346457Y29868087D01*
X26326502Y29640000D01*
X26346457Y29411913D01*
X26405716Y29190757D01*
X26408039Y29185776D01*
X26408039Y29185775D01*
X26500151Y28988238D01*
X26500154Y28988233D01*
X26502477Y28983251D01*
X26633802Y28795700D01*
X26795700Y28633802D01*
X26800208Y28630645D01*
X26800211Y28630643D01*
X26878389Y28575902D01*
X26983251Y28502477D01*
X26988233Y28500154D01*
X26988238Y28500151D01*
X27022457Y28484195D01*
X27075742Y28437278D01*
X27095203Y28369001D01*
X27074661Y28301041D01*
X27022457Y28255805D01*
X26988238Y28239849D01*
X26988233Y28239846D01*
X26983251Y28237523D01*
X26878389Y28164098D01*
X26800211Y28109357D01*
X26800208Y28109355D01*
X26795700Y28106198D01*
X26633802Y27944300D01*
X26502477Y27756749D01*
X26500154Y27751767D01*
X26500151Y27751762D01*
X26441921Y27626885D01*
X26405716Y27549243D01*
X26404294Y27543935D01*
X26404293Y27543933D01*
X26351681Y27347582D01*
X26346457Y27328087D01*
X26341857Y27275506D01*
X26337677Y27227733D01*
X26311813Y27161615D01*
X26254310Y27119976D01*
X26183423Y27116035D01*
X26123061Y27149620D01*
X24420905Y28851776D01*
X24386879Y28914088D01*
X24384000Y28940871D01*
X24384000Y34720000D01*
X26326502Y34720000D01*
X26346457Y34491913D01*
X26405716Y34270757D01*
X26408039Y34265776D01*
X26408039Y34265775D01*
X26500151Y34068238D01*
X26500154Y34068233D01*
X26502477Y34063251D01*
X26559935Y33981193D01*
X26628272Y33883598D01*
X26633802Y33875700D01*
X26795700Y33713802D01*
X26800208Y33710645D01*
X26800211Y33710643D01*
X26811805Y33702525D01*
X26983251Y33582477D01*
X26988233Y33580154D01*
X26988238Y33580151D01*
X27023049Y33563919D01*
X27076334Y33517002D01*
X27095795Y33448725D01*
X27075253Y33380765D01*
X27023049Y33335529D01*
X26988489Y33319414D01*
X26978993Y33313931D01*
X26800533Y33188972D01*
X26792125Y33181916D01*
X26638084Y33027875D01*
X26631028Y33019467D01*
X26506069Y32841007D01*
X26500586Y32831511D01*
X26408510Y32634053D01*
X26404764Y32623761D01*
X26358606Y32451497D01*
X26358942Y32437401D01*
X26366884Y32434000D01*
X28907967Y32434000D01*
X28921498Y32437973D01*
X28922727Y32446522D01*
X28875236Y32623761D01*
X28871490Y32634053D01*
X28779414Y32831511D01*
X28773931Y32841007D01*
X28648972Y33019467D01*
X28641916Y33027875D01*
X28487875Y33181916D01*
X28479467Y33188972D01*
X28301007Y33313931D01*
X28291511Y33319414D01*
X28256951Y33335529D01*
X28203666Y33382446D01*
X28184205Y33450723D01*
X28204747Y33518683D01*
X28256951Y33563919D01*
X28291762Y33580151D01*
X28291767Y33580154D01*
X28296749Y33582477D01*
X28468195Y33702525D01*
X28479789Y33710643D01*
X28479792Y33710645D01*
X28484300Y33713802D01*
X28646198Y33875700D01*
X28651729Y33883598D01*
X28720065Y33981193D01*
X28777523Y34063251D01*
X28779846Y34068233D01*
X28779849Y34068238D01*
X28871961Y34265775D01*
X28871961Y34265776D01*
X28874284Y34270757D01*
X28933543Y34491913D01*
X28953498Y34720000D01*
X28933543Y34948087D01*
X28874284Y35169243D01*
X28781066Y35369152D01*
X28779849Y35371762D01*
X28779846Y35371767D01*
X28777523Y35376749D01*
X28681539Y35513828D01*
X28649357Y35559789D01*
X28649355Y35559792D01*
X28646198Y35564300D01*
X28484300Y35726198D01*
X28479792Y35729355D01*
X28479789Y35729357D01*
X28351664Y35819071D01*
X28296749Y35857523D01*
X28291767Y35859846D01*
X28291762Y35859849D01*
X28257543Y35875805D01*
X28204258Y35922722D01*
X28184797Y35990999D01*
X28205339Y36058959D01*
X28257543Y36104195D01*
X28291762Y36120151D01*
X28291767Y36120154D01*
X28296749Y36122477D01*
X28440376Y36223046D01*
X28479789Y36250643D01*
X28479792Y36250645D01*
X28484300Y36253802D01*
X28646198Y36415700D01*
X28660448Y36436050D01*
X28704098Y36498389D01*
X28777523Y36603251D01*
X28779846Y36608233D01*
X28779849Y36608238D01*
X28871961Y36805775D01*
X28871961Y36805776D01*
X28874284Y36810757D01*
X28894975Y36887974D01*
X28932119Y37026598D01*
X28932119Y37026600D01*
X28933543Y37031913D01*
X28953498Y37260000D01*
X28933543Y37488087D01*
X28932119Y37493402D01*
X28875707Y37703933D01*
X28875706Y37703935D01*
X28874284Y37709243D01*
X28858881Y37742276D01*
X28779849Y37911762D01*
X28779846Y37911767D01*
X28777523Y37916749D01*
X28646198Y38104300D01*
X28484300Y38266198D01*
X28479792Y38269355D01*
X28479789Y38269357D01*
X28361207Y38352389D01*
X28296749Y38397523D01*
X28291767Y38399846D01*
X28291762Y38399849D01*
X28257543Y38415805D01*
X28204258Y38462722D01*
X28184797Y38530999D01*
X28205339Y38598959D01*
X28257543Y38644195D01*
X28291762Y38660151D01*
X28291767Y38660154D01*
X28296749Y38662477D01*
X28401611Y38735902D01*
X28479789Y38790643D01*
X28479792Y38790645D01*
X28484300Y38793802D01*
X28646198Y38955700D01*
X28777523Y39143251D01*
X28779846Y39148233D01*
X28779849Y39148238D01*
X28871961Y39345775D01*
X28871961Y39345776D01*
X28874284Y39350757D01*
X28933543Y39571913D01*
X28953498Y39800000D01*
X28933543Y40028087D01*
X28874284Y40249243D01*
X28871961Y40254225D01*
X28779849Y40451762D01*
X28779846Y40451767D01*
X28777523Y40456749D01*
X28672043Y40607390D01*
X28649357Y40639789D01*
X28649355Y40639792D01*
X28646198Y40644300D01*
X28484300Y40806198D01*
X28479792Y40809355D01*
X28479789Y40809357D01*
X28353682Y40897658D01*
X28296749Y40937523D01*
X28291767Y40939846D01*
X28291762Y40939849D01*
X28094225Y41031961D01*
X28094224Y41031961D01*
X28089243Y41034284D01*
X28083935Y41035706D01*
X28083933Y41035707D01*
X27873402Y41092119D01*
X27873400Y41092119D01*
X27868087Y41093543D01*
X27640000Y41113498D01*
X27411913Y41093543D01*
X27406600Y41092119D01*
X27406598Y41092119D01*
X27196067Y41035707D01*
X27196065Y41035706D01*
X27190757Y41034284D01*
X27185776Y41031961D01*
X27185775Y41031961D01*
X26988238Y40939849D01*
X26988233Y40939846D01*
X26983251Y40937523D01*
X26926318Y40897658D01*
X26800211Y40809357D01*
X26800208Y40809355D01*
X26795700Y40806198D01*
X26633802Y40644300D01*
X26630645Y40639792D01*
X26630643Y40639789D01*
X26607957Y40607390D01*
X26502477Y40456749D01*
X26500154Y40451767D01*
X26500151Y40451762D01*
X26408039Y40254225D01*
X26405716Y40249243D01*
X26346457Y40028087D01*
X26326502Y39800000D01*
X26346457Y39571913D01*
X26405716Y39350757D01*
X26408039Y39345776D01*
X26408039Y39345775D01*
X26500151Y39148238D01*
X26500154Y39148233D01*
X26502477Y39143251D01*
X26633802Y38955700D01*
X26795700Y38793802D01*
X26800208Y38790645D01*
X26800211Y38790643D01*
X26878389Y38735902D01*
X26983251Y38662477D01*
X26988233Y38660154D01*
X26988238Y38660151D01*
X27022457Y38644195D01*
X27075742Y38597278D01*
X27095203Y38529001D01*
X27074661Y38461041D01*
X27022457Y38415805D01*
X26988238Y38399849D01*
X26988233Y38399846D01*
X26983251Y38397523D01*
X26918793Y38352389D01*
X26800211Y38269357D01*
X26800208Y38269355D01*
X26795700Y38266198D01*
X26633802Y38104300D01*
X26502477Y37916749D01*
X26500154Y37911767D01*
X26500151Y37911762D01*
X26421119Y37742276D01*
X26405716Y37709243D01*
X26404294Y37703935D01*
X26404293Y37703933D01*
X26347881Y37493402D01*
X26346457Y37488087D01*
X26326502Y37260000D01*
X26346457Y37031913D01*
X26347881Y37026600D01*
X26347881Y37026598D01*
X26385026Y36887974D01*
X26405716Y36810757D01*
X26408039Y36805776D01*
X26408039Y36805775D01*
X26500151Y36608238D01*
X26500154Y36608233D01*
X26502477Y36603251D01*
X26575902Y36498389D01*
X26619553Y36436050D01*
X26633802Y36415700D01*
X26795700Y36253802D01*
X26800208Y36250645D01*
X26800211Y36250643D01*
X26839624Y36223046D01*
X26983251Y36122477D01*
X26988233Y36120154D01*
X26988238Y36120151D01*
X27022457Y36104195D01*
X27075742Y36057278D01*
X27095203Y35989001D01*
X27074661Y35921041D01*
X27022457Y35875805D01*
X26988238Y35859849D01*
X26988233Y35859846D01*
X26983251Y35857523D01*
X26928336Y35819071D01*
X26800211Y35729357D01*
X26800208Y35729355D01*
X26795700Y35726198D01*
X26633802Y35564300D01*
X26630645Y35559792D01*
X26630643Y35559789D01*
X26598461Y35513828D01*
X26502477Y35376749D01*
X26500154Y35371767D01*
X26500151Y35371762D01*
X26498934Y35369152D01*
X26405716Y35169243D01*
X26346457Y34948087D01*
X26326502Y34720000D01*
X24384000Y34720000D01*
X24384000Y47032023D01*
X24404002Y47100144D01*
X24457658Y47146637D01*
X24527932Y47156741D01*
X24592512Y47127247D01*
X24599095Y47121118D01*
X30073595Y41646618D01*
X30107621Y41584306D01*
X30110500Y41557523D01*
X30110500Y36773001D01*
X30110749Y36770214D01*
X30110749Y36770208D01*
X30117009Y36700071D01*
X30125383Y36606238D01*
X30126864Y36600824D01*
X30126865Y36600819D01*
X30156932Y36490916D01*
X30184663Y36389549D01*
X30187075Y36384491D01*
X30187077Y36384487D01*
X30217952Y36319757D01*
X30281378Y36186782D01*
X30412471Y36004346D01*
X30416503Y36000439D01*
X30546118Y35874833D01*
X30573799Y35848008D01*
X30760262Y35722710D01*
X30965967Y35632412D01*
X30971418Y35631103D01*
X30971422Y35631102D01*
X31178954Y35581278D01*
X31184411Y35579968D01*
X31268475Y35575121D01*
X31403083Y35567360D01*
X31403086Y35567360D01*
X31408690Y35567037D01*
X31631715Y35594025D01*
X31846435Y35660082D01*
X31851415Y35662652D01*
X31851419Y35662654D01*
X32041081Y35760546D01*
X32041082Y35760546D01*
X32046064Y35763118D01*
X32224292Y35899877D01*
X32375485Y36066036D01*
X32380277Y36073674D01*
X32491885Y36251595D01*
X32494864Y36256344D01*
X32578656Y36464783D01*
X32624213Y36684767D01*
X32627500Y36741775D01*
X32627500Y42039604D01*
X32628578Y42056051D01*
X32630747Y42072528D01*
X32631479Y42078086D01*
X32627640Y42159496D01*
X32627500Y42165431D01*
X32627500Y42187999D01*
X32627252Y42190782D01*
X32627251Y42190796D01*
X32625182Y42213977D01*
X32624823Y42219240D01*
X32621161Y42296884D01*
X32620897Y42302488D01*
X32616892Y42319977D01*
X32614212Y42336896D01*
X32613115Y42349179D01*
X32612617Y42354762D01*
X32611137Y42360173D01*
X32590631Y42435130D01*
X32589345Y42440248D01*
X32571994Y42516003D01*
X32570742Y42521470D01*
X32563707Y42537963D01*
X32558072Y42554145D01*
X32554820Y42566033D01*
X32554817Y42566042D01*
X32553337Y42571451D01*
X32550922Y42576514D01*
X32550918Y42576525D01*
X32517466Y42646657D01*
X32515293Y42651468D01*
X32484803Y42722952D01*
X32482604Y42728108D01*
X32472756Y42743100D01*
X32464344Y42758029D01*
X32456622Y42774218D01*
X32407996Y42841889D01*
X32405013Y42846229D01*
X32361805Y42912008D01*
X32361801Y42912013D01*
X32359265Y42915874D01*
X32340751Y42936654D01*
X32332506Y42946945D01*
X32328807Y42952093D01*
X32328803Y42952097D01*
X32325529Y42956654D01*
X32248777Y43031032D01*
X32247367Y43032421D01*
X27775627Y47504161D01*
X61910173Y47504161D01*
X61922713Y47243092D01*
X61973704Y46986744D01*
X62062026Y46740748D01*
X62064242Y46736624D01*
X62147142Y46582339D01*
X62185737Y46510509D01*
X62188532Y46506766D01*
X62188534Y46506763D01*
X62339330Y46304823D01*
X62339335Y46304817D01*
X62342122Y46301085D01*
X62345431Y46297805D01*
X62345436Y46297799D01*
X62524426Y46120365D01*
X62527743Y46117077D01*
X62531505Y46114319D01*
X62531508Y46114316D01*
X62734750Y45965293D01*
X62738524Y45962526D01*
X62742667Y45960346D01*
X62742669Y45960345D01*
X62965684Y45843011D01*
X62965689Y45843009D01*
X62969834Y45840828D01*
X63216590Y45754656D01*
X63221183Y45753784D01*
X63468785Y45706776D01*
X63468788Y45706776D01*
X63473374Y45705905D01*
X63603959Y45700774D01*
X63729875Y45695826D01*
X63729881Y45695826D01*
X63734543Y45695643D01*
X63813977Y45704343D01*
X63989707Y45723588D01*
X63989712Y45723589D01*
X63994360Y45724098D01*
X64107116Y45753784D01*
X64242594Y45789452D01*
X64242596Y45789453D01*
X64247117Y45790643D01*
X64487262Y45893818D01*
X64709519Y46031354D01*
X64713082Y46034371D01*
X64713087Y46034374D01*
X64905439Y46197213D01*
X64905440Y46197214D01*
X64909005Y46200232D01*
X65006411Y46311302D01*
X65078257Y46393226D01*
X65078261Y46393231D01*
X65081339Y46396741D01*
X65108030Y46438236D01*
X65220205Y46612633D01*
X65222733Y46616563D01*
X65330083Y46854871D01*
X65345046Y46907926D01*
X65399760Y47101924D01*
X65399761Y47101927D01*
X65401030Y47106428D01*
X65406145Y47146637D01*
X65433616Y47362579D01*
X65433616Y47362583D01*
X65434014Y47365709D01*
X65436431Y47458000D01*
X65417061Y47718652D01*
X65405725Y47768752D01*
X65360408Y47969020D01*
X65359377Y47973577D01*
X65264647Y48217177D01*
X65134951Y48444098D01*
X64973138Y48649357D01*
X64782763Y48828443D01*
X64568009Y48977424D01*
X64563816Y48979492D01*
X64337781Y49090960D01*
X64337778Y49090961D01*
X64333593Y49093025D01*
X64287449Y49107796D01*
X64089123Y49171280D01*
X64084665Y49172707D01*
X63826693Y49214721D01*
X63712942Y49216210D01*
X63570022Y49218081D01*
X63570019Y49218081D01*
X63565345Y49218142D01*
X63306362Y49182896D01*
X63055433Y49109757D01*
X63051180Y49107797D01*
X63051179Y49107796D01*
X63014659Y49090960D01*
X62818072Y49000332D01*
X62779067Y48974759D01*
X62603404Y48859590D01*
X62603399Y48859586D01*
X62599491Y48857024D01*
X62404494Y48682982D01*
X62237363Y48482030D01*
X62101771Y48258581D01*
X62000697Y48017545D01*
X61936359Y47764217D01*
X61910173Y47504161D01*
X27775627Y47504161D01*
X25583883Y49695905D01*
X25549857Y49758217D01*
X25554922Y49829032D01*
X25597469Y49885868D01*
X25663989Y49910679D01*
X25672978Y49911000D01*
X68454000Y49911000D01*
X68522121Y49890998D01*
G37*
%TD.AperFunction*%
%TD*%
M02*
