%TF.GenerationSoftware,KiCad,Pcbnew,(6.0.4)*%
%TF.CreationDate,2022-12-06T12:03:58-05:00*%
%TF.ProjectId,BREAD_Slice,42524541-445f-4536-9c69-63652e6b6963,rev?*%
%TF.SameCoordinates,Original*%
%TF.FileFunction,Soldermask,Bot*%
%TF.FilePolarity,Negative*%
%FSLAX46Y46*%
G04 Gerber Fmt 4.6, Leading zero omitted, Abs format (unit mm)*
G04 Created by KiCad (PCBNEW (6.0.4)) date 2022-12-06 12:03:58*
%MOMM*%
%LPD*%
G01*
G04 APERTURE LIST*
G04 Aperture macros list*
%AMRoundRect*
0 Rectangle with rounded corners*
0 $1 Rounding radius*
0 $2 $3 $4 $5 $6 $7 $8 $9 X,Y pos of 4 corners*
0 Add a 4 corners polygon primitive as box body*
4,1,4,$2,$3,$4,$5,$6,$7,$8,$9,$2,$3,0*
0 Add four circle primitives for the rounded corners*
1,1,$1+$1,$2,$3*
1,1,$1+$1,$4,$5*
1,1,$1+$1,$6,$7*
1,1,$1+$1,$8,$9*
0 Add four rect primitives between the rounded corners*
20,1,$1+$1,$2,$3,$4,$5,0*
20,1,$1+$1,$4,$5,$6,$7,0*
20,1,$1+$1,$6,$7,$8,$9,0*
20,1,$1+$1,$8,$9,$2,$3,0*%
G04 Aperture macros list end*
%ADD10R,1.700000X1.700000*%
%ADD11O,1.700000X1.700000*%
%ADD12C,5.600000*%
%ADD13R,1.600000X1.600000*%
%ADD14O,1.600000X1.600000*%
%ADD15RoundRect,0.250000X-0.650000X0.412500X-0.650000X-0.412500X0.650000X-0.412500X0.650000X0.412500X0*%
%ADD16RoundRect,0.250000X0.412500X0.650000X-0.412500X0.650000X-0.412500X-0.650000X0.412500X-0.650000X0*%
G04 APERTURE END LIST*
D10*
%TO.C,J7*%
X134475000Y-136425000D03*
D11*
X131935000Y-136425000D03*
X129395000Y-136425000D03*
%TD*%
D10*
%TO.C,J3*%
X142500000Y-102250000D03*
D11*
X145040000Y-102250000D03*
X147580000Y-102250000D03*
X150120000Y-102250000D03*
X152660000Y-102250000D03*
%TD*%
D10*
%TO.C,J6*%
X134475000Y-132875000D03*
D11*
X131935000Y-132875000D03*
X129395000Y-132875000D03*
%TD*%
D10*
%TO.C,J1*%
X102514466Y-79464466D03*
D11*
X102514466Y-82004466D03*
X102514466Y-84544466D03*
X102514466Y-87084466D03*
X102514466Y-89624466D03*
X102514466Y-92164466D03*
X102514466Y-94704466D03*
X102514466Y-97244466D03*
X102514466Y-99784466D03*
X102514466Y-102324466D03*
%TD*%
D10*
%TO.C,J2*%
X123139466Y-70814466D03*
D11*
X123139466Y-68274466D03*
X123139466Y-65734466D03*
X123139466Y-63194466D03*
X123139466Y-60654466D03*
%TD*%
D12*
%TO.C,H12*%
X160464466Y-45464466D03*
%TD*%
D10*
%TO.C,J5*%
X161025000Y-79575000D03*
D11*
X161025000Y-77035000D03*
X161025000Y-74495000D03*
%TD*%
D12*
%TO.C,H8*%
X100464466Y-45464466D03*
%TD*%
%TO.C,H9*%
X160464466Y-135464466D03*
%TD*%
%TO.C,H11*%
X135500000Y-125250000D03*
%TD*%
%TO.C,H4*%
X100464466Y-135464466D03*
%TD*%
D10*
%TO.C,J4*%
X157475000Y-79575000D03*
D11*
X157475000Y-77035000D03*
X157475000Y-74495000D03*
%TD*%
D12*
%TO.C,H2*%
X114114466Y-77814466D03*
%TD*%
%TO.C,H5*%
X148114466Y-53814466D03*
%TD*%
D13*
%TO.C,A1*%
X108114466Y-100664466D03*
D14*
X108114466Y-103204466D03*
X108114466Y-105744466D03*
X108114466Y-108284466D03*
X108114466Y-110824466D03*
X108114466Y-113364466D03*
X108114466Y-115904466D03*
X108114466Y-118444466D03*
X108114466Y-120984466D03*
X108114466Y-123524466D03*
X108114466Y-126064466D03*
X108114466Y-128604466D03*
X108114466Y-131144466D03*
X108114466Y-133684466D03*
X108114466Y-136224466D03*
X123354466Y-136224466D03*
X123354466Y-133684466D03*
X123354466Y-131144466D03*
X123354466Y-128604466D03*
X123354466Y-126064466D03*
X123354466Y-123524466D03*
X123354466Y-120984466D03*
X123354466Y-118444466D03*
X123354466Y-115904466D03*
X123354466Y-113364466D03*
X123354466Y-110824466D03*
X123354466Y-108284466D03*
X123354466Y-105744466D03*
X123354466Y-103204466D03*
X123354466Y-100664466D03*
%TD*%
D12*
%TO.C,H1*%
X159500000Y-91250000D03*
%TD*%
%TO.C,H3*%
X148114466Y-77814466D03*
%TD*%
%TO.C,H10*%
X135500000Y-91250000D03*
%TD*%
%TO.C,H6*%
X159500000Y-125250000D03*
%TD*%
%TO.C,H7*%
X114114466Y-53814466D03*
%TD*%
D15*
%TO.C,C1*%
X129250000Y-100187500D03*
X129250000Y-103312500D03*
%TD*%
D16*
%TO.C,C2*%
X118642500Y-110030000D03*
X115517500Y-110030000D03*
%TD*%
M02*
