%TF.GenerationSoftware,KiCad,Pcbnew,5.1.10-1.fc34*%
%TF.CreationDate,2021-06-08T11:44:04-04:00*%
%TF.ProjectId,BREAD_Slice,42524541-445f-4536-9c69-63652e6b6963,rev?*%
%TF.SameCoordinates,Original*%
%TF.FileFunction,Legend,Bot*%
%TF.FilePolarity,Positive*%
%FSLAX46Y46*%
G04 Gerber Fmt 4.6, Leading zero omitted, Abs format (unit mm)*
G04 Created by KiCad (PCBNEW 5.1.10-1.fc34) date 2021-06-08 11:44:04*
%MOMM*%
%LPD*%
G01*
G04 APERTURE LIST*
%ADD10C,0.120000*%
%ADD11C,0.150000*%
G04 APERTURE END LIST*
D10*
%TO.C,U2*%
X170557000Y-101624500D02*
X170557000Y-102349500D01*
X166337000Y-98129500D02*
X167062000Y-98129500D01*
X166337000Y-98854500D02*
X166337000Y-98129500D01*
X166337000Y-102349500D02*
X167062000Y-102349500D01*
X166337000Y-101624500D02*
X166337000Y-102349500D01*
X170557000Y-98129500D02*
X169832000Y-98129500D01*
X170557000Y-98854500D02*
X170557000Y-98129500D01*
D11*
%TO.C,R9*%
X165467000Y-107113500D02*
X165467000Y-109113500D01*
X167617000Y-109113500D02*
X167617000Y-107113500D01*
%TO.C,R8*%
X167288000Y-93195500D02*
X165288000Y-93195500D01*
X165288000Y-95345500D02*
X167288000Y-95345500D01*
%TO.C,R7*%
X174348000Y-94572000D02*
X174348000Y-92572000D01*
X172198000Y-92572000D02*
X172198000Y-94572000D01*
%TO.C,R6*%
X167553500Y-117051000D02*
X167553500Y-115051000D01*
X165403500Y-115051000D02*
X165403500Y-117051000D01*
%TO.C,R5*%
X149413000Y-56420000D02*
X151413000Y-56420000D01*
X151413000Y-54270000D02*
X149413000Y-54270000D01*
%TO.C,R4*%
X157033000Y-56420000D02*
X159033000Y-56420000D01*
X159033000Y-54270000D02*
X157033000Y-54270000D01*
%TO.C,R3*%
X158346000Y-69299000D02*
X158346000Y-67299000D01*
X156196000Y-67299000D02*
X156196000Y-69299000D01*
%TO.C,R2*%
X150345000Y-69299000D02*
X150345000Y-67299000D01*
X148195000Y-67299000D02*
X148195000Y-69299000D01*
%TO.C,R1*%
X141709000Y-69299000D02*
X141709000Y-67299000D01*
X139559000Y-67299000D02*
X139559000Y-69299000D01*
%TO.C,C6*%
X181220000Y-98509000D02*
X181220000Y-96499000D01*
X183360000Y-98479000D02*
X183360000Y-96469000D01*
%TO.C,C5*%
X170044000Y-109113500D02*
X170044000Y-107103500D01*
X172184000Y-109083500D02*
X172184000Y-107073500D01*
%TO.C,C4*%
X178553000Y-53551000D02*
X178553000Y-51541000D01*
X180693000Y-53521000D02*
X180693000Y-51511000D01*
%TO.C,C3*%
X156906000Y-58720000D02*
X158916000Y-58720000D01*
X156936000Y-60860000D02*
X158946000Y-60860000D01*
%TO.C,C1*%
X152772000Y-96285000D02*
X152772000Y-98295000D01*
X154912000Y-96255000D02*
X154912000Y-98265000D01*
%TO.C,C2*%
X153026000Y-111209000D02*
X153026000Y-109199000D01*
X155166000Y-111179000D02*
X155166000Y-109169000D01*
%TO.C,U2*%
X171199380Y-99477595D02*
X172008904Y-99477595D01*
X172104142Y-99525214D01*
X172151761Y-99572833D01*
X172199380Y-99668071D01*
X172199380Y-99858547D01*
X172151761Y-99953785D01*
X172104142Y-100001404D01*
X172008904Y-100049023D01*
X171199380Y-100049023D01*
X171294619Y-100477595D02*
X171247000Y-100525214D01*
X171199380Y-100620452D01*
X171199380Y-100858547D01*
X171247000Y-100953785D01*
X171294619Y-101001404D01*
X171389857Y-101049023D01*
X171485095Y-101049023D01*
X171627952Y-101001404D01*
X172199380Y-100429976D01*
X172199380Y-101049023D01*
%TO.C,R9*%
X164694380Y-107946833D02*
X164218190Y-107613500D01*
X164694380Y-107375404D02*
X163694380Y-107375404D01*
X163694380Y-107756357D01*
X163742000Y-107851595D01*
X163789619Y-107899214D01*
X163884857Y-107946833D01*
X164027714Y-107946833D01*
X164122952Y-107899214D01*
X164170571Y-107851595D01*
X164218190Y-107756357D01*
X164218190Y-107375404D01*
X164694380Y-108423023D02*
X164694380Y-108613500D01*
X164646761Y-108708738D01*
X164599142Y-108756357D01*
X164456285Y-108851595D01*
X164265809Y-108899214D01*
X163884857Y-108899214D01*
X163789619Y-108851595D01*
X163742000Y-108803976D01*
X163694380Y-108708738D01*
X163694380Y-108518261D01*
X163742000Y-108423023D01*
X163789619Y-108375404D01*
X163884857Y-108327785D01*
X164122952Y-108327785D01*
X164218190Y-108375404D01*
X164265809Y-108423023D01*
X164313428Y-108518261D01*
X164313428Y-108708738D01*
X164265809Y-108803976D01*
X164218190Y-108851595D01*
X164122952Y-108899214D01*
%TO.C,R8*%
X166454666Y-92422880D02*
X166788000Y-91946690D01*
X167026095Y-92422880D02*
X167026095Y-91422880D01*
X166645142Y-91422880D01*
X166549904Y-91470500D01*
X166502285Y-91518119D01*
X166454666Y-91613357D01*
X166454666Y-91756214D01*
X166502285Y-91851452D01*
X166549904Y-91899071D01*
X166645142Y-91946690D01*
X167026095Y-91946690D01*
X165883238Y-91851452D02*
X165978476Y-91803833D01*
X166026095Y-91756214D01*
X166073714Y-91660976D01*
X166073714Y-91613357D01*
X166026095Y-91518119D01*
X165978476Y-91470500D01*
X165883238Y-91422880D01*
X165692761Y-91422880D01*
X165597523Y-91470500D01*
X165549904Y-91518119D01*
X165502285Y-91613357D01*
X165502285Y-91660976D01*
X165549904Y-91756214D01*
X165597523Y-91803833D01*
X165692761Y-91851452D01*
X165883238Y-91851452D01*
X165978476Y-91899071D01*
X166026095Y-91946690D01*
X166073714Y-92041928D01*
X166073714Y-92232404D01*
X166026095Y-92327642D01*
X165978476Y-92375261D01*
X165883238Y-92422880D01*
X165692761Y-92422880D01*
X165597523Y-92375261D01*
X165549904Y-92327642D01*
X165502285Y-92232404D01*
X165502285Y-92041928D01*
X165549904Y-91946690D01*
X165597523Y-91899071D01*
X165692761Y-91851452D01*
%TO.C,R7*%
X176025380Y-93405333D02*
X175549190Y-93072000D01*
X176025380Y-92833904D02*
X175025380Y-92833904D01*
X175025380Y-93214857D01*
X175073000Y-93310095D01*
X175120619Y-93357714D01*
X175215857Y-93405333D01*
X175358714Y-93405333D01*
X175453952Y-93357714D01*
X175501571Y-93310095D01*
X175549190Y-93214857D01*
X175549190Y-92833904D01*
X175025380Y-93738666D02*
X175025380Y-94405333D01*
X176025380Y-93976761D01*
%TO.C,R6*%
X169230880Y-115884333D02*
X168754690Y-115551000D01*
X169230880Y-115312904D02*
X168230880Y-115312904D01*
X168230880Y-115693857D01*
X168278500Y-115789095D01*
X168326119Y-115836714D01*
X168421357Y-115884333D01*
X168564214Y-115884333D01*
X168659452Y-115836714D01*
X168707071Y-115789095D01*
X168754690Y-115693857D01*
X168754690Y-115312904D01*
X168230880Y-116741476D02*
X168230880Y-116551000D01*
X168278500Y-116455761D01*
X168326119Y-116408142D01*
X168468976Y-116312904D01*
X168659452Y-116265285D01*
X169040404Y-116265285D01*
X169135642Y-116312904D01*
X169183261Y-116360523D01*
X169230880Y-116455761D01*
X169230880Y-116646238D01*
X169183261Y-116741476D01*
X169135642Y-116789095D01*
X169040404Y-116836714D01*
X168802309Y-116836714D01*
X168707071Y-116789095D01*
X168659452Y-116741476D01*
X168611833Y-116646238D01*
X168611833Y-116455761D01*
X168659452Y-116360523D01*
X168707071Y-116312904D01*
X168802309Y-116265285D01*
%TO.C,R5*%
X150579666Y-58097380D02*
X150913000Y-57621190D01*
X151151095Y-58097380D02*
X151151095Y-57097380D01*
X150770142Y-57097380D01*
X150674904Y-57145000D01*
X150627285Y-57192619D01*
X150579666Y-57287857D01*
X150579666Y-57430714D01*
X150627285Y-57525952D01*
X150674904Y-57573571D01*
X150770142Y-57621190D01*
X151151095Y-57621190D01*
X149674904Y-57097380D02*
X150151095Y-57097380D01*
X150198714Y-57573571D01*
X150151095Y-57525952D01*
X150055857Y-57478333D01*
X149817761Y-57478333D01*
X149722523Y-57525952D01*
X149674904Y-57573571D01*
X149627285Y-57668809D01*
X149627285Y-57906904D01*
X149674904Y-58002142D01*
X149722523Y-58049761D01*
X149817761Y-58097380D01*
X150055857Y-58097380D01*
X150151095Y-58049761D01*
X150198714Y-58002142D01*
%TO.C,R4*%
X158072666Y-53384380D02*
X158406000Y-52908190D01*
X158644095Y-53384380D02*
X158644095Y-52384380D01*
X158263142Y-52384380D01*
X158167904Y-52432000D01*
X158120285Y-52479619D01*
X158072666Y-52574857D01*
X158072666Y-52717714D01*
X158120285Y-52812952D01*
X158167904Y-52860571D01*
X158263142Y-52908190D01*
X158644095Y-52908190D01*
X157215523Y-52717714D02*
X157215523Y-53384380D01*
X157453619Y-52336761D02*
X157691714Y-53051047D01*
X157072666Y-53051047D01*
%TO.C,R3*%
X160023380Y-68132333D02*
X159547190Y-67799000D01*
X160023380Y-67560904D02*
X159023380Y-67560904D01*
X159023380Y-67941857D01*
X159071000Y-68037095D01*
X159118619Y-68084714D01*
X159213857Y-68132333D01*
X159356714Y-68132333D01*
X159451952Y-68084714D01*
X159499571Y-68037095D01*
X159547190Y-67941857D01*
X159547190Y-67560904D01*
X159023380Y-68465666D02*
X159023380Y-69084714D01*
X159404333Y-68751380D01*
X159404333Y-68894238D01*
X159451952Y-68989476D01*
X159499571Y-69037095D01*
X159594809Y-69084714D01*
X159832904Y-69084714D01*
X159928142Y-69037095D01*
X159975761Y-68989476D01*
X160023380Y-68894238D01*
X160023380Y-68608523D01*
X159975761Y-68513285D01*
X159928142Y-68465666D01*
%TO.C,R2*%
X152022380Y-68132333D02*
X151546190Y-67799000D01*
X152022380Y-67560904D02*
X151022380Y-67560904D01*
X151022380Y-67941857D01*
X151070000Y-68037095D01*
X151117619Y-68084714D01*
X151212857Y-68132333D01*
X151355714Y-68132333D01*
X151450952Y-68084714D01*
X151498571Y-68037095D01*
X151546190Y-67941857D01*
X151546190Y-67560904D01*
X151117619Y-68513285D02*
X151070000Y-68560904D01*
X151022380Y-68656142D01*
X151022380Y-68894238D01*
X151070000Y-68989476D01*
X151117619Y-69037095D01*
X151212857Y-69084714D01*
X151308095Y-69084714D01*
X151450952Y-69037095D01*
X152022380Y-68465666D01*
X152022380Y-69084714D01*
%TO.C,R1*%
X143386380Y-68132333D02*
X142910190Y-67799000D01*
X143386380Y-67560904D02*
X142386380Y-67560904D01*
X142386380Y-67941857D01*
X142434000Y-68037095D01*
X142481619Y-68084714D01*
X142576857Y-68132333D01*
X142719714Y-68132333D01*
X142814952Y-68084714D01*
X142862571Y-68037095D01*
X142910190Y-67941857D01*
X142910190Y-67560904D01*
X143386380Y-69084714D02*
X143386380Y-68513285D01*
X143386380Y-68799000D02*
X142386380Y-68799000D01*
X142529238Y-68703761D01*
X142624476Y-68608523D01*
X142672095Y-68513285D01*
%TO.C,C6*%
X180547142Y-97342333D02*
X180594761Y-97294714D01*
X180642380Y-97151857D01*
X180642380Y-97056619D01*
X180594761Y-96913761D01*
X180499523Y-96818523D01*
X180404285Y-96770904D01*
X180213809Y-96723285D01*
X180070952Y-96723285D01*
X179880476Y-96770904D01*
X179785238Y-96818523D01*
X179690000Y-96913761D01*
X179642380Y-97056619D01*
X179642380Y-97151857D01*
X179690000Y-97294714D01*
X179737619Y-97342333D01*
X179642380Y-98199476D02*
X179642380Y-98009000D01*
X179690000Y-97913761D01*
X179737619Y-97866142D01*
X179880476Y-97770904D01*
X180070952Y-97723285D01*
X180451904Y-97723285D01*
X180547142Y-97770904D01*
X180594761Y-97818523D01*
X180642380Y-97913761D01*
X180642380Y-98104238D01*
X180594761Y-98199476D01*
X180547142Y-98247095D01*
X180451904Y-98294714D01*
X180213809Y-98294714D01*
X180118571Y-98247095D01*
X180070952Y-98199476D01*
X180023333Y-98104238D01*
X180023333Y-97913761D01*
X180070952Y-97818523D01*
X180118571Y-97770904D01*
X180213809Y-97723285D01*
%TO.C,C5*%
X169371142Y-107946833D02*
X169418761Y-107899214D01*
X169466380Y-107756357D01*
X169466380Y-107661119D01*
X169418761Y-107518261D01*
X169323523Y-107423023D01*
X169228285Y-107375404D01*
X169037809Y-107327785D01*
X168894952Y-107327785D01*
X168704476Y-107375404D01*
X168609238Y-107423023D01*
X168514000Y-107518261D01*
X168466380Y-107661119D01*
X168466380Y-107756357D01*
X168514000Y-107899214D01*
X168561619Y-107946833D01*
X168466380Y-108851595D02*
X168466380Y-108375404D01*
X168942571Y-108327785D01*
X168894952Y-108375404D01*
X168847333Y-108470642D01*
X168847333Y-108708738D01*
X168894952Y-108803976D01*
X168942571Y-108851595D01*
X169037809Y-108899214D01*
X169275904Y-108899214D01*
X169371142Y-108851595D01*
X169418761Y-108803976D01*
X169466380Y-108708738D01*
X169466380Y-108470642D01*
X169418761Y-108375404D01*
X169371142Y-108327785D01*
%TO.C,C4*%
X177880142Y-52384333D02*
X177927761Y-52336714D01*
X177975380Y-52193857D01*
X177975380Y-52098619D01*
X177927761Y-51955761D01*
X177832523Y-51860523D01*
X177737285Y-51812904D01*
X177546809Y-51765285D01*
X177403952Y-51765285D01*
X177213476Y-51812904D01*
X177118238Y-51860523D01*
X177023000Y-51955761D01*
X176975380Y-52098619D01*
X176975380Y-52193857D01*
X177023000Y-52336714D01*
X177070619Y-52384333D01*
X177308714Y-53241476D02*
X177975380Y-53241476D01*
X176927761Y-53003380D02*
X177642047Y-52765285D01*
X177642047Y-53384333D01*
%TO.C,C3*%
X158072666Y-58047142D02*
X158120285Y-58094761D01*
X158263142Y-58142380D01*
X158358380Y-58142380D01*
X158501238Y-58094761D01*
X158596476Y-57999523D01*
X158644095Y-57904285D01*
X158691714Y-57713809D01*
X158691714Y-57570952D01*
X158644095Y-57380476D01*
X158596476Y-57285238D01*
X158501238Y-57190000D01*
X158358380Y-57142380D01*
X158263142Y-57142380D01*
X158120285Y-57190000D01*
X158072666Y-57237619D01*
X157739333Y-57142380D02*
X157120285Y-57142380D01*
X157453619Y-57523333D01*
X157310761Y-57523333D01*
X157215523Y-57570952D01*
X157167904Y-57618571D01*
X157120285Y-57713809D01*
X157120285Y-57951904D01*
X157167904Y-58047142D01*
X157215523Y-58094761D01*
X157310761Y-58142380D01*
X157596476Y-58142380D01*
X157691714Y-58094761D01*
X157739333Y-58047142D01*
%TO.C,C1*%
X154199142Y-92088333D02*
X154246761Y-92040714D01*
X154294380Y-91897857D01*
X154294380Y-91802619D01*
X154246761Y-91659761D01*
X154151523Y-91564523D01*
X154056285Y-91516904D01*
X153865809Y-91469285D01*
X153722952Y-91469285D01*
X153532476Y-91516904D01*
X153437238Y-91564523D01*
X153342000Y-91659761D01*
X153294380Y-91802619D01*
X153294380Y-91897857D01*
X153342000Y-92040714D01*
X153389619Y-92088333D01*
X154294380Y-93040714D02*
X154294380Y-92469285D01*
X154294380Y-92755000D02*
X153294380Y-92755000D01*
X153437238Y-92659761D01*
X153532476Y-92564523D01*
X153580095Y-92469285D01*
%TO.C,C2*%
X154453142Y-115042333D02*
X154500761Y-114994714D01*
X154548380Y-114851857D01*
X154548380Y-114756619D01*
X154500761Y-114613761D01*
X154405523Y-114518523D01*
X154310285Y-114470904D01*
X154119809Y-114423285D01*
X153976952Y-114423285D01*
X153786476Y-114470904D01*
X153691238Y-114518523D01*
X153596000Y-114613761D01*
X153548380Y-114756619D01*
X153548380Y-114851857D01*
X153596000Y-114994714D01*
X153643619Y-115042333D01*
X153643619Y-115423285D02*
X153596000Y-115470904D01*
X153548380Y-115566142D01*
X153548380Y-115804238D01*
X153596000Y-115899476D01*
X153643619Y-115947095D01*
X153738857Y-115994714D01*
X153834095Y-115994714D01*
X153976952Y-115947095D01*
X154548380Y-115375666D01*
X154548380Y-115994714D01*
%TD*%
M02*
