%TF.GenerationSoftware,KiCad,Pcbnew,5.1.10-1.fc34*%
%TF.CreationDate,2021-06-08T11:44:03-04:00*%
%TF.ProjectId,BREAD_Slice,42524541-445f-4536-9c69-63652e6b6963,rev?*%
%TF.SameCoordinates,Original*%
%TF.FileFunction,Legend,Top*%
%TF.FilePolarity,Positive*%
%FSLAX46Y46*%
G04 Gerber Fmt 4.6, Leading zero omitted, Abs format (unit mm)*
G04 Created by KiCad (PCBNEW 5.1.10-1.fc34) date 2021-06-08 11:44:03*
%MOMM*%
%LPD*%
G01*
G04 APERTURE LIST*
%ADD10C,0.150000*%
%ADD11C,0.120000*%
%ADD12C,0.010000*%
G04 APERTURE END LIST*
D10*
X190251380Y-66893761D02*
X190251380Y-66322333D01*
X191251380Y-66608047D02*
X190251380Y-66608047D01*
X191203761Y-65608047D02*
X191251380Y-65703285D01*
X191251380Y-65893761D01*
X191203761Y-65989000D01*
X191108523Y-66036619D01*
X190727571Y-66036619D01*
X190632333Y-65989000D01*
X190584714Y-65893761D01*
X190584714Y-65703285D01*
X190632333Y-65608047D01*
X190727571Y-65560428D01*
X190822809Y-65560428D01*
X190918047Y-66036619D01*
X191203761Y-65179476D02*
X191251380Y-65084238D01*
X191251380Y-64893761D01*
X191203761Y-64798523D01*
X191108523Y-64750904D01*
X191060904Y-64750904D01*
X190965666Y-64798523D01*
X190918047Y-64893761D01*
X190918047Y-65036619D01*
X190870428Y-65131857D01*
X190775190Y-65179476D01*
X190727571Y-65179476D01*
X190632333Y-65131857D01*
X190584714Y-65036619D01*
X190584714Y-64893761D01*
X190632333Y-64798523D01*
X190584714Y-64465190D02*
X190584714Y-64084238D01*
X190251380Y-64322333D02*
X191108523Y-64322333D01*
X191203761Y-64274714D01*
X191251380Y-64179476D01*
X191251380Y-64084238D01*
X190870428Y-62989000D02*
X190870428Y-62227095D01*
X190759380Y-87975761D02*
X190759380Y-87404333D01*
X191759380Y-87690047D02*
X190759380Y-87690047D01*
X191711761Y-86690047D02*
X191759380Y-86785285D01*
X191759380Y-86975761D01*
X191711761Y-87071000D01*
X191616523Y-87118619D01*
X191235571Y-87118619D01*
X191140333Y-87071000D01*
X191092714Y-86975761D01*
X191092714Y-86785285D01*
X191140333Y-86690047D01*
X191235571Y-86642428D01*
X191330809Y-86642428D01*
X191426047Y-87118619D01*
X191711761Y-86261476D02*
X191759380Y-86166238D01*
X191759380Y-85975761D01*
X191711761Y-85880523D01*
X191616523Y-85832904D01*
X191568904Y-85832904D01*
X191473666Y-85880523D01*
X191426047Y-85975761D01*
X191426047Y-86118619D01*
X191378428Y-86213857D01*
X191283190Y-86261476D01*
X191235571Y-86261476D01*
X191140333Y-86213857D01*
X191092714Y-86118619D01*
X191092714Y-85975761D01*
X191140333Y-85880523D01*
X191092714Y-85547190D02*
X191092714Y-85166238D01*
X190759380Y-85404333D02*
X191616523Y-85404333D01*
X191711761Y-85356714D01*
X191759380Y-85261476D01*
X191759380Y-85166238D01*
X191378428Y-84071000D02*
X191378428Y-83309095D01*
X191759380Y-83690047D02*
X190997476Y-83690047D01*
X190235428Y-98508952D02*
X190235428Y-97747047D01*
X190235428Y-96508952D02*
X190235428Y-95747047D01*
X190616380Y-96128000D02*
X189854476Y-96128000D01*
X190616428Y-53550952D02*
X190616428Y-52789047D01*
X190616428Y-51550952D02*
X190616428Y-50789047D01*
X190997380Y-51170000D02*
X190235476Y-51170000D01*
X191489571Y-101096285D02*
X191537190Y-100953428D01*
X191584809Y-100905809D01*
X191680047Y-100858190D01*
X191822904Y-100858190D01*
X191918142Y-100905809D01*
X191965761Y-100953428D01*
X192013380Y-101048666D01*
X192013380Y-101429619D01*
X191013380Y-101429619D01*
X191013380Y-101096285D01*
X191061000Y-101001047D01*
X191108619Y-100953428D01*
X191203857Y-100905809D01*
X191299095Y-100905809D01*
X191394333Y-100953428D01*
X191441952Y-101001047D01*
X191489571Y-101096285D01*
X191489571Y-101429619D01*
X192013380Y-100001047D02*
X191489571Y-100001047D01*
X191394333Y-100048666D01*
X191346714Y-100143904D01*
X191346714Y-100334380D01*
X191394333Y-100429619D01*
X191965761Y-100001047D02*
X192013380Y-100096285D01*
X192013380Y-100334380D01*
X191965761Y-100429619D01*
X191870523Y-100477238D01*
X191775285Y-100477238D01*
X191680047Y-100429619D01*
X191632428Y-100334380D01*
X191632428Y-100096285D01*
X191584809Y-100001047D01*
X191346714Y-99667714D02*
X191346714Y-99286761D01*
X191013380Y-99524857D02*
X191870523Y-99524857D01*
X191965761Y-99477238D01*
X192013380Y-99382000D01*
X192013380Y-99286761D01*
X191346714Y-99096285D02*
X191346714Y-98715333D01*
X191013380Y-98953428D02*
X191870523Y-98953428D01*
X191965761Y-98905809D01*
X192013380Y-98810571D01*
X192013380Y-98715333D01*
X191965761Y-98001047D02*
X192013380Y-98096285D01*
X192013380Y-98286761D01*
X191965761Y-98382000D01*
X191870523Y-98429619D01*
X191489571Y-98429619D01*
X191394333Y-98382000D01*
X191346714Y-98286761D01*
X191346714Y-98096285D01*
X191394333Y-98001047D01*
X191489571Y-97953428D01*
X191584809Y-97953428D01*
X191680047Y-98429619D01*
X192013380Y-97524857D02*
X191346714Y-97524857D01*
X191537190Y-97524857D02*
X191441952Y-97477238D01*
X191394333Y-97429619D01*
X191346714Y-97334380D01*
X191346714Y-97239142D01*
X191346714Y-97001047D02*
X192013380Y-96762952D01*
X191346714Y-96524857D02*
X192013380Y-96762952D01*
X192251476Y-96858190D01*
X192299095Y-96905809D01*
X192346714Y-97001047D01*
X191013380Y-95191523D02*
X191013380Y-95001047D01*
X191061000Y-94905809D01*
X191156238Y-94810571D01*
X191346714Y-94762952D01*
X191680047Y-94762952D01*
X191870523Y-94810571D01*
X191965761Y-94905809D01*
X192013380Y-95001047D01*
X192013380Y-95191523D01*
X191965761Y-95286761D01*
X191870523Y-95382000D01*
X191680047Y-95429619D01*
X191346714Y-95429619D01*
X191156238Y-95382000D01*
X191061000Y-95286761D01*
X191013380Y-95191523D01*
X191346714Y-93905809D02*
X192013380Y-93905809D01*
X191346714Y-94334380D02*
X191870523Y-94334380D01*
X191965761Y-94286761D01*
X192013380Y-94191523D01*
X192013380Y-94048666D01*
X191965761Y-93953428D01*
X191918142Y-93905809D01*
X191346714Y-93572476D02*
X191346714Y-93191523D01*
X191013380Y-93429619D02*
X191870523Y-93429619D01*
X191965761Y-93382000D01*
X192013380Y-93286761D01*
X192013380Y-93191523D01*
X192092761Y-54749333D02*
X192140380Y-54606476D01*
X192140380Y-54368380D01*
X192092761Y-54273142D01*
X192045142Y-54225523D01*
X191949904Y-54177904D01*
X191854666Y-54177904D01*
X191759428Y-54225523D01*
X191711809Y-54273142D01*
X191664190Y-54368380D01*
X191616571Y-54558857D01*
X191568952Y-54654095D01*
X191521333Y-54701714D01*
X191426095Y-54749333D01*
X191330857Y-54749333D01*
X191235619Y-54701714D01*
X191188000Y-54654095D01*
X191140380Y-54558857D01*
X191140380Y-54320761D01*
X191188000Y-54177904D01*
X192140380Y-53606476D02*
X192092761Y-53701714D01*
X192045142Y-53749333D01*
X191949904Y-53796952D01*
X191664190Y-53796952D01*
X191568952Y-53749333D01*
X191521333Y-53701714D01*
X191473714Y-53606476D01*
X191473714Y-53463619D01*
X191521333Y-53368380D01*
X191568952Y-53320761D01*
X191664190Y-53273142D01*
X191949904Y-53273142D01*
X192045142Y-53320761D01*
X192092761Y-53368380D01*
X192140380Y-53463619D01*
X192140380Y-53606476D01*
X192140380Y-52701714D02*
X192092761Y-52796952D01*
X191997523Y-52844571D01*
X191140380Y-52844571D01*
X192140380Y-51892190D02*
X191616571Y-51892190D01*
X191521333Y-51939809D01*
X191473714Y-52035047D01*
X191473714Y-52225523D01*
X191521333Y-52320761D01*
X192092761Y-51892190D02*
X192140380Y-51987428D01*
X192140380Y-52225523D01*
X192092761Y-52320761D01*
X191997523Y-52368380D01*
X191902285Y-52368380D01*
X191807047Y-52320761D01*
X191759428Y-52225523D01*
X191759428Y-51987428D01*
X191711809Y-51892190D01*
X192140380Y-51416000D02*
X191473714Y-51416000D01*
X191664190Y-51416000D02*
X191568952Y-51368380D01*
X191521333Y-51320761D01*
X191473714Y-51225523D01*
X191473714Y-51130285D01*
X192140380Y-50035047D02*
X191140380Y-50035047D01*
X191473714Y-49558857D02*
X192140380Y-49558857D01*
X191568952Y-49558857D02*
X191521333Y-49511238D01*
X191473714Y-49416000D01*
X191473714Y-49273142D01*
X191521333Y-49177904D01*
X191616571Y-49130285D01*
X192140380Y-49130285D01*
X155144571Y-134998761D02*
X155287428Y-135046380D01*
X155525523Y-135046380D01*
X155620761Y-134998761D01*
X155668380Y-134951142D01*
X155716000Y-134855904D01*
X155716000Y-134760666D01*
X155668380Y-134665428D01*
X155620761Y-134617809D01*
X155525523Y-134570190D01*
X155335047Y-134522571D01*
X155239809Y-134474952D01*
X155192190Y-134427333D01*
X155144571Y-134332095D01*
X155144571Y-134236857D01*
X155192190Y-134141619D01*
X155239809Y-134094000D01*
X155335047Y-134046380D01*
X155573142Y-134046380D01*
X155716000Y-134094000D01*
X156287428Y-135046380D02*
X156192190Y-134998761D01*
X156144571Y-134951142D01*
X156096952Y-134855904D01*
X156096952Y-134570190D01*
X156144571Y-134474952D01*
X156192190Y-134427333D01*
X156287428Y-134379714D01*
X156430285Y-134379714D01*
X156525523Y-134427333D01*
X156573142Y-134474952D01*
X156620761Y-134570190D01*
X156620761Y-134855904D01*
X156573142Y-134951142D01*
X156525523Y-134998761D01*
X156430285Y-135046380D01*
X156287428Y-135046380D01*
X157192190Y-135046380D02*
X157096952Y-134998761D01*
X157049333Y-134903523D01*
X157049333Y-134046380D01*
X158001714Y-135046380D02*
X158001714Y-134522571D01*
X157954095Y-134427333D01*
X157858857Y-134379714D01*
X157668380Y-134379714D01*
X157573142Y-134427333D01*
X158001714Y-134998761D02*
X157906476Y-135046380D01*
X157668380Y-135046380D01*
X157573142Y-134998761D01*
X157525523Y-134903523D01*
X157525523Y-134808285D01*
X157573142Y-134713047D01*
X157668380Y-134665428D01*
X157906476Y-134665428D01*
X158001714Y-134617809D01*
X158477904Y-135046380D02*
X158477904Y-134379714D01*
X158477904Y-134570190D02*
X158525523Y-134474952D01*
X158573142Y-134427333D01*
X158668380Y-134379714D01*
X158763619Y-134379714D01*
X159858857Y-135046380D02*
X159858857Y-134046380D01*
X160239809Y-134046380D01*
X160335047Y-134094000D01*
X160382666Y-134141619D01*
X160430285Y-134236857D01*
X160430285Y-134379714D01*
X160382666Y-134474952D01*
X160335047Y-134522571D01*
X160239809Y-134570190D01*
X159858857Y-134570190D01*
X161001714Y-135046380D02*
X160906476Y-134998761D01*
X160858857Y-134951142D01*
X160811238Y-134855904D01*
X160811238Y-134570190D01*
X160858857Y-134474952D01*
X160906476Y-134427333D01*
X161001714Y-134379714D01*
X161144571Y-134379714D01*
X161239809Y-134427333D01*
X161287428Y-134474952D01*
X161335047Y-134570190D01*
X161335047Y-134855904D01*
X161287428Y-134951142D01*
X161239809Y-134998761D01*
X161144571Y-135046380D01*
X161001714Y-135046380D01*
X161668380Y-134379714D02*
X161858857Y-135046380D01*
X162049333Y-134570190D01*
X162239809Y-135046380D01*
X162430285Y-134379714D01*
X163192190Y-134998761D02*
X163096952Y-135046380D01*
X162906476Y-135046380D01*
X162811238Y-134998761D01*
X162763619Y-134903523D01*
X162763619Y-134522571D01*
X162811238Y-134427333D01*
X162906476Y-134379714D01*
X163096952Y-134379714D01*
X163192190Y-134427333D01*
X163239809Y-134522571D01*
X163239809Y-134617809D01*
X162763619Y-134713047D01*
X163668380Y-135046380D02*
X163668380Y-134379714D01*
X163668380Y-134570190D02*
X163716000Y-134474952D01*
X163763619Y-134427333D01*
X163858857Y-134379714D01*
X163954095Y-134379714D01*
X165001714Y-134998761D02*
X165144571Y-135046380D01*
X165382666Y-135046380D01*
X165477904Y-134998761D01*
X165525523Y-134951142D01*
X165573142Y-134855904D01*
X165573142Y-134760666D01*
X165525523Y-134665428D01*
X165477904Y-134617809D01*
X165382666Y-134570190D01*
X165192190Y-134522571D01*
X165096952Y-134474952D01*
X165049333Y-134427333D01*
X165001714Y-134332095D01*
X165001714Y-134236857D01*
X165049333Y-134141619D01*
X165096952Y-134094000D01*
X165192190Y-134046380D01*
X165430285Y-134046380D01*
X165573142Y-134094000D01*
X166144571Y-135046380D02*
X166049333Y-134998761D01*
X166001714Y-134903523D01*
X166001714Y-134046380D01*
X166525523Y-135046380D02*
X166525523Y-134379714D01*
X166525523Y-134046380D02*
X166477904Y-134094000D01*
X166525523Y-134141619D01*
X166573142Y-134094000D01*
X166525523Y-134046380D01*
X166525523Y-134141619D01*
X167430285Y-134998761D02*
X167335047Y-135046380D01*
X167144571Y-135046380D01*
X167049333Y-134998761D01*
X167001714Y-134951142D01*
X166954095Y-134855904D01*
X166954095Y-134570190D01*
X167001714Y-134474952D01*
X167049333Y-134427333D01*
X167144571Y-134379714D01*
X167335047Y-134379714D01*
X167430285Y-134427333D01*
X168239809Y-134998761D02*
X168144571Y-135046380D01*
X167954095Y-135046380D01*
X167858857Y-134998761D01*
X167811238Y-134903523D01*
X167811238Y-134522571D01*
X167858857Y-134427333D01*
X167954095Y-134379714D01*
X168144571Y-134379714D01*
X168239809Y-134427333D01*
X168287428Y-134522571D01*
X168287428Y-134617809D01*
X167811238Y-134713047D01*
X158239809Y-136648761D02*
X158382666Y-136696380D01*
X158620761Y-136696380D01*
X158716000Y-136648761D01*
X158763619Y-136601142D01*
X158811238Y-136505904D01*
X158811238Y-136410666D01*
X158763619Y-136315428D01*
X158716000Y-136267809D01*
X158620761Y-136220190D01*
X158430285Y-136172571D01*
X158335047Y-136124952D01*
X158287428Y-136077333D01*
X158239809Y-135982095D01*
X158239809Y-135886857D01*
X158287428Y-135791619D01*
X158335047Y-135744000D01*
X158430285Y-135696380D01*
X158668380Y-135696380D01*
X158811238Y-135744000D01*
X159716000Y-136696380D02*
X159239809Y-136696380D01*
X159239809Y-135696380D01*
X160620761Y-136601142D02*
X160573142Y-136648761D01*
X160430285Y-136696380D01*
X160335047Y-136696380D01*
X160192190Y-136648761D01*
X160096952Y-136553523D01*
X160049333Y-136458285D01*
X160001714Y-136267809D01*
X160001714Y-136124952D01*
X160049333Y-135934476D01*
X160096952Y-135839238D01*
X160192190Y-135744000D01*
X160335047Y-135696380D01*
X160430285Y-135696380D01*
X160573142Y-135744000D01*
X160620761Y-135791619D01*
X160811238Y-136791619D02*
X161573142Y-136791619D01*
X161763619Y-136648761D02*
X161906476Y-136696380D01*
X162144571Y-136696380D01*
X162239809Y-136648761D01*
X162287428Y-136601142D01*
X162335047Y-136505904D01*
X162335047Y-136410666D01*
X162287428Y-136315428D01*
X162239809Y-136267809D01*
X162144571Y-136220190D01*
X161954095Y-136172571D01*
X161858857Y-136124952D01*
X161811238Y-136077333D01*
X161763619Y-135982095D01*
X161763619Y-135886857D01*
X161811238Y-135791619D01*
X161858857Y-135744000D01*
X161954095Y-135696380D01*
X162192190Y-135696380D01*
X162335047Y-135744000D01*
X162954095Y-135696380D02*
X163144571Y-135696380D01*
X163239809Y-135744000D01*
X163335047Y-135839238D01*
X163382666Y-136029714D01*
X163382666Y-136363047D01*
X163335047Y-136553523D01*
X163239809Y-136648761D01*
X163144571Y-136696380D01*
X162954095Y-136696380D01*
X162858857Y-136648761D01*
X162763619Y-136553523D01*
X162716000Y-136363047D01*
X162716000Y-136029714D01*
X162763619Y-135839238D01*
X162858857Y-135744000D01*
X162954095Y-135696380D01*
X164287428Y-136696380D02*
X163811238Y-136696380D01*
X163811238Y-135696380D01*
X165192190Y-136696380D02*
X164858857Y-136220190D01*
X164620761Y-136696380D02*
X164620761Y-135696380D01*
X165001714Y-135696380D01*
X165096952Y-135744000D01*
X165144571Y-135791619D01*
X165192190Y-135886857D01*
X165192190Y-136029714D01*
X165144571Y-136124952D01*
X165096952Y-136172571D01*
X165001714Y-136220190D01*
X164620761Y-136220190D01*
X159263619Y-138346380D02*
X158930285Y-137870190D01*
X158692190Y-138346380D02*
X158692190Y-137346380D01*
X159073142Y-137346380D01*
X159168380Y-137394000D01*
X159216000Y-137441619D01*
X159263619Y-137536857D01*
X159263619Y-137679714D01*
X159216000Y-137774952D01*
X159168380Y-137822571D01*
X159073142Y-137870190D01*
X158692190Y-137870190D01*
X159882666Y-137346380D02*
X159977904Y-137346380D01*
X160073142Y-137394000D01*
X160120761Y-137441619D01*
X160168380Y-137536857D01*
X160216000Y-137727333D01*
X160216000Y-137965428D01*
X160168380Y-138155904D01*
X160120761Y-138251142D01*
X160073142Y-138298761D01*
X159977904Y-138346380D01*
X159882666Y-138346380D01*
X159787428Y-138298761D01*
X159739809Y-138251142D01*
X159692190Y-138155904D01*
X159644571Y-137965428D01*
X159644571Y-137727333D01*
X159692190Y-137536857D01*
X159739809Y-137441619D01*
X159787428Y-137394000D01*
X159882666Y-137346380D01*
X161358857Y-137441619D02*
X161406476Y-137394000D01*
X161501714Y-137346380D01*
X161739809Y-137346380D01*
X161835047Y-137394000D01*
X161882666Y-137441619D01*
X161930285Y-137536857D01*
X161930285Y-137632095D01*
X161882666Y-137774952D01*
X161311238Y-138346380D01*
X161930285Y-138346380D01*
X162549333Y-137346380D02*
X162644571Y-137346380D01*
X162739809Y-137394000D01*
X162787428Y-137441619D01*
X162835047Y-137536857D01*
X162882666Y-137727333D01*
X162882666Y-137965428D01*
X162835047Y-138155904D01*
X162787428Y-138251142D01*
X162739809Y-138298761D01*
X162644571Y-138346380D01*
X162549333Y-138346380D01*
X162454095Y-138298761D01*
X162406476Y-138251142D01*
X162358857Y-138155904D01*
X162311238Y-137965428D01*
X162311238Y-137727333D01*
X162358857Y-137536857D01*
X162406476Y-137441619D01*
X162454095Y-137394000D01*
X162549333Y-137346380D01*
X163263619Y-137441619D02*
X163311238Y-137394000D01*
X163406476Y-137346380D01*
X163644571Y-137346380D01*
X163739809Y-137394000D01*
X163787428Y-137441619D01*
X163835047Y-137536857D01*
X163835047Y-137632095D01*
X163787428Y-137774952D01*
X163216000Y-138346380D01*
X163835047Y-138346380D01*
X164787428Y-138346380D02*
X164216000Y-138346380D01*
X164501714Y-138346380D02*
X164501714Y-137346380D01*
X164406476Y-137489238D01*
X164311238Y-137584476D01*
X164216000Y-137632095D01*
D11*
%TO.C,U1*%
X177940000Y-55261000D02*
X176430000Y-55261000D01*
X177940000Y-51561000D02*
X176430000Y-51561000D01*
X176430000Y-48290000D02*
X176430000Y-58531000D01*
X177940000Y-58531000D02*
X173299000Y-58531000D01*
X177940000Y-48290000D02*
X173299000Y-48290000D01*
X173299000Y-48290000D02*
X173299000Y-58531000D01*
X177940000Y-48290000D02*
X177940000Y-58531000D01*
%TO.C,TP1*%
X188435000Y-64489000D02*
G75*
G03*
X188435000Y-64489000I-1700000J0D01*
G01*
%TO.C,TP2*%
X188435000Y-85253500D02*
G75*
G03*
X188435000Y-85253500I-1700000J0D01*
G01*
%TO.C,TH1*%
X184615000Y-107471000D02*
X188855000Y-107471000D01*
X184615000Y-120711000D02*
X188855000Y-120711000D01*
X188855000Y-120711000D02*
X188855000Y-107471000D01*
X184615000Y-120711000D02*
X184615000Y-107471000D01*
%TO.C,RV1*%
X189455500Y-80359500D02*
X184385500Y-80359500D01*
X189455500Y-70589500D02*
X184385500Y-70589500D01*
X184385500Y-70589500D02*
X184385500Y-80359500D01*
X189455500Y-70589500D02*
X189455500Y-80359500D01*
%TO.C,L1*%
X166224000Y-48973701D02*
G75*
G02*
X166224000Y-60860299I-1460000J-5943299D01*
G01*
X163304000Y-48973701D02*
G75*
G03*
X163304000Y-60860299I1460000J-5943299D01*
G01*
%TO.C,J3*%
X182109000Y-94125000D02*
X182109000Y-94525000D01*
X182749000Y-94125000D02*
X182109000Y-94125000D01*
X189089000Y-100145000D02*
X182349000Y-100145000D01*
X189089000Y-94365000D02*
X182349000Y-94365000D01*
X182349000Y-94365000D02*
X182349000Y-100145000D01*
X189089000Y-94365000D02*
X189089000Y-100145000D01*
X187969000Y-94365000D02*
X187969000Y-100145000D01*
X182869000Y-94365000D02*
X182869000Y-100145000D01*
%TO.C,J2*%
X182744000Y-48913000D02*
X182744000Y-49313000D01*
X183384000Y-48913000D02*
X182744000Y-48913000D01*
X189724000Y-54933000D02*
X182984000Y-54933000D01*
X189724000Y-49153000D02*
X182984000Y-49153000D01*
X182984000Y-49153000D02*
X182984000Y-54933000D01*
X189724000Y-49153000D02*
X189724000Y-54933000D01*
X188604000Y-49153000D02*
X188604000Y-54933000D01*
X183504000Y-49153000D02*
X183504000Y-54933000D01*
%TO.C,D4*%
X153388000Y-48903000D02*
X156328000Y-48903000D01*
X153388000Y-48663000D02*
X156328000Y-48663000D01*
X153388000Y-48783000D02*
X156328000Y-48783000D01*
X156328000Y-44243000D02*
X155998000Y-44243000D01*
X156328000Y-49683000D02*
X156328000Y-44243000D01*
X155998000Y-49683000D02*
X156328000Y-49683000D01*
X153388000Y-44243000D02*
X153718000Y-44243000D01*
X153388000Y-49683000D02*
X153388000Y-44243000D01*
X153718000Y-49683000D02*
X153388000Y-49683000D01*
D10*
%TO.C,D3*%
X158645936Y-77189000D02*
G75*
G03*
X158645936Y-77189000I-2517936J0D01*
G01*
X153628000Y-78689000D02*
X153628000Y-75689000D01*
X153643112Y-78713904D02*
G75*
G03*
X153628000Y-75689000I2484888J1524904D01*
G01*
%TO.C,D2*%
X150390936Y-77316000D02*
G75*
G03*
X150390936Y-77316000I-2517936J0D01*
G01*
X145373000Y-78816000D02*
X145373000Y-75816000D01*
X145388112Y-78840904D02*
G75*
G03*
X145373000Y-75816000I2484888J1524904D01*
G01*
%TO.C,D1*%
X141881936Y-77316000D02*
G75*
G03*
X141881936Y-77316000I-2517936J0D01*
G01*
X136864000Y-78816000D02*
X136864000Y-75816000D01*
X136879112Y-78840904D02*
G75*
G03*
X136864000Y-75816000I2484888J1524904D01*
G01*
D12*
%TO.C,Logo1*%
G36*
X172685814Y-133331931D02*
G01*
X172769635Y-133776555D01*
X173078920Y-133904053D01*
X173388206Y-134031551D01*
X173759246Y-133779246D01*
X173863157Y-133708996D01*
X173957087Y-133646272D01*
X174036652Y-133593938D01*
X174097470Y-133554857D01*
X174135157Y-133531893D01*
X174145421Y-133526942D01*
X174163910Y-133539676D01*
X174203420Y-133574882D01*
X174259522Y-133628062D01*
X174327787Y-133694718D01*
X174403786Y-133770354D01*
X174483092Y-133850472D01*
X174561275Y-133930574D01*
X174633907Y-134006164D01*
X174696559Y-134072745D01*
X174744803Y-134125818D01*
X174774210Y-134160887D01*
X174781241Y-134172623D01*
X174771123Y-134194260D01*
X174742759Y-134241662D01*
X174699129Y-134310193D01*
X174643218Y-134395215D01*
X174578006Y-134492093D01*
X174540219Y-134547350D01*
X174471343Y-134648248D01*
X174410140Y-134739299D01*
X174359578Y-134815970D01*
X174322628Y-134873728D01*
X174302258Y-134908043D01*
X174299197Y-134915254D01*
X174306136Y-134935748D01*
X174325051Y-134983513D01*
X174353087Y-135051832D01*
X174387391Y-135133989D01*
X174425109Y-135223270D01*
X174463387Y-135312958D01*
X174499370Y-135396338D01*
X174530206Y-135466694D01*
X174553039Y-135517310D01*
X174565017Y-135541471D01*
X174565724Y-135542422D01*
X174584531Y-135547036D01*
X174634618Y-135557328D01*
X174710793Y-135572287D01*
X174807865Y-135590901D01*
X174920643Y-135612159D01*
X174986442Y-135624418D01*
X175106950Y-135647362D01*
X175215797Y-135669195D01*
X175307476Y-135688722D01*
X175376481Y-135704748D01*
X175417304Y-135716079D01*
X175425511Y-135719674D01*
X175433548Y-135744006D01*
X175440033Y-135798959D01*
X175444970Y-135878108D01*
X175448364Y-135975026D01*
X175450218Y-136083287D01*
X175450538Y-136196465D01*
X175449327Y-136308135D01*
X175446590Y-136411868D01*
X175442331Y-136501241D01*
X175436555Y-136569826D01*
X175429267Y-136611197D01*
X175424895Y-136619810D01*
X175398764Y-136630133D01*
X175343393Y-136644892D01*
X175266107Y-136662352D01*
X175174230Y-136680780D01*
X175142158Y-136686741D01*
X174987524Y-136715066D01*
X174865375Y-136737876D01*
X174771673Y-136756080D01*
X174702384Y-136770583D01*
X174653471Y-136782292D01*
X174620897Y-136792115D01*
X174600628Y-136800956D01*
X174588626Y-136809724D01*
X174586947Y-136811457D01*
X174570184Y-136839371D01*
X174544614Y-136893695D01*
X174512788Y-136967777D01*
X174477260Y-137054965D01*
X174440583Y-137148608D01*
X174405311Y-137242052D01*
X174373996Y-137328647D01*
X174349193Y-137401740D01*
X174333454Y-137454678D01*
X174329332Y-137480811D01*
X174329676Y-137481726D01*
X174343641Y-137503086D01*
X174375322Y-137550084D01*
X174421391Y-137617827D01*
X174478518Y-137701423D01*
X174543373Y-137795982D01*
X174561843Y-137822854D01*
X174627699Y-137920275D01*
X174685650Y-138009163D01*
X174732538Y-138084412D01*
X174765207Y-138140920D01*
X174780500Y-138173581D01*
X174781241Y-138177593D01*
X174768392Y-138198684D01*
X174732888Y-138240464D01*
X174679293Y-138298445D01*
X174612171Y-138368135D01*
X174536087Y-138445045D01*
X174455604Y-138524683D01*
X174375287Y-138602561D01*
X174299699Y-138674186D01*
X174233405Y-138735070D01*
X174180969Y-138780721D01*
X174146955Y-138806650D01*
X174137545Y-138810883D01*
X174115643Y-138800912D01*
X174070800Y-138774020D01*
X174010321Y-138734736D01*
X173963789Y-138703117D01*
X173879475Y-138645098D01*
X173779626Y-138576784D01*
X173679473Y-138508579D01*
X173625627Y-138472075D01*
X173443371Y-138348800D01*
X173290381Y-138431520D01*
X173220682Y-138467759D01*
X173161414Y-138495926D01*
X173121311Y-138511991D01*
X173111103Y-138514226D01*
X173098829Y-138497722D01*
X173074613Y-138451082D01*
X173040263Y-138378609D01*
X172997588Y-138284606D01*
X172948394Y-138173374D01*
X172894490Y-138049215D01*
X172837684Y-137916432D01*
X172779782Y-137779327D01*
X172722593Y-137642202D01*
X172667924Y-137509358D01*
X172617584Y-137385098D01*
X172573380Y-137273725D01*
X172537119Y-137179539D01*
X172510609Y-137106844D01*
X172495658Y-137059941D01*
X172493254Y-137043833D01*
X172512311Y-137023286D01*
X172554036Y-136989933D01*
X172609706Y-136950702D01*
X172614378Y-136947599D01*
X172758264Y-136832423D01*
X172874283Y-136698053D01*
X172961430Y-136548784D01*
X173018699Y-136388913D01*
X173045086Y-136222737D01*
X173039585Y-136054552D01*
X173001190Y-135888655D01*
X172928895Y-135729342D01*
X172907626Y-135694487D01*
X172796996Y-135553737D01*
X172666302Y-135440714D01*
X172520064Y-135356003D01*
X172362808Y-135300194D01*
X172199057Y-135273874D01*
X172033333Y-135277630D01*
X171870162Y-135312050D01*
X171714065Y-135377723D01*
X171569567Y-135475235D01*
X171524869Y-135514813D01*
X171411112Y-135638703D01*
X171328218Y-135769124D01*
X171271356Y-135915315D01*
X171239687Y-136060088D01*
X171231869Y-136222860D01*
X171257938Y-136386440D01*
X171315245Y-136545298D01*
X171401144Y-136693906D01*
X171512986Y-136826735D01*
X171648123Y-136938256D01*
X171665883Y-136950011D01*
X171722150Y-136988508D01*
X171764923Y-137021863D01*
X171785372Y-137043160D01*
X171785669Y-137043833D01*
X171781279Y-137066871D01*
X171763876Y-137119157D01*
X171735268Y-137196390D01*
X171697265Y-137294268D01*
X171651674Y-137408491D01*
X171600303Y-137534758D01*
X171544962Y-137668767D01*
X171487458Y-137806218D01*
X171429601Y-137942808D01*
X171373198Y-138074237D01*
X171320058Y-138196205D01*
X171271990Y-138304409D01*
X171230801Y-138394549D01*
X171198301Y-138462323D01*
X171176297Y-138503430D01*
X171167436Y-138514226D01*
X171140360Y-138505819D01*
X171089697Y-138483272D01*
X171024183Y-138450613D01*
X170988159Y-138431520D01*
X170835168Y-138348800D01*
X170652912Y-138472075D01*
X170559875Y-138535228D01*
X170458015Y-138604727D01*
X170362562Y-138670165D01*
X170314750Y-138703117D01*
X170247505Y-138748273D01*
X170190564Y-138784057D01*
X170151354Y-138805938D01*
X170138619Y-138810563D01*
X170120083Y-138798085D01*
X170079059Y-138763252D01*
X170019525Y-138709678D01*
X169945458Y-138640983D01*
X169860835Y-138560781D01*
X169807315Y-138509286D01*
X169713681Y-138417286D01*
X169632759Y-138334999D01*
X169567823Y-138265945D01*
X169522142Y-138213644D01*
X169498989Y-138181616D01*
X169496768Y-138175116D01*
X169507076Y-138150394D01*
X169535561Y-138100405D01*
X169579063Y-138030212D01*
X169634423Y-137944875D01*
X169698480Y-137849456D01*
X169716697Y-137822854D01*
X169783073Y-137726167D01*
X169842622Y-137639117D01*
X169892016Y-137566595D01*
X169927925Y-137513493D01*
X169947019Y-137484703D01*
X169948864Y-137481726D01*
X169946105Y-137458782D01*
X169931462Y-137408336D01*
X169907487Y-137337041D01*
X169876734Y-137251547D01*
X169841756Y-137158507D01*
X169805107Y-137064574D01*
X169769339Y-136976399D01*
X169737006Y-136900634D01*
X169710662Y-136843931D01*
X169692858Y-136812943D01*
X169691593Y-136811457D01*
X169680706Y-136802601D01*
X169662318Y-136793843D01*
X169632394Y-136784277D01*
X169586897Y-136772996D01*
X169521791Y-136759093D01*
X169433039Y-136741663D01*
X169316607Y-136719798D01*
X169168458Y-136692591D01*
X169136382Y-136686741D01*
X169041314Y-136668374D01*
X168958435Y-136650405D01*
X168895070Y-136634569D01*
X168858542Y-136622600D01*
X168853644Y-136619810D01*
X168845573Y-136595072D01*
X168839013Y-136539790D01*
X168833967Y-136460389D01*
X168830441Y-136363296D01*
X168828439Y-136254938D01*
X168827964Y-136141740D01*
X168829023Y-136030128D01*
X168831618Y-135926529D01*
X168835754Y-135837368D01*
X168841437Y-135769072D01*
X168848669Y-135728066D01*
X168853029Y-135719674D01*
X168877302Y-135711208D01*
X168932574Y-135697435D01*
X169013338Y-135679550D01*
X169114088Y-135658748D01*
X169229317Y-135636223D01*
X169292098Y-135624418D01*
X169411213Y-135602151D01*
X169517435Y-135581979D01*
X169605573Y-135564915D01*
X169670434Y-135551969D01*
X169706826Y-135544155D01*
X169712816Y-135542422D01*
X169722939Y-135522890D01*
X169744338Y-135475843D01*
X169774161Y-135408003D01*
X169809555Y-135326091D01*
X169847668Y-135236828D01*
X169885647Y-135146935D01*
X169920640Y-135063135D01*
X169949794Y-134992147D01*
X169970257Y-134940694D01*
X169979177Y-134915497D01*
X169979343Y-134914396D01*
X169969231Y-134894519D01*
X169940883Y-134848777D01*
X169897277Y-134781717D01*
X169841394Y-134697884D01*
X169776213Y-134601826D01*
X169738321Y-134546650D01*
X169669275Y-134445481D01*
X169607950Y-134353630D01*
X169557337Y-134275744D01*
X169520429Y-134216469D01*
X169500218Y-134180451D01*
X169497299Y-134172377D01*
X169509847Y-134153584D01*
X169544537Y-134113457D01*
X169596937Y-134056493D01*
X169662616Y-133987185D01*
X169737144Y-133910031D01*
X169816087Y-133829525D01*
X169895017Y-133750163D01*
X169969500Y-133676440D01*
X170035106Y-133612852D01*
X170087404Y-133563894D01*
X170121961Y-133534061D01*
X170133522Y-133526942D01*
X170152346Y-133536953D01*
X170197369Y-133565078D01*
X170264213Y-133608454D01*
X170348501Y-133664218D01*
X170445856Y-133729506D01*
X170519293Y-133779246D01*
X170890333Y-134031551D01*
X171508905Y-133776555D01*
X171592725Y-133331931D01*
X171676546Y-132887307D01*
X172601994Y-132887307D01*
X172685814Y-133331931D01*
G37*
X172685814Y-133331931D02*
X172769635Y-133776555D01*
X173078920Y-133904053D01*
X173388206Y-134031551D01*
X173759246Y-133779246D01*
X173863157Y-133708996D01*
X173957087Y-133646272D01*
X174036652Y-133593938D01*
X174097470Y-133554857D01*
X174135157Y-133531893D01*
X174145421Y-133526942D01*
X174163910Y-133539676D01*
X174203420Y-133574882D01*
X174259522Y-133628062D01*
X174327787Y-133694718D01*
X174403786Y-133770354D01*
X174483092Y-133850472D01*
X174561275Y-133930574D01*
X174633907Y-134006164D01*
X174696559Y-134072745D01*
X174744803Y-134125818D01*
X174774210Y-134160887D01*
X174781241Y-134172623D01*
X174771123Y-134194260D01*
X174742759Y-134241662D01*
X174699129Y-134310193D01*
X174643218Y-134395215D01*
X174578006Y-134492093D01*
X174540219Y-134547350D01*
X174471343Y-134648248D01*
X174410140Y-134739299D01*
X174359578Y-134815970D01*
X174322628Y-134873728D01*
X174302258Y-134908043D01*
X174299197Y-134915254D01*
X174306136Y-134935748D01*
X174325051Y-134983513D01*
X174353087Y-135051832D01*
X174387391Y-135133989D01*
X174425109Y-135223270D01*
X174463387Y-135312958D01*
X174499370Y-135396338D01*
X174530206Y-135466694D01*
X174553039Y-135517310D01*
X174565017Y-135541471D01*
X174565724Y-135542422D01*
X174584531Y-135547036D01*
X174634618Y-135557328D01*
X174710793Y-135572287D01*
X174807865Y-135590901D01*
X174920643Y-135612159D01*
X174986442Y-135624418D01*
X175106950Y-135647362D01*
X175215797Y-135669195D01*
X175307476Y-135688722D01*
X175376481Y-135704748D01*
X175417304Y-135716079D01*
X175425511Y-135719674D01*
X175433548Y-135744006D01*
X175440033Y-135798959D01*
X175444970Y-135878108D01*
X175448364Y-135975026D01*
X175450218Y-136083287D01*
X175450538Y-136196465D01*
X175449327Y-136308135D01*
X175446590Y-136411868D01*
X175442331Y-136501241D01*
X175436555Y-136569826D01*
X175429267Y-136611197D01*
X175424895Y-136619810D01*
X175398764Y-136630133D01*
X175343393Y-136644892D01*
X175266107Y-136662352D01*
X175174230Y-136680780D01*
X175142158Y-136686741D01*
X174987524Y-136715066D01*
X174865375Y-136737876D01*
X174771673Y-136756080D01*
X174702384Y-136770583D01*
X174653471Y-136782292D01*
X174620897Y-136792115D01*
X174600628Y-136800956D01*
X174588626Y-136809724D01*
X174586947Y-136811457D01*
X174570184Y-136839371D01*
X174544614Y-136893695D01*
X174512788Y-136967777D01*
X174477260Y-137054965D01*
X174440583Y-137148608D01*
X174405311Y-137242052D01*
X174373996Y-137328647D01*
X174349193Y-137401740D01*
X174333454Y-137454678D01*
X174329332Y-137480811D01*
X174329676Y-137481726D01*
X174343641Y-137503086D01*
X174375322Y-137550084D01*
X174421391Y-137617827D01*
X174478518Y-137701423D01*
X174543373Y-137795982D01*
X174561843Y-137822854D01*
X174627699Y-137920275D01*
X174685650Y-138009163D01*
X174732538Y-138084412D01*
X174765207Y-138140920D01*
X174780500Y-138173581D01*
X174781241Y-138177593D01*
X174768392Y-138198684D01*
X174732888Y-138240464D01*
X174679293Y-138298445D01*
X174612171Y-138368135D01*
X174536087Y-138445045D01*
X174455604Y-138524683D01*
X174375287Y-138602561D01*
X174299699Y-138674186D01*
X174233405Y-138735070D01*
X174180969Y-138780721D01*
X174146955Y-138806650D01*
X174137545Y-138810883D01*
X174115643Y-138800912D01*
X174070800Y-138774020D01*
X174010321Y-138734736D01*
X173963789Y-138703117D01*
X173879475Y-138645098D01*
X173779626Y-138576784D01*
X173679473Y-138508579D01*
X173625627Y-138472075D01*
X173443371Y-138348800D01*
X173290381Y-138431520D01*
X173220682Y-138467759D01*
X173161414Y-138495926D01*
X173121311Y-138511991D01*
X173111103Y-138514226D01*
X173098829Y-138497722D01*
X173074613Y-138451082D01*
X173040263Y-138378609D01*
X172997588Y-138284606D01*
X172948394Y-138173374D01*
X172894490Y-138049215D01*
X172837684Y-137916432D01*
X172779782Y-137779327D01*
X172722593Y-137642202D01*
X172667924Y-137509358D01*
X172617584Y-137385098D01*
X172573380Y-137273725D01*
X172537119Y-137179539D01*
X172510609Y-137106844D01*
X172495658Y-137059941D01*
X172493254Y-137043833D01*
X172512311Y-137023286D01*
X172554036Y-136989933D01*
X172609706Y-136950702D01*
X172614378Y-136947599D01*
X172758264Y-136832423D01*
X172874283Y-136698053D01*
X172961430Y-136548784D01*
X173018699Y-136388913D01*
X173045086Y-136222737D01*
X173039585Y-136054552D01*
X173001190Y-135888655D01*
X172928895Y-135729342D01*
X172907626Y-135694487D01*
X172796996Y-135553737D01*
X172666302Y-135440714D01*
X172520064Y-135356003D01*
X172362808Y-135300194D01*
X172199057Y-135273874D01*
X172033333Y-135277630D01*
X171870162Y-135312050D01*
X171714065Y-135377723D01*
X171569567Y-135475235D01*
X171524869Y-135514813D01*
X171411112Y-135638703D01*
X171328218Y-135769124D01*
X171271356Y-135915315D01*
X171239687Y-136060088D01*
X171231869Y-136222860D01*
X171257938Y-136386440D01*
X171315245Y-136545298D01*
X171401144Y-136693906D01*
X171512986Y-136826735D01*
X171648123Y-136938256D01*
X171665883Y-136950011D01*
X171722150Y-136988508D01*
X171764923Y-137021863D01*
X171785372Y-137043160D01*
X171785669Y-137043833D01*
X171781279Y-137066871D01*
X171763876Y-137119157D01*
X171735268Y-137196390D01*
X171697265Y-137294268D01*
X171651674Y-137408491D01*
X171600303Y-137534758D01*
X171544962Y-137668767D01*
X171487458Y-137806218D01*
X171429601Y-137942808D01*
X171373198Y-138074237D01*
X171320058Y-138196205D01*
X171271990Y-138304409D01*
X171230801Y-138394549D01*
X171198301Y-138462323D01*
X171176297Y-138503430D01*
X171167436Y-138514226D01*
X171140360Y-138505819D01*
X171089697Y-138483272D01*
X171024183Y-138450613D01*
X170988159Y-138431520D01*
X170835168Y-138348800D01*
X170652912Y-138472075D01*
X170559875Y-138535228D01*
X170458015Y-138604727D01*
X170362562Y-138670165D01*
X170314750Y-138703117D01*
X170247505Y-138748273D01*
X170190564Y-138784057D01*
X170151354Y-138805938D01*
X170138619Y-138810563D01*
X170120083Y-138798085D01*
X170079059Y-138763252D01*
X170019525Y-138709678D01*
X169945458Y-138640983D01*
X169860835Y-138560781D01*
X169807315Y-138509286D01*
X169713681Y-138417286D01*
X169632759Y-138334999D01*
X169567823Y-138265945D01*
X169522142Y-138213644D01*
X169498989Y-138181616D01*
X169496768Y-138175116D01*
X169507076Y-138150394D01*
X169535561Y-138100405D01*
X169579063Y-138030212D01*
X169634423Y-137944875D01*
X169698480Y-137849456D01*
X169716697Y-137822854D01*
X169783073Y-137726167D01*
X169842622Y-137639117D01*
X169892016Y-137566595D01*
X169927925Y-137513493D01*
X169947019Y-137484703D01*
X169948864Y-137481726D01*
X169946105Y-137458782D01*
X169931462Y-137408336D01*
X169907487Y-137337041D01*
X169876734Y-137251547D01*
X169841756Y-137158507D01*
X169805107Y-137064574D01*
X169769339Y-136976399D01*
X169737006Y-136900634D01*
X169710662Y-136843931D01*
X169692858Y-136812943D01*
X169691593Y-136811457D01*
X169680706Y-136802601D01*
X169662318Y-136793843D01*
X169632394Y-136784277D01*
X169586897Y-136772996D01*
X169521791Y-136759093D01*
X169433039Y-136741663D01*
X169316607Y-136719798D01*
X169168458Y-136692591D01*
X169136382Y-136686741D01*
X169041314Y-136668374D01*
X168958435Y-136650405D01*
X168895070Y-136634569D01*
X168858542Y-136622600D01*
X168853644Y-136619810D01*
X168845573Y-136595072D01*
X168839013Y-136539790D01*
X168833967Y-136460389D01*
X168830441Y-136363296D01*
X168828439Y-136254938D01*
X168827964Y-136141740D01*
X168829023Y-136030128D01*
X168831618Y-135926529D01*
X168835754Y-135837368D01*
X168841437Y-135769072D01*
X168848669Y-135728066D01*
X168853029Y-135719674D01*
X168877302Y-135711208D01*
X168932574Y-135697435D01*
X169013338Y-135679550D01*
X169114088Y-135658748D01*
X169229317Y-135636223D01*
X169292098Y-135624418D01*
X169411213Y-135602151D01*
X169517435Y-135581979D01*
X169605573Y-135564915D01*
X169670434Y-135551969D01*
X169706826Y-135544155D01*
X169712816Y-135542422D01*
X169722939Y-135522890D01*
X169744338Y-135475843D01*
X169774161Y-135408003D01*
X169809555Y-135326091D01*
X169847668Y-135236828D01*
X169885647Y-135146935D01*
X169920640Y-135063135D01*
X169949794Y-134992147D01*
X169970257Y-134940694D01*
X169979177Y-134915497D01*
X169979343Y-134914396D01*
X169969231Y-134894519D01*
X169940883Y-134848777D01*
X169897277Y-134781717D01*
X169841394Y-134697884D01*
X169776213Y-134601826D01*
X169738321Y-134546650D01*
X169669275Y-134445481D01*
X169607950Y-134353630D01*
X169557337Y-134275744D01*
X169520429Y-134216469D01*
X169500218Y-134180451D01*
X169497299Y-134172377D01*
X169509847Y-134153584D01*
X169544537Y-134113457D01*
X169596937Y-134056493D01*
X169662616Y-133987185D01*
X169737144Y-133910031D01*
X169816087Y-133829525D01*
X169895017Y-133750163D01*
X169969500Y-133676440D01*
X170035106Y-133612852D01*
X170087404Y-133563894D01*
X170121961Y-133534061D01*
X170133522Y-133526942D01*
X170152346Y-133536953D01*
X170197369Y-133565078D01*
X170264213Y-133608454D01*
X170348501Y-133664218D01*
X170445856Y-133729506D01*
X170519293Y-133779246D01*
X170890333Y-134031551D01*
X171508905Y-133776555D01*
X171592725Y-133331931D01*
X171676546Y-132887307D01*
X172601994Y-132887307D01*
X172685814Y-133331931D01*
D11*
%TO.C,A1*%
X136270000Y-101270000D02*
X136270000Y-98730000D01*
X136270000Y-98730000D02*
X133600000Y-98730000D01*
X133600000Y-101270000D02*
X133600000Y-139500000D01*
X133600000Y-96060000D02*
X133600000Y-98730000D01*
X148970000Y-98730000D02*
X151640000Y-98730000D01*
X148970000Y-98730000D02*
X148970000Y-136830000D01*
X148970000Y-136830000D02*
X151640000Y-136830000D01*
X136270000Y-101270000D02*
X133600000Y-101270000D01*
X136270000Y-101270000D02*
X136270000Y-136830000D01*
X136270000Y-136830000D02*
X133600000Y-136830000D01*
X133600000Y-139500000D02*
X151640000Y-139500000D01*
X151640000Y-139500000D02*
X151640000Y-96060000D01*
X151640000Y-96060000D02*
X133600000Y-96060000D01*
%TO.C,J1*%
X129600000Y-77470000D02*
X130710000Y-77470000D01*
X130710000Y-77470000D02*
X130710000Y-78800000D01*
X119510000Y-77470000D02*
X119510000Y-102990000D01*
X119510000Y-102990000D02*
X128140000Y-102990000D01*
X128140000Y-77470000D02*
X128140000Y-102990000D01*
X119510000Y-77470000D02*
X128140000Y-77470000D01*
X119510000Y-100390000D02*
X128140000Y-100390000D01*
X119510000Y-97850000D02*
X128140000Y-97850000D01*
X119510000Y-95310000D02*
X128140000Y-95310000D01*
X119510000Y-92770000D02*
X128140000Y-92770000D01*
X119510000Y-90230000D02*
X128140000Y-90230000D01*
X119510000Y-87690000D02*
X128140000Y-87690000D01*
X119510000Y-85150000D02*
X128140000Y-85150000D01*
X119510000Y-82610000D02*
X128140000Y-82610000D01*
X119510000Y-80070000D02*
X128140000Y-80070000D01*
X128140000Y-102020000D02*
X128550000Y-102020000D01*
X128140000Y-101300000D02*
X128550000Y-101300000D01*
X128140000Y-99480000D02*
X128550000Y-99480000D01*
X128140000Y-98760000D02*
X128550000Y-98760000D01*
X128140000Y-96940000D02*
X128550000Y-96940000D01*
X128140000Y-96220000D02*
X128550000Y-96220000D01*
X128140000Y-94400000D02*
X128550000Y-94400000D01*
X128140000Y-93680000D02*
X128550000Y-93680000D01*
X128140000Y-91860000D02*
X128550000Y-91860000D01*
X128140000Y-91140000D02*
X128550000Y-91140000D01*
X128140000Y-89320000D02*
X128550000Y-89320000D01*
X128140000Y-88600000D02*
X128550000Y-88600000D01*
X128140000Y-86780000D02*
X128550000Y-86780000D01*
X128140000Y-86060000D02*
X128550000Y-86060000D01*
X128140000Y-84240000D02*
X128550000Y-84240000D01*
X128140000Y-83520000D02*
X128550000Y-83520000D01*
X128140000Y-81700000D02*
X128550000Y-81700000D01*
X128140000Y-80980000D02*
X128550000Y-80980000D01*
X128140000Y-79160000D02*
X128490000Y-79160000D01*
X128140000Y-78440000D02*
X128490000Y-78440000D01*
X119510000Y-79951900D02*
X128140000Y-79951900D01*
X119510000Y-79833805D02*
X128140000Y-79833805D01*
X119510000Y-79715710D02*
X128140000Y-79715710D01*
X119510000Y-79597615D02*
X128140000Y-79597615D01*
X119510000Y-79479520D02*
X128140000Y-79479520D01*
X119510000Y-79361425D02*
X128140000Y-79361425D01*
X119510000Y-79243330D02*
X128140000Y-79243330D01*
X119510000Y-79125235D02*
X128140000Y-79125235D01*
X119510000Y-79007140D02*
X128140000Y-79007140D01*
X119510000Y-78889045D02*
X128140000Y-78889045D01*
X119510000Y-78770950D02*
X128140000Y-78770950D01*
X119510000Y-78652855D02*
X128140000Y-78652855D01*
X119510000Y-78534760D02*
X128140000Y-78534760D01*
X119510000Y-78416665D02*
X128140000Y-78416665D01*
X119510000Y-78298570D02*
X128140000Y-78298570D01*
X119510000Y-78180475D02*
X128140000Y-78180475D01*
X119510000Y-78062380D02*
X128140000Y-78062380D01*
X119510000Y-77944285D02*
X128140000Y-77944285D01*
X119510000Y-77826190D02*
X128140000Y-77826190D01*
X119510000Y-77708095D02*
X128140000Y-77708095D01*
X119510000Y-77590000D02*
X128140000Y-77590000D01*
%TO.C,U1*%
D10*
X178392380Y-54172904D02*
X179201904Y-54172904D01*
X179297142Y-54125285D01*
X179344761Y-54077666D01*
X179392380Y-53982428D01*
X179392380Y-53791952D01*
X179344761Y-53696714D01*
X179297142Y-53649095D01*
X179201904Y-53601476D01*
X178392380Y-53601476D01*
X179392380Y-52601476D02*
X179392380Y-53172904D01*
X179392380Y-52887190D02*
X178392380Y-52887190D01*
X178535238Y-52982428D01*
X178630476Y-53077666D01*
X178678095Y-53172904D01*
%TO.C,TP1*%
X186173095Y-66441380D02*
X186744523Y-66441380D01*
X186458809Y-67441380D02*
X186458809Y-66441380D01*
X187077857Y-67441380D02*
X187077857Y-66441380D01*
X187458809Y-66441380D01*
X187554047Y-66489000D01*
X187601666Y-66536619D01*
X187649285Y-66631857D01*
X187649285Y-66774714D01*
X187601666Y-66869952D01*
X187554047Y-66917571D01*
X187458809Y-66965190D01*
X187077857Y-66965190D01*
X188601666Y-67441380D02*
X188030238Y-67441380D01*
X188315952Y-67441380D02*
X188315952Y-66441380D01*
X188220714Y-66584238D01*
X188125476Y-66679476D01*
X188030238Y-66727095D01*
%TO.C,TP2*%
X186173095Y-87205880D02*
X186744523Y-87205880D01*
X186458809Y-88205880D02*
X186458809Y-87205880D01*
X187077857Y-88205880D02*
X187077857Y-87205880D01*
X187458809Y-87205880D01*
X187554047Y-87253500D01*
X187601666Y-87301119D01*
X187649285Y-87396357D01*
X187649285Y-87539214D01*
X187601666Y-87634452D01*
X187554047Y-87682071D01*
X187458809Y-87729690D01*
X187077857Y-87729690D01*
X188030238Y-87301119D02*
X188077857Y-87253500D01*
X188173095Y-87205880D01*
X188411190Y-87205880D01*
X188506428Y-87253500D01*
X188554047Y-87301119D01*
X188601666Y-87396357D01*
X188601666Y-87491595D01*
X188554047Y-87634452D01*
X187982619Y-88205880D01*
X188601666Y-88205880D01*
%TO.C,TH1*%
X182937380Y-115376714D02*
X182937380Y-114805285D01*
X183937380Y-115091000D02*
X182937380Y-115091000D01*
X183937380Y-114471952D02*
X182937380Y-114471952D01*
X183413571Y-114471952D02*
X183413571Y-113900523D01*
X183937380Y-113900523D02*
X182937380Y-113900523D01*
X183937380Y-112900523D02*
X183937380Y-113471952D01*
X183937380Y-113186238D02*
X182937380Y-113186238D01*
X183080238Y-113281476D01*
X183175476Y-113376714D01*
X183223095Y-113471952D01*
%TO.C,RV1*%
X191037880Y-76069738D02*
X190561690Y-76403071D01*
X191037880Y-76641166D02*
X190037880Y-76641166D01*
X190037880Y-76260214D01*
X190085500Y-76164976D01*
X190133119Y-76117357D01*
X190228357Y-76069738D01*
X190371214Y-76069738D01*
X190466452Y-76117357D01*
X190514071Y-76164976D01*
X190561690Y-76260214D01*
X190561690Y-76641166D01*
X190037880Y-75784023D02*
X191037880Y-75450690D01*
X190037880Y-75117357D01*
X191037880Y-74260214D02*
X191037880Y-74831642D01*
X191037880Y-74545928D02*
X190037880Y-74545928D01*
X190180738Y-74641166D01*
X190275976Y-74736404D01*
X190323595Y-74831642D01*
%TO.C,L1*%
X157966380Y-55083666D02*
X157966380Y-55559857D01*
X156966380Y-55559857D01*
X157966380Y-54226523D02*
X157966380Y-54797952D01*
X157966380Y-54512238D02*
X156966380Y-54512238D01*
X157109238Y-54607476D01*
X157204476Y-54702714D01*
X157252095Y-54797952D01*
%TO.C,J3*%
X184536380Y-92381333D02*
X185250666Y-92381333D01*
X185393523Y-92428952D01*
X185488761Y-92524190D01*
X185536380Y-92667047D01*
X185536380Y-92762285D01*
X184536380Y-92000380D02*
X184536380Y-91381333D01*
X184917333Y-91714666D01*
X184917333Y-91571809D01*
X184964952Y-91476571D01*
X185012571Y-91428952D01*
X185107809Y-91381333D01*
X185345904Y-91381333D01*
X185441142Y-91428952D01*
X185488761Y-91476571D01*
X185536380Y-91571809D01*
X185536380Y-91857523D01*
X185488761Y-91952761D01*
X185441142Y-92000380D01*
%TO.C,J2*%
X186020666Y-55813380D02*
X186020666Y-56527666D01*
X185973047Y-56670523D01*
X185877809Y-56765761D01*
X185734952Y-56813380D01*
X185639714Y-56813380D01*
X186449238Y-55908619D02*
X186496857Y-55861000D01*
X186592095Y-55813380D01*
X186830190Y-55813380D01*
X186925428Y-55861000D01*
X186973047Y-55908619D01*
X187020666Y-56003857D01*
X187020666Y-56099095D01*
X186973047Y-56241952D01*
X186401619Y-56813380D01*
X187020666Y-56813380D01*
%TO.C,D4*%
X152840380Y-47701095D02*
X151840380Y-47701095D01*
X151840380Y-47463000D01*
X151888000Y-47320142D01*
X151983238Y-47224904D01*
X152078476Y-47177285D01*
X152268952Y-47129666D01*
X152411809Y-47129666D01*
X152602285Y-47177285D01*
X152697523Y-47224904D01*
X152792761Y-47320142D01*
X152840380Y-47463000D01*
X152840380Y-47701095D01*
X152173714Y-46272523D02*
X152840380Y-46272523D01*
X151792761Y-46510619D02*
X152507047Y-46748714D01*
X152507047Y-46129666D01*
X153410380Y-51034904D02*
X152410380Y-51034904D01*
X153410380Y-50463476D02*
X152838952Y-50892047D01*
X152410380Y-50463476D02*
X152981809Y-51034904D01*
%TO.C,D3*%
X155643904Y-81705380D02*
X155643904Y-80705380D01*
X155882000Y-80705380D01*
X156024857Y-80753000D01*
X156120095Y-80848238D01*
X156167714Y-80943476D01*
X156215333Y-81133952D01*
X156215333Y-81276809D01*
X156167714Y-81467285D01*
X156120095Y-81562523D01*
X156024857Y-81657761D01*
X155882000Y-81705380D01*
X155643904Y-81705380D01*
X156548666Y-80705380D02*
X157167714Y-80705380D01*
X156834380Y-81086333D01*
X156977238Y-81086333D01*
X157072476Y-81133952D01*
X157120095Y-81181571D01*
X157167714Y-81276809D01*
X157167714Y-81514904D01*
X157120095Y-81610142D01*
X157072476Y-81657761D01*
X156977238Y-81705380D01*
X156691523Y-81705380D01*
X156596285Y-81657761D01*
X156548666Y-81610142D01*
X152691095Y-79546380D02*
X152691095Y-78546380D01*
X153262523Y-79546380D02*
X152833952Y-78974952D01*
X153262523Y-78546380D02*
X152691095Y-79117809D01*
%TO.C,D2*%
X147388904Y-81832380D02*
X147388904Y-80832380D01*
X147627000Y-80832380D01*
X147769857Y-80880000D01*
X147865095Y-80975238D01*
X147912714Y-81070476D01*
X147960333Y-81260952D01*
X147960333Y-81403809D01*
X147912714Y-81594285D01*
X147865095Y-81689523D01*
X147769857Y-81784761D01*
X147627000Y-81832380D01*
X147388904Y-81832380D01*
X148341285Y-80927619D02*
X148388904Y-80880000D01*
X148484142Y-80832380D01*
X148722238Y-80832380D01*
X148817476Y-80880000D01*
X148865095Y-80927619D01*
X148912714Y-81022857D01*
X148912714Y-81118095D01*
X148865095Y-81260952D01*
X148293666Y-81832380D01*
X148912714Y-81832380D01*
X144436095Y-79673380D02*
X144436095Y-78673380D01*
X145007523Y-79673380D02*
X144578952Y-79101952D01*
X145007523Y-78673380D02*
X144436095Y-79244809D01*
%TO.C,D1*%
X138879904Y-81832380D02*
X138879904Y-80832380D01*
X139118000Y-80832380D01*
X139260857Y-80880000D01*
X139356095Y-80975238D01*
X139403714Y-81070476D01*
X139451333Y-81260952D01*
X139451333Y-81403809D01*
X139403714Y-81594285D01*
X139356095Y-81689523D01*
X139260857Y-81784761D01*
X139118000Y-81832380D01*
X138879904Y-81832380D01*
X140403714Y-81832380D02*
X139832285Y-81832380D01*
X140118000Y-81832380D02*
X140118000Y-80832380D01*
X140022761Y-80975238D01*
X139927523Y-81070476D01*
X139832285Y-81118095D01*
X135927095Y-79673380D02*
X135927095Y-78673380D01*
X136498523Y-79673380D02*
X136069952Y-79101952D01*
X136498523Y-78673380D02*
X135927095Y-79244809D01*
%TO.C,A1*%
X141905714Y-95086666D02*
X142381904Y-95086666D01*
X141810476Y-95372380D02*
X142143809Y-94372380D01*
X142477142Y-95372380D01*
X143334285Y-95372380D02*
X142762857Y-95372380D01*
X143048571Y-95372380D02*
X143048571Y-94372380D01*
X142953333Y-94515238D01*
X142858095Y-94610476D01*
X142762857Y-94658095D01*
%TO.C,J1*%
X124886666Y-75482380D02*
X124886666Y-76196666D01*
X124839047Y-76339523D01*
X124743809Y-76434761D01*
X124600952Y-76482380D01*
X124505714Y-76482380D01*
X125886666Y-76482380D02*
X125315238Y-76482380D01*
X125600952Y-76482380D02*
X125600952Y-75482380D01*
X125505714Y-75625238D01*
X125410476Y-75720476D01*
X125315238Y-75768095D01*
%TD*%
M02*
