%TF.GenerationSoftware,KiCad,Pcbnew,5.1.10-1.fc34*%
%TF.CreationDate,2021-06-08T11:44:04-04:00*%
%TF.ProjectId,BREAD_Slice,42524541-445f-4536-9c69-63652e6b6963,rev?*%
%TF.SameCoordinates,Original*%
%TF.FileFunction,Soldermask,Top*%
%TF.FilePolarity,Negative*%
%FSLAX46Y46*%
G04 Gerber Fmt 4.6, Leading zero omitted, Abs format (unit mm)*
G04 Created by KiCad (PCBNEW 5.1.10-1.fc34) date 2021-06-08 11:44:04*
%MOMM*%
%LPD*%
G01*
G04 APERTURE LIST*
%ADD10O,1.900000X1.375000*%
%ADD11C,3.100000*%
%ADD12C,2.100000*%
%ADD13C,1.540000*%
%ADD14C,2.500000*%
%ADD15C,2.200000*%
%ADD16O,1.900000X1.900000*%
%ADD17C,2.000000*%
%ADD18C,5.700000*%
%ADD19O,1.700000X1.700000*%
%ADD20O,1.800000X1.800000*%
G04 APERTURE END LIST*
D10*
%TO.C,U1*%
X174670000Y-56811000D03*
X174670000Y-55111000D03*
X174670000Y-53411000D03*
X174670000Y-51711000D03*
G36*
G01*
X173770000Y-49323500D02*
X175570000Y-49323500D01*
G75*
G02*
X175620000Y-49373500I0J-50000D01*
G01*
X175620000Y-50648500D01*
G75*
G02*
X175570000Y-50698500I-50000J0D01*
G01*
X173770000Y-50698500D01*
G75*
G02*
X173720000Y-50648500I0J50000D01*
G01*
X173720000Y-49373500D01*
G75*
G02*
X173770000Y-49323500I50000J0D01*
G01*
G37*
%TD*%
D11*
%TO.C,TP1*%
X186735000Y-64489000D03*
%TD*%
%TO.C,TP2*%
X186735000Y-85253500D03*
%TD*%
D12*
%TO.C,TH1*%
X186735000Y-109591000D03*
X186735000Y-118591000D03*
%TD*%
D13*
%TO.C,RV1*%
X186925500Y-72934500D03*
X186925500Y-75474500D03*
X186925500Y-78014500D03*
%TD*%
D14*
%TO.C,L1*%
X164764000Y-49917000D03*
X164764000Y-59917000D03*
%TD*%
D15*
%TO.C,J3*%
X185719000Y-98525000D03*
G36*
G01*
X184669000Y-94885000D02*
X186769000Y-94885000D01*
G75*
G02*
X186819000Y-94935000I0J-50000D01*
G01*
X186819000Y-97035000D01*
G75*
G02*
X186769000Y-97085000I-50000J0D01*
G01*
X184669000Y-97085000D01*
G75*
G02*
X184619000Y-97035000I0J50000D01*
G01*
X184619000Y-94935000D01*
G75*
G02*
X184669000Y-94885000I50000J0D01*
G01*
G37*
%TD*%
%TO.C,J2*%
X186354000Y-53313000D03*
G36*
G01*
X185304000Y-49673000D02*
X187404000Y-49673000D01*
G75*
G02*
X187454000Y-49723000I0J-50000D01*
G01*
X187454000Y-51823000D01*
G75*
G02*
X187404000Y-51873000I-50000J0D01*
G01*
X185304000Y-51873000D01*
G75*
G02*
X185254000Y-51823000I0J50000D01*
G01*
X185254000Y-49723000D01*
G75*
G02*
X185304000Y-49673000I50000J0D01*
G01*
G37*
%TD*%
D16*
%TO.C,D4*%
X154858000Y-43153000D03*
G36*
G01*
X155758000Y-51723000D02*
X153958000Y-51723000D01*
G75*
G02*
X153908000Y-51673000I0J50000D01*
G01*
X153908000Y-49873000D01*
G75*
G02*
X153958000Y-49823000I50000J0D01*
G01*
X155758000Y-49823000D01*
G75*
G02*
X155808000Y-49873000I0J-50000D01*
G01*
X155808000Y-51673000D01*
G75*
G02*
X155758000Y-51723000I-50000J0D01*
G01*
G37*
%TD*%
D17*
%TO.C,D3*%
X157398000Y-77189000D03*
G36*
G01*
X155808000Y-78239000D02*
X153908000Y-78239000D01*
G75*
G02*
X153858000Y-78189000I0J50000D01*
G01*
X153858000Y-76189000D01*
G75*
G02*
X153908000Y-76139000I50000J0D01*
G01*
X155808000Y-76139000D01*
G75*
G02*
X155858000Y-76189000I0J-50000D01*
G01*
X155858000Y-78189000D01*
G75*
G02*
X155808000Y-78239000I-50000J0D01*
G01*
G37*
%TD*%
%TO.C,D2*%
X149143000Y-77316000D03*
G36*
G01*
X147553000Y-78366000D02*
X145653000Y-78366000D01*
G75*
G02*
X145603000Y-78316000I0J50000D01*
G01*
X145603000Y-76316000D01*
G75*
G02*
X145653000Y-76266000I50000J0D01*
G01*
X147553000Y-76266000D01*
G75*
G02*
X147603000Y-76316000I0J-50000D01*
G01*
X147603000Y-78316000D01*
G75*
G02*
X147553000Y-78366000I-50000J0D01*
G01*
G37*
%TD*%
%TO.C,D1*%
X140634000Y-77316000D03*
G36*
G01*
X139044000Y-78366000D02*
X137144000Y-78366000D01*
G75*
G02*
X137094000Y-78316000I0J50000D01*
G01*
X137094000Y-76316000D01*
G75*
G02*
X137144000Y-76266000I50000J0D01*
G01*
X139044000Y-76266000D01*
G75*
G02*
X139094000Y-76316000I0J-50000D01*
G01*
X139094000Y-78316000D01*
G75*
G02*
X139044000Y-78366000I-50000J0D01*
G01*
G37*
%TD*%
D18*
%TO.C,H4*%
X187600000Y-134800000D03*
%TD*%
%TO.C,H3*%
X127600000Y-134800000D03*
%TD*%
%TO.C,H2*%
X187600000Y-44800000D03*
%TD*%
%TO.C,H1*%
X127600000Y-44800000D03*
%TD*%
%TO.C,A1*%
G36*
G01*
X134150000Y-100800000D02*
X134150000Y-99200000D01*
G75*
G02*
X134200000Y-99150000I50000J0D01*
G01*
X135800000Y-99150000D01*
G75*
G02*
X135850000Y-99200000I0J-50000D01*
G01*
X135850000Y-100800000D01*
G75*
G02*
X135800000Y-100850000I-50000J0D01*
G01*
X134200000Y-100850000D01*
G75*
G02*
X134150000Y-100800000I0J50000D01*
G01*
G37*
D19*
X150240000Y-133020000D03*
X135000000Y-102540000D03*
X150240000Y-130480000D03*
X135000000Y-105080000D03*
X150240000Y-127940000D03*
X135000000Y-107620000D03*
X150240000Y-125400000D03*
X135000000Y-110160000D03*
X150240000Y-122860000D03*
X135000000Y-112700000D03*
X150240000Y-120320000D03*
X135000000Y-115240000D03*
X150240000Y-117780000D03*
X135000000Y-117780000D03*
X150240000Y-115240000D03*
X135000000Y-120320000D03*
X150240000Y-112700000D03*
X135000000Y-122860000D03*
X150240000Y-110160000D03*
X135000000Y-125400000D03*
X150240000Y-107620000D03*
X135000000Y-127940000D03*
X150240000Y-105080000D03*
X135000000Y-130480000D03*
X150240000Y-102540000D03*
X135000000Y-133020000D03*
X150240000Y-100000000D03*
X135000000Y-135560000D03*
X150240000Y-135560000D03*
%TD*%
%TO.C,J1*%
G36*
G01*
X128700000Y-79650000D02*
X128700000Y-77950000D01*
G75*
G02*
X128750000Y-77900000I50000J0D01*
G01*
X130450000Y-77900000D01*
G75*
G02*
X130500000Y-77950000I0J-50000D01*
G01*
X130500000Y-79650000D01*
G75*
G02*
X130450000Y-79700000I-50000J0D01*
G01*
X128750000Y-79700000D01*
G75*
G02*
X128700000Y-79650000I0J50000D01*
G01*
G37*
D20*
X129600000Y-81340000D03*
X129600000Y-83880000D03*
X129600000Y-86420000D03*
X129600000Y-88960000D03*
X129600000Y-91500000D03*
X129600000Y-94040000D03*
X129600000Y-96580000D03*
X129600000Y-99120000D03*
X129600000Y-101660000D03*
%TD*%
M02*
