%TF.GenerationSoftware,KiCad,Pcbnew,5.1.10-1.fc34*%
%TF.CreationDate,2021-06-08T11:44:04-04:00*%
%TF.ProjectId,BREAD_Slice,42524541-445f-4536-9c69-63652e6b6963,rev?*%
%TF.SameCoordinates,Original*%
%TF.FileFunction,Soldermask,Bot*%
%TF.FilePolarity,Negative*%
%FSLAX46Y46*%
G04 Gerber Fmt 4.6, Leading zero omitted, Abs format (unit mm)*
G04 Created by KiCad (PCBNEW 5.1.10-1.fc34) date 2021-06-08 11:44:04*
%MOMM*%
%LPD*%
G01*
G04 APERTURE LIST*
%ADD10O,1.900000X1.375000*%
%ADD11C,3.100000*%
%ADD12C,2.100000*%
%ADD13C,1.540000*%
%ADD14C,2.500000*%
%ADD15C,2.200000*%
%ADD16O,1.900000X1.900000*%
%ADD17C,2.000000*%
%ADD18C,5.700000*%
%ADD19O,1.700000X1.700000*%
%ADD20O,1.800000X1.800000*%
G04 APERTURE END LIST*
%TO.C,U2*%
G36*
G01*
X169697000Y-101539500D02*
X167197000Y-101539500D01*
G75*
G02*
X167147000Y-101489500I0J50000D01*
G01*
X167147000Y-98989500D01*
G75*
G02*
X167197000Y-98939500I50000J0D01*
G01*
X169697000Y-98939500D01*
G75*
G02*
X169747000Y-98989500I0J-50000D01*
G01*
X169747000Y-101489500D01*
G75*
G02*
X169697000Y-101539500I-50000J0D01*
G01*
G37*
G36*
G01*
X170759500Y-101414500D02*
X170009500Y-101414500D01*
G75*
G02*
X169922000Y-101327000I0J87500D01*
G01*
X169922000Y-101152000D01*
G75*
G02*
X170009500Y-101064500I87500J0D01*
G01*
X170759500Y-101064500D01*
G75*
G02*
X170847000Y-101152000I0J-87500D01*
G01*
X170847000Y-101327000D01*
G75*
G02*
X170759500Y-101414500I-87500J0D01*
G01*
G37*
G36*
G01*
X170759500Y-100914500D02*
X170009500Y-100914500D01*
G75*
G02*
X169922000Y-100827000I0J87500D01*
G01*
X169922000Y-100652000D01*
G75*
G02*
X170009500Y-100564500I87500J0D01*
G01*
X170759500Y-100564500D01*
G75*
G02*
X170847000Y-100652000I0J-87500D01*
G01*
X170847000Y-100827000D01*
G75*
G02*
X170759500Y-100914500I-87500J0D01*
G01*
G37*
G36*
G01*
X170759500Y-100414500D02*
X170009500Y-100414500D01*
G75*
G02*
X169922000Y-100327000I0J87500D01*
G01*
X169922000Y-100152000D01*
G75*
G02*
X170009500Y-100064500I87500J0D01*
G01*
X170759500Y-100064500D01*
G75*
G02*
X170847000Y-100152000I0J-87500D01*
G01*
X170847000Y-100327000D01*
G75*
G02*
X170759500Y-100414500I-87500J0D01*
G01*
G37*
G36*
G01*
X170759500Y-99914500D02*
X170009500Y-99914500D01*
G75*
G02*
X169922000Y-99827000I0J87500D01*
G01*
X169922000Y-99652000D01*
G75*
G02*
X170009500Y-99564500I87500J0D01*
G01*
X170759500Y-99564500D01*
G75*
G02*
X170847000Y-99652000I0J-87500D01*
G01*
X170847000Y-99827000D01*
G75*
G02*
X170759500Y-99914500I-87500J0D01*
G01*
G37*
G36*
G01*
X170759500Y-99414500D02*
X170009500Y-99414500D01*
G75*
G02*
X169922000Y-99327000I0J87500D01*
G01*
X169922000Y-99152000D01*
G75*
G02*
X170009500Y-99064500I87500J0D01*
G01*
X170759500Y-99064500D01*
G75*
G02*
X170847000Y-99152000I0J-87500D01*
G01*
X170847000Y-99327000D01*
G75*
G02*
X170759500Y-99414500I-87500J0D01*
G01*
G37*
G36*
G01*
X169534500Y-98764500D02*
X169359500Y-98764500D01*
G75*
G02*
X169272000Y-98677000I0J87500D01*
G01*
X169272000Y-97927000D01*
G75*
G02*
X169359500Y-97839500I87500J0D01*
G01*
X169534500Y-97839500D01*
G75*
G02*
X169622000Y-97927000I0J-87500D01*
G01*
X169622000Y-98677000D01*
G75*
G02*
X169534500Y-98764500I-87500J0D01*
G01*
G37*
G36*
G01*
X169034500Y-98764500D02*
X168859500Y-98764500D01*
G75*
G02*
X168772000Y-98677000I0J87500D01*
G01*
X168772000Y-97927000D01*
G75*
G02*
X168859500Y-97839500I87500J0D01*
G01*
X169034500Y-97839500D01*
G75*
G02*
X169122000Y-97927000I0J-87500D01*
G01*
X169122000Y-98677000D01*
G75*
G02*
X169034500Y-98764500I-87500J0D01*
G01*
G37*
G36*
G01*
X168534500Y-98764500D02*
X168359500Y-98764500D01*
G75*
G02*
X168272000Y-98677000I0J87500D01*
G01*
X168272000Y-97927000D01*
G75*
G02*
X168359500Y-97839500I87500J0D01*
G01*
X168534500Y-97839500D01*
G75*
G02*
X168622000Y-97927000I0J-87500D01*
G01*
X168622000Y-98677000D01*
G75*
G02*
X168534500Y-98764500I-87500J0D01*
G01*
G37*
G36*
G01*
X168034500Y-98764500D02*
X167859500Y-98764500D01*
G75*
G02*
X167772000Y-98677000I0J87500D01*
G01*
X167772000Y-97927000D01*
G75*
G02*
X167859500Y-97839500I87500J0D01*
G01*
X168034500Y-97839500D01*
G75*
G02*
X168122000Y-97927000I0J-87500D01*
G01*
X168122000Y-98677000D01*
G75*
G02*
X168034500Y-98764500I-87500J0D01*
G01*
G37*
G36*
G01*
X167534500Y-98764500D02*
X167359500Y-98764500D01*
G75*
G02*
X167272000Y-98677000I0J87500D01*
G01*
X167272000Y-97927000D01*
G75*
G02*
X167359500Y-97839500I87500J0D01*
G01*
X167534500Y-97839500D01*
G75*
G02*
X167622000Y-97927000I0J-87500D01*
G01*
X167622000Y-98677000D01*
G75*
G02*
X167534500Y-98764500I-87500J0D01*
G01*
G37*
G36*
G01*
X166884500Y-99414500D02*
X166134500Y-99414500D01*
G75*
G02*
X166047000Y-99327000I0J87500D01*
G01*
X166047000Y-99152000D01*
G75*
G02*
X166134500Y-99064500I87500J0D01*
G01*
X166884500Y-99064500D01*
G75*
G02*
X166972000Y-99152000I0J-87500D01*
G01*
X166972000Y-99327000D01*
G75*
G02*
X166884500Y-99414500I-87500J0D01*
G01*
G37*
G36*
G01*
X166884500Y-99914500D02*
X166134500Y-99914500D01*
G75*
G02*
X166047000Y-99827000I0J87500D01*
G01*
X166047000Y-99652000D01*
G75*
G02*
X166134500Y-99564500I87500J0D01*
G01*
X166884500Y-99564500D01*
G75*
G02*
X166972000Y-99652000I0J-87500D01*
G01*
X166972000Y-99827000D01*
G75*
G02*
X166884500Y-99914500I-87500J0D01*
G01*
G37*
G36*
G01*
X166884500Y-100414500D02*
X166134500Y-100414500D01*
G75*
G02*
X166047000Y-100327000I0J87500D01*
G01*
X166047000Y-100152000D01*
G75*
G02*
X166134500Y-100064500I87500J0D01*
G01*
X166884500Y-100064500D01*
G75*
G02*
X166972000Y-100152000I0J-87500D01*
G01*
X166972000Y-100327000D01*
G75*
G02*
X166884500Y-100414500I-87500J0D01*
G01*
G37*
G36*
G01*
X166884500Y-100914500D02*
X166134500Y-100914500D01*
G75*
G02*
X166047000Y-100827000I0J87500D01*
G01*
X166047000Y-100652000D01*
G75*
G02*
X166134500Y-100564500I87500J0D01*
G01*
X166884500Y-100564500D01*
G75*
G02*
X166972000Y-100652000I0J-87500D01*
G01*
X166972000Y-100827000D01*
G75*
G02*
X166884500Y-100914500I-87500J0D01*
G01*
G37*
G36*
G01*
X166884500Y-101414500D02*
X166134500Y-101414500D01*
G75*
G02*
X166047000Y-101327000I0J87500D01*
G01*
X166047000Y-101152000D01*
G75*
G02*
X166134500Y-101064500I87500J0D01*
G01*
X166884500Y-101064500D01*
G75*
G02*
X166972000Y-101152000I0J-87500D01*
G01*
X166972000Y-101327000D01*
G75*
G02*
X166884500Y-101414500I-87500J0D01*
G01*
G37*
G36*
G01*
X167534500Y-102639500D02*
X167359500Y-102639500D01*
G75*
G02*
X167272000Y-102552000I0J87500D01*
G01*
X167272000Y-101802000D01*
G75*
G02*
X167359500Y-101714500I87500J0D01*
G01*
X167534500Y-101714500D01*
G75*
G02*
X167622000Y-101802000I0J-87500D01*
G01*
X167622000Y-102552000D01*
G75*
G02*
X167534500Y-102639500I-87500J0D01*
G01*
G37*
G36*
G01*
X168034500Y-102639500D02*
X167859500Y-102639500D01*
G75*
G02*
X167772000Y-102552000I0J87500D01*
G01*
X167772000Y-101802000D01*
G75*
G02*
X167859500Y-101714500I87500J0D01*
G01*
X168034500Y-101714500D01*
G75*
G02*
X168122000Y-101802000I0J-87500D01*
G01*
X168122000Y-102552000D01*
G75*
G02*
X168034500Y-102639500I-87500J0D01*
G01*
G37*
G36*
G01*
X168534500Y-102639500D02*
X168359500Y-102639500D01*
G75*
G02*
X168272000Y-102552000I0J87500D01*
G01*
X168272000Y-101802000D01*
G75*
G02*
X168359500Y-101714500I87500J0D01*
G01*
X168534500Y-101714500D01*
G75*
G02*
X168622000Y-101802000I0J-87500D01*
G01*
X168622000Y-102552000D01*
G75*
G02*
X168534500Y-102639500I-87500J0D01*
G01*
G37*
G36*
G01*
X169034500Y-102639500D02*
X168859500Y-102639500D01*
G75*
G02*
X168772000Y-102552000I0J87500D01*
G01*
X168772000Y-101802000D01*
G75*
G02*
X168859500Y-101714500I87500J0D01*
G01*
X169034500Y-101714500D01*
G75*
G02*
X169122000Y-101802000I0J-87500D01*
G01*
X169122000Y-102552000D01*
G75*
G02*
X169034500Y-102639500I-87500J0D01*
G01*
G37*
G36*
G01*
X169534500Y-102639500D02*
X169359500Y-102639500D01*
G75*
G02*
X169272000Y-102552000I0J87500D01*
G01*
X169272000Y-101802000D01*
G75*
G02*
X169359500Y-101714500I87500J0D01*
G01*
X169534500Y-101714500D01*
G75*
G02*
X169622000Y-101802000I0J-87500D01*
G01*
X169622000Y-102552000D01*
G75*
G02*
X169534500Y-102639500I-87500J0D01*
G01*
G37*
%TD*%
D10*
%TO.C,U1*%
X174670000Y-56811000D03*
X174670000Y-55111000D03*
X174670000Y-53411000D03*
X174670000Y-51711000D03*
G36*
G01*
X173770000Y-49323500D02*
X175570000Y-49323500D01*
G75*
G02*
X175620000Y-49373500I0J-50000D01*
G01*
X175620000Y-50648500D01*
G75*
G02*
X175570000Y-50698500I-50000J0D01*
G01*
X173770000Y-50698500D01*
G75*
G02*
X173720000Y-50648500I0J50000D01*
G01*
X173720000Y-49373500D01*
G75*
G02*
X173770000Y-49323500I50000J0D01*
G01*
G37*
%TD*%
D11*
%TO.C,TP1*%
X186735000Y-64489000D03*
%TD*%
%TO.C,TP2*%
X186735000Y-85253500D03*
%TD*%
D12*
%TO.C,TH1*%
X186735000Y-109591000D03*
X186735000Y-118591000D03*
%TD*%
D13*
%TO.C,RV1*%
X186925500Y-72934500D03*
X186925500Y-75474500D03*
X186925500Y-78014500D03*
%TD*%
%TO.C,R9*%
G36*
G01*
X165692000Y-109063500D02*
X167392000Y-109063500D01*
G75*
G02*
X167442000Y-109113500I0J-50000D01*
G01*
X167442000Y-111113500D01*
G75*
G02*
X167392000Y-111163500I-50000J0D01*
G01*
X165692000Y-111163500D01*
G75*
G02*
X165642000Y-111113500I0J50000D01*
G01*
X165642000Y-109113500D01*
G75*
G02*
X165692000Y-109063500I50000J0D01*
G01*
G37*
G36*
G01*
X165692000Y-105063500D02*
X167392000Y-105063500D01*
G75*
G02*
X167442000Y-105113500I0J-50000D01*
G01*
X167442000Y-107113500D01*
G75*
G02*
X167392000Y-107163500I-50000J0D01*
G01*
X165692000Y-107163500D01*
G75*
G02*
X165642000Y-107113500I0J50000D01*
G01*
X165642000Y-105113500D01*
G75*
G02*
X165692000Y-105063500I50000J0D01*
G01*
G37*
%TD*%
%TO.C,R8*%
G36*
G01*
X165338000Y-93420500D02*
X165338000Y-95120500D01*
G75*
G02*
X165288000Y-95170500I-50000J0D01*
G01*
X163288000Y-95170500D01*
G75*
G02*
X163238000Y-95120500I0J50000D01*
G01*
X163238000Y-93420500D01*
G75*
G02*
X163288000Y-93370500I50000J0D01*
G01*
X165288000Y-93370500D01*
G75*
G02*
X165338000Y-93420500I0J-50000D01*
G01*
G37*
G36*
G01*
X169338000Y-93420500D02*
X169338000Y-95120500D01*
G75*
G02*
X169288000Y-95170500I-50000J0D01*
G01*
X167288000Y-95170500D01*
G75*
G02*
X167238000Y-95120500I0J50000D01*
G01*
X167238000Y-93420500D01*
G75*
G02*
X167288000Y-93370500I50000J0D01*
G01*
X169288000Y-93370500D01*
G75*
G02*
X169338000Y-93420500I0J-50000D01*
G01*
G37*
%TD*%
%TO.C,R7*%
G36*
G01*
X174123000Y-92622000D02*
X172423000Y-92622000D01*
G75*
G02*
X172373000Y-92572000I0J50000D01*
G01*
X172373000Y-90572000D01*
G75*
G02*
X172423000Y-90522000I50000J0D01*
G01*
X174123000Y-90522000D01*
G75*
G02*
X174173000Y-90572000I0J-50000D01*
G01*
X174173000Y-92572000D01*
G75*
G02*
X174123000Y-92622000I-50000J0D01*
G01*
G37*
G36*
G01*
X174123000Y-96622000D02*
X172423000Y-96622000D01*
G75*
G02*
X172373000Y-96572000I0J50000D01*
G01*
X172373000Y-94572000D01*
G75*
G02*
X172423000Y-94522000I50000J0D01*
G01*
X174123000Y-94522000D01*
G75*
G02*
X174173000Y-94572000I0J-50000D01*
G01*
X174173000Y-96572000D01*
G75*
G02*
X174123000Y-96622000I-50000J0D01*
G01*
G37*
%TD*%
%TO.C,R6*%
G36*
G01*
X167328500Y-115101000D02*
X165628500Y-115101000D01*
G75*
G02*
X165578500Y-115051000I0J50000D01*
G01*
X165578500Y-113051000D01*
G75*
G02*
X165628500Y-113001000I50000J0D01*
G01*
X167328500Y-113001000D01*
G75*
G02*
X167378500Y-113051000I0J-50000D01*
G01*
X167378500Y-115051000D01*
G75*
G02*
X167328500Y-115101000I-50000J0D01*
G01*
G37*
G36*
G01*
X167328500Y-119101000D02*
X165628500Y-119101000D01*
G75*
G02*
X165578500Y-119051000I0J50000D01*
G01*
X165578500Y-117051000D01*
G75*
G02*
X165628500Y-117001000I50000J0D01*
G01*
X167328500Y-117001000D01*
G75*
G02*
X167378500Y-117051000I0J-50000D01*
G01*
X167378500Y-119051000D01*
G75*
G02*
X167328500Y-119101000I-50000J0D01*
G01*
G37*
%TD*%
%TO.C,R5*%
G36*
G01*
X151363000Y-56195000D02*
X151363000Y-54495000D01*
G75*
G02*
X151413000Y-54445000I50000J0D01*
G01*
X153413000Y-54445000D01*
G75*
G02*
X153463000Y-54495000I0J-50000D01*
G01*
X153463000Y-56195000D01*
G75*
G02*
X153413000Y-56245000I-50000J0D01*
G01*
X151413000Y-56245000D01*
G75*
G02*
X151363000Y-56195000I0J50000D01*
G01*
G37*
G36*
G01*
X147363000Y-56195000D02*
X147363000Y-54495000D01*
G75*
G02*
X147413000Y-54445000I50000J0D01*
G01*
X149413000Y-54445000D01*
G75*
G02*
X149463000Y-54495000I0J-50000D01*
G01*
X149463000Y-56195000D01*
G75*
G02*
X149413000Y-56245000I-50000J0D01*
G01*
X147413000Y-56245000D01*
G75*
G02*
X147363000Y-56195000I0J50000D01*
G01*
G37*
%TD*%
%TO.C,R4*%
G36*
G01*
X158983000Y-56195000D02*
X158983000Y-54495000D01*
G75*
G02*
X159033000Y-54445000I50000J0D01*
G01*
X161033000Y-54445000D01*
G75*
G02*
X161083000Y-54495000I0J-50000D01*
G01*
X161083000Y-56195000D01*
G75*
G02*
X161033000Y-56245000I-50000J0D01*
G01*
X159033000Y-56245000D01*
G75*
G02*
X158983000Y-56195000I0J50000D01*
G01*
G37*
G36*
G01*
X154983000Y-56195000D02*
X154983000Y-54495000D01*
G75*
G02*
X155033000Y-54445000I50000J0D01*
G01*
X157033000Y-54445000D01*
G75*
G02*
X157083000Y-54495000I0J-50000D01*
G01*
X157083000Y-56195000D01*
G75*
G02*
X157033000Y-56245000I-50000J0D01*
G01*
X155033000Y-56245000D01*
G75*
G02*
X154983000Y-56195000I0J50000D01*
G01*
G37*
%TD*%
%TO.C,R3*%
G36*
G01*
X158121000Y-67349000D02*
X156421000Y-67349000D01*
G75*
G02*
X156371000Y-67299000I0J50000D01*
G01*
X156371000Y-65299000D01*
G75*
G02*
X156421000Y-65249000I50000J0D01*
G01*
X158121000Y-65249000D01*
G75*
G02*
X158171000Y-65299000I0J-50000D01*
G01*
X158171000Y-67299000D01*
G75*
G02*
X158121000Y-67349000I-50000J0D01*
G01*
G37*
G36*
G01*
X158121000Y-71349000D02*
X156421000Y-71349000D01*
G75*
G02*
X156371000Y-71299000I0J50000D01*
G01*
X156371000Y-69299000D01*
G75*
G02*
X156421000Y-69249000I50000J0D01*
G01*
X158121000Y-69249000D01*
G75*
G02*
X158171000Y-69299000I0J-50000D01*
G01*
X158171000Y-71299000D01*
G75*
G02*
X158121000Y-71349000I-50000J0D01*
G01*
G37*
%TD*%
%TO.C,R2*%
G36*
G01*
X150120000Y-67349000D02*
X148420000Y-67349000D01*
G75*
G02*
X148370000Y-67299000I0J50000D01*
G01*
X148370000Y-65299000D01*
G75*
G02*
X148420000Y-65249000I50000J0D01*
G01*
X150120000Y-65249000D01*
G75*
G02*
X150170000Y-65299000I0J-50000D01*
G01*
X150170000Y-67299000D01*
G75*
G02*
X150120000Y-67349000I-50000J0D01*
G01*
G37*
G36*
G01*
X150120000Y-71349000D02*
X148420000Y-71349000D01*
G75*
G02*
X148370000Y-71299000I0J50000D01*
G01*
X148370000Y-69299000D01*
G75*
G02*
X148420000Y-69249000I50000J0D01*
G01*
X150120000Y-69249000D01*
G75*
G02*
X150170000Y-69299000I0J-50000D01*
G01*
X150170000Y-71299000D01*
G75*
G02*
X150120000Y-71349000I-50000J0D01*
G01*
G37*
%TD*%
%TO.C,R1*%
G36*
G01*
X141484000Y-67349000D02*
X139784000Y-67349000D01*
G75*
G02*
X139734000Y-67299000I0J50000D01*
G01*
X139734000Y-65299000D01*
G75*
G02*
X139784000Y-65249000I50000J0D01*
G01*
X141484000Y-65249000D01*
G75*
G02*
X141534000Y-65299000I0J-50000D01*
G01*
X141534000Y-67299000D01*
G75*
G02*
X141484000Y-67349000I-50000J0D01*
G01*
G37*
G36*
G01*
X141484000Y-71349000D02*
X139784000Y-71349000D01*
G75*
G02*
X139734000Y-71299000I0J50000D01*
G01*
X139734000Y-69299000D01*
G75*
G02*
X139784000Y-69249000I50000J0D01*
G01*
X141484000Y-69249000D01*
G75*
G02*
X141534000Y-69299000I0J-50000D01*
G01*
X141534000Y-71299000D01*
G75*
G02*
X141484000Y-71349000I-50000J0D01*
G01*
G37*
%TD*%
D14*
%TO.C,L1*%
X164764000Y-49917000D03*
X164764000Y-59917000D03*
%TD*%
D15*
%TO.C,J3*%
X185719000Y-98525000D03*
G36*
G01*
X184669000Y-94885000D02*
X186769000Y-94885000D01*
G75*
G02*
X186819000Y-94935000I0J-50000D01*
G01*
X186819000Y-97035000D01*
G75*
G02*
X186769000Y-97085000I-50000J0D01*
G01*
X184669000Y-97085000D01*
G75*
G02*
X184619000Y-97035000I0J50000D01*
G01*
X184619000Y-94935000D01*
G75*
G02*
X184669000Y-94885000I50000J0D01*
G01*
G37*
%TD*%
%TO.C,J2*%
X186354000Y-53313000D03*
G36*
G01*
X185304000Y-49673000D02*
X187404000Y-49673000D01*
G75*
G02*
X187454000Y-49723000I0J-50000D01*
G01*
X187454000Y-51823000D01*
G75*
G02*
X187404000Y-51873000I-50000J0D01*
G01*
X185304000Y-51873000D01*
G75*
G02*
X185254000Y-51823000I0J50000D01*
G01*
X185254000Y-49723000D01*
G75*
G02*
X185304000Y-49673000I50000J0D01*
G01*
G37*
%TD*%
D16*
%TO.C,D4*%
X154858000Y-43153000D03*
G36*
G01*
X155758000Y-51723000D02*
X153958000Y-51723000D01*
G75*
G02*
X153908000Y-51673000I0J50000D01*
G01*
X153908000Y-49873000D01*
G75*
G02*
X153958000Y-49823000I50000J0D01*
G01*
X155758000Y-49823000D01*
G75*
G02*
X155808000Y-49873000I0J-50000D01*
G01*
X155808000Y-51673000D01*
G75*
G02*
X155758000Y-51723000I-50000J0D01*
G01*
G37*
%TD*%
D17*
%TO.C,D3*%
X157398000Y-77189000D03*
G36*
G01*
X155808000Y-78239000D02*
X153908000Y-78239000D01*
G75*
G02*
X153858000Y-78189000I0J50000D01*
G01*
X153858000Y-76189000D01*
G75*
G02*
X153908000Y-76139000I50000J0D01*
G01*
X155808000Y-76139000D01*
G75*
G02*
X155858000Y-76189000I0J-50000D01*
G01*
X155858000Y-78189000D01*
G75*
G02*
X155808000Y-78239000I-50000J0D01*
G01*
G37*
%TD*%
%TO.C,D2*%
X149143000Y-77316000D03*
G36*
G01*
X147553000Y-78366000D02*
X145653000Y-78366000D01*
G75*
G02*
X145603000Y-78316000I0J50000D01*
G01*
X145603000Y-76316000D01*
G75*
G02*
X145653000Y-76266000I50000J0D01*
G01*
X147553000Y-76266000D01*
G75*
G02*
X147603000Y-76316000I0J-50000D01*
G01*
X147603000Y-78316000D01*
G75*
G02*
X147553000Y-78366000I-50000J0D01*
G01*
G37*
%TD*%
%TO.C,D1*%
X140634000Y-77316000D03*
G36*
G01*
X139044000Y-78366000D02*
X137144000Y-78366000D01*
G75*
G02*
X137094000Y-78316000I0J50000D01*
G01*
X137094000Y-76316000D01*
G75*
G02*
X137144000Y-76266000I50000J0D01*
G01*
X139044000Y-76266000D01*
G75*
G02*
X139094000Y-76316000I0J-50000D01*
G01*
X139094000Y-78316000D01*
G75*
G02*
X139044000Y-78366000I-50000J0D01*
G01*
G37*
%TD*%
%TO.C,C6*%
G36*
G01*
X181114999Y-98644000D02*
X183465001Y-98644000D01*
G75*
G02*
X183515000Y-98693999I0J-49999D01*
G01*
X183515000Y-101464001D01*
G75*
G02*
X183465001Y-101514000I-49999J0D01*
G01*
X181114999Y-101514000D01*
G75*
G02*
X181065000Y-101464001I0J49999D01*
G01*
X181065000Y-98693999D01*
G75*
G02*
X181114999Y-98644000I49999J0D01*
G01*
G37*
G36*
G01*
X181114999Y-93504000D02*
X183465001Y-93504000D01*
G75*
G02*
X183515000Y-93553999I0J-49999D01*
G01*
X183515000Y-96324001D01*
G75*
G02*
X183465001Y-96374000I-49999J0D01*
G01*
X181114999Y-96374000D01*
G75*
G02*
X181065000Y-96324001I0J49999D01*
G01*
X181065000Y-93553999D01*
G75*
G02*
X181114999Y-93504000I49999J0D01*
G01*
G37*
%TD*%
%TO.C,C5*%
G36*
G01*
X169938999Y-109248500D02*
X172289001Y-109248500D01*
G75*
G02*
X172339000Y-109298499I0J-49999D01*
G01*
X172339000Y-112068501D01*
G75*
G02*
X172289001Y-112118500I-49999J0D01*
G01*
X169938999Y-112118500D01*
G75*
G02*
X169889000Y-112068501I0J49999D01*
G01*
X169889000Y-109298499D01*
G75*
G02*
X169938999Y-109248500I49999J0D01*
G01*
G37*
G36*
G01*
X169938999Y-104108500D02*
X172289001Y-104108500D01*
G75*
G02*
X172339000Y-104158499I0J-49999D01*
G01*
X172339000Y-106928501D01*
G75*
G02*
X172289001Y-106978500I-49999J0D01*
G01*
X169938999Y-106978500D01*
G75*
G02*
X169889000Y-106928501I0J49999D01*
G01*
X169889000Y-104158499D01*
G75*
G02*
X169938999Y-104108500I49999J0D01*
G01*
G37*
%TD*%
%TO.C,C4*%
G36*
G01*
X178447999Y-53686000D02*
X180798001Y-53686000D01*
G75*
G02*
X180848000Y-53735999I0J-49999D01*
G01*
X180848000Y-56506001D01*
G75*
G02*
X180798001Y-56556000I-49999J0D01*
G01*
X178447999Y-56556000D01*
G75*
G02*
X178398000Y-56506001I0J49999D01*
G01*
X178398000Y-53735999D01*
G75*
G02*
X178447999Y-53686000I49999J0D01*
G01*
G37*
G36*
G01*
X178447999Y-48546000D02*
X180798001Y-48546000D01*
G75*
G02*
X180848000Y-48595999I0J-49999D01*
G01*
X180848000Y-51366001D01*
G75*
G02*
X180798001Y-51416000I-49999J0D01*
G01*
X178447999Y-51416000D01*
G75*
G02*
X178398000Y-51366001I0J49999D01*
G01*
X178398000Y-48595999D01*
G75*
G02*
X178447999Y-48546000I49999J0D01*
G01*
G37*
%TD*%
%TO.C,C3*%
G36*
G01*
X156771000Y-58614999D02*
X156771000Y-60965001D01*
G75*
G02*
X156721001Y-61015000I-49999J0D01*
G01*
X153950999Y-61015000D01*
G75*
G02*
X153901000Y-60965001I0J49999D01*
G01*
X153901000Y-58614999D01*
G75*
G02*
X153950999Y-58565000I49999J0D01*
G01*
X156721001Y-58565000D01*
G75*
G02*
X156771000Y-58614999I0J-49999D01*
G01*
G37*
G36*
G01*
X161911000Y-58614999D02*
X161911000Y-60965001D01*
G75*
G02*
X161861001Y-61015000I-49999J0D01*
G01*
X159090999Y-61015000D01*
G75*
G02*
X159041000Y-60965001I0J49999D01*
G01*
X159041000Y-58614999D01*
G75*
G02*
X159090999Y-58565000I49999J0D01*
G01*
X161861001Y-58565000D01*
G75*
G02*
X161911000Y-58614999I0J-49999D01*
G01*
G37*
%TD*%
D18*
%TO.C,H4*%
X187600000Y-134800000D03*
%TD*%
%TO.C,H3*%
X127600000Y-134800000D03*
%TD*%
%TO.C,H2*%
X187600000Y-44800000D03*
%TD*%
%TO.C,H1*%
X127600000Y-44800000D03*
%TD*%
%TO.C,C1*%
G36*
G01*
X155017001Y-96120000D02*
X152666999Y-96120000D01*
G75*
G02*
X152617000Y-96070001I0J49999D01*
G01*
X152617000Y-93299999D01*
G75*
G02*
X152666999Y-93250000I49999J0D01*
G01*
X155017001Y-93250000D01*
G75*
G02*
X155067000Y-93299999I0J-49999D01*
G01*
X155067000Y-96070001D01*
G75*
G02*
X155017001Y-96120000I-49999J0D01*
G01*
G37*
G36*
G01*
X155017001Y-101260000D02*
X152666999Y-101260000D01*
G75*
G02*
X152617000Y-101210001I0J49999D01*
G01*
X152617000Y-98439999D01*
G75*
G02*
X152666999Y-98390000I49999J0D01*
G01*
X155017001Y-98390000D01*
G75*
G02*
X155067000Y-98439999I0J-49999D01*
G01*
X155067000Y-101210001D01*
G75*
G02*
X155017001Y-101260000I-49999J0D01*
G01*
G37*
%TD*%
%TO.C,A1*%
G36*
G01*
X134150000Y-100800000D02*
X134150000Y-99200000D01*
G75*
G02*
X134200000Y-99150000I50000J0D01*
G01*
X135800000Y-99150000D01*
G75*
G02*
X135850000Y-99200000I0J-50000D01*
G01*
X135850000Y-100800000D01*
G75*
G02*
X135800000Y-100850000I-50000J0D01*
G01*
X134200000Y-100850000D01*
G75*
G02*
X134150000Y-100800000I0J50000D01*
G01*
G37*
D19*
X150240000Y-133020000D03*
X135000000Y-102540000D03*
X150240000Y-130480000D03*
X135000000Y-105080000D03*
X150240000Y-127940000D03*
X135000000Y-107620000D03*
X150240000Y-125400000D03*
X135000000Y-110160000D03*
X150240000Y-122860000D03*
X135000000Y-112700000D03*
X150240000Y-120320000D03*
X135000000Y-115240000D03*
X150240000Y-117780000D03*
X135000000Y-117780000D03*
X150240000Y-115240000D03*
X135000000Y-120320000D03*
X150240000Y-112700000D03*
X135000000Y-122860000D03*
X150240000Y-110160000D03*
X135000000Y-125400000D03*
X150240000Y-107620000D03*
X135000000Y-127940000D03*
X150240000Y-105080000D03*
X135000000Y-130480000D03*
X150240000Y-102540000D03*
X135000000Y-133020000D03*
X150240000Y-100000000D03*
X135000000Y-135560000D03*
X150240000Y-135560000D03*
%TD*%
%TO.C,C2*%
G36*
G01*
X152920999Y-106204000D02*
X155271001Y-106204000D01*
G75*
G02*
X155321000Y-106253999I0J-49999D01*
G01*
X155321000Y-109024001D01*
G75*
G02*
X155271001Y-109074000I-49999J0D01*
G01*
X152920999Y-109074000D01*
G75*
G02*
X152871000Y-109024001I0J49999D01*
G01*
X152871000Y-106253999D01*
G75*
G02*
X152920999Y-106204000I49999J0D01*
G01*
G37*
G36*
G01*
X152920999Y-111344000D02*
X155271001Y-111344000D01*
G75*
G02*
X155321000Y-111393999I0J-49999D01*
G01*
X155321000Y-114164001D01*
G75*
G02*
X155271001Y-114214000I-49999J0D01*
G01*
X152920999Y-114214000D01*
G75*
G02*
X152871000Y-114164001I0J49999D01*
G01*
X152871000Y-111393999D01*
G75*
G02*
X152920999Y-111344000I49999J0D01*
G01*
G37*
%TD*%
%TO.C,J1*%
G36*
G01*
X128700000Y-79650000D02*
X128700000Y-77950000D01*
G75*
G02*
X128750000Y-77900000I50000J0D01*
G01*
X130450000Y-77900000D01*
G75*
G02*
X130500000Y-77950000I0J-50000D01*
G01*
X130500000Y-79650000D01*
G75*
G02*
X130450000Y-79700000I-50000J0D01*
G01*
X128750000Y-79700000D01*
G75*
G02*
X128700000Y-79650000I0J50000D01*
G01*
G37*
D20*
X129600000Y-81340000D03*
X129600000Y-83880000D03*
X129600000Y-86420000D03*
X129600000Y-88960000D03*
X129600000Y-91500000D03*
X129600000Y-94040000D03*
X129600000Y-96580000D03*
X129600000Y-99120000D03*
X129600000Y-101660000D03*
%TD*%
M02*
