%TF.GenerationSoftware,KiCad,Pcbnew,(6.0.4)*%
%TF.CreationDate,2023-07-24T13:06:08-04:00*%
%TF.ProjectId,BREAD_Slice,42524541-445f-4536-9c69-63652e6b6963,rev?*%
%TF.SameCoordinates,Original*%
%TF.FileFunction,Paste,Bot*%
%TF.FilePolarity,Positive*%
%FSLAX46Y46*%
G04 Gerber Fmt 4.6, Leading zero omitted, Abs format (unit mm)*
G04 Created by KiCad (PCBNEW (6.0.4)) date 2023-07-24 13:06:08*
%MOMM*%
%LPD*%
G01*
G04 APERTURE LIST*
G04 Aperture macros list*
%AMRoundRect*
0 Rectangle with rounded corners*
0 $1 Rounding radius*
0 $2 $3 $4 $5 $6 $7 $8 $9 X,Y pos of 4 corners*
0 Add a 4 corners polygon primitive as box body*
4,1,4,$2,$3,$4,$5,$6,$7,$8,$9,$2,$3,0*
0 Add four circle primitives for the rounded corners*
1,1,$1+$1,$2,$3*
1,1,$1+$1,$4,$5*
1,1,$1+$1,$6,$7*
1,1,$1+$1,$8,$9*
0 Add four rect primitives between the rounded corners*
20,1,$1+$1,$2,$3,$4,$5,0*
20,1,$1+$1,$4,$5,$6,$7,0*
20,1,$1+$1,$6,$7,$8,$9,0*
20,1,$1+$1,$8,$9,$2,$3,0*%
G04 Aperture macros list end*
%ADD10R,2.350000X2.770000*%
%ADD11RoundRect,0.150000X0.875000X0.150000X-0.875000X0.150000X-0.875000X-0.150000X0.875000X-0.150000X0*%
G04 APERTURE END LIST*
D10*
%TO.C,C2*%
X154223000Y-108274000D03*
X154223000Y-113414000D03*
%TD*%
%TO.C,C1*%
X150286000Y-90935000D03*
X150286000Y-85795000D03*
%TD*%
D11*
%TO.C,U1*%
X180082000Y-121004000D03*
X180082000Y-122274000D03*
X180082000Y-123544000D03*
X180082000Y-124814000D03*
X180082000Y-126084000D03*
X180082000Y-127354000D03*
X180082000Y-128624000D03*
X180082000Y-129894000D03*
X170782000Y-129894000D03*
X170782000Y-128624000D03*
X170782000Y-127354000D03*
X170782000Y-126084000D03*
X170782000Y-124814000D03*
X170782000Y-123544000D03*
X170782000Y-122274000D03*
X170782000Y-121004000D03*
%TD*%
%TO.C,U2*%
X180717000Y-77697000D03*
X180717000Y-78967000D03*
X180717000Y-80237000D03*
X180717000Y-81507000D03*
X180717000Y-82777000D03*
X180717000Y-84047000D03*
X180717000Y-85317000D03*
X180717000Y-86587000D03*
X171417000Y-86587000D03*
X171417000Y-85317000D03*
X171417000Y-84047000D03*
X171417000Y-82777000D03*
X171417000Y-81507000D03*
X171417000Y-80237000D03*
X171417000Y-78967000D03*
X171417000Y-77697000D03*
%TD*%
%TO.C,U3*%
X180336000Y-100684000D03*
X180336000Y-101954000D03*
X180336000Y-103224000D03*
X180336000Y-104494000D03*
X180336000Y-105764000D03*
X180336000Y-107034000D03*
X180336000Y-108304000D03*
X180336000Y-109574000D03*
X171036000Y-109574000D03*
X171036000Y-108304000D03*
X171036000Y-107034000D03*
X171036000Y-105764000D03*
X171036000Y-104494000D03*
X171036000Y-103224000D03*
X171036000Y-101954000D03*
X171036000Y-100684000D03*
%TD*%
%TO.C,U4*%
X180336000Y-54329000D03*
X180336000Y-55599000D03*
X180336000Y-56869000D03*
X180336000Y-58139000D03*
X180336000Y-59409000D03*
X180336000Y-60679000D03*
X180336000Y-61949000D03*
X180336000Y-63219000D03*
X171036000Y-63219000D03*
X171036000Y-61949000D03*
X171036000Y-60679000D03*
X171036000Y-59409000D03*
X171036000Y-58139000D03*
X171036000Y-56869000D03*
X171036000Y-55599000D03*
X171036000Y-54329000D03*
%TD*%
M02*
