%TF.GenerationSoftware,KiCad,Pcbnew,(6.0.4)*%
%TF.CreationDate,2022-12-06T12:03:58-05:00*%
%TF.ProjectId,BREAD_Slice,42524541-445f-4536-9c69-63652e6b6963,rev?*%
%TF.SameCoordinates,Original*%
%TF.FileFunction,Legend,Bot*%
%TF.FilePolarity,Positive*%
%FSLAX46Y46*%
G04 Gerber Fmt 4.6, Leading zero omitted, Abs format (unit mm)*
G04 Created by KiCad (PCBNEW (6.0.4)) date 2022-12-06 12:03:58*
%MOMM*%
%LPD*%
G01*
G04 APERTURE LIST*
%ADD10C,0.150000*%
%ADD11C,0.120000*%
G04 APERTURE END LIST*
D10*
%TO.C,C1*%
X127757142Y-101583333D02*
X127804761Y-101535714D01*
X127852380Y-101392857D01*
X127852380Y-101297619D01*
X127804761Y-101154761D01*
X127709523Y-101059523D01*
X127614285Y-101011904D01*
X127423809Y-100964285D01*
X127280952Y-100964285D01*
X127090476Y-101011904D01*
X126995238Y-101059523D01*
X126900000Y-101154761D01*
X126852380Y-101297619D01*
X126852380Y-101392857D01*
X126900000Y-101535714D01*
X126947619Y-101583333D01*
X127852380Y-102535714D02*
X127852380Y-101964285D01*
X127852380Y-102250000D02*
X126852380Y-102250000D01*
X126995238Y-102154761D01*
X127090476Y-102059523D01*
X127138095Y-101964285D01*
%TO.C,C2*%
X117246666Y-108537142D02*
X117294285Y-108584761D01*
X117437142Y-108632380D01*
X117532380Y-108632380D01*
X117675238Y-108584761D01*
X117770476Y-108489523D01*
X117818095Y-108394285D01*
X117865714Y-108203809D01*
X117865714Y-108060952D01*
X117818095Y-107870476D01*
X117770476Y-107775238D01*
X117675238Y-107680000D01*
X117532380Y-107632380D01*
X117437142Y-107632380D01*
X117294285Y-107680000D01*
X117246666Y-107727619D01*
X116865714Y-107727619D02*
X116818095Y-107680000D01*
X116722857Y-107632380D01*
X116484761Y-107632380D01*
X116389523Y-107680000D01*
X116341904Y-107727619D01*
X116294285Y-107822857D01*
X116294285Y-107918095D01*
X116341904Y-108060952D01*
X116913333Y-108632380D01*
X116294285Y-108632380D01*
D11*
%TO.C,C1*%
X130160000Y-101038748D02*
X130160000Y-102461252D01*
X128340000Y-101038748D02*
X128340000Y-102461252D01*
%TO.C,C2*%
X117791252Y-109120000D02*
X116368748Y-109120000D01*
X117791252Y-110940000D02*
X116368748Y-110940000D01*
%TD*%
M02*
