M48
; DRILL file {KiCad 5.1.10-1.fc34} date Tue Jun  8 11:44:06 2021
; FORMAT={-:-/ absolute / inch / decimal}
; #@! TF.CreationDate,2021-06-08T11:44:06-04:00
; #@! TF.GenerationSoftware,Kicad,Pcbnew,5.1.10-1.fc34
; #@! TF.FileFunction,Plated,1,2,PTH
FMAT,2
INCH
T1C0.0157
T2C0.0315
T3C0.0354
T4C0.0394
T5C0.0394
T6C0.0433
T7C0.0472
T8C0.0591
T9C0.1260
%
G90
G05
T1
X5.0968Y-4.6364
X5.0968Y-4.7364
X5.0968Y-4.8364
X5.1018Y-2.7989
X5.2468Y-3.6389
X5.9318Y-2.4039
X6.1818Y-4.1089
X6.1943Y-3.3514
X6.1943Y-3.4689
X6.1943Y-3.5889
X6.3868Y-2.5439
X6.4768Y-3.8489
X6.5918Y-4.0839
X6.6218Y-4.1089
X6.8418Y-4.1539
X6.8468Y-4.0339
T2
X7.3593Y-2.8714
X7.3593Y-2.9714
X7.3593Y-3.0714
T3
X6.0968Y-1.6989
X6.0968Y-1.9989
T4
X5.1024Y-3.1024
X5.1024Y-3.2024
X5.1024Y-3.3024
X5.1024Y-3.4024
X5.1024Y-3.5024
X5.1024Y-3.6024
X5.1024Y-3.7024
X5.1024Y-3.8024
X5.1024Y-3.9024
X5.1024Y-4.0024
X5.315Y-3.937
X5.315Y-4.037
X5.315Y-4.137
X5.315Y-4.237
X5.315Y-4.337
X5.315Y-4.437
X5.315Y-4.537
X5.315Y-4.637
X5.315Y-4.737
X5.315Y-4.837
X5.315Y-4.937
X5.315Y-5.037
X5.315Y-5.137
X5.315Y-5.237
X5.315Y-5.337
X5.915Y-3.937
X5.915Y-4.037
X5.915Y-4.137
X5.915Y-4.237
X5.915Y-4.337
X5.915Y-4.437
X5.915Y-4.537
X5.915Y-4.637
X5.915Y-4.737
X5.915Y-4.837
X5.915Y-4.937
X5.915Y-5.037
X5.915Y-5.137
X5.915Y-5.237
X5.915Y-5.337
X7.3518Y-4.3146
X7.3518Y-4.6689
T5
X5.4368Y-3.0439
X5.5368Y-3.0439
X5.7718Y-3.0439
X5.8718Y-3.0439
X6.0968Y-3.0389
X6.1968Y-3.0389
T6
X6.8768Y-1.9689
X6.8768Y-2.0359
X6.8768Y-2.1028
X6.8768Y-2.1697
X6.8768Y-2.2367
X7.3118Y-3.7789
X7.3118Y-3.8789
X7.3368Y-1.9989
X7.3368Y-2.0989
T7
X6.4868Y-1.9652
X6.4868Y-2.3589
T8
X7.3518Y-2.5389
X7.3518Y-3.3564
T9
X5.0236Y-1.7638
X5.0236Y-5.3071
X7.3858Y-1.7638
X7.3858Y-5.3071
T0
M30
