%TF.GenerationSoftware,KiCad,Pcbnew,(6.0.4)*%
%TF.CreationDate,2023-07-24T14:01:23-04:00*%
%TF.ProjectId,BREAD_Loaf,42524541-445f-44c6-9f61-662e6b696361,rev?*%
%TF.SameCoordinates,PX2faf080PYee6b280*%
%TF.FileFunction,Copper,L2,Bot*%
%TF.FilePolarity,Positive*%
%FSLAX46Y46*%
G04 Gerber Fmt 4.6, Leading zero omitted, Abs format (unit mm)*
G04 Created by KiCad (PCBNEW (6.0.4)) date 2023-07-24 14:01:23*
%MOMM*%
%LPD*%
G01*
G04 APERTURE LIST*
G04 Aperture macros list*
%AMRoundRect*
0 Rectangle with rounded corners*
0 $1 Rounding radius*
0 $2 $3 $4 $5 $6 $7 $8 $9 X,Y pos of 4 corners*
0 Add a 4 corners polygon primitive as box body*
4,1,4,$2,$3,$4,$5,$6,$7,$8,$9,$2,$3,0*
0 Add four circle primitives for the rounded corners*
1,1,$1+$1,$2,$3*
1,1,$1+$1,$4,$5*
1,1,$1+$1,$6,$7*
1,1,$1+$1,$8,$9*
0 Add four rect primitives between the rounded corners*
20,1,$1+$1,$2,$3,$4,$5,0*
20,1,$1+$1,$4,$5,$6,$7,0*
20,1,$1+$1,$6,$7,$8,$9,0*
20,1,$1+$1,$8,$9,$2,$3,0*%
G04 Aperture macros list end*
%TA.AperFunction,ComponentPad*%
%ADD10C,5.600000*%
%TD*%
%TA.AperFunction,ComponentPad*%
%ADD11R,1.700000X3.000000*%
%TD*%
%TA.AperFunction,ComponentPad*%
%ADD12O,1.600000X3.000000*%
%TD*%
%TA.AperFunction,ComponentPad*%
%ADD13R,2.600000X2.600000*%
%TD*%
%TA.AperFunction,ComponentPad*%
%ADD14C,2.600000*%
%TD*%
%TA.AperFunction,ComponentPad*%
%ADD15O,3.000000X1.600000*%
%TD*%
%TA.AperFunction,SMDPad,CuDef*%
%ADD16RoundRect,0.250000X-0.412500X-0.650000X0.412500X-0.650000X0.412500X0.650000X-0.412500X0.650000X0*%
%TD*%
%TA.AperFunction,SMDPad,CuDef*%
%ADD17RoundRect,0.250000X0.412500X0.650000X-0.412500X0.650000X-0.412500X-0.650000X0.412500X-0.650000X0*%
%TD*%
%TA.AperFunction,Conductor*%
%ADD18C,1.000000*%
%TD*%
G04 APERTURE END LIST*
D10*
%TO.P,H3,1*%
%TO.N,N/C*%
X269000000Y6000000D03*
%TD*%
D11*
%TO.P,J4,1,Pin_1*%
%TO.N,GND*%
X82225000Y17600000D03*
D12*
%TO.P,J4,2,Pin_2*%
%TO.N,+12V*%
X79685000Y17600000D03*
%TO.P,J4,3,Pin_3*%
%TO.N,/I2C_CLK*%
X77145000Y17600000D03*
%TO.P,J4,4,Pin_4*%
%TO.N,/I2C_DAT*%
X74605000Y17600000D03*
%TO.P,J4,5,Pin_5*%
%TO.N,GND*%
X72065000Y17600000D03*
%TO.P,J4,6,Pin_6*%
%TO.N,/E_STOP*%
X69525000Y17600000D03*
%TO.P,J4,7,Pin_7*%
%TO.N,/INT*%
X66985000Y17600000D03*
%TO.P,J4,8,Pin_8*%
%TO.N,/SYNC*%
X64445000Y17600000D03*
%TO.P,J4,9,Pin_9*%
%TO.N,+12V*%
X61905000Y17600000D03*
%TO.P,J4,10,Pin_10*%
%TO.N,GND*%
X59365000Y17600000D03*
%TD*%
D11*
%TO.P,J2,1,Pin_1*%
%TO.N,GND*%
X82225000Y95600000D03*
D12*
%TO.P,J2,2,Pin_2*%
%TO.N,+12V*%
X79685000Y95600000D03*
%TO.P,J2,3,Pin_3*%
%TO.N,/I2C_CLK*%
X77145000Y95600000D03*
%TO.P,J2,4,Pin_4*%
%TO.N,/I2C_DAT*%
X74605000Y95600000D03*
%TO.P,J2,5,Pin_5*%
%TO.N,GND*%
X72065000Y95600000D03*
%TO.P,J2,6,Pin_6*%
%TO.N,/E_STOP*%
X69525000Y95600000D03*
%TO.P,J2,7,Pin_7*%
%TO.N,/INT*%
X66985000Y95600000D03*
%TO.P,J2,8,Pin_8*%
%TO.N,/SYNC*%
X64445000Y95600000D03*
%TO.P,J2,9,Pin_9*%
%TO.N,+12V*%
X61905000Y95600000D03*
%TO.P,J2,10,Pin_10*%
%TO.N,GND*%
X59365000Y95600000D03*
%TD*%
D11*
%TO.P,A1,1,D1/TX*%
%TO.N,unconnected-(A1-Pad1)*%
X225450000Y169290000D03*
D12*
%TO.P,A1,2,D0/RX*%
%TO.N,unconnected-(A1-Pad2)*%
X227990000Y169290000D03*
%TO.P,A1,3,~{RESET}*%
%TO.N,unconnected-(A1-Pad3)*%
X230530000Y169290000D03*
%TO.P,A1,4,GND*%
%TO.N,GND*%
X233070000Y169290000D03*
%TO.P,A1,5,D2*%
%TO.N,/E_STOP*%
X235610000Y169290000D03*
%TO.P,A1,6,D3*%
%TO.N,/INT*%
X238150000Y169290000D03*
%TO.P,A1,7,D4*%
%TO.N,/SYNC*%
X240690000Y169290000D03*
%TO.P,A1,8,D5*%
%TO.N,unconnected-(A1-Pad8)*%
X243230000Y169290000D03*
%TO.P,A1,9,D6*%
%TO.N,unconnected-(A1-Pad9)*%
X245770000Y169290000D03*
%TO.P,A1,10,D7*%
%TO.N,unconnected-(A1-Pad10)*%
X248310000Y169290000D03*
%TO.P,A1,11,D8*%
%TO.N,unconnected-(A1-Pad11)*%
X250850000Y169290000D03*
%TO.P,A1,12,D9*%
%TO.N,unconnected-(A1-Pad12)*%
X253390000Y169290000D03*
%TO.P,A1,13,D10*%
%TO.N,unconnected-(A1-Pad13)*%
X255930000Y169290000D03*
%TO.P,A1,14,D11*%
%TO.N,unconnected-(A1-Pad14)*%
X258470000Y169290000D03*
%TO.P,A1,15,D12*%
%TO.N,unconnected-(A1-Pad15)*%
X261010000Y169290000D03*
%TO.P,A1,16,D13*%
%TO.N,unconnected-(A1-Pad16)*%
X261010000Y184530000D03*
%TO.P,A1,17,3V3*%
%TO.N,/3V3*%
X258470000Y184530000D03*
%TO.P,A1,18,AREF*%
%TO.N,unconnected-(A1-Pad18)*%
X255930000Y184530000D03*
%TO.P,A1,19,A0*%
%TO.N,unconnected-(A1-Pad19)*%
X253390000Y184530000D03*
%TO.P,A1,20,A1*%
%TO.N,unconnected-(A1-Pad20)*%
X250850000Y184530000D03*
%TO.P,A1,21,A2*%
%TO.N,unconnected-(A1-Pad21)*%
X248310000Y184530000D03*
%TO.P,A1,22,A3*%
%TO.N,unconnected-(A1-Pad22)*%
X245770000Y184530000D03*
%TO.P,A1,23,A4*%
%TO.N,/I2C_DAT*%
X243230000Y184530000D03*
%TO.P,A1,24,A5*%
%TO.N,/I2C_CLK*%
X240690000Y184530000D03*
%TO.P,A1,25,A6*%
%TO.N,unconnected-(A1-Pad25)*%
X238150000Y184530000D03*
%TO.P,A1,26,A7*%
%TO.N,unconnected-(A1-Pad26)*%
X235610000Y184530000D03*
%TO.P,A1,27,+5V*%
%TO.N,+5V*%
X233070000Y184530000D03*
%TO.P,A1,28,~{RESET}*%
%TO.N,unconnected-(A1-Pad28)*%
X230530000Y184530000D03*
%TO.P,A1,29,GND*%
%TO.N,GND*%
X227990000Y184530000D03*
%TO.P,A1,30,VIN*%
%TO.N,+12V*%
X225450000Y184530000D03*
%TD*%
D10*
%TO.P,H1,1*%
%TO.N,N/C*%
X6000000Y171000000D03*
%TD*%
%TO.P,H4,1*%
%TO.N,N/C*%
X6000000Y6000000D03*
%TD*%
D11*
%TO.P,J5,1,Pin_1*%
%TO.N,GND*%
X193509843Y37600000D03*
D12*
%TO.P,J5,2,Pin_2*%
%TO.N,+12V*%
X196049843Y37600000D03*
%TO.P,J5,3,Pin_3*%
%TO.N,/I2C_CLK*%
X198589843Y37600000D03*
%TO.P,J5,4,Pin_4*%
%TO.N,/I2C_DAT*%
X201129843Y37600000D03*
%TO.P,J5,5,Pin_5*%
%TO.N,GND*%
X203669843Y37600000D03*
%TO.P,J5,6,Pin_6*%
%TO.N,/E_STOP*%
X206209843Y37600000D03*
%TO.P,J5,7,Pin_7*%
%TO.N,/INT*%
X208749843Y37600000D03*
%TO.P,J5,8,Pin_8*%
%TO.N,/SYNC*%
X211289843Y37600000D03*
%TO.P,J5,9,Pin_9*%
%TO.N,+12V*%
X213829843Y37600000D03*
%TO.P,J5,10,Pin_10*%
%TO.N,GND*%
X216369843Y37600000D03*
%TD*%
D11*
%TO.P,J8,1,Pin_1*%
%TO.N,GND*%
X193509843Y154600000D03*
D12*
%TO.P,J8,2,Pin_2*%
%TO.N,+12V*%
X196049843Y154600000D03*
%TO.P,J8,3,Pin_3*%
%TO.N,/I2C_CLK*%
X198589843Y154600000D03*
%TO.P,J8,4,Pin_4*%
%TO.N,/I2C_DAT*%
X201129843Y154600000D03*
%TO.P,J8,5,Pin_5*%
%TO.N,GND*%
X203669843Y154600000D03*
%TO.P,J8,6,Pin_6*%
%TO.N,/E_STOP*%
X206209843Y154600000D03*
%TO.P,J8,7,Pin_7*%
%TO.N,/INT*%
X208749843Y154600000D03*
%TO.P,J8,8,Pin_8*%
%TO.N,/SYNC*%
X211289843Y154600000D03*
%TO.P,J8,9,Pin_9*%
%TO.N,+12V*%
X213829843Y154600000D03*
%TO.P,J8,10,Pin_10*%
%TO.N,GND*%
X216369843Y154600000D03*
%TD*%
D13*
%TO.P,J9,1,Pin_1*%
%TO.N,GND*%
X195067657Y184500000D03*
D14*
%TO.P,J9,2,Pin_2*%
%TO.N,+12V*%
X190067657Y184500000D03*
%TD*%
D10*
%TO.P,H2,1*%
%TO.N,N/C*%
X269000000Y194000000D03*
%TD*%
D11*
%TO.P,J6,1,Pin_1*%
%TO.N,GND*%
X193509843Y76600000D03*
D12*
%TO.P,J6,2,Pin_2*%
%TO.N,+12V*%
X196049843Y76600000D03*
%TO.P,J6,3,Pin_3*%
%TO.N,/I2C_CLK*%
X198589843Y76600000D03*
%TO.P,J6,4,Pin_4*%
%TO.N,/I2C_DAT*%
X201129843Y76600000D03*
%TO.P,J6,5,Pin_5*%
%TO.N,GND*%
X203669843Y76600000D03*
%TO.P,J6,6,Pin_6*%
%TO.N,/E_STOP*%
X206209843Y76600000D03*
%TO.P,J6,7,Pin_7*%
%TO.N,/INT*%
X208749843Y76600000D03*
%TO.P,J6,8,Pin_8*%
%TO.N,/SYNC*%
X211289843Y76600000D03*
%TO.P,J6,9,Pin_9*%
%TO.N,+12V*%
X213829843Y76600000D03*
%TO.P,J6,10,Pin_10*%
%TO.N,GND*%
X216369843Y76600000D03*
%TD*%
D11*
%TO.P,J7,1,Pin_1*%
%TO.N,GND*%
X193509843Y116600000D03*
D12*
%TO.P,J7,2,Pin_2*%
%TO.N,+12V*%
X196049843Y116600000D03*
%TO.P,J7,3,Pin_3*%
%TO.N,/I2C_CLK*%
X198589843Y116600000D03*
%TO.P,J7,4,Pin_4*%
%TO.N,/I2C_DAT*%
X201129843Y116600000D03*
%TO.P,J7,5,Pin_5*%
%TO.N,GND*%
X203669843Y116600000D03*
%TO.P,J7,6,Pin_6*%
%TO.N,/E_STOP*%
X206209843Y116600000D03*
%TO.P,J7,7,Pin_7*%
%TO.N,/INT*%
X208749843Y116600000D03*
%TO.P,J7,8,Pin_8*%
%TO.N,/SYNC*%
X211289843Y116600000D03*
%TO.P,J7,9,Pin_9*%
%TO.N,+12V*%
X213829843Y116600000D03*
%TO.P,J7,10,Pin_10*%
%TO.N,GND*%
X216369843Y116600000D03*
%TD*%
D11*
%TO.P,J3,1,Pin_1*%
%TO.N,GND*%
X82225000Y56600000D03*
D12*
%TO.P,J3,2,Pin_2*%
%TO.N,+12V*%
X79685000Y56600000D03*
%TO.P,J3,3,Pin_3*%
%TO.N,/I2C_CLK*%
X77145000Y56600000D03*
%TO.P,J3,4,Pin_4*%
%TO.N,/I2C_DAT*%
X74605000Y56600000D03*
%TO.P,J3,5,Pin_5*%
%TO.N,GND*%
X72065000Y56600000D03*
%TO.P,J3,6,Pin_6*%
%TO.N,/E_STOP*%
X69525000Y56600000D03*
%TO.P,J3,7,Pin_7*%
%TO.N,/INT*%
X66985000Y56600000D03*
%TO.P,J3,8,Pin_8*%
%TO.N,/SYNC*%
X64445000Y56600000D03*
%TO.P,J3,9,Pin_9*%
%TO.N,+12V*%
X61905000Y56600000D03*
%TO.P,J3,10,Pin_10*%
%TO.N,GND*%
X59365000Y56600000D03*
%TD*%
D11*
%TO.P,J1,1,Pin_1*%
%TO.N,GND*%
X82225000Y134600000D03*
D12*
%TO.P,J1,2,Pin_2*%
%TO.N,+12V*%
X79685000Y134600000D03*
%TO.P,J1,3,Pin_3*%
%TO.N,/I2C_CLK*%
X77145000Y134600000D03*
%TO.P,J1,4,Pin_4*%
%TO.N,/I2C_DAT*%
X74605000Y134600000D03*
%TO.P,J1,5,Pin_5*%
%TO.N,GND*%
X72065000Y134600000D03*
%TO.P,J1,6,Pin_6*%
%TO.N,/E_STOP*%
X69525000Y134600000D03*
%TO.P,J1,7,Pin_7*%
%TO.N,/INT*%
X66985000Y134600000D03*
%TO.P,J1,8,Pin_8*%
%TO.N,/SYNC*%
X64445000Y134600000D03*
%TO.P,J1,9,Pin_9*%
%TO.N,+12V*%
X61905000Y134600000D03*
%TO.P,J1,10,Pin_10*%
%TO.N,GND*%
X59365000Y134600000D03*
%TD*%
D15*
%TO.P,J10,1,Pin_1*%
%TO.N,GND*%
X210500000Y178425000D03*
%TO.P,J10,2,Pin_2*%
%TO.N,/I2C_CLK*%
X210500000Y175885000D03*
%TO.P,J10,3,Pin_3*%
%TO.N,/I2C_DAT*%
X210500000Y173345000D03*
%TD*%
D16*
%TO.P,C1,1*%
%TO.N,+12V*%
X190937500Y172900000D03*
%TO.P,C1,2*%
%TO.N,GND*%
X194062500Y172900000D03*
%TD*%
D17*
%TO.P,C2,1*%
%TO.N,+5V*%
X232062500Y191900000D03*
%TO.P,C2,2*%
%TO.N,GND*%
X228937500Y191900000D03*
%TD*%
D18*
%TO.N,GND*%
X175050000Y16200000D02*
X193509843Y34659843D01*
X76649520Y10700480D02*
X72065000Y15285000D01*
X216369843Y34319843D02*
X216369843Y37600000D01*
X203669843Y158469843D02*
X212190480Y166990480D01*
X83625000Y16200000D02*
X175050000Y16200000D01*
X82225000Y17600000D02*
X82225000Y56600000D01*
X203669843Y116600000D02*
X203669843Y154600000D01*
X71950480Y136899520D02*
X72065000Y136785000D01*
X72065000Y136785000D02*
X72065000Y134600000D01*
X72164520Y136899520D02*
X82225000Y136899520D01*
X228937500Y188537500D02*
X227990000Y187590000D01*
X227990000Y180110000D02*
X233070000Y175030000D01*
X59365000Y17600000D02*
X59365000Y14985000D01*
X72065000Y15285000D02*
X72065000Y17600000D01*
X203669843Y37600000D02*
X203669843Y76600000D01*
X203669843Y37600000D02*
X203669843Y34519843D01*
X233070000Y175030000D02*
X233070000Y169290000D01*
X227990000Y184530000D02*
X227990000Y180110000D01*
X199705000Y184495000D02*
X205775000Y178425000D01*
X59365000Y134600000D02*
X59365000Y136899520D01*
X72065000Y95600000D02*
X72065000Y56600000D01*
X72065000Y134600000D02*
X72065000Y95600000D01*
X72065000Y17600000D02*
X72065000Y56600000D01*
X227990000Y187590000D02*
X227990000Y184530000D01*
X210500000Y178425000D02*
X226525000Y178425000D01*
X216369843Y154600000D02*
X216369843Y116600000D01*
X193509843Y34659843D02*
X193509843Y37600000D01*
X216369843Y116600000D02*
X216369843Y76600000D01*
X82225000Y136899520D02*
X82225000Y134600000D01*
X59365000Y56600000D02*
X59365000Y95600000D01*
X82225000Y17600000D02*
X83625000Y16200000D01*
X228937500Y191900000D02*
X228937500Y188537500D01*
X59365000Y14985000D02*
X70150000Y4200000D01*
X179850480Y10700480D02*
X76649520Y10700480D01*
X59365000Y95600000D02*
X59365000Y134600000D01*
X193509843Y76600000D02*
X193509843Y116600000D01*
X203669843Y76600000D02*
X203669843Y116600000D01*
X72065000Y136800000D02*
X72164520Y136899520D01*
X203669843Y34519843D02*
X179850480Y10700480D01*
X203669843Y154600000D02*
X203669843Y158469843D01*
X193509843Y37600000D02*
X193509843Y76600000D01*
X59365000Y17600000D02*
X59365000Y56600000D01*
X82225000Y95600000D02*
X82225000Y134600000D01*
X195067657Y184495000D02*
X195067657Y173905157D01*
X195067657Y173905157D02*
X194062500Y172900000D01*
X205775000Y178425000D02*
X210500000Y178425000D01*
X186250000Y4200000D02*
X216369843Y34319843D01*
X226525000Y178425000D02*
X227990000Y179890000D01*
X227990000Y179890000D02*
X227990000Y184530000D01*
X59365000Y136899520D02*
X71950480Y136899520D01*
X70150000Y4200000D02*
X186250000Y4200000D01*
X231890480Y166990480D02*
X233070000Y168170000D01*
X212190480Y166990480D02*
X231890480Y166990480D01*
X82225000Y56600000D02*
X82225000Y95600000D01*
X72065000Y134600000D02*
X72065000Y136800000D01*
X193509843Y116600000D02*
X193509843Y154600000D01*
X216369843Y76600000D02*
X216369843Y37600000D01*
X233070000Y168170000D02*
X233070000Y169290000D01*
X195067657Y184495000D02*
X199705000Y184495000D01*
%TO.N,/E_STOP*%
X206209843Y154600000D02*
X206209843Y158459843D01*
X206209843Y116600000D02*
X206209843Y154600000D01*
X213350000Y165600000D02*
X232850000Y165600000D01*
X206209843Y37600000D02*
X206209843Y76600000D01*
X206209843Y158459843D02*
X213350000Y165600000D01*
X69525000Y134600000D02*
X69525000Y95600000D01*
X69525000Y95600000D02*
X69525000Y56600000D01*
X206209843Y34559843D02*
X206209843Y37600000D01*
X232850000Y165600000D02*
X235610000Y168360000D01*
X69525000Y17600000D02*
X69525000Y15100000D01*
X75224040Y9400960D02*
X181050960Y9400960D01*
X69525000Y15100000D02*
X75224040Y9400960D01*
X69525000Y56600000D02*
X69525000Y17600000D01*
X235610000Y168360000D02*
X235610000Y169290000D01*
X206209843Y76600000D02*
X206209843Y116600000D01*
X181050960Y9400960D02*
X206209843Y34559843D01*
%TO.N,/INT*%
X208749843Y76600000D02*
X208749843Y37600000D01*
X234050000Y164000000D02*
X238150000Y168100000D01*
X66985000Y17600000D02*
X66985000Y15100000D01*
X66985000Y95600000D02*
X66985000Y56600000D01*
X208749843Y158149843D02*
X214600000Y164000000D01*
X182251440Y8101440D02*
X208749843Y34599843D01*
X214600000Y164000000D02*
X234050000Y164000000D01*
X208749843Y154600000D02*
X208749843Y116600000D01*
X238150000Y168100000D02*
X238150000Y169290000D01*
X208749843Y154600000D02*
X208749843Y158149843D01*
X208749843Y34599843D02*
X208749843Y37600000D01*
X73983560Y8101440D02*
X182251440Y8101440D01*
X66985000Y95600000D02*
X66985000Y134600000D01*
X66985000Y15100000D02*
X73983560Y8101440D01*
X208749843Y116600000D02*
X208749843Y76600000D01*
X66985000Y17600000D02*
X66985000Y56600000D01*
%TO.N,/SYNC*%
X211289843Y158189843D02*
X215550000Y162450000D01*
X64445000Y134600000D02*
X64445000Y95600000D01*
X64445000Y15100000D02*
X72743080Y6801920D01*
X64445000Y17600000D02*
X64445000Y15100000D01*
X215550000Y162450000D02*
X234750000Y162450000D01*
X211289843Y34489843D02*
X211289843Y37600000D01*
X211289843Y154600000D02*
X211289843Y158189843D01*
X64445000Y95600000D02*
X64445000Y56600000D01*
X211289843Y37600000D02*
X211289843Y76600000D01*
X240690000Y168390000D02*
X240690000Y169290000D01*
X64445000Y56600000D02*
X64445000Y17600000D01*
X234750000Y162450000D02*
X240690000Y168390000D01*
X183601920Y6801920D02*
X211289843Y34489843D01*
X211289843Y76600000D02*
X211289843Y116600000D01*
X72743080Y6801920D02*
X183601920Y6801920D01*
X211289843Y116600000D02*
X211289843Y154600000D01*
%TO.N,/I2C_DAT*%
X201129843Y37600000D02*
X201129843Y76600000D01*
X74605000Y134600000D02*
X74605000Y95600000D01*
X201129843Y34329843D02*
X201129843Y37600000D01*
X74605000Y15445000D02*
X78050000Y12000000D01*
X201129843Y154600000D02*
X201129843Y169779843D01*
X178800000Y12000000D02*
X201129843Y34329843D01*
X74605000Y56600000D02*
X74605000Y17600000D01*
X78050000Y12000000D02*
X178800000Y12000000D01*
X201129843Y116600000D02*
X201129843Y154600000D01*
X204695000Y173345000D02*
X210500000Y173345000D01*
X74605000Y17600000D02*
X74605000Y15445000D01*
X201129843Y76600000D02*
X201129843Y116600000D01*
X201129843Y169779843D02*
X204695000Y173345000D01*
X74605000Y95600000D02*
X74605000Y56600000D01*
%TO.N,/I2C_CLK*%
X77145000Y56600000D02*
X77145000Y17600000D01*
X198589843Y37600000D02*
X198589843Y76600000D01*
X77145000Y15155000D02*
X78900000Y13400000D01*
X177500000Y13400000D02*
X198589843Y34489843D01*
X198589843Y34489843D02*
X198589843Y37600000D01*
X77145000Y17600000D02*
X77145000Y15155000D01*
X78900000Y13400000D02*
X177500000Y13400000D01*
X210500000Y175885000D02*
X203685000Y175885000D01*
X198589843Y116600000D02*
X198589843Y154600000D01*
X198589843Y76600000D02*
X198589843Y116600000D01*
X77145000Y95600000D02*
X77145000Y56600000D01*
X198589843Y170789843D02*
X198589843Y154600000D01*
X77145000Y134600000D02*
X77145000Y95600000D01*
X203685000Y175885000D02*
X198589843Y170789843D01*
%TO.N,+5V*%
X233070000Y187530000D02*
X233070000Y184530000D01*
X232062500Y191900000D02*
X232062500Y188537500D01*
X232062500Y188537500D02*
X233070000Y187530000D01*
%TO.N,+12V*%
X183500000Y187900000D02*
X186905000Y184495000D01*
X71505000Y5500000D02*
X185000000Y5500000D01*
X80500000Y14750000D02*
X176150000Y14750000D01*
X190067657Y173769843D02*
X190937500Y172900000D01*
X79685000Y95600000D02*
X79685000Y56600000D01*
X79685000Y56600000D02*
X79685000Y17600000D01*
X183500000Y192900000D02*
X183500000Y187900000D01*
X79685000Y134600000D02*
X79685000Y95600000D01*
X225450000Y184530000D02*
X210870000Y184530000D01*
X186905000Y184495000D02*
X190067657Y184495000D01*
X213829843Y116600000D02*
X213829843Y76600000D01*
X213829843Y34329843D02*
X213829843Y37600000D01*
X196049843Y167787657D02*
X196049843Y154600000D01*
X213829843Y116600000D02*
X213829843Y154600000D01*
X196049843Y34649843D02*
X196049843Y37600000D01*
X185000000Y5500000D02*
X213829843Y34329843D01*
X210870000Y184530000D02*
X202500000Y192900000D01*
X196049843Y154600000D02*
X196049843Y116600000D01*
X190067657Y184495000D02*
X190067657Y173769843D01*
X213829843Y76600000D02*
X213829843Y37600000D01*
X196049843Y37600000D02*
X196049843Y76600000D01*
X196049843Y76600000D02*
X196049843Y116600000D01*
X61905000Y17600000D02*
X61905000Y15100000D01*
X176150000Y14750000D02*
X196049843Y34649843D01*
X61905000Y15100000D02*
X71505000Y5500000D01*
X190937500Y172900000D02*
X196049843Y167787657D01*
X61905000Y95600000D02*
X61905000Y56600000D01*
X79685000Y15565000D02*
X80500000Y14750000D01*
X202500000Y192900000D02*
X183500000Y192900000D01*
X79685000Y17600000D02*
X79685000Y15565000D01*
X61905000Y134600000D02*
X61905000Y95600000D01*
X61905000Y17600000D02*
X61905000Y56600000D01*
%TD*%
M02*
