%TF.GenerationSoftware,KiCad,Pcbnew,(6.0.4)*%
%TF.CreationDate,2023-07-24T14:01:23-04:00*%
%TF.ProjectId,BREAD_Loaf,42524541-445f-44c6-9f61-662e6b696361,rev?*%
%TF.SameCoordinates,PX2faf080PYee6b280*%
%TF.FileFunction,Legend,Top*%
%TF.FilePolarity,Positive*%
%FSLAX46Y46*%
G04 Gerber Fmt 4.6, Leading zero omitted, Abs format (unit mm)*
G04 Created by KiCad (PCBNEW (6.0.4)) date 2023-07-24 14:01:23*
%MOMM*%
%LPD*%
G01*
G04 APERTURE LIST*
%ADD10C,0.150000*%
%ADD11C,0.100000*%
%ADD12C,0.300000*%
%ADD13C,0.120000*%
%ADD14C,0.010000*%
G04 APERTURE END LIST*
D10*
X82650000Y138609524D02*
X82688095Y138685715D01*
X82688095Y138800000D01*
X82650000Y138914286D01*
X82573809Y138990477D01*
X82497619Y139028572D01*
X82345238Y139066667D01*
X82230952Y139066667D01*
X82078571Y139028572D01*
X82002380Y138990477D01*
X81926190Y138914286D01*
X81888095Y138800000D01*
X81888095Y138723810D01*
X81926190Y138609524D01*
X81964285Y138571429D01*
X82230952Y138571429D01*
X82230952Y138723810D01*
X81888095Y138228572D02*
X82688095Y138228572D01*
X81888095Y137771429D01*
X82688095Y137771429D01*
X81888095Y137390477D02*
X82688095Y137390477D01*
X82688095Y137200000D01*
X82650000Y137085715D01*
X82573809Y137009524D01*
X82497619Y136971429D01*
X82345238Y136933334D01*
X82230952Y136933334D01*
X82078571Y136971429D01*
X82002380Y137009524D01*
X81926190Y137085715D01*
X81888095Y137200000D01*
X81888095Y137390477D01*
X138934843Y49600000D02*
X271934843Y49600000D01*
X271934843Y49600000D02*
X271934843Y83600000D01*
X271934843Y83600000D02*
X138934843Y83600000D01*
X138934843Y83600000D02*
X138934843Y49600000D01*
X138934843Y88600000D02*
X271934843Y88600000D01*
X271934843Y88600000D02*
X271934843Y122600000D01*
X271934843Y122600000D02*
X138934843Y122600000D01*
X138934843Y122600000D02*
X138934843Y88600000D01*
X136800000Y122600000D02*
X3800000Y122600000D01*
X3800000Y122600000D02*
X3800000Y88600000D01*
X3800000Y88600000D02*
X136800000Y88600000D01*
X136800000Y88600000D02*
X136800000Y122600000D01*
D11*
X3800000Y161600000D02*
X136800000Y161600000D01*
D10*
X136800000Y44600000D02*
X3800000Y44600000D01*
X3800000Y44600000D02*
X3800000Y10600000D01*
X3800000Y10600000D02*
X136800000Y10600000D01*
X136800000Y10600000D02*
X136800000Y44600000D01*
D11*
X136800000Y127600000D02*
X136800000Y161600000D01*
D10*
X138934843Y10600000D02*
X271934843Y10600000D01*
X271934843Y10600000D02*
X271934843Y44600000D01*
X271934843Y44600000D02*
X138934843Y44600000D01*
X138934843Y44600000D02*
X138934843Y10600000D01*
X138934843Y127600000D02*
X271934843Y127600000D01*
X271934843Y127600000D02*
X271934843Y161600000D01*
X271934843Y161600000D02*
X138934843Y161600000D01*
X138934843Y161600000D02*
X138934843Y127600000D01*
D11*
X3800000Y127600000D02*
X136800000Y127600000D01*
D10*
X136800000Y83600000D02*
X3800000Y83600000D01*
X3800000Y83600000D02*
X3800000Y49600000D01*
X3800000Y49600000D02*
X136800000Y49600000D01*
X136800000Y49600000D02*
X136800000Y83600000D01*
D11*
X3800000Y161600000D02*
X3800000Y127600000D01*
D10*
X215994843Y112720477D02*
X215956747Y112644286D01*
X215956747Y112530000D01*
X215994843Y112415715D01*
X216071033Y112339524D01*
X216147223Y112301429D01*
X216299604Y112263334D01*
X216413890Y112263334D01*
X216566271Y112301429D01*
X216642462Y112339524D01*
X216718652Y112415715D01*
X216756747Y112530000D01*
X216756747Y112606191D01*
X216718652Y112720477D01*
X216680557Y112758572D01*
X216413890Y112758572D01*
X216413890Y112606191D01*
X216756747Y113101429D02*
X215956747Y113101429D01*
X216756747Y113558572D01*
X215956747Y113558572D01*
X216756747Y113939524D02*
X215956747Y113939524D01*
X215956747Y114130000D01*
X215994843Y114244286D01*
X216071033Y114320477D01*
X216147223Y114358572D01*
X216299604Y114396667D01*
X216413890Y114396667D01*
X216566271Y114358572D01*
X216642462Y114320477D01*
X216718652Y114244286D01*
X216756747Y114130000D01*
X216756747Y113939524D01*
X11920557Y112300000D02*
X11777700Y111871429D01*
X11777700Y111157143D01*
X11920557Y110871429D01*
X12063414Y110728572D01*
X12349128Y110585715D01*
X12634843Y110585715D01*
X12920557Y110728572D01*
X13063414Y110871429D01*
X13206271Y111157143D01*
X13349128Y111728572D01*
X13491985Y112014286D01*
X13634843Y112157143D01*
X13920557Y112300000D01*
X14206271Y112300000D01*
X14491985Y112157143D01*
X14634843Y112014286D01*
X14777700Y111728572D01*
X14777700Y111014286D01*
X14634843Y110585715D01*
X11777700Y108871429D02*
X11920557Y109157143D01*
X12206271Y109300000D01*
X14777700Y109300000D01*
X11777700Y107728572D02*
X13777700Y107728572D01*
X14777700Y107728572D02*
X14634843Y107871429D01*
X14491985Y107728572D01*
X14634843Y107585715D01*
X14777700Y107728572D01*
X14491985Y107728572D01*
X11920557Y105014286D02*
X11777700Y105300000D01*
X11777700Y105871429D01*
X11920557Y106157143D01*
X12063414Y106300000D01*
X12349128Y106442858D01*
X13206271Y106442858D01*
X13491985Y106300000D01*
X13634843Y106157143D01*
X13777700Y105871429D01*
X13777700Y105300000D01*
X13634843Y105014286D01*
X11920557Y102585715D02*
X11777700Y102871429D01*
X11777700Y103442858D01*
X11920557Y103728572D01*
X12206271Y103871429D01*
X13349128Y103871429D01*
X13634843Y103728572D01*
X13777700Y103442858D01*
X13777700Y102871429D01*
X13634843Y102585715D01*
X13349128Y102442858D01*
X13063414Y102442858D01*
X12777700Y103871429D01*
X14491985Y99014286D02*
X14634843Y98871429D01*
X14777700Y98585715D01*
X14777700Y97871429D01*
X14634843Y97585715D01*
X14491985Y97442858D01*
X14206271Y97300000D01*
X13920557Y97300000D01*
X13491985Y97442858D01*
X11777700Y99157143D01*
X11777700Y97300000D01*
X214256747Y72549048D02*
X214256747Y72091906D01*
X214256747Y72320477D02*
X213456747Y72320477D01*
X213571033Y72244286D01*
X213647223Y72168096D01*
X213685319Y72091906D01*
X213532938Y72853810D02*
X213494843Y72891906D01*
X213456747Y72968096D01*
X213456747Y73158572D01*
X213494843Y73234763D01*
X213532938Y73272858D01*
X213609128Y73310953D01*
X213685319Y73310953D01*
X213799604Y73272858D01*
X214256747Y72815715D01*
X214256747Y73310953D01*
X213456747Y73539525D02*
X214256747Y73806191D01*
X213456747Y74072858D01*
X64022938Y99519048D02*
X64822938Y99519048D01*
X64022938Y99138096D02*
X64822938Y99138096D01*
X64022938Y98680953D01*
X64822938Y98680953D01*
X64822938Y98414286D02*
X64822938Y97957143D01*
X64022938Y98185715D02*
X64822938Y98185715D01*
X61472938Y21430953D02*
X61472938Y21888095D01*
X61472938Y21659524D02*
X62272938Y21659524D01*
X62158652Y21735714D01*
X62082462Y21811905D01*
X62044366Y21888095D01*
X62196747Y21126191D02*
X62234843Y21088095D01*
X62272938Y21011905D01*
X62272938Y20821429D01*
X62234843Y20745238D01*
X62196747Y20707143D01*
X62120557Y20669048D01*
X62044366Y20669048D01*
X61930081Y20707143D01*
X61472938Y21164286D01*
X61472938Y20669048D01*
X62272938Y20440476D02*
X61472938Y20173810D01*
X62272938Y19907143D01*
X79272938Y21430953D02*
X79272938Y21888095D01*
X79272938Y21659524D02*
X80072938Y21659524D01*
X79958652Y21735714D01*
X79882462Y21811905D01*
X79844366Y21888095D01*
X79996747Y21126191D02*
X80034843Y21088095D01*
X80072938Y21011905D01*
X80072938Y20821429D01*
X80034843Y20745238D01*
X79996747Y20707143D01*
X79920557Y20669048D01*
X79844366Y20669048D01*
X79730081Y20707143D01*
X79272938Y21164286D01*
X79272938Y20669048D01*
X80072938Y20440476D02*
X79272938Y20173810D01*
X80072938Y19907143D01*
X211706747Y33860953D02*
X210906747Y33860953D01*
X211706747Y34241905D02*
X210906747Y34241905D01*
X211706747Y34699048D01*
X210906747Y34699048D01*
X210906747Y34965715D02*
X210906747Y35422858D01*
X211706747Y35194286D02*
X210906747Y35194286D01*
X72434843Y138609524D02*
X72472938Y138685715D01*
X72472938Y138800000D01*
X72434843Y138914286D01*
X72358652Y138990477D01*
X72282462Y139028572D01*
X72130081Y139066667D01*
X72015795Y139066667D01*
X71863414Y139028572D01*
X71787223Y138990477D01*
X71711033Y138914286D01*
X71672938Y138800000D01*
X71672938Y138723810D01*
X71711033Y138609524D01*
X71749128Y138571429D01*
X72015795Y138571429D01*
X72015795Y138723810D01*
X71672938Y138228572D02*
X72472938Y138228572D01*
X71672938Y137771429D01*
X72472938Y137771429D01*
X71672938Y137390477D02*
X72472938Y137390477D01*
X72472938Y137200000D01*
X72434843Y137085715D01*
X72358652Y137009524D01*
X72282462Y136971429D01*
X72130081Y136933334D01*
X72015795Y136933334D01*
X71863414Y136971429D01*
X71787223Y137009524D01*
X71711033Y137085715D01*
X71672938Y137200000D01*
X71672938Y137390477D01*
X214256747Y150999048D02*
X214256747Y150541906D01*
X214256747Y150770477D02*
X213456747Y150770477D01*
X213571033Y150694286D01*
X213647223Y150618096D01*
X213685319Y150541906D01*
X213532938Y151303810D02*
X213494843Y151341906D01*
X213456747Y151418096D01*
X213456747Y151608572D01*
X213494843Y151684763D01*
X213532938Y151722858D01*
X213609128Y151760953D01*
X213685319Y151760953D01*
X213799604Y151722858D01*
X214256747Y151265715D01*
X214256747Y151760953D01*
X213456747Y151989525D02*
X214256747Y152256191D01*
X213456747Y152522858D01*
X196456747Y112949048D02*
X196456747Y112491906D01*
X196456747Y112720477D02*
X195656747Y112720477D01*
X195771033Y112644286D01*
X195847223Y112568096D01*
X195885319Y112491906D01*
X195732938Y113253810D02*
X195694843Y113291906D01*
X195656747Y113368096D01*
X195656747Y113558572D01*
X195694843Y113634763D01*
X195732938Y113672858D01*
X195809128Y113710953D01*
X195885319Y113710953D01*
X195999604Y113672858D01*
X196456747Y113215715D01*
X196456747Y113710953D01*
X195656747Y113939525D02*
X196456747Y114206191D01*
X195656747Y114472858D01*
X66611033Y100814286D02*
X66572938Y100700000D01*
X66572938Y100509524D01*
X66611033Y100433333D01*
X66649128Y100395238D01*
X66725319Y100357143D01*
X66801509Y100357143D01*
X66877700Y100395238D01*
X66915795Y100433333D01*
X66953890Y100509524D01*
X66991985Y100661905D01*
X67030081Y100738095D01*
X67068176Y100776190D01*
X67144366Y100814286D01*
X67220557Y100814286D01*
X67296747Y100776190D01*
X67334843Y100738095D01*
X67372938Y100661905D01*
X67372938Y100471429D01*
X67334843Y100357143D01*
X66953890Y99861905D02*
X66572938Y99861905D01*
X67372938Y100128571D02*
X66953890Y99861905D01*
X67372938Y99595238D01*
X66572938Y99328571D02*
X67372938Y99328571D01*
X66572938Y98871429D01*
X67372938Y98871429D01*
X66649128Y98033333D02*
X66611033Y98071429D01*
X66572938Y98185714D01*
X66572938Y98261905D01*
X66611033Y98376190D01*
X66687223Y98452381D01*
X66763414Y98490476D01*
X66915795Y98528571D01*
X67030081Y98528571D01*
X67182462Y98490476D01*
X67258652Y98452381D01*
X67334843Y98376190D01*
X67372938Y98261905D01*
X67372938Y98185714D01*
X67334843Y98071429D01*
X67296747Y98033333D01*
X201518652Y33403810D02*
X201556747Y33518096D01*
X201556747Y33708572D01*
X201518652Y33784762D01*
X201480557Y33822858D01*
X201404366Y33860953D01*
X201328176Y33860953D01*
X201251985Y33822858D01*
X201213890Y33784762D01*
X201175795Y33708572D01*
X201137700Y33556191D01*
X201099604Y33480000D01*
X201061509Y33441905D01*
X200985319Y33403810D01*
X200909128Y33403810D01*
X200832938Y33441905D01*
X200794843Y33480000D01*
X200756747Y33556191D01*
X200756747Y33746667D01*
X200794843Y33860953D01*
X201556747Y34203810D02*
X200756747Y34203810D01*
X200756747Y34394286D01*
X200794843Y34508572D01*
X200871033Y34584762D01*
X200947223Y34622858D01*
X201099604Y34660953D01*
X201213890Y34660953D01*
X201366271Y34622858D01*
X201442462Y34584762D01*
X201518652Y34508572D01*
X201556747Y34394286D01*
X201556747Y34203810D01*
X201328176Y34965715D02*
X201328176Y35346667D01*
X201556747Y34889524D02*
X200756747Y35156191D01*
X201556747Y35422858D01*
X211706747Y112910953D02*
X210906747Y112910953D01*
X211706747Y113291905D02*
X210906747Y113291905D01*
X211706747Y113749048D01*
X210906747Y113749048D01*
X210906747Y114015715D02*
X210906747Y114472858D01*
X211706747Y114244286D02*
X210906747Y114244286D01*
X263714285Y59900000D02*
X263857142Y60328572D01*
X263857142Y61042858D01*
X263714285Y61328572D01*
X263571428Y61471429D01*
X263285714Y61614286D01*
X263000000Y61614286D01*
X262714285Y61471429D01*
X262571428Y61328572D01*
X262428571Y61042858D01*
X262285714Y60471429D01*
X262142857Y60185715D01*
X262000000Y60042858D01*
X261714285Y59900000D01*
X261428571Y59900000D01*
X261142857Y60042858D01*
X261000000Y60185715D01*
X260857142Y60471429D01*
X260857142Y61185715D01*
X261000000Y61614286D01*
X263857142Y63328572D02*
X263714285Y63042858D01*
X263428571Y62900000D01*
X260857142Y62900000D01*
X263857142Y64471429D02*
X261857142Y64471429D01*
X260857142Y64471429D02*
X261000000Y64328572D01*
X261142857Y64471429D01*
X261000000Y64614286D01*
X260857142Y64471429D01*
X261142857Y64471429D01*
X263714285Y67185715D02*
X263857142Y66900000D01*
X263857142Y66328572D01*
X263714285Y66042858D01*
X263571428Y65900000D01*
X263285714Y65757143D01*
X262428571Y65757143D01*
X262142857Y65900000D01*
X262000000Y66042858D01*
X261857142Y66328572D01*
X261857142Y66900000D01*
X262000000Y67185715D01*
X263714285Y69614286D02*
X263857142Y69328572D01*
X263857142Y68757143D01*
X263714285Y68471429D01*
X263428571Y68328572D01*
X262285714Y68328572D01*
X262000000Y68471429D01*
X261857142Y68757143D01*
X261857142Y69328572D01*
X262000000Y69614286D01*
X262285714Y69757143D01*
X262571428Y69757143D01*
X262857142Y68328572D01*
X260857142Y74614286D02*
X260857142Y74042858D01*
X261000000Y73757143D01*
X261142857Y73614286D01*
X261571428Y73328572D01*
X262142857Y73185715D01*
X263285714Y73185715D01*
X263571428Y73328572D01*
X263714285Y73471429D01*
X263857142Y73757143D01*
X263857142Y74328572D01*
X263714285Y74614286D01*
X263571428Y74757143D01*
X263285714Y74900000D01*
X262571428Y74900000D01*
X262285714Y74757143D01*
X262142857Y74614286D01*
X262000000Y74328572D01*
X262000000Y73757143D01*
X262142857Y73471429D01*
X262285714Y73328572D01*
X262571428Y73185715D01*
X64022938Y21469048D02*
X64822938Y21469048D01*
X64022938Y21088096D02*
X64822938Y21088096D01*
X64022938Y20630953D01*
X64822938Y20630953D01*
X64822938Y20364286D02*
X64822938Y19907143D01*
X64022938Y20135715D02*
X64822938Y20135715D01*
X198968652Y112491906D02*
X199006747Y112606191D01*
X199006747Y112796667D01*
X198968652Y112872858D01*
X198930557Y112910953D01*
X198854366Y112949048D01*
X198778176Y112949048D01*
X198701985Y112910953D01*
X198663890Y112872858D01*
X198625795Y112796667D01*
X198587700Y112644286D01*
X198549604Y112568096D01*
X198511509Y112530001D01*
X198435319Y112491906D01*
X198359128Y112491906D01*
X198282938Y112530001D01*
X198244843Y112568096D01*
X198206747Y112644286D01*
X198206747Y112834763D01*
X198244843Y112949048D01*
X198930557Y113749048D02*
X198968652Y113710953D01*
X199006747Y113596667D01*
X199006747Y113520477D01*
X198968652Y113406191D01*
X198892462Y113330001D01*
X198816271Y113291906D01*
X198663890Y113253810D01*
X198549604Y113253810D01*
X198397223Y113291906D01*
X198321033Y113330001D01*
X198244843Y113406191D01*
X198206747Y113520477D01*
X198206747Y113596667D01*
X198244843Y113710953D01*
X198282938Y113749048D01*
X199006747Y114472858D02*
X199006747Y114091906D01*
X198206747Y114091906D01*
X59734843Y99709524D02*
X59772938Y99785715D01*
X59772938Y99900000D01*
X59734843Y100014286D01*
X59658652Y100090477D01*
X59582462Y100128572D01*
X59430081Y100166667D01*
X59315795Y100166667D01*
X59163414Y100128572D01*
X59087223Y100090477D01*
X59011033Y100014286D01*
X58972938Y99900000D01*
X58972938Y99823810D01*
X59011033Y99709524D01*
X59049128Y99671429D01*
X59315795Y99671429D01*
X59315795Y99823810D01*
X58972938Y99328572D02*
X59772938Y99328572D01*
X58972938Y98871429D01*
X59772938Y98871429D01*
X58972938Y98490477D02*
X59772938Y98490477D01*
X59772938Y98300000D01*
X59734843Y98185715D01*
X59658652Y98109524D01*
X59582462Y98071429D01*
X59430081Y98033334D01*
X59315795Y98033334D01*
X59163414Y98071429D01*
X59087223Y98109524D01*
X59011033Y98185715D01*
X58972938Y98300000D01*
X58972938Y98490477D01*
X82584843Y21659524D02*
X82622938Y21735715D01*
X82622938Y21850000D01*
X82584843Y21964286D01*
X82508652Y22040477D01*
X82432462Y22078572D01*
X82280081Y22116667D01*
X82165795Y22116667D01*
X82013414Y22078572D01*
X81937223Y22040477D01*
X81861033Y21964286D01*
X81822938Y21850000D01*
X81822938Y21773810D01*
X81861033Y21659524D01*
X81899128Y21621429D01*
X82165795Y21621429D01*
X82165795Y21773810D01*
X81822938Y21278572D02*
X82622938Y21278572D01*
X81822938Y20821429D01*
X82622938Y20821429D01*
X81822938Y20440477D02*
X82622938Y20440477D01*
X82622938Y20250000D01*
X82584843Y20135715D01*
X82508652Y20059524D01*
X82432462Y20021429D01*
X82280081Y19983334D01*
X82165795Y19983334D01*
X82013414Y20021429D01*
X81937223Y20059524D01*
X81861033Y20135715D01*
X81822938Y20250000D01*
X81822938Y20440477D01*
X59734843Y60759524D02*
X59772938Y60835715D01*
X59772938Y60950000D01*
X59734843Y61064286D01*
X59658652Y61140477D01*
X59582462Y61178572D01*
X59430081Y61216667D01*
X59315795Y61216667D01*
X59163414Y61178572D01*
X59087223Y61140477D01*
X59011033Y61064286D01*
X58972938Y60950000D01*
X58972938Y60873810D01*
X59011033Y60759524D01*
X59049128Y60721429D01*
X59315795Y60721429D01*
X59315795Y60873810D01*
X58972938Y60378572D02*
X59772938Y60378572D01*
X58972938Y59921429D01*
X59772938Y59921429D01*
X58972938Y59540477D02*
X59772938Y59540477D01*
X59772938Y59350000D01*
X59734843Y59235715D01*
X59658652Y59159524D01*
X59582462Y59121429D01*
X59430081Y59083334D01*
X59315795Y59083334D01*
X59163414Y59121429D01*
X59087223Y59159524D01*
X59011033Y59235715D01*
X58972938Y59350000D01*
X58972938Y59540477D01*
X82584843Y60759524D02*
X82622938Y60835715D01*
X82622938Y60950000D01*
X82584843Y61064286D01*
X82508652Y61140477D01*
X82432462Y61178572D01*
X82280081Y61216667D01*
X82165795Y61216667D01*
X82013414Y61178572D01*
X81937223Y61140477D01*
X81861033Y61064286D01*
X81822938Y60950000D01*
X81822938Y60873810D01*
X81861033Y60759524D01*
X81899128Y60721429D01*
X82165795Y60721429D01*
X82165795Y60873810D01*
X81822938Y60378572D02*
X82622938Y60378572D01*
X81822938Y59921429D01*
X82622938Y59921429D01*
X81822938Y59540477D02*
X82622938Y59540477D01*
X82622938Y59350000D01*
X82584843Y59235715D01*
X82508652Y59159524D01*
X82432462Y59121429D01*
X82280081Y59083334D01*
X82165795Y59083334D01*
X82013414Y59121429D01*
X81937223Y59159524D01*
X81861033Y59235715D01*
X81822938Y59350000D01*
X81822938Y59540477D01*
X79272938Y99480953D02*
X79272938Y99938095D01*
X79272938Y99709524D02*
X80072938Y99709524D01*
X79958652Y99785714D01*
X79882462Y99861905D01*
X79844366Y99938095D01*
X79996747Y99176191D02*
X80034843Y99138095D01*
X80072938Y99061905D01*
X80072938Y98871429D01*
X80034843Y98795238D01*
X79996747Y98757143D01*
X79920557Y98719048D01*
X79844366Y98719048D01*
X79730081Y98757143D01*
X79272938Y99214286D01*
X79272938Y98719048D01*
X80072938Y98490476D02*
X79272938Y98223810D01*
X80072938Y97957143D01*
D12*
X194288095Y191007143D02*
X195811904Y191007143D01*
D10*
X215994843Y72320477D02*
X215956747Y72244286D01*
X215956747Y72130000D01*
X215994843Y72015715D01*
X216071033Y71939524D01*
X216147223Y71901429D01*
X216299604Y71863334D01*
X216413890Y71863334D01*
X216566271Y71901429D01*
X216642462Y71939524D01*
X216718652Y72015715D01*
X216756747Y72130000D01*
X216756747Y72206191D01*
X216718652Y72320477D01*
X216680557Y72358572D01*
X216413890Y72358572D01*
X216413890Y72206191D01*
X216756747Y72701429D02*
X215956747Y72701429D01*
X216756747Y73158572D01*
X215956747Y73158572D01*
X216756747Y73539524D02*
X215956747Y73539524D01*
X215956747Y73730000D01*
X215994843Y73844286D01*
X216071033Y73920477D01*
X216147223Y73958572D01*
X216299604Y73996667D01*
X216413890Y73996667D01*
X216566271Y73958572D01*
X216642462Y73920477D01*
X216718652Y73844286D01*
X216756747Y73730000D01*
X216756747Y73539524D01*
X201518652Y72053810D02*
X201556747Y72168096D01*
X201556747Y72358572D01*
X201518652Y72434762D01*
X201480557Y72472858D01*
X201404366Y72510953D01*
X201328176Y72510953D01*
X201251985Y72472858D01*
X201213890Y72434762D01*
X201175795Y72358572D01*
X201137700Y72206191D01*
X201099604Y72130000D01*
X201061509Y72091905D01*
X200985319Y72053810D01*
X200909128Y72053810D01*
X200832938Y72091905D01*
X200794843Y72130000D01*
X200756747Y72206191D01*
X200756747Y72396667D01*
X200794843Y72510953D01*
X201556747Y72853810D02*
X200756747Y72853810D01*
X200756747Y73044286D01*
X200794843Y73158572D01*
X200871033Y73234762D01*
X200947223Y73272858D01*
X201099604Y73310953D01*
X201213890Y73310953D01*
X201366271Y73272858D01*
X201442462Y73234762D01*
X201518652Y73158572D01*
X201556747Y73044286D01*
X201556747Y72853810D01*
X201328176Y73615715D02*
X201328176Y73996667D01*
X201556747Y73539524D02*
X200756747Y73806191D01*
X201556747Y74072858D01*
X196456747Y150999048D02*
X196456747Y150541906D01*
X196456747Y150770477D02*
X195656747Y150770477D01*
X195771033Y150694286D01*
X195847223Y150618096D01*
X195885319Y150541906D01*
X195732938Y151303810D02*
X195694843Y151341906D01*
X195656747Y151418096D01*
X195656747Y151608572D01*
X195694843Y151684763D01*
X195732938Y151722858D01*
X195809128Y151760953D01*
X195885319Y151760953D01*
X195999604Y151722858D01*
X196456747Y151265715D01*
X196456747Y151760953D01*
X195656747Y151989525D02*
X196456747Y152256191D01*
X195656747Y152522858D01*
X69541985Y23373810D02*
X69541985Y23107143D01*
X69122938Y22992858D02*
X69122938Y23373810D01*
X69922938Y23373810D01*
X69922938Y22992858D01*
X69161033Y22688096D02*
X69122938Y22573810D01*
X69122938Y22383334D01*
X69161033Y22307143D01*
X69199128Y22269048D01*
X69275319Y22230953D01*
X69351509Y22230953D01*
X69427700Y22269048D01*
X69465795Y22307143D01*
X69503890Y22383334D01*
X69541985Y22535715D01*
X69580081Y22611905D01*
X69618176Y22650000D01*
X69694366Y22688096D01*
X69770557Y22688096D01*
X69846747Y22650000D01*
X69884843Y22611905D01*
X69922938Y22535715D01*
X69922938Y22345239D01*
X69884843Y22230953D01*
X69922938Y22002381D02*
X69922938Y21545239D01*
X69122938Y21773810D02*
X69922938Y21773810D01*
X69922938Y21126191D02*
X69922938Y20973810D01*
X69884843Y20897619D01*
X69808652Y20821429D01*
X69656271Y20783334D01*
X69389604Y20783334D01*
X69237223Y20821429D01*
X69161033Y20897619D01*
X69122938Y20973810D01*
X69122938Y21126191D01*
X69161033Y21202381D01*
X69237223Y21278572D01*
X69389604Y21316667D01*
X69656271Y21316667D01*
X69808652Y21278572D01*
X69884843Y21202381D01*
X69922938Y21126191D01*
X69122938Y20440477D02*
X69922938Y20440477D01*
X69922938Y20135715D01*
X69884843Y20059524D01*
X69846747Y20021429D01*
X69770557Y19983334D01*
X69656271Y19983334D01*
X69580081Y20021429D01*
X69541985Y20059524D01*
X69503890Y20135715D01*
X69503890Y20440477D01*
X64072938Y138419048D02*
X64872938Y138419048D01*
X64072938Y138038096D02*
X64872938Y138038096D01*
X64072938Y137580953D01*
X64872938Y137580953D01*
X64872938Y137314286D02*
X64872938Y136857143D01*
X64072938Y137085715D02*
X64872938Y137085715D01*
X74211033Y99976191D02*
X74172938Y99861905D01*
X74172938Y99671429D01*
X74211033Y99595239D01*
X74249128Y99557143D01*
X74325319Y99519048D01*
X74401509Y99519048D01*
X74477700Y99557143D01*
X74515795Y99595239D01*
X74553890Y99671429D01*
X74591985Y99823810D01*
X74630081Y99900001D01*
X74668176Y99938096D01*
X74744366Y99976191D01*
X74820557Y99976191D01*
X74896747Y99938096D01*
X74934843Y99900001D01*
X74972938Y99823810D01*
X74972938Y99633334D01*
X74934843Y99519048D01*
X74172938Y99176191D02*
X74972938Y99176191D01*
X74972938Y98985715D01*
X74934843Y98871429D01*
X74858652Y98795239D01*
X74782462Y98757143D01*
X74630081Y98719048D01*
X74515795Y98719048D01*
X74363414Y98757143D01*
X74287223Y98795239D01*
X74211033Y98871429D01*
X74172938Y98985715D01*
X74172938Y99176191D01*
X74401509Y98414286D02*
X74401509Y98033334D01*
X74172938Y98490477D02*
X74972938Y98223810D01*
X74172938Y97957143D01*
X211706747Y72510953D02*
X210906747Y72510953D01*
X211706747Y72891905D02*
X210906747Y72891905D01*
X211706747Y73349048D01*
X210906747Y73349048D01*
X210906747Y73615715D02*
X210906747Y74072858D01*
X211706747Y73844286D02*
X210906747Y73844286D01*
X11920557Y74200000D02*
X11777700Y73771429D01*
X11777700Y73057143D01*
X11920557Y72771429D01*
X12063414Y72628572D01*
X12349128Y72485715D01*
X12634843Y72485715D01*
X12920557Y72628572D01*
X13063414Y72771429D01*
X13206271Y73057143D01*
X13349128Y73628572D01*
X13491985Y73914286D01*
X13634843Y74057143D01*
X13920557Y74200000D01*
X14206271Y74200000D01*
X14491985Y74057143D01*
X14634843Y73914286D01*
X14777700Y73628572D01*
X14777700Y72914286D01*
X14634843Y72485715D01*
X11777700Y70771429D02*
X11920557Y71057143D01*
X12206271Y71200000D01*
X14777700Y71200000D01*
X11777700Y69628572D02*
X13777700Y69628572D01*
X14777700Y69628572D02*
X14634843Y69771429D01*
X14491985Y69628572D01*
X14634843Y69485715D01*
X14777700Y69628572D01*
X14491985Y69628572D01*
X11920557Y66914286D02*
X11777700Y67200000D01*
X11777700Y67771429D01*
X11920557Y68057143D01*
X12063414Y68200000D01*
X12349128Y68342858D01*
X13206271Y68342858D01*
X13491985Y68200000D01*
X13634843Y68057143D01*
X13777700Y67771429D01*
X13777700Y67200000D01*
X13634843Y66914286D01*
X11920557Y64485715D02*
X11777700Y64771429D01*
X11777700Y65342858D01*
X11920557Y65628572D01*
X12206271Y65771429D01*
X13349128Y65771429D01*
X13634843Y65628572D01*
X13777700Y65342858D01*
X13777700Y64771429D01*
X13634843Y64485715D01*
X13349128Y64342858D01*
X13063414Y64342858D01*
X12777700Y65771429D01*
X14777700Y61057143D02*
X14777700Y59200000D01*
X13634843Y60200000D01*
X13634843Y59771429D01*
X13491985Y59485715D01*
X13349128Y59342858D01*
X13063414Y59200000D01*
X12349128Y59200000D01*
X12063414Y59342858D01*
X11920557Y59485715D01*
X11777700Y59771429D01*
X11777700Y60628572D01*
X11920557Y60914286D01*
X12063414Y61057143D01*
D12*
X189288095Y191007143D02*
X190811904Y191007143D01*
X190050000Y190245239D02*
X190050000Y191769048D01*
D10*
X198968652Y150541906D02*
X199006747Y150656191D01*
X199006747Y150846667D01*
X198968652Y150922858D01*
X198930557Y150960953D01*
X198854366Y150999048D01*
X198778176Y150999048D01*
X198701985Y150960953D01*
X198663890Y150922858D01*
X198625795Y150846667D01*
X198587700Y150694286D01*
X198549604Y150618096D01*
X198511509Y150580001D01*
X198435319Y150541906D01*
X198359128Y150541906D01*
X198282938Y150580001D01*
X198244843Y150618096D01*
X198206747Y150694286D01*
X198206747Y150884763D01*
X198244843Y150999048D01*
X198930557Y151799048D02*
X198968652Y151760953D01*
X199006747Y151646667D01*
X199006747Y151570477D01*
X198968652Y151456191D01*
X198892462Y151380001D01*
X198816271Y151341906D01*
X198663890Y151303810D01*
X198549604Y151303810D01*
X198397223Y151341906D01*
X198321033Y151380001D01*
X198244843Y151456191D01*
X198206747Y151570477D01*
X198206747Y151646667D01*
X198244843Y151760953D01*
X198282938Y151799048D01*
X199006747Y152522858D02*
X199006747Y152141906D01*
X198206747Y152141906D01*
X76761033Y99938095D02*
X76722938Y99823810D01*
X76722938Y99633334D01*
X76761033Y99557143D01*
X76799128Y99519048D01*
X76875319Y99480953D01*
X76951509Y99480953D01*
X77027700Y99519048D01*
X77065795Y99557143D01*
X77103890Y99633334D01*
X77141985Y99785714D01*
X77180081Y99861905D01*
X77218176Y99900000D01*
X77294366Y99938095D01*
X77370557Y99938095D01*
X77446747Y99900000D01*
X77484843Y99861905D01*
X77522938Y99785714D01*
X77522938Y99595238D01*
X77484843Y99480953D01*
X76799128Y98680953D02*
X76761033Y98719048D01*
X76722938Y98833334D01*
X76722938Y98909524D01*
X76761033Y99023810D01*
X76837223Y99100000D01*
X76913414Y99138095D01*
X77065795Y99176191D01*
X77180081Y99176191D01*
X77332462Y99138095D01*
X77408652Y99100000D01*
X77484843Y99023810D01*
X77522938Y98909524D01*
X77522938Y98833334D01*
X77484843Y98719048D01*
X77446747Y98680953D01*
X76722938Y97957143D02*
X76722938Y98338095D01*
X77522938Y98338095D01*
X206187700Y111006191D02*
X206187700Y111272858D01*
X206606747Y111387143D02*
X206606747Y111006191D01*
X205806747Y111006191D01*
X205806747Y111387143D01*
X206568652Y111691905D02*
X206606747Y111806191D01*
X206606747Y111996667D01*
X206568652Y112072858D01*
X206530557Y112110953D01*
X206454366Y112149048D01*
X206378176Y112149048D01*
X206301985Y112110953D01*
X206263890Y112072858D01*
X206225795Y111996667D01*
X206187700Y111844286D01*
X206149604Y111768096D01*
X206111509Y111730001D01*
X206035319Y111691905D01*
X205959128Y111691905D01*
X205882938Y111730001D01*
X205844843Y111768096D01*
X205806747Y111844286D01*
X205806747Y112034762D01*
X205844843Y112149048D01*
X205806747Y112377620D02*
X205806747Y112834762D01*
X206606747Y112606191D02*
X205806747Y112606191D01*
X205806747Y113253810D02*
X205806747Y113406191D01*
X205844843Y113482381D01*
X205921033Y113558572D01*
X206073414Y113596667D01*
X206340081Y113596667D01*
X206492462Y113558572D01*
X206568652Y113482381D01*
X206606747Y113406191D01*
X206606747Y113253810D01*
X206568652Y113177620D01*
X206492462Y113101429D01*
X206340081Y113063334D01*
X206073414Y113063334D01*
X205921033Y113101429D01*
X205844843Y113177620D01*
X205806747Y113253810D01*
X206606747Y113939524D02*
X205806747Y113939524D01*
X205806747Y114244286D01*
X205844843Y114320477D01*
X205882938Y114358572D01*
X205959128Y114396667D01*
X206073414Y114396667D01*
X206149604Y114358572D01*
X206187700Y114320477D01*
X206225795Y114244286D01*
X206225795Y113939524D01*
X206187700Y149056191D02*
X206187700Y149322858D01*
X206606747Y149437143D02*
X206606747Y149056191D01*
X205806747Y149056191D01*
X205806747Y149437143D01*
X206568652Y149741905D02*
X206606747Y149856191D01*
X206606747Y150046667D01*
X206568652Y150122858D01*
X206530557Y150160953D01*
X206454366Y150199048D01*
X206378176Y150199048D01*
X206301985Y150160953D01*
X206263890Y150122858D01*
X206225795Y150046667D01*
X206187700Y149894286D01*
X206149604Y149818096D01*
X206111509Y149780001D01*
X206035319Y149741905D01*
X205959128Y149741905D01*
X205882938Y149780001D01*
X205844843Y149818096D01*
X205806747Y149894286D01*
X205806747Y150084762D01*
X205844843Y150199048D01*
X205806747Y150427620D02*
X205806747Y150884762D01*
X206606747Y150656191D02*
X205806747Y150656191D01*
X205806747Y151303810D02*
X205806747Y151456191D01*
X205844843Y151532381D01*
X205921033Y151608572D01*
X206073414Y151646667D01*
X206340081Y151646667D01*
X206492462Y151608572D01*
X206568652Y151532381D01*
X206606747Y151456191D01*
X206606747Y151303810D01*
X206568652Y151227620D01*
X206492462Y151151429D01*
X206340081Y151113334D01*
X206073414Y151113334D01*
X205921033Y151151429D01*
X205844843Y151227620D01*
X205806747Y151303810D01*
X206606747Y151989524D02*
X205806747Y151989524D01*
X205806747Y152294286D01*
X205844843Y152370477D01*
X205882938Y152408572D01*
X205959128Y152446667D01*
X206073414Y152446667D01*
X206149604Y152408572D01*
X206187700Y152370477D01*
X206225795Y152294286D01*
X206225795Y151989524D01*
X203344843Y150770477D02*
X203306747Y150694286D01*
X203306747Y150580000D01*
X203344843Y150465715D01*
X203421033Y150389524D01*
X203497223Y150351429D01*
X203649604Y150313334D01*
X203763890Y150313334D01*
X203916271Y150351429D01*
X203992462Y150389524D01*
X204068652Y150465715D01*
X204106747Y150580000D01*
X204106747Y150656191D01*
X204068652Y150770477D01*
X204030557Y150808572D01*
X203763890Y150808572D01*
X203763890Y150656191D01*
X204106747Y151151429D02*
X203306747Y151151429D01*
X204106747Y151608572D01*
X203306747Y151608572D01*
X204106747Y151989524D02*
X203306747Y151989524D01*
X203306747Y152180000D01*
X203344843Y152294286D01*
X203421033Y152370477D01*
X203497223Y152408572D01*
X203649604Y152446667D01*
X203763890Y152446667D01*
X203916271Y152408572D01*
X203992462Y152370477D01*
X204068652Y152294286D01*
X204106747Y152180000D01*
X204106747Y151989524D01*
X205622380Y175455239D02*
X205765237Y175407620D01*
X206003333Y175407620D01*
X206098571Y175455239D01*
X206146190Y175502858D01*
X206193809Y175598096D01*
X206193809Y175693334D01*
X206146190Y175788572D01*
X206098571Y175836191D01*
X206003333Y175883810D01*
X205812857Y175931429D01*
X205717618Y175979048D01*
X205669999Y176026667D01*
X205622380Y176121905D01*
X205622380Y176217143D01*
X205669999Y176312381D01*
X205717618Y176360000D01*
X205812857Y176407620D01*
X206050952Y176407620D01*
X206193809Y176360000D01*
X207193809Y175502858D02*
X207146190Y175455239D01*
X207003333Y175407620D01*
X206908095Y175407620D01*
X206765237Y175455239D01*
X206669999Y175550477D01*
X206622380Y175645715D01*
X206574761Y175836191D01*
X206574761Y175979048D01*
X206622380Y176169524D01*
X206669999Y176264762D01*
X206765237Y176360000D01*
X206908095Y176407620D01*
X207003333Y176407620D01*
X207146190Y176360000D01*
X207193809Y176312381D01*
X208098571Y175407620D02*
X207622380Y175407620D01*
X207622380Y176407620D01*
X209118652Y111615715D02*
X209156747Y111730001D01*
X209156747Y111920477D01*
X209118652Y111996668D01*
X209080557Y112034763D01*
X209004366Y112072858D01*
X208928176Y112072858D01*
X208851985Y112034763D01*
X208813890Y111996668D01*
X208775795Y111920477D01*
X208737700Y111768096D01*
X208699604Y111691906D01*
X208661509Y111653811D01*
X208585319Y111615715D01*
X208509128Y111615715D01*
X208432938Y111653811D01*
X208394843Y111691906D01*
X208356747Y111768096D01*
X208356747Y111958572D01*
X208394843Y112072858D01*
X208775795Y112568096D02*
X209156747Y112568096D01*
X208356747Y112301430D02*
X208775795Y112568096D01*
X208356747Y112834763D01*
X209156747Y113101430D02*
X208356747Y113101430D01*
X209156747Y113558572D01*
X208356747Y113558572D01*
X209080557Y114396668D02*
X209118652Y114358572D01*
X209156747Y114244287D01*
X209156747Y114168096D01*
X209118652Y114053811D01*
X209042462Y113977620D01*
X208966271Y113939525D01*
X208813890Y113901430D01*
X208699604Y113901430D01*
X208547223Y113939525D01*
X208471033Y113977620D01*
X208394843Y114053811D01*
X208356747Y114168096D01*
X208356747Y114244287D01*
X208394843Y114358572D01*
X208432938Y114396668D01*
X205574762Y172965239D02*
X205717619Y172917620D01*
X205955714Y172917620D01*
X206050952Y172965239D01*
X206098571Y173012858D01*
X206146190Y173108096D01*
X206146190Y173203334D01*
X206098571Y173298572D01*
X206050952Y173346191D01*
X205955714Y173393810D01*
X205765238Y173441429D01*
X205670000Y173489048D01*
X205622381Y173536667D01*
X205574762Y173631905D01*
X205574762Y173727143D01*
X205622381Y173822381D01*
X205670000Y173870000D01*
X205765238Y173917620D01*
X206003333Y173917620D01*
X206146190Y173870000D01*
X206574762Y172917620D02*
X206574762Y173917620D01*
X206812857Y173917620D01*
X206955714Y173870000D01*
X207050952Y173774762D01*
X207098571Y173679524D01*
X207146190Y173489048D01*
X207146190Y173346191D01*
X207098571Y173155715D01*
X207050952Y173060477D01*
X206955714Y172965239D01*
X206812857Y172917620D01*
X206574762Y172917620D01*
X207527143Y173203334D02*
X208003333Y173203334D01*
X207431905Y172917620D02*
X207765238Y173917620D01*
X208098571Y172917620D01*
X66661033Y139714286D02*
X66622938Y139600000D01*
X66622938Y139409524D01*
X66661033Y139333333D01*
X66699128Y139295238D01*
X66775319Y139257143D01*
X66851509Y139257143D01*
X66927700Y139295238D01*
X66965795Y139333333D01*
X67003890Y139409524D01*
X67041985Y139561905D01*
X67080081Y139638095D01*
X67118176Y139676190D01*
X67194366Y139714286D01*
X67270557Y139714286D01*
X67346747Y139676190D01*
X67384843Y139638095D01*
X67422938Y139561905D01*
X67422938Y139371429D01*
X67384843Y139257143D01*
X67003890Y138761905D02*
X66622938Y138761905D01*
X67422938Y139028571D02*
X67003890Y138761905D01*
X67422938Y138495238D01*
X66622938Y138228571D02*
X67422938Y138228571D01*
X66622938Y137771429D01*
X67422938Y137771429D01*
X66699128Y136933333D02*
X66661033Y136971429D01*
X66622938Y137085714D01*
X66622938Y137161905D01*
X66661033Y137276190D01*
X66737223Y137352381D01*
X66813414Y137390476D01*
X66965795Y137428571D01*
X67080081Y137428571D01*
X67232462Y137390476D01*
X67308652Y137352381D01*
X67384843Y137276190D01*
X67422938Y137161905D01*
X67422938Y137085714D01*
X67384843Y136971429D01*
X67346747Y136933333D01*
D12*
X199662896Y195454762D02*
X200805753Y195454762D01*
X200234324Y195454762D02*
X200234324Y193454762D01*
X200424800Y193740477D01*
X200615277Y193930953D01*
X200805753Y194026191D01*
X198900991Y193645239D02*
X198805753Y193550000D01*
X198615277Y193454762D01*
X198139086Y193454762D01*
X197948610Y193550000D01*
X197853372Y193645239D01*
X197758134Y193835715D01*
X197758134Y194026191D01*
X197853372Y194311905D01*
X198996229Y195454762D01*
X197758134Y195454762D01*
X197186705Y193454762D02*
X196520038Y195454762D01*
X195853372Y193454762D01*
X193662896Y195454762D02*
X193662896Y193454762D01*
X192900991Y193454762D01*
X192710515Y193550000D01*
X192615277Y193645239D01*
X192520038Y193835715D01*
X192520038Y194121429D01*
X192615277Y194311905D01*
X192710515Y194407143D01*
X192900991Y194502381D01*
X193662896Y194502381D01*
X191281943Y193454762D02*
X190900991Y193454762D01*
X190710515Y193550000D01*
X190520038Y193740477D01*
X190424800Y194121429D01*
X190424800Y194788096D01*
X190520038Y195169048D01*
X190710515Y195359524D01*
X190900991Y195454762D01*
X191281943Y195454762D01*
X191472419Y195359524D01*
X191662896Y195169048D01*
X191758134Y194788096D01*
X191758134Y194121429D01*
X191662896Y193740477D01*
X191472419Y193550000D01*
X191281943Y193454762D01*
X189758134Y193454762D02*
X189281943Y195454762D01*
X188900991Y194026191D01*
X188520038Y195454762D01*
X188043848Y193454762D01*
X187281943Y194407143D02*
X186615277Y194407143D01*
X186329562Y195454762D02*
X187281943Y195454762D01*
X187281943Y193454762D01*
X186329562Y193454762D01*
X184329562Y195454762D02*
X184996229Y194502381D01*
X185472419Y195454762D02*
X185472419Y193454762D01*
X184710515Y193454762D01*
X184520038Y193550000D01*
X184424800Y193645239D01*
X184329562Y193835715D01*
X184329562Y194121429D01*
X184424800Y194311905D01*
X184520038Y194407143D01*
X184710515Y194502381D01*
X185472419Y194502381D01*
D10*
X196456747Y72549048D02*
X196456747Y72091906D01*
X196456747Y72320477D02*
X195656747Y72320477D01*
X195771033Y72244286D01*
X195847223Y72168096D01*
X195885319Y72091906D01*
X195732938Y72853810D02*
X195694843Y72891906D01*
X195656747Y72968096D01*
X195656747Y73158572D01*
X195694843Y73234763D01*
X195732938Y73272858D01*
X195809128Y73310953D01*
X195885319Y73310953D01*
X195999604Y73272858D01*
X196456747Y72815715D01*
X196456747Y73310953D01*
X195656747Y73539525D02*
X196456747Y73806191D01*
X195656747Y74072858D01*
X61522938Y138380953D02*
X61522938Y138838095D01*
X61522938Y138609524D02*
X62322938Y138609524D01*
X62208652Y138685714D01*
X62132462Y138761905D01*
X62094366Y138838095D01*
X62246747Y138076191D02*
X62284843Y138038095D01*
X62322938Y137961905D01*
X62322938Y137771429D01*
X62284843Y137695238D01*
X62246747Y137657143D01*
X62170557Y137619048D01*
X62094366Y137619048D01*
X61980081Y137657143D01*
X61522938Y138114286D01*
X61522938Y137619048D01*
X62322938Y137390476D02*
X61522938Y137123810D01*
X62322938Y136857143D01*
X64022938Y60569048D02*
X64822938Y60569048D01*
X64022938Y60188096D02*
X64822938Y60188096D01*
X64022938Y59730953D01*
X64822938Y59730953D01*
X64822938Y59464286D02*
X64822938Y59007143D01*
X64022938Y59235715D02*
X64822938Y59235715D01*
X66611033Y61864286D02*
X66572938Y61750000D01*
X66572938Y61559524D01*
X66611033Y61483333D01*
X66649128Y61445238D01*
X66725319Y61407143D01*
X66801509Y61407143D01*
X66877700Y61445238D01*
X66915795Y61483333D01*
X66953890Y61559524D01*
X66991985Y61711905D01*
X67030081Y61788095D01*
X67068176Y61826190D01*
X67144366Y61864286D01*
X67220557Y61864286D01*
X67296747Y61826190D01*
X67334843Y61788095D01*
X67372938Y61711905D01*
X67372938Y61521429D01*
X67334843Y61407143D01*
X66953890Y60911905D02*
X66572938Y60911905D01*
X67372938Y61178571D02*
X66953890Y60911905D01*
X67372938Y60645238D01*
X66572938Y60378571D02*
X67372938Y60378571D01*
X66572938Y59921429D01*
X67372938Y59921429D01*
X66649128Y59083333D02*
X66611033Y59121429D01*
X66572938Y59235714D01*
X66572938Y59311905D01*
X66611033Y59426190D01*
X66687223Y59502381D01*
X66763414Y59540476D01*
X66915795Y59578571D01*
X67030081Y59578571D01*
X67182462Y59540476D01*
X67258652Y59502381D01*
X67334843Y59426190D01*
X67372938Y59311905D01*
X67372938Y59235714D01*
X67334843Y59121429D01*
X67296747Y59083333D01*
X74211033Y61026191D02*
X74172938Y60911905D01*
X74172938Y60721429D01*
X74211033Y60645239D01*
X74249128Y60607143D01*
X74325319Y60569048D01*
X74401509Y60569048D01*
X74477700Y60607143D01*
X74515795Y60645239D01*
X74553890Y60721429D01*
X74591985Y60873810D01*
X74630081Y60950001D01*
X74668176Y60988096D01*
X74744366Y61026191D01*
X74820557Y61026191D01*
X74896747Y60988096D01*
X74934843Y60950001D01*
X74972938Y60873810D01*
X74972938Y60683334D01*
X74934843Y60569048D01*
X74172938Y60226191D02*
X74972938Y60226191D01*
X74972938Y60035715D01*
X74934843Y59921429D01*
X74858652Y59845239D01*
X74782462Y59807143D01*
X74630081Y59769048D01*
X74515795Y59769048D01*
X74363414Y59807143D01*
X74287223Y59845239D01*
X74211033Y59921429D01*
X74172938Y60035715D01*
X74172938Y60226191D01*
X74401509Y59464286D02*
X74401509Y59083334D01*
X74172938Y59540477D02*
X74972938Y59273810D01*
X74172938Y59007143D01*
X11920557Y151200000D02*
X11777700Y150771429D01*
X11777700Y150057143D01*
X11920557Y149771429D01*
X12063414Y149628572D01*
X12349128Y149485715D01*
X12634843Y149485715D01*
X12920557Y149628572D01*
X13063414Y149771429D01*
X13206271Y150057143D01*
X13349128Y150628572D01*
X13491985Y150914286D01*
X13634843Y151057143D01*
X13920557Y151200000D01*
X14206271Y151200000D01*
X14491985Y151057143D01*
X14634843Y150914286D01*
X14777700Y150628572D01*
X14777700Y149914286D01*
X14634843Y149485715D01*
X11777700Y147771429D02*
X11920557Y148057143D01*
X12206271Y148200000D01*
X14777700Y148200000D01*
X11777700Y146628572D02*
X13777700Y146628572D01*
X14777700Y146628572D02*
X14634843Y146771429D01*
X14491985Y146628572D01*
X14634843Y146485715D01*
X14777700Y146628572D01*
X14491985Y146628572D01*
X11920557Y143914286D02*
X11777700Y144200000D01*
X11777700Y144771429D01*
X11920557Y145057143D01*
X12063414Y145200000D01*
X12349128Y145342858D01*
X13206271Y145342858D01*
X13491985Y145200000D01*
X13634843Y145057143D01*
X13777700Y144771429D01*
X13777700Y144200000D01*
X13634843Y143914286D01*
X11920557Y141485715D02*
X11777700Y141771429D01*
X11777700Y142342858D01*
X11920557Y142628572D01*
X12206271Y142771429D01*
X13349128Y142771429D01*
X13634843Y142628572D01*
X13777700Y142342858D01*
X13777700Y141771429D01*
X13634843Y141485715D01*
X13349128Y141342858D01*
X13063414Y141342858D01*
X12777700Y142771429D01*
X11777700Y136200000D02*
X11777700Y137914286D01*
X11777700Y137057143D02*
X14777700Y137057143D01*
X14349128Y137342858D01*
X14063414Y137628572D01*
X13920557Y137914286D01*
X72384843Y99709524D02*
X72422938Y99785715D01*
X72422938Y99900000D01*
X72384843Y100014286D01*
X72308652Y100090477D01*
X72232462Y100128572D01*
X72080081Y100166667D01*
X71965795Y100166667D01*
X71813414Y100128572D01*
X71737223Y100090477D01*
X71661033Y100014286D01*
X71622938Y99900000D01*
X71622938Y99823810D01*
X71661033Y99709524D01*
X71699128Y99671429D01*
X71965795Y99671429D01*
X71965795Y99823810D01*
X71622938Y99328572D02*
X72422938Y99328572D01*
X71622938Y98871429D01*
X72422938Y98871429D01*
X71622938Y98490477D02*
X72422938Y98490477D01*
X72422938Y98300000D01*
X72384843Y98185715D01*
X72308652Y98109524D01*
X72232462Y98071429D01*
X72080081Y98033334D01*
X71965795Y98033334D01*
X71813414Y98071429D01*
X71737223Y98109524D01*
X71661033Y98185715D01*
X71622938Y98300000D01*
X71622938Y98490477D01*
X69541985Y101423810D02*
X69541985Y101157143D01*
X69122938Y101042858D02*
X69122938Y101423810D01*
X69922938Y101423810D01*
X69922938Y101042858D01*
X69161033Y100738096D02*
X69122938Y100623810D01*
X69122938Y100433334D01*
X69161033Y100357143D01*
X69199128Y100319048D01*
X69275319Y100280953D01*
X69351509Y100280953D01*
X69427700Y100319048D01*
X69465795Y100357143D01*
X69503890Y100433334D01*
X69541985Y100585715D01*
X69580081Y100661905D01*
X69618176Y100700000D01*
X69694366Y100738096D01*
X69770557Y100738096D01*
X69846747Y100700000D01*
X69884843Y100661905D01*
X69922938Y100585715D01*
X69922938Y100395239D01*
X69884843Y100280953D01*
X69922938Y100052381D02*
X69922938Y99595239D01*
X69122938Y99823810D02*
X69922938Y99823810D01*
X69922938Y99176191D02*
X69922938Y99023810D01*
X69884843Y98947619D01*
X69808652Y98871429D01*
X69656271Y98833334D01*
X69389604Y98833334D01*
X69237223Y98871429D01*
X69161033Y98947619D01*
X69122938Y99023810D01*
X69122938Y99176191D01*
X69161033Y99252381D01*
X69237223Y99328572D01*
X69389604Y99366667D01*
X69656271Y99366667D01*
X69808652Y99328572D01*
X69884843Y99252381D01*
X69922938Y99176191D01*
X69122938Y98490477D02*
X69922938Y98490477D01*
X69922938Y98185715D01*
X69884843Y98109524D01*
X69846747Y98071429D01*
X69770557Y98033334D01*
X69656271Y98033334D01*
X69580081Y98071429D01*
X69541985Y98109524D01*
X69503890Y98185715D01*
X69503890Y98490477D01*
X214256747Y33899048D02*
X214256747Y33441906D01*
X214256747Y33670477D02*
X213456747Y33670477D01*
X213571033Y33594286D01*
X213647223Y33518096D01*
X213685319Y33441906D01*
X213532938Y34203810D02*
X213494843Y34241906D01*
X213456747Y34318096D01*
X213456747Y34508572D01*
X213494843Y34584763D01*
X213532938Y34622858D01*
X213609128Y34660953D01*
X213685319Y34660953D01*
X213799604Y34622858D01*
X214256747Y34165715D01*
X214256747Y34660953D01*
X213456747Y34889525D02*
X214256747Y35156191D01*
X213456747Y35422858D01*
X74211033Y21926191D02*
X74172938Y21811905D01*
X74172938Y21621429D01*
X74211033Y21545239D01*
X74249128Y21507143D01*
X74325319Y21469048D01*
X74401509Y21469048D01*
X74477700Y21507143D01*
X74515795Y21545239D01*
X74553890Y21621429D01*
X74591985Y21773810D01*
X74630081Y21850001D01*
X74668176Y21888096D01*
X74744366Y21926191D01*
X74820557Y21926191D01*
X74896747Y21888096D01*
X74934843Y21850001D01*
X74972938Y21773810D01*
X74972938Y21583334D01*
X74934843Y21469048D01*
X74172938Y21126191D02*
X74972938Y21126191D01*
X74972938Y20935715D01*
X74934843Y20821429D01*
X74858652Y20745239D01*
X74782462Y20707143D01*
X74630081Y20669048D01*
X74515795Y20669048D01*
X74363414Y20707143D01*
X74287223Y20745239D01*
X74211033Y20821429D01*
X74172938Y20935715D01*
X74172938Y21126191D01*
X74401509Y20364286D02*
X74401509Y19983334D01*
X74172938Y20440477D02*
X74972938Y20173810D01*
X74172938Y19907143D01*
X209118652Y149665715D02*
X209156747Y149780001D01*
X209156747Y149970477D01*
X209118652Y150046668D01*
X209080557Y150084763D01*
X209004366Y150122858D01*
X208928176Y150122858D01*
X208851985Y150084763D01*
X208813890Y150046668D01*
X208775795Y149970477D01*
X208737700Y149818096D01*
X208699604Y149741906D01*
X208661509Y149703811D01*
X208585319Y149665715D01*
X208509128Y149665715D01*
X208432938Y149703811D01*
X208394843Y149741906D01*
X208356747Y149818096D01*
X208356747Y150008572D01*
X208394843Y150122858D01*
X208775795Y150618096D02*
X209156747Y150618096D01*
X208356747Y150351430D02*
X208775795Y150618096D01*
X208356747Y150884763D01*
X209156747Y151151430D02*
X208356747Y151151430D01*
X209156747Y151608572D01*
X208356747Y151608572D01*
X209080557Y152446668D02*
X209118652Y152408572D01*
X209156747Y152294287D01*
X209156747Y152218096D01*
X209118652Y152103811D01*
X209042462Y152027620D01*
X208966271Y151989525D01*
X208813890Y151951430D01*
X208699604Y151951430D01*
X208547223Y151989525D01*
X208471033Y152027620D01*
X208394843Y152103811D01*
X208356747Y152218096D01*
X208356747Y152294287D01*
X208394843Y152408572D01*
X208432938Y152446668D01*
X263714285Y20700000D02*
X263857142Y21128572D01*
X263857142Y21842858D01*
X263714285Y22128572D01*
X263571428Y22271429D01*
X263285714Y22414286D01*
X263000000Y22414286D01*
X262714285Y22271429D01*
X262571428Y22128572D01*
X262428571Y21842858D01*
X262285714Y21271429D01*
X262142857Y20985715D01*
X262000000Y20842858D01*
X261714285Y20700000D01*
X261428571Y20700000D01*
X261142857Y20842858D01*
X261000000Y20985715D01*
X260857142Y21271429D01*
X260857142Y21985715D01*
X261000000Y22414286D01*
X263857142Y24128572D02*
X263714285Y23842858D01*
X263428571Y23700000D01*
X260857142Y23700000D01*
X263857142Y25271429D02*
X261857142Y25271429D01*
X260857142Y25271429D02*
X261000000Y25128572D01*
X261142857Y25271429D01*
X261000000Y25414286D01*
X260857142Y25271429D01*
X261142857Y25271429D01*
X263714285Y27985715D02*
X263857142Y27700000D01*
X263857142Y27128572D01*
X263714285Y26842858D01*
X263571428Y26700000D01*
X263285714Y26557143D01*
X262428571Y26557143D01*
X262142857Y26700000D01*
X262000000Y26842858D01*
X261857142Y27128572D01*
X261857142Y27700000D01*
X262000000Y27985715D01*
X263714285Y30414286D02*
X263857142Y30128572D01*
X263857142Y29557143D01*
X263714285Y29271429D01*
X263428571Y29128572D01*
X262285714Y29128572D01*
X262000000Y29271429D01*
X261857142Y29557143D01*
X261857142Y30128572D01*
X262000000Y30414286D01*
X262285714Y30557143D01*
X262571428Y30557143D01*
X262857142Y29128572D01*
X260857142Y35557143D02*
X260857142Y34128572D01*
X262285714Y33985715D01*
X262142857Y34128572D01*
X262000000Y34414286D01*
X262000000Y35128572D01*
X262142857Y35414286D01*
X262285714Y35557143D01*
X262571428Y35700000D01*
X263285714Y35700000D01*
X263571428Y35557143D01*
X263714285Y35414286D01*
X263857142Y35128572D01*
X263857142Y34414286D01*
X263714285Y34128572D01*
X263571428Y33985715D01*
X198968652Y33441906D02*
X199006747Y33556191D01*
X199006747Y33746667D01*
X198968652Y33822858D01*
X198930557Y33860953D01*
X198854366Y33899048D01*
X198778176Y33899048D01*
X198701985Y33860953D01*
X198663890Y33822858D01*
X198625795Y33746667D01*
X198587700Y33594286D01*
X198549604Y33518096D01*
X198511509Y33480001D01*
X198435319Y33441906D01*
X198359128Y33441906D01*
X198282938Y33480001D01*
X198244843Y33518096D01*
X198206747Y33594286D01*
X198206747Y33784763D01*
X198244843Y33899048D01*
X198930557Y34699048D02*
X198968652Y34660953D01*
X199006747Y34546667D01*
X199006747Y34470477D01*
X198968652Y34356191D01*
X198892462Y34280001D01*
X198816271Y34241906D01*
X198663890Y34203810D01*
X198549604Y34203810D01*
X198397223Y34241906D01*
X198321033Y34280001D01*
X198244843Y34356191D01*
X198206747Y34470477D01*
X198206747Y34546667D01*
X198244843Y34660953D01*
X198282938Y34699048D01*
X199006747Y35422858D02*
X199006747Y35041906D01*
X198206747Y35041906D01*
X209118652Y32565715D02*
X209156747Y32680001D01*
X209156747Y32870477D01*
X209118652Y32946668D01*
X209080557Y32984763D01*
X209004366Y33022858D01*
X208928176Y33022858D01*
X208851985Y32984763D01*
X208813890Y32946668D01*
X208775795Y32870477D01*
X208737700Y32718096D01*
X208699604Y32641906D01*
X208661509Y32603811D01*
X208585319Y32565715D01*
X208509128Y32565715D01*
X208432938Y32603811D01*
X208394843Y32641906D01*
X208356747Y32718096D01*
X208356747Y32908572D01*
X208394843Y33022858D01*
X208775795Y33518096D02*
X209156747Y33518096D01*
X208356747Y33251430D02*
X208775795Y33518096D01*
X208356747Y33784763D01*
X209156747Y34051430D02*
X208356747Y34051430D01*
X209156747Y34508572D01*
X208356747Y34508572D01*
X209080557Y35346668D02*
X209118652Y35308572D01*
X209156747Y35194287D01*
X209156747Y35118096D01*
X209118652Y35003811D01*
X209042462Y34927620D01*
X208966271Y34889525D01*
X208813890Y34851430D01*
X208699604Y34851430D01*
X208547223Y34889525D01*
X208471033Y34927620D01*
X208394843Y35003811D01*
X208356747Y35118096D01*
X208356747Y35194287D01*
X208394843Y35308572D01*
X208432938Y35346668D01*
X196456747Y33899048D02*
X196456747Y33441906D01*
X196456747Y33670477D02*
X195656747Y33670477D01*
X195771033Y33594286D01*
X195847223Y33518096D01*
X195885319Y33441906D01*
X195732938Y34203810D02*
X195694843Y34241906D01*
X195656747Y34318096D01*
X195656747Y34508572D01*
X195694843Y34584763D01*
X195732938Y34622858D01*
X195809128Y34660953D01*
X195885319Y34660953D01*
X195999604Y34622858D01*
X196456747Y34165715D01*
X196456747Y34660953D01*
X195656747Y34889525D02*
X196456747Y35156191D01*
X195656747Y35422858D01*
X82584843Y99709524D02*
X82622938Y99785715D01*
X82622938Y99900000D01*
X82584843Y100014286D01*
X82508652Y100090477D01*
X82432462Y100128572D01*
X82280081Y100166667D01*
X82165795Y100166667D01*
X82013414Y100128572D01*
X81937223Y100090477D01*
X81861033Y100014286D01*
X81822938Y99900000D01*
X81822938Y99823810D01*
X81861033Y99709524D01*
X81899128Y99671429D01*
X82165795Y99671429D01*
X82165795Y99823810D01*
X81822938Y99328572D02*
X82622938Y99328572D01*
X81822938Y98871429D01*
X82622938Y98871429D01*
X81822938Y98490477D02*
X82622938Y98490477D01*
X82622938Y98300000D01*
X82584843Y98185715D01*
X82508652Y98109524D01*
X82432462Y98071429D01*
X82280081Y98033334D01*
X82165795Y98033334D01*
X82013414Y98071429D01*
X81937223Y98109524D01*
X81861033Y98185715D01*
X81822938Y98300000D01*
X81822938Y98490477D01*
X61472938Y60530953D02*
X61472938Y60988095D01*
X61472938Y60759524D02*
X62272938Y60759524D01*
X62158652Y60835714D01*
X62082462Y60911905D01*
X62044366Y60988095D01*
X62196747Y60226191D02*
X62234843Y60188095D01*
X62272938Y60111905D01*
X62272938Y59921429D01*
X62234843Y59845238D01*
X62196747Y59807143D01*
X62120557Y59769048D01*
X62044366Y59769048D01*
X61930081Y59807143D01*
X61472938Y60264286D01*
X61472938Y59769048D01*
X62272938Y59540476D02*
X61472938Y59273810D01*
X62272938Y59007143D01*
X203344843Y33670477D02*
X203306747Y33594286D01*
X203306747Y33480000D01*
X203344843Y33365715D01*
X203421033Y33289524D01*
X203497223Y33251429D01*
X203649604Y33213334D01*
X203763890Y33213334D01*
X203916271Y33251429D01*
X203992462Y33289524D01*
X204068652Y33365715D01*
X204106747Y33480000D01*
X204106747Y33556191D01*
X204068652Y33670477D01*
X204030557Y33708572D01*
X203763890Y33708572D01*
X203763890Y33556191D01*
X204106747Y34051429D02*
X203306747Y34051429D01*
X204106747Y34508572D01*
X203306747Y34508572D01*
X204106747Y34889524D02*
X203306747Y34889524D01*
X203306747Y35080000D01*
X203344843Y35194286D01*
X203421033Y35270477D01*
X203497223Y35308572D01*
X203649604Y35346667D01*
X203763890Y35346667D01*
X203916271Y35308572D01*
X203992462Y35270477D01*
X204068652Y35194286D01*
X204106747Y35080000D01*
X204106747Y34889524D01*
X203344843Y112720477D02*
X203306747Y112644286D01*
X203306747Y112530000D01*
X203344843Y112415715D01*
X203421033Y112339524D01*
X203497223Y112301429D01*
X203649604Y112263334D01*
X203763890Y112263334D01*
X203916271Y112301429D01*
X203992462Y112339524D01*
X204068652Y112415715D01*
X204106747Y112530000D01*
X204106747Y112606191D01*
X204068652Y112720477D01*
X204030557Y112758572D01*
X203763890Y112758572D01*
X203763890Y112606191D01*
X204106747Y113101429D02*
X203306747Y113101429D01*
X204106747Y113558572D01*
X203306747Y113558572D01*
X204106747Y113939524D02*
X203306747Y113939524D01*
X203306747Y114130000D01*
X203344843Y114244286D01*
X203421033Y114320477D01*
X203497223Y114358572D01*
X203649604Y114396667D01*
X203763890Y114396667D01*
X203916271Y114358572D01*
X203992462Y114320477D01*
X204068652Y114244286D01*
X204106747Y114130000D01*
X204106747Y113939524D01*
X211706747Y150960953D02*
X210906747Y150960953D01*
X211706747Y151341905D02*
X210906747Y151341905D01*
X211706747Y151799048D01*
X210906747Y151799048D01*
X210906747Y152065715D02*
X210906747Y152522858D01*
X211706747Y152294286D02*
X210906747Y152294286D01*
X198968652Y72091906D02*
X199006747Y72206191D01*
X199006747Y72396667D01*
X198968652Y72472858D01*
X198930557Y72510953D01*
X198854366Y72549048D01*
X198778176Y72549048D01*
X198701985Y72510953D01*
X198663890Y72472858D01*
X198625795Y72396667D01*
X198587700Y72244286D01*
X198549604Y72168096D01*
X198511509Y72130001D01*
X198435319Y72091906D01*
X198359128Y72091906D01*
X198282938Y72130001D01*
X198244843Y72168096D01*
X198206747Y72244286D01*
X198206747Y72434763D01*
X198244843Y72549048D01*
X198930557Y73349048D02*
X198968652Y73310953D01*
X199006747Y73196667D01*
X199006747Y73120477D01*
X198968652Y73006191D01*
X198892462Y72930001D01*
X198816271Y72891906D01*
X198663890Y72853810D01*
X198549604Y72853810D01*
X198397223Y72891906D01*
X198321033Y72930001D01*
X198244843Y73006191D01*
X198206747Y73120477D01*
X198206747Y73196667D01*
X198244843Y73310953D01*
X198282938Y73349048D01*
X199006747Y74072858D02*
X199006747Y73691906D01*
X198206747Y73691906D01*
X76761033Y21888095D02*
X76722938Y21773810D01*
X76722938Y21583334D01*
X76761033Y21507143D01*
X76799128Y21469048D01*
X76875319Y21430953D01*
X76951509Y21430953D01*
X77027700Y21469048D01*
X77065795Y21507143D01*
X77103890Y21583334D01*
X77141985Y21735714D01*
X77180081Y21811905D01*
X77218176Y21850000D01*
X77294366Y21888095D01*
X77370557Y21888095D01*
X77446747Y21850000D01*
X77484843Y21811905D01*
X77522938Y21735714D01*
X77522938Y21545238D01*
X77484843Y21430953D01*
X76799128Y20630953D02*
X76761033Y20669048D01*
X76722938Y20783334D01*
X76722938Y20859524D01*
X76761033Y20973810D01*
X76837223Y21050000D01*
X76913414Y21088095D01*
X77065795Y21126191D01*
X77180081Y21126191D01*
X77332462Y21088095D01*
X77408652Y21050000D01*
X77484843Y20973810D01*
X77522938Y20859524D01*
X77522938Y20783334D01*
X77484843Y20669048D01*
X77446747Y20630953D01*
X76722938Y19907143D02*
X76722938Y20288095D01*
X77522938Y20288095D01*
X193144843Y33670477D02*
X193106747Y33594286D01*
X193106747Y33480000D01*
X193144843Y33365715D01*
X193221033Y33289524D01*
X193297223Y33251429D01*
X193449604Y33213334D01*
X193563890Y33213334D01*
X193716271Y33251429D01*
X193792462Y33289524D01*
X193868652Y33365715D01*
X193906747Y33480000D01*
X193906747Y33556191D01*
X193868652Y33670477D01*
X193830557Y33708572D01*
X193563890Y33708572D01*
X193563890Y33556191D01*
X193906747Y34051429D02*
X193106747Y34051429D01*
X193906747Y34508572D01*
X193106747Y34508572D01*
X193906747Y34889524D02*
X193106747Y34889524D01*
X193106747Y35080000D01*
X193144843Y35194286D01*
X193221033Y35270477D01*
X193297223Y35308572D01*
X193449604Y35346667D01*
X193563890Y35346667D01*
X193716271Y35308572D01*
X193792462Y35270477D01*
X193868652Y35194286D01*
X193906747Y35080000D01*
X193906747Y34889524D01*
X66611033Y22764286D02*
X66572938Y22650000D01*
X66572938Y22459524D01*
X66611033Y22383333D01*
X66649128Y22345238D01*
X66725319Y22307143D01*
X66801509Y22307143D01*
X66877700Y22345238D01*
X66915795Y22383333D01*
X66953890Y22459524D01*
X66991985Y22611905D01*
X67030081Y22688095D01*
X67068176Y22726190D01*
X67144366Y22764286D01*
X67220557Y22764286D01*
X67296747Y22726190D01*
X67334843Y22688095D01*
X67372938Y22611905D01*
X67372938Y22421429D01*
X67334843Y22307143D01*
X66953890Y21811905D02*
X66572938Y21811905D01*
X67372938Y22078571D02*
X66953890Y21811905D01*
X67372938Y21545238D01*
X66572938Y21278571D02*
X67372938Y21278571D01*
X66572938Y20821429D01*
X67372938Y20821429D01*
X66649128Y19983333D02*
X66611033Y20021429D01*
X66572938Y20135714D01*
X66572938Y20211905D01*
X66611033Y20326190D01*
X66687223Y20402381D01*
X66763414Y20440476D01*
X66915795Y20478571D01*
X67030081Y20478571D01*
X67182462Y20440476D01*
X67258652Y20402381D01*
X67334843Y20326190D01*
X67372938Y20211905D01*
X67372938Y20135714D01*
X67334843Y20021429D01*
X67296747Y19983333D01*
X209118652Y71215715D02*
X209156747Y71330001D01*
X209156747Y71520477D01*
X209118652Y71596668D01*
X209080557Y71634763D01*
X209004366Y71672858D01*
X208928176Y71672858D01*
X208851985Y71634763D01*
X208813890Y71596668D01*
X208775795Y71520477D01*
X208737700Y71368096D01*
X208699604Y71291906D01*
X208661509Y71253811D01*
X208585319Y71215715D01*
X208509128Y71215715D01*
X208432938Y71253811D01*
X208394843Y71291906D01*
X208356747Y71368096D01*
X208356747Y71558572D01*
X208394843Y71672858D01*
X208775795Y72168096D02*
X209156747Y72168096D01*
X208356747Y71901430D02*
X208775795Y72168096D01*
X208356747Y72434763D01*
X209156747Y72701430D02*
X208356747Y72701430D01*
X209156747Y73158572D01*
X208356747Y73158572D01*
X209080557Y73996668D02*
X209118652Y73958572D01*
X209156747Y73844287D01*
X209156747Y73768096D01*
X209118652Y73653811D01*
X209042462Y73577620D01*
X208966271Y73539525D01*
X208813890Y73501430D01*
X208699604Y73501430D01*
X208547223Y73539525D01*
X208471033Y73577620D01*
X208394843Y73653811D01*
X208356747Y73768096D01*
X208356747Y73844287D01*
X208394843Y73958572D01*
X208432938Y73996668D01*
X215994843Y33670477D02*
X215956747Y33594286D01*
X215956747Y33480000D01*
X215994843Y33365715D01*
X216071033Y33289524D01*
X216147223Y33251429D01*
X216299604Y33213334D01*
X216413890Y33213334D01*
X216566271Y33251429D01*
X216642462Y33289524D01*
X216718652Y33365715D01*
X216756747Y33480000D01*
X216756747Y33556191D01*
X216718652Y33670477D01*
X216680557Y33708572D01*
X216413890Y33708572D01*
X216413890Y33556191D01*
X216756747Y34051429D02*
X215956747Y34051429D01*
X216756747Y34508572D01*
X215956747Y34508572D01*
X216756747Y34889524D02*
X215956747Y34889524D01*
X215956747Y35080000D01*
X215994843Y35194286D01*
X216071033Y35270477D01*
X216147223Y35308572D01*
X216299604Y35346667D01*
X216413890Y35346667D01*
X216566271Y35308572D01*
X216642462Y35270477D01*
X216718652Y35194286D01*
X216756747Y35080000D01*
X216756747Y34889524D01*
X203344843Y72320477D02*
X203306747Y72244286D01*
X203306747Y72130000D01*
X203344843Y72015715D01*
X203421033Y71939524D01*
X203497223Y71901429D01*
X203649604Y71863334D01*
X203763890Y71863334D01*
X203916271Y71901429D01*
X203992462Y71939524D01*
X204068652Y72015715D01*
X204106747Y72130000D01*
X204106747Y72206191D01*
X204068652Y72320477D01*
X204030557Y72358572D01*
X203763890Y72358572D01*
X203763890Y72206191D01*
X204106747Y72701429D02*
X203306747Y72701429D01*
X204106747Y73158572D01*
X203306747Y73158572D01*
X204106747Y73539524D02*
X203306747Y73539524D01*
X203306747Y73730000D01*
X203344843Y73844286D01*
X203421033Y73920477D01*
X203497223Y73958572D01*
X203649604Y73996667D01*
X203763890Y73996667D01*
X203916271Y73958572D01*
X203992462Y73920477D01*
X204068652Y73844286D01*
X204106747Y73730000D01*
X204106747Y73539524D01*
X255357142Y177233334D02*
X254404761Y177233334D01*
X255547619Y177804762D02*
X254880952Y175804762D01*
X254214285Y177804762D01*
X252404761Y177804762D02*
X253071428Y176852381D01*
X253547619Y177804762D02*
X253547619Y175804762D01*
X252785714Y175804762D01*
X252595238Y175900000D01*
X252500000Y175995239D01*
X252404761Y176185715D01*
X252404761Y176471429D01*
X252500000Y176661905D01*
X252595238Y176757143D01*
X252785714Y176852381D01*
X253547619Y176852381D01*
X251547619Y177804762D02*
X251547619Y175804762D01*
X251071428Y175804762D01*
X250785714Y175900000D01*
X250595238Y176090477D01*
X250500000Y176280953D01*
X250404761Y176661905D01*
X250404761Y176947620D01*
X250500000Y177328572D01*
X250595238Y177519048D01*
X250785714Y177709524D01*
X251071428Y177804762D01*
X251547619Y177804762D01*
X249547619Y175804762D02*
X249547619Y177423810D01*
X249452380Y177614286D01*
X249357142Y177709524D01*
X249166666Y177804762D01*
X248785714Y177804762D01*
X248595238Y177709524D01*
X248500000Y177614286D01*
X248404761Y177423810D01*
X248404761Y175804762D01*
X247452380Y177804762D02*
X247452380Y175804762D01*
X246500000Y177804762D02*
X246500000Y175804762D01*
X245357142Y177804762D01*
X245357142Y175804762D01*
X244023809Y175804762D02*
X243642857Y175804762D01*
X243452380Y175900000D01*
X243261904Y176090477D01*
X243166666Y176471429D01*
X243166666Y177138096D01*
X243261904Y177519048D01*
X243452380Y177709524D01*
X243642857Y177804762D01*
X244023809Y177804762D01*
X244214285Y177709524D01*
X244404761Y177519048D01*
X244500000Y177138096D01*
X244500000Y176471429D01*
X244404761Y176090477D01*
X244214285Y175900000D01*
X244023809Y175804762D01*
X240785714Y177804762D02*
X240785714Y175804762D01*
X239642857Y177804762D01*
X239642857Y175804762D01*
X238785714Y177233334D02*
X237833333Y177233334D01*
X238976190Y177804762D02*
X238309523Y175804762D01*
X237642857Y177804762D01*
X236976190Y177804762D02*
X236976190Y175804762D01*
X235833333Y177804762D01*
X235833333Y175804762D01*
X234500000Y175804762D02*
X234119047Y175804762D01*
X233928571Y175900000D01*
X233738095Y176090477D01*
X233642857Y176471429D01*
X233642857Y177138096D01*
X233738095Y177519048D01*
X233928571Y177709524D01*
X234119047Y177804762D01*
X234500000Y177804762D01*
X234690476Y177709524D01*
X234880952Y177519048D01*
X234976190Y177138096D01*
X234976190Y176471429D01*
X234880952Y176090477D01*
X234690476Y175900000D01*
X234500000Y175804762D01*
X206187700Y31956191D02*
X206187700Y32222858D01*
X206606747Y32337143D02*
X206606747Y31956191D01*
X205806747Y31956191D01*
X205806747Y32337143D01*
X206568652Y32641905D02*
X206606747Y32756191D01*
X206606747Y32946667D01*
X206568652Y33022858D01*
X206530557Y33060953D01*
X206454366Y33099048D01*
X206378176Y33099048D01*
X206301985Y33060953D01*
X206263890Y33022858D01*
X206225795Y32946667D01*
X206187700Y32794286D01*
X206149604Y32718096D01*
X206111509Y32680001D01*
X206035319Y32641905D01*
X205959128Y32641905D01*
X205882938Y32680001D01*
X205844843Y32718096D01*
X205806747Y32794286D01*
X205806747Y32984762D01*
X205844843Y33099048D01*
X205806747Y33327620D02*
X205806747Y33784762D01*
X206606747Y33556191D02*
X205806747Y33556191D01*
X205806747Y34203810D02*
X205806747Y34356191D01*
X205844843Y34432381D01*
X205921033Y34508572D01*
X206073414Y34546667D01*
X206340081Y34546667D01*
X206492462Y34508572D01*
X206568652Y34432381D01*
X206606747Y34356191D01*
X206606747Y34203810D01*
X206568652Y34127620D01*
X206492462Y34051429D01*
X206340081Y34013334D01*
X206073414Y34013334D01*
X205921033Y34051429D01*
X205844843Y34127620D01*
X205806747Y34203810D01*
X206606747Y34889524D02*
X205806747Y34889524D01*
X205806747Y35194286D01*
X205844843Y35270477D01*
X205882938Y35308572D01*
X205959128Y35346667D01*
X206073414Y35346667D01*
X206149604Y35308572D01*
X206187700Y35270477D01*
X206225795Y35194286D01*
X206225795Y34889524D01*
X201518652Y150503810D02*
X201556747Y150618096D01*
X201556747Y150808572D01*
X201518652Y150884762D01*
X201480557Y150922858D01*
X201404366Y150960953D01*
X201328176Y150960953D01*
X201251985Y150922858D01*
X201213890Y150884762D01*
X201175795Y150808572D01*
X201137700Y150656191D01*
X201099604Y150580000D01*
X201061509Y150541905D01*
X200985319Y150503810D01*
X200909128Y150503810D01*
X200832938Y150541905D01*
X200794843Y150580000D01*
X200756747Y150656191D01*
X200756747Y150846667D01*
X200794843Y150960953D01*
X201556747Y151303810D02*
X200756747Y151303810D01*
X200756747Y151494286D01*
X200794843Y151608572D01*
X200871033Y151684762D01*
X200947223Y151722858D01*
X201099604Y151760953D01*
X201213890Y151760953D01*
X201366271Y151722858D01*
X201442462Y151684762D01*
X201518652Y151608572D01*
X201556747Y151494286D01*
X201556747Y151303810D01*
X201328176Y152065715D02*
X201328176Y152446667D01*
X201556747Y151989524D02*
X200756747Y152256191D01*
X201556747Y152522858D01*
X11920557Y35200000D02*
X11777700Y34771429D01*
X11777700Y34057143D01*
X11920557Y33771429D01*
X12063414Y33628572D01*
X12349128Y33485715D01*
X12634843Y33485715D01*
X12920557Y33628572D01*
X13063414Y33771429D01*
X13206271Y34057143D01*
X13349128Y34628572D01*
X13491985Y34914286D01*
X13634843Y35057143D01*
X13920557Y35200000D01*
X14206271Y35200000D01*
X14491985Y35057143D01*
X14634843Y34914286D01*
X14777700Y34628572D01*
X14777700Y33914286D01*
X14634843Y33485715D01*
X11777700Y31771429D02*
X11920557Y32057143D01*
X12206271Y32200000D01*
X14777700Y32200000D01*
X11777700Y30628572D02*
X13777700Y30628572D01*
X14777700Y30628572D02*
X14634843Y30771429D01*
X14491985Y30628572D01*
X14634843Y30485715D01*
X14777700Y30628572D01*
X14491985Y30628572D01*
X11920557Y27914286D02*
X11777700Y28200000D01*
X11777700Y28771429D01*
X11920557Y29057143D01*
X12063414Y29200000D01*
X12349128Y29342858D01*
X13206271Y29342858D01*
X13491985Y29200000D01*
X13634843Y29057143D01*
X13777700Y28771429D01*
X13777700Y28200000D01*
X13634843Y27914286D01*
X11920557Y25485715D02*
X11777700Y25771429D01*
X11777700Y26342858D01*
X11920557Y26628572D01*
X12206271Y26771429D01*
X13349128Y26771429D01*
X13634843Y26628572D01*
X13777700Y26342858D01*
X13777700Y25771429D01*
X13634843Y25485715D01*
X13349128Y25342858D01*
X13063414Y25342858D01*
X12777700Y26771429D01*
X13777700Y20485715D02*
X11777700Y20485715D01*
X14920557Y21200000D02*
X12777700Y21914286D01*
X12777700Y20057143D01*
X69541985Y62473810D02*
X69541985Y62207143D01*
X69122938Y62092858D02*
X69122938Y62473810D01*
X69922938Y62473810D01*
X69922938Y62092858D01*
X69161033Y61788096D02*
X69122938Y61673810D01*
X69122938Y61483334D01*
X69161033Y61407143D01*
X69199128Y61369048D01*
X69275319Y61330953D01*
X69351509Y61330953D01*
X69427700Y61369048D01*
X69465795Y61407143D01*
X69503890Y61483334D01*
X69541985Y61635715D01*
X69580081Y61711905D01*
X69618176Y61750000D01*
X69694366Y61788096D01*
X69770557Y61788096D01*
X69846747Y61750000D01*
X69884843Y61711905D01*
X69922938Y61635715D01*
X69922938Y61445239D01*
X69884843Y61330953D01*
X69922938Y61102381D02*
X69922938Y60645239D01*
X69122938Y60873810D02*
X69922938Y60873810D01*
X69922938Y60226191D02*
X69922938Y60073810D01*
X69884843Y59997619D01*
X69808652Y59921429D01*
X69656271Y59883334D01*
X69389604Y59883334D01*
X69237223Y59921429D01*
X69161033Y59997619D01*
X69122938Y60073810D01*
X69122938Y60226191D01*
X69161033Y60302381D01*
X69237223Y60378572D01*
X69389604Y60416667D01*
X69656271Y60416667D01*
X69808652Y60378572D01*
X69884843Y60302381D01*
X69922938Y60226191D01*
X69122938Y59540477D02*
X69922938Y59540477D01*
X69922938Y59235715D01*
X69884843Y59159524D01*
X69846747Y59121429D01*
X69770557Y59083334D01*
X69656271Y59083334D01*
X69580081Y59121429D01*
X69541985Y59159524D01*
X69503890Y59235715D01*
X69503890Y59540477D01*
X79322938Y138380953D02*
X79322938Y138838095D01*
X79322938Y138609524D02*
X80122938Y138609524D01*
X80008652Y138685714D01*
X79932462Y138761905D01*
X79894366Y138838095D01*
X80046747Y138076191D02*
X80084843Y138038095D01*
X80122938Y137961905D01*
X80122938Y137771429D01*
X80084843Y137695238D01*
X80046747Y137657143D01*
X79970557Y137619048D01*
X79894366Y137619048D01*
X79780081Y137657143D01*
X79322938Y138114286D01*
X79322938Y137619048D01*
X80122938Y137390476D02*
X79322938Y137123810D01*
X80122938Y136857143D01*
X72384843Y21659524D02*
X72422938Y21735715D01*
X72422938Y21850000D01*
X72384843Y21964286D01*
X72308652Y22040477D01*
X72232462Y22078572D01*
X72080081Y22116667D01*
X71965795Y22116667D01*
X71813414Y22078572D01*
X71737223Y22040477D01*
X71661033Y21964286D01*
X71622938Y21850000D01*
X71622938Y21773810D01*
X71661033Y21659524D01*
X71699128Y21621429D01*
X71965795Y21621429D01*
X71965795Y21773810D01*
X71622938Y21278572D02*
X72422938Y21278572D01*
X71622938Y20821429D01*
X72422938Y20821429D01*
X71622938Y20440477D02*
X72422938Y20440477D01*
X72422938Y20250000D01*
X72384843Y20135715D01*
X72308652Y20059524D01*
X72232462Y20021429D01*
X72080081Y19983334D01*
X71965795Y19983334D01*
X71813414Y20021429D01*
X71737223Y20059524D01*
X71661033Y20135715D01*
X71622938Y20250000D01*
X71622938Y20440477D01*
X76761033Y60988095D02*
X76722938Y60873810D01*
X76722938Y60683334D01*
X76761033Y60607143D01*
X76799128Y60569048D01*
X76875319Y60530953D01*
X76951509Y60530953D01*
X77027700Y60569048D01*
X77065795Y60607143D01*
X77103890Y60683334D01*
X77141985Y60835714D01*
X77180081Y60911905D01*
X77218176Y60950000D01*
X77294366Y60988095D01*
X77370557Y60988095D01*
X77446747Y60950000D01*
X77484843Y60911905D01*
X77522938Y60835714D01*
X77522938Y60645238D01*
X77484843Y60530953D01*
X76799128Y59730953D02*
X76761033Y59769048D01*
X76722938Y59883334D01*
X76722938Y59959524D01*
X76761033Y60073810D01*
X76837223Y60150000D01*
X76913414Y60188095D01*
X77065795Y60226191D01*
X77180081Y60226191D01*
X77332462Y60188095D01*
X77408652Y60150000D01*
X77484843Y60073810D01*
X77522938Y59959524D01*
X77522938Y59883334D01*
X77484843Y59769048D01*
X77446747Y59730953D01*
X76722938Y59007143D02*
X76722938Y59388095D01*
X77522938Y59388095D01*
X193144843Y150770477D02*
X193106747Y150694286D01*
X193106747Y150580000D01*
X193144843Y150465715D01*
X193221033Y150389524D01*
X193297223Y150351429D01*
X193449604Y150313334D01*
X193563890Y150313334D01*
X193716271Y150351429D01*
X193792462Y150389524D01*
X193868652Y150465715D01*
X193906747Y150580000D01*
X193906747Y150656191D01*
X193868652Y150770477D01*
X193830557Y150808572D01*
X193563890Y150808572D01*
X193563890Y150656191D01*
X193906747Y151151429D02*
X193106747Y151151429D01*
X193906747Y151608572D01*
X193106747Y151608572D01*
X193906747Y151989524D02*
X193106747Y151989524D01*
X193106747Y152180000D01*
X193144843Y152294286D01*
X193221033Y152370477D01*
X193297223Y152408572D01*
X193449604Y152446667D01*
X193563890Y152446667D01*
X193716271Y152408572D01*
X193792462Y152370477D01*
X193868652Y152294286D01*
X193906747Y152180000D01*
X193906747Y151989524D01*
X61472938Y99480953D02*
X61472938Y99938095D01*
X61472938Y99709524D02*
X62272938Y99709524D01*
X62158652Y99785714D01*
X62082462Y99861905D01*
X62044366Y99938095D01*
X62196747Y99176191D02*
X62234843Y99138095D01*
X62272938Y99061905D01*
X62272938Y98871429D01*
X62234843Y98795238D01*
X62196747Y98757143D01*
X62120557Y98719048D01*
X62044366Y98719048D01*
X61930081Y98757143D01*
X61472938Y99214286D01*
X61472938Y98719048D01*
X62272938Y98490476D02*
X61472938Y98223810D01*
X62272938Y97957143D01*
X201518652Y112453810D02*
X201556747Y112568096D01*
X201556747Y112758572D01*
X201518652Y112834762D01*
X201480557Y112872858D01*
X201404366Y112910953D01*
X201328176Y112910953D01*
X201251985Y112872858D01*
X201213890Y112834762D01*
X201175795Y112758572D01*
X201137700Y112606191D01*
X201099604Y112530000D01*
X201061509Y112491905D01*
X200985319Y112453810D01*
X200909128Y112453810D01*
X200832938Y112491905D01*
X200794843Y112530000D01*
X200756747Y112606191D01*
X200756747Y112796667D01*
X200794843Y112910953D01*
X201556747Y113253810D02*
X200756747Y113253810D01*
X200756747Y113444286D01*
X200794843Y113558572D01*
X200871033Y113634762D01*
X200947223Y113672858D01*
X201099604Y113710953D01*
X201213890Y113710953D01*
X201366271Y113672858D01*
X201442462Y113634762D01*
X201518652Y113558572D01*
X201556747Y113444286D01*
X201556747Y113253810D01*
X201328176Y114015715D02*
X201328176Y114396667D01*
X201556747Y113939524D02*
X200756747Y114206191D01*
X201556747Y114472858D01*
X74261033Y138876191D02*
X74222938Y138761905D01*
X74222938Y138571429D01*
X74261033Y138495239D01*
X74299128Y138457143D01*
X74375319Y138419048D01*
X74451509Y138419048D01*
X74527700Y138457143D01*
X74565795Y138495239D01*
X74603890Y138571429D01*
X74641985Y138723810D01*
X74680081Y138800001D01*
X74718176Y138838096D01*
X74794366Y138876191D01*
X74870557Y138876191D01*
X74946747Y138838096D01*
X74984843Y138800001D01*
X75022938Y138723810D01*
X75022938Y138533334D01*
X74984843Y138419048D01*
X74222938Y138076191D02*
X75022938Y138076191D01*
X75022938Y137885715D01*
X74984843Y137771429D01*
X74908652Y137695239D01*
X74832462Y137657143D01*
X74680081Y137619048D01*
X74565795Y137619048D01*
X74413414Y137657143D01*
X74337223Y137695239D01*
X74261033Y137771429D01*
X74222938Y137885715D01*
X74222938Y138076191D01*
X74451509Y137314286D02*
X74451509Y136933334D01*
X74222938Y137390477D02*
X75022938Y137123810D01*
X74222938Y136857143D01*
X193144843Y112720477D02*
X193106747Y112644286D01*
X193106747Y112530000D01*
X193144843Y112415715D01*
X193221033Y112339524D01*
X193297223Y112301429D01*
X193449604Y112263334D01*
X193563890Y112263334D01*
X193716271Y112301429D01*
X193792462Y112339524D01*
X193868652Y112415715D01*
X193906747Y112530000D01*
X193906747Y112606191D01*
X193868652Y112720477D01*
X193830557Y112758572D01*
X193563890Y112758572D01*
X193563890Y112606191D01*
X193906747Y113101429D02*
X193106747Y113101429D01*
X193906747Y113558572D01*
X193106747Y113558572D01*
X193906747Y113939524D02*
X193106747Y113939524D01*
X193106747Y114130000D01*
X193144843Y114244286D01*
X193221033Y114320477D01*
X193297223Y114358572D01*
X193449604Y114396667D01*
X193563890Y114396667D01*
X193716271Y114358572D01*
X193792462Y114320477D01*
X193868652Y114244286D01*
X193906747Y114130000D01*
X193906747Y113939524D01*
X59734843Y21659524D02*
X59772938Y21735715D01*
X59772938Y21850000D01*
X59734843Y21964286D01*
X59658652Y22040477D01*
X59582462Y22078572D01*
X59430081Y22116667D01*
X59315795Y22116667D01*
X59163414Y22078572D01*
X59087223Y22040477D01*
X59011033Y21964286D01*
X58972938Y21850000D01*
X58972938Y21773810D01*
X59011033Y21659524D01*
X59049128Y21621429D01*
X59315795Y21621429D01*
X59315795Y21773810D01*
X58972938Y21278572D02*
X59772938Y21278572D01*
X58972938Y20821429D01*
X59772938Y20821429D01*
X58972938Y20440477D02*
X59772938Y20440477D01*
X59772938Y20250000D01*
X59734843Y20135715D01*
X59658652Y20059524D01*
X59582462Y20021429D01*
X59430081Y19983334D01*
X59315795Y19983334D01*
X59163414Y20021429D01*
X59087223Y20059524D01*
X59011033Y20135715D01*
X58972938Y20250000D01*
X58972938Y20440477D01*
X263714285Y137400000D02*
X263857142Y137828572D01*
X263857142Y138542858D01*
X263714285Y138828572D01*
X263571428Y138971429D01*
X263285714Y139114286D01*
X263000000Y139114286D01*
X262714285Y138971429D01*
X262571428Y138828572D01*
X262428571Y138542858D01*
X262285714Y137971429D01*
X262142857Y137685715D01*
X262000000Y137542858D01*
X261714285Y137400000D01*
X261428571Y137400000D01*
X261142857Y137542858D01*
X261000000Y137685715D01*
X260857142Y137971429D01*
X260857142Y138685715D01*
X261000000Y139114286D01*
X263857142Y140828572D02*
X263714285Y140542858D01*
X263428571Y140400000D01*
X260857142Y140400000D01*
X263857142Y141971429D02*
X261857142Y141971429D01*
X260857142Y141971429D02*
X261000000Y141828572D01*
X261142857Y141971429D01*
X261000000Y142114286D01*
X260857142Y141971429D01*
X261142857Y141971429D01*
X263714285Y144685715D02*
X263857142Y144400000D01*
X263857142Y143828572D01*
X263714285Y143542858D01*
X263571428Y143400000D01*
X263285714Y143257143D01*
X262428571Y143257143D01*
X262142857Y143400000D01*
X262000000Y143542858D01*
X261857142Y143828572D01*
X261857142Y144400000D01*
X262000000Y144685715D01*
X263714285Y147114286D02*
X263857142Y146828572D01*
X263857142Y146257143D01*
X263714285Y145971429D01*
X263428571Y145828572D01*
X262285714Y145828572D01*
X262000000Y145971429D01*
X261857142Y146257143D01*
X261857142Y146828572D01*
X262000000Y147114286D01*
X262285714Y147257143D01*
X262571428Y147257143D01*
X262857142Y145828572D01*
X262142857Y151257143D02*
X262000000Y150971429D01*
X261857142Y150828572D01*
X261571428Y150685715D01*
X261428571Y150685715D01*
X261142857Y150828572D01*
X261000000Y150971429D01*
X260857142Y151257143D01*
X260857142Y151828572D01*
X261000000Y152114286D01*
X261142857Y152257143D01*
X261428571Y152400000D01*
X261571428Y152400000D01*
X261857142Y152257143D01*
X262000000Y152114286D01*
X262142857Y151828572D01*
X262142857Y151257143D01*
X262285714Y150971429D01*
X262428571Y150828572D01*
X262714285Y150685715D01*
X263285714Y150685715D01*
X263571428Y150828572D01*
X263714285Y150971429D01*
X263857142Y151257143D01*
X263857142Y151828572D01*
X263714285Y152114286D01*
X263571428Y152257143D01*
X263285714Y152400000D01*
X262714285Y152400000D01*
X262428571Y152257143D01*
X262285714Y152114286D01*
X262142857Y151828572D01*
X59784843Y138609524D02*
X59822938Y138685715D01*
X59822938Y138800000D01*
X59784843Y138914286D01*
X59708652Y138990477D01*
X59632462Y139028572D01*
X59480081Y139066667D01*
X59365795Y139066667D01*
X59213414Y139028572D01*
X59137223Y138990477D01*
X59061033Y138914286D01*
X59022938Y138800000D01*
X59022938Y138723810D01*
X59061033Y138609524D01*
X59099128Y138571429D01*
X59365795Y138571429D01*
X59365795Y138723810D01*
X59022938Y138228572D02*
X59822938Y138228572D01*
X59022938Y137771429D01*
X59822938Y137771429D01*
X59022938Y137390477D02*
X59822938Y137390477D01*
X59822938Y137200000D01*
X59784843Y137085715D01*
X59708652Y137009524D01*
X59632462Y136971429D01*
X59480081Y136933334D01*
X59365795Y136933334D01*
X59213414Y136971429D01*
X59137223Y137009524D01*
X59061033Y137085715D01*
X59022938Y137200000D01*
X59022938Y137390477D01*
X263589285Y99000000D02*
X263732142Y99428572D01*
X263732142Y100142858D01*
X263589285Y100428572D01*
X263446428Y100571429D01*
X263160714Y100714286D01*
X262875000Y100714286D01*
X262589285Y100571429D01*
X262446428Y100428572D01*
X262303571Y100142858D01*
X262160714Y99571429D01*
X262017857Y99285715D01*
X261875000Y99142858D01*
X261589285Y99000000D01*
X261303571Y99000000D01*
X261017857Y99142858D01*
X260875000Y99285715D01*
X260732142Y99571429D01*
X260732142Y100285715D01*
X260875000Y100714286D01*
X263732142Y102428572D02*
X263589285Y102142858D01*
X263303571Y102000000D01*
X260732142Y102000000D01*
X263732142Y103571429D02*
X261732142Y103571429D01*
X260732142Y103571429D02*
X260875000Y103428572D01*
X261017857Y103571429D01*
X260875000Y103714286D01*
X260732142Y103571429D01*
X261017857Y103571429D01*
X263589285Y106285715D02*
X263732142Y106000000D01*
X263732142Y105428572D01*
X263589285Y105142858D01*
X263446428Y105000000D01*
X263160714Y104857143D01*
X262303571Y104857143D01*
X262017857Y105000000D01*
X261875000Y105142858D01*
X261732142Y105428572D01*
X261732142Y106000000D01*
X261875000Y106285715D01*
X263589285Y108714286D02*
X263732142Y108428572D01*
X263732142Y107857143D01*
X263589285Y107571429D01*
X263303571Y107428572D01*
X262160714Y107428572D01*
X261875000Y107571429D01*
X261732142Y107857143D01*
X261732142Y108428572D01*
X261875000Y108714286D01*
X262160714Y108857143D01*
X262446428Y108857143D01*
X262732142Y107428572D01*
X260732142Y112142858D02*
X260732142Y114142858D01*
X263732142Y112857143D01*
X193144843Y72320477D02*
X193106747Y72244286D01*
X193106747Y72130000D01*
X193144843Y72015715D01*
X193221033Y71939524D01*
X193297223Y71901429D01*
X193449604Y71863334D01*
X193563890Y71863334D01*
X193716271Y71901429D01*
X193792462Y71939524D01*
X193868652Y72015715D01*
X193906747Y72130000D01*
X193906747Y72206191D01*
X193868652Y72320477D01*
X193830557Y72358572D01*
X193563890Y72358572D01*
X193563890Y72206191D01*
X193906747Y72701429D02*
X193106747Y72701429D01*
X193906747Y73158572D01*
X193106747Y73158572D01*
X193906747Y73539524D02*
X193106747Y73539524D01*
X193106747Y73730000D01*
X193144843Y73844286D01*
X193221033Y73920477D01*
X193297223Y73958572D01*
X193449604Y73996667D01*
X193563890Y73996667D01*
X193716271Y73958572D01*
X193792462Y73920477D01*
X193868652Y73844286D01*
X193906747Y73730000D01*
X193906747Y73539524D01*
X215994843Y150770477D02*
X215956747Y150694286D01*
X215956747Y150580000D01*
X215994843Y150465715D01*
X216071033Y150389524D01*
X216147223Y150351429D01*
X216299604Y150313334D01*
X216413890Y150313334D01*
X216566271Y150351429D01*
X216642462Y150389524D01*
X216718652Y150465715D01*
X216756747Y150580000D01*
X216756747Y150656191D01*
X216718652Y150770477D01*
X216680557Y150808572D01*
X216413890Y150808572D01*
X216413890Y150656191D01*
X216756747Y151151429D02*
X215956747Y151151429D01*
X216756747Y151608572D01*
X215956747Y151608572D01*
X216756747Y151989524D02*
X215956747Y151989524D01*
X215956747Y152180000D01*
X215994843Y152294286D01*
X216071033Y152370477D01*
X216147223Y152408572D01*
X216299604Y152446667D01*
X216413890Y152446667D01*
X216566271Y152408572D01*
X216642462Y152370477D01*
X216718652Y152294286D01*
X216756747Y152180000D01*
X216756747Y151989524D01*
X76811033Y138838095D02*
X76772938Y138723810D01*
X76772938Y138533334D01*
X76811033Y138457143D01*
X76849128Y138419048D01*
X76925319Y138380953D01*
X77001509Y138380953D01*
X77077700Y138419048D01*
X77115795Y138457143D01*
X77153890Y138533334D01*
X77191985Y138685714D01*
X77230081Y138761905D01*
X77268176Y138800000D01*
X77344366Y138838095D01*
X77420557Y138838095D01*
X77496747Y138800000D01*
X77534843Y138761905D01*
X77572938Y138685714D01*
X77572938Y138495238D01*
X77534843Y138380953D01*
X76849128Y137580953D02*
X76811033Y137619048D01*
X76772938Y137733334D01*
X76772938Y137809524D01*
X76811033Y137923810D01*
X76887223Y138000000D01*
X76963414Y138038095D01*
X77115795Y138076191D01*
X77230081Y138076191D01*
X77382462Y138038095D01*
X77458652Y138000000D01*
X77534843Y137923810D01*
X77572938Y137809524D01*
X77572938Y137733334D01*
X77534843Y137619048D01*
X77496747Y137580953D01*
X76772938Y136857143D02*
X76772938Y137238095D01*
X77572938Y137238095D01*
X72384843Y60759524D02*
X72422938Y60835715D01*
X72422938Y60950000D01*
X72384843Y61064286D01*
X72308652Y61140477D01*
X72232462Y61178572D01*
X72080081Y61216667D01*
X71965795Y61216667D01*
X71813414Y61178572D01*
X71737223Y61140477D01*
X71661033Y61064286D01*
X71622938Y60950000D01*
X71622938Y60873810D01*
X71661033Y60759524D01*
X71699128Y60721429D01*
X71965795Y60721429D01*
X71965795Y60873810D01*
X71622938Y60378572D02*
X72422938Y60378572D01*
X71622938Y59921429D01*
X72422938Y59921429D01*
X71622938Y59540477D02*
X72422938Y59540477D01*
X72422938Y59350000D01*
X72384843Y59235715D01*
X72308652Y59159524D01*
X72232462Y59121429D01*
X72080081Y59083334D01*
X71965795Y59083334D01*
X71813414Y59121429D01*
X71737223Y59159524D01*
X71661033Y59235715D01*
X71622938Y59350000D01*
X71622938Y59540477D01*
X205908095Y178930000D02*
X205812857Y178977620D01*
X205670000Y178977620D01*
X205527142Y178930000D01*
X205431904Y178834762D01*
X205384285Y178739524D01*
X205336666Y178549048D01*
X205336666Y178406191D01*
X205384285Y178215715D01*
X205431904Y178120477D01*
X205527142Y178025239D01*
X205670000Y177977620D01*
X205765238Y177977620D01*
X205908095Y178025239D01*
X205955714Y178072858D01*
X205955714Y178406191D01*
X205765238Y178406191D01*
X206384285Y177977620D02*
X206384285Y178977620D01*
X206955714Y177977620D01*
X206955714Y178977620D01*
X207431904Y177977620D02*
X207431904Y178977620D01*
X207670000Y178977620D01*
X207812857Y178930000D01*
X207908095Y178834762D01*
X207955714Y178739524D01*
X208003333Y178549048D01*
X208003333Y178406191D01*
X207955714Y178215715D01*
X207908095Y178120477D01*
X207812857Y178025239D01*
X207670000Y177977620D01*
X207431904Y177977620D01*
X240904761Y6157620D02*
X240428571Y6157620D01*
X240428571Y7157620D01*
X241380952Y6157620D02*
X241285714Y6205239D01*
X241238095Y6252858D01*
X241190476Y6348096D01*
X241190476Y6633810D01*
X241238095Y6729048D01*
X241285714Y6776667D01*
X241380952Y6824286D01*
X241523809Y6824286D01*
X241619047Y6776667D01*
X241666666Y6729048D01*
X241714285Y6633810D01*
X241714285Y6348096D01*
X241666666Y6252858D01*
X241619047Y6205239D01*
X241523809Y6157620D01*
X241380952Y6157620D01*
X242571428Y6157620D02*
X242571428Y6681429D01*
X242523809Y6776667D01*
X242428571Y6824286D01*
X242238095Y6824286D01*
X242142857Y6776667D01*
X242571428Y6205239D02*
X242476190Y6157620D01*
X242238095Y6157620D01*
X242142857Y6205239D01*
X242095238Y6300477D01*
X242095238Y6395715D01*
X242142857Y6490953D01*
X242238095Y6538572D01*
X242476190Y6538572D01*
X242571428Y6586191D01*
X242904761Y6824286D02*
X243285714Y6824286D01*
X243047619Y6157620D02*
X243047619Y7014762D01*
X243095238Y7110000D01*
X243190476Y7157620D01*
X243285714Y7157620D01*
X244714285Y6681429D02*
X244857142Y6633810D01*
X244904761Y6586191D01*
X244952380Y6490953D01*
X244952380Y6348096D01*
X244904761Y6252858D01*
X244857142Y6205239D01*
X244761904Y6157620D01*
X244380952Y6157620D01*
X244380952Y7157620D01*
X244714285Y7157620D01*
X244809523Y7110000D01*
X244857142Y7062381D01*
X244904761Y6967143D01*
X244904761Y6871905D01*
X244857142Y6776667D01*
X244809523Y6729048D01*
X244714285Y6681429D01*
X244380952Y6681429D01*
X245809523Y6157620D02*
X245809523Y6681429D01*
X245761904Y6776667D01*
X245666666Y6824286D01*
X245476190Y6824286D01*
X245380952Y6776667D01*
X245809523Y6205239D02*
X245714285Y6157620D01*
X245476190Y6157620D01*
X245380952Y6205239D01*
X245333333Y6300477D01*
X245333333Y6395715D01*
X245380952Y6490953D01*
X245476190Y6538572D01*
X245714285Y6538572D01*
X245809523Y6586191D01*
X246714285Y6205239D02*
X246619047Y6157620D01*
X246428571Y6157620D01*
X246333333Y6205239D01*
X246285714Y6252858D01*
X246238095Y6348096D01*
X246238095Y6633810D01*
X246285714Y6729048D01*
X246333333Y6776667D01*
X246428571Y6824286D01*
X246619047Y6824286D01*
X246714285Y6776667D01*
X247142857Y6157620D02*
X247142857Y7157620D01*
X247238095Y6538572D02*
X247523809Y6157620D01*
X247523809Y6824286D02*
X247142857Y6443334D01*
X247952380Y6824286D02*
X247952380Y5824286D01*
X247952380Y6776667D02*
X248047619Y6824286D01*
X248238095Y6824286D01*
X248333333Y6776667D01*
X248380952Y6729048D01*
X248428571Y6633810D01*
X248428571Y6348096D01*
X248380952Y6252858D01*
X248333333Y6205239D01*
X248238095Y6157620D01*
X248047619Y6157620D01*
X247952380Y6205239D01*
X249000000Y6157620D02*
X248904761Y6205239D01*
X248857142Y6300477D01*
X248857142Y7157620D01*
X249809523Y6157620D02*
X249809523Y6681429D01*
X249761904Y6776667D01*
X249666666Y6824286D01*
X249476190Y6824286D01*
X249380952Y6776667D01*
X249809523Y6205239D02*
X249714285Y6157620D01*
X249476190Y6157620D01*
X249380952Y6205239D01*
X249333333Y6300477D01*
X249333333Y6395715D01*
X249380952Y6490953D01*
X249476190Y6538572D01*
X249714285Y6538572D01*
X249809523Y6586191D01*
X250285714Y6824286D02*
X250285714Y6157620D01*
X250285714Y6729048D02*
X250333333Y6776667D01*
X250428571Y6824286D01*
X250571428Y6824286D01*
X250666666Y6776667D01*
X250714285Y6681429D01*
X250714285Y6157620D01*
X251571428Y6205239D02*
X251476190Y6157620D01*
X251285714Y6157620D01*
X251190476Y6205239D01*
X251142857Y6300477D01*
X251142857Y6681429D01*
X251190476Y6776667D01*
X251285714Y6824286D01*
X251476190Y6824286D01*
X251571428Y6776667D01*
X251619047Y6681429D01*
X251619047Y6586191D01*
X251142857Y6490953D01*
X244928571Y4547620D02*
X244452380Y4547620D01*
X244452380Y5547620D01*
X245452380Y5547620D02*
X245642857Y5547620D01*
X245738095Y5500000D01*
X245833333Y5404762D01*
X245880952Y5214286D01*
X245880952Y4880953D01*
X245833333Y4690477D01*
X245738095Y4595239D01*
X245642857Y4547620D01*
X245452380Y4547620D01*
X245357142Y4595239D01*
X245261904Y4690477D01*
X245214285Y4880953D01*
X245214285Y5214286D01*
X245261904Y5404762D01*
X245357142Y5500000D01*
X245452380Y5547620D01*
X246261904Y4833334D02*
X246738095Y4833334D01*
X246166666Y4547620D02*
X246500000Y5547620D01*
X246833333Y4547620D01*
X247500000Y5071429D02*
X247166666Y5071429D01*
X247166666Y4547620D02*
X247166666Y5547620D01*
X247642857Y5547620D01*
X243547619Y2937620D02*
X243214285Y3413810D01*
X242976190Y2937620D02*
X242976190Y3937620D01*
X243357142Y3937620D01*
X243452380Y3890000D01*
X243500000Y3842381D01*
X243547619Y3747143D01*
X243547619Y3604286D01*
X243500000Y3509048D01*
X243452380Y3461429D01*
X243357142Y3413810D01*
X242976190Y3413810D01*
X244166666Y3937620D02*
X244261904Y3937620D01*
X244357142Y3890000D01*
X244404761Y3842381D01*
X244452380Y3747143D01*
X244500000Y3556667D01*
X244500000Y3318572D01*
X244452380Y3128096D01*
X244404761Y3032858D01*
X244357142Y2985239D01*
X244261904Y2937620D01*
X244166666Y2937620D01*
X244071428Y2985239D01*
X244023809Y3032858D01*
X243976190Y3128096D01*
X243928571Y3318572D01*
X243928571Y3556667D01*
X243976190Y3747143D01*
X244023809Y3842381D01*
X244071428Y3890000D01*
X244166666Y3937620D01*
X245642857Y3842381D02*
X245690476Y3890000D01*
X245785714Y3937620D01*
X246023809Y3937620D01*
X246119047Y3890000D01*
X246166666Y3842381D01*
X246214285Y3747143D01*
X246214285Y3651905D01*
X246166666Y3509048D01*
X245595238Y2937620D01*
X246214285Y2937620D01*
X246833333Y3937620D02*
X246928571Y3937620D01*
X247023809Y3890000D01*
X247071428Y3842381D01*
X247119047Y3747143D01*
X247166666Y3556667D01*
X247166666Y3318572D01*
X247119047Y3128096D01*
X247071428Y3032858D01*
X247023809Y2985239D01*
X246928571Y2937620D01*
X246833333Y2937620D01*
X246738095Y2985239D01*
X246690476Y3032858D01*
X246642857Y3128096D01*
X246595238Y3318572D01*
X246595238Y3556667D01*
X246642857Y3747143D01*
X246690476Y3842381D01*
X246738095Y3890000D01*
X246833333Y3937620D01*
X247547619Y3842381D02*
X247595238Y3890000D01*
X247690476Y3937620D01*
X247928571Y3937620D01*
X248023809Y3890000D01*
X248071428Y3842381D01*
X248119047Y3747143D01*
X248119047Y3651905D01*
X248071428Y3509048D01*
X247500000Y2937620D01*
X248119047Y2937620D01*
X248500000Y3842381D02*
X248547619Y3890000D01*
X248642857Y3937620D01*
X248880952Y3937620D01*
X248976190Y3890000D01*
X249023809Y3842381D01*
X249071428Y3747143D01*
X249071428Y3651905D01*
X249023809Y3509048D01*
X248452380Y2937620D01*
X249071428Y2937620D01*
X206187700Y70606191D02*
X206187700Y70872858D01*
X206606747Y70987143D02*
X206606747Y70606191D01*
X205806747Y70606191D01*
X205806747Y70987143D01*
X206568652Y71291905D02*
X206606747Y71406191D01*
X206606747Y71596667D01*
X206568652Y71672858D01*
X206530557Y71710953D01*
X206454366Y71749048D01*
X206378176Y71749048D01*
X206301985Y71710953D01*
X206263890Y71672858D01*
X206225795Y71596667D01*
X206187700Y71444286D01*
X206149604Y71368096D01*
X206111509Y71330001D01*
X206035319Y71291905D01*
X205959128Y71291905D01*
X205882938Y71330001D01*
X205844843Y71368096D01*
X205806747Y71444286D01*
X205806747Y71634762D01*
X205844843Y71749048D01*
X205806747Y71977620D02*
X205806747Y72434762D01*
X206606747Y72206191D02*
X205806747Y72206191D01*
X205806747Y72853810D02*
X205806747Y73006191D01*
X205844843Y73082381D01*
X205921033Y73158572D01*
X206073414Y73196667D01*
X206340081Y73196667D01*
X206492462Y73158572D01*
X206568652Y73082381D01*
X206606747Y73006191D01*
X206606747Y72853810D01*
X206568652Y72777620D01*
X206492462Y72701429D01*
X206340081Y72663334D01*
X206073414Y72663334D01*
X205921033Y72701429D01*
X205844843Y72777620D01*
X205806747Y72853810D01*
X206606747Y73539524D02*
X205806747Y73539524D01*
X205806747Y73844286D01*
X205844843Y73920477D01*
X205882938Y73958572D01*
X205959128Y73996667D01*
X206073414Y73996667D01*
X206149604Y73958572D01*
X206187700Y73920477D01*
X206225795Y73844286D01*
X206225795Y73539524D01*
X79272938Y60530953D02*
X79272938Y60988095D01*
X79272938Y60759524D02*
X80072938Y60759524D01*
X79958652Y60835714D01*
X79882462Y60911905D01*
X79844366Y60988095D01*
X79996747Y60226191D02*
X80034843Y60188095D01*
X80072938Y60111905D01*
X80072938Y59921429D01*
X80034843Y59845238D01*
X79996747Y59807143D01*
X79920557Y59769048D01*
X79844366Y59769048D01*
X79730081Y59807143D01*
X79272938Y60264286D01*
X79272938Y59769048D01*
X80072938Y59540476D02*
X79272938Y59273810D01*
X80072938Y59007143D01*
X69591985Y140323810D02*
X69591985Y140057143D01*
X69172938Y139942858D02*
X69172938Y140323810D01*
X69972938Y140323810D01*
X69972938Y139942858D01*
X69211033Y139638096D02*
X69172938Y139523810D01*
X69172938Y139333334D01*
X69211033Y139257143D01*
X69249128Y139219048D01*
X69325319Y139180953D01*
X69401509Y139180953D01*
X69477700Y139219048D01*
X69515795Y139257143D01*
X69553890Y139333334D01*
X69591985Y139485715D01*
X69630081Y139561905D01*
X69668176Y139600000D01*
X69744366Y139638096D01*
X69820557Y139638096D01*
X69896747Y139600000D01*
X69934843Y139561905D01*
X69972938Y139485715D01*
X69972938Y139295239D01*
X69934843Y139180953D01*
X69972938Y138952381D02*
X69972938Y138495239D01*
X69172938Y138723810D02*
X69972938Y138723810D01*
X69972938Y138076191D02*
X69972938Y137923810D01*
X69934843Y137847619D01*
X69858652Y137771429D01*
X69706271Y137733334D01*
X69439604Y137733334D01*
X69287223Y137771429D01*
X69211033Y137847619D01*
X69172938Y137923810D01*
X69172938Y138076191D01*
X69211033Y138152381D01*
X69287223Y138228572D01*
X69439604Y138266667D01*
X69706271Y138266667D01*
X69858652Y138228572D01*
X69934843Y138152381D01*
X69972938Y138076191D01*
X69172938Y137390477D02*
X69972938Y137390477D01*
X69972938Y137085715D01*
X69934843Y137009524D01*
X69896747Y136971429D01*
X69820557Y136933334D01*
X69706271Y136933334D01*
X69630081Y136971429D01*
X69591985Y137009524D01*
X69553890Y137085715D01*
X69553890Y137390477D01*
X214256747Y112949048D02*
X214256747Y112491906D01*
X214256747Y112720477D02*
X213456747Y112720477D01*
X213571033Y112644286D01*
X213647223Y112568096D01*
X213685319Y112491906D01*
X213532938Y113253810D02*
X213494843Y113291906D01*
X213456747Y113368096D01*
X213456747Y113558572D01*
X213494843Y113634763D01*
X213532938Y113672858D01*
X213609128Y113710953D01*
X213685319Y113710953D01*
X213799604Y113672858D01*
X214256747Y113215715D01*
X214256747Y113710953D01*
X213456747Y113939525D02*
X214256747Y114206191D01*
X213456747Y114472858D01*
%TO.C,H3*%
X268238095Y9347620D02*
X268238095Y10347620D01*
X268238095Y9871429D02*
X268809523Y9871429D01*
X268809523Y9347620D02*
X268809523Y10347620D01*
X269190476Y10347620D02*
X269809523Y10347620D01*
X269476190Y9966667D01*
X269619047Y9966667D01*
X269714285Y9919048D01*
X269761904Y9871429D01*
X269809523Y9776191D01*
X269809523Y9538096D01*
X269761904Y9442858D01*
X269714285Y9395239D01*
X269619047Y9347620D01*
X269333333Y9347620D01*
X269238095Y9395239D01*
X269190476Y9442858D01*
%TO.C,J4*%
X84007380Y17266667D02*
X84721666Y17266667D01*
X84864523Y17219048D01*
X84959761Y17123810D01*
X85007380Y16980953D01*
X85007380Y16885715D01*
X84340714Y18171429D02*
X85007380Y18171429D01*
X83959761Y17933334D02*
X84674047Y17695239D01*
X84674047Y18314286D01*
%TO.C,J2*%
X84007380Y95266667D02*
X84721666Y95266667D01*
X84864523Y95219048D01*
X84959761Y95123810D01*
X85007380Y94980953D01*
X85007380Y94885715D01*
X84102619Y95695239D02*
X84055000Y95742858D01*
X84007380Y95838096D01*
X84007380Y96076191D01*
X84055000Y96171429D01*
X84102619Y96219048D01*
X84197857Y96266667D01*
X84293095Y96266667D01*
X84435952Y96219048D01*
X85007380Y95647620D01*
X85007380Y96266667D01*
%TO.C,A1*%
X268666666Y176185715D02*
X268666666Y176661905D01*
X268952380Y176090477D02*
X267952380Y176423810D01*
X268952380Y176757143D01*
X268952380Y177614286D02*
X268952380Y177042858D01*
X268952380Y177328572D02*
X267952380Y177328572D01*
X268095238Y177233334D01*
X268190476Y177138096D01*
X268238095Y177042858D01*
%TO.C,H1*%
X5238095Y174347620D02*
X5238095Y175347620D01*
X5238095Y174871429D02*
X5809523Y174871429D01*
X5809523Y174347620D02*
X5809523Y175347620D01*
X6809523Y174347620D02*
X6238095Y174347620D01*
X6523809Y174347620D02*
X6523809Y175347620D01*
X6428571Y175204762D01*
X6333333Y175109524D01*
X6238095Y175061905D01*
%TO.C,H4*%
X5238095Y9347620D02*
X5238095Y10347620D01*
X5238095Y9871429D02*
X5809523Y9871429D01*
X5809523Y9347620D02*
X5809523Y10347620D01*
X6714285Y10014286D02*
X6714285Y9347620D01*
X6476190Y10395239D02*
X6238095Y9680953D01*
X6857142Y9680953D01*
%TO.C,J5*%
X190632223Y37266667D02*
X191346509Y37266667D01*
X191489366Y37219048D01*
X191584604Y37123810D01*
X191632223Y36980953D01*
X191632223Y36885715D01*
X190632223Y38219048D02*
X190632223Y37742858D01*
X191108414Y37695239D01*
X191060795Y37742858D01*
X191013176Y37838096D01*
X191013176Y38076191D01*
X191060795Y38171429D01*
X191108414Y38219048D01*
X191203652Y38266667D01*
X191441747Y38266667D01*
X191536985Y38219048D01*
X191584604Y38171429D01*
X191632223Y38076191D01*
X191632223Y37838096D01*
X191584604Y37742858D01*
X191536985Y37695239D01*
%TO.C,J8*%
X190632223Y154266667D02*
X191346509Y154266667D01*
X191489366Y154219048D01*
X191584604Y154123810D01*
X191632223Y153980953D01*
X191632223Y153885715D01*
X191060795Y154885715D02*
X191013176Y154790477D01*
X190965557Y154742858D01*
X190870319Y154695239D01*
X190822700Y154695239D01*
X190727462Y154742858D01*
X190679843Y154790477D01*
X190632223Y154885715D01*
X190632223Y155076191D01*
X190679843Y155171429D01*
X190727462Y155219048D01*
X190822700Y155266667D01*
X190870319Y155266667D01*
X190965557Y155219048D01*
X191013176Y155171429D01*
X191060795Y155076191D01*
X191060795Y154885715D01*
X191108414Y154790477D01*
X191156033Y154742858D01*
X191251271Y154695239D01*
X191441747Y154695239D01*
X191536985Y154742858D01*
X191584604Y154790477D01*
X191632223Y154885715D01*
X191632223Y155076191D01*
X191584604Y155171429D01*
X191536985Y155219048D01*
X191441747Y155266667D01*
X191251271Y155266667D01*
X191156033Y155219048D01*
X191108414Y155171429D01*
X191060795Y155076191D01*
%TO.C,J9*%
X192234323Y178787620D02*
X192234323Y178073334D01*
X192186704Y177930477D01*
X192091466Y177835239D01*
X191948609Y177787620D01*
X191853371Y177787620D01*
X192758133Y177787620D02*
X192948609Y177787620D01*
X193043847Y177835239D01*
X193091466Y177882858D01*
X193186704Y178025715D01*
X193234323Y178216191D01*
X193234323Y178597143D01*
X193186704Y178692381D01*
X193139085Y178740000D01*
X193043847Y178787620D01*
X192853371Y178787620D01*
X192758133Y178740000D01*
X192710514Y178692381D01*
X192662895Y178597143D01*
X192662895Y178359048D01*
X192710514Y178263810D01*
X192758133Y178216191D01*
X192853371Y178168572D01*
X193043847Y178168572D01*
X193139085Y178216191D01*
X193186704Y178263810D01*
X193234323Y178359048D01*
%TO.C,H2*%
X268238095Y197347620D02*
X268238095Y198347620D01*
X268238095Y197871429D02*
X268809523Y197871429D01*
X268809523Y197347620D02*
X268809523Y198347620D01*
X269238095Y198252381D02*
X269285714Y198300000D01*
X269380952Y198347620D01*
X269619047Y198347620D01*
X269714285Y198300000D01*
X269761904Y198252381D01*
X269809523Y198157143D01*
X269809523Y198061905D01*
X269761904Y197919048D01*
X269190476Y197347620D01*
X269809523Y197347620D01*
%TO.C,J6*%
X190632223Y76266667D02*
X191346509Y76266667D01*
X191489366Y76219048D01*
X191584604Y76123810D01*
X191632223Y75980953D01*
X191632223Y75885715D01*
X190632223Y77171429D02*
X190632223Y76980953D01*
X190679843Y76885715D01*
X190727462Y76838096D01*
X190870319Y76742858D01*
X191060795Y76695239D01*
X191441747Y76695239D01*
X191536985Y76742858D01*
X191584604Y76790477D01*
X191632223Y76885715D01*
X191632223Y77076191D01*
X191584604Y77171429D01*
X191536985Y77219048D01*
X191441747Y77266667D01*
X191203652Y77266667D01*
X191108414Y77219048D01*
X191060795Y77171429D01*
X191013176Y77076191D01*
X191013176Y76885715D01*
X191060795Y76790477D01*
X191108414Y76742858D01*
X191203652Y76695239D01*
%TO.C,J7*%
X190632223Y116266667D02*
X191346509Y116266667D01*
X191489366Y116219048D01*
X191584604Y116123810D01*
X191632223Y115980953D01*
X191632223Y115885715D01*
X190632223Y116647620D02*
X190632223Y117314286D01*
X191632223Y116885715D01*
%TO.C,J3*%
X84007380Y56266667D02*
X84721666Y56266667D01*
X84864523Y56219048D01*
X84959761Y56123810D01*
X85007380Y55980953D01*
X85007380Y55885715D01*
X84007380Y56647620D02*
X84007380Y57266667D01*
X84388333Y56933334D01*
X84388333Y57076191D01*
X84435952Y57171429D01*
X84483571Y57219048D01*
X84578809Y57266667D01*
X84816904Y57266667D01*
X84912142Y57219048D01*
X84959761Y57171429D01*
X85007380Y57076191D01*
X85007380Y56790477D01*
X84959761Y56695239D01*
X84912142Y56647620D01*
%TO.C,J1*%
X84007380Y134266667D02*
X84721666Y134266667D01*
X84864523Y134219048D01*
X84959761Y134123810D01*
X85007380Y133980953D01*
X85007380Y133885715D01*
X85007380Y135266667D02*
X85007380Y134695239D01*
X85007380Y134980953D02*
X84007380Y134980953D01*
X84150238Y134885715D01*
X84245476Y134790477D01*
X84293095Y134695239D01*
%TO.C,J10*%
X209690476Y181302620D02*
X209690476Y180588334D01*
X209642857Y180445477D01*
X209547619Y180350239D01*
X209404761Y180302620D01*
X209309523Y180302620D01*
X210690476Y180302620D02*
X210119047Y180302620D01*
X210404761Y180302620D02*
X210404761Y181302620D01*
X210309523Y181159762D01*
X210214285Y181064524D01*
X210119047Y181016905D01*
X211309523Y181302620D02*
X211404761Y181302620D01*
X211500000Y181255000D01*
X211547619Y181207381D01*
X211595238Y181112143D01*
X211642857Y180921667D01*
X211642857Y180683572D01*
X211595238Y180493096D01*
X211547619Y180397858D01*
X211500000Y180350239D01*
X211404761Y180302620D01*
X211309523Y180302620D01*
X211214285Y180350239D01*
X211166666Y180397858D01*
X211119047Y180493096D01*
X211071428Y180683572D01*
X211071428Y180921667D01*
X211119047Y181112143D01*
X211166666Y181207381D01*
X211214285Y181255000D01*
X211309523Y181302620D01*
D13*
%TO.C,J4*%
X82225000Y18930000D02*
X83555000Y18930000D01*
X80955000Y18930000D02*
X58035000Y18930000D01*
X83555000Y18930000D02*
X83555000Y17600000D01*
X80955000Y18930000D02*
X80955000Y16270000D01*
X58035000Y18930000D02*
X58035000Y16270000D01*
X80955000Y16270000D02*
X58035000Y16270000D01*
%TO.C,J2*%
X58035000Y96930000D02*
X58035000Y94270000D01*
X80955000Y96930000D02*
X58035000Y96930000D01*
X80955000Y96930000D02*
X80955000Y94270000D01*
X82225000Y96930000D02*
X83555000Y96930000D01*
X83555000Y96930000D02*
X83555000Y95600000D01*
X80955000Y94270000D02*
X58035000Y94270000D01*
%TO.C,A1*%
X264950000Y167890000D02*
X264950000Y185930000D01*
X226720000Y167890000D02*
X264950000Y167890000D01*
X221510000Y185930000D02*
X221510000Y167890000D01*
X224180000Y183260000D02*
X262280000Y183260000D01*
X224180000Y170560000D02*
X224180000Y167890000D01*
X264950000Y185930000D02*
X221510000Y185930000D01*
X226720000Y170560000D02*
X262280000Y170560000D01*
X262280000Y183260000D02*
X262280000Y185930000D01*
X226720000Y170560000D02*
X226720000Y167890000D01*
X262280000Y170560000D02*
X262280000Y167890000D01*
X226720000Y170560000D02*
X224180000Y170560000D01*
X221510000Y167890000D02*
X224180000Y167890000D01*
X224180000Y183260000D02*
X224180000Y185930000D01*
%TO.C,J5*%
X217699843Y36270000D02*
X217699843Y38930000D01*
X192179843Y36270000D02*
X192179843Y37600000D01*
X194779843Y36270000D02*
X194779843Y38930000D01*
X193509843Y36270000D02*
X192179843Y36270000D01*
X194779843Y36270000D02*
X217699843Y36270000D01*
X194779843Y38930000D02*
X217699843Y38930000D01*
%TO.C,J8*%
X193509843Y153270000D02*
X192179843Y153270000D01*
X194779843Y153270000D02*
X217699843Y153270000D01*
X217699843Y153270000D02*
X217699843Y155930000D01*
X192179843Y153270000D02*
X192179843Y154600000D01*
X194779843Y155930000D02*
X217699843Y155930000D01*
X194779843Y153270000D02*
X194779843Y155930000D01*
%TO.C,J9*%
X197627657Y179239000D02*
X187507657Y179239000D01*
X197867657Y188660000D02*
X197867657Y189400000D01*
X188792657Y183431000D02*
X188839657Y183477000D01*
X197627657Y188600000D02*
X187507657Y188600000D01*
X191294657Y185523000D02*
X191341657Y185569000D01*
X188997657Y183225000D02*
X189032657Y183261000D01*
X197867657Y189400000D02*
X197367657Y189400000D01*
X197627657Y179239000D02*
X197627657Y189160000D01*
X197627657Y189160000D02*
X187507657Y189160000D01*
X187507657Y179239000D02*
X187507657Y189160000D01*
X197627657Y187100000D02*
X187507657Y187100000D01*
X191101657Y185739000D02*
X191136657Y185774000D01*
X197627657Y182199000D02*
X187507657Y182199000D01*
X195067657Y186180000D02*
G75*
G03*
X194384339Y186034756I0J-1680000D01*
G01*
X194383657Y182965000D02*
G75*
G03*
X195750699Y182964573I684001J1534993D01*
G01*
X196602657Y183816000D02*
G75*
G03*
X196603084Y185183042I-1534993J684001D01*
G01*
X193532656Y185184000D02*
G75*
G03*
X193532230Y183816958I1535001J-684000D01*
G01*
X195751657Y186035000D02*
G75*
G03*
X195038852Y186180253I-683999J-1535001D01*
G01*
X191747657Y184500000D02*
G75*
G03*
X191747657Y184500000I-1680000J0D01*
G01*
%TO.C,J6*%
X194779843Y77930000D02*
X217699843Y77930000D01*
X193509843Y75270000D02*
X192179843Y75270000D01*
X194779843Y75270000D02*
X194779843Y77930000D01*
X192179843Y75270000D02*
X192179843Y76600000D01*
X217699843Y75270000D02*
X217699843Y77930000D01*
X194779843Y75270000D02*
X217699843Y75270000D01*
%TO.C,J7*%
X194779843Y117930000D02*
X217699843Y117930000D01*
X193509843Y115270000D02*
X192179843Y115270000D01*
X194779843Y115270000D02*
X194779843Y117930000D01*
X192179843Y115270000D02*
X192179843Y116600000D01*
X194779843Y115270000D02*
X217699843Y115270000D01*
X217699843Y115270000D02*
X217699843Y117930000D01*
%TO.C,Logo1*%
G36*
X257055814Y8031069D02*
G01*
X257139635Y7586445D01*
X257448920Y7458947D01*
X257758206Y7331449D01*
X258129246Y7583754D01*
X258233157Y7654004D01*
X258327087Y7716728D01*
X258406652Y7769062D01*
X258467470Y7808143D01*
X258505157Y7831107D01*
X258515421Y7836058D01*
X258533910Y7823324D01*
X258573420Y7788118D01*
X258629522Y7734938D01*
X258697787Y7668282D01*
X258773786Y7592646D01*
X258853092Y7512528D01*
X258931275Y7432426D01*
X259003907Y7356836D01*
X259066559Y7290255D01*
X259114803Y7237182D01*
X259144210Y7202113D01*
X259151241Y7190377D01*
X259141123Y7168740D01*
X259112759Y7121338D01*
X259069129Y7052807D01*
X259013218Y6967785D01*
X258948006Y6870907D01*
X258910219Y6815650D01*
X258841343Y6714752D01*
X258780140Y6623701D01*
X258729578Y6547030D01*
X258692628Y6489272D01*
X258672258Y6454957D01*
X258669197Y6447746D01*
X258676136Y6427252D01*
X258695051Y6379487D01*
X258723087Y6311168D01*
X258757391Y6229011D01*
X258795109Y6139730D01*
X258833387Y6050042D01*
X258869370Y5966662D01*
X258900206Y5896306D01*
X258923039Y5845690D01*
X258935017Y5821529D01*
X258935724Y5820578D01*
X258954531Y5815964D01*
X259004618Y5805672D01*
X259080793Y5790713D01*
X259177865Y5772099D01*
X259290643Y5750841D01*
X259356442Y5738582D01*
X259476950Y5715638D01*
X259585797Y5693805D01*
X259677476Y5674278D01*
X259746481Y5658252D01*
X259787304Y5646921D01*
X259795511Y5643326D01*
X259803548Y5618994D01*
X259810033Y5564041D01*
X259814970Y5484892D01*
X259818364Y5387974D01*
X259820218Y5279713D01*
X259820538Y5166535D01*
X259819327Y5054865D01*
X259816590Y4951132D01*
X259812331Y4861759D01*
X259806555Y4793174D01*
X259799267Y4751803D01*
X259794895Y4743190D01*
X259768764Y4732867D01*
X259713393Y4718108D01*
X259636107Y4700648D01*
X259544230Y4682220D01*
X259512158Y4676259D01*
X259357524Y4647934D01*
X259235375Y4625124D01*
X259141673Y4606920D01*
X259072384Y4592417D01*
X259023471Y4580708D01*
X258990897Y4570885D01*
X258970628Y4562044D01*
X258958626Y4553276D01*
X258956947Y4551543D01*
X258940184Y4523629D01*
X258914614Y4469305D01*
X258882788Y4395223D01*
X258847260Y4308035D01*
X258810583Y4214392D01*
X258775311Y4120948D01*
X258743996Y4034353D01*
X258719193Y3961260D01*
X258703454Y3908322D01*
X258699332Y3882189D01*
X258699676Y3881274D01*
X258713641Y3859914D01*
X258745322Y3812916D01*
X258791391Y3745173D01*
X258848518Y3661577D01*
X258913373Y3567018D01*
X258931843Y3540146D01*
X258997699Y3442725D01*
X259055650Y3353837D01*
X259102538Y3278588D01*
X259135207Y3222080D01*
X259150500Y3189419D01*
X259151241Y3185407D01*
X259138392Y3164316D01*
X259102888Y3122536D01*
X259049293Y3064555D01*
X258982171Y2994865D01*
X258906087Y2917955D01*
X258825604Y2838317D01*
X258745287Y2760439D01*
X258669699Y2688814D01*
X258603405Y2627930D01*
X258550969Y2582279D01*
X258516955Y2556350D01*
X258507545Y2552117D01*
X258485643Y2562088D01*
X258440800Y2588980D01*
X258380321Y2628264D01*
X258333789Y2659883D01*
X258249475Y2717902D01*
X258149626Y2786216D01*
X258049473Y2854421D01*
X257995627Y2890925D01*
X257813371Y3014200D01*
X257660381Y2931480D01*
X257590682Y2895241D01*
X257531414Y2867074D01*
X257491311Y2851009D01*
X257481103Y2848774D01*
X257468829Y2865278D01*
X257444613Y2911918D01*
X257410263Y2984391D01*
X257367588Y3078394D01*
X257318394Y3189626D01*
X257264490Y3313785D01*
X257207684Y3446568D01*
X257149782Y3583673D01*
X257092593Y3720798D01*
X257037924Y3853642D01*
X256987584Y3977902D01*
X256943380Y4089275D01*
X256907119Y4183461D01*
X256880609Y4256156D01*
X256865658Y4303059D01*
X256863254Y4319167D01*
X256882311Y4339714D01*
X256924036Y4373067D01*
X256979706Y4412298D01*
X256984378Y4415401D01*
X257128264Y4530577D01*
X257244283Y4664947D01*
X257331430Y4814216D01*
X257388699Y4974087D01*
X257415086Y5140263D01*
X257409585Y5308448D01*
X257371190Y5474345D01*
X257298895Y5633658D01*
X257277626Y5668513D01*
X257166996Y5809263D01*
X257036302Y5922286D01*
X256890064Y6006997D01*
X256732808Y6062806D01*
X256569057Y6089126D01*
X256403333Y6085370D01*
X256240162Y6050950D01*
X256084065Y5985277D01*
X255939567Y5887765D01*
X255894869Y5848187D01*
X255781112Y5724297D01*
X255698218Y5593876D01*
X255641356Y5447685D01*
X255609687Y5302912D01*
X255601869Y5140140D01*
X255627938Y4976560D01*
X255685245Y4817702D01*
X255771144Y4669094D01*
X255882986Y4536265D01*
X256018123Y4424744D01*
X256035883Y4412989D01*
X256092150Y4374492D01*
X256134923Y4341137D01*
X256155372Y4319840D01*
X256155669Y4319167D01*
X256151279Y4296129D01*
X256133876Y4243843D01*
X256105268Y4166610D01*
X256067265Y4068732D01*
X256021674Y3954509D01*
X255970303Y3828242D01*
X255914962Y3694233D01*
X255857458Y3556782D01*
X255799601Y3420192D01*
X255743198Y3288763D01*
X255690058Y3166795D01*
X255641990Y3058591D01*
X255600801Y2968451D01*
X255568301Y2900677D01*
X255546297Y2859570D01*
X255537436Y2848774D01*
X255510360Y2857181D01*
X255459697Y2879728D01*
X255394183Y2912387D01*
X255358159Y2931480D01*
X255205168Y3014200D01*
X255022912Y2890925D01*
X254929875Y2827772D01*
X254828015Y2758273D01*
X254732562Y2692835D01*
X254684750Y2659883D01*
X254617505Y2614727D01*
X254560564Y2578943D01*
X254521354Y2557062D01*
X254508619Y2552437D01*
X254490083Y2564915D01*
X254449059Y2599748D01*
X254389525Y2653322D01*
X254315458Y2722017D01*
X254230835Y2802219D01*
X254177315Y2853714D01*
X254083681Y2945714D01*
X254002759Y3028001D01*
X253937823Y3097055D01*
X253892142Y3149356D01*
X253868989Y3181384D01*
X253866768Y3187884D01*
X253877076Y3212606D01*
X253905561Y3262595D01*
X253949063Y3332788D01*
X254004423Y3418125D01*
X254068480Y3513544D01*
X254086697Y3540146D01*
X254153073Y3636833D01*
X254212622Y3723883D01*
X254262016Y3796405D01*
X254297925Y3849507D01*
X254317019Y3878297D01*
X254318864Y3881274D01*
X254316105Y3904218D01*
X254301462Y3954664D01*
X254277487Y4025959D01*
X254246734Y4111453D01*
X254211756Y4204493D01*
X254175107Y4298426D01*
X254139339Y4386601D01*
X254107006Y4462366D01*
X254080662Y4519069D01*
X254062858Y4550057D01*
X254061593Y4551543D01*
X254050706Y4560399D01*
X254032318Y4569157D01*
X254002394Y4578723D01*
X253956897Y4590004D01*
X253891791Y4603907D01*
X253803039Y4621337D01*
X253686607Y4643202D01*
X253538458Y4670409D01*
X253506382Y4676259D01*
X253411314Y4694626D01*
X253328435Y4712595D01*
X253265070Y4728431D01*
X253228542Y4740400D01*
X253223644Y4743190D01*
X253215573Y4767928D01*
X253209013Y4823210D01*
X253203967Y4902611D01*
X253200441Y4999704D01*
X253198439Y5108062D01*
X253197964Y5221260D01*
X253199023Y5332872D01*
X253201618Y5436471D01*
X253205754Y5525632D01*
X253211437Y5593928D01*
X253218669Y5634934D01*
X253223029Y5643326D01*
X253247302Y5651792D01*
X253302574Y5665565D01*
X253383338Y5683450D01*
X253484088Y5704252D01*
X253599317Y5726777D01*
X253662098Y5738582D01*
X253781213Y5760849D01*
X253887435Y5781021D01*
X253975573Y5798085D01*
X254040434Y5811031D01*
X254076826Y5818845D01*
X254082816Y5820578D01*
X254092939Y5840110D01*
X254114338Y5887157D01*
X254144161Y5954997D01*
X254179555Y6036909D01*
X254217668Y6126172D01*
X254255647Y6216065D01*
X254290640Y6299865D01*
X254319794Y6370853D01*
X254340257Y6422306D01*
X254349177Y6447503D01*
X254349343Y6448604D01*
X254339231Y6468481D01*
X254310883Y6514223D01*
X254267277Y6581283D01*
X254211394Y6665116D01*
X254146213Y6761174D01*
X254108321Y6816350D01*
X254039275Y6917519D01*
X253977950Y7009370D01*
X253927337Y7087256D01*
X253890429Y7146531D01*
X253870218Y7182549D01*
X253867299Y7190623D01*
X253879847Y7209416D01*
X253914537Y7249543D01*
X253966937Y7306507D01*
X254032616Y7375815D01*
X254107144Y7452969D01*
X254186087Y7533475D01*
X254265017Y7612837D01*
X254339500Y7686560D01*
X254405106Y7750148D01*
X254457404Y7799106D01*
X254491961Y7828939D01*
X254503522Y7836058D01*
X254522346Y7826047D01*
X254567369Y7797922D01*
X254634213Y7754546D01*
X254718501Y7698782D01*
X254815856Y7633494D01*
X254889293Y7583754D01*
X255260333Y7331449D01*
X255878905Y7586445D01*
X255962725Y8031069D01*
X256046546Y8475693D01*
X256971994Y8475693D01*
X257055814Y8031069D01*
G37*
D14*
X257055814Y8031069D02*
X257139635Y7586445D01*
X257448920Y7458947D01*
X257758206Y7331449D01*
X258129246Y7583754D01*
X258233157Y7654004D01*
X258327087Y7716728D01*
X258406652Y7769062D01*
X258467470Y7808143D01*
X258505157Y7831107D01*
X258515421Y7836058D01*
X258533910Y7823324D01*
X258573420Y7788118D01*
X258629522Y7734938D01*
X258697787Y7668282D01*
X258773786Y7592646D01*
X258853092Y7512528D01*
X258931275Y7432426D01*
X259003907Y7356836D01*
X259066559Y7290255D01*
X259114803Y7237182D01*
X259144210Y7202113D01*
X259151241Y7190377D01*
X259141123Y7168740D01*
X259112759Y7121338D01*
X259069129Y7052807D01*
X259013218Y6967785D01*
X258948006Y6870907D01*
X258910219Y6815650D01*
X258841343Y6714752D01*
X258780140Y6623701D01*
X258729578Y6547030D01*
X258692628Y6489272D01*
X258672258Y6454957D01*
X258669197Y6447746D01*
X258676136Y6427252D01*
X258695051Y6379487D01*
X258723087Y6311168D01*
X258757391Y6229011D01*
X258795109Y6139730D01*
X258833387Y6050042D01*
X258869370Y5966662D01*
X258900206Y5896306D01*
X258923039Y5845690D01*
X258935017Y5821529D01*
X258935724Y5820578D01*
X258954531Y5815964D01*
X259004618Y5805672D01*
X259080793Y5790713D01*
X259177865Y5772099D01*
X259290643Y5750841D01*
X259356442Y5738582D01*
X259476950Y5715638D01*
X259585797Y5693805D01*
X259677476Y5674278D01*
X259746481Y5658252D01*
X259787304Y5646921D01*
X259795511Y5643326D01*
X259803548Y5618994D01*
X259810033Y5564041D01*
X259814970Y5484892D01*
X259818364Y5387974D01*
X259820218Y5279713D01*
X259820538Y5166535D01*
X259819327Y5054865D01*
X259816590Y4951132D01*
X259812331Y4861759D01*
X259806555Y4793174D01*
X259799267Y4751803D01*
X259794895Y4743190D01*
X259768764Y4732867D01*
X259713393Y4718108D01*
X259636107Y4700648D01*
X259544230Y4682220D01*
X259512158Y4676259D01*
X259357524Y4647934D01*
X259235375Y4625124D01*
X259141673Y4606920D01*
X259072384Y4592417D01*
X259023471Y4580708D01*
X258990897Y4570885D01*
X258970628Y4562044D01*
X258958626Y4553276D01*
X258956947Y4551543D01*
X258940184Y4523629D01*
X258914614Y4469305D01*
X258882788Y4395223D01*
X258847260Y4308035D01*
X258810583Y4214392D01*
X258775311Y4120948D01*
X258743996Y4034353D01*
X258719193Y3961260D01*
X258703454Y3908322D01*
X258699332Y3882189D01*
X258699676Y3881274D01*
X258713641Y3859914D01*
X258745322Y3812916D01*
X258791391Y3745173D01*
X258848518Y3661577D01*
X258913373Y3567018D01*
X258931843Y3540146D01*
X258997699Y3442725D01*
X259055650Y3353837D01*
X259102538Y3278588D01*
X259135207Y3222080D01*
X259150500Y3189419D01*
X259151241Y3185407D01*
X259138392Y3164316D01*
X259102888Y3122536D01*
X259049293Y3064555D01*
X258982171Y2994865D01*
X258906087Y2917955D01*
X258825604Y2838317D01*
X258745287Y2760439D01*
X258669699Y2688814D01*
X258603405Y2627930D01*
X258550969Y2582279D01*
X258516955Y2556350D01*
X258507545Y2552117D01*
X258485643Y2562088D01*
X258440800Y2588980D01*
X258380321Y2628264D01*
X258333789Y2659883D01*
X258249475Y2717902D01*
X258149626Y2786216D01*
X258049473Y2854421D01*
X257995627Y2890925D01*
X257813371Y3014200D01*
X257660381Y2931480D01*
X257590682Y2895241D01*
X257531414Y2867074D01*
X257491311Y2851009D01*
X257481103Y2848774D01*
X257468829Y2865278D01*
X257444613Y2911918D01*
X257410263Y2984391D01*
X257367588Y3078394D01*
X257318394Y3189626D01*
X257264490Y3313785D01*
X257207684Y3446568D01*
X257149782Y3583673D01*
X257092593Y3720798D01*
X257037924Y3853642D01*
X256987584Y3977902D01*
X256943380Y4089275D01*
X256907119Y4183461D01*
X256880609Y4256156D01*
X256865658Y4303059D01*
X256863254Y4319167D01*
X256882311Y4339714D01*
X256924036Y4373067D01*
X256979706Y4412298D01*
X256984378Y4415401D01*
X257128264Y4530577D01*
X257244283Y4664947D01*
X257331430Y4814216D01*
X257388699Y4974087D01*
X257415086Y5140263D01*
X257409585Y5308448D01*
X257371190Y5474345D01*
X257298895Y5633658D01*
X257277626Y5668513D01*
X257166996Y5809263D01*
X257036302Y5922286D01*
X256890064Y6006997D01*
X256732808Y6062806D01*
X256569057Y6089126D01*
X256403333Y6085370D01*
X256240162Y6050950D01*
X256084065Y5985277D01*
X255939567Y5887765D01*
X255894869Y5848187D01*
X255781112Y5724297D01*
X255698218Y5593876D01*
X255641356Y5447685D01*
X255609687Y5302912D01*
X255601869Y5140140D01*
X255627938Y4976560D01*
X255685245Y4817702D01*
X255771144Y4669094D01*
X255882986Y4536265D01*
X256018123Y4424744D01*
X256035883Y4412989D01*
X256092150Y4374492D01*
X256134923Y4341137D01*
X256155372Y4319840D01*
X256155669Y4319167D01*
X256151279Y4296129D01*
X256133876Y4243843D01*
X256105268Y4166610D01*
X256067265Y4068732D01*
X256021674Y3954509D01*
X255970303Y3828242D01*
X255914962Y3694233D01*
X255857458Y3556782D01*
X255799601Y3420192D01*
X255743198Y3288763D01*
X255690058Y3166795D01*
X255641990Y3058591D01*
X255600801Y2968451D01*
X255568301Y2900677D01*
X255546297Y2859570D01*
X255537436Y2848774D01*
X255510360Y2857181D01*
X255459697Y2879728D01*
X255394183Y2912387D01*
X255358159Y2931480D01*
X255205168Y3014200D01*
X255022912Y2890925D01*
X254929875Y2827772D01*
X254828015Y2758273D01*
X254732562Y2692835D01*
X254684750Y2659883D01*
X254617505Y2614727D01*
X254560564Y2578943D01*
X254521354Y2557062D01*
X254508619Y2552437D01*
X254490083Y2564915D01*
X254449059Y2599748D01*
X254389525Y2653322D01*
X254315458Y2722017D01*
X254230835Y2802219D01*
X254177315Y2853714D01*
X254083681Y2945714D01*
X254002759Y3028001D01*
X253937823Y3097055D01*
X253892142Y3149356D01*
X253868989Y3181384D01*
X253866768Y3187884D01*
X253877076Y3212606D01*
X253905561Y3262595D01*
X253949063Y3332788D01*
X254004423Y3418125D01*
X254068480Y3513544D01*
X254086697Y3540146D01*
X254153073Y3636833D01*
X254212622Y3723883D01*
X254262016Y3796405D01*
X254297925Y3849507D01*
X254317019Y3878297D01*
X254318864Y3881274D01*
X254316105Y3904218D01*
X254301462Y3954664D01*
X254277487Y4025959D01*
X254246734Y4111453D01*
X254211756Y4204493D01*
X254175107Y4298426D01*
X254139339Y4386601D01*
X254107006Y4462366D01*
X254080662Y4519069D01*
X254062858Y4550057D01*
X254061593Y4551543D01*
X254050706Y4560399D01*
X254032318Y4569157D01*
X254002394Y4578723D01*
X253956897Y4590004D01*
X253891791Y4603907D01*
X253803039Y4621337D01*
X253686607Y4643202D01*
X253538458Y4670409D01*
X253506382Y4676259D01*
X253411314Y4694626D01*
X253328435Y4712595D01*
X253265070Y4728431D01*
X253228542Y4740400D01*
X253223644Y4743190D01*
X253215573Y4767928D01*
X253209013Y4823210D01*
X253203967Y4902611D01*
X253200441Y4999704D01*
X253198439Y5108062D01*
X253197964Y5221260D01*
X253199023Y5332872D01*
X253201618Y5436471D01*
X253205754Y5525632D01*
X253211437Y5593928D01*
X253218669Y5634934D01*
X253223029Y5643326D01*
X253247302Y5651792D01*
X253302574Y5665565D01*
X253383338Y5683450D01*
X253484088Y5704252D01*
X253599317Y5726777D01*
X253662098Y5738582D01*
X253781213Y5760849D01*
X253887435Y5781021D01*
X253975573Y5798085D01*
X254040434Y5811031D01*
X254076826Y5818845D01*
X254082816Y5820578D01*
X254092939Y5840110D01*
X254114338Y5887157D01*
X254144161Y5954997D01*
X254179555Y6036909D01*
X254217668Y6126172D01*
X254255647Y6216065D01*
X254290640Y6299865D01*
X254319794Y6370853D01*
X254340257Y6422306D01*
X254349177Y6447503D01*
X254349343Y6448604D01*
X254339231Y6468481D01*
X254310883Y6514223D01*
X254267277Y6581283D01*
X254211394Y6665116D01*
X254146213Y6761174D01*
X254108321Y6816350D01*
X254039275Y6917519D01*
X253977950Y7009370D01*
X253927337Y7087256D01*
X253890429Y7146531D01*
X253870218Y7182549D01*
X253867299Y7190623D01*
X253879847Y7209416D01*
X253914537Y7249543D01*
X253966937Y7306507D01*
X254032616Y7375815D01*
X254107144Y7452969D01*
X254186087Y7533475D01*
X254265017Y7612837D01*
X254339500Y7686560D01*
X254405106Y7750148D01*
X254457404Y7799106D01*
X254491961Y7828939D01*
X254503522Y7836058D01*
X254522346Y7826047D01*
X254567369Y7797922D01*
X254634213Y7754546D01*
X254718501Y7698782D01*
X254815856Y7633494D01*
X254889293Y7583754D01*
X255260333Y7331449D01*
X255878905Y7586445D01*
X255962725Y8031069D01*
X256046546Y8475693D01*
X256971994Y8475693D01*
X257055814Y8031069D01*
D13*
%TO.C,J3*%
X80955000Y57930000D02*
X80955000Y55270000D01*
X83555000Y57930000D02*
X83555000Y56600000D01*
X82225000Y57930000D02*
X83555000Y57930000D01*
X80955000Y57930000D02*
X58035000Y57930000D01*
X58035000Y57930000D02*
X58035000Y55270000D01*
X80955000Y55270000D02*
X58035000Y55270000D01*
%TO.C,J1*%
X80955000Y135930000D02*
X80955000Y133270000D01*
X80955000Y135930000D02*
X58035000Y135930000D01*
X80955000Y133270000D02*
X58035000Y133270000D01*
X82225000Y135930000D02*
X83555000Y135930000D01*
X83555000Y135930000D02*
X83555000Y134600000D01*
X58035000Y135930000D02*
X58035000Y133270000D01*
%TO.C,J10*%
X209170000Y177155000D02*
X211830000Y177155000D01*
X209170000Y177155000D02*
X209170000Y172015000D01*
X211830000Y177155000D02*
X211830000Y172015000D01*
X209170000Y172015000D02*
X211830000Y172015000D01*
X209170000Y178425000D02*
X209170000Y179755000D01*
X209170000Y179755000D02*
X210500000Y179755000D01*
%TD*%
M02*
