M48
; DRILL file {KiCad (6.0.4)} date Mon Jul 24 14:01:26 2023
; FORMAT={-:-/ absolute / inch / decimal}
; #@! TF.CreationDate,2023-07-24T14:01:26-04:00
; #@! TF.GenerationSoftware,Kicad,Pcbnew,(6.0.4)
; #@! TF.FileFunction,Plated,1,2,PTH
FMAT,2
INCH
; #@! TA.AperFunction,Plated,PTH,ComponentDrill
T1C0.0394
; #@! TA.AperFunction,Plated,PTH,ComponentDrill
T2C0.0512
; #@! TA.AperFunction,Plated,PTH,ComponentDrill
T3C0.1260
%
G90
G05
T1
X2.3372Y5.2992
X2.3372Y3.7638
X2.3372Y2.2283
X2.3372Y0.6929
X2.4372Y5.2992
X2.4372Y3.7638
X2.4372Y2.2283
X2.4372Y0.6929
X2.5372Y5.2992
X2.5372Y3.7638
X2.5372Y2.2283
X2.5372Y0.6929
X2.6372Y5.2992
X2.6372Y3.7638
X2.6372Y2.2283
X2.6372Y0.6929
X2.7372Y5.2992
X2.7372Y3.7638
X2.7372Y2.2283
X2.7372Y0.6929
X2.8372Y5.2992
X2.8372Y3.7638
X2.8372Y2.2283
X2.8372Y0.6929
X2.9372Y5.2992
X2.9372Y3.7638
X2.9372Y2.2283
X2.9372Y0.6929
X3.0372Y5.2992
X3.0372Y3.7638
X3.0372Y2.2283
X3.0372Y0.6929
X3.1372Y5.2992
X3.1372Y3.7638
X3.1372Y2.2283
X3.1372Y0.6929
X3.2372Y5.2992
X3.2372Y3.7638
X3.2372Y2.2283
X3.2372Y0.6929
X7.6185Y6.0866
X7.6185Y4.5906
X7.6185Y3.0157
X7.6185Y1.4803
X7.7185Y6.0866
X7.7185Y4.5906
X7.7185Y3.0157
X7.7185Y1.4803
X7.8185Y6.0866
X7.8185Y4.5906
X7.8185Y3.0157
X7.8185Y1.4803
X7.9185Y6.0866
X7.9185Y4.5906
X7.9185Y3.0157
X7.9185Y1.4803
X8.0185Y6.0866
X8.0185Y4.5906
X8.0185Y3.0157
X8.0185Y1.4803
X8.1185Y6.0866
X8.1185Y4.5906
X8.1185Y3.0157
X8.1185Y1.4803
X8.2185Y6.0866
X8.2185Y4.5906
X8.2185Y3.0157
X8.2185Y1.4803
X8.2874Y7.0246
X8.2874Y6.9246
X8.2874Y6.8246
X8.3185Y6.0866
X8.3185Y4.5906
X8.3185Y3.0157
X8.3185Y1.4803
X8.4185Y6.0866
X8.4185Y4.5906
X8.4185Y3.0157
X8.4185Y1.4803
X8.5185Y6.0866
X8.5185Y4.5906
X8.5185Y3.0157
X8.5185Y1.4803
X8.876Y7.265
X8.876Y6.665
X8.976Y7.265
X8.976Y6.665
X9.076Y7.265
X9.076Y6.665
X9.176Y7.265
X9.176Y6.665
X9.276Y7.265
X9.276Y6.665
X9.376Y7.265
X9.376Y6.665
X9.476Y7.265
X9.476Y6.665
X9.576Y7.265
X9.576Y6.665
X9.676Y7.265
X9.676Y6.665
X9.776Y7.265
X9.776Y6.665
X9.876Y7.265
X9.876Y6.665
X9.976Y7.265
X9.976Y6.665
X10.076Y7.265
X10.076Y6.665
X10.176Y7.265
X10.176Y6.665
X10.276Y7.265
X10.276Y6.665
T2
X7.483Y7.2638
X7.6798Y7.2638
T3
X0.2362Y6.7323
X0.2362Y0.2362
X10.5906Y7.6378
X10.5906Y0.2362
T0
M30
