%TF.GenerationSoftware,KiCad,Pcbnew,(6.0.4)*%
%TF.CreationDate,2023-07-24T12:51:13-04:00*%
%TF.ProjectId,BREAD_Slice,42524541-445f-4536-9c69-63652e6b6963,rev?*%
%TF.SameCoordinates,Original*%
%TF.FileFunction,Legend,Bot*%
%TF.FilePolarity,Positive*%
%FSLAX46Y46*%
G04 Gerber Fmt 4.6, Leading zero omitted, Abs format (unit mm)*
G04 Created by KiCad (PCBNEW (6.0.4)) date 2023-07-24 12:51:13*
%MOMM*%
%LPD*%
G01*
G04 APERTURE LIST*
%ADD10C,0.150000*%
%ADD11C,0.120000*%
G04 APERTURE END LIST*
D10*
%TO.C,C2*%
X162437666Y-102184142D02*
X162485285Y-102231761D01*
X162628142Y-102279380D01*
X162723380Y-102279380D01*
X162866238Y-102231761D01*
X162961476Y-102136523D01*
X163009095Y-102041285D01*
X163056714Y-101850809D01*
X163056714Y-101707952D01*
X163009095Y-101517476D01*
X162961476Y-101422238D01*
X162866238Y-101327000D01*
X162723380Y-101279380D01*
X162628142Y-101279380D01*
X162485285Y-101327000D01*
X162437666Y-101374619D01*
X162056714Y-101374619D02*
X162009095Y-101327000D01*
X161913857Y-101279380D01*
X161675761Y-101279380D01*
X161580523Y-101327000D01*
X161532904Y-101374619D01*
X161485285Y-101469857D01*
X161485285Y-101565095D01*
X161532904Y-101707952D01*
X162104333Y-102279380D01*
X161485285Y-102279380D01*
%TO.C,C1*%
X162564666Y-97739142D02*
X162612285Y-97786761D01*
X162755142Y-97834380D01*
X162850380Y-97834380D01*
X162993238Y-97786761D01*
X163088476Y-97691523D01*
X163136095Y-97596285D01*
X163183714Y-97405809D01*
X163183714Y-97262952D01*
X163136095Y-97072476D01*
X163088476Y-96977238D01*
X162993238Y-96882000D01*
X162850380Y-96834380D01*
X162755142Y-96834380D01*
X162612285Y-96882000D01*
X162564666Y-96929619D01*
X161612285Y-97834380D02*
X162183714Y-97834380D01*
X161898000Y-97834380D02*
X161898000Y-96834380D01*
X161993238Y-96977238D01*
X162088476Y-97072476D01*
X162183714Y-97120095D01*
%TO.C,C3*%
X175082142Y-127314333D02*
X175129761Y-127266714D01*
X175177380Y-127123857D01*
X175177380Y-127028619D01*
X175129761Y-126885761D01*
X175034523Y-126790523D01*
X174939285Y-126742904D01*
X174748809Y-126695285D01*
X174605952Y-126695285D01*
X174415476Y-126742904D01*
X174320238Y-126790523D01*
X174225000Y-126885761D01*
X174177380Y-127028619D01*
X174177380Y-127123857D01*
X174225000Y-127266714D01*
X174272619Y-127314333D01*
X174177380Y-127647666D02*
X174177380Y-128266714D01*
X174558333Y-127933380D01*
X174558333Y-128076238D01*
X174605952Y-128171476D01*
X174653571Y-128219095D01*
X174748809Y-128266714D01*
X174986904Y-128266714D01*
X175082142Y-128219095D01*
X175129761Y-128171476D01*
X175177380Y-128076238D01*
X175177380Y-127790523D01*
X175129761Y-127695285D01*
X175082142Y-127647666D01*
%TO.C,C4*%
X168622142Y-127314333D02*
X168669761Y-127266714D01*
X168717380Y-127123857D01*
X168717380Y-127028619D01*
X168669761Y-126885761D01*
X168574523Y-126790523D01*
X168479285Y-126742904D01*
X168288809Y-126695285D01*
X168145952Y-126695285D01*
X167955476Y-126742904D01*
X167860238Y-126790523D01*
X167765000Y-126885761D01*
X167717380Y-127028619D01*
X167717380Y-127123857D01*
X167765000Y-127266714D01*
X167812619Y-127314333D01*
X168050714Y-128171476D02*
X168717380Y-128171476D01*
X167669761Y-127933380D02*
X168384047Y-127695285D01*
X168384047Y-128314333D01*
%TO.C,C5*%
X174900142Y-123123333D02*
X174947761Y-123075714D01*
X174995380Y-122932857D01*
X174995380Y-122837619D01*
X174947761Y-122694761D01*
X174852523Y-122599523D01*
X174757285Y-122551904D01*
X174566809Y-122504285D01*
X174423952Y-122504285D01*
X174233476Y-122551904D01*
X174138238Y-122599523D01*
X174043000Y-122694761D01*
X173995380Y-122837619D01*
X173995380Y-122932857D01*
X174043000Y-123075714D01*
X174090619Y-123123333D01*
X173995380Y-124028095D02*
X173995380Y-123551904D01*
X174471571Y-123504285D01*
X174423952Y-123551904D01*
X174376333Y-123647142D01*
X174376333Y-123885238D01*
X174423952Y-123980476D01*
X174471571Y-124028095D01*
X174566809Y-124075714D01*
X174804904Y-124075714D01*
X174900142Y-124028095D01*
X174947761Y-123980476D01*
X174995380Y-123885238D01*
X174995380Y-123647142D01*
X174947761Y-123551904D01*
X174900142Y-123504285D01*
%TO.C,C6*%
X168749142Y-121472333D02*
X168796761Y-121424714D01*
X168844380Y-121281857D01*
X168844380Y-121186619D01*
X168796761Y-121043761D01*
X168701523Y-120948523D01*
X168606285Y-120900904D01*
X168415809Y-120853285D01*
X168272952Y-120853285D01*
X168082476Y-120900904D01*
X167987238Y-120948523D01*
X167892000Y-121043761D01*
X167844380Y-121186619D01*
X167844380Y-121281857D01*
X167892000Y-121424714D01*
X167939619Y-121472333D01*
X167844380Y-122329476D02*
X167844380Y-122139000D01*
X167892000Y-122043761D01*
X167939619Y-121996142D01*
X168082476Y-121900904D01*
X168272952Y-121853285D01*
X168653904Y-121853285D01*
X168749142Y-121900904D01*
X168796761Y-121948523D01*
X168844380Y-122043761D01*
X168844380Y-122234238D01*
X168796761Y-122329476D01*
X168749142Y-122377095D01*
X168653904Y-122424714D01*
X168415809Y-122424714D01*
X168320571Y-122377095D01*
X168272952Y-122329476D01*
X168225333Y-122234238D01*
X168225333Y-122043761D01*
X168272952Y-121948523D01*
X168320571Y-121900904D01*
X168415809Y-121853285D01*
%TO.C,C7*%
X174646142Y-117027333D02*
X174693761Y-116979714D01*
X174741380Y-116836857D01*
X174741380Y-116741619D01*
X174693761Y-116598761D01*
X174598523Y-116503523D01*
X174503285Y-116455904D01*
X174312809Y-116408285D01*
X174169952Y-116408285D01*
X173979476Y-116455904D01*
X173884238Y-116503523D01*
X173789000Y-116598761D01*
X173741380Y-116741619D01*
X173741380Y-116836857D01*
X173789000Y-116979714D01*
X173836619Y-117027333D01*
X173741380Y-117360666D02*
X173741380Y-118027333D01*
X174741380Y-117598761D01*
%TO.C,C8*%
X168749142Y-115884333D02*
X168796761Y-115836714D01*
X168844380Y-115693857D01*
X168844380Y-115598619D01*
X168796761Y-115455761D01*
X168701523Y-115360523D01*
X168606285Y-115312904D01*
X168415809Y-115265285D01*
X168272952Y-115265285D01*
X168082476Y-115312904D01*
X167987238Y-115360523D01*
X167892000Y-115455761D01*
X167844380Y-115598619D01*
X167844380Y-115693857D01*
X167892000Y-115836714D01*
X167939619Y-115884333D01*
X168272952Y-116455761D02*
X168225333Y-116360523D01*
X168177714Y-116312904D01*
X168082476Y-116265285D01*
X168034857Y-116265285D01*
X167939619Y-116312904D01*
X167892000Y-116360523D01*
X167844380Y-116455761D01*
X167844380Y-116646238D01*
X167892000Y-116741476D01*
X167939619Y-116789095D01*
X168034857Y-116836714D01*
X168082476Y-116836714D01*
X168177714Y-116789095D01*
X168225333Y-116741476D01*
X168272952Y-116646238D01*
X168272952Y-116455761D01*
X168320571Y-116360523D01*
X168368190Y-116312904D01*
X168463428Y-116265285D01*
X168653904Y-116265285D01*
X168749142Y-116312904D01*
X168796761Y-116360523D01*
X168844380Y-116455761D01*
X168844380Y-116646238D01*
X168796761Y-116741476D01*
X168749142Y-116789095D01*
X168653904Y-116836714D01*
X168463428Y-116836714D01*
X168368190Y-116789095D01*
X168320571Y-116741476D01*
X168272952Y-116646238D01*
%TO.C,C9*%
X174900142Y-111185333D02*
X174947761Y-111137714D01*
X174995380Y-110994857D01*
X174995380Y-110899619D01*
X174947761Y-110756761D01*
X174852523Y-110661523D01*
X174757285Y-110613904D01*
X174566809Y-110566285D01*
X174423952Y-110566285D01*
X174233476Y-110613904D01*
X174138238Y-110661523D01*
X174043000Y-110756761D01*
X173995380Y-110899619D01*
X173995380Y-110994857D01*
X174043000Y-111137714D01*
X174090619Y-111185333D01*
X174995380Y-111661523D02*
X174995380Y-111852000D01*
X174947761Y-111947238D01*
X174900142Y-111994857D01*
X174757285Y-112090095D01*
X174566809Y-112137714D01*
X174185857Y-112137714D01*
X174090619Y-112090095D01*
X174043000Y-112042476D01*
X173995380Y-111947238D01*
X173995380Y-111756761D01*
X174043000Y-111661523D01*
X174090619Y-111613904D01*
X174185857Y-111566285D01*
X174423952Y-111566285D01*
X174519190Y-111613904D01*
X174566809Y-111661523D01*
X174614428Y-111756761D01*
X174614428Y-111947238D01*
X174566809Y-112042476D01*
X174519190Y-112090095D01*
X174423952Y-112137714D01*
%TO.C,C10*%
X168749142Y-109693142D02*
X168796761Y-109645523D01*
X168844380Y-109502666D01*
X168844380Y-109407428D01*
X168796761Y-109264571D01*
X168701523Y-109169333D01*
X168606285Y-109121714D01*
X168415809Y-109074095D01*
X168272952Y-109074095D01*
X168082476Y-109121714D01*
X167987238Y-109169333D01*
X167892000Y-109264571D01*
X167844380Y-109407428D01*
X167844380Y-109502666D01*
X167892000Y-109645523D01*
X167939619Y-109693142D01*
X168844380Y-110645523D02*
X168844380Y-110074095D01*
X168844380Y-110359809D02*
X167844380Y-110359809D01*
X167987238Y-110264571D01*
X168082476Y-110169333D01*
X168130095Y-110074095D01*
X167844380Y-111264571D02*
X167844380Y-111359809D01*
X167892000Y-111455047D01*
X167939619Y-111502666D01*
X168034857Y-111550285D01*
X168225333Y-111597904D01*
X168463428Y-111597904D01*
X168653904Y-111550285D01*
X168749142Y-111502666D01*
X168796761Y-111455047D01*
X168844380Y-111359809D01*
X168844380Y-111264571D01*
X168796761Y-111169333D01*
X168749142Y-111121714D01*
X168653904Y-111074095D01*
X168463428Y-111026476D01*
X168225333Y-111026476D01*
X168034857Y-111074095D01*
X167939619Y-111121714D01*
X167892000Y-111169333D01*
X167844380Y-111264571D01*
%TO.C,C11*%
X174646142Y-104994142D02*
X174693761Y-104946523D01*
X174741380Y-104803666D01*
X174741380Y-104708428D01*
X174693761Y-104565571D01*
X174598523Y-104470333D01*
X174503285Y-104422714D01*
X174312809Y-104375095D01*
X174169952Y-104375095D01*
X173979476Y-104422714D01*
X173884238Y-104470333D01*
X173789000Y-104565571D01*
X173741380Y-104708428D01*
X173741380Y-104803666D01*
X173789000Y-104946523D01*
X173836619Y-104994142D01*
X174741380Y-105946523D02*
X174741380Y-105375095D01*
X174741380Y-105660809D02*
X173741380Y-105660809D01*
X173884238Y-105565571D01*
X173979476Y-105470333D01*
X174027095Y-105375095D01*
X174741380Y-106898904D02*
X174741380Y-106327476D01*
X174741380Y-106613190D02*
X173741380Y-106613190D01*
X173884238Y-106517952D01*
X173979476Y-106422714D01*
X174027095Y-106327476D01*
%TO.C,C12*%
X168749142Y-103597142D02*
X168796761Y-103549523D01*
X168844380Y-103406666D01*
X168844380Y-103311428D01*
X168796761Y-103168571D01*
X168701523Y-103073333D01*
X168606285Y-103025714D01*
X168415809Y-102978095D01*
X168272952Y-102978095D01*
X168082476Y-103025714D01*
X167987238Y-103073333D01*
X167892000Y-103168571D01*
X167844380Y-103311428D01*
X167844380Y-103406666D01*
X167892000Y-103549523D01*
X167939619Y-103597142D01*
X168844380Y-104549523D02*
X168844380Y-103978095D01*
X168844380Y-104263809D02*
X167844380Y-104263809D01*
X167987238Y-104168571D01*
X168082476Y-104073333D01*
X168130095Y-103978095D01*
X167939619Y-104930476D02*
X167892000Y-104978095D01*
X167844380Y-105073333D01*
X167844380Y-105311428D01*
X167892000Y-105406666D01*
X167939619Y-105454285D01*
X168034857Y-105501904D01*
X168130095Y-105501904D01*
X168272952Y-105454285D01*
X168844380Y-104882857D01*
X168844380Y-105501904D01*
%TO.C,R1*%
X158993380Y-48193333D02*
X158517190Y-47860000D01*
X158993380Y-47621904D02*
X157993380Y-47621904D01*
X157993380Y-48002857D01*
X158041000Y-48098095D01*
X158088619Y-48145714D01*
X158183857Y-48193333D01*
X158326714Y-48193333D01*
X158421952Y-48145714D01*
X158469571Y-48098095D01*
X158517190Y-48002857D01*
X158517190Y-47621904D01*
X158993380Y-49145714D02*
X158993380Y-48574285D01*
X158993380Y-48860000D02*
X157993380Y-48860000D01*
X158136238Y-48764761D01*
X158231476Y-48669523D01*
X158279095Y-48574285D01*
%TO.C,R2*%
X148674666Y-42462380D02*
X149008000Y-41986190D01*
X149246095Y-42462380D02*
X149246095Y-41462380D01*
X148865142Y-41462380D01*
X148769904Y-41510000D01*
X148722285Y-41557619D01*
X148674666Y-41652857D01*
X148674666Y-41795714D01*
X148722285Y-41890952D01*
X148769904Y-41938571D01*
X148865142Y-41986190D01*
X149246095Y-41986190D01*
X148293714Y-41557619D02*
X148246095Y-41510000D01*
X148150857Y-41462380D01*
X147912761Y-41462380D01*
X147817523Y-41510000D01*
X147769904Y-41557619D01*
X147722285Y-41652857D01*
X147722285Y-41748095D01*
X147769904Y-41890952D01*
X148341333Y-42462380D01*
X147722285Y-42462380D01*
%TO.C,R3*%
X161501666Y-55035380D02*
X161835000Y-54559190D01*
X162073095Y-55035380D02*
X162073095Y-54035380D01*
X161692142Y-54035380D01*
X161596904Y-54083000D01*
X161549285Y-54130619D01*
X161501666Y-54225857D01*
X161501666Y-54368714D01*
X161549285Y-54463952D01*
X161596904Y-54511571D01*
X161692142Y-54559190D01*
X162073095Y-54559190D01*
X161168333Y-54035380D02*
X160549285Y-54035380D01*
X160882619Y-54416333D01*
X160739761Y-54416333D01*
X160644523Y-54463952D01*
X160596904Y-54511571D01*
X160549285Y-54606809D01*
X160549285Y-54844904D01*
X160596904Y-54940142D01*
X160644523Y-54987761D01*
X160739761Y-55035380D01*
X161025476Y-55035380D01*
X161120714Y-54987761D01*
X161168333Y-54940142D01*
%TO.C,R4*%
X161501666Y-58887380D02*
X161835000Y-58411190D01*
X162073095Y-58887380D02*
X162073095Y-57887380D01*
X161692142Y-57887380D01*
X161596904Y-57935000D01*
X161549285Y-57982619D01*
X161501666Y-58077857D01*
X161501666Y-58220714D01*
X161549285Y-58315952D01*
X161596904Y-58363571D01*
X161692142Y-58411190D01*
X162073095Y-58411190D01*
X160644523Y-58220714D02*
X160644523Y-58887380D01*
X160882619Y-57839761D02*
X161120714Y-58554047D01*
X160501666Y-58554047D01*
%TO.C,R5*%
X158146380Y-61020333D02*
X157670190Y-60687000D01*
X158146380Y-60448904D02*
X157146380Y-60448904D01*
X157146380Y-60829857D01*
X157194000Y-60925095D01*
X157241619Y-60972714D01*
X157336857Y-61020333D01*
X157479714Y-61020333D01*
X157574952Y-60972714D01*
X157622571Y-60925095D01*
X157670190Y-60829857D01*
X157670190Y-60448904D01*
X157146380Y-61925095D02*
X157146380Y-61448904D01*
X157622571Y-61401285D01*
X157574952Y-61448904D01*
X157527333Y-61544142D01*
X157527333Y-61782238D01*
X157574952Y-61877476D01*
X157622571Y-61925095D01*
X157717809Y-61972714D01*
X157955904Y-61972714D01*
X158051142Y-61925095D01*
X158098761Y-61877476D01*
X158146380Y-61782238D01*
X158146380Y-61544142D01*
X158098761Y-61448904D01*
X158051142Y-61401285D01*
%TO.C,R6*%
X142356380Y-65719333D02*
X141880190Y-65386000D01*
X142356380Y-65147904D02*
X141356380Y-65147904D01*
X141356380Y-65528857D01*
X141404000Y-65624095D01*
X141451619Y-65671714D01*
X141546857Y-65719333D01*
X141689714Y-65719333D01*
X141784952Y-65671714D01*
X141832571Y-65624095D01*
X141880190Y-65528857D01*
X141880190Y-65147904D01*
X141356380Y-66576476D02*
X141356380Y-66386000D01*
X141404000Y-66290761D01*
X141451619Y-66243142D01*
X141594476Y-66147904D01*
X141784952Y-66100285D01*
X142165904Y-66100285D01*
X142261142Y-66147904D01*
X142308761Y-66195523D01*
X142356380Y-66290761D01*
X142356380Y-66481238D01*
X142308761Y-66576476D01*
X142261142Y-66624095D01*
X142165904Y-66671714D01*
X141927809Y-66671714D01*
X141832571Y-66624095D01*
X141784952Y-66576476D01*
X141737333Y-66481238D01*
X141737333Y-66290761D01*
X141784952Y-66195523D01*
X141832571Y-66147904D01*
X141927809Y-66100285D01*
%TO.C,R7*%
X157977380Y-72831333D02*
X157501190Y-72498000D01*
X157977380Y-72259904D02*
X156977380Y-72259904D01*
X156977380Y-72640857D01*
X157025000Y-72736095D01*
X157072619Y-72783714D01*
X157167857Y-72831333D01*
X157310714Y-72831333D01*
X157405952Y-72783714D01*
X157453571Y-72736095D01*
X157501190Y-72640857D01*
X157501190Y-72259904D01*
X156977380Y-73164666D02*
X156977380Y-73831333D01*
X157977380Y-73402761D01*
%TO.C,R8*%
X160231666Y-78699380D02*
X160565000Y-78223190D01*
X160803095Y-78699380D02*
X160803095Y-77699380D01*
X160422142Y-77699380D01*
X160326904Y-77747000D01*
X160279285Y-77794619D01*
X160231666Y-77889857D01*
X160231666Y-78032714D01*
X160279285Y-78127952D01*
X160326904Y-78175571D01*
X160422142Y-78223190D01*
X160803095Y-78223190D01*
X159660238Y-78127952D02*
X159755476Y-78080333D01*
X159803095Y-78032714D01*
X159850714Y-77937476D01*
X159850714Y-77889857D01*
X159803095Y-77794619D01*
X159755476Y-77747000D01*
X159660238Y-77699380D01*
X159469761Y-77699380D01*
X159374523Y-77747000D01*
X159326904Y-77794619D01*
X159279285Y-77889857D01*
X159279285Y-77937476D01*
X159326904Y-78032714D01*
X159374523Y-78080333D01*
X159469761Y-78127952D01*
X159660238Y-78127952D01*
X159755476Y-78175571D01*
X159803095Y-78223190D01*
X159850714Y-78318428D01*
X159850714Y-78508904D01*
X159803095Y-78604142D01*
X159755476Y-78651761D01*
X159660238Y-78699380D01*
X159469761Y-78699380D01*
X159374523Y-78651761D01*
X159326904Y-78604142D01*
X159279285Y-78508904D01*
X159279285Y-78318428D01*
X159326904Y-78223190D01*
X159374523Y-78175571D01*
X159469761Y-78127952D01*
%TO.C,R9*%
X160358666Y-80393380D02*
X160692000Y-79917190D01*
X160930095Y-80393380D02*
X160930095Y-79393380D01*
X160549142Y-79393380D01*
X160453904Y-79441000D01*
X160406285Y-79488619D01*
X160358666Y-79583857D01*
X160358666Y-79726714D01*
X160406285Y-79821952D01*
X160453904Y-79869571D01*
X160549142Y-79917190D01*
X160930095Y-79917190D01*
X159882476Y-80393380D02*
X159692000Y-80393380D01*
X159596761Y-80345761D01*
X159549142Y-80298142D01*
X159453904Y-80155285D01*
X159406285Y-79964809D01*
X159406285Y-79583857D01*
X159453904Y-79488619D01*
X159501523Y-79441000D01*
X159596761Y-79393380D01*
X159787238Y-79393380D01*
X159882476Y-79441000D01*
X159930095Y-79488619D01*
X159977714Y-79583857D01*
X159977714Y-79821952D01*
X159930095Y-79917190D01*
X159882476Y-79964809D01*
X159787238Y-80012428D01*
X159596761Y-80012428D01*
X159501523Y-79964809D01*
X159453904Y-79917190D01*
X159406285Y-79821952D01*
%TO.C,R10*%
X152198857Y-68370380D02*
X152532190Y-67894190D01*
X152770285Y-68370380D02*
X152770285Y-67370380D01*
X152389333Y-67370380D01*
X152294095Y-67418000D01*
X152246476Y-67465619D01*
X152198857Y-67560857D01*
X152198857Y-67703714D01*
X152246476Y-67798952D01*
X152294095Y-67846571D01*
X152389333Y-67894190D01*
X152770285Y-67894190D01*
X151246476Y-68370380D02*
X151817904Y-68370380D01*
X151532190Y-68370380D02*
X151532190Y-67370380D01*
X151627428Y-67513238D01*
X151722666Y-67608476D01*
X151817904Y-67656095D01*
X150627428Y-67370380D02*
X150532190Y-67370380D01*
X150436952Y-67418000D01*
X150389333Y-67465619D01*
X150341714Y-67560857D01*
X150294095Y-67751333D01*
X150294095Y-67989428D01*
X150341714Y-68179904D01*
X150389333Y-68275142D01*
X150436952Y-68322761D01*
X150532190Y-68370380D01*
X150627428Y-68370380D01*
X150722666Y-68322761D01*
X150770285Y-68275142D01*
X150817904Y-68179904D01*
X150865523Y-67989428D01*
X150865523Y-67751333D01*
X150817904Y-67560857D01*
X150770285Y-67465619D01*
X150722666Y-67418000D01*
X150627428Y-67370380D01*
%TO.C,R11*%
X158358380Y-85182142D02*
X157882190Y-84848809D01*
X158358380Y-84610714D02*
X157358380Y-84610714D01*
X157358380Y-84991666D01*
X157406000Y-85086904D01*
X157453619Y-85134523D01*
X157548857Y-85182142D01*
X157691714Y-85182142D01*
X157786952Y-85134523D01*
X157834571Y-85086904D01*
X157882190Y-84991666D01*
X157882190Y-84610714D01*
X158358380Y-86134523D02*
X158358380Y-85563095D01*
X158358380Y-85848809D02*
X157358380Y-85848809D01*
X157501238Y-85753571D01*
X157596476Y-85658333D01*
X157644095Y-85563095D01*
X158358380Y-87086904D02*
X158358380Y-86515476D01*
X158358380Y-86801190D02*
X157358380Y-86801190D01*
X157501238Y-86705952D01*
X157596476Y-86610714D01*
X157644095Y-86515476D01*
%TO.C,R12*%
X138885380Y-80737142D02*
X138409190Y-80403809D01*
X138885380Y-80165714D02*
X137885380Y-80165714D01*
X137885380Y-80546666D01*
X137933000Y-80641904D01*
X137980619Y-80689523D01*
X138075857Y-80737142D01*
X138218714Y-80737142D01*
X138313952Y-80689523D01*
X138361571Y-80641904D01*
X138409190Y-80546666D01*
X138409190Y-80165714D01*
X138885380Y-81689523D02*
X138885380Y-81118095D01*
X138885380Y-81403809D02*
X137885380Y-81403809D01*
X138028238Y-81308571D01*
X138123476Y-81213333D01*
X138171095Y-81118095D01*
X137980619Y-82070476D02*
X137933000Y-82118095D01*
X137885380Y-82213333D01*
X137885380Y-82451428D01*
X137933000Y-82546666D01*
X137980619Y-82594285D01*
X138075857Y-82641904D01*
X138171095Y-82641904D01*
X138313952Y-82594285D01*
X138885380Y-82022857D01*
X138885380Y-82641904D01*
%TO.C,R13*%
X178894857Y-41912380D02*
X179228190Y-41436190D01*
X179466285Y-41912380D02*
X179466285Y-40912380D01*
X179085333Y-40912380D01*
X178990095Y-40960000D01*
X178942476Y-41007619D01*
X178894857Y-41102857D01*
X178894857Y-41245714D01*
X178942476Y-41340952D01*
X178990095Y-41388571D01*
X179085333Y-41436190D01*
X179466285Y-41436190D01*
X177942476Y-41912380D02*
X178513904Y-41912380D01*
X178228190Y-41912380D02*
X178228190Y-40912380D01*
X178323428Y-41055238D01*
X178418666Y-41150476D01*
X178513904Y-41198095D01*
X177609142Y-40912380D02*
X176990095Y-40912380D01*
X177323428Y-41293333D01*
X177180571Y-41293333D01*
X177085333Y-41340952D01*
X177037714Y-41388571D01*
X176990095Y-41483809D01*
X176990095Y-41721904D01*
X177037714Y-41817142D01*
X177085333Y-41864761D01*
X177180571Y-41912380D01*
X177466285Y-41912380D01*
X177561523Y-41864761D01*
X177609142Y-41817142D01*
%TO.C,R14*%
X178995857Y-48304380D02*
X179329190Y-47828190D01*
X179567285Y-48304380D02*
X179567285Y-47304380D01*
X179186333Y-47304380D01*
X179091095Y-47352000D01*
X179043476Y-47399619D01*
X178995857Y-47494857D01*
X178995857Y-47637714D01*
X179043476Y-47732952D01*
X179091095Y-47780571D01*
X179186333Y-47828190D01*
X179567285Y-47828190D01*
X178043476Y-48304380D02*
X178614904Y-48304380D01*
X178329190Y-48304380D02*
X178329190Y-47304380D01*
X178424428Y-47447238D01*
X178519666Y-47542476D01*
X178614904Y-47590095D01*
X177186333Y-47637714D02*
X177186333Y-48304380D01*
X177424428Y-47256761D02*
X177662523Y-47971047D01*
X177043476Y-47971047D01*
%TO.C,R15*%
X170740857Y-65661380D02*
X171074190Y-65185190D01*
X171312285Y-65661380D02*
X171312285Y-64661380D01*
X170931333Y-64661380D01*
X170836095Y-64709000D01*
X170788476Y-64756619D01*
X170740857Y-64851857D01*
X170740857Y-64994714D01*
X170788476Y-65089952D01*
X170836095Y-65137571D01*
X170931333Y-65185190D01*
X171312285Y-65185190D01*
X169788476Y-65661380D02*
X170359904Y-65661380D01*
X170074190Y-65661380D02*
X170074190Y-64661380D01*
X170169428Y-64804238D01*
X170264666Y-64899476D01*
X170359904Y-64947095D01*
X168883714Y-64661380D02*
X169359904Y-64661380D01*
X169407523Y-65137571D01*
X169359904Y-65089952D01*
X169264666Y-65042333D01*
X169026571Y-65042333D01*
X168931333Y-65089952D01*
X168883714Y-65137571D01*
X168836095Y-65232809D01*
X168836095Y-65470904D01*
X168883714Y-65566142D01*
X168931333Y-65613761D01*
X169026571Y-65661380D01*
X169264666Y-65661380D01*
X169359904Y-65613761D01*
X169407523Y-65566142D01*
%TO.C,R16*%
X170740857Y-69979380D02*
X171074190Y-69503190D01*
X171312285Y-69979380D02*
X171312285Y-68979380D01*
X170931333Y-68979380D01*
X170836095Y-69027000D01*
X170788476Y-69074619D01*
X170740857Y-69169857D01*
X170740857Y-69312714D01*
X170788476Y-69407952D01*
X170836095Y-69455571D01*
X170931333Y-69503190D01*
X171312285Y-69503190D01*
X169788476Y-69979380D02*
X170359904Y-69979380D01*
X170074190Y-69979380D02*
X170074190Y-68979380D01*
X170169428Y-69122238D01*
X170264666Y-69217476D01*
X170359904Y-69265095D01*
X168931333Y-68979380D02*
X169121809Y-68979380D01*
X169217047Y-69027000D01*
X169264666Y-69074619D01*
X169359904Y-69217476D01*
X169407523Y-69407952D01*
X169407523Y-69788904D01*
X169359904Y-69884142D01*
X169312285Y-69931761D01*
X169217047Y-69979380D01*
X169026571Y-69979380D01*
X168931333Y-69931761D01*
X168883714Y-69884142D01*
X168836095Y-69788904D01*
X168836095Y-69550809D01*
X168883714Y-69455571D01*
X168931333Y-69407952D01*
X169026571Y-69360333D01*
X169217047Y-69360333D01*
X169312285Y-69407952D01*
X169359904Y-69455571D01*
X169407523Y-69550809D01*
%TO.C,R17*%
X181916857Y-124716380D02*
X182250190Y-124240190D01*
X182488285Y-124716380D02*
X182488285Y-123716380D01*
X182107333Y-123716380D01*
X182012095Y-123764000D01*
X181964476Y-123811619D01*
X181916857Y-123906857D01*
X181916857Y-124049714D01*
X181964476Y-124144952D01*
X182012095Y-124192571D01*
X182107333Y-124240190D01*
X182488285Y-124240190D01*
X180964476Y-124716380D02*
X181535904Y-124716380D01*
X181250190Y-124716380D02*
X181250190Y-123716380D01*
X181345428Y-123859238D01*
X181440666Y-123954476D01*
X181535904Y-124002095D01*
X180631142Y-123716380D02*
X179964476Y-123716380D01*
X180393047Y-124716380D01*
%TO.C,R18*%
X172137857Y-128356380D02*
X172471190Y-127880190D01*
X172709285Y-128356380D02*
X172709285Y-127356380D01*
X172328333Y-127356380D01*
X172233095Y-127404000D01*
X172185476Y-127451619D01*
X172137857Y-127546857D01*
X172137857Y-127689714D01*
X172185476Y-127784952D01*
X172233095Y-127832571D01*
X172328333Y-127880190D01*
X172709285Y-127880190D01*
X171185476Y-128356380D02*
X171756904Y-128356380D01*
X171471190Y-128356380D02*
X171471190Y-127356380D01*
X171566428Y-127499238D01*
X171661666Y-127594476D01*
X171756904Y-127642095D01*
X170614047Y-127784952D02*
X170709285Y-127737333D01*
X170756904Y-127689714D01*
X170804523Y-127594476D01*
X170804523Y-127546857D01*
X170756904Y-127451619D01*
X170709285Y-127404000D01*
X170614047Y-127356380D01*
X170423571Y-127356380D01*
X170328333Y-127404000D01*
X170280714Y-127451619D01*
X170233095Y-127546857D01*
X170233095Y-127594476D01*
X170280714Y-127689714D01*
X170328333Y-127737333D01*
X170423571Y-127784952D01*
X170614047Y-127784952D01*
X170709285Y-127832571D01*
X170756904Y-127880190D01*
X170804523Y-127975428D01*
X170804523Y-128165904D01*
X170756904Y-128261142D01*
X170709285Y-128308761D01*
X170614047Y-128356380D01*
X170423571Y-128356380D01*
X170328333Y-128308761D01*
X170280714Y-128261142D01*
X170233095Y-128165904D01*
X170233095Y-127975428D01*
X170280714Y-127880190D01*
X170328333Y-127832571D01*
X170423571Y-127784952D01*
%TO.C,R19*%
X181916857Y-119001380D02*
X182250190Y-118525190D01*
X182488285Y-119001380D02*
X182488285Y-118001380D01*
X182107333Y-118001380D01*
X182012095Y-118049000D01*
X181964476Y-118096619D01*
X181916857Y-118191857D01*
X181916857Y-118334714D01*
X181964476Y-118429952D01*
X182012095Y-118477571D01*
X182107333Y-118525190D01*
X182488285Y-118525190D01*
X180964476Y-119001380D02*
X181535904Y-119001380D01*
X181250190Y-119001380D02*
X181250190Y-118001380D01*
X181345428Y-118144238D01*
X181440666Y-118239476D01*
X181535904Y-118287095D01*
X180488285Y-119001380D02*
X180297809Y-119001380D01*
X180202571Y-118953761D01*
X180154952Y-118906142D01*
X180059714Y-118763285D01*
X180012095Y-118572809D01*
X180012095Y-118191857D01*
X180059714Y-118096619D01*
X180107333Y-118049000D01*
X180202571Y-118001380D01*
X180393047Y-118001380D01*
X180488285Y-118049000D01*
X180535904Y-118096619D01*
X180583523Y-118191857D01*
X180583523Y-118429952D01*
X180535904Y-118525190D01*
X180488285Y-118572809D01*
X180393047Y-118620428D01*
X180202571Y-118620428D01*
X180107333Y-118572809D01*
X180059714Y-118525190D01*
X180012095Y-118429952D01*
%TO.C,R20*%
X172264857Y-122387380D02*
X172598190Y-121911190D01*
X172836285Y-122387380D02*
X172836285Y-121387380D01*
X172455333Y-121387380D01*
X172360095Y-121435000D01*
X172312476Y-121482619D01*
X172264857Y-121577857D01*
X172264857Y-121720714D01*
X172312476Y-121815952D01*
X172360095Y-121863571D01*
X172455333Y-121911190D01*
X172836285Y-121911190D01*
X171883904Y-121482619D02*
X171836285Y-121435000D01*
X171741047Y-121387380D01*
X171502952Y-121387380D01*
X171407714Y-121435000D01*
X171360095Y-121482619D01*
X171312476Y-121577857D01*
X171312476Y-121673095D01*
X171360095Y-121815952D01*
X171931523Y-122387380D01*
X171312476Y-122387380D01*
X170693428Y-121387380D02*
X170598190Y-121387380D01*
X170502952Y-121435000D01*
X170455333Y-121482619D01*
X170407714Y-121577857D01*
X170360095Y-121768333D01*
X170360095Y-122006428D01*
X170407714Y-122196904D01*
X170455333Y-122292142D01*
X170502952Y-122339761D01*
X170598190Y-122387380D01*
X170693428Y-122387380D01*
X170788666Y-122339761D01*
X170836285Y-122292142D01*
X170883904Y-122196904D01*
X170931523Y-122006428D01*
X170931523Y-121768333D01*
X170883904Y-121577857D01*
X170836285Y-121482619D01*
X170788666Y-121435000D01*
X170693428Y-121387380D01*
%TO.C,R21*%
X181789857Y-113159380D02*
X182123190Y-112683190D01*
X182361285Y-113159380D02*
X182361285Y-112159380D01*
X181980333Y-112159380D01*
X181885095Y-112207000D01*
X181837476Y-112254619D01*
X181789857Y-112349857D01*
X181789857Y-112492714D01*
X181837476Y-112587952D01*
X181885095Y-112635571D01*
X181980333Y-112683190D01*
X182361285Y-112683190D01*
X181408904Y-112254619D02*
X181361285Y-112207000D01*
X181266047Y-112159380D01*
X181027952Y-112159380D01*
X180932714Y-112207000D01*
X180885095Y-112254619D01*
X180837476Y-112349857D01*
X180837476Y-112445095D01*
X180885095Y-112587952D01*
X181456523Y-113159380D01*
X180837476Y-113159380D01*
X179885095Y-113159380D02*
X180456523Y-113159380D01*
X180170809Y-113159380D02*
X180170809Y-112159380D01*
X180266047Y-112302238D01*
X180361285Y-112397476D01*
X180456523Y-112445095D01*
%TO.C,R22*%
X172264857Y-116799380D02*
X172598190Y-116323190D01*
X172836285Y-116799380D02*
X172836285Y-115799380D01*
X172455333Y-115799380D01*
X172360095Y-115847000D01*
X172312476Y-115894619D01*
X172264857Y-115989857D01*
X172264857Y-116132714D01*
X172312476Y-116227952D01*
X172360095Y-116275571D01*
X172455333Y-116323190D01*
X172836285Y-116323190D01*
X171883904Y-115894619D02*
X171836285Y-115847000D01*
X171741047Y-115799380D01*
X171502952Y-115799380D01*
X171407714Y-115847000D01*
X171360095Y-115894619D01*
X171312476Y-115989857D01*
X171312476Y-116085095D01*
X171360095Y-116227952D01*
X171931523Y-116799380D01*
X171312476Y-116799380D01*
X170931523Y-115894619D02*
X170883904Y-115847000D01*
X170788666Y-115799380D01*
X170550571Y-115799380D01*
X170455333Y-115847000D01*
X170407714Y-115894619D01*
X170360095Y-115989857D01*
X170360095Y-116085095D01*
X170407714Y-116227952D01*
X170979142Y-116799380D01*
X170360095Y-116799380D01*
%TO.C,R23*%
X181662857Y-107571380D02*
X181996190Y-107095190D01*
X182234285Y-107571380D02*
X182234285Y-106571380D01*
X181853333Y-106571380D01*
X181758095Y-106619000D01*
X181710476Y-106666619D01*
X181662857Y-106761857D01*
X181662857Y-106904714D01*
X181710476Y-106999952D01*
X181758095Y-107047571D01*
X181853333Y-107095190D01*
X182234285Y-107095190D01*
X181281904Y-106666619D02*
X181234285Y-106619000D01*
X181139047Y-106571380D01*
X180900952Y-106571380D01*
X180805714Y-106619000D01*
X180758095Y-106666619D01*
X180710476Y-106761857D01*
X180710476Y-106857095D01*
X180758095Y-106999952D01*
X181329523Y-107571380D01*
X180710476Y-107571380D01*
X180377142Y-106571380D02*
X179758095Y-106571380D01*
X180091428Y-106952333D01*
X179948571Y-106952333D01*
X179853333Y-106999952D01*
X179805714Y-107047571D01*
X179758095Y-107142809D01*
X179758095Y-107380904D01*
X179805714Y-107476142D01*
X179853333Y-107523761D01*
X179948571Y-107571380D01*
X180234285Y-107571380D01*
X180329523Y-107523761D01*
X180377142Y-107476142D01*
%TO.C,R24*%
X172264857Y-111211380D02*
X172598190Y-110735190D01*
X172836285Y-111211380D02*
X172836285Y-110211380D01*
X172455333Y-110211380D01*
X172360095Y-110259000D01*
X172312476Y-110306619D01*
X172264857Y-110401857D01*
X172264857Y-110544714D01*
X172312476Y-110639952D01*
X172360095Y-110687571D01*
X172455333Y-110735190D01*
X172836285Y-110735190D01*
X171883904Y-110306619D02*
X171836285Y-110259000D01*
X171741047Y-110211380D01*
X171502952Y-110211380D01*
X171407714Y-110259000D01*
X171360095Y-110306619D01*
X171312476Y-110401857D01*
X171312476Y-110497095D01*
X171360095Y-110639952D01*
X171931523Y-111211380D01*
X171312476Y-111211380D01*
X170455333Y-110544714D02*
X170455333Y-111211380D01*
X170693428Y-110163761D02*
X170931523Y-110878047D01*
X170312476Y-110878047D01*
%TO.C,R25*%
X181662857Y-101475380D02*
X181996190Y-100999190D01*
X182234285Y-101475380D02*
X182234285Y-100475380D01*
X181853333Y-100475380D01*
X181758095Y-100523000D01*
X181710476Y-100570619D01*
X181662857Y-100665857D01*
X181662857Y-100808714D01*
X181710476Y-100903952D01*
X181758095Y-100951571D01*
X181853333Y-100999190D01*
X182234285Y-100999190D01*
X181281904Y-100570619D02*
X181234285Y-100523000D01*
X181139047Y-100475380D01*
X180900952Y-100475380D01*
X180805714Y-100523000D01*
X180758095Y-100570619D01*
X180710476Y-100665857D01*
X180710476Y-100761095D01*
X180758095Y-100903952D01*
X181329523Y-101475380D01*
X180710476Y-101475380D01*
X179805714Y-100475380D02*
X180281904Y-100475380D01*
X180329523Y-100951571D01*
X180281904Y-100903952D01*
X180186666Y-100856333D01*
X179948571Y-100856333D01*
X179853333Y-100903952D01*
X179805714Y-100951571D01*
X179758095Y-101046809D01*
X179758095Y-101284904D01*
X179805714Y-101380142D01*
X179853333Y-101427761D01*
X179948571Y-101475380D01*
X180186666Y-101475380D01*
X180281904Y-101427761D01*
X180329523Y-101380142D01*
%TO.C,R26*%
X172264857Y-105115380D02*
X172598190Y-104639190D01*
X172836285Y-105115380D02*
X172836285Y-104115380D01*
X172455333Y-104115380D01*
X172360095Y-104163000D01*
X172312476Y-104210619D01*
X172264857Y-104305857D01*
X172264857Y-104448714D01*
X172312476Y-104543952D01*
X172360095Y-104591571D01*
X172455333Y-104639190D01*
X172836285Y-104639190D01*
X171883904Y-104210619D02*
X171836285Y-104163000D01*
X171741047Y-104115380D01*
X171502952Y-104115380D01*
X171407714Y-104163000D01*
X171360095Y-104210619D01*
X171312476Y-104305857D01*
X171312476Y-104401095D01*
X171360095Y-104543952D01*
X171931523Y-105115380D01*
X171312476Y-105115380D01*
X170455333Y-104115380D02*
X170645809Y-104115380D01*
X170741047Y-104163000D01*
X170788666Y-104210619D01*
X170883904Y-104353476D01*
X170931523Y-104543952D01*
X170931523Y-104924904D01*
X170883904Y-105020142D01*
X170836285Y-105067761D01*
X170741047Y-105115380D01*
X170550571Y-105115380D01*
X170455333Y-105067761D01*
X170407714Y-105020142D01*
X170360095Y-104924904D01*
X170360095Y-104686809D01*
X170407714Y-104591571D01*
X170455333Y-104543952D01*
X170550571Y-104496333D01*
X170741047Y-104496333D01*
X170836285Y-104543952D01*
X170883904Y-104591571D01*
X170931523Y-104686809D01*
%TO.C,U1*%
X148761904Y-47352380D02*
X148761904Y-48161904D01*
X148714285Y-48257142D01*
X148666666Y-48304761D01*
X148571428Y-48352380D01*
X148380952Y-48352380D01*
X148285714Y-48304761D01*
X148238095Y-48257142D01*
X148190476Y-48161904D01*
X148190476Y-47352380D01*
X147190476Y-48352380D02*
X147761904Y-48352380D01*
X147476190Y-48352380D02*
X147476190Y-47352380D01*
X147571428Y-47495238D01*
X147666666Y-47590476D01*
X147761904Y-47638095D01*
%TO.C,U2*%
X148761904Y-68342380D02*
X148761904Y-69151904D01*
X148714285Y-69247142D01*
X148666666Y-69294761D01*
X148571428Y-69342380D01*
X148380952Y-69342380D01*
X148285714Y-69294761D01*
X148238095Y-69247142D01*
X148190476Y-69151904D01*
X148190476Y-68342380D01*
X147761904Y-68437619D02*
X147714285Y-68390000D01*
X147619047Y-68342380D01*
X147380952Y-68342380D01*
X147285714Y-68390000D01*
X147238095Y-68437619D01*
X147190476Y-68532857D01*
X147190476Y-68628095D01*
X147238095Y-68770952D01*
X147809523Y-69342380D01*
X147190476Y-69342380D01*
%TO.C,C2*%
X158271000Y-102897000D02*
X156261000Y-102897000D01*
X158241000Y-100757000D02*
X156231000Y-100757000D01*
%TO.C,C1*%
X158368000Y-96312000D02*
X156358000Y-96312000D01*
X158398000Y-98452000D02*
X156388000Y-98452000D01*
D11*
%TO.C,C3*%
X177485000Y-126769748D02*
X177485000Y-128192252D01*
X175665000Y-126769748D02*
X175665000Y-128192252D01*
%TO.C,C4*%
X167325000Y-128192252D02*
X167325000Y-126769748D01*
X165505000Y-128192252D02*
X165505000Y-126769748D01*
%TO.C,C5*%
X175538000Y-120927748D02*
X175538000Y-122350252D01*
X177358000Y-120927748D02*
X177358000Y-122350252D01*
%TO.C,C6*%
X167452000Y-122350252D02*
X167452000Y-120927748D01*
X165632000Y-122350252D02*
X165632000Y-120927748D01*
%TO.C,C7*%
X175538000Y-115339748D02*
X175538000Y-116762252D01*
X177358000Y-115339748D02*
X177358000Y-116762252D01*
%TO.C,C8*%
X167452000Y-116762252D02*
X167452000Y-115339748D01*
X165632000Y-116762252D02*
X165632000Y-115339748D01*
%TO.C,C9*%
X177358000Y-109624748D02*
X177358000Y-111047252D01*
X175538000Y-109624748D02*
X175538000Y-111047252D01*
%TO.C,C10*%
X167452000Y-111047252D02*
X167452000Y-109624748D01*
X165632000Y-111047252D02*
X165632000Y-109624748D01*
%TO.C,C11*%
X177358000Y-103528748D02*
X177358000Y-104951252D01*
X175538000Y-103528748D02*
X175538000Y-104951252D01*
%TO.C,C12*%
X165632000Y-104951252D02*
X165632000Y-103528748D01*
X167452000Y-104951252D02*
X167452000Y-103528748D01*
%TO.C,R1*%
X157419000Y-47632936D02*
X157419000Y-49087064D01*
X155599000Y-47632936D02*
X155599000Y-49087064D01*
%TO.C,R2*%
X147907936Y-44825000D02*
X149362064Y-44825000D01*
X147907936Y-43005000D02*
X149362064Y-43005000D01*
%TO.C,R3*%
X162062064Y-51641000D02*
X160607936Y-51641000D01*
X162062064Y-53461000D02*
X160607936Y-53461000D01*
%TO.C,R4*%
X160607936Y-55705000D02*
X162062064Y-55705000D01*
X160607936Y-57525000D02*
X162062064Y-57525000D01*
%TO.C,R5*%
X156784000Y-61914064D02*
X156784000Y-60459936D01*
X154964000Y-61914064D02*
X154964000Y-60459936D01*
%TO.C,R6*%
X146187064Y-66796000D02*
X144732936Y-66796000D01*
X146187064Y-64976000D02*
X144732936Y-64976000D01*
%TO.C,R7*%
X156403000Y-72270936D02*
X156403000Y-73725064D01*
X154583000Y-72270936D02*
X154583000Y-73725064D01*
%TO.C,R8*%
X159337936Y-77337000D02*
X160792064Y-77337000D01*
X159337936Y-75517000D02*
X160792064Y-75517000D01*
%TO.C,R9*%
X160919064Y-80851000D02*
X159464936Y-80851000D01*
X160919064Y-82671000D02*
X159464936Y-82671000D01*
%TO.C,R10*%
X152156064Y-64976000D02*
X150701936Y-64976000D01*
X152156064Y-66796000D02*
X150701936Y-66796000D01*
%TO.C,R11*%
X156530000Y-86552064D02*
X156530000Y-85097936D01*
X154710000Y-86552064D02*
X154710000Y-85097936D01*
%TO.C,R12*%
X139343000Y-80652936D02*
X139343000Y-82107064D01*
X141163000Y-80652936D02*
X141163000Y-82107064D01*
%TO.C,R13*%
X178979064Y-44190000D02*
X177524936Y-44190000D01*
X178979064Y-42370000D02*
X177524936Y-42370000D01*
%TO.C,R14*%
X178953064Y-46857000D02*
X177498936Y-46857000D01*
X178953064Y-45037000D02*
X177498936Y-45037000D01*
%TO.C,R15*%
X170825064Y-67939000D02*
X169370936Y-67939000D01*
X170825064Y-66119000D02*
X169370936Y-66119000D01*
%TO.C,R16*%
X170825064Y-72257000D02*
X169370936Y-72257000D01*
X170825064Y-70437000D02*
X169370936Y-70437000D01*
%TO.C,R17*%
X182001064Y-126994000D02*
X180546936Y-126994000D01*
X182001064Y-125174000D02*
X180546936Y-125174000D01*
%TO.C,R18*%
X170767936Y-126994000D02*
X172222064Y-126994000D01*
X170767936Y-125174000D02*
X172222064Y-125174000D01*
%TO.C,R19*%
X182001064Y-121279000D02*
X180546936Y-121279000D01*
X182001064Y-119459000D02*
X180546936Y-119459000D01*
%TO.C,R20*%
X170894936Y-119205000D02*
X172349064Y-119205000D01*
X170894936Y-121025000D02*
X172349064Y-121025000D01*
%TO.C,R21*%
X181874064Y-115437000D02*
X180419936Y-115437000D01*
X181874064Y-113617000D02*
X180419936Y-113617000D01*
%TO.C,R22*%
X170894936Y-115437000D02*
X172349064Y-115437000D01*
X170894936Y-113617000D02*
X172349064Y-113617000D01*
%TO.C,R23*%
X181747064Y-109849000D02*
X180292936Y-109849000D01*
X181747064Y-108029000D02*
X180292936Y-108029000D01*
%TO.C,R24*%
X170894936Y-108029000D02*
X172349064Y-108029000D01*
X170894936Y-109849000D02*
X172349064Y-109849000D01*
%TO.C,R25*%
X181747064Y-103753000D02*
X180292936Y-103753000D01*
X181747064Y-101933000D02*
X180292936Y-101933000D01*
%TO.C,R26*%
X170894936Y-101933000D02*
X172349064Y-101933000D01*
X170894936Y-103753000D02*
X172349064Y-103753000D01*
%TO.C,U1*%
X145350000Y-45760000D02*
X147000000Y-45760000D01*
X153140000Y-63720000D02*
X142860000Y-63720000D01*
X153140000Y-45700000D02*
X153140000Y-63720000D01*
X145350000Y-63660000D02*
X145350000Y-45760000D01*
X142860000Y-45700000D02*
X153140000Y-45700000D01*
X150650000Y-63660000D02*
X145350000Y-63660000D01*
X150650000Y-45760000D02*
X150650000Y-63660000D01*
X149000000Y-45760000D02*
X150650000Y-45760000D01*
X142860000Y-63720000D02*
X142860000Y-45700000D01*
X147000000Y-45760000D02*
G75*
G03*
X149000000Y-45760000I1000000J0D01*
G01*
%TO.C,U2*%
X153140000Y-87850000D02*
X142860000Y-87850000D01*
X142860000Y-69830000D02*
X153140000Y-69830000D01*
X142860000Y-87850000D02*
X142860000Y-69830000D01*
X150650000Y-87790000D02*
X145350000Y-87790000D01*
X153140000Y-69830000D02*
X153140000Y-87850000D01*
X145350000Y-87790000D02*
X145350000Y-69890000D01*
X149000000Y-69890000D02*
X150650000Y-69890000D01*
X145350000Y-69890000D02*
X147000000Y-69890000D01*
X150650000Y-69890000D02*
X150650000Y-87790000D01*
X147000000Y-69890000D02*
G75*
G03*
X149000000Y-69890000I1000000J0D01*
G01*
%TD*%
M02*
