%TF.GenerationSoftware,KiCad,Pcbnew,5.1.10-1.fc34*%
%TF.CreationDate,2021-06-08T11:48:28-04:00*%
%TF.ProjectId,BREAD_Slice,42524541-445f-4536-9c69-63652e6b6963,rev?*%
%TF.SameCoordinates,Original*%
%TF.FileFunction,Legend,Top*%
%TF.FilePolarity,Positive*%
%FSLAX46Y46*%
G04 Gerber Fmt 4.6, Leading zero omitted, Abs format (unit mm)*
G04 Created by KiCad (PCBNEW 5.1.10-1.fc34) date 2021-06-08 11:48:28*
%MOMM*%
%LPD*%
G01*
G04 APERTURE LIST*
%ADD10C,0.150000*%
%ADD11C,0.125000*%
%ADD12C,0.120000*%
%ADD13C,0.010000*%
G04 APERTURE END LIST*
D10*
X191759380Y-103652523D02*
X190759380Y-103652523D01*
X191473666Y-103319190D01*
X190759380Y-102985857D01*
X191759380Y-102985857D01*
X190759380Y-102033476D02*
X190759380Y-102509666D01*
X191235571Y-102557285D01*
X191187952Y-102509666D01*
X191140333Y-102414428D01*
X191140333Y-102176333D01*
X191187952Y-102081095D01*
X191235571Y-102033476D01*
X191330809Y-101985857D01*
X191568904Y-101985857D01*
X191664142Y-102033476D01*
X191711761Y-102081095D01*
X191759380Y-102176333D01*
X191759380Y-102414428D01*
X191711761Y-102509666D01*
X191664142Y-102557285D01*
X191759380Y-91587523D02*
X190759380Y-91587523D01*
X191473666Y-91254190D01*
X190759380Y-90920857D01*
X191759380Y-90920857D01*
X191092714Y-90016095D02*
X191759380Y-90016095D01*
X190711761Y-90254190D02*
X191426047Y-90492285D01*
X191426047Y-89873238D01*
X191759380Y-79649523D02*
X190759380Y-79649523D01*
X191473666Y-79316190D01*
X190759380Y-78982857D01*
X191759380Y-78982857D01*
X190759380Y-78601904D02*
X190759380Y-77982857D01*
X191140333Y-78316190D01*
X191140333Y-78173333D01*
X191187952Y-78078095D01*
X191235571Y-78030476D01*
X191330809Y-77982857D01*
X191568904Y-77982857D01*
X191664142Y-78030476D01*
X191711761Y-78078095D01*
X191759380Y-78173333D01*
X191759380Y-78459047D01*
X191711761Y-78554285D01*
X191664142Y-78601904D01*
X191632380Y-67330523D02*
X190632380Y-67330523D01*
X191346666Y-66997190D01*
X190632380Y-66663857D01*
X191632380Y-66663857D01*
X190727619Y-66235285D02*
X190680000Y-66187666D01*
X190632380Y-66092428D01*
X190632380Y-65854333D01*
X190680000Y-65759095D01*
X190727619Y-65711476D01*
X190822857Y-65663857D01*
X190918095Y-65663857D01*
X191060952Y-65711476D01*
X191632380Y-66282904D01*
X191632380Y-65663857D01*
D11*
X189025000Y-105466000D02*
X189001190Y-105513619D01*
X189001190Y-105585047D01*
X189025000Y-105656476D01*
X189072619Y-105704095D01*
X189120238Y-105727904D01*
X189215476Y-105751714D01*
X189286904Y-105751714D01*
X189382142Y-105727904D01*
X189429761Y-105704095D01*
X189477380Y-105656476D01*
X189501190Y-105585047D01*
X189501190Y-105537428D01*
X189477380Y-105466000D01*
X189453571Y-105442190D01*
X189286904Y-105442190D01*
X189286904Y-105537428D01*
X189501190Y-105227904D02*
X189001190Y-105227904D01*
X189501190Y-104942190D01*
X189001190Y-104942190D01*
X189501190Y-104704095D02*
X189001190Y-104704095D01*
X189001190Y-104585047D01*
X189025000Y-104513619D01*
X189072619Y-104466000D01*
X189120238Y-104442190D01*
X189215476Y-104418380D01*
X189286904Y-104418380D01*
X189382142Y-104442190D01*
X189429761Y-104466000D01*
X189477380Y-104513619D01*
X189501190Y-104585047D01*
X189501190Y-104704095D01*
X189501190Y-103442190D02*
X189001190Y-103442190D01*
X189001190Y-103251714D01*
X189025000Y-103204095D01*
X189048809Y-103180285D01*
X189096428Y-103156476D01*
X189167857Y-103156476D01*
X189215476Y-103180285D01*
X189239285Y-103204095D01*
X189263095Y-103251714D01*
X189263095Y-103442190D01*
X189001190Y-102989809D02*
X189501190Y-102870761D01*
X189144047Y-102775523D01*
X189501190Y-102680285D01*
X189001190Y-102561238D01*
X189501190Y-102085047D02*
X189263095Y-102251714D01*
X189501190Y-102370761D02*
X189001190Y-102370761D01*
X189001190Y-102180285D01*
X189025000Y-102132666D01*
X189048809Y-102108857D01*
X189096428Y-102085047D01*
X189167857Y-102085047D01*
X189215476Y-102108857D01*
X189239285Y-102132666D01*
X189263095Y-102180285D01*
X189263095Y-102370761D01*
X189501190Y-101108857D02*
X189001190Y-101108857D01*
X189001190Y-100918380D01*
X189025000Y-100870761D01*
X189048809Y-100846952D01*
X189096428Y-100823142D01*
X189167857Y-100823142D01*
X189215476Y-100846952D01*
X189239285Y-100870761D01*
X189263095Y-100918380D01*
X189263095Y-101108857D01*
X189001190Y-100656476D02*
X189501190Y-100537428D01*
X189144047Y-100442190D01*
X189501190Y-100346952D01*
X189001190Y-100227904D01*
X189501190Y-100037428D02*
X189001190Y-100037428D01*
X189358333Y-99870761D01*
X189001190Y-99704095D01*
X189501190Y-99704095D01*
X188898000Y-93528000D02*
X188874190Y-93575619D01*
X188874190Y-93647047D01*
X188898000Y-93718476D01*
X188945619Y-93766095D01*
X188993238Y-93789904D01*
X189088476Y-93813714D01*
X189159904Y-93813714D01*
X189255142Y-93789904D01*
X189302761Y-93766095D01*
X189350380Y-93718476D01*
X189374190Y-93647047D01*
X189374190Y-93599428D01*
X189350380Y-93528000D01*
X189326571Y-93504190D01*
X189159904Y-93504190D01*
X189159904Y-93599428D01*
X189374190Y-93289904D02*
X188874190Y-93289904D01*
X189374190Y-93004190D01*
X188874190Y-93004190D01*
X189374190Y-92766095D02*
X188874190Y-92766095D01*
X188874190Y-92647047D01*
X188898000Y-92575619D01*
X188945619Y-92528000D01*
X188993238Y-92504190D01*
X189088476Y-92480380D01*
X189159904Y-92480380D01*
X189255142Y-92504190D01*
X189302761Y-92528000D01*
X189350380Y-92575619D01*
X189374190Y-92647047D01*
X189374190Y-92766095D01*
X189374190Y-91504190D02*
X188874190Y-91504190D01*
X188874190Y-91313714D01*
X188898000Y-91266095D01*
X188921809Y-91242285D01*
X188969428Y-91218476D01*
X189040857Y-91218476D01*
X189088476Y-91242285D01*
X189112285Y-91266095D01*
X189136095Y-91313714D01*
X189136095Y-91504190D01*
X188874190Y-91051809D02*
X189374190Y-90932761D01*
X189017047Y-90837523D01*
X189374190Y-90742285D01*
X188874190Y-90623238D01*
X189374190Y-90147047D02*
X189136095Y-90313714D01*
X189374190Y-90432761D02*
X188874190Y-90432761D01*
X188874190Y-90242285D01*
X188898000Y-90194666D01*
X188921809Y-90170857D01*
X188969428Y-90147047D01*
X189040857Y-90147047D01*
X189088476Y-90170857D01*
X189112285Y-90194666D01*
X189136095Y-90242285D01*
X189136095Y-90432761D01*
X189374190Y-89170857D02*
X188874190Y-89170857D01*
X188874190Y-88980380D01*
X188898000Y-88932761D01*
X188921809Y-88908952D01*
X188969428Y-88885142D01*
X189040857Y-88885142D01*
X189088476Y-88908952D01*
X189112285Y-88932761D01*
X189136095Y-88980380D01*
X189136095Y-89170857D01*
X188874190Y-88718476D02*
X189374190Y-88599428D01*
X189017047Y-88504190D01*
X189374190Y-88408952D01*
X188874190Y-88289904D01*
X189374190Y-88099428D02*
X188874190Y-88099428D01*
X189231333Y-87932761D01*
X188874190Y-87766095D01*
X189374190Y-87766095D01*
X188771000Y-81336000D02*
X188747190Y-81383619D01*
X188747190Y-81455047D01*
X188771000Y-81526476D01*
X188818619Y-81574095D01*
X188866238Y-81597904D01*
X188961476Y-81621714D01*
X189032904Y-81621714D01*
X189128142Y-81597904D01*
X189175761Y-81574095D01*
X189223380Y-81526476D01*
X189247190Y-81455047D01*
X189247190Y-81407428D01*
X189223380Y-81336000D01*
X189199571Y-81312190D01*
X189032904Y-81312190D01*
X189032904Y-81407428D01*
X189247190Y-81097904D02*
X188747190Y-81097904D01*
X189247190Y-80812190D01*
X188747190Y-80812190D01*
X189247190Y-80574095D02*
X188747190Y-80574095D01*
X188747190Y-80455047D01*
X188771000Y-80383619D01*
X188818619Y-80336000D01*
X188866238Y-80312190D01*
X188961476Y-80288380D01*
X189032904Y-80288380D01*
X189128142Y-80312190D01*
X189175761Y-80336000D01*
X189223380Y-80383619D01*
X189247190Y-80455047D01*
X189247190Y-80574095D01*
X189247190Y-79312190D02*
X188747190Y-79312190D01*
X188747190Y-79121714D01*
X188771000Y-79074095D01*
X188794809Y-79050285D01*
X188842428Y-79026476D01*
X188913857Y-79026476D01*
X188961476Y-79050285D01*
X188985285Y-79074095D01*
X189009095Y-79121714D01*
X189009095Y-79312190D01*
X188747190Y-78859809D02*
X189247190Y-78740761D01*
X188890047Y-78645523D01*
X189247190Y-78550285D01*
X188747190Y-78431238D01*
X189247190Y-77955047D02*
X189009095Y-78121714D01*
X189247190Y-78240761D02*
X188747190Y-78240761D01*
X188747190Y-78050285D01*
X188771000Y-78002666D01*
X188794809Y-77978857D01*
X188842428Y-77955047D01*
X188913857Y-77955047D01*
X188961476Y-77978857D01*
X188985285Y-78002666D01*
X189009095Y-78050285D01*
X189009095Y-78240761D01*
X189247190Y-76978857D02*
X188747190Y-76978857D01*
X188747190Y-76788380D01*
X188771000Y-76740761D01*
X188794809Y-76716952D01*
X188842428Y-76693142D01*
X188913857Y-76693142D01*
X188961476Y-76716952D01*
X188985285Y-76740761D01*
X189009095Y-76788380D01*
X189009095Y-76978857D01*
X188747190Y-76526476D02*
X189247190Y-76407428D01*
X188890047Y-76312190D01*
X189247190Y-76216952D01*
X188747190Y-76097904D01*
X189247190Y-75907428D02*
X188747190Y-75907428D01*
X189104333Y-75740761D01*
X188747190Y-75574095D01*
X189247190Y-75574095D01*
X188771000Y-69398000D02*
X188747190Y-69445619D01*
X188747190Y-69517047D01*
X188771000Y-69588476D01*
X188818619Y-69636095D01*
X188866238Y-69659904D01*
X188961476Y-69683714D01*
X189032904Y-69683714D01*
X189128142Y-69659904D01*
X189175761Y-69636095D01*
X189223380Y-69588476D01*
X189247190Y-69517047D01*
X189247190Y-69469428D01*
X189223380Y-69398000D01*
X189199571Y-69374190D01*
X189032904Y-69374190D01*
X189032904Y-69469428D01*
X189247190Y-69159904D02*
X188747190Y-69159904D01*
X189247190Y-68874190D01*
X188747190Y-68874190D01*
X189247190Y-68636095D02*
X188747190Y-68636095D01*
X188747190Y-68517047D01*
X188771000Y-68445619D01*
X188818619Y-68398000D01*
X188866238Y-68374190D01*
X188961476Y-68350380D01*
X189032904Y-68350380D01*
X189128142Y-68374190D01*
X189175761Y-68398000D01*
X189223380Y-68445619D01*
X189247190Y-68517047D01*
X189247190Y-68636095D01*
X189247190Y-67374190D02*
X188747190Y-67374190D01*
X188747190Y-67183714D01*
X188771000Y-67136095D01*
X188794809Y-67112285D01*
X188842428Y-67088476D01*
X188913857Y-67088476D01*
X188961476Y-67112285D01*
X188985285Y-67136095D01*
X189009095Y-67183714D01*
X189009095Y-67374190D01*
X188747190Y-66921809D02*
X189247190Y-66802761D01*
X188890047Y-66707523D01*
X189247190Y-66612285D01*
X188747190Y-66493238D01*
X189247190Y-66017047D02*
X189009095Y-66183714D01*
X189247190Y-66302761D02*
X188747190Y-66302761D01*
X188747190Y-66112285D01*
X188771000Y-66064666D01*
X188794809Y-66040857D01*
X188842428Y-66017047D01*
X188913857Y-66017047D01*
X188961476Y-66040857D01*
X188985285Y-66064666D01*
X189009095Y-66112285D01*
X189009095Y-66302761D01*
X189247190Y-65040857D02*
X188747190Y-65040857D01*
X188747190Y-64850380D01*
X188771000Y-64802761D01*
X188794809Y-64778952D01*
X188842428Y-64755142D01*
X188913857Y-64755142D01*
X188961476Y-64778952D01*
X188985285Y-64802761D01*
X189009095Y-64850380D01*
X189009095Y-65040857D01*
X188747190Y-64588476D02*
X189247190Y-64469428D01*
X188890047Y-64374190D01*
X189247190Y-64278952D01*
X188747190Y-64159904D01*
X189247190Y-63969428D02*
X188747190Y-63969428D01*
X189104333Y-63802761D01*
X188747190Y-63636095D01*
X189247190Y-63636095D01*
X188771000Y-57333000D02*
X188747190Y-57380619D01*
X188747190Y-57452047D01*
X188771000Y-57523476D01*
X188818619Y-57571095D01*
X188866238Y-57594904D01*
X188961476Y-57618714D01*
X189032904Y-57618714D01*
X189128142Y-57594904D01*
X189175761Y-57571095D01*
X189223380Y-57523476D01*
X189247190Y-57452047D01*
X189247190Y-57404428D01*
X189223380Y-57333000D01*
X189199571Y-57309190D01*
X189032904Y-57309190D01*
X189032904Y-57404428D01*
X189247190Y-57094904D02*
X188747190Y-57094904D01*
X189247190Y-56809190D01*
X188747190Y-56809190D01*
X189247190Y-56571095D02*
X188747190Y-56571095D01*
X188747190Y-56452047D01*
X188771000Y-56380619D01*
X188818619Y-56333000D01*
X188866238Y-56309190D01*
X188961476Y-56285380D01*
X189032904Y-56285380D01*
X189128142Y-56309190D01*
X189175761Y-56333000D01*
X189223380Y-56380619D01*
X189247190Y-56452047D01*
X189247190Y-56571095D01*
X189247190Y-55309190D02*
X188747190Y-55309190D01*
X188747190Y-55118714D01*
X188771000Y-55071095D01*
X188794809Y-55047285D01*
X188842428Y-55023476D01*
X188913857Y-55023476D01*
X188961476Y-55047285D01*
X188985285Y-55071095D01*
X189009095Y-55118714D01*
X189009095Y-55309190D01*
X188747190Y-54856809D02*
X189247190Y-54737761D01*
X188890047Y-54642523D01*
X189247190Y-54547285D01*
X188747190Y-54428238D01*
X189247190Y-53952047D02*
X189009095Y-54118714D01*
X189247190Y-54237761D02*
X188747190Y-54237761D01*
X188747190Y-54047285D01*
X188771000Y-53999666D01*
X188794809Y-53975857D01*
X188842428Y-53952047D01*
X188913857Y-53952047D01*
X188961476Y-53975857D01*
X188985285Y-53999666D01*
X189009095Y-54047285D01*
X189009095Y-54237761D01*
X189247190Y-52975857D02*
X188747190Y-52975857D01*
X188747190Y-52785380D01*
X188771000Y-52737761D01*
X188794809Y-52713952D01*
X188842428Y-52690142D01*
X188913857Y-52690142D01*
X188961476Y-52713952D01*
X188985285Y-52737761D01*
X189009095Y-52785380D01*
X189009095Y-52975857D01*
X188747190Y-52523476D02*
X189247190Y-52404428D01*
X188890047Y-52309190D01*
X189247190Y-52213952D01*
X188747190Y-52094904D01*
X189247190Y-51904428D02*
X188747190Y-51904428D01*
X189104333Y-51737761D01*
X188747190Y-51571095D01*
X189247190Y-51571095D01*
D10*
X191632380Y-55011523D02*
X190632380Y-55011523D01*
X191346666Y-54678190D01*
X190632380Y-54344857D01*
X191632380Y-54344857D01*
X191632380Y-53344857D02*
X191632380Y-53916285D01*
X191632380Y-53630571D02*
X190632380Y-53630571D01*
X190775238Y-53725809D01*
X190870476Y-53821047D01*
X190918095Y-53916285D01*
D11*
X186834190Y-117705666D02*
X186834190Y-117991380D01*
X186834190Y-117848523D02*
X186334190Y-117848523D01*
X186405619Y-117896142D01*
X186453238Y-117943761D01*
X186477047Y-117991380D01*
X186381809Y-117515190D02*
X186358000Y-117491380D01*
X186334190Y-117443761D01*
X186334190Y-117324714D01*
X186358000Y-117277095D01*
X186381809Y-117253285D01*
X186429428Y-117229476D01*
X186477047Y-117229476D01*
X186548476Y-117253285D01*
X186834190Y-117539000D01*
X186834190Y-117229476D01*
X186334190Y-117086619D02*
X186834190Y-116919952D01*
X186334190Y-116753285D01*
X186786571Y-115539000D02*
X186810380Y-115562809D01*
X186834190Y-115634238D01*
X186834190Y-115681857D01*
X186810380Y-115753285D01*
X186762761Y-115800904D01*
X186715142Y-115824714D01*
X186619904Y-115848523D01*
X186548476Y-115848523D01*
X186453238Y-115824714D01*
X186405619Y-115800904D01*
X186358000Y-115753285D01*
X186334190Y-115681857D01*
X186334190Y-115634238D01*
X186358000Y-115562809D01*
X186381809Y-115539000D01*
X186810380Y-115348523D02*
X186834190Y-115277095D01*
X186834190Y-115158047D01*
X186810380Y-115110428D01*
X186786571Y-115086619D01*
X186738952Y-115062809D01*
X186691333Y-115062809D01*
X186643714Y-115086619D01*
X186619904Y-115110428D01*
X186596095Y-115158047D01*
X186572285Y-115253285D01*
X186548476Y-115300904D01*
X186524666Y-115324714D01*
X186477047Y-115348523D01*
X186429428Y-115348523D01*
X186381809Y-115324714D01*
X186358000Y-115300904D01*
X186334190Y-115253285D01*
X186334190Y-115134238D01*
X186358000Y-115062809D01*
X186334190Y-114919952D02*
X186334190Y-114634238D01*
X186834190Y-114777095D02*
X186334190Y-114777095D01*
X186834190Y-114467571D02*
X186334190Y-114467571D01*
X186691333Y-114300904D01*
X186334190Y-114134238D01*
X186834190Y-114134238D01*
X186834190Y-113134238D02*
X186334190Y-113134238D01*
X186834190Y-112896142D02*
X186334190Y-112896142D01*
X186834190Y-112610428D01*
X186334190Y-112610428D01*
D10*
X192140380Y-118082619D02*
X191140380Y-118082619D01*
X191140380Y-117701666D01*
X191188000Y-117606428D01*
X191235619Y-117558809D01*
X191330857Y-117511190D01*
X191473714Y-117511190D01*
X191568952Y-117558809D01*
X191616571Y-117606428D01*
X191664190Y-117701666D01*
X191664190Y-118082619D01*
X191140380Y-117177857D02*
X192140380Y-116939761D01*
X191426095Y-116749285D01*
X192140380Y-116558809D01*
X191140380Y-116320714D01*
X192140380Y-115368333D02*
X191664190Y-115701666D01*
X192140380Y-115939761D02*
X191140380Y-115939761D01*
X191140380Y-115558809D01*
X191188000Y-115463571D01*
X191235619Y-115415952D01*
X191330857Y-115368333D01*
X191473714Y-115368333D01*
X191568952Y-115415952D01*
X191616571Y-115463571D01*
X191664190Y-115558809D01*
X191664190Y-115939761D01*
X192092761Y-114225476D02*
X192140380Y-114082619D01*
X192140380Y-113844523D01*
X192092761Y-113749285D01*
X192045142Y-113701666D01*
X191949904Y-113654047D01*
X191854666Y-113654047D01*
X191759428Y-113701666D01*
X191711809Y-113749285D01*
X191664190Y-113844523D01*
X191616571Y-114035000D01*
X191568952Y-114130238D01*
X191521333Y-114177857D01*
X191426095Y-114225476D01*
X191330857Y-114225476D01*
X191235619Y-114177857D01*
X191188000Y-114130238D01*
X191140380Y-114035000D01*
X191140380Y-113796904D01*
X191188000Y-113654047D01*
X191616571Y-113225476D02*
X191616571Y-112892142D01*
X192140380Y-112749285D02*
X192140380Y-113225476D01*
X191140380Y-113225476D01*
X191140380Y-112749285D01*
X192140380Y-111844523D02*
X192140380Y-112320714D01*
X191140380Y-112320714D01*
X189092428Y-125432904D02*
X189092428Y-124671000D01*
X189092428Y-122671000D02*
X189092428Y-121909095D01*
X189473380Y-122290047D02*
X188711476Y-122290047D01*
X192045142Y-126059904D02*
X192092761Y-126107523D01*
X192140380Y-126250380D01*
X192140380Y-126345619D01*
X192092761Y-126488476D01*
X191997523Y-126583714D01*
X191902285Y-126631333D01*
X191711809Y-126678952D01*
X191568952Y-126678952D01*
X191378476Y-126631333D01*
X191283238Y-126583714D01*
X191188000Y-126488476D01*
X191140380Y-126345619D01*
X191140380Y-126250380D01*
X191188000Y-126107523D01*
X191235619Y-126059904D01*
X192092761Y-125678952D02*
X192140380Y-125536095D01*
X192140380Y-125298000D01*
X192092761Y-125202761D01*
X192045142Y-125155142D01*
X191949904Y-125107523D01*
X191854666Y-125107523D01*
X191759428Y-125155142D01*
X191711809Y-125202761D01*
X191664190Y-125298000D01*
X191616571Y-125488476D01*
X191568952Y-125583714D01*
X191521333Y-125631333D01*
X191426095Y-125678952D01*
X191330857Y-125678952D01*
X191235619Y-125631333D01*
X191188000Y-125583714D01*
X191140380Y-125488476D01*
X191140380Y-125250380D01*
X191188000Y-125107523D01*
X191140380Y-124821809D02*
X191140380Y-124250380D01*
X192140380Y-124536095D02*
X191140380Y-124536095D01*
X192140380Y-123917047D02*
X191140380Y-123917047D01*
X191854666Y-123583714D01*
X191140380Y-123250380D01*
X192140380Y-123250380D01*
X192140380Y-122012285D02*
X191140380Y-122012285D01*
X192140380Y-121536095D02*
X191140380Y-121536095D01*
X192140380Y-120964666D01*
X191140380Y-120964666D01*
X153528570Y-134554761D02*
X153671427Y-134602380D01*
X153909522Y-134602380D01*
X154004760Y-134554761D01*
X154052379Y-134507142D01*
X154099999Y-134411904D01*
X154099999Y-134316666D01*
X154052379Y-134221428D01*
X154004760Y-134173809D01*
X153909522Y-134126190D01*
X153719046Y-134078571D01*
X153623808Y-134030952D01*
X153576189Y-133983333D01*
X153528570Y-133888095D01*
X153528570Y-133792857D01*
X153576189Y-133697619D01*
X153623808Y-133650000D01*
X153719046Y-133602380D01*
X153957141Y-133602380D01*
X154099999Y-133650000D01*
X154909522Y-134554761D02*
X154814284Y-134602380D01*
X154623808Y-134602380D01*
X154528570Y-134554761D01*
X154480951Y-134459523D01*
X154480951Y-134078571D01*
X154528570Y-133983333D01*
X154623808Y-133935714D01*
X154814284Y-133935714D01*
X154909522Y-133983333D01*
X154957141Y-134078571D01*
X154957141Y-134173809D01*
X154480951Y-134269047D01*
X155385713Y-134602380D02*
X155385713Y-133935714D01*
X155385713Y-134126190D02*
X155433332Y-134030952D01*
X155480951Y-133983333D01*
X155576189Y-133935714D01*
X155671427Y-133935714D01*
X155909522Y-133935714D02*
X156147618Y-134602380D01*
X156385713Y-133935714D01*
X156909522Y-134602380D02*
X156814284Y-134554761D01*
X156766665Y-134507142D01*
X156719046Y-134411904D01*
X156719046Y-134126190D01*
X156766665Y-134030952D01*
X156814284Y-133983333D01*
X156909522Y-133935714D01*
X157052379Y-133935714D01*
X157147618Y-133983333D01*
X157195237Y-134030952D01*
X157242856Y-134126190D01*
X157242856Y-134411904D01*
X157195237Y-134507142D01*
X157147618Y-134554761D01*
X157052379Y-134602380D01*
X156909522Y-134602380D01*
X158385713Y-134554761D02*
X158528570Y-134602380D01*
X158766665Y-134602380D01*
X158861903Y-134554761D01*
X158909522Y-134507142D01*
X158957141Y-134411904D01*
X158957141Y-134316666D01*
X158909522Y-134221428D01*
X158861903Y-134173809D01*
X158766665Y-134126190D01*
X158576189Y-134078571D01*
X158480951Y-134030952D01*
X158433332Y-133983333D01*
X158385713Y-133888095D01*
X158385713Y-133792857D01*
X158433332Y-133697619D01*
X158480951Y-133650000D01*
X158576189Y-133602380D01*
X158814284Y-133602380D01*
X158957141Y-133650000D01*
X159528570Y-134602380D02*
X159433332Y-134554761D01*
X159385713Y-134459523D01*
X159385713Y-133602380D01*
X159909522Y-134602380D02*
X159909522Y-133935714D01*
X159909522Y-133602380D02*
X159861903Y-133650000D01*
X159909522Y-133697619D01*
X159957141Y-133650000D01*
X159909522Y-133602380D01*
X159909522Y-133697619D01*
X160814284Y-134554761D02*
X160719046Y-134602380D01*
X160528570Y-134602380D01*
X160433332Y-134554761D01*
X160385713Y-134507142D01*
X160338094Y-134411904D01*
X160338094Y-134126190D01*
X160385713Y-134030952D01*
X160433332Y-133983333D01*
X160528570Y-133935714D01*
X160719046Y-133935714D01*
X160814284Y-133983333D01*
X161623808Y-134554761D02*
X161528570Y-134602380D01*
X161338094Y-134602380D01*
X161242856Y-134554761D01*
X161195237Y-134459523D01*
X161195237Y-134078571D01*
X161242856Y-133983333D01*
X161338094Y-133935714D01*
X161528570Y-133935714D01*
X161623808Y-133983333D01*
X161671427Y-134078571D01*
X161671427Y-134173809D01*
X161195237Y-134269047D01*
X154171427Y-136204761D02*
X154314284Y-136252380D01*
X154552379Y-136252380D01*
X154647618Y-136204761D01*
X154695237Y-136157142D01*
X154742856Y-136061904D01*
X154742856Y-135966666D01*
X154695237Y-135871428D01*
X154647618Y-135823809D01*
X154552379Y-135776190D01*
X154361903Y-135728571D01*
X154266665Y-135680952D01*
X154219046Y-135633333D01*
X154171427Y-135538095D01*
X154171427Y-135442857D01*
X154219046Y-135347619D01*
X154266665Y-135300000D01*
X154361903Y-135252380D01*
X154599999Y-135252380D01*
X154742856Y-135300000D01*
X155647618Y-136252380D02*
X155171427Y-136252380D01*
X155171427Y-135252380D01*
X156552379Y-136157142D02*
X156504760Y-136204761D01*
X156361903Y-136252380D01*
X156266665Y-136252380D01*
X156123808Y-136204761D01*
X156028570Y-136109523D01*
X155980951Y-136014285D01*
X155933332Y-135823809D01*
X155933332Y-135680952D01*
X155980951Y-135490476D01*
X156028570Y-135395238D01*
X156123808Y-135300000D01*
X156266665Y-135252380D01*
X156361903Y-135252380D01*
X156504760Y-135300000D01*
X156552379Y-135347619D01*
X156742856Y-136347619D02*
X157504760Y-136347619D01*
X157695237Y-136204761D02*
X157838094Y-136252380D01*
X158076189Y-136252380D01*
X158171427Y-136204761D01*
X158219046Y-136157142D01*
X158266665Y-136061904D01*
X158266665Y-135966666D01*
X158219046Y-135871428D01*
X158171427Y-135823809D01*
X158076189Y-135776190D01*
X157885713Y-135728571D01*
X157790475Y-135680952D01*
X157742856Y-135633333D01*
X157695237Y-135538095D01*
X157695237Y-135442857D01*
X157742856Y-135347619D01*
X157790475Y-135300000D01*
X157885713Y-135252380D01*
X158123808Y-135252380D01*
X158266665Y-135300000D01*
X158695237Y-135728571D02*
X159028570Y-135728571D01*
X159171427Y-136252380D02*
X158695237Y-136252380D01*
X158695237Y-135252380D01*
X159171427Y-135252380D01*
X160171427Y-136252380D02*
X159838094Y-135776190D01*
X159599999Y-136252380D02*
X159599999Y-135252380D01*
X159980951Y-135252380D01*
X160076189Y-135300000D01*
X160123808Y-135347619D01*
X160171427Y-135442857D01*
X160171427Y-135585714D01*
X160123808Y-135680952D01*
X160076189Y-135728571D01*
X159980951Y-135776190D01*
X159599999Y-135776190D01*
X160457141Y-135252380D02*
X160790475Y-136252380D01*
X161123808Y-135252380D01*
X155147618Y-137902380D02*
X154814284Y-137426190D01*
X154576189Y-137902380D02*
X154576189Y-136902380D01*
X154957141Y-136902380D01*
X155052379Y-136950000D01*
X155099999Y-136997619D01*
X155147618Y-137092857D01*
X155147618Y-137235714D01*
X155099999Y-137330952D01*
X155052379Y-137378571D01*
X154957141Y-137426190D01*
X154576189Y-137426190D01*
X155766665Y-136902380D02*
X155861903Y-136902380D01*
X155957141Y-136950000D01*
X156004760Y-136997619D01*
X156052379Y-137092857D01*
X156099999Y-137283333D01*
X156099999Y-137521428D01*
X156052379Y-137711904D01*
X156004760Y-137807142D01*
X155957141Y-137854761D01*
X155861903Y-137902380D01*
X155766665Y-137902380D01*
X155671427Y-137854761D01*
X155623808Y-137807142D01*
X155576189Y-137711904D01*
X155528570Y-137521428D01*
X155528570Y-137283333D01*
X155576189Y-137092857D01*
X155623808Y-136997619D01*
X155671427Y-136950000D01*
X155766665Y-136902380D01*
X157242856Y-136997619D02*
X157290475Y-136950000D01*
X157385713Y-136902380D01*
X157623808Y-136902380D01*
X157719046Y-136950000D01*
X157766665Y-136997619D01*
X157814284Y-137092857D01*
X157814284Y-137188095D01*
X157766665Y-137330952D01*
X157195237Y-137902380D01*
X157814284Y-137902380D01*
X158433332Y-136902380D02*
X158528570Y-136902380D01*
X158623808Y-136950000D01*
X158671427Y-136997619D01*
X158719046Y-137092857D01*
X158766665Y-137283333D01*
X158766665Y-137521428D01*
X158719046Y-137711904D01*
X158671427Y-137807142D01*
X158623808Y-137854761D01*
X158528570Y-137902380D01*
X158433332Y-137902380D01*
X158338094Y-137854761D01*
X158290475Y-137807142D01*
X158242856Y-137711904D01*
X158195237Y-137521428D01*
X158195237Y-137283333D01*
X158242856Y-137092857D01*
X158290475Y-136997619D01*
X158338094Y-136950000D01*
X158433332Y-136902380D01*
X159147618Y-136997619D02*
X159195237Y-136950000D01*
X159290475Y-136902380D01*
X159528570Y-136902380D01*
X159623808Y-136950000D01*
X159671427Y-136997619D01*
X159719046Y-137092857D01*
X159719046Y-137188095D01*
X159671427Y-137330952D01*
X159099999Y-137902380D01*
X159719046Y-137902380D01*
X160671427Y-137902380D02*
X160099999Y-137902380D01*
X160385713Y-137902380D02*
X160385713Y-136902380D01*
X160290475Y-137045238D01*
X160195237Y-137140476D01*
X160099999Y-137188095D01*
D12*
%TO.C,J8*%
X180712000Y-120414000D02*
X180712000Y-120814000D01*
X181352000Y-120414000D02*
X180712000Y-120414000D01*
X187692000Y-126434000D02*
X180952000Y-126434000D01*
X187692000Y-120654000D02*
X180952000Y-120654000D01*
X180952000Y-120654000D02*
X180952000Y-126434000D01*
X187692000Y-120654000D02*
X187692000Y-126434000D01*
X186572000Y-120654000D02*
X186572000Y-126434000D01*
X181472000Y-120654000D02*
X181472000Y-126434000D01*
%TO.C,J7*%
X184322000Y-111165000D02*
X185652000Y-111165000D01*
X185652000Y-111165000D02*
X185652000Y-112495000D01*
X185652000Y-113765000D02*
X185652000Y-118905000D01*
X182992000Y-118905000D02*
X185652000Y-118905000D01*
X182992000Y-113765000D02*
X182992000Y-118905000D01*
X182992000Y-113765000D02*
X185652000Y-113765000D01*
%TO.C,J6*%
X180712000Y-74186000D02*
X180712000Y-74586000D01*
X181352000Y-74186000D02*
X180712000Y-74186000D01*
X187692000Y-82746000D02*
X180952000Y-82746000D01*
X187692000Y-74426000D02*
X180952000Y-74426000D01*
X180952000Y-74426000D02*
X180952000Y-82746000D01*
X187692000Y-74426000D02*
X187692000Y-82746000D01*
X186572000Y-74426000D02*
X186572000Y-82746000D01*
X181472000Y-74426000D02*
X181472000Y-82746000D01*
%TO.C,J5*%
X180712000Y-98316000D02*
X180712000Y-98716000D01*
X181352000Y-98316000D02*
X180712000Y-98316000D01*
X187692000Y-106876000D02*
X180952000Y-106876000D01*
X187692000Y-98556000D02*
X180952000Y-98556000D01*
X180952000Y-98556000D02*
X180952000Y-106876000D01*
X187692000Y-98556000D02*
X187692000Y-106876000D01*
X186572000Y-98556000D02*
X186572000Y-106876000D01*
X181472000Y-98556000D02*
X181472000Y-106876000D01*
%TO.C,J4*%
X180712000Y-62121000D02*
X180712000Y-62521000D01*
X181352000Y-62121000D02*
X180712000Y-62121000D01*
X187692000Y-70681000D02*
X180952000Y-70681000D01*
X187692000Y-62361000D02*
X180952000Y-62361000D01*
X180952000Y-62361000D02*
X180952000Y-70681000D01*
X187692000Y-62361000D02*
X187692000Y-70681000D01*
X186572000Y-62361000D02*
X186572000Y-70681000D01*
X181472000Y-62361000D02*
X181472000Y-70681000D01*
%TO.C,J3*%
X180712000Y-86251000D02*
X180712000Y-86651000D01*
X181352000Y-86251000D02*
X180712000Y-86251000D01*
X187692000Y-94811000D02*
X180952000Y-94811000D01*
X187692000Y-86491000D02*
X180952000Y-86491000D01*
X180952000Y-86491000D02*
X180952000Y-94811000D01*
X187692000Y-86491000D02*
X187692000Y-94811000D01*
X186572000Y-86491000D02*
X186572000Y-94811000D01*
X181472000Y-86491000D02*
X181472000Y-94811000D01*
%TO.C,J2*%
X180712000Y-50056000D02*
X180712000Y-50456000D01*
X181352000Y-50056000D02*
X180712000Y-50056000D01*
X187692000Y-58616000D02*
X180952000Y-58616000D01*
X187692000Y-50296000D02*
X180952000Y-50296000D01*
X180952000Y-50296000D02*
X180952000Y-58616000D01*
X187692000Y-50296000D02*
X187692000Y-58616000D01*
X186572000Y-50296000D02*
X186572000Y-58616000D01*
X181472000Y-50296000D02*
X181472000Y-58616000D01*
D13*
%TO.C,Logo1*%
G36*
X167155814Y-133268931D02*
G01*
X167239635Y-133713555D01*
X167548920Y-133841053D01*
X167858206Y-133968551D01*
X168229246Y-133716246D01*
X168333157Y-133645996D01*
X168427087Y-133583272D01*
X168506652Y-133530938D01*
X168567470Y-133491857D01*
X168605157Y-133468893D01*
X168615421Y-133463942D01*
X168633910Y-133476676D01*
X168673420Y-133511882D01*
X168729522Y-133565062D01*
X168797787Y-133631718D01*
X168873786Y-133707354D01*
X168953092Y-133787472D01*
X169031275Y-133867574D01*
X169103907Y-133943164D01*
X169166559Y-134009745D01*
X169214803Y-134062818D01*
X169244210Y-134097887D01*
X169251241Y-134109623D01*
X169241123Y-134131260D01*
X169212759Y-134178662D01*
X169169129Y-134247193D01*
X169113218Y-134332215D01*
X169048006Y-134429093D01*
X169010219Y-134484350D01*
X168941343Y-134585248D01*
X168880140Y-134676299D01*
X168829578Y-134752970D01*
X168792628Y-134810728D01*
X168772258Y-134845043D01*
X168769197Y-134852254D01*
X168776136Y-134872748D01*
X168795051Y-134920513D01*
X168823087Y-134988832D01*
X168857391Y-135070989D01*
X168895109Y-135160270D01*
X168933387Y-135249958D01*
X168969370Y-135333338D01*
X169000206Y-135403694D01*
X169023039Y-135454310D01*
X169035017Y-135478471D01*
X169035724Y-135479422D01*
X169054531Y-135484036D01*
X169104618Y-135494328D01*
X169180793Y-135509287D01*
X169277865Y-135527901D01*
X169390643Y-135549159D01*
X169456442Y-135561418D01*
X169576950Y-135584362D01*
X169685797Y-135606195D01*
X169777476Y-135625722D01*
X169846481Y-135641748D01*
X169887304Y-135653079D01*
X169895511Y-135656674D01*
X169903548Y-135681006D01*
X169910033Y-135735959D01*
X169914970Y-135815108D01*
X169918364Y-135912026D01*
X169920218Y-136020287D01*
X169920538Y-136133465D01*
X169919327Y-136245135D01*
X169916590Y-136348868D01*
X169912331Y-136438241D01*
X169906555Y-136506826D01*
X169899267Y-136548197D01*
X169894895Y-136556810D01*
X169868764Y-136567133D01*
X169813393Y-136581892D01*
X169736107Y-136599352D01*
X169644230Y-136617780D01*
X169612158Y-136623741D01*
X169457524Y-136652066D01*
X169335375Y-136674876D01*
X169241673Y-136693080D01*
X169172384Y-136707583D01*
X169123471Y-136719292D01*
X169090897Y-136729115D01*
X169070628Y-136737956D01*
X169058626Y-136746724D01*
X169056947Y-136748457D01*
X169040184Y-136776371D01*
X169014614Y-136830695D01*
X168982788Y-136904777D01*
X168947260Y-136991965D01*
X168910583Y-137085608D01*
X168875311Y-137179052D01*
X168843996Y-137265647D01*
X168819193Y-137338740D01*
X168803454Y-137391678D01*
X168799332Y-137417811D01*
X168799676Y-137418726D01*
X168813641Y-137440086D01*
X168845322Y-137487084D01*
X168891391Y-137554827D01*
X168948518Y-137638423D01*
X169013373Y-137732982D01*
X169031843Y-137759854D01*
X169097699Y-137857275D01*
X169155650Y-137946163D01*
X169202538Y-138021412D01*
X169235207Y-138077920D01*
X169250500Y-138110581D01*
X169251241Y-138114593D01*
X169238392Y-138135684D01*
X169202888Y-138177464D01*
X169149293Y-138235445D01*
X169082171Y-138305135D01*
X169006087Y-138382045D01*
X168925604Y-138461683D01*
X168845287Y-138539561D01*
X168769699Y-138611186D01*
X168703405Y-138672070D01*
X168650969Y-138717721D01*
X168616955Y-138743650D01*
X168607545Y-138747883D01*
X168585643Y-138737912D01*
X168540800Y-138711020D01*
X168480321Y-138671736D01*
X168433789Y-138640117D01*
X168349475Y-138582098D01*
X168249626Y-138513784D01*
X168149473Y-138445579D01*
X168095627Y-138409075D01*
X167913371Y-138285800D01*
X167760381Y-138368520D01*
X167690682Y-138404759D01*
X167631414Y-138432926D01*
X167591311Y-138448991D01*
X167581103Y-138451226D01*
X167568829Y-138434722D01*
X167544613Y-138388082D01*
X167510263Y-138315609D01*
X167467588Y-138221606D01*
X167418394Y-138110374D01*
X167364490Y-137986215D01*
X167307684Y-137853432D01*
X167249782Y-137716327D01*
X167192593Y-137579202D01*
X167137924Y-137446358D01*
X167087584Y-137322098D01*
X167043380Y-137210725D01*
X167007119Y-137116539D01*
X166980609Y-137043844D01*
X166965658Y-136996941D01*
X166963254Y-136980833D01*
X166982311Y-136960286D01*
X167024036Y-136926933D01*
X167079706Y-136887702D01*
X167084378Y-136884599D01*
X167228264Y-136769423D01*
X167344283Y-136635053D01*
X167431430Y-136485784D01*
X167488699Y-136325913D01*
X167515086Y-136159737D01*
X167509585Y-135991552D01*
X167471190Y-135825655D01*
X167398895Y-135666342D01*
X167377626Y-135631487D01*
X167266996Y-135490737D01*
X167136302Y-135377714D01*
X166990064Y-135293003D01*
X166832808Y-135237194D01*
X166669057Y-135210874D01*
X166503333Y-135214630D01*
X166340162Y-135249050D01*
X166184065Y-135314723D01*
X166039567Y-135412235D01*
X165994869Y-135451813D01*
X165881112Y-135575703D01*
X165798218Y-135706124D01*
X165741356Y-135852315D01*
X165709687Y-135997088D01*
X165701869Y-136159860D01*
X165727938Y-136323440D01*
X165785245Y-136482298D01*
X165871144Y-136630906D01*
X165982986Y-136763735D01*
X166118123Y-136875256D01*
X166135883Y-136887011D01*
X166192150Y-136925508D01*
X166234923Y-136958863D01*
X166255372Y-136980160D01*
X166255669Y-136980833D01*
X166251279Y-137003871D01*
X166233876Y-137056157D01*
X166205268Y-137133390D01*
X166167265Y-137231268D01*
X166121674Y-137345491D01*
X166070303Y-137471758D01*
X166014962Y-137605767D01*
X165957458Y-137743218D01*
X165899601Y-137879808D01*
X165843198Y-138011237D01*
X165790058Y-138133205D01*
X165741990Y-138241409D01*
X165700801Y-138331549D01*
X165668301Y-138399323D01*
X165646297Y-138440430D01*
X165637436Y-138451226D01*
X165610360Y-138442819D01*
X165559697Y-138420272D01*
X165494183Y-138387613D01*
X165458159Y-138368520D01*
X165305168Y-138285800D01*
X165122912Y-138409075D01*
X165029875Y-138472228D01*
X164928015Y-138541727D01*
X164832562Y-138607165D01*
X164784750Y-138640117D01*
X164717505Y-138685273D01*
X164660564Y-138721057D01*
X164621354Y-138742938D01*
X164608619Y-138747563D01*
X164590083Y-138735085D01*
X164549059Y-138700252D01*
X164489525Y-138646678D01*
X164415458Y-138577983D01*
X164330835Y-138497781D01*
X164277315Y-138446286D01*
X164183681Y-138354286D01*
X164102759Y-138271999D01*
X164037823Y-138202945D01*
X163992142Y-138150644D01*
X163968989Y-138118616D01*
X163966768Y-138112116D01*
X163977076Y-138087394D01*
X164005561Y-138037405D01*
X164049063Y-137967212D01*
X164104423Y-137881875D01*
X164168480Y-137786456D01*
X164186697Y-137759854D01*
X164253073Y-137663167D01*
X164312622Y-137576117D01*
X164362016Y-137503595D01*
X164397925Y-137450493D01*
X164417019Y-137421703D01*
X164418864Y-137418726D01*
X164416105Y-137395782D01*
X164401462Y-137345336D01*
X164377487Y-137274041D01*
X164346734Y-137188547D01*
X164311756Y-137095507D01*
X164275107Y-137001574D01*
X164239339Y-136913399D01*
X164207006Y-136837634D01*
X164180662Y-136780931D01*
X164162858Y-136749943D01*
X164161593Y-136748457D01*
X164150706Y-136739601D01*
X164132318Y-136730843D01*
X164102394Y-136721277D01*
X164056897Y-136709996D01*
X163991791Y-136696093D01*
X163903039Y-136678663D01*
X163786607Y-136656798D01*
X163638458Y-136629591D01*
X163606382Y-136623741D01*
X163511314Y-136605374D01*
X163428435Y-136587405D01*
X163365070Y-136571569D01*
X163328542Y-136559600D01*
X163323644Y-136556810D01*
X163315573Y-136532072D01*
X163309013Y-136476790D01*
X163303967Y-136397389D01*
X163300441Y-136300296D01*
X163298439Y-136191938D01*
X163297964Y-136078740D01*
X163299023Y-135967128D01*
X163301618Y-135863529D01*
X163305754Y-135774368D01*
X163311437Y-135706072D01*
X163318669Y-135665066D01*
X163323029Y-135656674D01*
X163347302Y-135648208D01*
X163402574Y-135634435D01*
X163483338Y-135616550D01*
X163584088Y-135595748D01*
X163699317Y-135573223D01*
X163762098Y-135561418D01*
X163881213Y-135539151D01*
X163987435Y-135518979D01*
X164075573Y-135501915D01*
X164140434Y-135488969D01*
X164176826Y-135481155D01*
X164182816Y-135479422D01*
X164192939Y-135459890D01*
X164214338Y-135412843D01*
X164244161Y-135345003D01*
X164279555Y-135263091D01*
X164317668Y-135173828D01*
X164355647Y-135083935D01*
X164390640Y-135000135D01*
X164419794Y-134929147D01*
X164440257Y-134877694D01*
X164449177Y-134852497D01*
X164449343Y-134851396D01*
X164439231Y-134831519D01*
X164410883Y-134785777D01*
X164367277Y-134718717D01*
X164311394Y-134634884D01*
X164246213Y-134538826D01*
X164208321Y-134483650D01*
X164139275Y-134382481D01*
X164077950Y-134290630D01*
X164027337Y-134212744D01*
X163990429Y-134153469D01*
X163970218Y-134117451D01*
X163967299Y-134109377D01*
X163979847Y-134090584D01*
X164014537Y-134050457D01*
X164066937Y-133993493D01*
X164132616Y-133924185D01*
X164207144Y-133847031D01*
X164286087Y-133766525D01*
X164365017Y-133687163D01*
X164439500Y-133613440D01*
X164505106Y-133549852D01*
X164557404Y-133500894D01*
X164591961Y-133471061D01*
X164603522Y-133463942D01*
X164622346Y-133473953D01*
X164667369Y-133502078D01*
X164734213Y-133545454D01*
X164818501Y-133601218D01*
X164915856Y-133666506D01*
X164989293Y-133716246D01*
X165360333Y-133968551D01*
X165978905Y-133713555D01*
X166062725Y-133268931D01*
X166146546Y-132824307D01*
X167071994Y-132824307D01*
X167155814Y-133268931D01*
G37*
X167155814Y-133268931D02*
X167239635Y-133713555D01*
X167548920Y-133841053D01*
X167858206Y-133968551D01*
X168229246Y-133716246D01*
X168333157Y-133645996D01*
X168427087Y-133583272D01*
X168506652Y-133530938D01*
X168567470Y-133491857D01*
X168605157Y-133468893D01*
X168615421Y-133463942D01*
X168633910Y-133476676D01*
X168673420Y-133511882D01*
X168729522Y-133565062D01*
X168797787Y-133631718D01*
X168873786Y-133707354D01*
X168953092Y-133787472D01*
X169031275Y-133867574D01*
X169103907Y-133943164D01*
X169166559Y-134009745D01*
X169214803Y-134062818D01*
X169244210Y-134097887D01*
X169251241Y-134109623D01*
X169241123Y-134131260D01*
X169212759Y-134178662D01*
X169169129Y-134247193D01*
X169113218Y-134332215D01*
X169048006Y-134429093D01*
X169010219Y-134484350D01*
X168941343Y-134585248D01*
X168880140Y-134676299D01*
X168829578Y-134752970D01*
X168792628Y-134810728D01*
X168772258Y-134845043D01*
X168769197Y-134852254D01*
X168776136Y-134872748D01*
X168795051Y-134920513D01*
X168823087Y-134988832D01*
X168857391Y-135070989D01*
X168895109Y-135160270D01*
X168933387Y-135249958D01*
X168969370Y-135333338D01*
X169000206Y-135403694D01*
X169023039Y-135454310D01*
X169035017Y-135478471D01*
X169035724Y-135479422D01*
X169054531Y-135484036D01*
X169104618Y-135494328D01*
X169180793Y-135509287D01*
X169277865Y-135527901D01*
X169390643Y-135549159D01*
X169456442Y-135561418D01*
X169576950Y-135584362D01*
X169685797Y-135606195D01*
X169777476Y-135625722D01*
X169846481Y-135641748D01*
X169887304Y-135653079D01*
X169895511Y-135656674D01*
X169903548Y-135681006D01*
X169910033Y-135735959D01*
X169914970Y-135815108D01*
X169918364Y-135912026D01*
X169920218Y-136020287D01*
X169920538Y-136133465D01*
X169919327Y-136245135D01*
X169916590Y-136348868D01*
X169912331Y-136438241D01*
X169906555Y-136506826D01*
X169899267Y-136548197D01*
X169894895Y-136556810D01*
X169868764Y-136567133D01*
X169813393Y-136581892D01*
X169736107Y-136599352D01*
X169644230Y-136617780D01*
X169612158Y-136623741D01*
X169457524Y-136652066D01*
X169335375Y-136674876D01*
X169241673Y-136693080D01*
X169172384Y-136707583D01*
X169123471Y-136719292D01*
X169090897Y-136729115D01*
X169070628Y-136737956D01*
X169058626Y-136746724D01*
X169056947Y-136748457D01*
X169040184Y-136776371D01*
X169014614Y-136830695D01*
X168982788Y-136904777D01*
X168947260Y-136991965D01*
X168910583Y-137085608D01*
X168875311Y-137179052D01*
X168843996Y-137265647D01*
X168819193Y-137338740D01*
X168803454Y-137391678D01*
X168799332Y-137417811D01*
X168799676Y-137418726D01*
X168813641Y-137440086D01*
X168845322Y-137487084D01*
X168891391Y-137554827D01*
X168948518Y-137638423D01*
X169013373Y-137732982D01*
X169031843Y-137759854D01*
X169097699Y-137857275D01*
X169155650Y-137946163D01*
X169202538Y-138021412D01*
X169235207Y-138077920D01*
X169250500Y-138110581D01*
X169251241Y-138114593D01*
X169238392Y-138135684D01*
X169202888Y-138177464D01*
X169149293Y-138235445D01*
X169082171Y-138305135D01*
X169006087Y-138382045D01*
X168925604Y-138461683D01*
X168845287Y-138539561D01*
X168769699Y-138611186D01*
X168703405Y-138672070D01*
X168650969Y-138717721D01*
X168616955Y-138743650D01*
X168607545Y-138747883D01*
X168585643Y-138737912D01*
X168540800Y-138711020D01*
X168480321Y-138671736D01*
X168433789Y-138640117D01*
X168349475Y-138582098D01*
X168249626Y-138513784D01*
X168149473Y-138445579D01*
X168095627Y-138409075D01*
X167913371Y-138285800D01*
X167760381Y-138368520D01*
X167690682Y-138404759D01*
X167631414Y-138432926D01*
X167591311Y-138448991D01*
X167581103Y-138451226D01*
X167568829Y-138434722D01*
X167544613Y-138388082D01*
X167510263Y-138315609D01*
X167467588Y-138221606D01*
X167418394Y-138110374D01*
X167364490Y-137986215D01*
X167307684Y-137853432D01*
X167249782Y-137716327D01*
X167192593Y-137579202D01*
X167137924Y-137446358D01*
X167087584Y-137322098D01*
X167043380Y-137210725D01*
X167007119Y-137116539D01*
X166980609Y-137043844D01*
X166965658Y-136996941D01*
X166963254Y-136980833D01*
X166982311Y-136960286D01*
X167024036Y-136926933D01*
X167079706Y-136887702D01*
X167084378Y-136884599D01*
X167228264Y-136769423D01*
X167344283Y-136635053D01*
X167431430Y-136485784D01*
X167488699Y-136325913D01*
X167515086Y-136159737D01*
X167509585Y-135991552D01*
X167471190Y-135825655D01*
X167398895Y-135666342D01*
X167377626Y-135631487D01*
X167266996Y-135490737D01*
X167136302Y-135377714D01*
X166990064Y-135293003D01*
X166832808Y-135237194D01*
X166669057Y-135210874D01*
X166503333Y-135214630D01*
X166340162Y-135249050D01*
X166184065Y-135314723D01*
X166039567Y-135412235D01*
X165994869Y-135451813D01*
X165881112Y-135575703D01*
X165798218Y-135706124D01*
X165741356Y-135852315D01*
X165709687Y-135997088D01*
X165701869Y-136159860D01*
X165727938Y-136323440D01*
X165785245Y-136482298D01*
X165871144Y-136630906D01*
X165982986Y-136763735D01*
X166118123Y-136875256D01*
X166135883Y-136887011D01*
X166192150Y-136925508D01*
X166234923Y-136958863D01*
X166255372Y-136980160D01*
X166255669Y-136980833D01*
X166251279Y-137003871D01*
X166233876Y-137056157D01*
X166205268Y-137133390D01*
X166167265Y-137231268D01*
X166121674Y-137345491D01*
X166070303Y-137471758D01*
X166014962Y-137605767D01*
X165957458Y-137743218D01*
X165899601Y-137879808D01*
X165843198Y-138011237D01*
X165790058Y-138133205D01*
X165741990Y-138241409D01*
X165700801Y-138331549D01*
X165668301Y-138399323D01*
X165646297Y-138440430D01*
X165637436Y-138451226D01*
X165610360Y-138442819D01*
X165559697Y-138420272D01*
X165494183Y-138387613D01*
X165458159Y-138368520D01*
X165305168Y-138285800D01*
X165122912Y-138409075D01*
X165029875Y-138472228D01*
X164928015Y-138541727D01*
X164832562Y-138607165D01*
X164784750Y-138640117D01*
X164717505Y-138685273D01*
X164660564Y-138721057D01*
X164621354Y-138742938D01*
X164608619Y-138747563D01*
X164590083Y-138735085D01*
X164549059Y-138700252D01*
X164489525Y-138646678D01*
X164415458Y-138577983D01*
X164330835Y-138497781D01*
X164277315Y-138446286D01*
X164183681Y-138354286D01*
X164102759Y-138271999D01*
X164037823Y-138202945D01*
X163992142Y-138150644D01*
X163968989Y-138118616D01*
X163966768Y-138112116D01*
X163977076Y-138087394D01*
X164005561Y-138037405D01*
X164049063Y-137967212D01*
X164104423Y-137881875D01*
X164168480Y-137786456D01*
X164186697Y-137759854D01*
X164253073Y-137663167D01*
X164312622Y-137576117D01*
X164362016Y-137503595D01*
X164397925Y-137450493D01*
X164417019Y-137421703D01*
X164418864Y-137418726D01*
X164416105Y-137395782D01*
X164401462Y-137345336D01*
X164377487Y-137274041D01*
X164346734Y-137188547D01*
X164311756Y-137095507D01*
X164275107Y-137001574D01*
X164239339Y-136913399D01*
X164207006Y-136837634D01*
X164180662Y-136780931D01*
X164162858Y-136749943D01*
X164161593Y-136748457D01*
X164150706Y-136739601D01*
X164132318Y-136730843D01*
X164102394Y-136721277D01*
X164056897Y-136709996D01*
X163991791Y-136696093D01*
X163903039Y-136678663D01*
X163786607Y-136656798D01*
X163638458Y-136629591D01*
X163606382Y-136623741D01*
X163511314Y-136605374D01*
X163428435Y-136587405D01*
X163365070Y-136571569D01*
X163328542Y-136559600D01*
X163323644Y-136556810D01*
X163315573Y-136532072D01*
X163309013Y-136476790D01*
X163303967Y-136397389D01*
X163300441Y-136300296D01*
X163298439Y-136191938D01*
X163297964Y-136078740D01*
X163299023Y-135967128D01*
X163301618Y-135863529D01*
X163305754Y-135774368D01*
X163311437Y-135706072D01*
X163318669Y-135665066D01*
X163323029Y-135656674D01*
X163347302Y-135648208D01*
X163402574Y-135634435D01*
X163483338Y-135616550D01*
X163584088Y-135595748D01*
X163699317Y-135573223D01*
X163762098Y-135561418D01*
X163881213Y-135539151D01*
X163987435Y-135518979D01*
X164075573Y-135501915D01*
X164140434Y-135488969D01*
X164176826Y-135481155D01*
X164182816Y-135479422D01*
X164192939Y-135459890D01*
X164214338Y-135412843D01*
X164244161Y-135345003D01*
X164279555Y-135263091D01*
X164317668Y-135173828D01*
X164355647Y-135083935D01*
X164390640Y-135000135D01*
X164419794Y-134929147D01*
X164440257Y-134877694D01*
X164449177Y-134852497D01*
X164449343Y-134851396D01*
X164439231Y-134831519D01*
X164410883Y-134785777D01*
X164367277Y-134718717D01*
X164311394Y-134634884D01*
X164246213Y-134538826D01*
X164208321Y-134483650D01*
X164139275Y-134382481D01*
X164077950Y-134290630D01*
X164027337Y-134212744D01*
X163990429Y-134153469D01*
X163970218Y-134117451D01*
X163967299Y-134109377D01*
X163979847Y-134090584D01*
X164014537Y-134050457D01*
X164066937Y-133993493D01*
X164132616Y-133924185D01*
X164207144Y-133847031D01*
X164286087Y-133766525D01*
X164365017Y-133687163D01*
X164439500Y-133613440D01*
X164505106Y-133549852D01*
X164557404Y-133500894D01*
X164591961Y-133471061D01*
X164603522Y-133463942D01*
X164622346Y-133473953D01*
X164667369Y-133502078D01*
X164734213Y-133545454D01*
X164818501Y-133601218D01*
X164915856Y-133666506D01*
X164989293Y-133716246D01*
X165360333Y-133968551D01*
X165978905Y-133713555D01*
X166062725Y-133268931D01*
X166146546Y-132824307D01*
X167071994Y-132824307D01*
X167155814Y-133268931D01*
D12*
%TO.C,A1*%
X151640000Y-96060000D02*
X133600000Y-96060000D01*
X151640000Y-139500000D02*
X151640000Y-96060000D01*
X133600000Y-139500000D02*
X151640000Y-139500000D01*
X136270000Y-136830000D02*
X133600000Y-136830000D01*
X136270000Y-101270000D02*
X136270000Y-136830000D01*
X136270000Y-101270000D02*
X133600000Y-101270000D01*
X148970000Y-136830000D02*
X151640000Y-136830000D01*
X148970000Y-98730000D02*
X148970000Y-136830000D01*
X148970000Y-98730000D02*
X151640000Y-98730000D01*
X133600000Y-96060000D02*
X133600000Y-98730000D01*
X133600000Y-101270000D02*
X133600000Y-139500000D01*
X136270000Y-98730000D02*
X133600000Y-98730000D01*
X136270000Y-101270000D02*
X136270000Y-98730000D01*
%TO.C,J1*%
X119510000Y-77590000D02*
X128140000Y-77590000D01*
X119510000Y-77708095D02*
X128140000Y-77708095D01*
X119510000Y-77826190D02*
X128140000Y-77826190D01*
X119510000Y-77944285D02*
X128140000Y-77944285D01*
X119510000Y-78062380D02*
X128140000Y-78062380D01*
X119510000Y-78180475D02*
X128140000Y-78180475D01*
X119510000Y-78298570D02*
X128140000Y-78298570D01*
X119510000Y-78416665D02*
X128140000Y-78416665D01*
X119510000Y-78534760D02*
X128140000Y-78534760D01*
X119510000Y-78652855D02*
X128140000Y-78652855D01*
X119510000Y-78770950D02*
X128140000Y-78770950D01*
X119510000Y-78889045D02*
X128140000Y-78889045D01*
X119510000Y-79007140D02*
X128140000Y-79007140D01*
X119510000Y-79125235D02*
X128140000Y-79125235D01*
X119510000Y-79243330D02*
X128140000Y-79243330D01*
X119510000Y-79361425D02*
X128140000Y-79361425D01*
X119510000Y-79479520D02*
X128140000Y-79479520D01*
X119510000Y-79597615D02*
X128140000Y-79597615D01*
X119510000Y-79715710D02*
X128140000Y-79715710D01*
X119510000Y-79833805D02*
X128140000Y-79833805D01*
X119510000Y-79951900D02*
X128140000Y-79951900D01*
X128140000Y-78440000D02*
X128490000Y-78440000D01*
X128140000Y-79160000D02*
X128490000Y-79160000D01*
X128140000Y-80980000D02*
X128550000Y-80980000D01*
X128140000Y-81700000D02*
X128550000Y-81700000D01*
X128140000Y-83520000D02*
X128550000Y-83520000D01*
X128140000Y-84240000D02*
X128550000Y-84240000D01*
X128140000Y-86060000D02*
X128550000Y-86060000D01*
X128140000Y-86780000D02*
X128550000Y-86780000D01*
X128140000Y-88600000D02*
X128550000Y-88600000D01*
X128140000Y-89320000D02*
X128550000Y-89320000D01*
X128140000Y-91140000D02*
X128550000Y-91140000D01*
X128140000Y-91860000D02*
X128550000Y-91860000D01*
X128140000Y-93680000D02*
X128550000Y-93680000D01*
X128140000Y-94400000D02*
X128550000Y-94400000D01*
X128140000Y-96220000D02*
X128550000Y-96220000D01*
X128140000Y-96940000D02*
X128550000Y-96940000D01*
X128140000Y-98760000D02*
X128550000Y-98760000D01*
X128140000Y-99480000D02*
X128550000Y-99480000D01*
X128140000Y-101300000D02*
X128550000Y-101300000D01*
X128140000Y-102020000D02*
X128550000Y-102020000D01*
X119510000Y-80070000D02*
X128140000Y-80070000D01*
X119510000Y-82610000D02*
X128140000Y-82610000D01*
X119510000Y-85150000D02*
X128140000Y-85150000D01*
X119510000Y-87690000D02*
X128140000Y-87690000D01*
X119510000Y-90230000D02*
X128140000Y-90230000D01*
X119510000Y-92770000D02*
X128140000Y-92770000D01*
X119510000Y-95310000D02*
X128140000Y-95310000D01*
X119510000Y-97850000D02*
X128140000Y-97850000D01*
X119510000Y-100390000D02*
X128140000Y-100390000D01*
X119510000Y-77470000D02*
X128140000Y-77470000D01*
X128140000Y-77470000D02*
X128140000Y-102990000D01*
X119510000Y-102990000D02*
X128140000Y-102990000D01*
X119510000Y-77470000D02*
X119510000Y-102990000D01*
X130710000Y-77470000D02*
X130710000Y-78800000D01*
X129600000Y-77470000D02*
X130710000Y-77470000D01*
%TO.C,J8*%
D10*
X178821380Y-124131333D02*
X179535666Y-124131333D01*
X179678523Y-124178952D01*
X179773761Y-124274190D01*
X179821380Y-124417047D01*
X179821380Y-124512285D01*
X179249952Y-123512285D02*
X179202333Y-123607523D01*
X179154714Y-123655142D01*
X179059476Y-123702761D01*
X179011857Y-123702761D01*
X178916619Y-123655142D01*
X178869000Y-123607523D01*
X178821380Y-123512285D01*
X178821380Y-123321809D01*
X178869000Y-123226571D01*
X178916619Y-123178952D01*
X179011857Y-123131333D01*
X179059476Y-123131333D01*
X179154714Y-123178952D01*
X179202333Y-123226571D01*
X179249952Y-123321809D01*
X179249952Y-123512285D01*
X179297571Y-123607523D01*
X179345190Y-123655142D01*
X179440428Y-123702761D01*
X179630904Y-123702761D01*
X179726142Y-123655142D01*
X179773761Y-123607523D01*
X179821380Y-123512285D01*
X179821380Y-123321809D01*
X179773761Y-123226571D01*
X179726142Y-123178952D01*
X179630904Y-123131333D01*
X179440428Y-123131333D01*
X179345190Y-123178952D01*
X179297571Y-123226571D01*
X179249952Y-123321809D01*
%TO.C,J7*%
X184115666Y-109280380D02*
X184115666Y-109994666D01*
X184068047Y-110137523D01*
X183972809Y-110232761D01*
X183829952Y-110280380D01*
X183734714Y-110280380D01*
X184496619Y-109280380D02*
X185163285Y-109280380D01*
X184734714Y-110280380D01*
%TO.C,J6*%
X178567380Y-79046333D02*
X179281666Y-79046333D01*
X179424523Y-79093952D01*
X179519761Y-79189190D01*
X179567380Y-79332047D01*
X179567380Y-79427285D01*
X178567380Y-78141571D02*
X178567380Y-78332047D01*
X178615000Y-78427285D01*
X178662619Y-78474904D01*
X178805476Y-78570142D01*
X178995952Y-78617761D01*
X179376904Y-78617761D01*
X179472142Y-78570142D01*
X179519761Y-78522523D01*
X179567380Y-78427285D01*
X179567380Y-78236809D01*
X179519761Y-78141571D01*
X179472142Y-78093952D01*
X179376904Y-78046333D01*
X179138809Y-78046333D01*
X179043571Y-78093952D01*
X178995952Y-78141571D01*
X178948333Y-78236809D01*
X178948333Y-78427285D01*
X178995952Y-78522523D01*
X179043571Y-78570142D01*
X179138809Y-78617761D01*
%TO.C,J5*%
X179202380Y-103430333D02*
X179916666Y-103430333D01*
X180059523Y-103477952D01*
X180154761Y-103573190D01*
X180202380Y-103716047D01*
X180202380Y-103811285D01*
X179202380Y-102477952D02*
X179202380Y-102954142D01*
X179678571Y-103001761D01*
X179630952Y-102954142D01*
X179583333Y-102858904D01*
X179583333Y-102620809D01*
X179630952Y-102525571D01*
X179678571Y-102477952D01*
X179773809Y-102430333D01*
X180011904Y-102430333D01*
X180107142Y-102477952D01*
X180154761Y-102525571D01*
X180202380Y-102620809D01*
X180202380Y-102858904D01*
X180154761Y-102954142D01*
X180107142Y-103001761D01*
%TO.C,J4*%
X178694380Y-66854333D02*
X179408666Y-66854333D01*
X179551523Y-66901952D01*
X179646761Y-66997190D01*
X179694380Y-67140047D01*
X179694380Y-67235285D01*
X179027714Y-65949571D02*
X179694380Y-65949571D01*
X178646761Y-66187666D02*
X179361047Y-66425761D01*
X179361047Y-65806714D01*
%TO.C,J3*%
X178440380Y-91111333D02*
X179154666Y-91111333D01*
X179297523Y-91158952D01*
X179392761Y-91254190D01*
X179440380Y-91397047D01*
X179440380Y-91492285D01*
X178440380Y-90730380D02*
X178440380Y-90111333D01*
X178821333Y-90444666D01*
X178821333Y-90301809D01*
X178868952Y-90206571D01*
X178916571Y-90158952D01*
X179011809Y-90111333D01*
X179249904Y-90111333D01*
X179345142Y-90158952D01*
X179392761Y-90206571D01*
X179440380Y-90301809D01*
X179440380Y-90587523D01*
X179392761Y-90682761D01*
X179345142Y-90730380D01*
%TO.C,J2*%
X178821380Y-55043333D02*
X179535666Y-55043333D01*
X179678523Y-55090952D01*
X179773761Y-55186190D01*
X179821380Y-55329047D01*
X179821380Y-55424285D01*
X178916619Y-54614761D02*
X178869000Y-54567142D01*
X178821380Y-54471904D01*
X178821380Y-54233809D01*
X178869000Y-54138571D01*
X178916619Y-54090952D01*
X179011857Y-54043333D01*
X179107095Y-54043333D01*
X179249952Y-54090952D01*
X179821380Y-54662380D01*
X179821380Y-54043333D01*
%TO.C,A1*%
X141905714Y-95086666D02*
X142381904Y-95086666D01*
X141810476Y-95372380D02*
X142143809Y-94372380D01*
X142477142Y-95372380D01*
X143334285Y-95372380D02*
X142762857Y-95372380D01*
X143048571Y-95372380D02*
X143048571Y-94372380D01*
X142953333Y-94515238D01*
X142858095Y-94610476D01*
X142762857Y-94658095D01*
%TO.C,J1*%
X124886666Y-75482380D02*
X124886666Y-76196666D01*
X124839047Y-76339523D01*
X124743809Y-76434761D01*
X124600952Y-76482380D01*
X124505714Y-76482380D01*
X125886666Y-76482380D02*
X125315238Y-76482380D01*
X125600952Y-76482380D02*
X125600952Y-75482380D01*
X125505714Y-75625238D01*
X125410476Y-75720476D01*
X125315238Y-75768095D01*
%TD*%
M02*
