%TF.GenerationSoftware,KiCad,Pcbnew,5.1.10-1.fc34*%
%TF.CreationDate,2021-06-08T11:48:28-04:00*%
%TF.ProjectId,BREAD_Slice,42524541-445f-4536-9c69-63652e6b6963,rev?*%
%TF.SameCoordinates,Original*%
%TF.FileFunction,Copper,L2,Bot*%
%TF.FilePolarity,Positive*%
%FSLAX46Y46*%
G04 Gerber Fmt 4.6, Leading zero omitted, Abs format (unit mm)*
G04 Created by KiCad (PCBNEW 5.1.10-1.fc34) date 2021-06-08 11:48:28*
%MOMM*%
%LPD*%
G01*
G04 APERTURE LIST*
%TA.AperFunction,ComponentPad*%
%ADD10C,2.100000*%
%TD*%
%TA.AperFunction,ComponentPad*%
%ADD11R,2.100000X2.100000*%
%TD*%
%TA.AperFunction,ComponentPad*%
%ADD12O,1.700000X1.700000*%
%TD*%
%TA.AperFunction,ComponentPad*%
%ADD13R,1.700000X1.700000*%
%TD*%
%TA.AperFunction,ComponentPad*%
%ADD14C,5.600000*%
%TD*%
%TA.AperFunction,SMDPad,CuDef*%
%ADD15R,2.350000X2.770000*%
%TD*%
%TA.AperFunction,ComponentPad*%
%ADD16R,1.600000X1.600000*%
%TD*%
%TA.AperFunction,ComponentPad*%
%ADD17O,1.600000X1.600000*%
%TD*%
%TA.AperFunction,ViaPad*%
%ADD18C,0.800000*%
%TD*%
%TA.AperFunction,Conductor*%
%ADD19C,1.500000*%
%TD*%
%TA.AperFunction,Conductor*%
%ADD20C,0.500000*%
%TD*%
%TA.AperFunction,Conductor*%
%ADD21C,0.254000*%
%TD*%
%TA.AperFunction,Conductor*%
%ADD22C,0.100000*%
%TD*%
G04 APERTURE END LIST*
D10*
%TO.P,J8,2*%
%TO.N,GND*%
X184322000Y-124814000D03*
D11*
%TO.P,J8,1*%
%TO.N,/CSTM*%
X184322000Y-122274000D03*
%TD*%
D12*
%TO.P,J7,3*%
%TO.N,+12V*%
X184322000Y-117575000D03*
%TO.P,J7,2*%
%TO.N,/CSTM*%
X184322000Y-115035000D03*
D13*
%TO.P,J7,1*%
%TO.N,/PWR*%
X184322000Y-112495000D03*
%TD*%
D10*
%TO.P,J6,3*%
%TO.N,GND*%
X184322000Y-81126000D03*
%TO.P,J6,2*%
%TO.N,Net-(J6-Pad2)*%
X184322000Y-78586000D03*
D11*
%TO.P,J6,1*%
%TO.N,/PWM3*%
X184322000Y-76046000D03*
%TD*%
D10*
%TO.P,J5,3*%
%TO.N,GND*%
X184322000Y-105256000D03*
%TO.P,J5,2*%
%TO.N,/PWR*%
X184322000Y-102716000D03*
D11*
%TO.P,J5,1*%
%TO.N,/PWM5*%
X184322000Y-100176000D03*
%TD*%
D10*
%TO.P,J4,3*%
%TO.N,GND*%
X184322000Y-69061000D03*
%TO.P,J4,2*%
%TO.N,/PWR*%
X184322000Y-66521000D03*
D11*
%TO.P,J4,1*%
%TO.N,/PWM2*%
X184322000Y-63981000D03*
%TD*%
D10*
%TO.P,J3,3*%
%TO.N,GND*%
X184322000Y-93191000D03*
%TO.P,J3,2*%
%TO.N,/PWR*%
X184322000Y-90651000D03*
D11*
%TO.P,J3,1*%
%TO.N,/PWM4*%
X184322000Y-88111000D03*
%TD*%
D10*
%TO.P,J2,3*%
%TO.N,GND*%
X184322000Y-56996000D03*
%TO.P,J2,2*%
%TO.N,/PWR*%
X184322000Y-54456000D03*
D11*
%TO.P,J2,1*%
%TO.N,/PWM1*%
X184322000Y-51916000D03*
%TD*%
D14*
%TO.P,H4,1*%
%TO.N,N/C*%
X187600000Y-134800000D03*
%TD*%
%TO.P,H3,1*%
%TO.N,N/C*%
X127600000Y-134800000D03*
%TD*%
%TO.P,H2,1*%
%TO.N,N/C*%
X187600000Y-44800000D03*
%TD*%
%TO.P,H1,1*%
%TO.N,N/C*%
X127600000Y-44800000D03*
%TD*%
D15*
%TO.P,C1,2*%
%TO.N,GND*%
X154223000Y-94812000D03*
%TO.P,C1,1*%
%TO.N,+12V*%
X154223000Y-99952000D03*
%TD*%
D16*
%TO.P,A1,1*%
%TO.N,Net-(A1-Pad1)*%
X135000000Y-100000000D03*
D17*
%TO.P,A1,17*%
%TO.N,Net-(A1-Pad17)*%
X150240000Y-133020000D03*
%TO.P,A1,2*%
%TO.N,Net-(A1-Pad2)*%
X135000000Y-102540000D03*
%TO.P,A1,18*%
%TO.N,Net-(A1-Pad18)*%
X150240000Y-130480000D03*
%TO.P,A1,3*%
%TO.N,Net-(A1-Pad3)*%
X135000000Y-105080000D03*
%TO.P,A1,19*%
%TO.N,Net-(A1-Pad19)*%
X150240000Y-127940000D03*
%TO.P,A1,4*%
%TO.N,GND*%
X135000000Y-107620000D03*
%TO.P,A1,20*%
%TO.N,Net-(A1-Pad20)*%
X150240000Y-125400000D03*
%TO.P,A1,5*%
%TO.N,/E_STOP*%
X135000000Y-110160000D03*
%TO.P,A1,21*%
%TO.N,Net-(A1-Pad21)*%
X150240000Y-122860000D03*
%TO.P,A1,6*%
%TO.N,/INT*%
X135000000Y-112700000D03*
%TO.P,A1,22*%
%TO.N,Net-(A1-Pad22)*%
X150240000Y-120320000D03*
%TO.P,A1,7*%
%TO.N,/SYNC*%
X135000000Y-115240000D03*
%TO.P,A1,23*%
%TO.N,/I2C_DAT*%
X150240000Y-117780000D03*
%TO.P,A1,8*%
%TO.N,/PWM1*%
X135000000Y-117780000D03*
%TO.P,A1,24*%
%TO.N,/I2C_CLK*%
X150240000Y-115240000D03*
%TO.P,A1,9*%
%TO.N,/PWM2*%
X135000000Y-120320000D03*
%TO.P,A1,25*%
%TO.N,Net-(A1-Pad25)*%
X150240000Y-112700000D03*
%TO.P,A1,10*%
%TO.N,Net-(A1-Pad10)*%
X135000000Y-122860000D03*
%TO.P,A1,26*%
%TO.N,Net-(A1-Pad26)*%
X150240000Y-110160000D03*
%TO.P,A1,11*%
%TO.N,Net-(A1-Pad11)*%
X135000000Y-125400000D03*
%TO.P,A1,27*%
%TO.N,+5V*%
X150240000Y-107620000D03*
%TO.P,A1,12*%
%TO.N,/PWM3*%
X135000000Y-127940000D03*
%TO.P,A1,28*%
%TO.N,Net-(A1-Pad28)*%
X150240000Y-105080000D03*
%TO.P,A1,13*%
%TO.N,/PWM4*%
X135000000Y-130480000D03*
%TO.P,A1,29*%
%TO.N,GND*%
X150240000Y-102540000D03*
%TO.P,A1,14*%
%TO.N,/PWM5*%
X135000000Y-133020000D03*
%TO.P,A1,30*%
%TO.N,+12V*%
X150240000Y-100000000D03*
%TO.P,A1,15*%
%TO.N,Net-(A1-Pad15)*%
X135000000Y-135560000D03*
%TO.P,A1,16*%
%TO.N,Net-(A1-Pad16)*%
X150240000Y-135560000D03*
%TD*%
D15*
%TO.P,C2,1*%
%TO.N,+5V*%
X154223000Y-107639000D03*
%TO.P,C2,2*%
%TO.N,GND*%
X154223000Y-112779000D03*
%TD*%
D13*
%TO.P,J1,1*%
%TO.N,GND*%
X129600000Y-78800000D03*
D12*
%TO.P,J1,2*%
%TO.N,+12V*%
X129600000Y-81340000D03*
%TO.P,J1,3*%
%TO.N,/I2C_CLK*%
X129600000Y-83880000D03*
%TO.P,J1,4*%
%TO.N,/I2C_DAT*%
X129600000Y-86420000D03*
%TO.P,J1,5*%
%TO.N,GND*%
X129600000Y-88960000D03*
%TO.P,J1,6*%
%TO.N,/E_STOP*%
X129600000Y-91500000D03*
%TO.P,J1,7*%
%TO.N,/INT*%
X129600000Y-94040000D03*
%TO.P,J1,8*%
%TO.N,/SYNC*%
X129600000Y-96580000D03*
%TO.P,J1,9*%
%TO.N,+12V*%
X129600000Y-99120000D03*
%TO.P,J1,10*%
%TO.N,GND*%
X129600000Y-101660000D03*
%TD*%
D18*
%TO.N,/PWM1*%
X130347000Y-117829000D03*
X174924000Y-51916000D03*
%TO.N,/PWM2*%
X130347000Y-120242000D03*
X174924000Y-63981000D03*
%TO.N,/PWM3*%
X130347000Y-122528000D03*
X174924000Y-76046000D03*
%TO.N,/PWM4*%
X130474000Y-124814000D03*
X174924000Y-88111000D03*
%TO.N,/PWM5*%
X130347000Y-127354000D03*
X174797000Y-100176000D03*
%TD*%
D19*
%TO.N,GND*%
X184322000Y-124814000D02*
X177972000Y-131164000D01*
X177972000Y-131164000D02*
X158287000Y-131164000D01*
X184322000Y-124814000D02*
X186608000Y-124814000D01*
X186608000Y-124814000D02*
X190672000Y-120750000D01*
X190672000Y-120750000D02*
X190672000Y-110336000D01*
X185592000Y-105256000D02*
X184322000Y-105256000D01*
X190672000Y-110336000D02*
X185592000Y-105256000D01*
X190672000Y-110336000D02*
X190672000Y-98271000D01*
X185592000Y-93191000D02*
X184322000Y-93191000D01*
X190672000Y-98271000D02*
X185592000Y-93191000D01*
X190672000Y-98271000D02*
X190672000Y-84682000D01*
X187116000Y-81126000D02*
X184322000Y-81126000D01*
X190672000Y-84682000D02*
X187116000Y-81126000D01*
X190672000Y-84682000D02*
X190672000Y-73633000D01*
X186100000Y-69061000D02*
X184322000Y-69061000D01*
X190672000Y-73633000D02*
X186100000Y-69061000D01*
X190672000Y-73633000D02*
X190672000Y-59917000D01*
X187751000Y-56996000D02*
X184322000Y-56996000D01*
X190672000Y-59917000D02*
X187751000Y-56996000D01*
%TO.N,+5V*%
X150259000Y-107639000D02*
X150240000Y-107620000D01*
X154223000Y-107639000D02*
X150259000Y-107639000D01*
D20*
%TO.N,/I2C_CLK*%
X150240000Y-115240000D02*
X147492000Y-112492000D01*
X147492000Y-112492000D02*
X147492000Y-96493000D01*
X134879000Y-83880000D02*
X129600000Y-83880000D01*
X147492000Y-96493000D02*
X134879000Y-83880000D01*
%TO.N,/I2C_DAT*%
X150240000Y-117780000D02*
X145841000Y-113381000D01*
X145841000Y-113381000D02*
X145841000Y-97255000D01*
X135006000Y-86420000D02*
X129600000Y-86420000D01*
X145841000Y-97255000D02*
X135006000Y-86420000D01*
%TO.N,/SYNC*%
X130561000Y-96580000D02*
X129600000Y-96580000D01*
X131617000Y-97636000D02*
X130561000Y-96580000D01*
X131617000Y-111857000D02*
X131617000Y-97636000D01*
X135000000Y-115240000D02*
X131617000Y-111857000D01*
%TO.N,/E_STOP*%
X135000000Y-110160000D02*
X133395000Y-108555000D01*
X133395000Y-108555000D02*
X133395000Y-94080000D01*
X130815000Y-91500000D02*
X129600000Y-91500000D01*
X133395000Y-94080000D02*
X130815000Y-91500000D01*
D19*
%TO.N,+12V*%
X150288000Y-99952000D02*
X150240000Y-100000000D01*
X154223000Y-99952000D02*
X150288000Y-99952000D01*
X129600000Y-99120000D02*
X127259000Y-99120000D01*
X127259000Y-99120000D02*
X125521000Y-97382000D01*
X125521000Y-97382000D02*
X125521000Y-82650000D01*
X126831000Y-81340000D02*
X129600000Y-81340000D01*
X125521000Y-82650000D02*
X126831000Y-81340000D01*
X150240000Y-100000000D02*
X150240000Y-94415000D01*
X137165000Y-81340000D02*
X129600000Y-81340000D01*
X150240000Y-94415000D02*
X137165000Y-81340000D01*
X184322000Y-117575000D02*
X174289000Y-117575000D01*
X156666000Y-99952000D02*
X154223000Y-99952000D01*
X174289000Y-117575000D02*
X156666000Y-99952000D01*
D20*
%TO.N,/INT*%
X130942000Y-94040000D02*
X129600000Y-94040000D01*
X132506000Y-95604000D02*
X130942000Y-94040000D01*
X132506000Y-110206000D02*
X132506000Y-95604000D01*
X135000000Y-112700000D02*
X132506000Y-110206000D01*
%TO.N,/PWM1*%
X130396000Y-117780000D02*
X130347000Y-117829000D01*
X135000000Y-117780000D02*
X130396000Y-117780000D01*
X174924000Y-51916000D02*
X184322000Y-51916000D01*
%TO.N,/PWM2*%
X130425000Y-120320000D02*
X130347000Y-120242000D01*
X135000000Y-120320000D02*
X130425000Y-120320000D01*
X174924000Y-63981000D02*
X184322000Y-63981000D01*
%TO.N,/PWM3*%
X135000000Y-127940000D02*
X133141000Y-126081000D01*
X133141000Y-126081000D02*
X133141000Y-123290000D01*
X132379000Y-122528000D02*
X130347000Y-122528000D01*
X133141000Y-123290000D02*
X132379000Y-122528000D01*
X174924000Y-76046000D02*
X184322000Y-76046000D01*
%TO.N,/PWM4*%
X135000000Y-130480000D02*
X133854000Y-130480000D01*
X133854000Y-130480000D02*
X131998000Y-128624000D01*
X131998000Y-128624000D02*
X131998000Y-125322000D01*
X131490000Y-124814000D02*
X130474000Y-124814000D01*
X131998000Y-125322000D02*
X131490000Y-124814000D01*
X174924000Y-88111000D02*
X184322000Y-88111000D01*
%TO.N,/PWM5*%
X135000000Y-133020000D02*
X132076000Y-133020000D01*
X130347000Y-131291000D02*
X130347000Y-127354000D01*
X132076000Y-133020000D02*
X130347000Y-131291000D01*
X174797000Y-100176000D02*
X184322000Y-100176000D01*
D19*
%TO.N,/CSTM*%
X184322000Y-122274000D02*
X185084000Y-122274000D01*
X185084000Y-122274000D02*
X187878000Y-119480000D01*
X187878000Y-119480000D02*
X187878000Y-116559000D01*
X186354000Y-115035000D02*
X184322000Y-115035000D01*
X187878000Y-116559000D02*
X186354000Y-115035000D01*
%TD*%
D21*
%TO.N,GND*%
X160573000Y-101900315D02*
X157693454Y-99020769D01*
X157650081Y-98967919D01*
X157439188Y-98794843D01*
X157198581Y-98666236D01*
X156937507Y-98587040D01*
X156734037Y-98567000D01*
X156734029Y-98567000D01*
X156666000Y-98560300D01*
X156597971Y-98567000D01*
X156036072Y-98567000D01*
X156023812Y-98442518D01*
X155987502Y-98322820D01*
X155928537Y-98212506D01*
X155849185Y-98115815D01*
X155752494Y-98036463D01*
X155642180Y-97977498D01*
X155522482Y-97941188D01*
X155398000Y-97928928D01*
X153048000Y-97928928D01*
X152923518Y-97941188D01*
X152803820Y-97977498D01*
X152693506Y-98036463D01*
X152596815Y-98115815D01*
X152517463Y-98212506D01*
X152458498Y-98322820D01*
X152422188Y-98442518D01*
X152409928Y-98567000D01*
X151625000Y-98567000D01*
X151625000Y-96197000D01*
X152409928Y-96197000D01*
X152422188Y-96321482D01*
X152458498Y-96441180D01*
X152517463Y-96551494D01*
X152596815Y-96648185D01*
X152693506Y-96727537D01*
X152803820Y-96786502D01*
X152923518Y-96822812D01*
X153048000Y-96835072D01*
X153937250Y-96832000D01*
X154096000Y-96673250D01*
X154096000Y-94939000D01*
X154350000Y-94939000D01*
X154350000Y-96673250D01*
X154508750Y-96832000D01*
X155398000Y-96835072D01*
X155522482Y-96822812D01*
X155642180Y-96786502D01*
X155752494Y-96727537D01*
X155849185Y-96648185D01*
X155928537Y-96551494D01*
X155987502Y-96441180D01*
X156023812Y-96321482D01*
X156036072Y-96197000D01*
X156033000Y-95097750D01*
X155874250Y-94939000D01*
X154350000Y-94939000D01*
X154096000Y-94939000D01*
X152571750Y-94939000D01*
X152413000Y-95097750D01*
X152409928Y-96197000D01*
X151625000Y-96197000D01*
X151625000Y-94483026D01*
X151631700Y-94414999D01*
X151625000Y-94346972D01*
X151625000Y-94346963D01*
X151604960Y-94143493D01*
X151525764Y-93882419D01*
X151397157Y-93641812D01*
X151351304Y-93585940D01*
X151267452Y-93483766D01*
X151267450Y-93483764D01*
X151224081Y-93430919D01*
X151219306Y-93427000D01*
X152409928Y-93427000D01*
X152413000Y-94526250D01*
X152571750Y-94685000D01*
X154096000Y-94685000D01*
X154096000Y-92950750D01*
X154350000Y-92950750D01*
X154350000Y-94685000D01*
X155874250Y-94685000D01*
X156033000Y-94526250D01*
X156036072Y-93427000D01*
X156023812Y-93302518D01*
X155987502Y-93182820D01*
X155928537Y-93072506D01*
X155849185Y-92975815D01*
X155752494Y-92896463D01*
X155642180Y-92837498D01*
X155522482Y-92801188D01*
X155398000Y-92788928D01*
X154508750Y-92792000D01*
X154350000Y-92950750D01*
X154096000Y-92950750D01*
X153937250Y-92792000D01*
X153048000Y-92788928D01*
X152923518Y-92801188D01*
X152803820Y-92837498D01*
X152693506Y-92896463D01*
X152596815Y-92975815D01*
X152517463Y-93072506D01*
X152458498Y-93182820D01*
X152422188Y-93302518D01*
X152409928Y-93427000D01*
X151219306Y-93427000D01*
X151171236Y-93387550D01*
X138192454Y-80408769D01*
X138149081Y-80355919D01*
X137938188Y-80182843D01*
X137697581Y-80054236D01*
X137436507Y-79975040D01*
X137233037Y-79955000D01*
X137233029Y-79955000D01*
X137165000Y-79948300D01*
X137096971Y-79955000D01*
X131006993Y-79955000D01*
X131039502Y-79894180D01*
X131075812Y-79774482D01*
X131088072Y-79650000D01*
X131085000Y-79085750D01*
X130926250Y-78927000D01*
X129727000Y-78927000D01*
X129727000Y-78947000D01*
X129473000Y-78947000D01*
X129473000Y-78927000D01*
X128273750Y-78927000D01*
X128115000Y-79085750D01*
X128111928Y-79650000D01*
X128124188Y-79774482D01*
X128160498Y-79894180D01*
X128193007Y-79955000D01*
X126899029Y-79955000D01*
X126831000Y-79948300D01*
X126762971Y-79955000D01*
X126762963Y-79955000D01*
X126559493Y-79975040D01*
X126298419Y-80054236D01*
X126057812Y-80182843D01*
X125899766Y-80312548D01*
X125899764Y-80312550D01*
X125846919Y-80355919D01*
X125803550Y-80408764D01*
X124589764Y-81622551D01*
X124536920Y-81665919D01*
X124493551Y-81718764D01*
X124493548Y-81718767D01*
X124363844Y-81876812D01*
X124235236Y-82117420D01*
X124156040Y-82378493D01*
X124129300Y-82650000D01*
X124136001Y-82718039D01*
X124136000Y-97313971D01*
X124129300Y-97382000D01*
X124136000Y-97450029D01*
X124136000Y-97450036D01*
X124136213Y-97452195D01*
X124156040Y-97653507D01*
X124180298Y-97733475D01*
X124235236Y-97914580D01*
X124342799Y-98115815D01*
X124363844Y-98155188D01*
X124476560Y-98292532D01*
X124536919Y-98366080D01*
X124589765Y-98409450D01*
X126231550Y-100051236D01*
X126274919Y-100104081D01*
X126327764Y-100147450D01*
X126327766Y-100147452D01*
X126440099Y-100239641D01*
X126485812Y-100277157D01*
X126726419Y-100405764D01*
X126987493Y-100484960D01*
X127190963Y-100505000D01*
X127190972Y-100505000D01*
X127258999Y-100511700D01*
X127327026Y-100505000D01*
X128674071Y-100505000D01*
X128502412Y-100659731D01*
X128328359Y-100893080D01*
X128203175Y-101155901D01*
X128158524Y-101303110D01*
X128279845Y-101533000D01*
X129473000Y-101533000D01*
X129473000Y-101513000D01*
X129727000Y-101513000D01*
X129727000Y-101533000D01*
X129747000Y-101533000D01*
X129747000Y-101787000D01*
X129727000Y-101787000D01*
X129727000Y-102980814D01*
X129956891Y-103101481D01*
X130231252Y-103004157D01*
X130481355Y-102855178D01*
X130697588Y-102660269D01*
X130732001Y-102614133D01*
X130732000Y-111813531D01*
X130727719Y-111857000D01*
X130732000Y-111900469D01*
X130732000Y-111900476D01*
X130744805Y-112030489D01*
X130795411Y-112197312D01*
X130877589Y-112351058D01*
X130988183Y-112485817D01*
X131021956Y-112513534D01*
X133571983Y-115063561D01*
X133565000Y-115098665D01*
X133565000Y-115381335D01*
X133620147Y-115658574D01*
X133728320Y-115919727D01*
X133885363Y-116154759D01*
X134085241Y-116354637D01*
X134317759Y-116510000D01*
X134085241Y-116665363D01*
X133885363Y-116865241D01*
X133865479Y-116895000D01*
X130796710Y-116895000D01*
X130648898Y-116833774D01*
X130448939Y-116794000D01*
X130245061Y-116794000D01*
X130045102Y-116833774D01*
X129856744Y-116911795D01*
X129687226Y-117025063D01*
X129543063Y-117169226D01*
X129429795Y-117338744D01*
X129351774Y-117527102D01*
X129312000Y-117727061D01*
X129312000Y-117930939D01*
X129351774Y-118130898D01*
X129429795Y-118319256D01*
X129543063Y-118488774D01*
X129687226Y-118632937D01*
X129856744Y-118746205D01*
X130045102Y-118824226D01*
X130245061Y-118864000D01*
X130448939Y-118864000D01*
X130648898Y-118824226D01*
X130837256Y-118746205D01*
X130958788Y-118665000D01*
X133865479Y-118665000D01*
X133885363Y-118694759D01*
X134085241Y-118894637D01*
X134317759Y-119050000D01*
X134085241Y-119205363D01*
X133885363Y-119405241D01*
X133865479Y-119435000D01*
X131002190Y-119435000D01*
X130837256Y-119324795D01*
X130648898Y-119246774D01*
X130448939Y-119207000D01*
X130245061Y-119207000D01*
X130045102Y-119246774D01*
X129856744Y-119324795D01*
X129687226Y-119438063D01*
X129543063Y-119582226D01*
X129429795Y-119751744D01*
X129351774Y-119940102D01*
X129312000Y-120140061D01*
X129312000Y-120343939D01*
X129351774Y-120543898D01*
X129429795Y-120732256D01*
X129543063Y-120901774D01*
X129687226Y-121045937D01*
X129856744Y-121159205D01*
X130045102Y-121237226D01*
X130245061Y-121277000D01*
X130448939Y-121277000D01*
X130648898Y-121237226D01*
X130726698Y-121205000D01*
X133865479Y-121205000D01*
X133885363Y-121234759D01*
X134085241Y-121434637D01*
X134317759Y-121590000D01*
X134085241Y-121745363D01*
X133885363Y-121945241D01*
X133728320Y-122180273D01*
X133620147Y-122441426D01*
X133607514Y-122504935D01*
X133035534Y-121932956D01*
X133007817Y-121899183D01*
X132873059Y-121788589D01*
X132719313Y-121706411D01*
X132552490Y-121655805D01*
X132422477Y-121643000D01*
X132422469Y-121643000D01*
X132379000Y-121638719D01*
X132335531Y-121643000D01*
X130885454Y-121643000D01*
X130837256Y-121610795D01*
X130648898Y-121532774D01*
X130448939Y-121493000D01*
X130245061Y-121493000D01*
X130045102Y-121532774D01*
X129856744Y-121610795D01*
X129687226Y-121724063D01*
X129543063Y-121868226D01*
X129429795Y-122037744D01*
X129351774Y-122226102D01*
X129312000Y-122426061D01*
X129312000Y-122629939D01*
X129351774Y-122829898D01*
X129429795Y-123018256D01*
X129543063Y-123187774D01*
X129687226Y-123331937D01*
X129856744Y-123445205D01*
X130045102Y-123523226D01*
X130245061Y-123563000D01*
X130448939Y-123563000D01*
X130648898Y-123523226D01*
X130837256Y-123445205D01*
X130885454Y-123413000D01*
X132012422Y-123413000D01*
X132256001Y-123656580D01*
X132256001Y-124328423D01*
X132146534Y-124218956D01*
X132118817Y-124185183D01*
X131984059Y-124074589D01*
X131830313Y-123992411D01*
X131663490Y-123941805D01*
X131533477Y-123929000D01*
X131533469Y-123929000D01*
X131490000Y-123924719D01*
X131446531Y-123929000D01*
X131012454Y-123929000D01*
X130964256Y-123896795D01*
X130775898Y-123818774D01*
X130575939Y-123779000D01*
X130372061Y-123779000D01*
X130172102Y-123818774D01*
X129983744Y-123896795D01*
X129814226Y-124010063D01*
X129670063Y-124154226D01*
X129556795Y-124323744D01*
X129478774Y-124512102D01*
X129439000Y-124712061D01*
X129439000Y-124915939D01*
X129478774Y-125115898D01*
X129556795Y-125304256D01*
X129670063Y-125473774D01*
X129814226Y-125617937D01*
X129983744Y-125731205D01*
X130172102Y-125809226D01*
X130372061Y-125849000D01*
X130575939Y-125849000D01*
X130775898Y-125809226D01*
X130964256Y-125731205D01*
X131012454Y-125699000D01*
X131113001Y-125699000D01*
X131113001Y-126656290D01*
X131006774Y-126550063D01*
X130837256Y-126436795D01*
X130648898Y-126358774D01*
X130448939Y-126319000D01*
X130245061Y-126319000D01*
X130045102Y-126358774D01*
X129856744Y-126436795D01*
X129687226Y-126550063D01*
X129543063Y-126694226D01*
X129429795Y-126863744D01*
X129351774Y-127052102D01*
X129312000Y-127252061D01*
X129312000Y-127455939D01*
X129351774Y-127655898D01*
X129429795Y-127844256D01*
X129462001Y-127892456D01*
X129462000Y-131247531D01*
X129457719Y-131291000D01*
X129462000Y-131334469D01*
X129462000Y-131334476D01*
X129474805Y-131464489D01*
X129525411Y-131631312D01*
X129607589Y-131785058D01*
X129718183Y-131919817D01*
X129751956Y-131947534D01*
X131419470Y-133615049D01*
X131447183Y-133648817D01*
X131480951Y-133676530D01*
X131480953Y-133676532D01*
X131509216Y-133699727D01*
X131581941Y-133759411D01*
X131735687Y-133841589D01*
X131902510Y-133892195D01*
X132032523Y-133905000D01*
X132032533Y-133905000D01*
X132075999Y-133909281D01*
X132119465Y-133905000D01*
X133865479Y-133905000D01*
X133885363Y-133934759D01*
X134085241Y-134134637D01*
X134317759Y-134290000D01*
X134085241Y-134445363D01*
X133885363Y-134645241D01*
X133728320Y-134880273D01*
X133620147Y-135141426D01*
X133565000Y-135418665D01*
X133565000Y-135701335D01*
X133620147Y-135978574D01*
X133728320Y-136239727D01*
X133885363Y-136474759D01*
X134085241Y-136674637D01*
X134320273Y-136831680D01*
X134581426Y-136939853D01*
X134858665Y-136995000D01*
X135141335Y-136995000D01*
X135418574Y-136939853D01*
X135679727Y-136831680D01*
X135914759Y-136674637D01*
X136114637Y-136474759D01*
X136271680Y-136239727D01*
X136379853Y-135978574D01*
X136435000Y-135701335D01*
X136435000Y-135418665D01*
X136379853Y-135141426D01*
X136271680Y-134880273D01*
X136114637Y-134645241D01*
X135914759Y-134445363D01*
X135682241Y-134290000D01*
X135914759Y-134134637D01*
X136114637Y-133934759D01*
X136271680Y-133699727D01*
X136379853Y-133438574D01*
X136435000Y-133161335D01*
X136435000Y-132878665D01*
X136379853Y-132601426D01*
X136271680Y-132340273D01*
X136114637Y-132105241D01*
X135914759Y-131905363D01*
X135682241Y-131750000D01*
X135914759Y-131594637D01*
X136114637Y-131394759D01*
X136271680Y-131159727D01*
X136379853Y-130898574D01*
X136435000Y-130621335D01*
X136435000Y-130338665D01*
X136379853Y-130061426D01*
X136271680Y-129800273D01*
X136114637Y-129565241D01*
X135914759Y-129365363D01*
X135682241Y-129210000D01*
X135914759Y-129054637D01*
X136114637Y-128854759D01*
X136271680Y-128619727D01*
X136379853Y-128358574D01*
X136435000Y-128081335D01*
X136435000Y-127798665D01*
X136379853Y-127521426D01*
X136271680Y-127260273D01*
X136114637Y-127025241D01*
X135914759Y-126825363D01*
X135682241Y-126670000D01*
X135914759Y-126514637D01*
X136114637Y-126314759D01*
X136271680Y-126079727D01*
X136379853Y-125818574D01*
X136435000Y-125541335D01*
X136435000Y-125258665D01*
X136379853Y-124981426D01*
X136271680Y-124720273D01*
X136114637Y-124485241D01*
X135914759Y-124285363D01*
X135682241Y-124130000D01*
X135914759Y-123974637D01*
X136114637Y-123774759D01*
X136271680Y-123539727D01*
X136379853Y-123278574D01*
X136435000Y-123001335D01*
X136435000Y-122718665D01*
X136379853Y-122441426D01*
X136271680Y-122180273D01*
X136114637Y-121945241D01*
X135914759Y-121745363D01*
X135682241Y-121590000D01*
X135914759Y-121434637D01*
X136114637Y-121234759D01*
X136271680Y-120999727D01*
X136379853Y-120738574D01*
X136435000Y-120461335D01*
X136435000Y-120178665D01*
X136379853Y-119901426D01*
X136271680Y-119640273D01*
X136114637Y-119405241D01*
X135914759Y-119205363D01*
X135682241Y-119050000D01*
X135914759Y-118894637D01*
X136114637Y-118694759D01*
X136271680Y-118459727D01*
X136379853Y-118198574D01*
X136435000Y-117921335D01*
X136435000Y-117638665D01*
X136379853Y-117361426D01*
X136271680Y-117100273D01*
X136114637Y-116865241D01*
X135914759Y-116665363D01*
X135682241Y-116510000D01*
X135914759Y-116354637D01*
X136114637Y-116154759D01*
X136271680Y-115919727D01*
X136379853Y-115658574D01*
X136435000Y-115381335D01*
X136435000Y-115098665D01*
X136379853Y-114821426D01*
X136271680Y-114560273D01*
X136114637Y-114325241D01*
X135914759Y-114125363D01*
X135682241Y-113970000D01*
X135914759Y-113814637D01*
X136114637Y-113614759D01*
X136271680Y-113379727D01*
X136379853Y-113118574D01*
X136435000Y-112841335D01*
X136435000Y-112558665D01*
X136379853Y-112281426D01*
X136271680Y-112020273D01*
X136114637Y-111785241D01*
X135914759Y-111585363D01*
X135682241Y-111430000D01*
X135914759Y-111274637D01*
X136114637Y-111074759D01*
X136271680Y-110839727D01*
X136379853Y-110578574D01*
X136435000Y-110301335D01*
X136435000Y-110018665D01*
X136379853Y-109741426D01*
X136271680Y-109480273D01*
X136114637Y-109245241D01*
X135914759Y-109045363D01*
X135679727Y-108888320D01*
X135669135Y-108883933D01*
X135855131Y-108772385D01*
X136063519Y-108583414D01*
X136231037Y-108357420D01*
X136351246Y-108103087D01*
X136391904Y-107969039D01*
X136269915Y-107747000D01*
X135127000Y-107747000D01*
X135127000Y-107767000D01*
X134873000Y-107767000D01*
X134873000Y-107747000D01*
X134853000Y-107747000D01*
X134853000Y-107493000D01*
X134873000Y-107493000D01*
X134873000Y-107473000D01*
X135127000Y-107473000D01*
X135127000Y-107493000D01*
X136269915Y-107493000D01*
X136391904Y-107270961D01*
X136351246Y-107136913D01*
X136231037Y-106882580D01*
X136063519Y-106656586D01*
X135855131Y-106467615D01*
X135669135Y-106356067D01*
X135679727Y-106351680D01*
X135914759Y-106194637D01*
X136114637Y-105994759D01*
X136271680Y-105759727D01*
X136379853Y-105498574D01*
X136435000Y-105221335D01*
X136435000Y-104938665D01*
X136379853Y-104661426D01*
X136271680Y-104400273D01*
X136114637Y-104165241D01*
X135914759Y-103965363D01*
X135682241Y-103810000D01*
X135914759Y-103654637D01*
X136114637Y-103454759D01*
X136271680Y-103219727D01*
X136379853Y-102958574D01*
X136435000Y-102681335D01*
X136435000Y-102398665D01*
X136379853Y-102121426D01*
X136271680Y-101860273D01*
X136114637Y-101625241D01*
X135916039Y-101426643D01*
X135924482Y-101425812D01*
X136044180Y-101389502D01*
X136154494Y-101330537D01*
X136251185Y-101251185D01*
X136330537Y-101154494D01*
X136389502Y-101044180D01*
X136425812Y-100924482D01*
X136438072Y-100800000D01*
X136438072Y-99200000D01*
X136425812Y-99075518D01*
X136389502Y-98955820D01*
X136330537Y-98845506D01*
X136251185Y-98748815D01*
X136154494Y-98669463D01*
X136044180Y-98610498D01*
X135924482Y-98574188D01*
X135800000Y-98561928D01*
X134280000Y-98561928D01*
X134280000Y-94123469D01*
X134284281Y-94080000D01*
X134280000Y-94036531D01*
X134280000Y-94036523D01*
X134267195Y-93906510D01*
X134216589Y-93739687D01*
X134134411Y-93585941D01*
X134023817Y-93451183D01*
X133990049Y-93423470D01*
X131471534Y-90904956D01*
X131443817Y-90871183D01*
X131309059Y-90760589D01*
X131155313Y-90678411D01*
X130988490Y-90627805D01*
X130858477Y-90615000D01*
X130858469Y-90615000D01*
X130815000Y-90610719D01*
X130793228Y-90612863D01*
X130753475Y-90553368D01*
X130546632Y-90346525D01*
X130364466Y-90224805D01*
X130481355Y-90155178D01*
X130697588Y-89960269D01*
X130871641Y-89726920D01*
X130996825Y-89464099D01*
X131041476Y-89316890D01*
X130920155Y-89087000D01*
X129727000Y-89087000D01*
X129727000Y-89107000D01*
X129473000Y-89107000D01*
X129473000Y-89087000D01*
X128279845Y-89087000D01*
X128158524Y-89316890D01*
X128203175Y-89464099D01*
X128328359Y-89726920D01*
X128502412Y-89960269D01*
X128718645Y-90155178D01*
X128835534Y-90224805D01*
X128653368Y-90346525D01*
X128446525Y-90553368D01*
X128284010Y-90796589D01*
X128172068Y-91066842D01*
X128115000Y-91353740D01*
X128115000Y-91646260D01*
X128172068Y-91933158D01*
X128284010Y-92203411D01*
X128446525Y-92446632D01*
X128653368Y-92653475D01*
X128827760Y-92770000D01*
X128653368Y-92886525D01*
X128446525Y-93093368D01*
X128284010Y-93336589D01*
X128172068Y-93606842D01*
X128115000Y-93893740D01*
X128115000Y-94186260D01*
X128172068Y-94473158D01*
X128284010Y-94743411D01*
X128446525Y-94986632D01*
X128653368Y-95193475D01*
X128827760Y-95310000D01*
X128653368Y-95426525D01*
X128446525Y-95633368D01*
X128284010Y-95876589D01*
X128172068Y-96146842D01*
X128115000Y-96433740D01*
X128115000Y-96726260D01*
X128172068Y-97013158D01*
X128284010Y-97283411D01*
X128446525Y-97526632D01*
X128653368Y-97733475D01*
X128655650Y-97735000D01*
X127832686Y-97735000D01*
X126906000Y-96808315D01*
X126906000Y-83223685D01*
X127404686Y-82725000D01*
X128655650Y-82725000D01*
X128653368Y-82726525D01*
X128446525Y-82933368D01*
X128284010Y-83176589D01*
X128172068Y-83446842D01*
X128115000Y-83733740D01*
X128115000Y-84026260D01*
X128172068Y-84313158D01*
X128284010Y-84583411D01*
X128446525Y-84826632D01*
X128653368Y-85033475D01*
X128827760Y-85150000D01*
X128653368Y-85266525D01*
X128446525Y-85473368D01*
X128284010Y-85716589D01*
X128172068Y-85986842D01*
X128115000Y-86273740D01*
X128115000Y-86566260D01*
X128172068Y-86853158D01*
X128284010Y-87123411D01*
X128446525Y-87366632D01*
X128653368Y-87573475D01*
X128835534Y-87695195D01*
X128718645Y-87764822D01*
X128502412Y-87959731D01*
X128328359Y-88193080D01*
X128203175Y-88455901D01*
X128158524Y-88603110D01*
X128279845Y-88833000D01*
X129473000Y-88833000D01*
X129473000Y-88813000D01*
X129727000Y-88813000D01*
X129727000Y-88833000D01*
X130920155Y-88833000D01*
X131041476Y-88603110D01*
X130996825Y-88455901D01*
X130871641Y-88193080D01*
X130697588Y-87959731D01*
X130481355Y-87764822D01*
X130364466Y-87695195D01*
X130546632Y-87573475D01*
X130753475Y-87366632D01*
X130794656Y-87305000D01*
X134639422Y-87305000D01*
X144956001Y-97621580D01*
X144956000Y-113337531D01*
X144951719Y-113381000D01*
X144956000Y-113424469D01*
X144956000Y-113424476D01*
X144968805Y-113554489D01*
X145019411Y-113721312D01*
X145101589Y-113875058D01*
X145212183Y-114009817D01*
X145245956Y-114037534D01*
X148811983Y-117603561D01*
X148805000Y-117638665D01*
X148805000Y-117921335D01*
X148860147Y-118198574D01*
X148968320Y-118459727D01*
X149125363Y-118694759D01*
X149325241Y-118894637D01*
X149557759Y-119050000D01*
X149325241Y-119205363D01*
X149125363Y-119405241D01*
X148968320Y-119640273D01*
X148860147Y-119901426D01*
X148805000Y-120178665D01*
X148805000Y-120461335D01*
X148860147Y-120738574D01*
X148968320Y-120999727D01*
X149125363Y-121234759D01*
X149325241Y-121434637D01*
X149557759Y-121590000D01*
X149325241Y-121745363D01*
X149125363Y-121945241D01*
X148968320Y-122180273D01*
X148860147Y-122441426D01*
X148805000Y-122718665D01*
X148805000Y-123001335D01*
X148860147Y-123278574D01*
X148968320Y-123539727D01*
X149125363Y-123774759D01*
X149325241Y-123974637D01*
X149557759Y-124130000D01*
X149325241Y-124285363D01*
X149125363Y-124485241D01*
X148968320Y-124720273D01*
X148860147Y-124981426D01*
X148805000Y-125258665D01*
X148805000Y-125541335D01*
X148860147Y-125818574D01*
X148968320Y-126079727D01*
X149125363Y-126314759D01*
X149325241Y-126514637D01*
X149557759Y-126670000D01*
X149325241Y-126825363D01*
X149125363Y-127025241D01*
X148968320Y-127260273D01*
X148860147Y-127521426D01*
X148805000Y-127798665D01*
X148805000Y-128081335D01*
X148860147Y-128358574D01*
X148968320Y-128619727D01*
X149125363Y-128854759D01*
X149325241Y-129054637D01*
X149557759Y-129210000D01*
X149325241Y-129365363D01*
X149125363Y-129565241D01*
X148968320Y-129800273D01*
X148860147Y-130061426D01*
X148805000Y-130338665D01*
X148805000Y-130621335D01*
X148860147Y-130898574D01*
X148968320Y-131159727D01*
X149125363Y-131394759D01*
X149325241Y-131594637D01*
X149557759Y-131750000D01*
X149325241Y-131905363D01*
X149125363Y-132105241D01*
X148968320Y-132340273D01*
X148860147Y-132601426D01*
X148805000Y-132878665D01*
X148805000Y-133161335D01*
X148860147Y-133438574D01*
X148968320Y-133699727D01*
X149125363Y-133934759D01*
X149325241Y-134134637D01*
X149557759Y-134290000D01*
X149325241Y-134445363D01*
X149125363Y-134645241D01*
X148968320Y-134880273D01*
X148860147Y-135141426D01*
X148805000Y-135418665D01*
X148805000Y-135701335D01*
X148860147Y-135978574D01*
X148968320Y-136239727D01*
X149125363Y-136474759D01*
X149325241Y-136674637D01*
X149560273Y-136831680D01*
X149821426Y-136939853D01*
X150098665Y-136995000D01*
X150381335Y-136995000D01*
X150658574Y-136939853D01*
X150919727Y-136831680D01*
X151154759Y-136674637D01*
X151354637Y-136474759D01*
X151511680Y-136239727D01*
X151619853Y-135978574D01*
X151675000Y-135701335D01*
X151675000Y-135418665D01*
X151619853Y-135141426D01*
X151511680Y-134880273D01*
X151354637Y-134645241D01*
X151154759Y-134445363D01*
X150922241Y-134290000D01*
X151154759Y-134134637D01*
X151354637Y-133934759D01*
X151511680Y-133699727D01*
X151619853Y-133438574D01*
X151675000Y-133161335D01*
X151675000Y-132878665D01*
X151619853Y-132601426D01*
X151511680Y-132340273D01*
X151354637Y-132105241D01*
X151154759Y-131905363D01*
X150922241Y-131750000D01*
X151154759Y-131594637D01*
X151354637Y-131394759D01*
X151511680Y-131159727D01*
X151619853Y-130898574D01*
X151675000Y-130621335D01*
X151675000Y-130338665D01*
X151619853Y-130061426D01*
X151511680Y-129800273D01*
X151354637Y-129565241D01*
X151154759Y-129365363D01*
X150922241Y-129210000D01*
X151154759Y-129054637D01*
X151354637Y-128854759D01*
X151511680Y-128619727D01*
X151619853Y-128358574D01*
X151675000Y-128081335D01*
X151675000Y-127798665D01*
X151619853Y-127521426D01*
X151511680Y-127260273D01*
X151354637Y-127025241D01*
X151154759Y-126825363D01*
X150922241Y-126670000D01*
X151154759Y-126514637D01*
X151354637Y-126314759D01*
X151511680Y-126079727D01*
X151619853Y-125818574D01*
X151675000Y-125541335D01*
X151675000Y-125258665D01*
X151619853Y-124981426D01*
X151511680Y-124720273D01*
X151354637Y-124485241D01*
X151154759Y-124285363D01*
X150922241Y-124130000D01*
X151154759Y-123974637D01*
X151354637Y-123774759D01*
X151511680Y-123539727D01*
X151619853Y-123278574D01*
X151675000Y-123001335D01*
X151675000Y-122718665D01*
X151619853Y-122441426D01*
X151511680Y-122180273D01*
X151354637Y-121945241D01*
X151154759Y-121745363D01*
X150922241Y-121590000D01*
X151154759Y-121434637D01*
X151354637Y-121234759D01*
X151511680Y-120999727D01*
X151619853Y-120738574D01*
X151675000Y-120461335D01*
X151675000Y-120178665D01*
X151619853Y-119901426D01*
X151511680Y-119640273D01*
X151354637Y-119405241D01*
X151154759Y-119205363D01*
X150922241Y-119050000D01*
X151154759Y-118894637D01*
X151354637Y-118694759D01*
X151511680Y-118459727D01*
X151619853Y-118198574D01*
X151675000Y-117921335D01*
X151675000Y-117638665D01*
X151619853Y-117361426D01*
X151511680Y-117100273D01*
X151354637Y-116865241D01*
X151154759Y-116665363D01*
X150922241Y-116510000D01*
X151154759Y-116354637D01*
X151354637Y-116154759D01*
X151511680Y-115919727D01*
X151619853Y-115658574D01*
X151675000Y-115381335D01*
X151675000Y-115098665D01*
X151619853Y-114821426D01*
X151511680Y-114560273D01*
X151354637Y-114325241D01*
X151193396Y-114164000D01*
X152409928Y-114164000D01*
X152422188Y-114288482D01*
X152458498Y-114408180D01*
X152517463Y-114518494D01*
X152596815Y-114615185D01*
X152693506Y-114694537D01*
X152803820Y-114753502D01*
X152923518Y-114789812D01*
X153048000Y-114802072D01*
X153937250Y-114799000D01*
X154096000Y-114640250D01*
X154096000Y-112906000D01*
X154350000Y-112906000D01*
X154350000Y-114640250D01*
X154508750Y-114799000D01*
X155398000Y-114802072D01*
X155522482Y-114789812D01*
X155642180Y-114753502D01*
X155752494Y-114694537D01*
X155849185Y-114615185D01*
X155928537Y-114518494D01*
X155987502Y-114408180D01*
X156023812Y-114288482D01*
X156036072Y-114164000D01*
X156033000Y-113064750D01*
X155874250Y-112906000D01*
X154350000Y-112906000D01*
X154096000Y-112906000D01*
X152571750Y-112906000D01*
X152413000Y-113064750D01*
X152409928Y-114164000D01*
X151193396Y-114164000D01*
X151154759Y-114125363D01*
X150922241Y-113970000D01*
X151154759Y-113814637D01*
X151354637Y-113614759D01*
X151511680Y-113379727D01*
X151619853Y-113118574D01*
X151675000Y-112841335D01*
X151675000Y-112558665D01*
X151619853Y-112281426D01*
X151511680Y-112020273D01*
X151354637Y-111785241D01*
X151154759Y-111585363D01*
X150922241Y-111430000D01*
X150976119Y-111394000D01*
X152409928Y-111394000D01*
X152413000Y-112493250D01*
X152571750Y-112652000D01*
X154096000Y-112652000D01*
X154096000Y-110917750D01*
X154350000Y-110917750D01*
X154350000Y-112652000D01*
X155874250Y-112652000D01*
X156033000Y-112493250D01*
X156036072Y-111394000D01*
X156023812Y-111269518D01*
X155987502Y-111149820D01*
X155928537Y-111039506D01*
X155849185Y-110942815D01*
X155752494Y-110863463D01*
X155642180Y-110804498D01*
X155522482Y-110768188D01*
X155398000Y-110755928D01*
X154508750Y-110759000D01*
X154350000Y-110917750D01*
X154096000Y-110917750D01*
X153937250Y-110759000D01*
X153048000Y-110755928D01*
X152923518Y-110768188D01*
X152803820Y-110804498D01*
X152693506Y-110863463D01*
X152596815Y-110942815D01*
X152517463Y-111039506D01*
X152458498Y-111149820D01*
X152422188Y-111269518D01*
X152409928Y-111394000D01*
X150976119Y-111394000D01*
X151154759Y-111274637D01*
X151354637Y-111074759D01*
X151511680Y-110839727D01*
X151619853Y-110578574D01*
X151675000Y-110301335D01*
X151675000Y-110018665D01*
X151619853Y-109741426D01*
X151511680Y-109480273D01*
X151354637Y-109245241D01*
X151154759Y-109045363D01*
X151122787Y-109024000D01*
X152409928Y-109024000D01*
X152422188Y-109148482D01*
X152458498Y-109268180D01*
X152517463Y-109378494D01*
X152596815Y-109475185D01*
X152693506Y-109554537D01*
X152803820Y-109613502D01*
X152923518Y-109649812D01*
X153048000Y-109662072D01*
X155398000Y-109662072D01*
X155522482Y-109649812D01*
X155642180Y-109613502D01*
X155752494Y-109554537D01*
X155849185Y-109475185D01*
X155928537Y-109378494D01*
X155987502Y-109268180D01*
X156023812Y-109148482D01*
X156036072Y-109024000D01*
X156036072Y-106254000D01*
X156023812Y-106129518D01*
X155987502Y-106009820D01*
X155928537Y-105899506D01*
X155849185Y-105802815D01*
X155752494Y-105723463D01*
X155642180Y-105664498D01*
X155522482Y-105628188D01*
X155398000Y-105615928D01*
X153048000Y-105615928D01*
X152923518Y-105628188D01*
X152803820Y-105664498D01*
X152693506Y-105723463D01*
X152596815Y-105802815D01*
X152517463Y-105899506D01*
X152458498Y-106009820D01*
X152422188Y-106129518D01*
X152409928Y-106254000D01*
X151065916Y-106254000D01*
X151154759Y-106194637D01*
X151354637Y-105994759D01*
X151511680Y-105759727D01*
X151619853Y-105498574D01*
X151675000Y-105221335D01*
X151675000Y-104938665D01*
X151619853Y-104661426D01*
X151511680Y-104400273D01*
X151354637Y-104165241D01*
X151154759Y-103965363D01*
X150919727Y-103808320D01*
X150909135Y-103803933D01*
X151095131Y-103692385D01*
X151303519Y-103503414D01*
X151471037Y-103277420D01*
X151591246Y-103023087D01*
X151631904Y-102889039D01*
X151509915Y-102667000D01*
X150367000Y-102667000D01*
X150367000Y-102687000D01*
X150113000Y-102687000D01*
X150113000Y-102667000D01*
X148970085Y-102667000D01*
X148848096Y-102889039D01*
X148888754Y-103023087D01*
X149008963Y-103277420D01*
X149176481Y-103503414D01*
X149384869Y-103692385D01*
X149570865Y-103803933D01*
X149560273Y-103808320D01*
X149325241Y-103965363D01*
X149125363Y-104165241D01*
X148968320Y-104400273D01*
X148860147Y-104661426D01*
X148805000Y-104938665D01*
X148805000Y-105221335D01*
X148860147Y-105498574D01*
X148968320Y-105759727D01*
X149125363Y-105994759D01*
X149325241Y-106194637D01*
X149557759Y-106350000D01*
X149325241Y-106505363D01*
X149125363Y-106705241D01*
X148968320Y-106940273D01*
X148860147Y-107201426D01*
X148805000Y-107478665D01*
X148805000Y-107761335D01*
X148860147Y-108038574D01*
X148968320Y-108299727D01*
X149125363Y-108534759D01*
X149325241Y-108734637D01*
X149557759Y-108890000D01*
X149325241Y-109045363D01*
X149125363Y-109245241D01*
X148968320Y-109480273D01*
X148860147Y-109741426D01*
X148805000Y-110018665D01*
X148805000Y-110301335D01*
X148860147Y-110578574D01*
X148968320Y-110839727D01*
X149125363Y-111074759D01*
X149325241Y-111274637D01*
X149557759Y-111430000D01*
X149325241Y-111585363D01*
X149125363Y-111785241D01*
X148968320Y-112020273D01*
X148860147Y-112281426D01*
X148805870Y-112554292D01*
X148377000Y-112125422D01*
X148377000Y-96536469D01*
X148381281Y-96493000D01*
X148377000Y-96449531D01*
X148377000Y-96449523D01*
X148364195Y-96319510D01*
X148335478Y-96224844D01*
X148313589Y-96152686D01*
X148231411Y-95998941D01*
X148148532Y-95897953D01*
X148148530Y-95897951D01*
X148120817Y-95864183D01*
X148087049Y-95836470D01*
X135535534Y-83284956D01*
X135507817Y-83251183D01*
X135373059Y-83140589D01*
X135219313Y-83058411D01*
X135052490Y-83007805D01*
X134922477Y-82995000D01*
X134922469Y-82995000D01*
X134879000Y-82990719D01*
X134835531Y-82995000D01*
X130794656Y-82995000D01*
X130753475Y-82933368D01*
X130546632Y-82726525D01*
X130544350Y-82725000D01*
X136591315Y-82725000D01*
X148855001Y-94988687D01*
X148855000Y-99607301D01*
X148805000Y-99858665D01*
X148805000Y-100141335D01*
X148860147Y-100418574D01*
X148968320Y-100679727D01*
X149125363Y-100914759D01*
X149325241Y-101114637D01*
X149560273Y-101271680D01*
X149570865Y-101276067D01*
X149384869Y-101387615D01*
X149176481Y-101576586D01*
X149008963Y-101802580D01*
X148888754Y-102056913D01*
X148848096Y-102190961D01*
X148970085Y-102413000D01*
X150113000Y-102413000D01*
X150113000Y-102393000D01*
X150367000Y-102393000D01*
X150367000Y-102413000D01*
X151509915Y-102413000D01*
X151631904Y-102190961D01*
X151591246Y-102056913D01*
X151471037Y-101802580D01*
X151303519Y-101576586D01*
X151095131Y-101387615D01*
X151010735Y-101337000D01*
X152409928Y-101337000D01*
X152422188Y-101461482D01*
X152458498Y-101581180D01*
X152517463Y-101691494D01*
X152596815Y-101788185D01*
X152693506Y-101867537D01*
X152803820Y-101926502D01*
X152923518Y-101962812D01*
X153048000Y-101975072D01*
X155398000Y-101975072D01*
X155522482Y-101962812D01*
X155642180Y-101926502D01*
X155752494Y-101867537D01*
X155849185Y-101788185D01*
X155928537Y-101691494D01*
X155987502Y-101581180D01*
X156023812Y-101461482D01*
X156036072Y-101337000D01*
X156092315Y-101337000D01*
X160573000Y-105817685D01*
X160573000Y-138403000D01*
X125210677Y-138403000D01*
X124765870Y-138083374D01*
X124229223Y-137529597D01*
X123997000Y-137184012D01*
X123997000Y-134461682D01*
X124165000Y-134461682D01*
X124165000Y-135138318D01*
X124297006Y-135801952D01*
X124555943Y-136427082D01*
X124931862Y-136989685D01*
X125410315Y-137468138D01*
X125972918Y-137844057D01*
X126598048Y-138102994D01*
X127261682Y-138235000D01*
X127938318Y-138235000D01*
X128601952Y-138102994D01*
X129227082Y-137844057D01*
X129789685Y-137468138D01*
X130268138Y-136989685D01*
X130644057Y-136427082D01*
X130902994Y-135801952D01*
X131035000Y-135138318D01*
X131035000Y-134461682D01*
X130902994Y-133798048D01*
X130644057Y-133172918D01*
X130268138Y-132610315D01*
X129789685Y-132131862D01*
X129227082Y-131755943D01*
X128601952Y-131497006D01*
X127938318Y-131365000D01*
X127261682Y-131365000D01*
X126598048Y-131497006D01*
X125972918Y-131755943D01*
X125410315Y-132131862D01*
X124931862Y-132610315D01*
X124555943Y-133172918D01*
X124297006Y-133798048D01*
X124165000Y-134461682D01*
X123997000Y-134461682D01*
X123997000Y-102016890D01*
X128158524Y-102016890D01*
X128203175Y-102164099D01*
X128328359Y-102426920D01*
X128502412Y-102660269D01*
X128718645Y-102855178D01*
X128968748Y-103004157D01*
X129243109Y-103101481D01*
X129473000Y-102980814D01*
X129473000Y-101787000D01*
X128279845Y-101787000D01*
X128158524Y-102016890D01*
X123997000Y-102016890D01*
X123997000Y-77950000D01*
X128111928Y-77950000D01*
X128115000Y-78514250D01*
X128273750Y-78673000D01*
X129473000Y-78673000D01*
X129473000Y-77473750D01*
X129727000Y-77473750D01*
X129727000Y-78673000D01*
X130926250Y-78673000D01*
X131085000Y-78514250D01*
X131088072Y-77950000D01*
X131075812Y-77825518D01*
X131039502Y-77705820D01*
X130980537Y-77595506D01*
X130901185Y-77498815D01*
X130804494Y-77419463D01*
X130694180Y-77360498D01*
X130574482Y-77324188D01*
X130450000Y-77311928D01*
X129885750Y-77315000D01*
X129727000Y-77473750D01*
X129473000Y-77473750D01*
X129314250Y-77315000D01*
X128750000Y-77311928D01*
X128625518Y-77324188D01*
X128505820Y-77360498D01*
X128395506Y-77419463D01*
X128298815Y-77498815D01*
X128219463Y-77595506D01*
X128160498Y-77705820D01*
X128124188Y-77825518D01*
X128111928Y-77950000D01*
X123997000Y-77950000D01*
X123997000Y-44461682D01*
X124165000Y-44461682D01*
X124165000Y-45138318D01*
X124297006Y-45801952D01*
X124555943Y-46427082D01*
X124931862Y-46989685D01*
X125410315Y-47468138D01*
X125972918Y-47844057D01*
X126598048Y-48102994D01*
X127261682Y-48235000D01*
X127938318Y-48235000D01*
X128601952Y-48102994D01*
X129227082Y-47844057D01*
X129789685Y-47468138D01*
X130268138Y-46989685D01*
X130644057Y-46427082D01*
X130902994Y-45801952D01*
X131035000Y-45138318D01*
X131035000Y-44461682D01*
X130902994Y-43798048D01*
X130644057Y-43172918D01*
X130268138Y-42610315D01*
X129789685Y-42131862D01*
X129227082Y-41755943D01*
X128601952Y-41497006D01*
X127938318Y-41365000D01*
X127261682Y-41365000D01*
X126598048Y-41497006D01*
X125972918Y-41755943D01*
X125410315Y-42131862D01*
X124931862Y-42610315D01*
X124555943Y-43172918D01*
X124297006Y-43798048D01*
X124165000Y-44461682D01*
X123997000Y-44461682D01*
X123997000Y-42410677D01*
X124316626Y-41965870D01*
X124870403Y-41429223D01*
X125510451Y-40999129D01*
X125811448Y-40867000D01*
X160573000Y-40867000D01*
X160573000Y-101900315D01*
%TA.AperFunction,Conductor*%
D22*
G36*
X160573000Y-101900315D02*
G01*
X157693454Y-99020769D01*
X157650081Y-98967919D01*
X157439188Y-98794843D01*
X157198581Y-98666236D01*
X156937507Y-98587040D01*
X156734037Y-98567000D01*
X156734029Y-98567000D01*
X156666000Y-98560300D01*
X156597971Y-98567000D01*
X156036072Y-98567000D01*
X156023812Y-98442518D01*
X155987502Y-98322820D01*
X155928537Y-98212506D01*
X155849185Y-98115815D01*
X155752494Y-98036463D01*
X155642180Y-97977498D01*
X155522482Y-97941188D01*
X155398000Y-97928928D01*
X153048000Y-97928928D01*
X152923518Y-97941188D01*
X152803820Y-97977498D01*
X152693506Y-98036463D01*
X152596815Y-98115815D01*
X152517463Y-98212506D01*
X152458498Y-98322820D01*
X152422188Y-98442518D01*
X152409928Y-98567000D01*
X151625000Y-98567000D01*
X151625000Y-96197000D01*
X152409928Y-96197000D01*
X152422188Y-96321482D01*
X152458498Y-96441180D01*
X152517463Y-96551494D01*
X152596815Y-96648185D01*
X152693506Y-96727537D01*
X152803820Y-96786502D01*
X152923518Y-96822812D01*
X153048000Y-96835072D01*
X153937250Y-96832000D01*
X154096000Y-96673250D01*
X154096000Y-94939000D01*
X154350000Y-94939000D01*
X154350000Y-96673250D01*
X154508750Y-96832000D01*
X155398000Y-96835072D01*
X155522482Y-96822812D01*
X155642180Y-96786502D01*
X155752494Y-96727537D01*
X155849185Y-96648185D01*
X155928537Y-96551494D01*
X155987502Y-96441180D01*
X156023812Y-96321482D01*
X156036072Y-96197000D01*
X156033000Y-95097750D01*
X155874250Y-94939000D01*
X154350000Y-94939000D01*
X154096000Y-94939000D01*
X152571750Y-94939000D01*
X152413000Y-95097750D01*
X152409928Y-96197000D01*
X151625000Y-96197000D01*
X151625000Y-94483026D01*
X151631700Y-94414999D01*
X151625000Y-94346972D01*
X151625000Y-94346963D01*
X151604960Y-94143493D01*
X151525764Y-93882419D01*
X151397157Y-93641812D01*
X151351304Y-93585940D01*
X151267452Y-93483766D01*
X151267450Y-93483764D01*
X151224081Y-93430919D01*
X151219306Y-93427000D01*
X152409928Y-93427000D01*
X152413000Y-94526250D01*
X152571750Y-94685000D01*
X154096000Y-94685000D01*
X154096000Y-92950750D01*
X154350000Y-92950750D01*
X154350000Y-94685000D01*
X155874250Y-94685000D01*
X156033000Y-94526250D01*
X156036072Y-93427000D01*
X156023812Y-93302518D01*
X155987502Y-93182820D01*
X155928537Y-93072506D01*
X155849185Y-92975815D01*
X155752494Y-92896463D01*
X155642180Y-92837498D01*
X155522482Y-92801188D01*
X155398000Y-92788928D01*
X154508750Y-92792000D01*
X154350000Y-92950750D01*
X154096000Y-92950750D01*
X153937250Y-92792000D01*
X153048000Y-92788928D01*
X152923518Y-92801188D01*
X152803820Y-92837498D01*
X152693506Y-92896463D01*
X152596815Y-92975815D01*
X152517463Y-93072506D01*
X152458498Y-93182820D01*
X152422188Y-93302518D01*
X152409928Y-93427000D01*
X151219306Y-93427000D01*
X151171236Y-93387550D01*
X138192454Y-80408769D01*
X138149081Y-80355919D01*
X137938188Y-80182843D01*
X137697581Y-80054236D01*
X137436507Y-79975040D01*
X137233037Y-79955000D01*
X137233029Y-79955000D01*
X137165000Y-79948300D01*
X137096971Y-79955000D01*
X131006993Y-79955000D01*
X131039502Y-79894180D01*
X131075812Y-79774482D01*
X131088072Y-79650000D01*
X131085000Y-79085750D01*
X130926250Y-78927000D01*
X129727000Y-78927000D01*
X129727000Y-78947000D01*
X129473000Y-78947000D01*
X129473000Y-78927000D01*
X128273750Y-78927000D01*
X128115000Y-79085750D01*
X128111928Y-79650000D01*
X128124188Y-79774482D01*
X128160498Y-79894180D01*
X128193007Y-79955000D01*
X126899029Y-79955000D01*
X126831000Y-79948300D01*
X126762971Y-79955000D01*
X126762963Y-79955000D01*
X126559493Y-79975040D01*
X126298419Y-80054236D01*
X126057812Y-80182843D01*
X125899766Y-80312548D01*
X125899764Y-80312550D01*
X125846919Y-80355919D01*
X125803550Y-80408764D01*
X124589764Y-81622551D01*
X124536920Y-81665919D01*
X124493551Y-81718764D01*
X124493548Y-81718767D01*
X124363844Y-81876812D01*
X124235236Y-82117420D01*
X124156040Y-82378493D01*
X124129300Y-82650000D01*
X124136001Y-82718039D01*
X124136000Y-97313971D01*
X124129300Y-97382000D01*
X124136000Y-97450029D01*
X124136000Y-97450036D01*
X124136213Y-97452195D01*
X124156040Y-97653507D01*
X124180298Y-97733475D01*
X124235236Y-97914580D01*
X124342799Y-98115815D01*
X124363844Y-98155188D01*
X124476560Y-98292532D01*
X124536919Y-98366080D01*
X124589765Y-98409450D01*
X126231550Y-100051236D01*
X126274919Y-100104081D01*
X126327764Y-100147450D01*
X126327766Y-100147452D01*
X126440099Y-100239641D01*
X126485812Y-100277157D01*
X126726419Y-100405764D01*
X126987493Y-100484960D01*
X127190963Y-100505000D01*
X127190972Y-100505000D01*
X127258999Y-100511700D01*
X127327026Y-100505000D01*
X128674071Y-100505000D01*
X128502412Y-100659731D01*
X128328359Y-100893080D01*
X128203175Y-101155901D01*
X128158524Y-101303110D01*
X128279845Y-101533000D01*
X129473000Y-101533000D01*
X129473000Y-101513000D01*
X129727000Y-101513000D01*
X129727000Y-101533000D01*
X129747000Y-101533000D01*
X129747000Y-101787000D01*
X129727000Y-101787000D01*
X129727000Y-102980814D01*
X129956891Y-103101481D01*
X130231252Y-103004157D01*
X130481355Y-102855178D01*
X130697588Y-102660269D01*
X130732001Y-102614133D01*
X130732000Y-111813531D01*
X130727719Y-111857000D01*
X130732000Y-111900469D01*
X130732000Y-111900476D01*
X130744805Y-112030489D01*
X130795411Y-112197312D01*
X130877589Y-112351058D01*
X130988183Y-112485817D01*
X131021956Y-112513534D01*
X133571983Y-115063561D01*
X133565000Y-115098665D01*
X133565000Y-115381335D01*
X133620147Y-115658574D01*
X133728320Y-115919727D01*
X133885363Y-116154759D01*
X134085241Y-116354637D01*
X134317759Y-116510000D01*
X134085241Y-116665363D01*
X133885363Y-116865241D01*
X133865479Y-116895000D01*
X130796710Y-116895000D01*
X130648898Y-116833774D01*
X130448939Y-116794000D01*
X130245061Y-116794000D01*
X130045102Y-116833774D01*
X129856744Y-116911795D01*
X129687226Y-117025063D01*
X129543063Y-117169226D01*
X129429795Y-117338744D01*
X129351774Y-117527102D01*
X129312000Y-117727061D01*
X129312000Y-117930939D01*
X129351774Y-118130898D01*
X129429795Y-118319256D01*
X129543063Y-118488774D01*
X129687226Y-118632937D01*
X129856744Y-118746205D01*
X130045102Y-118824226D01*
X130245061Y-118864000D01*
X130448939Y-118864000D01*
X130648898Y-118824226D01*
X130837256Y-118746205D01*
X130958788Y-118665000D01*
X133865479Y-118665000D01*
X133885363Y-118694759D01*
X134085241Y-118894637D01*
X134317759Y-119050000D01*
X134085241Y-119205363D01*
X133885363Y-119405241D01*
X133865479Y-119435000D01*
X131002190Y-119435000D01*
X130837256Y-119324795D01*
X130648898Y-119246774D01*
X130448939Y-119207000D01*
X130245061Y-119207000D01*
X130045102Y-119246774D01*
X129856744Y-119324795D01*
X129687226Y-119438063D01*
X129543063Y-119582226D01*
X129429795Y-119751744D01*
X129351774Y-119940102D01*
X129312000Y-120140061D01*
X129312000Y-120343939D01*
X129351774Y-120543898D01*
X129429795Y-120732256D01*
X129543063Y-120901774D01*
X129687226Y-121045937D01*
X129856744Y-121159205D01*
X130045102Y-121237226D01*
X130245061Y-121277000D01*
X130448939Y-121277000D01*
X130648898Y-121237226D01*
X130726698Y-121205000D01*
X133865479Y-121205000D01*
X133885363Y-121234759D01*
X134085241Y-121434637D01*
X134317759Y-121590000D01*
X134085241Y-121745363D01*
X133885363Y-121945241D01*
X133728320Y-122180273D01*
X133620147Y-122441426D01*
X133607514Y-122504935D01*
X133035534Y-121932956D01*
X133007817Y-121899183D01*
X132873059Y-121788589D01*
X132719313Y-121706411D01*
X132552490Y-121655805D01*
X132422477Y-121643000D01*
X132422469Y-121643000D01*
X132379000Y-121638719D01*
X132335531Y-121643000D01*
X130885454Y-121643000D01*
X130837256Y-121610795D01*
X130648898Y-121532774D01*
X130448939Y-121493000D01*
X130245061Y-121493000D01*
X130045102Y-121532774D01*
X129856744Y-121610795D01*
X129687226Y-121724063D01*
X129543063Y-121868226D01*
X129429795Y-122037744D01*
X129351774Y-122226102D01*
X129312000Y-122426061D01*
X129312000Y-122629939D01*
X129351774Y-122829898D01*
X129429795Y-123018256D01*
X129543063Y-123187774D01*
X129687226Y-123331937D01*
X129856744Y-123445205D01*
X130045102Y-123523226D01*
X130245061Y-123563000D01*
X130448939Y-123563000D01*
X130648898Y-123523226D01*
X130837256Y-123445205D01*
X130885454Y-123413000D01*
X132012422Y-123413000D01*
X132256001Y-123656580D01*
X132256001Y-124328423D01*
X132146534Y-124218956D01*
X132118817Y-124185183D01*
X131984059Y-124074589D01*
X131830313Y-123992411D01*
X131663490Y-123941805D01*
X131533477Y-123929000D01*
X131533469Y-123929000D01*
X131490000Y-123924719D01*
X131446531Y-123929000D01*
X131012454Y-123929000D01*
X130964256Y-123896795D01*
X130775898Y-123818774D01*
X130575939Y-123779000D01*
X130372061Y-123779000D01*
X130172102Y-123818774D01*
X129983744Y-123896795D01*
X129814226Y-124010063D01*
X129670063Y-124154226D01*
X129556795Y-124323744D01*
X129478774Y-124512102D01*
X129439000Y-124712061D01*
X129439000Y-124915939D01*
X129478774Y-125115898D01*
X129556795Y-125304256D01*
X129670063Y-125473774D01*
X129814226Y-125617937D01*
X129983744Y-125731205D01*
X130172102Y-125809226D01*
X130372061Y-125849000D01*
X130575939Y-125849000D01*
X130775898Y-125809226D01*
X130964256Y-125731205D01*
X131012454Y-125699000D01*
X131113001Y-125699000D01*
X131113001Y-126656290D01*
X131006774Y-126550063D01*
X130837256Y-126436795D01*
X130648898Y-126358774D01*
X130448939Y-126319000D01*
X130245061Y-126319000D01*
X130045102Y-126358774D01*
X129856744Y-126436795D01*
X129687226Y-126550063D01*
X129543063Y-126694226D01*
X129429795Y-126863744D01*
X129351774Y-127052102D01*
X129312000Y-127252061D01*
X129312000Y-127455939D01*
X129351774Y-127655898D01*
X129429795Y-127844256D01*
X129462001Y-127892456D01*
X129462000Y-131247531D01*
X129457719Y-131291000D01*
X129462000Y-131334469D01*
X129462000Y-131334476D01*
X129474805Y-131464489D01*
X129525411Y-131631312D01*
X129607589Y-131785058D01*
X129718183Y-131919817D01*
X129751956Y-131947534D01*
X131419470Y-133615049D01*
X131447183Y-133648817D01*
X131480951Y-133676530D01*
X131480953Y-133676532D01*
X131509216Y-133699727D01*
X131581941Y-133759411D01*
X131735687Y-133841589D01*
X131902510Y-133892195D01*
X132032523Y-133905000D01*
X132032533Y-133905000D01*
X132075999Y-133909281D01*
X132119465Y-133905000D01*
X133865479Y-133905000D01*
X133885363Y-133934759D01*
X134085241Y-134134637D01*
X134317759Y-134290000D01*
X134085241Y-134445363D01*
X133885363Y-134645241D01*
X133728320Y-134880273D01*
X133620147Y-135141426D01*
X133565000Y-135418665D01*
X133565000Y-135701335D01*
X133620147Y-135978574D01*
X133728320Y-136239727D01*
X133885363Y-136474759D01*
X134085241Y-136674637D01*
X134320273Y-136831680D01*
X134581426Y-136939853D01*
X134858665Y-136995000D01*
X135141335Y-136995000D01*
X135418574Y-136939853D01*
X135679727Y-136831680D01*
X135914759Y-136674637D01*
X136114637Y-136474759D01*
X136271680Y-136239727D01*
X136379853Y-135978574D01*
X136435000Y-135701335D01*
X136435000Y-135418665D01*
X136379853Y-135141426D01*
X136271680Y-134880273D01*
X136114637Y-134645241D01*
X135914759Y-134445363D01*
X135682241Y-134290000D01*
X135914759Y-134134637D01*
X136114637Y-133934759D01*
X136271680Y-133699727D01*
X136379853Y-133438574D01*
X136435000Y-133161335D01*
X136435000Y-132878665D01*
X136379853Y-132601426D01*
X136271680Y-132340273D01*
X136114637Y-132105241D01*
X135914759Y-131905363D01*
X135682241Y-131750000D01*
X135914759Y-131594637D01*
X136114637Y-131394759D01*
X136271680Y-131159727D01*
X136379853Y-130898574D01*
X136435000Y-130621335D01*
X136435000Y-130338665D01*
X136379853Y-130061426D01*
X136271680Y-129800273D01*
X136114637Y-129565241D01*
X135914759Y-129365363D01*
X135682241Y-129210000D01*
X135914759Y-129054637D01*
X136114637Y-128854759D01*
X136271680Y-128619727D01*
X136379853Y-128358574D01*
X136435000Y-128081335D01*
X136435000Y-127798665D01*
X136379853Y-127521426D01*
X136271680Y-127260273D01*
X136114637Y-127025241D01*
X135914759Y-126825363D01*
X135682241Y-126670000D01*
X135914759Y-126514637D01*
X136114637Y-126314759D01*
X136271680Y-126079727D01*
X136379853Y-125818574D01*
X136435000Y-125541335D01*
X136435000Y-125258665D01*
X136379853Y-124981426D01*
X136271680Y-124720273D01*
X136114637Y-124485241D01*
X135914759Y-124285363D01*
X135682241Y-124130000D01*
X135914759Y-123974637D01*
X136114637Y-123774759D01*
X136271680Y-123539727D01*
X136379853Y-123278574D01*
X136435000Y-123001335D01*
X136435000Y-122718665D01*
X136379853Y-122441426D01*
X136271680Y-122180273D01*
X136114637Y-121945241D01*
X135914759Y-121745363D01*
X135682241Y-121590000D01*
X135914759Y-121434637D01*
X136114637Y-121234759D01*
X136271680Y-120999727D01*
X136379853Y-120738574D01*
X136435000Y-120461335D01*
X136435000Y-120178665D01*
X136379853Y-119901426D01*
X136271680Y-119640273D01*
X136114637Y-119405241D01*
X135914759Y-119205363D01*
X135682241Y-119050000D01*
X135914759Y-118894637D01*
X136114637Y-118694759D01*
X136271680Y-118459727D01*
X136379853Y-118198574D01*
X136435000Y-117921335D01*
X136435000Y-117638665D01*
X136379853Y-117361426D01*
X136271680Y-117100273D01*
X136114637Y-116865241D01*
X135914759Y-116665363D01*
X135682241Y-116510000D01*
X135914759Y-116354637D01*
X136114637Y-116154759D01*
X136271680Y-115919727D01*
X136379853Y-115658574D01*
X136435000Y-115381335D01*
X136435000Y-115098665D01*
X136379853Y-114821426D01*
X136271680Y-114560273D01*
X136114637Y-114325241D01*
X135914759Y-114125363D01*
X135682241Y-113970000D01*
X135914759Y-113814637D01*
X136114637Y-113614759D01*
X136271680Y-113379727D01*
X136379853Y-113118574D01*
X136435000Y-112841335D01*
X136435000Y-112558665D01*
X136379853Y-112281426D01*
X136271680Y-112020273D01*
X136114637Y-111785241D01*
X135914759Y-111585363D01*
X135682241Y-111430000D01*
X135914759Y-111274637D01*
X136114637Y-111074759D01*
X136271680Y-110839727D01*
X136379853Y-110578574D01*
X136435000Y-110301335D01*
X136435000Y-110018665D01*
X136379853Y-109741426D01*
X136271680Y-109480273D01*
X136114637Y-109245241D01*
X135914759Y-109045363D01*
X135679727Y-108888320D01*
X135669135Y-108883933D01*
X135855131Y-108772385D01*
X136063519Y-108583414D01*
X136231037Y-108357420D01*
X136351246Y-108103087D01*
X136391904Y-107969039D01*
X136269915Y-107747000D01*
X135127000Y-107747000D01*
X135127000Y-107767000D01*
X134873000Y-107767000D01*
X134873000Y-107747000D01*
X134853000Y-107747000D01*
X134853000Y-107493000D01*
X134873000Y-107493000D01*
X134873000Y-107473000D01*
X135127000Y-107473000D01*
X135127000Y-107493000D01*
X136269915Y-107493000D01*
X136391904Y-107270961D01*
X136351246Y-107136913D01*
X136231037Y-106882580D01*
X136063519Y-106656586D01*
X135855131Y-106467615D01*
X135669135Y-106356067D01*
X135679727Y-106351680D01*
X135914759Y-106194637D01*
X136114637Y-105994759D01*
X136271680Y-105759727D01*
X136379853Y-105498574D01*
X136435000Y-105221335D01*
X136435000Y-104938665D01*
X136379853Y-104661426D01*
X136271680Y-104400273D01*
X136114637Y-104165241D01*
X135914759Y-103965363D01*
X135682241Y-103810000D01*
X135914759Y-103654637D01*
X136114637Y-103454759D01*
X136271680Y-103219727D01*
X136379853Y-102958574D01*
X136435000Y-102681335D01*
X136435000Y-102398665D01*
X136379853Y-102121426D01*
X136271680Y-101860273D01*
X136114637Y-101625241D01*
X135916039Y-101426643D01*
X135924482Y-101425812D01*
X136044180Y-101389502D01*
X136154494Y-101330537D01*
X136251185Y-101251185D01*
X136330537Y-101154494D01*
X136389502Y-101044180D01*
X136425812Y-100924482D01*
X136438072Y-100800000D01*
X136438072Y-99200000D01*
X136425812Y-99075518D01*
X136389502Y-98955820D01*
X136330537Y-98845506D01*
X136251185Y-98748815D01*
X136154494Y-98669463D01*
X136044180Y-98610498D01*
X135924482Y-98574188D01*
X135800000Y-98561928D01*
X134280000Y-98561928D01*
X134280000Y-94123469D01*
X134284281Y-94080000D01*
X134280000Y-94036531D01*
X134280000Y-94036523D01*
X134267195Y-93906510D01*
X134216589Y-93739687D01*
X134134411Y-93585941D01*
X134023817Y-93451183D01*
X133990049Y-93423470D01*
X131471534Y-90904956D01*
X131443817Y-90871183D01*
X131309059Y-90760589D01*
X131155313Y-90678411D01*
X130988490Y-90627805D01*
X130858477Y-90615000D01*
X130858469Y-90615000D01*
X130815000Y-90610719D01*
X130793228Y-90612863D01*
X130753475Y-90553368D01*
X130546632Y-90346525D01*
X130364466Y-90224805D01*
X130481355Y-90155178D01*
X130697588Y-89960269D01*
X130871641Y-89726920D01*
X130996825Y-89464099D01*
X131041476Y-89316890D01*
X130920155Y-89087000D01*
X129727000Y-89087000D01*
X129727000Y-89107000D01*
X129473000Y-89107000D01*
X129473000Y-89087000D01*
X128279845Y-89087000D01*
X128158524Y-89316890D01*
X128203175Y-89464099D01*
X128328359Y-89726920D01*
X128502412Y-89960269D01*
X128718645Y-90155178D01*
X128835534Y-90224805D01*
X128653368Y-90346525D01*
X128446525Y-90553368D01*
X128284010Y-90796589D01*
X128172068Y-91066842D01*
X128115000Y-91353740D01*
X128115000Y-91646260D01*
X128172068Y-91933158D01*
X128284010Y-92203411D01*
X128446525Y-92446632D01*
X128653368Y-92653475D01*
X128827760Y-92770000D01*
X128653368Y-92886525D01*
X128446525Y-93093368D01*
X128284010Y-93336589D01*
X128172068Y-93606842D01*
X128115000Y-93893740D01*
X128115000Y-94186260D01*
X128172068Y-94473158D01*
X128284010Y-94743411D01*
X128446525Y-94986632D01*
X128653368Y-95193475D01*
X128827760Y-95310000D01*
X128653368Y-95426525D01*
X128446525Y-95633368D01*
X128284010Y-95876589D01*
X128172068Y-96146842D01*
X128115000Y-96433740D01*
X128115000Y-96726260D01*
X128172068Y-97013158D01*
X128284010Y-97283411D01*
X128446525Y-97526632D01*
X128653368Y-97733475D01*
X128655650Y-97735000D01*
X127832686Y-97735000D01*
X126906000Y-96808315D01*
X126906000Y-83223685D01*
X127404686Y-82725000D01*
X128655650Y-82725000D01*
X128653368Y-82726525D01*
X128446525Y-82933368D01*
X128284010Y-83176589D01*
X128172068Y-83446842D01*
X128115000Y-83733740D01*
X128115000Y-84026260D01*
X128172068Y-84313158D01*
X128284010Y-84583411D01*
X128446525Y-84826632D01*
X128653368Y-85033475D01*
X128827760Y-85150000D01*
X128653368Y-85266525D01*
X128446525Y-85473368D01*
X128284010Y-85716589D01*
X128172068Y-85986842D01*
X128115000Y-86273740D01*
X128115000Y-86566260D01*
X128172068Y-86853158D01*
X128284010Y-87123411D01*
X128446525Y-87366632D01*
X128653368Y-87573475D01*
X128835534Y-87695195D01*
X128718645Y-87764822D01*
X128502412Y-87959731D01*
X128328359Y-88193080D01*
X128203175Y-88455901D01*
X128158524Y-88603110D01*
X128279845Y-88833000D01*
X129473000Y-88833000D01*
X129473000Y-88813000D01*
X129727000Y-88813000D01*
X129727000Y-88833000D01*
X130920155Y-88833000D01*
X131041476Y-88603110D01*
X130996825Y-88455901D01*
X130871641Y-88193080D01*
X130697588Y-87959731D01*
X130481355Y-87764822D01*
X130364466Y-87695195D01*
X130546632Y-87573475D01*
X130753475Y-87366632D01*
X130794656Y-87305000D01*
X134639422Y-87305000D01*
X144956001Y-97621580D01*
X144956000Y-113337531D01*
X144951719Y-113381000D01*
X144956000Y-113424469D01*
X144956000Y-113424476D01*
X144968805Y-113554489D01*
X145019411Y-113721312D01*
X145101589Y-113875058D01*
X145212183Y-114009817D01*
X145245956Y-114037534D01*
X148811983Y-117603561D01*
X148805000Y-117638665D01*
X148805000Y-117921335D01*
X148860147Y-118198574D01*
X148968320Y-118459727D01*
X149125363Y-118694759D01*
X149325241Y-118894637D01*
X149557759Y-119050000D01*
X149325241Y-119205363D01*
X149125363Y-119405241D01*
X148968320Y-119640273D01*
X148860147Y-119901426D01*
X148805000Y-120178665D01*
X148805000Y-120461335D01*
X148860147Y-120738574D01*
X148968320Y-120999727D01*
X149125363Y-121234759D01*
X149325241Y-121434637D01*
X149557759Y-121590000D01*
X149325241Y-121745363D01*
X149125363Y-121945241D01*
X148968320Y-122180273D01*
X148860147Y-122441426D01*
X148805000Y-122718665D01*
X148805000Y-123001335D01*
X148860147Y-123278574D01*
X148968320Y-123539727D01*
X149125363Y-123774759D01*
X149325241Y-123974637D01*
X149557759Y-124130000D01*
X149325241Y-124285363D01*
X149125363Y-124485241D01*
X148968320Y-124720273D01*
X148860147Y-124981426D01*
X148805000Y-125258665D01*
X148805000Y-125541335D01*
X148860147Y-125818574D01*
X148968320Y-126079727D01*
X149125363Y-126314759D01*
X149325241Y-126514637D01*
X149557759Y-126670000D01*
X149325241Y-126825363D01*
X149125363Y-127025241D01*
X148968320Y-127260273D01*
X148860147Y-127521426D01*
X148805000Y-127798665D01*
X148805000Y-128081335D01*
X148860147Y-128358574D01*
X148968320Y-128619727D01*
X149125363Y-128854759D01*
X149325241Y-129054637D01*
X149557759Y-129210000D01*
X149325241Y-129365363D01*
X149125363Y-129565241D01*
X148968320Y-129800273D01*
X148860147Y-130061426D01*
X148805000Y-130338665D01*
X148805000Y-130621335D01*
X148860147Y-130898574D01*
X148968320Y-131159727D01*
X149125363Y-131394759D01*
X149325241Y-131594637D01*
X149557759Y-131750000D01*
X149325241Y-131905363D01*
X149125363Y-132105241D01*
X148968320Y-132340273D01*
X148860147Y-132601426D01*
X148805000Y-132878665D01*
X148805000Y-133161335D01*
X148860147Y-133438574D01*
X148968320Y-133699727D01*
X149125363Y-133934759D01*
X149325241Y-134134637D01*
X149557759Y-134290000D01*
X149325241Y-134445363D01*
X149125363Y-134645241D01*
X148968320Y-134880273D01*
X148860147Y-135141426D01*
X148805000Y-135418665D01*
X148805000Y-135701335D01*
X148860147Y-135978574D01*
X148968320Y-136239727D01*
X149125363Y-136474759D01*
X149325241Y-136674637D01*
X149560273Y-136831680D01*
X149821426Y-136939853D01*
X150098665Y-136995000D01*
X150381335Y-136995000D01*
X150658574Y-136939853D01*
X150919727Y-136831680D01*
X151154759Y-136674637D01*
X151354637Y-136474759D01*
X151511680Y-136239727D01*
X151619853Y-135978574D01*
X151675000Y-135701335D01*
X151675000Y-135418665D01*
X151619853Y-135141426D01*
X151511680Y-134880273D01*
X151354637Y-134645241D01*
X151154759Y-134445363D01*
X150922241Y-134290000D01*
X151154759Y-134134637D01*
X151354637Y-133934759D01*
X151511680Y-133699727D01*
X151619853Y-133438574D01*
X151675000Y-133161335D01*
X151675000Y-132878665D01*
X151619853Y-132601426D01*
X151511680Y-132340273D01*
X151354637Y-132105241D01*
X151154759Y-131905363D01*
X150922241Y-131750000D01*
X151154759Y-131594637D01*
X151354637Y-131394759D01*
X151511680Y-131159727D01*
X151619853Y-130898574D01*
X151675000Y-130621335D01*
X151675000Y-130338665D01*
X151619853Y-130061426D01*
X151511680Y-129800273D01*
X151354637Y-129565241D01*
X151154759Y-129365363D01*
X150922241Y-129210000D01*
X151154759Y-129054637D01*
X151354637Y-128854759D01*
X151511680Y-128619727D01*
X151619853Y-128358574D01*
X151675000Y-128081335D01*
X151675000Y-127798665D01*
X151619853Y-127521426D01*
X151511680Y-127260273D01*
X151354637Y-127025241D01*
X151154759Y-126825363D01*
X150922241Y-126670000D01*
X151154759Y-126514637D01*
X151354637Y-126314759D01*
X151511680Y-126079727D01*
X151619853Y-125818574D01*
X151675000Y-125541335D01*
X151675000Y-125258665D01*
X151619853Y-124981426D01*
X151511680Y-124720273D01*
X151354637Y-124485241D01*
X151154759Y-124285363D01*
X150922241Y-124130000D01*
X151154759Y-123974637D01*
X151354637Y-123774759D01*
X151511680Y-123539727D01*
X151619853Y-123278574D01*
X151675000Y-123001335D01*
X151675000Y-122718665D01*
X151619853Y-122441426D01*
X151511680Y-122180273D01*
X151354637Y-121945241D01*
X151154759Y-121745363D01*
X150922241Y-121590000D01*
X151154759Y-121434637D01*
X151354637Y-121234759D01*
X151511680Y-120999727D01*
X151619853Y-120738574D01*
X151675000Y-120461335D01*
X151675000Y-120178665D01*
X151619853Y-119901426D01*
X151511680Y-119640273D01*
X151354637Y-119405241D01*
X151154759Y-119205363D01*
X150922241Y-119050000D01*
X151154759Y-118894637D01*
X151354637Y-118694759D01*
X151511680Y-118459727D01*
X151619853Y-118198574D01*
X151675000Y-117921335D01*
X151675000Y-117638665D01*
X151619853Y-117361426D01*
X151511680Y-117100273D01*
X151354637Y-116865241D01*
X151154759Y-116665363D01*
X150922241Y-116510000D01*
X151154759Y-116354637D01*
X151354637Y-116154759D01*
X151511680Y-115919727D01*
X151619853Y-115658574D01*
X151675000Y-115381335D01*
X151675000Y-115098665D01*
X151619853Y-114821426D01*
X151511680Y-114560273D01*
X151354637Y-114325241D01*
X151193396Y-114164000D01*
X152409928Y-114164000D01*
X152422188Y-114288482D01*
X152458498Y-114408180D01*
X152517463Y-114518494D01*
X152596815Y-114615185D01*
X152693506Y-114694537D01*
X152803820Y-114753502D01*
X152923518Y-114789812D01*
X153048000Y-114802072D01*
X153937250Y-114799000D01*
X154096000Y-114640250D01*
X154096000Y-112906000D01*
X154350000Y-112906000D01*
X154350000Y-114640250D01*
X154508750Y-114799000D01*
X155398000Y-114802072D01*
X155522482Y-114789812D01*
X155642180Y-114753502D01*
X155752494Y-114694537D01*
X155849185Y-114615185D01*
X155928537Y-114518494D01*
X155987502Y-114408180D01*
X156023812Y-114288482D01*
X156036072Y-114164000D01*
X156033000Y-113064750D01*
X155874250Y-112906000D01*
X154350000Y-112906000D01*
X154096000Y-112906000D01*
X152571750Y-112906000D01*
X152413000Y-113064750D01*
X152409928Y-114164000D01*
X151193396Y-114164000D01*
X151154759Y-114125363D01*
X150922241Y-113970000D01*
X151154759Y-113814637D01*
X151354637Y-113614759D01*
X151511680Y-113379727D01*
X151619853Y-113118574D01*
X151675000Y-112841335D01*
X151675000Y-112558665D01*
X151619853Y-112281426D01*
X151511680Y-112020273D01*
X151354637Y-111785241D01*
X151154759Y-111585363D01*
X150922241Y-111430000D01*
X150976119Y-111394000D01*
X152409928Y-111394000D01*
X152413000Y-112493250D01*
X152571750Y-112652000D01*
X154096000Y-112652000D01*
X154096000Y-110917750D01*
X154350000Y-110917750D01*
X154350000Y-112652000D01*
X155874250Y-112652000D01*
X156033000Y-112493250D01*
X156036072Y-111394000D01*
X156023812Y-111269518D01*
X155987502Y-111149820D01*
X155928537Y-111039506D01*
X155849185Y-110942815D01*
X155752494Y-110863463D01*
X155642180Y-110804498D01*
X155522482Y-110768188D01*
X155398000Y-110755928D01*
X154508750Y-110759000D01*
X154350000Y-110917750D01*
X154096000Y-110917750D01*
X153937250Y-110759000D01*
X153048000Y-110755928D01*
X152923518Y-110768188D01*
X152803820Y-110804498D01*
X152693506Y-110863463D01*
X152596815Y-110942815D01*
X152517463Y-111039506D01*
X152458498Y-111149820D01*
X152422188Y-111269518D01*
X152409928Y-111394000D01*
X150976119Y-111394000D01*
X151154759Y-111274637D01*
X151354637Y-111074759D01*
X151511680Y-110839727D01*
X151619853Y-110578574D01*
X151675000Y-110301335D01*
X151675000Y-110018665D01*
X151619853Y-109741426D01*
X151511680Y-109480273D01*
X151354637Y-109245241D01*
X151154759Y-109045363D01*
X151122787Y-109024000D01*
X152409928Y-109024000D01*
X152422188Y-109148482D01*
X152458498Y-109268180D01*
X152517463Y-109378494D01*
X152596815Y-109475185D01*
X152693506Y-109554537D01*
X152803820Y-109613502D01*
X152923518Y-109649812D01*
X153048000Y-109662072D01*
X155398000Y-109662072D01*
X155522482Y-109649812D01*
X155642180Y-109613502D01*
X155752494Y-109554537D01*
X155849185Y-109475185D01*
X155928537Y-109378494D01*
X155987502Y-109268180D01*
X156023812Y-109148482D01*
X156036072Y-109024000D01*
X156036072Y-106254000D01*
X156023812Y-106129518D01*
X155987502Y-106009820D01*
X155928537Y-105899506D01*
X155849185Y-105802815D01*
X155752494Y-105723463D01*
X155642180Y-105664498D01*
X155522482Y-105628188D01*
X155398000Y-105615928D01*
X153048000Y-105615928D01*
X152923518Y-105628188D01*
X152803820Y-105664498D01*
X152693506Y-105723463D01*
X152596815Y-105802815D01*
X152517463Y-105899506D01*
X152458498Y-106009820D01*
X152422188Y-106129518D01*
X152409928Y-106254000D01*
X151065916Y-106254000D01*
X151154759Y-106194637D01*
X151354637Y-105994759D01*
X151511680Y-105759727D01*
X151619853Y-105498574D01*
X151675000Y-105221335D01*
X151675000Y-104938665D01*
X151619853Y-104661426D01*
X151511680Y-104400273D01*
X151354637Y-104165241D01*
X151154759Y-103965363D01*
X150919727Y-103808320D01*
X150909135Y-103803933D01*
X151095131Y-103692385D01*
X151303519Y-103503414D01*
X151471037Y-103277420D01*
X151591246Y-103023087D01*
X151631904Y-102889039D01*
X151509915Y-102667000D01*
X150367000Y-102667000D01*
X150367000Y-102687000D01*
X150113000Y-102687000D01*
X150113000Y-102667000D01*
X148970085Y-102667000D01*
X148848096Y-102889039D01*
X148888754Y-103023087D01*
X149008963Y-103277420D01*
X149176481Y-103503414D01*
X149384869Y-103692385D01*
X149570865Y-103803933D01*
X149560273Y-103808320D01*
X149325241Y-103965363D01*
X149125363Y-104165241D01*
X148968320Y-104400273D01*
X148860147Y-104661426D01*
X148805000Y-104938665D01*
X148805000Y-105221335D01*
X148860147Y-105498574D01*
X148968320Y-105759727D01*
X149125363Y-105994759D01*
X149325241Y-106194637D01*
X149557759Y-106350000D01*
X149325241Y-106505363D01*
X149125363Y-106705241D01*
X148968320Y-106940273D01*
X148860147Y-107201426D01*
X148805000Y-107478665D01*
X148805000Y-107761335D01*
X148860147Y-108038574D01*
X148968320Y-108299727D01*
X149125363Y-108534759D01*
X149325241Y-108734637D01*
X149557759Y-108890000D01*
X149325241Y-109045363D01*
X149125363Y-109245241D01*
X148968320Y-109480273D01*
X148860147Y-109741426D01*
X148805000Y-110018665D01*
X148805000Y-110301335D01*
X148860147Y-110578574D01*
X148968320Y-110839727D01*
X149125363Y-111074759D01*
X149325241Y-111274637D01*
X149557759Y-111430000D01*
X149325241Y-111585363D01*
X149125363Y-111785241D01*
X148968320Y-112020273D01*
X148860147Y-112281426D01*
X148805870Y-112554292D01*
X148377000Y-112125422D01*
X148377000Y-96536469D01*
X148381281Y-96493000D01*
X148377000Y-96449531D01*
X148377000Y-96449523D01*
X148364195Y-96319510D01*
X148335478Y-96224844D01*
X148313589Y-96152686D01*
X148231411Y-95998941D01*
X148148532Y-95897953D01*
X148148530Y-95897951D01*
X148120817Y-95864183D01*
X148087049Y-95836470D01*
X135535534Y-83284956D01*
X135507817Y-83251183D01*
X135373059Y-83140589D01*
X135219313Y-83058411D01*
X135052490Y-83007805D01*
X134922477Y-82995000D01*
X134922469Y-82995000D01*
X134879000Y-82990719D01*
X134835531Y-82995000D01*
X130794656Y-82995000D01*
X130753475Y-82933368D01*
X130546632Y-82726525D01*
X130544350Y-82725000D01*
X136591315Y-82725000D01*
X148855001Y-94988687D01*
X148855000Y-99607301D01*
X148805000Y-99858665D01*
X148805000Y-100141335D01*
X148860147Y-100418574D01*
X148968320Y-100679727D01*
X149125363Y-100914759D01*
X149325241Y-101114637D01*
X149560273Y-101271680D01*
X149570865Y-101276067D01*
X149384869Y-101387615D01*
X149176481Y-101576586D01*
X149008963Y-101802580D01*
X148888754Y-102056913D01*
X148848096Y-102190961D01*
X148970085Y-102413000D01*
X150113000Y-102413000D01*
X150113000Y-102393000D01*
X150367000Y-102393000D01*
X150367000Y-102413000D01*
X151509915Y-102413000D01*
X151631904Y-102190961D01*
X151591246Y-102056913D01*
X151471037Y-101802580D01*
X151303519Y-101576586D01*
X151095131Y-101387615D01*
X151010735Y-101337000D01*
X152409928Y-101337000D01*
X152422188Y-101461482D01*
X152458498Y-101581180D01*
X152517463Y-101691494D01*
X152596815Y-101788185D01*
X152693506Y-101867537D01*
X152803820Y-101926502D01*
X152923518Y-101962812D01*
X153048000Y-101975072D01*
X155398000Y-101975072D01*
X155522482Y-101962812D01*
X155642180Y-101926502D01*
X155752494Y-101867537D01*
X155849185Y-101788185D01*
X155928537Y-101691494D01*
X155987502Y-101581180D01*
X156023812Y-101461482D01*
X156036072Y-101337000D01*
X156092315Y-101337000D01*
X160573000Y-105817685D01*
X160573000Y-138403000D01*
X125210677Y-138403000D01*
X124765870Y-138083374D01*
X124229223Y-137529597D01*
X123997000Y-137184012D01*
X123997000Y-134461682D01*
X124165000Y-134461682D01*
X124165000Y-135138318D01*
X124297006Y-135801952D01*
X124555943Y-136427082D01*
X124931862Y-136989685D01*
X125410315Y-137468138D01*
X125972918Y-137844057D01*
X126598048Y-138102994D01*
X127261682Y-138235000D01*
X127938318Y-138235000D01*
X128601952Y-138102994D01*
X129227082Y-137844057D01*
X129789685Y-137468138D01*
X130268138Y-136989685D01*
X130644057Y-136427082D01*
X130902994Y-135801952D01*
X131035000Y-135138318D01*
X131035000Y-134461682D01*
X130902994Y-133798048D01*
X130644057Y-133172918D01*
X130268138Y-132610315D01*
X129789685Y-132131862D01*
X129227082Y-131755943D01*
X128601952Y-131497006D01*
X127938318Y-131365000D01*
X127261682Y-131365000D01*
X126598048Y-131497006D01*
X125972918Y-131755943D01*
X125410315Y-132131862D01*
X124931862Y-132610315D01*
X124555943Y-133172918D01*
X124297006Y-133798048D01*
X124165000Y-134461682D01*
X123997000Y-134461682D01*
X123997000Y-102016890D01*
X128158524Y-102016890D01*
X128203175Y-102164099D01*
X128328359Y-102426920D01*
X128502412Y-102660269D01*
X128718645Y-102855178D01*
X128968748Y-103004157D01*
X129243109Y-103101481D01*
X129473000Y-102980814D01*
X129473000Y-101787000D01*
X128279845Y-101787000D01*
X128158524Y-102016890D01*
X123997000Y-102016890D01*
X123997000Y-77950000D01*
X128111928Y-77950000D01*
X128115000Y-78514250D01*
X128273750Y-78673000D01*
X129473000Y-78673000D01*
X129473000Y-77473750D01*
X129727000Y-77473750D01*
X129727000Y-78673000D01*
X130926250Y-78673000D01*
X131085000Y-78514250D01*
X131088072Y-77950000D01*
X131075812Y-77825518D01*
X131039502Y-77705820D01*
X130980537Y-77595506D01*
X130901185Y-77498815D01*
X130804494Y-77419463D01*
X130694180Y-77360498D01*
X130574482Y-77324188D01*
X130450000Y-77311928D01*
X129885750Y-77315000D01*
X129727000Y-77473750D01*
X129473000Y-77473750D01*
X129314250Y-77315000D01*
X128750000Y-77311928D01*
X128625518Y-77324188D01*
X128505820Y-77360498D01*
X128395506Y-77419463D01*
X128298815Y-77498815D01*
X128219463Y-77595506D01*
X128160498Y-77705820D01*
X128124188Y-77825518D01*
X128111928Y-77950000D01*
X123997000Y-77950000D01*
X123997000Y-44461682D01*
X124165000Y-44461682D01*
X124165000Y-45138318D01*
X124297006Y-45801952D01*
X124555943Y-46427082D01*
X124931862Y-46989685D01*
X125410315Y-47468138D01*
X125972918Y-47844057D01*
X126598048Y-48102994D01*
X127261682Y-48235000D01*
X127938318Y-48235000D01*
X128601952Y-48102994D01*
X129227082Y-47844057D01*
X129789685Y-47468138D01*
X130268138Y-46989685D01*
X130644057Y-46427082D01*
X130902994Y-45801952D01*
X131035000Y-45138318D01*
X131035000Y-44461682D01*
X130902994Y-43798048D01*
X130644057Y-43172918D01*
X130268138Y-42610315D01*
X129789685Y-42131862D01*
X129227082Y-41755943D01*
X128601952Y-41497006D01*
X127938318Y-41365000D01*
X127261682Y-41365000D01*
X126598048Y-41497006D01*
X125972918Y-41755943D01*
X125410315Y-42131862D01*
X124931862Y-42610315D01*
X124555943Y-43172918D01*
X124297006Y-43798048D01*
X124165000Y-44461682D01*
X123997000Y-44461682D01*
X123997000Y-42410677D01*
X124316626Y-41965870D01*
X124870403Y-41429223D01*
X125510451Y-40999129D01*
X125811448Y-40867000D01*
X160573000Y-40867000D01*
X160573000Y-101900315D01*
G37*
%TD.AperFunction*%
%TD*%
D21*
%TO.N,/PWR*%
X189807905Y-41066638D02*
X190434130Y-41516626D01*
X190970777Y-42070403D01*
X191053000Y-42192764D01*
X191053000Y-58339314D01*
X188778454Y-56064769D01*
X188735081Y-56011919D01*
X188524188Y-55838843D01*
X188283581Y-55710236D01*
X188022507Y-55631040D01*
X187819037Y-55611000D01*
X187819029Y-55611000D01*
X187751000Y-55604300D01*
X187682971Y-55611000D01*
X185560610Y-55611000D01*
X185608609Y-55563001D01*
X185493068Y-55447460D01*
X185762579Y-55345661D01*
X185908463Y-55047523D01*
X185993380Y-54726654D01*
X186014066Y-54395383D01*
X185969728Y-54066443D01*
X185862069Y-53752473D01*
X185762579Y-53566339D01*
X185664918Y-53529451D01*
X185726494Y-53496537D01*
X185823185Y-53417185D01*
X185902537Y-53320494D01*
X185961502Y-53210180D01*
X185997812Y-53090482D01*
X186010072Y-52966000D01*
X186010072Y-50866000D01*
X185997812Y-50741518D01*
X185961502Y-50621820D01*
X185902537Y-50511506D01*
X185823185Y-50414815D01*
X185726494Y-50335463D01*
X185616180Y-50276498D01*
X185496482Y-50240188D01*
X185372000Y-50227928D01*
X183272000Y-50227928D01*
X183147518Y-50240188D01*
X183027820Y-50276498D01*
X182917506Y-50335463D01*
X182820815Y-50414815D01*
X182741463Y-50511506D01*
X182682498Y-50621820D01*
X182646188Y-50741518D01*
X182633928Y-50866000D01*
X182633928Y-51031000D01*
X175462454Y-51031000D01*
X175414256Y-50998795D01*
X175225898Y-50920774D01*
X175025939Y-50881000D01*
X174822061Y-50881000D01*
X174622102Y-50920774D01*
X174433744Y-50998795D01*
X174264226Y-51112063D01*
X174120063Y-51256226D01*
X174006795Y-51425744D01*
X173928774Y-51614102D01*
X173889000Y-51814061D01*
X173889000Y-52017939D01*
X173928774Y-52217898D01*
X174006795Y-52406256D01*
X174120063Y-52575774D01*
X174264226Y-52719937D01*
X174433744Y-52833205D01*
X174622102Y-52911226D01*
X174822061Y-52951000D01*
X175025939Y-52951000D01*
X175225898Y-52911226D01*
X175414256Y-52833205D01*
X175462454Y-52801000D01*
X182633928Y-52801000D01*
X182633928Y-52966000D01*
X182646188Y-53090482D01*
X182682498Y-53210180D01*
X182741463Y-53320494D01*
X182820815Y-53417185D01*
X182917506Y-53496537D01*
X182979082Y-53529451D01*
X182881421Y-53566339D01*
X182735537Y-53864477D01*
X182650620Y-54185346D01*
X182629934Y-54516617D01*
X182674272Y-54845557D01*
X182781931Y-55159527D01*
X182881421Y-55345661D01*
X183150934Y-55447461D01*
X184142395Y-54456000D01*
X184128253Y-54441858D01*
X184307858Y-54262253D01*
X184322000Y-54276395D01*
X184336143Y-54262253D01*
X184515748Y-54441858D01*
X184501605Y-54456000D01*
X184515748Y-54470143D01*
X184336143Y-54649748D01*
X184322000Y-54635605D01*
X183330539Y-55627066D01*
X183332009Y-55630958D01*
X183247875Y-55687175D01*
X183013175Y-55921875D01*
X182828772Y-56197853D01*
X182701754Y-56504504D01*
X182637000Y-56830042D01*
X182637000Y-57161958D01*
X182701754Y-57487496D01*
X182828772Y-57794147D01*
X183013175Y-58070125D01*
X183247875Y-58304825D01*
X183523853Y-58489228D01*
X183830504Y-58616246D01*
X184156042Y-58681000D01*
X184487958Y-58681000D01*
X184813496Y-58616246D01*
X185120147Y-58489228D01*
X185282121Y-58381000D01*
X187177315Y-58381000D01*
X189287001Y-60490687D01*
X189287000Y-70289315D01*
X187127454Y-68129769D01*
X187084081Y-68076919D01*
X186873188Y-67903843D01*
X186632581Y-67775236D01*
X186371507Y-67696040D01*
X186168037Y-67676000D01*
X186168029Y-67676000D01*
X186100000Y-67669300D01*
X186031971Y-67676000D01*
X185560610Y-67676000D01*
X185608609Y-67628001D01*
X185493068Y-67512460D01*
X185762579Y-67410661D01*
X185908463Y-67112523D01*
X185993380Y-66791654D01*
X186014066Y-66460383D01*
X185969728Y-66131443D01*
X185862069Y-65817473D01*
X185762579Y-65631339D01*
X185664918Y-65594451D01*
X185726494Y-65561537D01*
X185823185Y-65482185D01*
X185902537Y-65385494D01*
X185961502Y-65275180D01*
X185997812Y-65155482D01*
X186010072Y-65031000D01*
X186010072Y-62931000D01*
X185997812Y-62806518D01*
X185961502Y-62686820D01*
X185902537Y-62576506D01*
X185823185Y-62479815D01*
X185726494Y-62400463D01*
X185616180Y-62341498D01*
X185496482Y-62305188D01*
X185372000Y-62292928D01*
X183272000Y-62292928D01*
X183147518Y-62305188D01*
X183027820Y-62341498D01*
X182917506Y-62400463D01*
X182820815Y-62479815D01*
X182741463Y-62576506D01*
X182682498Y-62686820D01*
X182646188Y-62806518D01*
X182633928Y-62931000D01*
X182633928Y-63096000D01*
X175462454Y-63096000D01*
X175414256Y-63063795D01*
X175225898Y-62985774D01*
X175025939Y-62946000D01*
X174822061Y-62946000D01*
X174622102Y-62985774D01*
X174433744Y-63063795D01*
X174264226Y-63177063D01*
X174120063Y-63321226D01*
X174006795Y-63490744D01*
X173928774Y-63679102D01*
X173889000Y-63879061D01*
X173889000Y-64082939D01*
X173928774Y-64282898D01*
X174006795Y-64471256D01*
X174120063Y-64640774D01*
X174264226Y-64784937D01*
X174433744Y-64898205D01*
X174622102Y-64976226D01*
X174822061Y-65016000D01*
X175025939Y-65016000D01*
X175225898Y-64976226D01*
X175414256Y-64898205D01*
X175462454Y-64866000D01*
X182633928Y-64866000D01*
X182633928Y-65031000D01*
X182646188Y-65155482D01*
X182682498Y-65275180D01*
X182741463Y-65385494D01*
X182820815Y-65482185D01*
X182917506Y-65561537D01*
X182979082Y-65594451D01*
X182881421Y-65631339D01*
X182735537Y-65929477D01*
X182650620Y-66250346D01*
X182629934Y-66581617D01*
X182674272Y-66910557D01*
X182781931Y-67224527D01*
X182881421Y-67410661D01*
X183150934Y-67512461D01*
X184142395Y-66521000D01*
X184128253Y-66506858D01*
X184307858Y-66327253D01*
X184322000Y-66341395D01*
X184336143Y-66327253D01*
X184515748Y-66506858D01*
X184501605Y-66521000D01*
X184515748Y-66535143D01*
X184336143Y-66714748D01*
X184322000Y-66700605D01*
X183330539Y-67692066D01*
X183332009Y-67695958D01*
X183247875Y-67752175D01*
X183013175Y-67986875D01*
X182828772Y-68262853D01*
X182701754Y-68569504D01*
X182637000Y-68895042D01*
X182637000Y-69226958D01*
X182701754Y-69552496D01*
X182828772Y-69859147D01*
X183013175Y-70135125D01*
X183247875Y-70369825D01*
X183523853Y-70554228D01*
X183830504Y-70681246D01*
X184156042Y-70746000D01*
X184487958Y-70746000D01*
X184813496Y-70681246D01*
X185120147Y-70554228D01*
X185282121Y-70446000D01*
X185526315Y-70446000D01*
X189287001Y-74206687D01*
X189287000Y-81338315D01*
X188143454Y-80194769D01*
X188100081Y-80141919D01*
X187889188Y-79968843D01*
X187648581Y-79840236D01*
X187387507Y-79761040D01*
X187184037Y-79741000D01*
X187184029Y-79741000D01*
X187116000Y-79734300D01*
X187047971Y-79741000D01*
X185549950Y-79741000D01*
X185630825Y-79660125D01*
X185815228Y-79384147D01*
X185942246Y-79077496D01*
X186007000Y-78751958D01*
X186007000Y-78420042D01*
X185942246Y-78094504D01*
X185815228Y-77787853D01*
X185712454Y-77634042D01*
X185726494Y-77626537D01*
X185823185Y-77547185D01*
X185902537Y-77450494D01*
X185961502Y-77340180D01*
X185997812Y-77220482D01*
X186010072Y-77096000D01*
X186010072Y-74996000D01*
X185997812Y-74871518D01*
X185961502Y-74751820D01*
X185902537Y-74641506D01*
X185823185Y-74544815D01*
X185726494Y-74465463D01*
X185616180Y-74406498D01*
X185496482Y-74370188D01*
X185372000Y-74357928D01*
X183272000Y-74357928D01*
X183147518Y-74370188D01*
X183027820Y-74406498D01*
X182917506Y-74465463D01*
X182820815Y-74544815D01*
X182741463Y-74641506D01*
X182682498Y-74751820D01*
X182646188Y-74871518D01*
X182633928Y-74996000D01*
X182633928Y-75161000D01*
X175462454Y-75161000D01*
X175414256Y-75128795D01*
X175225898Y-75050774D01*
X175025939Y-75011000D01*
X174822061Y-75011000D01*
X174622102Y-75050774D01*
X174433744Y-75128795D01*
X174264226Y-75242063D01*
X174120063Y-75386226D01*
X174006795Y-75555744D01*
X173928774Y-75744102D01*
X173889000Y-75944061D01*
X173889000Y-76147939D01*
X173928774Y-76347898D01*
X174006795Y-76536256D01*
X174120063Y-76705774D01*
X174264226Y-76849937D01*
X174433744Y-76963205D01*
X174622102Y-77041226D01*
X174822061Y-77081000D01*
X175025939Y-77081000D01*
X175225898Y-77041226D01*
X175414256Y-76963205D01*
X175462454Y-76931000D01*
X182633928Y-76931000D01*
X182633928Y-77096000D01*
X182646188Y-77220482D01*
X182682498Y-77340180D01*
X182741463Y-77450494D01*
X182820815Y-77547185D01*
X182917506Y-77626537D01*
X182931546Y-77634042D01*
X182828772Y-77787853D01*
X182701754Y-78094504D01*
X182637000Y-78420042D01*
X182637000Y-78751958D01*
X182701754Y-79077496D01*
X182828772Y-79384147D01*
X183013175Y-79660125D01*
X183209050Y-79856000D01*
X183013175Y-80051875D01*
X182828772Y-80327853D01*
X182701754Y-80634504D01*
X182637000Y-80960042D01*
X182637000Y-81291958D01*
X182701754Y-81617496D01*
X182828772Y-81924147D01*
X183013175Y-82200125D01*
X183247875Y-82434825D01*
X183523853Y-82619228D01*
X183830504Y-82746246D01*
X184156042Y-82811000D01*
X184487958Y-82811000D01*
X184813496Y-82746246D01*
X185120147Y-82619228D01*
X185282121Y-82511000D01*
X186542315Y-82511000D01*
X189287001Y-85255687D01*
X189287000Y-94927315D01*
X186619454Y-92259769D01*
X186576081Y-92206919D01*
X186365188Y-92033843D01*
X186124581Y-91905236D01*
X185863507Y-91826040D01*
X185660037Y-91806000D01*
X185660029Y-91806000D01*
X185592000Y-91799300D01*
X185564613Y-91801997D01*
X185608609Y-91758001D01*
X185493068Y-91642460D01*
X185762579Y-91540661D01*
X185908463Y-91242523D01*
X185993380Y-90921654D01*
X186014066Y-90590383D01*
X185969728Y-90261443D01*
X185862069Y-89947473D01*
X185762579Y-89761339D01*
X185664918Y-89724451D01*
X185726494Y-89691537D01*
X185823185Y-89612185D01*
X185902537Y-89515494D01*
X185961502Y-89405180D01*
X185997812Y-89285482D01*
X186010072Y-89161000D01*
X186010072Y-87061000D01*
X185997812Y-86936518D01*
X185961502Y-86816820D01*
X185902537Y-86706506D01*
X185823185Y-86609815D01*
X185726494Y-86530463D01*
X185616180Y-86471498D01*
X185496482Y-86435188D01*
X185372000Y-86422928D01*
X183272000Y-86422928D01*
X183147518Y-86435188D01*
X183027820Y-86471498D01*
X182917506Y-86530463D01*
X182820815Y-86609815D01*
X182741463Y-86706506D01*
X182682498Y-86816820D01*
X182646188Y-86936518D01*
X182633928Y-87061000D01*
X182633928Y-87226000D01*
X175462454Y-87226000D01*
X175414256Y-87193795D01*
X175225898Y-87115774D01*
X175025939Y-87076000D01*
X174822061Y-87076000D01*
X174622102Y-87115774D01*
X174433744Y-87193795D01*
X174264226Y-87307063D01*
X174120063Y-87451226D01*
X174006795Y-87620744D01*
X173928774Y-87809102D01*
X173889000Y-88009061D01*
X173889000Y-88212939D01*
X173928774Y-88412898D01*
X174006795Y-88601256D01*
X174120063Y-88770774D01*
X174264226Y-88914937D01*
X174433744Y-89028205D01*
X174622102Y-89106226D01*
X174822061Y-89146000D01*
X175025939Y-89146000D01*
X175225898Y-89106226D01*
X175414256Y-89028205D01*
X175462454Y-88996000D01*
X182633928Y-88996000D01*
X182633928Y-89161000D01*
X182646188Y-89285482D01*
X182682498Y-89405180D01*
X182741463Y-89515494D01*
X182820815Y-89612185D01*
X182917506Y-89691537D01*
X182979082Y-89724451D01*
X182881421Y-89761339D01*
X182735537Y-90059477D01*
X182650620Y-90380346D01*
X182629934Y-90711617D01*
X182674272Y-91040557D01*
X182781931Y-91354527D01*
X182881421Y-91540661D01*
X183150934Y-91642461D01*
X184142395Y-90651000D01*
X184128253Y-90636858D01*
X184307858Y-90457253D01*
X184322000Y-90471395D01*
X184336143Y-90457253D01*
X184515748Y-90636858D01*
X184501605Y-90651000D01*
X184515748Y-90665143D01*
X184336143Y-90844748D01*
X184322000Y-90830605D01*
X183330539Y-91822066D01*
X183332009Y-91825958D01*
X183247875Y-91882175D01*
X183013175Y-92116875D01*
X182828772Y-92392853D01*
X182701754Y-92699504D01*
X182637000Y-93025042D01*
X182637000Y-93356958D01*
X182701754Y-93682496D01*
X182828772Y-93989147D01*
X183013175Y-94265125D01*
X183247875Y-94499825D01*
X183523853Y-94684228D01*
X183830504Y-94811246D01*
X184156042Y-94876000D01*
X184487958Y-94876000D01*
X184813496Y-94811246D01*
X185120147Y-94684228D01*
X185123981Y-94681666D01*
X189287001Y-98844687D01*
X189287000Y-106992315D01*
X186619454Y-104324769D01*
X186576081Y-104271919D01*
X186365188Y-104098843D01*
X186124581Y-103970236D01*
X185863507Y-103891040D01*
X185660037Y-103871000D01*
X185660029Y-103871000D01*
X185592000Y-103864300D01*
X185564613Y-103866997D01*
X185608609Y-103823001D01*
X185493068Y-103707460D01*
X185762579Y-103605661D01*
X185908463Y-103307523D01*
X185993380Y-102986654D01*
X186014066Y-102655383D01*
X185969728Y-102326443D01*
X185862069Y-102012473D01*
X185762579Y-101826339D01*
X185664918Y-101789451D01*
X185726494Y-101756537D01*
X185823185Y-101677185D01*
X185902537Y-101580494D01*
X185961502Y-101470180D01*
X185997812Y-101350482D01*
X186010072Y-101226000D01*
X186010072Y-99126000D01*
X185997812Y-99001518D01*
X185961502Y-98881820D01*
X185902537Y-98771506D01*
X185823185Y-98674815D01*
X185726494Y-98595463D01*
X185616180Y-98536498D01*
X185496482Y-98500188D01*
X185372000Y-98487928D01*
X183272000Y-98487928D01*
X183147518Y-98500188D01*
X183027820Y-98536498D01*
X182917506Y-98595463D01*
X182820815Y-98674815D01*
X182741463Y-98771506D01*
X182682498Y-98881820D01*
X182646188Y-99001518D01*
X182633928Y-99126000D01*
X182633928Y-99291000D01*
X175335454Y-99291000D01*
X175287256Y-99258795D01*
X175098898Y-99180774D01*
X174898939Y-99141000D01*
X174695061Y-99141000D01*
X174495102Y-99180774D01*
X174306744Y-99258795D01*
X174137226Y-99372063D01*
X173993063Y-99516226D01*
X173879795Y-99685744D01*
X173801774Y-99874102D01*
X173762000Y-100074061D01*
X173762000Y-100277939D01*
X173801774Y-100477898D01*
X173879795Y-100666256D01*
X173993063Y-100835774D01*
X174137226Y-100979937D01*
X174306744Y-101093205D01*
X174495102Y-101171226D01*
X174695061Y-101211000D01*
X174898939Y-101211000D01*
X175098898Y-101171226D01*
X175287256Y-101093205D01*
X175335454Y-101061000D01*
X182633928Y-101061000D01*
X182633928Y-101226000D01*
X182646188Y-101350482D01*
X182682498Y-101470180D01*
X182741463Y-101580494D01*
X182820815Y-101677185D01*
X182917506Y-101756537D01*
X182979082Y-101789451D01*
X182881421Y-101826339D01*
X182735537Y-102124477D01*
X182650620Y-102445346D01*
X182629934Y-102776617D01*
X182674272Y-103105557D01*
X182781931Y-103419527D01*
X182881421Y-103605661D01*
X183150934Y-103707461D01*
X184142395Y-102716000D01*
X184128253Y-102701858D01*
X184307858Y-102522253D01*
X184322000Y-102536395D01*
X184336143Y-102522253D01*
X184515748Y-102701858D01*
X184501605Y-102716000D01*
X184515748Y-102730143D01*
X184336143Y-102909748D01*
X184322000Y-102895605D01*
X183330539Y-103887066D01*
X183332009Y-103890958D01*
X183247875Y-103947175D01*
X183013175Y-104181875D01*
X182828772Y-104457853D01*
X182701754Y-104764504D01*
X182637000Y-105090042D01*
X182637000Y-105421958D01*
X182701754Y-105747496D01*
X182828772Y-106054147D01*
X183013175Y-106330125D01*
X183247875Y-106564825D01*
X183523853Y-106749228D01*
X183830504Y-106876246D01*
X184156042Y-106941000D01*
X184487958Y-106941000D01*
X184813496Y-106876246D01*
X185120147Y-106749228D01*
X185123981Y-106746666D01*
X189287001Y-110909687D01*
X189287000Y-120176314D01*
X186034315Y-123429000D01*
X185999731Y-123429000D01*
X186010072Y-123324000D01*
X186010072Y-123305688D01*
X186068081Y-123258081D01*
X186111454Y-123205231D01*
X188809241Y-120507445D01*
X188862080Y-120464081D01*
X188905445Y-120411241D01*
X188905452Y-120411234D01*
X189035157Y-120253188D01*
X189163764Y-120012581D01*
X189242960Y-119751507D01*
X189245812Y-119722548D01*
X189263000Y-119548037D01*
X189263000Y-119548029D01*
X189269700Y-119480000D01*
X189263000Y-119411971D01*
X189263000Y-116627026D01*
X189269700Y-116558999D01*
X189263000Y-116490972D01*
X189263000Y-116490963D01*
X189242960Y-116287493D01*
X189163764Y-116026419D01*
X189035157Y-115785812D01*
X188862081Y-115574919D01*
X188809231Y-115531546D01*
X187381454Y-114103769D01*
X187338081Y-114050919D01*
X187127188Y-113877843D01*
X186886581Y-113749236D01*
X186625507Y-113670040D01*
X186422037Y-113650000D01*
X186422029Y-113650000D01*
X186354000Y-113643300D01*
X186285971Y-113650000D01*
X185728993Y-113650000D01*
X185761502Y-113589180D01*
X185797812Y-113469482D01*
X185810072Y-113345000D01*
X185807000Y-112780750D01*
X185648250Y-112622000D01*
X184449000Y-112622000D01*
X184449000Y-112642000D01*
X184195000Y-112642000D01*
X184195000Y-112622000D01*
X182995750Y-112622000D01*
X182837000Y-112780750D01*
X182833928Y-113345000D01*
X182846188Y-113469482D01*
X182882498Y-113589180D01*
X182941463Y-113699494D01*
X183020815Y-113796185D01*
X183117506Y-113875537D01*
X183227820Y-113934502D01*
X183300380Y-113956513D01*
X183168525Y-114088368D01*
X183006010Y-114331589D01*
X182894068Y-114601842D01*
X182837000Y-114888740D01*
X182837000Y-115181260D01*
X182894068Y-115468158D01*
X183006010Y-115738411D01*
X183168525Y-115981632D01*
X183375368Y-116188475D01*
X183377650Y-116190000D01*
X174862686Y-116190000D01*
X173112858Y-114440172D01*
X173123748Y-111645000D01*
X182833928Y-111645000D01*
X182837000Y-112209250D01*
X182995750Y-112368000D01*
X184195000Y-112368000D01*
X184195000Y-111168750D01*
X184449000Y-111168750D01*
X184449000Y-112368000D01*
X185648250Y-112368000D01*
X185807000Y-112209250D01*
X185810072Y-111645000D01*
X185797812Y-111520518D01*
X185761502Y-111400820D01*
X185702537Y-111290506D01*
X185623185Y-111193815D01*
X185526494Y-111114463D01*
X185416180Y-111055498D01*
X185296482Y-111019188D01*
X185172000Y-111006928D01*
X184607750Y-111010000D01*
X184449000Y-111168750D01*
X184195000Y-111168750D01*
X184036250Y-111010000D01*
X183472000Y-111006928D01*
X183347518Y-111019188D01*
X183227820Y-111055498D01*
X183117506Y-111114463D01*
X183020815Y-111193815D01*
X182941463Y-111290506D01*
X182882498Y-111400820D01*
X182846188Y-111520518D01*
X182833928Y-111645000D01*
X173123748Y-111645000D01*
X173385500Y-44461682D01*
X184165000Y-44461682D01*
X184165000Y-45138318D01*
X184297006Y-45801952D01*
X184555943Y-46427082D01*
X184931862Y-46989685D01*
X185410315Y-47468138D01*
X185972918Y-47844057D01*
X186598048Y-48102994D01*
X187261682Y-48235000D01*
X187938318Y-48235000D01*
X188601952Y-48102994D01*
X189227082Y-47844057D01*
X189789685Y-47468138D01*
X190268138Y-46989685D01*
X190644057Y-46427082D01*
X190902994Y-45801952D01*
X191035000Y-45138318D01*
X191035000Y-44461682D01*
X190902994Y-43798048D01*
X190644057Y-43172918D01*
X190268138Y-42610315D01*
X189789685Y-42131862D01*
X189227082Y-41755943D01*
X188601952Y-41497006D01*
X187938318Y-41365000D01*
X187261682Y-41365000D01*
X186598048Y-41497006D01*
X185972918Y-41755943D01*
X185410315Y-42131862D01*
X184931862Y-42610315D01*
X184555943Y-43172918D01*
X184297006Y-43798048D01*
X184165000Y-44461682D01*
X173385500Y-44461682D01*
X173399506Y-40867000D01*
X189389356Y-40867000D01*
X189807905Y-41066638D01*
%TA.AperFunction,Conductor*%
D22*
G36*
X189807905Y-41066638D02*
G01*
X190434130Y-41516626D01*
X190970777Y-42070403D01*
X191053000Y-42192764D01*
X191053000Y-58339314D01*
X188778454Y-56064769D01*
X188735081Y-56011919D01*
X188524188Y-55838843D01*
X188283581Y-55710236D01*
X188022507Y-55631040D01*
X187819037Y-55611000D01*
X187819029Y-55611000D01*
X187751000Y-55604300D01*
X187682971Y-55611000D01*
X185560610Y-55611000D01*
X185608609Y-55563001D01*
X185493068Y-55447460D01*
X185762579Y-55345661D01*
X185908463Y-55047523D01*
X185993380Y-54726654D01*
X186014066Y-54395383D01*
X185969728Y-54066443D01*
X185862069Y-53752473D01*
X185762579Y-53566339D01*
X185664918Y-53529451D01*
X185726494Y-53496537D01*
X185823185Y-53417185D01*
X185902537Y-53320494D01*
X185961502Y-53210180D01*
X185997812Y-53090482D01*
X186010072Y-52966000D01*
X186010072Y-50866000D01*
X185997812Y-50741518D01*
X185961502Y-50621820D01*
X185902537Y-50511506D01*
X185823185Y-50414815D01*
X185726494Y-50335463D01*
X185616180Y-50276498D01*
X185496482Y-50240188D01*
X185372000Y-50227928D01*
X183272000Y-50227928D01*
X183147518Y-50240188D01*
X183027820Y-50276498D01*
X182917506Y-50335463D01*
X182820815Y-50414815D01*
X182741463Y-50511506D01*
X182682498Y-50621820D01*
X182646188Y-50741518D01*
X182633928Y-50866000D01*
X182633928Y-51031000D01*
X175462454Y-51031000D01*
X175414256Y-50998795D01*
X175225898Y-50920774D01*
X175025939Y-50881000D01*
X174822061Y-50881000D01*
X174622102Y-50920774D01*
X174433744Y-50998795D01*
X174264226Y-51112063D01*
X174120063Y-51256226D01*
X174006795Y-51425744D01*
X173928774Y-51614102D01*
X173889000Y-51814061D01*
X173889000Y-52017939D01*
X173928774Y-52217898D01*
X174006795Y-52406256D01*
X174120063Y-52575774D01*
X174264226Y-52719937D01*
X174433744Y-52833205D01*
X174622102Y-52911226D01*
X174822061Y-52951000D01*
X175025939Y-52951000D01*
X175225898Y-52911226D01*
X175414256Y-52833205D01*
X175462454Y-52801000D01*
X182633928Y-52801000D01*
X182633928Y-52966000D01*
X182646188Y-53090482D01*
X182682498Y-53210180D01*
X182741463Y-53320494D01*
X182820815Y-53417185D01*
X182917506Y-53496537D01*
X182979082Y-53529451D01*
X182881421Y-53566339D01*
X182735537Y-53864477D01*
X182650620Y-54185346D01*
X182629934Y-54516617D01*
X182674272Y-54845557D01*
X182781931Y-55159527D01*
X182881421Y-55345661D01*
X183150934Y-55447461D01*
X184142395Y-54456000D01*
X184128253Y-54441858D01*
X184307858Y-54262253D01*
X184322000Y-54276395D01*
X184336143Y-54262253D01*
X184515748Y-54441858D01*
X184501605Y-54456000D01*
X184515748Y-54470143D01*
X184336143Y-54649748D01*
X184322000Y-54635605D01*
X183330539Y-55627066D01*
X183332009Y-55630958D01*
X183247875Y-55687175D01*
X183013175Y-55921875D01*
X182828772Y-56197853D01*
X182701754Y-56504504D01*
X182637000Y-56830042D01*
X182637000Y-57161958D01*
X182701754Y-57487496D01*
X182828772Y-57794147D01*
X183013175Y-58070125D01*
X183247875Y-58304825D01*
X183523853Y-58489228D01*
X183830504Y-58616246D01*
X184156042Y-58681000D01*
X184487958Y-58681000D01*
X184813496Y-58616246D01*
X185120147Y-58489228D01*
X185282121Y-58381000D01*
X187177315Y-58381000D01*
X189287001Y-60490687D01*
X189287000Y-70289315D01*
X187127454Y-68129769D01*
X187084081Y-68076919D01*
X186873188Y-67903843D01*
X186632581Y-67775236D01*
X186371507Y-67696040D01*
X186168037Y-67676000D01*
X186168029Y-67676000D01*
X186100000Y-67669300D01*
X186031971Y-67676000D01*
X185560610Y-67676000D01*
X185608609Y-67628001D01*
X185493068Y-67512460D01*
X185762579Y-67410661D01*
X185908463Y-67112523D01*
X185993380Y-66791654D01*
X186014066Y-66460383D01*
X185969728Y-66131443D01*
X185862069Y-65817473D01*
X185762579Y-65631339D01*
X185664918Y-65594451D01*
X185726494Y-65561537D01*
X185823185Y-65482185D01*
X185902537Y-65385494D01*
X185961502Y-65275180D01*
X185997812Y-65155482D01*
X186010072Y-65031000D01*
X186010072Y-62931000D01*
X185997812Y-62806518D01*
X185961502Y-62686820D01*
X185902537Y-62576506D01*
X185823185Y-62479815D01*
X185726494Y-62400463D01*
X185616180Y-62341498D01*
X185496482Y-62305188D01*
X185372000Y-62292928D01*
X183272000Y-62292928D01*
X183147518Y-62305188D01*
X183027820Y-62341498D01*
X182917506Y-62400463D01*
X182820815Y-62479815D01*
X182741463Y-62576506D01*
X182682498Y-62686820D01*
X182646188Y-62806518D01*
X182633928Y-62931000D01*
X182633928Y-63096000D01*
X175462454Y-63096000D01*
X175414256Y-63063795D01*
X175225898Y-62985774D01*
X175025939Y-62946000D01*
X174822061Y-62946000D01*
X174622102Y-62985774D01*
X174433744Y-63063795D01*
X174264226Y-63177063D01*
X174120063Y-63321226D01*
X174006795Y-63490744D01*
X173928774Y-63679102D01*
X173889000Y-63879061D01*
X173889000Y-64082939D01*
X173928774Y-64282898D01*
X174006795Y-64471256D01*
X174120063Y-64640774D01*
X174264226Y-64784937D01*
X174433744Y-64898205D01*
X174622102Y-64976226D01*
X174822061Y-65016000D01*
X175025939Y-65016000D01*
X175225898Y-64976226D01*
X175414256Y-64898205D01*
X175462454Y-64866000D01*
X182633928Y-64866000D01*
X182633928Y-65031000D01*
X182646188Y-65155482D01*
X182682498Y-65275180D01*
X182741463Y-65385494D01*
X182820815Y-65482185D01*
X182917506Y-65561537D01*
X182979082Y-65594451D01*
X182881421Y-65631339D01*
X182735537Y-65929477D01*
X182650620Y-66250346D01*
X182629934Y-66581617D01*
X182674272Y-66910557D01*
X182781931Y-67224527D01*
X182881421Y-67410661D01*
X183150934Y-67512461D01*
X184142395Y-66521000D01*
X184128253Y-66506858D01*
X184307858Y-66327253D01*
X184322000Y-66341395D01*
X184336143Y-66327253D01*
X184515748Y-66506858D01*
X184501605Y-66521000D01*
X184515748Y-66535143D01*
X184336143Y-66714748D01*
X184322000Y-66700605D01*
X183330539Y-67692066D01*
X183332009Y-67695958D01*
X183247875Y-67752175D01*
X183013175Y-67986875D01*
X182828772Y-68262853D01*
X182701754Y-68569504D01*
X182637000Y-68895042D01*
X182637000Y-69226958D01*
X182701754Y-69552496D01*
X182828772Y-69859147D01*
X183013175Y-70135125D01*
X183247875Y-70369825D01*
X183523853Y-70554228D01*
X183830504Y-70681246D01*
X184156042Y-70746000D01*
X184487958Y-70746000D01*
X184813496Y-70681246D01*
X185120147Y-70554228D01*
X185282121Y-70446000D01*
X185526315Y-70446000D01*
X189287001Y-74206687D01*
X189287000Y-81338315D01*
X188143454Y-80194769D01*
X188100081Y-80141919D01*
X187889188Y-79968843D01*
X187648581Y-79840236D01*
X187387507Y-79761040D01*
X187184037Y-79741000D01*
X187184029Y-79741000D01*
X187116000Y-79734300D01*
X187047971Y-79741000D01*
X185549950Y-79741000D01*
X185630825Y-79660125D01*
X185815228Y-79384147D01*
X185942246Y-79077496D01*
X186007000Y-78751958D01*
X186007000Y-78420042D01*
X185942246Y-78094504D01*
X185815228Y-77787853D01*
X185712454Y-77634042D01*
X185726494Y-77626537D01*
X185823185Y-77547185D01*
X185902537Y-77450494D01*
X185961502Y-77340180D01*
X185997812Y-77220482D01*
X186010072Y-77096000D01*
X186010072Y-74996000D01*
X185997812Y-74871518D01*
X185961502Y-74751820D01*
X185902537Y-74641506D01*
X185823185Y-74544815D01*
X185726494Y-74465463D01*
X185616180Y-74406498D01*
X185496482Y-74370188D01*
X185372000Y-74357928D01*
X183272000Y-74357928D01*
X183147518Y-74370188D01*
X183027820Y-74406498D01*
X182917506Y-74465463D01*
X182820815Y-74544815D01*
X182741463Y-74641506D01*
X182682498Y-74751820D01*
X182646188Y-74871518D01*
X182633928Y-74996000D01*
X182633928Y-75161000D01*
X175462454Y-75161000D01*
X175414256Y-75128795D01*
X175225898Y-75050774D01*
X175025939Y-75011000D01*
X174822061Y-75011000D01*
X174622102Y-75050774D01*
X174433744Y-75128795D01*
X174264226Y-75242063D01*
X174120063Y-75386226D01*
X174006795Y-75555744D01*
X173928774Y-75744102D01*
X173889000Y-75944061D01*
X173889000Y-76147939D01*
X173928774Y-76347898D01*
X174006795Y-76536256D01*
X174120063Y-76705774D01*
X174264226Y-76849937D01*
X174433744Y-76963205D01*
X174622102Y-77041226D01*
X174822061Y-77081000D01*
X175025939Y-77081000D01*
X175225898Y-77041226D01*
X175414256Y-76963205D01*
X175462454Y-76931000D01*
X182633928Y-76931000D01*
X182633928Y-77096000D01*
X182646188Y-77220482D01*
X182682498Y-77340180D01*
X182741463Y-77450494D01*
X182820815Y-77547185D01*
X182917506Y-77626537D01*
X182931546Y-77634042D01*
X182828772Y-77787853D01*
X182701754Y-78094504D01*
X182637000Y-78420042D01*
X182637000Y-78751958D01*
X182701754Y-79077496D01*
X182828772Y-79384147D01*
X183013175Y-79660125D01*
X183209050Y-79856000D01*
X183013175Y-80051875D01*
X182828772Y-80327853D01*
X182701754Y-80634504D01*
X182637000Y-80960042D01*
X182637000Y-81291958D01*
X182701754Y-81617496D01*
X182828772Y-81924147D01*
X183013175Y-82200125D01*
X183247875Y-82434825D01*
X183523853Y-82619228D01*
X183830504Y-82746246D01*
X184156042Y-82811000D01*
X184487958Y-82811000D01*
X184813496Y-82746246D01*
X185120147Y-82619228D01*
X185282121Y-82511000D01*
X186542315Y-82511000D01*
X189287001Y-85255687D01*
X189287000Y-94927315D01*
X186619454Y-92259769D01*
X186576081Y-92206919D01*
X186365188Y-92033843D01*
X186124581Y-91905236D01*
X185863507Y-91826040D01*
X185660037Y-91806000D01*
X185660029Y-91806000D01*
X185592000Y-91799300D01*
X185564613Y-91801997D01*
X185608609Y-91758001D01*
X185493068Y-91642460D01*
X185762579Y-91540661D01*
X185908463Y-91242523D01*
X185993380Y-90921654D01*
X186014066Y-90590383D01*
X185969728Y-90261443D01*
X185862069Y-89947473D01*
X185762579Y-89761339D01*
X185664918Y-89724451D01*
X185726494Y-89691537D01*
X185823185Y-89612185D01*
X185902537Y-89515494D01*
X185961502Y-89405180D01*
X185997812Y-89285482D01*
X186010072Y-89161000D01*
X186010072Y-87061000D01*
X185997812Y-86936518D01*
X185961502Y-86816820D01*
X185902537Y-86706506D01*
X185823185Y-86609815D01*
X185726494Y-86530463D01*
X185616180Y-86471498D01*
X185496482Y-86435188D01*
X185372000Y-86422928D01*
X183272000Y-86422928D01*
X183147518Y-86435188D01*
X183027820Y-86471498D01*
X182917506Y-86530463D01*
X182820815Y-86609815D01*
X182741463Y-86706506D01*
X182682498Y-86816820D01*
X182646188Y-86936518D01*
X182633928Y-87061000D01*
X182633928Y-87226000D01*
X175462454Y-87226000D01*
X175414256Y-87193795D01*
X175225898Y-87115774D01*
X175025939Y-87076000D01*
X174822061Y-87076000D01*
X174622102Y-87115774D01*
X174433744Y-87193795D01*
X174264226Y-87307063D01*
X174120063Y-87451226D01*
X174006795Y-87620744D01*
X173928774Y-87809102D01*
X173889000Y-88009061D01*
X173889000Y-88212939D01*
X173928774Y-88412898D01*
X174006795Y-88601256D01*
X174120063Y-88770774D01*
X174264226Y-88914937D01*
X174433744Y-89028205D01*
X174622102Y-89106226D01*
X174822061Y-89146000D01*
X175025939Y-89146000D01*
X175225898Y-89106226D01*
X175414256Y-89028205D01*
X175462454Y-88996000D01*
X182633928Y-88996000D01*
X182633928Y-89161000D01*
X182646188Y-89285482D01*
X182682498Y-89405180D01*
X182741463Y-89515494D01*
X182820815Y-89612185D01*
X182917506Y-89691537D01*
X182979082Y-89724451D01*
X182881421Y-89761339D01*
X182735537Y-90059477D01*
X182650620Y-90380346D01*
X182629934Y-90711617D01*
X182674272Y-91040557D01*
X182781931Y-91354527D01*
X182881421Y-91540661D01*
X183150934Y-91642461D01*
X184142395Y-90651000D01*
X184128253Y-90636858D01*
X184307858Y-90457253D01*
X184322000Y-90471395D01*
X184336143Y-90457253D01*
X184515748Y-90636858D01*
X184501605Y-90651000D01*
X184515748Y-90665143D01*
X184336143Y-90844748D01*
X184322000Y-90830605D01*
X183330539Y-91822066D01*
X183332009Y-91825958D01*
X183247875Y-91882175D01*
X183013175Y-92116875D01*
X182828772Y-92392853D01*
X182701754Y-92699504D01*
X182637000Y-93025042D01*
X182637000Y-93356958D01*
X182701754Y-93682496D01*
X182828772Y-93989147D01*
X183013175Y-94265125D01*
X183247875Y-94499825D01*
X183523853Y-94684228D01*
X183830504Y-94811246D01*
X184156042Y-94876000D01*
X184487958Y-94876000D01*
X184813496Y-94811246D01*
X185120147Y-94684228D01*
X185123981Y-94681666D01*
X189287001Y-98844687D01*
X189287000Y-106992315D01*
X186619454Y-104324769D01*
X186576081Y-104271919D01*
X186365188Y-104098843D01*
X186124581Y-103970236D01*
X185863507Y-103891040D01*
X185660037Y-103871000D01*
X185660029Y-103871000D01*
X185592000Y-103864300D01*
X185564613Y-103866997D01*
X185608609Y-103823001D01*
X185493068Y-103707460D01*
X185762579Y-103605661D01*
X185908463Y-103307523D01*
X185993380Y-102986654D01*
X186014066Y-102655383D01*
X185969728Y-102326443D01*
X185862069Y-102012473D01*
X185762579Y-101826339D01*
X185664918Y-101789451D01*
X185726494Y-101756537D01*
X185823185Y-101677185D01*
X185902537Y-101580494D01*
X185961502Y-101470180D01*
X185997812Y-101350482D01*
X186010072Y-101226000D01*
X186010072Y-99126000D01*
X185997812Y-99001518D01*
X185961502Y-98881820D01*
X185902537Y-98771506D01*
X185823185Y-98674815D01*
X185726494Y-98595463D01*
X185616180Y-98536498D01*
X185496482Y-98500188D01*
X185372000Y-98487928D01*
X183272000Y-98487928D01*
X183147518Y-98500188D01*
X183027820Y-98536498D01*
X182917506Y-98595463D01*
X182820815Y-98674815D01*
X182741463Y-98771506D01*
X182682498Y-98881820D01*
X182646188Y-99001518D01*
X182633928Y-99126000D01*
X182633928Y-99291000D01*
X175335454Y-99291000D01*
X175287256Y-99258795D01*
X175098898Y-99180774D01*
X174898939Y-99141000D01*
X174695061Y-99141000D01*
X174495102Y-99180774D01*
X174306744Y-99258795D01*
X174137226Y-99372063D01*
X173993063Y-99516226D01*
X173879795Y-99685744D01*
X173801774Y-99874102D01*
X173762000Y-100074061D01*
X173762000Y-100277939D01*
X173801774Y-100477898D01*
X173879795Y-100666256D01*
X173993063Y-100835774D01*
X174137226Y-100979937D01*
X174306744Y-101093205D01*
X174495102Y-101171226D01*
X174695061Y-101211000D01*
X174898939Y-101211000D01*
X175098898Y-101171226D01*
X175287256Y-101093205D01*
X175335454Y-101061000D01*
X182633928Y-101061000D01*
X182633928Y-101226000D01*
X182646188Y-101350482D01*
X182682498Y-101470180D01*
X182741463Y-101580494D01*
X182820815Y-101677185D01*
X182917506Y-101756537D01*
X182979082Y-101789451D01*
X182881421Y-101826339D01*
X182735537Y-102124477D01*
X182650620Y-102445346D01*
X182629934Y-102776617D01*
X182674272Y-103105557D01*
X182781931Y-103419527D01*
X182881421Y-103605661D01*
X183150934Y-103707461D01*
X184142395Y-102716000D01*
X184128253Y-102701858D01*
X184307858Y-102522253D01*
X184322000Y-102536395D01*
X184336143Y-102522253D01*
X184515748Y-102701858D01*
X184501605Y-102716000D01*
X184515748Y-102730143D01*
X184336143Y-102909748D01*
X184322000Y-102895605D01*
X183330539Y-103887066D01*
X183332009Y-103890958D01*
X183247875Y-103947175D01*
X183013175Y-104181875D01*
X182828772Y-104457853D01*
X182701754Y-104764504D01*
X182637000Y-105090042D01*
X182637000Y-105421958D01*
X182701754Y-105747496D01*
X182828772Y-106054147D01*
X183013175Y-106330125D01*
X183247875Y-106564825D01*
X183523853Y-106749228D01*
X183830504Y-106876246D01*
X184156042Y-106941000D01*
X184487958Y-106941000D01*
X184813496Y-106876246D01*
X185120147Y-106749228D01*
X185123981Y-106746666D01*
X189287001Y-110909687D01*
X189287000Y-120176314D01*
X186034315Y-123429000D01*
X185999731Y-123429000D01*
X186010072Y-123324000D01*
X186010072Y-123305688D01*
X186068081Y-123258081D01*
X186111454Y-123205231D01*
X188809241Y-120507445D01*
X188862080Y-120464081D01*
X188905445Y-120411241D01*
X188905452Y-120411234D01*
X189035157Y-120253188D01*
X189163764Y-120012581D01*
X189242960Y-119751507D01*
X189245812Y-119722548D01*
X189263000Y-119548037D01*
X189263000Y-119548029D01*
X189269700Y-119480000D01*
X189263000Y-119411971D01*
X189263000Y-116627026D01*
X189269700Y-116558999D01*
X189263000Y-116490972D01*
X189263000Y-116490963D01*
X189242960Y-116287493D01*
X189163764Y-116026419D01*
X189035157Y-115785812D01*
X188862081Y-115574919D01*
X188809231Y-115531546D01*
X187381454Y-114103769D01*
X187338081Y-114050919D01*
X187127188Y-113877843D01*
X186886581Y-113749236D01*
X186625507Y-113670040D01*
X186422037Y-113650000D01*
X186422029Y-113650000D01*
X186354000Y-113643300D01*
X186285971Y-113650000D01*
X185728993Y-113650000D01*
X185761502Y-113589180D01*
X185797812Y-113469482D01*
X185810072Y-113345000D01*
X185807000Y-112780750D01*
X185648250Y-112622000D01*
X184449000Y-112622000D01*
X184449000Y-112642000D01*
X184195000Y-112642000D01*
X184195000Y-112622000D01*
X182995750Y-112622000D01*
X182837000Y-112780750D01*
X182833928Y-113345000D01*
X182846188Y-113469482D01*
X182882498Y-113589180D01*
X182941463Y-113699494D01*
X183020815Y-113796185D01*
X183117506Y-113875537D01*
X183227820Y-113934502D01*
X183300380Y-113956513D01*
X183168525Y-114088368D01*
X183006010Y-114331589D01*
X182894068Y-114601842D01*
X182837000Y-114888740D01*
X182837000Y-115181260D01*
X182894068Y-115468158D01*
X183006010Y-115738411D01*
X183168525Y-115981632D01*
X183375368Y-116188475D01*
X183377650Y-116190000D01*
X174862686Y-116190000D01*
X173112858Y-114440172D01*
X173123748Y-111645000D01*
X182833928Y-111645000D01*
X182837000Y-112209250D01*
X182995750Y-112368000D01*
X184195000Y-112368000D01*
X184195000Y-111168750D01*
X184449000Y-111168750D01*
X184449000Y-112368000D01*
X185648250Y-112368000D01*
X185807000Y-112209250D01*
X185810072Y-111645000D01*
X185797812Y-111520518D01*
X185761502Y-111400820D01*
X185702537Y-111290506D01*
X185623185Y-111193815D01*
X185526494Y-111114463D01*
X185416180Y-111055498D01*
X185296482Y-111019188D01*
X185172000Y-111006928D01*
X184607750Y-111010000D01*
X184449000Y-111168750D01*
X184195000Y-111168750D01*
X184036250Y-111010000D01*
X183472000Y-111006928D01*
X183347518Y-111019188D01*
X183227820Y-111055498D01*
X183117506Y-111114463D01*
X183020815Y-111193815D01*
X182941463Y-111290506D01*
X182882498Y-111400820D01*
X182846188Y-111520518D01*
X182833928Y-111645000D01*
X173123748Y-111645000D01*
X173385500Y-44461682D01*
X184165000Y-44461682D01*
X184165000Y-45138318D01*
X184297006Y-45801952D01*
X184555943Y-46427082D01*
X184931862Y-46989685D01*
X185410315Y-47468138D01*
X185972918Y-47844057D01*
X186598048Y-48102994D01*
X187261682Y-48235000D01*
X187938318Y-48235000D01*
X188601952Y-48102994D01*
X189227082Y-47844057D01*
X189789685Y-47468138D01*
X190268138Y-46989685D01*
X190644057Y-46427082D01*
X190902994Y-45801952D01*
X191035000Y-45138318D01*
X191035000Y-44461682D01*
X190902994Y-43798048D01*
X190644057Y-43172918D01*
X190268138Y-42610315D01*
X189789685Y-42131862D01*
X189227082Y-41755943D01*
X188601952Y-41497006D01*
X187938318Y-41365000D01*
X187261682Y-41365000D01*
X186598048Y-41497006D01*
X185972918Y-41755943D01*
X185410315Y-42131862D01*
X184931862Y-42610315D01*
X184555943Y-43172918D01*
X184297006Y-43798048D01*
X184165000Y-44461682D01*
X173385500Y-44461682D01*
X173399506Y-40867000D01*
X189389356Y-40867000D01*
X189807905Y-41066638D01*
G37*
%TD.AperFunction*%
%TD*%
M02*
