M48
; DRILL file {KiCad 5.1.10-1.fc34} date Tue Jun  8 11:48:31 2021
; FORMAT={-:-/ absolute / inch / decimal}
; #@! TF.CreationDate,2021-06-08T11:48:31-04:00
; #@! TF.GenerationSoftware,Kicad,Pcbnew,5.1.10-1.fc34
; #@! TF.FileFunction,Plated,1,2,PTH
FMAT,2
INCH
T1C0.0157
T2C0.0394
T3C0.0433
T4C0.1260
%
G90
G05
T1
X5.1318Y-4.6389
X5.1318Y-4.7339
X5.1318Y-4.8239
X5.1318Y-5.0139
X5.1368Y-4.9139
X6.8818Y-3.9439
X6.8868Y-2.0439
X6.8868Y-2.5189
X6.8868Y-2.9939
X6.8868Y-3.4689
T2
X5.1024Y-3.1024
X5.1024Y-3.2024
X5.1024Y-3.3024
X5.1024Y-3.4024
X5.1024Y-3.5024
X5.1024Y-3.6024
X5.1024Y-3.7024
X5.1024Y-3.8024
X5.1024Y-3.9024
X5.1024Y-4.0024
X5.315Y-3.937
X5.315Y-4.037
X5.315Y-4.137
X5.315Y-4.237
X5.315Y-4.337
X5.315Y-4.437
X5.315Y-4.537
X5.315Y-4.637
X5.315Y-4.737
X5.315Y-4.837
X5.315Y-4.937
X5.315Y-5.037
X5.315Y-5.137
X5.315Y-5.237
X5.315Y-5.337
X5.915Y-3.937
X5.915Y-4.037
X5.915Y-4.137
X5.915Y-4.237
X5.915Y-4.337
X5.915Y-4.437
X5.915Y-4.537
X5.915Y-4.637
X5.915Y-4.737
X5.915Y-4.837
X5.915Y-4.937
X5.915Y-5.037
X5.915Y-5.137
X5.915Y-5.237
X5.915Y-5.337
X7.2568Y-4.4289
X7.2568Y-4.5289
X7.2568Y-4.6289
T3
X7.2568Y-2.0439
X7.2568Y-2.1439
X7.2568Y-2.2439
X7.2568Y-2.5189
X7.2568Y-2.6189
X7.2568Y-2.7189
X7.2568Y-2.9939
X7.2568Y-3.0939
X7.2568Y-3.1939
X7.2568Y-3.4689
X7.2568Y-3.5689
X7.2568Y-3.6689
X7.2568Y-3.9439
X7.2568Y-4.0439
X7.2568Y-4.1439
X7.2568Y-4.8139
X7.2568Y-4.9139
T4
X5.0236Y-1.7638
X5.0236Y-5.3071
X7.3858Y-1.7638
X7.3858Y-5.3071
T0
M30
