%TF.GenerationSoftware,KiCad,Pcbnew,(6.0.4)*%
%TF.CreationDate,2023-07-24T13:06:08-04:00*%
%TF.ProjectId,BREAD_Slice,42524541-445f-4536-9c69-63652e6b6963,rev?*%
%TF.SameCoordinates,Original*%
%TF.FileFunction,Legend,Top*%
%TF.FilePolarity,Positive*%
%FSLAX46Y46*%
G04 Gerber Fmt 4.6, Leading zero omitted, Abs format (unit mm)*
G04 Created by KiCad (PCBNEW (6.0.4)) date 2023-07-24 13:06:08*
%MOMM*%
%LPD*%
G01*
G04 APERTURE LIST*
%ADD10C,0.150000*%
%ADD11C,0.300000*%
%ADD12C,0.120000*%
%ADD13C,0.010000*%
G04 APERTURE END LIST*
D10*
X131404761Y-99511904D02*
X130947619Y-99511904D01*
X131176190Y-99511904D02*
X131176190Y-98711904D01*
X131100000Y-98826190D01*
X131023809Y-98902380D01*
X130947619Y-98940476D01*
X131709523Y-98788095D02*
X131747619Y-98750000D01*
X131823809Y-98711904D01*
X132014285Y-98711904D01*
X132090476Y-98750000D01*
X132128571Y-98788095D01*
X132166666Y-98864285D01*
X132166666Y-98940476D01*
X132128571Y-99054761D01*
X131671428Y-99511904D01*
X132166666Y-99511904D01*
X132395238Y-98711904D02*
X132661904Y-99511904D01*
X132928571Y-98711904D01*
X142957618Y-129907142D02*
X142957618Y-128954761D01*
X143529046Y-130097619D02*
X141529046Y-129430952D01*
X143529046Y-128764285D01*
X143529046Y-126954761D02*
X142576665Y-127621428D01*
X143529046Y-128097619D02*
X141529046Y-128097619D01*
X141529046Y-127335714D01*
X141624285Y-127145238D01*
X141719523Y-127050000D01*
X141909999Y-126954761D01*
X142195713Y-126954761D01*
X142386189Y-127050000D01*
X142481427Y-127145238D01*
X142576665Y-127335714D01*
X142576665Y-128097619D01*
X143529046Y-126097619D02*
X141529046Y-126097619D01*
X141529046Y-125621428D01*
X141624285Y-125335714D01*
X141814761Y-125145238D01*
X142005237Y-125050000D01*
X142386189Y-124954761D01*
X142671904Y-124954761D01*
X143052856Y-125050000D01*
X143243332Y-125145238D01*
X143433808Y-125335714D01*
X143529046Y-125621428D01*
X143529046Y-126097619D01*
X141529046Y-124097619D02*
X143148094Y-124097619D01*
X143338570Y-124002380D01*
X143433808Y-123907142D01*
X143529046Y-123716666D01*
X143529046Y-123335714D01*
X143433808Y-123145238D01*
X143338570Y-123050000D01*
X143148094Y-122954761D01*
X141529046Y-122954761D01*
X143529046Y-122002380D02*
X141529046Y-122002380D01*
X143529046Y-121050000D02*
X141529046Y-121050000D01*
X143529046Y-119907142D01*
X141529046Y-119907142D01*
X141529046Y-118573809D02*
X141529046Y-118192857D01*
X141624285Y-118002380D01*
X141814761Y-117811904D01*
X142195713Y-117716666D01*
X142862380Y-117716666D01*
X143243332Y-117811904D01*
X143433808Y-118002380D01*
X143529046Y-118192857D01*
X143529046Y-118573809D01*
X143433808Y-118764285D01*
X143243332Y-118954761D01*
X142862380Y-119050000D01*
X142195713Y-119050000D01*
X141814761Y-118954761D01*
X141624285Y-118764285D01*
X141529046Y-118573809D01*
X143529046Y-115335714D02*
X141529046Y-115335714D01*
X143529046Y-114192857D01*
X141529046Y-114192857D01*
X142957618Y-113335714D02*
X142957618Y-112383333D01*
X143529046Y-113526190D02*
X141529046Y-112859523D01*
X143529046Y-112192857D01*
X143529046Y-111526190D02*
X141529046Y-111526190D01*
X143529046Y-110383333D01*
X141529046Y-110383333D01*
X141529046Y-109050000D02*
X141529046Y-108669047D01*
X141624285Y-108478571D01*
X141814761Y-108288095D01*
X142195713Y-108192857D01*
X142862380Y-108192857D01*
X143243332Y-108288095D01*
X143433808Y-108478571D01*
X143529046Y-108669047D01*
X143529046Y-109050000D01*
X143433808Y-109240476D01*
X143243332Y-109430952D01*
X142862380Y-109526190D01*
X142195713Y-109526190D01*
X141814761Y-109430952D01*
X141624285Y-109240476D01*
X141529046Y-109050000D01*
X130985713Y-96961904D02*
X130985713Y-96161904D01*
X131366665Y-96961904D02*
X131366665Y-96161904D01*
X131823808Y-96961904D01*
X131823808Y-96161904D01*
X132090475Y-96161904D02*
X132547618Y-96161904D01*
X132319046Y-96961904D02*
X132319046Y-96161904D01*
D11*
X175878570Y-105915714D02*
X175807142Y-105987142D01*
X175592856Y-106058571D01*
X175449999Y-106058571D01*
X175235713Y-105987142D01*
X175092856Y-105844285D01*
X175021427Y-105701428D01*
X174949999Y-105415714D01*
X174949999Y-105201428D01*
X175021427Y-104915714D01*
X175092856Y-104772857D01*
X175235713Y-104630000D01*
X175449999Y-104558571D01*
X175592856Y-104558571D01*
X175807142Y-104630000D01*
X175878570Y-104701428D01*
X176521427Y-104558571D02*
X176521427Y-105772857D01*
X176592856Y-105915714D01*
X176664285Y-105987142D01*
X176807142Y-106058571D01*
X177092856Y-106058571D01*
X177235713Y-105987142D01*
X177307142Y-105915714D01*
X177378570Y-105772857D01*
X177378570Y-104558571D01*
X178949999Y-106058571D02*
X178449999Y-105344285D01*
X178092856Y-106058571D02*
X178092856Y-104558571D01*
X178664285Y-104558571D01*
X178807142Y-104630000D01*
X178878570Y-104701428D01*
X178949999Y-104844285D01*
X178949999Y-105058571D01*
X178878570Y-105201428D01*
X178807142Y-105272857D01*
X178664285Y-105344285D01*
X178092856Y-105344285D01*
X179521427Y-104701428D02*
X179592856Y-104630000D01*
X179735713Y-104558571D01*
X180092856Y-104558571D01*
X180235713Y-104630000D01*
X180307142Y-104701428D01*
X180378570Y-104844285D01*
X180378570Y-104987142D01*
X180307142Y-105201428D01*
X179449999Y-106058571D01*
X180378570Y-106058571D01*
D10*
X131404761Y-81711904D02*
X130947619Y-81711904D01*
X131176190Y-81711904D02*
X131176190Y-80911904D01*
X131100000Y-81026190D01*
X131023809Y-81102380D01*
X130947619Y-81140476D01*
X131709523Y-80988095D02*
X131747619Y-80950000D01*
X131823809Y-80911904D01*
X132014285Y-80911904D01*
X132090476Y-80950000D01*
X132128571Y-80988095D01*
X132166666Y-81064285D01*
X132166666Y-81140476D01*
X132128571Y-81254761D01*
X131671428Y-81711904D01*
X132166666Y-81711904D01*
X132395238Y-80911904D02*
X132661904Y-81711904D01*
X132928571Y-80911904D01*
D11*
X175878570Y-59560714D02*
X175807142Y-59632142D01*
X175592856Y-59703571D01*
X175449999Y-59703571D01*
X175235713Y-59632142D01*
X175092856Y-59489285D01*
X175021427Y-59346428D01*
X174949999Y-59060714D01*
X174949999Y-58846428D01*
X175021427Y-58560714D01*
X175092856Y-58417857D01*
X175235713Y-58275000D01*
X175449999Y-58203571D01*
X175592856Y-58203571D01*
X175807142Y-58275000D01*
X175878570Y-58346428D01*
X176521427Y-58203571D02*
X176521427Y-59417857D01*
X176592856Y-59560714D01*
X176664285Y-59632142D01*
X176807142Y-59703571D01*
X177092856Y-59703571D01*
X177235713Y-59632142D01*
X177307142Y-59560714D01*
X177378570Y-59417857D01*
X177378570Y-58203571D01*
X178949999Y-59703571D02*
X178449999Y-58989285D01*
X178092856Y-59703571D02*
X178092856Y-58203571D01*
X178664285Y-58203571D01*
X178807142Y-58275000D01*
X178878570Y-58346428D01*
X178949999Y-58489285D01*
X178949999Y-58703571D01*
X178878570Y-58846428D01*
X178807142Y-58917857D01*
X178664285Y-58989285D01*
X178092856Y-58989285D01*
X180235713Y-58703571D02*
X180235713Y-59703571D01*
X179878570Y-58132142D02*
X179521427Y-59203571D01*
X180449999Y-59203571D01*
D10*
X130947619Y-84223809D02*
X131061904Y-84261904D01*
X131252380Y-84261904D01*
X131328571Y-84223809D01*
X131366666Y-84185714D01*
X131404761Y-84109523D01*
X131404761Y-84033333D01*
X131366666Y-83957142D01*
X131328571Y-83919047D01*
X131252380Y-83880952D01*
X131100000Y-83842857D01*
X131023809Y-83804761D01*
X130985714Y-83766666D01*
X130947619Y-83690476D01*
X130947619Y-83614285D01*
X130985714Y-83538095D01*
X131023809Y-83500000D01*
X131100000Y-83461904D01*
X131290476Y-83461904D01*
X131404761Y-83500000D01*
X132204761Y-84185714D02*
X132166666Y-84223809D01*
X132052380Y-84261904D01*
X131976190Y-84261904D01*
X131861904Y-84223809D01*
X131785714Y-84147619D01*
X131747619Y-84071428D01*
X131709523Y-83919047D01*
X131709523Y-83804761D01*
X131747619Y-83652380D01*
X131785714Y-83576190D01*
X131861904Y-83500000D01*
X131976190Y-83461904D01*
X132052380Y-83461904D01*
X132166666Y-83500000D01*
X132204761Y-83538095D01*
X132928571Y-84261904D02*
X132547619Y-84261904D01*
X132547619Y-83461904D01*
X130947618Y-94373809D02*
X131061904Y-94411904D01*
X131252380Y-94411904D01*
X131328571Y-94373809D01*
X131366666Y-94335714D01*
X131404761Y-94259523D01*
X131404761Y-94183333D01*
X131366666Y-94107142D01*
X131328571Y-94069047D01*
X131252380Y-94030952D01*
X131099999Y-93992857D01*
X131023809Y-93954761D01*
X130985714Y-93916666D01*
X130947618Y-93840476D01*
X130947618Y-93764285D01*
X130985714Y-93688095D01*
X131023809Y-93650000D01*
X131099999Y-93611904D01*
X131290475Y-93611904D01*
X131404761Y-93650000D01*
X131899999Y-94030952D02*
X131899999Y-94411904D01*
X131633333Y-93611904D02*
X131899999Y-94030952D01*
X132166666Y-93611904D01*
X132433333Y-94411904D02*
X132433333Y-93611904D01*
X132890475Y-94411904D01*
X132890475Y-93611904D01*
X133728571Y-94335714D02*
X133690475Y-94373809D01*
X133576190Y-94411904D01*
X133499999Y-94411904D01*
X133385714Y-94373809D01*
X133309523Y-94297619D01*
X133271428Y-94221428D01*
X133233333Y-94069047D01*
X133233333Y-93954761D01*
X133271428Y-93802380D01*
X133309523Y-93726190D01*
X133385714Y-93650000D01*
X133499999Y-93611904D01*
X133576190Y-93611904D01*
X133690475Y-93650000D01*
X133728571Y-93688095D01*
X130985713Y-91442857D02*
X131252380Y-91442857D01*
X131366665Y-91861904D02*
X130985713Y-91861904D01*
X130985713Y-91061904D01*
X131366665Y-91061904D01*
X131671427Y-91823809D02*
X131785713Y-91861904D01*
X131976189Y-91861904D01*
X132052380Y-91823809D01*
X132090475Y-91785714D01*
X132128570Y-91709523D01*
X132128570Y-91633333D01*
X132090475Y-91557142D01*
X132052380Y-91519047D01*
X131976189Y-91480952D01*
X131823808Y-91442857D01*
X131747618Y-91404761D01*
X131709523Y-91366666D01*
X131671427Y-91290476D01*
X131671427Y-91214285D01*
X131709523Y-91138095D01*
X131747618Y-91100000D01*
X131823808Y-91061904D01*
X132014284Y-91061904D01*
X132128570Y-91100000D01*
X132357142Y-91061904D02*
X132814284Y-91061904D01*
X132585713Y-91861904D02*
X132585713Y-91061904D01*
X133233332Y-91061904D02*
X133385713Y-91061904D01*
X133461904Y-91100000D01*
X133538094Y-91176190D01*
X133576189Y-91328571D01*
X133576189Y-91595238D01*
X133538094Y-91747619D01*
X133461904Y-91823809D01*
X133385713Y-91861904D01*
X133233332Y-91861904D01*
X133157142Y-91823809D01*
X133080951Y-91747619D01*
X133042856Y-91595238D01*
X133042856Y-91328571D01*
X133080951Y-91176190D01*
X133157142Y-91100000D01*
X133233332Y-91061904D01*
X133919046Y-91861904D02*
X133919046Y-91061904D01*
X134223808Y-91061904D01*
X134299999Y-91100000D01*
X134338094Y-91138095D01*
X134376189Y-91214285D01*
X134376189Y-91328571D01*
X134338094Y-91404761D01*
X134299999Y-91442857D01*
X134223808Y-91480952D01*
X133919046Y-91480952D01*
X131404761Y-88600000D02*
X131328570Y-88561904D01*
X131214285Y-88561904D01*
X131099999Y-88600000D01*
X131023808Y-88676190D01*
X130985713Y-88752380D01*
X130947618Y-88904761D01*
X130947618Y-89019047D01*
X130985713Y-89171428D01*
X131023808Y-89247619D01*
X131099999Y-89323809D01*
X131214285Y-89361904D01*
X131290475Y-89361904D01*
X131404761Y-89323809D01*
X131442856Y-89285714D01*
X131442856Y-89019047D01*
X131290475Y-89019047D01*
X131785713Y-89361904D02*
X131785713Y-88561904D01*
X132242856Y-89361904D01*
X132242856Y-88561904D01*
X132623808Y-89361904D02*
X132623808Y-88561904D01*
X132814285Y-88561904D01*
X132928570Y-88600000D01*
X133004761Y-88676190D01*
X133042856Y-88752380D01*
X133080951Y-88904761D01*
X133080951Y-89019047D01*
X133042856Y-89171428D01*
X133004761Y-89247619D01*
X132928570Y-89323809D01*
X132814285Y-89361904D01*
X132623808Y-89361904D01*
D11*
X175878570Y-126235714D02*
X175807142Y-126307142D01*
X175592856Y-126378571D01*
X175449999Y-126378571D01*
X175235713Y-126307142D01*
X175092856Y-126164285D01*
X175021427Y-126021428D01*
X174949999Y-125735714D01*
X174949999Y-125521428D01*
X175021427Y-125235714D01*
X175092856Y-125092857D01*
X175235713Y-124950000D01*
X175449999Y-124878571D01*
X175592856Y-124878571D01*
X175807142Y-124950000D01*
X175878570Y-125021428D01*
X176521427Y-124878571D02*
X176521427Y-126092857D01*
X176592856Y-126235714D01*
X176664285Y-126307142D01*
X176807142Y-126378571D01*
X177092856Y-126378571D01*
X177235713Y-126307142D01*
X177307142Y-126235714D01*
X177378570Y-126092857D01*
X177378570Y-124878571D01*
X178949999Y-126378571D02*
X178449999Y-125664285D01*
X178092856Y-126378571D02*
X178092856Y-124878571D01*
X178664285Y-124878571D01*
X178807142Y-124950000D01*
X178878570Y-125021428D01*
X178949999Y-125164285D01*
X178949999Y-125378571D01*
X178878570Y-125521428D01*
X178807142Y-125592857D01*
X178664285Y-125664285D01*
X178092856Y-125664285D01*
X180378570Y-126378571D02*
X179521427Y-126378571D01*
X179949999Y-126378571D02*
X179949999Y-124878571D01*
X179807142Y-125092857D01*
X179664285Y-125235714D01*
X179521427Y-125307142D01*
D10*
X130947618Y-86773809D02*
X131061904Y-86811904D01*
X131252380Y-86811904D01*
X131328570Y-86773809D01*
X131366666Y-86735714D01*
X131404761Y-86659523D01*
X131404761Y-86583333D01*
X131366666Y-86507142D01*
X131328570Y-86469047D01*
X131252380Y-86430952D01*
X131099999Y-86392857D01*
X131023808Y-86354761D01*
X130985713Y-86316666D01*
X130947618Y-86240476D01*
X130947618Y-86164285D01*
X130985713Y-86088095D01*
X131023808Y-86050000D01*
X131099999Y-86011904D01*
X131290475Y-86011904D01*
X131404761Y-86050000D01*
X131747618Y-86811904D02*
X131747618Y-86011904D01*
X131938094Y-86011904D01*
X132052380Y-86050000D01*
X132128570Y-86126190D01*
X132166666Y-86202380D01*
X132204761Y-86354761D01*
X132204761Y-86469047D01*
X132166666Y-86621428D01*
X132128570Y-86697619D01*
X132052380Y-86773809D01*
X131938094Y-86811904D01*
X131747618Y-86811904D01*
X132509523Y-86583333D02*
X132890475Y-86583333D01*
X132433332Y-86811904D02*
X132699999Y-86011904D01*
X132966666Y-86811904D01*
X152620380Y-134292714D02*
X152620380Y-134959380D01*
X152382285Y-133911761D02*
X152144190Y-134626047D01*
X152763238Y-134626047D01*
X153334666Y-133959380D02*
X153429904Y-133959380D01*
X153525142Y-134007000D01*
X153572761Y-134054619D01*
X153620380Y-134149857D01*
X153668000Y-134340333D01*
X153668000Y-134578428D01*
X153620380Y-134768904D01*
X153572761Y-134864142D01*
X153525142Y-134911761D01*
X153429904Y-134959380D01*
X153334666Y-134959380D01*
X153239428Y-134911761D01*
X153191809Y-134864142D01*
X153144190Y-134768904D01*
X153096571Y-134578428D01*
X153096571Y-134340333D01*
X153144190Y-134149857D01*
X153191809Y-134054619D01*
X153239428Y-134007000D01*
X153334666Y-133959380D01*
X154048952Y-134673666D02*
X154525142Y-134673666D01*
X153953714Y-134959380D02*
X154287047Y-133959380D01*
X154620380Y-134959380D01*
X156287047Y-134864142D02*
X156239428Y-134911761D01*
X156096571Y-134959380D01*
X156001333Y-134959380D01*
X155858476Y-134911761D01*
X155763238Y-134816523D01*
X155715619Y-134721285D01*
X155668000Y-134530809D01*
X155668000Y-134387952D01*
X155715619Y-134197476D01*
X155763238Y-134102238D01*
X155858476Y-134007000D01*
X156001333Y-133959380D01*
X156096571Y-133959380D01*
X156239428Y-134007000D01*
X156287047Y-134054619D01*
X157144190Y-134292714D02*
X157144190Y-134959380D01*
X156715619Y-134292714D02*
X156715619Y-134816523D01*
X156763238Y-134911761D01*
X156858476Y-134959380D01*
X157001333Y-134959380D01*
X157096571Y-134911761D01*
X157144190Y-134864142D01*
X157620380Y-134959380D02*
X157620380Y-134292714D01*
X157620380Y-134483190D02*
X157668000Y-134387952D01*
X157715619Y-134340333D01*
X157810857Y-134292714D01*
X157906095Y-134292714D01*
X158239428Y-134959380D02*
X158239428Y-134292714D01*
X158239428Y-134483190D02*
X158287047Y-134387952D01*
X158334666Y-134340333D01*
X158429904Y-134292714D01*
X158525142Y-134292714D01*
X159239428Y-134911761D02*
X159144190Y-134959380D01*
X158953714Y-134959380D01*
X158858476Y-134911761D01*
X158810857Y-134816523D01*
X158810857Y-134435571D01*
X158858476Y-134340333D01*
X158953714Y-134292714D01*
X159144190Y-134292714D01*
X159239428Y-134340333D01*
X159287047Y-134435571D01*
X159287047Y-134530809D01*
X158810857Y-134626047D01*
X159715619Y-134292714D02*
X159715619Y-134959380D01*
X159715619Y-134387952D02*
X159763238Y-134340333D01*
X159858476Y-134292714D01*
X160001333Y-134292714D01*
X160096571Y-134340333D01*
X160144190Y-134435571D01*
X160144190Y-134959380D01*
X160477523Y-134292714D02*
X160858476Y-134292714D01*
X160620380Y-133959380D02*
X160620380Y-134816523D01*
X160668000Y-134911761D01*
X160763238Y-134959380D01*
X160858476Y-134959380D01*
X161906095Y-134911761D02*
X162048952Y-134959380D01*
X162287047Y-134959380D01*
X162382285Y-134911761D01*
X162429904Y-134864142D01*
X162477523Y-134768904D01*
X162477523Y-134673666D01*
X162429904Y-134578428D01*
X162382285Y-134530809D01*
X162287047Y-134483190D01*
X162096571Y-134435571D01*
X162001333Y-134387952D01*
X161953714Y-134340333D01*
X161906095Y-134245095D01*
X161906095Y-134149857D01*
X161953714Y-134054619D01*
X162001333Y-134007000D01*
X162096571Y-133959380D01*
X162334666Y-133959380D01*
X162477523Y-134007000D01*
X163048952Y-134959380D02*
X162953714Y-134911761D01*
X162906095Y-134816523D01*
X162906095Y-133959380D01*
X163429904Y-134959380D02*
X163429904Y-134292714D01*
X163429904Y-133959380D02*
X163382285Y-134007000D01*
X163429904Y-134054619D01*
X163477523Y-134007000D01*
X163429904Y-133959380D01*
X163429904Y-134054619D01*
X164334666Y-134911761D02*
X164239428Y-134959380D01*
X164048952Y-134959380D01*
X163953714Y-134911761D01*
X163906095Y-134864142D01*
X163858476Y-134768904D01*
X163858476Y-134483190D01*
X163906095Y-134387952D01*
X163953714Y-134340333D01*
X164048952Y-134292714D01*
X164239428Y-134292714D01*
X164334666Y-134340333D01*
X165144190Y-134911761D02*
X165048952Y-134959380D01*
X164858476Y-134959380D01*
X164763238Y-134911761D01*
X164715619Y-134816523D01*
X164715619Y-134435571D01*
X164763238Y-134340333D01*
X164858476Y-134292714D01*
X165048952Y-134292714D01*
X165144190Y-134340333D01*
X165191809Y-134435571D01*
X165191809Y-134530809D01*
X164715619Y-134626047D01*
X155144190Y-136521761D02*
X155287047Y-136569380D01*
X155525142Y-136569380D01*
X155620380Y-136521761D01*
X155668000Y-136474142D01*
X155715619Y-136378904D01*
X155715619Y-136283666D01*
X155668000Y-136188428D01*
X155620380Y-136140809D01*
X155525142Y-136093190D01*
X155334666Y-136045571D01*
X155239428Y-135997952D01*
X155191809Y-135950333D01*
X155144190Y-135855095D01*
X155144190Y-135759857D01*
X155191809Y-135664619D01*
X155239428Y-135617000D01*
X155334666Y-135569380D01*
X155572761Y-135569380D01*
X155715619Y-135617000D01*
X156620380Y-136569380D02*
X156144190Y-136569380D01*
X156144190Y-135569380D01*
X157525142Y-136474142D02*
X157477523Y-136521761D01*
X157334666Y-136569380D01*
X157239428Y-136569380D01*
X157096571Y-136521761D01*
X157001333Y-136426523D01*
X156953714Y-136331285D01*
X156906095Y-136140809D01*
X156906095Y-135997952D01*
X156953714Y-135807476D01*
X157001333Y-135712238D01*
X157096571Y-135617000D01*
X157239428Y-135569380D01*
X157334666Y-135569380D01*
X157477523Y-135617000D01*
X157525142Y-135664619D01*
X157715619Y-136664619D02*
X158477523Y-136664619D01*
X159287047Y-136474142D02*
X159239428Y-136521761D01*
X159096571Y-136569380D01*
X159001333Y-136569380D01*
X158858476Y-136521761D01*
X158763238Y-136426523D01*
X158715619Y-136331285D01*
X158668000Y-136140809D01*
X158668000Y-135997952D01*
X158715619Y-135807476D01*
X158763238Y-135712238D01*
X158858476Y-135617000D01*
X159001333Y-135569380D01*
X159096571Y-135569380D01*
X159239428Y-135617000D01*
X159287047Y-135664619D01*
X160287047Y-136569380D02*
X159953714Y-136093190D01*
X159715619Y-136569380D02*
X159715619Y-135569380D01*
X160096571Y-135569380D01*
X160191809Y-135617000D01*
X160239428Y-135664619D01*
X160287047Y-135759857D01*
X160287047Y-135902714D01*
X160239428Y-135997952D01*
X160191809Y-136045571D01*
X160096571Y-136093190D01*
X159715619Y-136093190D01*
X161144190Y-135902714D02*
X161144190Y-136569380D01*
X160906095Y-135521761D02*
X160668000Y-136236047D01*
X161287047Y-136236047D01*
X161858476Y-135569380D02*
X161953714Y-135569380D01*
X162048952Y-135617000D01*
X162096571Y-135664619D01*
X162144190Y-135759857D01*
X162191809Y-135950333D01*
X162191809Y-136188428D01*
X162144190Y-136378904D01*
X162096571Y-136474142D01*
X162048952Y-136521761D01*
X161953714Y-136569380D01*
X161858476Y-136569380D01*
X161763238Y-136521761D01*
X161715619Y-136474142D01*
X161668000Y-136378904D01*
X161620380Y-136188428D01*
X161620380Y-135950333D01*
X161668000Y-135759857D01*
X161715619Y-135664619D01*
X161763238Y-135617000D01*
X161858476Y-135569380D01*
X156215619Y-138179380D02*
X155882285Y-137703190D01*
X155644190Y-138179380D02*
X155644190Y-137179380D01*
X156025142Y-137179380D01*
X156120380Y-137227000D01*
X156168000Y-137274619D01*
X156215619Y-137369857D01*
X156215619Y-137512714D01*
X156168000Y-137607952D01*
X156120380Y-137655571D01*
X156025142Y-137703190D01*
X155644190Y-137703190D01*
X156834666Y-137179380D02*
X156929904Y-137179380D01*
X157025142Y-137227000D01*
X157072761Y-137274619D01*
X157120380Y-137369857D01*
X157168000Y-137560333D01*
X157168000Y-137798428D01*
X157120380Y-137988904D01*
X157072761Y-138084142D01*
X157025142Y-138131761D01*
X156929904Y-138179380D01*
X156834666Y-138179380D01*
X156739428Y-138131761D01*
X156691809Y-138084142D01*
X156644190Y-137988904D01*
X156596571Y-137798428D01*
X156596571Y-137560333D01*
X156644190Y-137369857D01*
X156691809Y-137274619D01*
X156739428Y-137227000D01*
X156834666Y-137179380D01*
X158310857Y-137274619D02*
X158358476Y-137227000D01*
X158453714Y-137179380D01*
X158691809Y-137179380D01*
X158787047Y-137227000D01*
X158834666Y-137274619D01*
X158882285Y-137369857D01*
X158882285Y-137465095D01*
X158834666Y-137607952D01*
X158263238Y-138179380D01*
X158882285Y-138179380D01*
X159501333Y-137179380D02*
X159596571Y-137179380D01*
X159691809Y-137227000D01*
X159739428Y-137274619D01*
X159787047Y-137369857D01*
X159834666Y-137560333D01*
X159834666Y-137798428D01*
X159787047Y-137988904D01*
X159739428Y-138084142D01*
X159691809Y-138131761D01*
X159596571Y-138179380D01*
X159501333Y-138179380D01*
X159406095Y-138131761D01*
X159358476Y-138084142D01*
X159310857Y-137988904D01*
X159263238Y-137798428D01*
X159263238Y-137560333D01*
X159310857Y-137369857D01*
X159358476Y-137274619D01*
X159406095Y-137227000D01*
X159501333Y-137179380D01*
X160215619Y-137274619D02*
X160263238Y-137227000D01*
X160358476Y-137179380D01*
X160596571Y-137179380D01*
X160691809Y-137227000D01*
X160739428Y-137274619D01*
X160787047Y-137369857D01*
X160787047Y-137465095D01*
X160739428Y-137607952D01*
X160168000Y-138179380D01*
X160787047Y-138179380D01*
X161739428Y-138179380D02*
X161168000Y-138179380D01*
X161453714Y-138179380D02*
X161453714Y-137179380D01*
X161358476Y-137322238D01*
X161263238Y-137417476D01*
X161168000Y-137465095D01*
X131404761Y-78400000D02*
X131328570Y-78361904D01*
X131214285Y-78361904D01*
X131099999Y-78400000D01*
X131023808Y-78476190D01*
X130985713Y-78552380D01*
X130947618Y-78704761D01*
X130947618Y-78819047D01*
X130985713Y-78971428D01*
X131023808Y-79047619D01*
X131099999Y-79123809D01*
X131214285Y-79161904D01*
X131290475Y-79161904D01*
X131404761Y-79123809D01*
X131442856Y-79085714D01*
X131442856Y-78819047D01*
X131290475Y-78819047D01*
X131785713Y-79161904D02*
X131785713Y-78361904D01*
X132242856Y-79161904D01*
X132242856Y-78361904D01*
X132623808Y-79161904D02*
X132623808Y-78361904D01*
X132814285Y-78361904D01*
X132928570Y-78400000D01*
X133004761Y-78476190D01*
X133042856Y-78552380D01*
X133080951Y-78704761D01*
X133080951Y-78819047D01*
X133042856Y-78971428D01*
X133004761Y-79047619D01*
X132928570Y-79123809D01*
X132814285Y-79161904D01*
X132623808Y-79161904D01*
X131404761Y-101250000D02*
X131328570Y-101211904D01*
X131214285Y-101211904D01*
X131099999Y-101250000D01*
X131023808Y-101326190D01*
X130985713Y-101402380D01*
X130947618Y-101554761D01*
X130947618Y-101669047D01*
X130985713Y-101821428D01*
X131023808Y-101897619D01*
X131099999Y-101973809D01*
X131214285Y-102011904D01*
X131290475Y-102011904D01*
X131404761Y-101973809D01*
X131442856Y-101935714D01*
X131442856Y-101669047D01*
X131290475Y-101669047D01*
X131785713Y-102011904D02*
X131785713Y-101211904D01*
X132242856Y-102011904D01*
X132242856Y-101211904D01*
X132623808Y-102011904D02*
X132623808Y-101211904D01*
X132814285Y-101211904D01*
X132928570Y-101250000D01*
X133004761Y-101326190D01*
X133042856Y-101402380D01*
X133080951Y-101554761D01*
X133080951Y-101669047D01*
X133042856Y-101821428D01*
X133004761Y-101897619D01*
X132928570Y-101973809D01*
X132814285Y-102011904D01*
X132623808Y-102011904D01*
D11*
X175878570Y-82801714D02*
X175807142Y-82873142D01*
X175592856Y-82944571D01*
X175449999Y-82944571D01*
X175235713Y-82873142D01*
X175092856Y-82730285D01*
X175021427Y-82587428D01*
X174949999Y-82301714D01*
X174949999Y-82087428D01*
X175021427Y-81801714D01*
X175092856Y-81658857D01*
X175235713Y-81516000D01*
X175449999Y-81444571D01*
X175592856Y-81444571D01*
X175807142Y-81516000D01*
X175878570Y-81587428D01*
X176521427Y-81444571D02*
X176521427Y-82658857D01*
X176592856Y-82801714D01*
X176664285Y-82873142D01*
X176807142Y-82944571D01*
X177092856Y-82944571D01*
X177235713Y-82873142D01*
X177307142Y-82801714D01*
X177378570Y-82658857D01*
X177378570Y-81444571D01*
X178949999Y-82944571D02*
X178449999Y-82230285D01*
X178092856Y-82944571D02*
X178092856Y-81444571D01*
X178664285Y-81444571D01*
X178807142Y-81516000D01*
X178878570Y-81587428D01*
X178949999Y-81730285D01*
X178949999Y-81944571D01*
X178878570Y-82087428D01*
X178807142Y-82158857D01*
X178664285Y-82230285D01*
X178092856Y-82230285D01*
X179449999Y-81444571D02*
X180378570Y-81444571D01*
X179878570Y-82016000D01*
X180092856Y-82016000D01*
X180235713Y-82087428D01*
X180307142Y-82158857D01*
X180378570Y-82301714D01*
X180378570Y-82658857D01*
X180307142Y-82801714D01*
X180235713Y-82873142D01*
X180092856Y-82944571D01*
X179664285Y-82944571D01*
X179521427Y-82873142D01*
X179449999Y-82801714D01*
D10*
%TO.C,A1*%
X141905714Y-95086666D02*
X142381904Y-95086666D01*
X141810476Y-95372380D02*
X142143809Y-94372380D01*
X142477142Y-95372380D01*
X143334285Y-95372380D02*
X142762857Y-95372380D01*
X143048571Y-95372380D02*
X143048571Y-94372380D01*
X142953333Y-94515238D01*
X142858095Y-94610476D01*
X142762857Y-94658095D01*
%TO.C,J1*%
X124886666Y-75482380D02*
X124886666Y-76196666D01*
X124839047Y-76339523D01*
X124743809Y-76434761D01*
X124600952Y-76482380D01*
X124505714Y-76482380D01*
X125886666Y-76482380D02*
X125315238Y-76482380D01*
X125600952Y-76482380D02*
X125600952Y-75482380D01*
X125505714Y-75625238D01*
X125410476Y-75720476D01*
X125315238Y-75768095D01*
%TO.C,J2*%
X190751380Y-128322333D02*
X191465666Y-128322333D01*
X191608523Y-128369952D01*
X191703761Y-128465190D01*
X191751380Y-128608047D01*
X191751380Y-128703285D01*
X190846619Y-127893761D02*
X190799000Y-127846142D01*
X190751380Y-127750904D01*
X190751380Y-127512809D01*
X190799000Y-127417571D01*
X190846619Y-127369952D01*
X190941857Y-127322333D01*
X191037095Y-127322333D01*
X191179952Y-127369952D01*
X191751380Y-127941380D01*
X191751380Y-127322333D01*
%TO.C,J3*%
X190624380Y-123242333D02*
X191338666Y-123242333D01*
X191481523Y-123289952D01*
X191576761Y-123385190D01*
X191624380Y-123528047D01*
X191624380Y-123623285D01*
X190624380Y-122861380D02*
X190624380Y-122242333D01*
X191005333Y-122575666D01*
X191005333Y-122432809D01*
X191052952Y-122337571D01*
X191100571Y-122289952D01*
X191195809Y-122242333D01*
X191433904Y-122242333D01*
X191529142Y-122289952D01*
X191576761Y-122337571D01*
X191624380Y-122432809D01*
X191624380Y-122718523D01*
X191576761Y-122813761D01*
X191529142Y-122861380D01*
%TO.C,J4*%
X191513380Y-85015333D02*
X192227666Y-85015333D01*
X192370523Y-85062952D01*
X192465761Y-85158190D01*
X192513380Y-85301047D01*
X192513380Y-85396285D01*
X191846714Y-84110571D02*
X192513380Y-84110571D01*
X191465761Y-84348666D02*
X192180047Y-84586761D01*
X192180047Y-83967714D01*
%TO.C,J5*%
X191259380Y-80062333D02*
X191973666Y-80062333D01*
X192116523Y-80109952D01*
X192211761Y-80205190D01*
X192259380Y-80348047D01*
X192259380Y-80443285D01*
X191259380Y-79109952D02*
X191259380Y-79586142D01*
X191735571Y-79633761D01*
X191687952Y-79586142D01*
X191640333Y-79490904D01*
X191640333Y-79252809D01*
X191687952Y-79157571D01*
X191735571Y-79109952D01*
X191830809Y-79062333D01*
X192068904Y-79062333D01*
X192164142Y-79109952D01*
X192211761Y-79157571D01*
X192259380Y-79252809D01*
X192259380Y-79490904D01*
X192211761Y-79586142D01*
X192164142Y-79633761D01*
%TO.C,J6*%
X190751380Y-108002333D02*
X191465666Y-108002333D01*
X191608523Y-108049952D01*
X191703761Y-108145190D01*
X191751380Y-108288047D01*
X191751380Y-108383285D01*
X190751380Y-107097571D02*
X190751380Y-107288047D01*
X190799000Y-107383285D01*
X190846619Y-107430904D01*
X190989476Y-107526142D01*
X191179952Y-107573761D01*
X191560904Y-107573761D01*
X191656142Y-107526142D01*
X191703761Y-107478523D01*
X191751380Y-107383285D01*
X191751380Y-107192809D01*
X191703761Y-107097571D01*
X191656142Y-107049952D01*
X191560904Y-107002333D01*
X191322809Y-107002333D01*
X191227571Y-107049952D01*
X191179952Y-107097571D01*
X191132333Y-107192809D01*
X191132333Y-107383285D01*
X191179952Y-107478523D01*
X191227571Y-107526142D01*
X191322809Y-107573761D01*
%TO.C,J7*%
X190878380Y-102922333D02*
X191592666Y-102922333D01*
X191735523Y-102969952D01*
X191830761Y-103065190D01*
X191878380Y-103208047D01*
X191878380Y-103303285D01*
X190878380Y-102541380D02*
X190878380Y-101874714D01*
X191878380Y-102303285D01*
%TO.C,J8*%
X190751380Y-61774333D02*
X191465666Y-61774333D01*
X191608523Y-61821952D01*
X191703761Y-61917190D01*
X191751380Y-62060047D01*
X191751380Y-62155285D01*
X191179952Y-61155285D02*
X191132333Y-61250523D01*
X191084714Y-61298142D01*
X190989476Y-61345761D01*
X190941857Y-61345761D01*
X190846619Y-61298142D01*
X190799000Y-61250523D01*
X190751380Y-61155285D01*
X190751380Y-60964809D01*
X190799000Y-60869571D01*
X190846619Y-60821952D01*
X190941857Y-60774333D01*
X190989476Y-60774333D01*
X191084714Y-60821952D01*
X191132333Y-60869571D01*
X191179952Y-60964809D01*
X191179952Y-61155285D01*
X191227571Y-61250523D01*
X191275190Y-61298142D01*
X191370428Y-61345761D01*
X191560904Y-61345761D01*
X191656142Y-61298142D01*
X191703761Y-61250523D01*
X191751380Y-61155285D01*
X191751380Y-60964809D01*
X191703761Y-60869571D01*
X191656142Y-60821952D01*
X191560904Y-60774333D01*
X191370428Y-60774333D01*
X191275190Y-60821952D01*
X191227571Y-60869571D01*
X191179952Y-60964809D01*
%TO.C,J9*%
X190751380Y-56186333D02*
X191465666Y-56186333D01*
X191608523Y-56233952D01*
X191703761Y-56329190D01*
X191751380Y-56472047D01*
X191751380Y-56567285D01*
X191751380Y-55662523D02*
X191751380Y-55472047D01*
X191703761Y-55376809D01*
X191656142Y-55329190D01*
X191513285Y-55233952D01*
X191322809Y-55186333D01*
X190941857Y-55186333D01*
X190846619Y-55233952D01*
X190799000Y-55281571D01*
X190751380Y-55376809D01*
X190751380Y-55567285D01*
X190799000Y-55662523D01*
X190846619Y-55710142D01*
X190941857Y-55757761D01*
X191179952Y-55757761D01*
X191275190Y-55710142D01*
X191322809Y-55662523D01*
X191370428Y-55567285D01*
X191370428Y-55376809D01*
X191322809Y-55281571D01*
X191275190Y-55233952D01*
X191179952Y-55186333D01*
D12*
%TO.C,A1*%
X133600000Y-101270000D02*
X133600000Y-139500000D01*
X136270000Y-101270000D02*
X133600000Y-101270000D01*
X148970000Y-98730000D02*
X151640000Y-98730000D01*
X136270000Y-136830000D02*
X133600000Y-136830000D01*
X136270000Y-101270000D02*
X136270000Y-136830000D01*
X133600000Y-139500000D02*
X151640000Y-139500000D01*
X151640000Y-139500000D02*
X151640000Y-96060000D01*
X133600000Y-96060000D02*
X133600000Y-98730000D01*
X136270000Y-98730000D02*
X133600000Y-98730000D01*
X151640000Y-96060000D02*
X133600000Y-96060000D01*
X136270000Y-101270000D02*
X136270000Y-98730000D01*
X148970000Y-98730000D02*
X148970000Y-136830000D01*
X148970000Y-136830000D02*
X151640000Y-136830000D01*
%TO.C,J1*%
X128140000Y-79160000D02*
X128490000Y-79160000D01*
X119510000Y-78652855D02*
X128140000Y-78652855D01*
X128140000Y-96220000D02*
X128550000Y-96220000D01*
X119510000Y-77590000D02*
X128140000Y-77590000D01*
X119510000Y-90230000D02*
X128140000Y-90230000D01*
X129600000Y-77470000D02*
X130710000Y-77470000D01*
X119510000Y-100390000D02*
X128140000Y-100390000D01*
X119510000Y-79007140D02*
X128140000Y-79007140D01*
X128140000Y-94400000D02*
X128550000Y-94400000D01*
X119510000Y-77470000D02*
X128140000Y-77470000D01*
X119510000Y-79951900D02*
X128140000Y-79951900D01*
X128140000Y-81700000D02*
X128550000Y-81700000D01*
X119510000Y-102990000D02*
X128140000Y-102990000D01*
X128140000Y-96940000D02*
X128550000Y-96940000D01*
X128140000Y-93680000D02*
X128550000Y-93680000D01*
X119510000Y-97850000D02*
X128140000Y-97850000D01*
X119510000Y-87690000D02*
X128140000Y-87690000D01*
X119510000Y-95310000D02*
X128140000Y-95310000D01*
X119510000Y-80070000D02*
X128140000Y-80070000D01*
X128140000Y-101300000D02*
X128550000Y-101300000D01*
X119510000Y-77708095D02*
X128140000Y-77708095D01*
X119510000Y-79479520D02*
X128140000Y-79479520D01*
X119510000Y-77470000D02*
X119510000Y-102990000D01*
X128140000Y-98760000D02*
X128550000Y-98760000D01*
X119510000Y-79125235D02*
X128140000Y-79125235D01*
X119510000Y-78180475D02*
X128140000Y-78180475D01*
X130710000Y-77470000D02*
X130710000Y-78800000D01*
X119510000Y-79715710D02*
X128140000Y-79715710D01*
X119510000Y-79597615D02*
X128140000Y-79597615D01*
X128140000Y-83520000D02*
X128550000Y-83520000D01*
X128140000Y-91140000D02*
X128550000Y-91140000D01*
X128140000Y-80980000D02*
X128550000Y-80980000D01*
X128140000Y-102020000D02*
X128550000Y-102020000D01*
X119510000Y-78416665D02*
X128140000Y-78416665D01*
X128140000Y-91860000D02*
X128550000Y-91860000D01*
X119510000Y-78889045D02*
X128140000Y-78889045D01*
X119510000Y-85150000D02*
X128140000Y-85150000D01*
X119510000Y-77826190D02*
X128140000Y-77826190D01*
X119510000Y-78770950D02*
X128140000Y-78770950D01*
X128140000Y-89320000D02*
X128550000Y-89320000D01*
X119510000Y-78298570D02*
X128140000Y-78298570D01*
X119510000Y-79243330D02*
X128140000Y-79243330D01*
X128140000Y-77470000D02*
X128140000Y-102990000D01*
X128140000Y-86060000D02*
X128550000Y-86060000D01*
X128140000Y-84240000D02*
X128550000Y-84240000D01*
X119510000Y-92770000D02*
X128140000Y-92770000D01*
X128140000Y-78440000D02*
X128490000Y-78440000D01*
X128140000Y-99480000D02*
X128550000Y-99480000D01*
X119510000Y-78534760D02*
X128140000Y-78534760D01*
X119510000Y-82610000D02*
X128140000Y-82610000D01*
X119510000Y-78062380D02*
X128140000Y-78062380D01*
X119510000Y-79361425D02*
X128140000Y-79361425D01*
X119510000Y-79833805D02*
X128140000Y-79833805D01*
X128140000Y-88600000D02*
X128550000Y-88600000D01*
X128140000Y-86780000D02*
X128550000Y-86780000D01*
X119510000Y-77944285D02*
X128140000Y-77944285D01*
%TO.C,Logo1*%
G36*
X168875814Y-133458931D02*
G01*
X168959635Y-133903555D01*
X169268920Y-134031053D01*
X169578206Y-134158551D01*
X169949246Y-133906246D01*
X170053157Y-133835996D01*
X170147087Y-133773272D01*
X170226652Y-133720938D01*
X170287470Y-133681857D01*
X170325157Y-133658893D01*
X170335421Y-133653942D01*
X170353910Y-133666676D01*
X170393420Y-133701882D01*
X170449522Y-133755062D01*
X170517787Y-133821718D01*
X170593786Y-133897354D01*
X170673092Y-133977472D01*
X170751275Y-134057574D01*
X170823907Y-134133164D01*
X170886559Y-134199745D01*
X170934803Y-134252818D01*
X170964210Y-134287887D01*
X170971241Y-134299623D01*
X170961123Y-134321260D01*
X170932759Y-134368662D01*
X170889129Y-134437193D01*
X170833218Y-134522215D01*
X170768006Y-134619093D01*
X170730219Y-134674350D01*
X170661343Y-134775248D01*
X170600140Y-134866299D01*
X170549578Y-134942970D01*
X170512628Y-135000728D01*
X170492258Y-135035043D01*
X170489197Y-135042254D01*
X170496136Y-135062748D01*
X170515051Y-135110513D01*
X170543087Y-135178832D01*
X170577391Y-135260989D01*
X170615109Y-135350270D01*
X170653387Y-135439958D01*
X170689370Y-135523338D01*
X170720206Y-135593694D01*
X170743039Y-135644310D01*
X170755017Y-135668471D01*
X170755724Y-135669422D01*
X170774531Y-135674036D01*
X170824618Y-135684328D01*
X170900793Y-135699287D01*
X170997865Y-135717901D01*
X171110643Y-135739159D01*
X171176442Y-135751418D01*
X171296950Y-135774362D01*
X171405797Y-135796195D01*
X171497476Y-135815722D01*
X171566481Y-135831748D01*
X171607304Y-135843079D01*
X171615511Y-135846674D01*
X171623548Y-135871006D01*
X171630033Y-135925959D01*
X171634970Y-136005108D01*
X171638364Y-136102026D01*
X171640218Y-136210287D01*
X171640538Y-136323465D01*
X171639327Y-136435135D01*
X171636590Y-136538868D01*
X171632331Y-136628241D01*
X171626555Y-136696826D01*
X171619267Y-136738197D01*
X171614895Y-136746810D01*
X171588764Y-136757133D01*
X171533393Y-136771892D01*
X171456107Y-136789352D01*
X171364230Y-136807780D01*
X171332158Y-136813741D01*
X171177524Y-136842066D01*
X171055375Y-136864876D01*
X170961673Y-136883080D01*
X170892384Y-136897583D01*
X170843471Y-136909292D01*
X170810897Y-136919115D01*
X170790628Y-136927956D01*
X170778626Y-136936724D01*
X170776947Y-136938457D01*
X170760184Y-136966371D01*
X170734614Y-137020695D01*
X170702788Y-137094777D01*
X170667260Y-137181965D01*
X170630583Y-137275608D01*
X170595311Y-137369052D01*
X170563996Y-137455647D01*
X170539193Y-137528740D01*
X170523454Y-137581678D01*
X170519332Y-137607811D01*
X170519676Y-137608726D01*
X170533641Y-137630086D01*
X170565322Y-137677084D01*
X170611391Y-137744827D01*
X170668518Y-137828423D01*
X170733373Y-137922982D01*
X170751843Y-137949854D01*
X170817699Y-138047275D01*
X170875650Y-138136163D01*
X170922538Y-138211412D01*
X170955207Y-138267920D01*
X170970500Y-138300581D01*
X170971241Y-138304593D01*
X170958392Y-138325684D01*
X170922888Y-138367464D01*
X170869293Y-138425445D01*
X170802171Y-138495135D01*
X170726087Y-138572045D01*
X170645604Y-138651683D01*
X170565287Y-138729561D01*
X170489699Y-138801186D01*
X170423405Y-138862070D01*
X170370969Y-138907721D01*
X170336955Y-138933650D01*
X170327545Y-138937883D01*
X170305643Y-138927912D01*
X170260800Y-138901020D01*
X170200321Y-138861736D01*
X170153789Y-138830117D01*
X170069475Y-138772098D01*
X169969626Y-138703784D01*
X169869473Y-138635579D01*
X169815627Y-138599075D01*
X169633371Y-138475800D01*
X169480381Y-138558520D01*
X169410682Y-138594759D01*
X169351414Y-138622926D01*
X169311311Y-138638991D01*
X169301103Y-138641226D01*
X169288829Y-138624722D01*
X169264613Y-138578082D01*
X169230263Y-138505609D01*
X169187588Y-138411606D01*
X169138394Y-138300374D01*
X169084490Y-138176215D01*
X169027684Y-138043432D01*
X168969782Y-137906327D01*
X168912593Y-137769202D01*
X168857924Y-137636358D01*
X168807584Y-137512098D01*
X168763380Y-137400725D01*
X168727119Y-137306539D01*
X168700609Y-137233844D01*
X168685658Y-137186941D01*
X168683254Y-137170833D01*
X168702311Y-137150286D01*
X168744036Y-137116933D01*
X168799706Y-137077702D01*
X168804378Y-137074599D01*
X168948264Y-136959423D01*
X169064283Y-136825053D01*
X169151430Y-136675784D01*
X169208699Y-136515913D01*
X169235086Y-136349737D01*
X169229585Y-136181552D01*
X169191190Y-136015655D01*
X169118895Y-135856342D01*
X169097626Y-135821487D01*
X168986996Y-135680737D01*
X168856302Y-135567714D01*
X168710064Y-135483003D01*
X168552808Y-135427194D01*
X168389057Y-135400874D01*
X168223333Y-135404630D01*
X168060162Y-135439050D01*
X167904065Y-135504723D01*
X167759567Y-135602235D01*
X167714869Y-135641813D01*
X167601112Y-135765703D01*
X167518218Y-135896124D01*
X167461356Y-136042315D01*
X167429687Y-136187088D01*
X167421869Y-136349860D01*
X167447938Y-136513440D01*
X167505245Y-136672298D01*
X167591144Y-136820906D01*
X167702986Y-136953735D01*
X167838123Y-137065256D01*
X167855883Y-137077011D01*
X167912150Y-137115508D01*
X167954923Y-137148863D01*
X167975372Y-137170160D01*
X167975669Y-137170833D01*
X167971279Y-137193871D01*
X167953876Y-137246157D01*
X167925268Y-137323390D01*
X167887265Y-137421268D01*
X167841674Y-137535491D01*
X167790303Y-137661758D01*
X167734962Y-137795767D01*
X167677458Y-137933218D01*
X167619601Y-138069808D01*
X167563198Y-138201237D01*
X167510058Y-138323205D01*
X167461990Y-138431409D01*
X167420801Y-138521549D01*
X167388301Y-138589323D01*
X167366297Y-138630430D01*
X167357436Y-138641226D01*
X167330360Y-138632819D01*
X167279697Y-138610272D01*
X167214183Y-138577613D01*
X167178159Y-138558520D01*
X167025168Y-138475800D01*
X166842912Y-138599075D01*
X166749875Y-138662228D01*
X166648015Y-138731727D01*
X166552562Y-138797165D01*
X166504750Y-138830117D01*
X166437505Y-138875273D01*
X166380564Y-138911057D01*
X166341354Y-138932938D01*
X166328619Y-138937563D01*
X166310083Y-138925085D01*
X166269059Y-138890252D01*
X166209525Y-138836678D01*
X166135458Y-138767983D01*
X166050835Y-138687781D01*
X165997315Y-138636286D01*
X165903681Y-138544286D01*
X165822759Y-138461999D01*
X165757823Y-138392945D01*
X165712142Y-138340644D01*
X165688989Y-138308616D01*
X165686768Y-138302116D01*
X165697076Y-138277394D01*
X165725561Y-138227405D01*
X165769063Y-138157212D01*
X165824423Y-138071875D01*
X165888480Y-137976456D01*
X165906697Y-137949854D01*
X165973073Y-137853167D01*
X166032622Y-137766117D01*
X166082016Y-137693595D01*
X166117925Y-137640493D01*
X166137019Y-137611703D01*
X166138864Y-137608726D01*
X166136105Y-137585782D01*
X166121462Y-137535336D01*
X166097487Y-137464041D01*
X166066734Y-137378547D01*
X166031756Y-137285507D01*
X165995107Y-137191574D01*
X165959339Y-137103399D01*
X165927006Y-137027634D01*
X165900662Y-136970931D01*
X165882858Y-136939943D01*
X165881593Y-136938457D01*
X165870706Y-136929601D01*
X165852318Y-136920843D01*
X165822394Y-136911277D01*
X165776897Y-136899996D01*
X165711791Y-136886093D01*
X165623039Y-136868663D01*
X165506607Y-136846798D01*
X165358458Y-136819591D01*
X165326382Y-136813741D01*
X165231314Y-136795374D01*
X165148435Y-136777405D01*
X165085070Y-136761569D01*
X165048542Y-136749600D01*
X165043644Y-136746810D01*
X165035573Y-136722072D01*
X165029013Y-136666790D01*
X165023967Y-136587389D01*
X165020441Y-136490296D01*
X165018439Y-136381938D01*
X165017964Y-136268740D01*
X165019023Y-136157128D01*
X165021618Y-136053529D01*
X165025754Y-135964368D01*
X165031437Y-135896072D01*
X165038669Y-135855066D01*
X165043029Y-135846674D01*
X165067302Y-135838208D01*
X165122574Y-135824435D01*
X165203338Y-135806550D01*
X165304088Y-135785748D01*
X165419317Y-135763223D01*
X165482098Y-135751418D01*
X165601213Y-135729151D01*
X165707435Y-135708979D01*
X165795573Y-135691915D01*
X165860434Y-135678969D01*
X165896826Y-135671155D01*
X165902816Y-135669422D01*
X165912939Y-135649890D01*
X165934338Y-135602843D01*
X165964161Y-135535003D01*
X165999555Y-135453091D01*
X166037668Y-135363828D01*
X166075647Y-135273935D01*
X166110640Y-135190135D01*
X166139794Y-135119147D01*
X166160257Y-135067694D01*
X166169177Y-135042497D01*
X166169343Y-135041396D01*
X166159231Y-135021519D01*
X166130883Y-134975777D01*
X166087277Y-134908717D01*
X166031394Y-134824884D01*
X165966213Y-134728826D01*
X165928321Y-134673650D01*
X165859275Y-134572481D01*
X165797950Y-134480630D01*
X165747337Y-134402744D01*
X165710429Y-134343469D01*
X165690218Y-134307451D01*
X165687299Y-134299377D01*
X165699847Y-134280584D01*
X165734537Y-134240457D01*
X165786937Y-134183493D01*
X165852616Y-134114185D01*
X165927144Y-134037031D01*
X166006087Y-133956525D01*
X166085017Y-133877163D01*
X166159500Y-133803440D01*
X166225106Y-133739852D01*
X166277404Y-133690894D01*
X166311961Y-133661061D01*
X166323522Y-133653942D01*
X166342346Y-133663953D01*
X166387369Y-133692078D01*
X166454213Y-133735454D01*
X166538501Y-133791218D01*
X166635856Y-133856506D01*
X166709293Y-133906246D01*
X167080333Y-134158551D01*
X167698905Y-133903555D01*
X167782725Y-133458931D01*
X167866546Y-133014307D01*
X168791994Y-133014307D01*
X168875814Y-133458931D01*
G37*
D13*
X168875814Y-133458931D02*
X168959635Y-133903555D01*
X169268920Y-134031053D01*
X169578206Y-134158551D01*
X169949246Y-133906246D01*
X170053157Y-133835996D01*
X170147087Y-133773272D01*
X170226652Y-133720938D01*
X170287470Y-133681857D01*
X170325157Y-133658893D01*
X170335421Y-133653942D01*
X170353910Y-133666676D01*
X170393420Y-133701882D01*
X170449522Y-133755062D01*
X170517787Y-133821718D01*
X170593786Y-133897354D01*
X170673092Y-133977472D01*
X170751275Y-134057574D01*
X170823907Y-134133164D01*
X170886559Y-134199745D01*
X170934803Y-134252818D01*
X170964210Y-134287887D01*
X170971241Y-134299623D01*
X170961123Y-134321260D01*
X170932759Y-134368662D01*
X170889129Y-134437193D01*
X170833218Y-134522215D01*
X170768006Y-134619093D01*
X170730219Y-134674350D01*
X170661343Y-134775248D01*
X170600140Y-134866299D01*
X170549578Y-134942970D01*
X170512628Y-135000728D01*
X170492258Y-135035043D01*
X170489197Y-135042254D01*
X170496136Y-135062748D01*
X170515051Y-135110513D01*
X170543087Y-135178832D01*
X170577391Y-135260989D01*
X170615109Y-135350270D01*
X170653387Y-135439958D01*
X170689370Y-135523338D01*
X170720206Y-135593694D01*
X170743039Y-135644310D01*
X170755017Y-135668471D01*
X170755724Y-135669422D01*
X170774531Y-135674036D01*
X170824618Y-135684328D01*
X170900793Y-135699287D01*
X170997865Y-135717901D01*
X171110643Y-135739159D01*
X171176442Y-135751418D01*
X171296950Y-135774362D01*
X171405797Y-135796195D01*
X171497476Y-135815722D01*
X171566481Y-135831748D01*
X171607304Y-135843079D01*
X171615511Y-135846674D01*
X171623548Y-135871006D01*
X171630033Y-135925959D01*
X171634970Y-136005108D01*
X171638364Y-136102026D01*
X171640218Y-136210287D01*
X171640538Y-136323465D01*
X171639327Y-136435135D01*
X171636590Y-136538868D01*
X171632331Y-136628241D01*
X171626555Y-136696826D01*
X171619267Y-136738197D01*
X171614895Y-136746810D01*
X171588764Y-136757133D01*
X171533393Y-136771892D01*
X171456107Y-136789352D01*
X171364230Y-136807780D01*
X171332158Y-136813741D01*
X171177524Y-136842066D01*
X171055375Y-136864876D01*
X170961673Y-136883080D01*
X170892384Y-136897583D01*
X170843471Y-136909292D01*
X170810897Y-136919115D01*
X170790628Y-136927956D01*
X170778626Y-136936724D01*
X170776947Y-136938457D01*
X170760184Y-136966371D01*
X170734614Y-137020695D01*
X170702788Y-137094777D01*
X170667260Y-137181965D01*
X170630583Y-137275608D01*
X170595311Y-137369052D01*
X170563996Y-137455647D01*
X170539193Y-137528740D01*
X170523454Y-137581678D01*
X170519332Y-137607811D01*
X170519676Y-137608726D01*
X170533641Y-137630086D01*
X170565322Y-137677084D01*
X170611391Y-137744827D01*
X170668518Y-137828423D01*
X170733373Y-137922982D01*
X170751843Y-137949854D01*
X170817699Y-138047275D01*
X170875650Y-138136163D01*
X170922538Y-138211412D01*
X170955207Y-138267920D01*
X170970500Y-138300581D01*
X170971241Y-138304593D01*
X170958392Y-138325684D01*
X170922888Y-138367464D01*
X170869293Y-138425445D01*
X170802171Y-138495135D01*
X170726087Y-138572045D01*
X170645604Y-138651683D01*
X170565287Y-138729561D01*
X170489699Y-138801186D01*
X170423405Y-138862070D01*
X170370969Y-138907721D01*
X170336955Y-138933650D01*
X170327545Y-138937883D01*
X170305643Y-138927912D01*
X170260800Y-138901020D01*
X170200321Y-138861736D01*
X170153789Y-138830117D01*
X170069475Y-138772098D01*
X169969626Y-138703784D01*
X169869473Y-138635579D01*
X169815627Y-138599075D01*
X169633371Y-138475800D01*
X169480381Y-138558520D01*
X169410682Y-138594759D01*
X169351414Y-138622926D01*
X169311311Y-138638991D01*
X169301103Y-138641226D01*
X169288829Y-138624722D01*
X169264613Y-138578082D01*
X169230263Y-138505609D01*
X169187588Y-138411606D01*
X169138394Y-138300374D01*
X169084490Y-138176215D01*
X169027684Y-138043432D01*
X168969782Y-137906327D01*
X168912593Y-137769202D01*
X168857924Y-137636358D01*
X168807584Y-137512098D01*
X168763380Y-137400725D01*
X168727119Y-137306539D01*
X168700609Y-137233844D01*
X168685658Y-137186941D01*
X168683254Y-137170833D01*
X168702311Y-137150286D01*
X168744036Y-137116933D01*
X168799706Y-137077702D01*
X168804378Y-137074599D01*
X168948264Y-136959423D01*
X169064283Y-136825053D01*
X169151430Y-136675784D01*
X169208699Y-136515913D01*
X169235086Y-136349737D01*
X169229585Y-136181552D01*
X169191190Y-136015655D01*
X169118895Y-135856342D01*
X169097626Y-135821487D01*
X168986996Y-135680737D01*
X168856302Y-135567714D01*
X168710064Y-135483003D01*
X168552808Y-135427194D01*
X168389057Y-135400874D01*
X168223333Y-135404630D01*
X168060162Y-135439050D01*
X167904065Y-135504723D01*
X167759567Y-135602235D01*
X167714869Y-135641813D01*
X167601112Y-135765703D01*
X167518218Y-135896124D01*
X167461356Y-136042315D01*
X167429687Y-136187088D01*
X167421869Y-136349860D01*
X167447938Y-136513440D01*
X167505245Y-136672298D01*
X167591144Y-136820906D01*
X167702986Y-136953735D01*
X167838123Y-137065256D01*
X167855883Y-137077011D01*
X167912150Y-137115508D01*
X167954923Y-137148863D01*
X167975372Y-137170160D01*
X167975669Y-137170833D01*
X167971279Y-137193871D01*
X167953876Y-137246157D01*
X167925268Y-137323390D01*
X167887265Y-137421268D01*
X167841674Y-137535491D01*
X167790303Y-137661758D01*
X167734962Y-137795767D01*
X167677458Y-137933218D01*
X167619601Y-138069808D01*
X167563198Y-138201237D01*
X167510058Y-138323205D01*
X167461990Y-138431409D01*
X167420801Y-138521549D01*
X167388301Y-138589323D01*
X167366297Y-138630430D01*
X167357436Y-138641226D01*
X167330360Y-138632819D01*
X167279697Y-138610272D01*
X167214183Y-138577613D01*
X167178159Y-138558520D01*
X167025168Y-138475800D01*
X166842912Y-138599075D01*
X166749875Y-138662228D01*
X166648015Y-138731727D01*
X166552562Y-138797165D01*
X166504750Y-138830117D01*
X166437505Y-138875273D01*
X166380564Y-138911057D01*
X166341354Y-138932938D01*
X166328619Y-138937563D01*
X166310083Y-138925085D01*
X166269059Y-138890252D01*
X166209525Y-138836678D01*
X166135458Y-138767983D01*
X166050835Y-138687781D01*
X165997315Y-138636286D01*
X165903681Y-138544286D01*
X165822759Y-138461999D01*
X165757823Y-138392945D01*
X165712142Y-138340644D01*
X165688989Y-138308616D01*
X165686768Y-138302116D01*
X165697076Y-138277394D01*
X165725561Y-138227405D01*
X165769063Y-138157212D01*
X165824423Y-138071875D01*
X165888480Y-137976456D01*
X165906697Y-137949854D01*
X165973073Y-137853167D01*
X166032622Y-137766117D01*
X166082016Y-137693595D01*
X166117925Y-137640493D01*
X166137019Y-137611703D01*
X166138864Y-137608726D01*
X166136105Y-137585782D01*
X166121462Y-137535336D01*
X166097487Y-137464041D01*
X166066734Y-137378547D01*
X166031756Y-137285507D01*
X165995107Y-137191574D01*
X165959339Y-137103399D01*
X165927006Y-137027634D01*
X165900662Y-136970931D01*
X165882858Y-136939943D01*
X165881593Y-136938457D01*
X165870706Y-136929601D01*
X165852318Y-136920843D01*
X165822394Y-136911277D01*
X165776897Y-136899996D01*
X165711791Y-136886093D01*
X165623039Y-136868663D01*
X165506607Y-136846798D01*
X165358458Y-136819591D01*
X165326382Y-136813741D01*
X165231314Y-136795374D01*
X165148435Y-136777405D01*
X165085070Y-136761569D01*
X165048542Y-136749600D01*
X165043644Y-136746810D01*
X165035573Y-136722072D01*
X165029013Y-136666790D01*
X165023967Y-136587389D01*
X165020441Y-136490296D01*
X165018439Y-136381938D01*
X165017964Y-136268740D01*
X165019023Y-136157128D01*
X165021618Y-136053529D01*
X165025754Y-135964368D01*
X165031437Y-135896072D01*
X165038669Y-135855066D01*
X165043029Y-135846674D01*
X165067302Y-135838208D01*
X165122574Y-135824435D01*
X165203338Y-135806550D01*
X165304088Y-135785748D01*
X165419317Y-135763223D01*
X165482098Y-135751418D01*
X165601213Y-135729151D01*
X165707435Y-135708979D01*
X165795573Y-135691915D01*
X165860434Y-135678969D01*
X165896826Y-135671155D01*
X165902816Y-135669422D01*
X165912939Y-135649890D01*
X165934338Y-135602843D01*
X165964161Y-135535003D01*
X165999555Y-135453091D01*
X166037668Y-135363828D01*
X166075647Y-135273935D01*
X166110640Y-135190135D01*
X166139794Y-135119147D01*
X166160257Y-135067694D01*
X166169177Y-135042497D01*
X166169343Y-135041396D01*
X166159231Y-135021519D01*
X166130883Y-134975777D01*
X166087277Y-134908717D01*
X166031394Y-134824884D01*
X165966213Y-134728826D01*
X165928321Y-134673650D01*
X165859275Y-134572481D01*
X165797950Y-134480630D01*
X165747337Y-134402744D01*
X165710429Y-134343469D01*
X165690218Y-134307451D01*
X165687299Y-134299377D01*
X165699847Y-134280584D01*
X165734537Y-134240457D01*
X165786937Y-134183493D01*
X165852616Y-134114185D01*
X165927144Y-134037031D01*
X166006087Y-133956525D01*
X166085017Y-133877163D01*
X166159500Y-133803440D01*
X166225106Y-133739852D01*
X166277404Y-133690894D01*
X166311961Y-133661061D01*
X166323522Y-133653942D01*
X166342346Y-133663953D01*
X166387369Y-133692078D01*
X166454213Y-133735454D01*
X166538501Y-133791218D01*
X166635856Y-133856506D01*
X166709293Y-133906246D01*
X167080333Y-134158551D01*
X167698905Y-133903555D01*
X167782725Y-133458931D01*
X167866546Y-133014307D01*
X168791994Y-133014307D01*
X168875814Y-133458931D01*
%TD*%
M02*
